<?xml version="1.0" encoding="utf-8"?>
<svg id="master-artboard" viewBox="0 0 1400 980" version="1.1" xmlns="http://www.w3.org/2000/svg" x="0px" y="0px" style="enable-background:new 0 0 1400 980;" width="1400px" height="980px"><g transform="matrix(1.8955512572533848, 0, 0, 1.8955512572533848, 210.00000000000006, 5.684341886080802e-14)"><g id="Capa_x0020_1">
  <metadata id="CorelCorpID_0Corel-Layer"/>
  <path d="M 203 316 L 375 316 L 376 504 L 205 511 Z" class="fil0 str0" style="stroke: rgb(55, 52, 53); stroke-width: 10.8201; stroke-linecap: round; stroke-linejoin: round; fill: rgb(200, 220, 170);"/>
  <path class="fil0 str0" d="M7 204c-8,0 196,112 196,112l81 -136 -175 -82 -102 106z" style="stroke: rgb(55, 52, 53); stroke-width: 10.8201; stroke-linecap: round; stroke-linejoin: round; fill: rgb(200, 220, 170);"/>
  <path d="M 284 180 L 375 316" class="fil1 str0" style="stroke: rgb(55, 52, 53); stroke-width: 10.8201; stroke-linecap: round; stroke-linejoin: round; fill: none;"/>
  <path class="fil2 str0" d="M5 363c-6,0 200,148 200,148l-2 -195 -196 -112 -2 159z" style="stroke: rgb(55, 52, 53); stroke-width: 10.8201; stroke-linecap: round; stroke-linejoin: round; fill: rgb(154, 133, 104);"/>
  <path class="fil3 str0" d="M375 316l1 188 135 -206 -2 -110c9,0 -134,128 -134,128z" style="stroke: rgb(55, 52, 53); stroke-width: 10.8201; stroke-linecap: round; stroke-linejoin: round; fill: rgb(93, 79, 62);"/>
  <path d="M 284 180 L 450 50 L 509 188 L 375 316 Z" class="fil0 str0" style="stroke: rgb(55, 52, 53); stroke-width: 10.8201; stroke-linecap: round; stroke-linejoin: round; fill: rgb(200, 220, 170);"/>
  <path d="M 109 98 L 235 5 L 450 50 L 284 180 Z" class="fil4 str0" style="stroke: rgb(55, 52, 53); stroke-width: 10.8201; stroke-linecap: round; stroke-linejoin: round; fill: rgb(228, 196, 152);"/>
  <path d="M 284 180 L 203 316 L 375 316 Z" class="fil0 str1" style="stroke: rgb(55, 52, 53); stroke-width: 12.2677; stroke-linecap: round; stroke-linejoin: round; fill: rgb(200, 220, 170);"/>
 </g></g></svg>