<?xml version="1.0" encoding="utf-8"?>
<svg id="master-artboard" viewBox="0 0 1400 980" version="1.1" xmlns="http://www.w3.org/2000/svg" x="0px" y="0px" style="enable-background:new 0 0 1400 980;" width="1400px" height="980px"><g transform="matrix(2.76056338028169, 0, 0, 2.76056338028169, 210, 0)"><g id="Capa_x0020_1">
  <metadata id="CorelCorpID_0Corel-Layer"/>
  <path d="M 140 217 L 197 169 L 258 217 L 259 347 L 141 352 Z" class="fil0 str0" style="stroke: rgb(55, 52, 53); stroke-width: 7.44018; stroke-linecap: round; stroke-linejoin: round; fill: rgb(195, 209, 255);"/>
  <path class="fil0 str0" d="M5 140c-6,0 135,77 135,77l57 -48 -1 -45 -121 -57 -70 73z" style="stroke: rgb(55, 52, 53); stroke-width: 7.44018; stroke-linecap: round; stroke-linejoin: round; fill: rgb(195, 209, 255);"/>
  <path d="M 196 124 L 258 217" class="fil1 str0" style="stroke: rgb(55, 52, 53); stroke-width: 7.44018; stroke-linecap: round; stroke-linejoin: round; fill: none;"/>
  <path class="fil2 str0" d="M4 250c-5,0 137,102 137,102l-1 -135 -135 -77 -1 110z" style="stroke: rgb(55, 52, 53); stroke-width: 7.44018; stroke-linecap: round; stroke-linejoin: round; fill: rgb(154, 133, 104);"/>
  <path class="fil3 str0" d="M258 217l1 130 93 -142 -2 -76c6,0 -92,88 -92,88z" style="stroke: rgb(55, 52, 53); stroke-width: 7.44018; stroke-linecap: round; stroke-linejoin: round; fill: rgb(93, 79, 62);"/>
  <path d="M 196 124 L 309 34 L 350 129 L 258 217 L 197 169 Z" class="fil0 str0" style="stroke: rgb(55, 52, 53); stroke-width: 7.44018; stroke-linecap: round; stroke-linejoin: round; fill: rgb(195, 209, 255);"/>
  <path d="M 75 67 L 162 4 L 309 34 L 196 124 Z" class="fil4 str0" style="stroke: rgb(55, 52, 53); stroke-width: 7.44018; stroke-linecap: round; stroke-linejoin: round; fill: rgb(228, 196, 152);"/>
 </g></g></svg>