<?xml version="1.0" encoding="utf-8"?>
<svg id="master-artboard" viewBox="0 0 1400 980" version="1.1" xmlns="http://www.w3.org/2000/svg" x="0px" y="0px" style="enable-background:new 0 0 1400 980;" width="1400px" height="980px"><g transform="matrix(2.506393861892583, 0, 0, 2.506393861892583, 210, 0)"><g id="Capa_x0020_1">
  <metadata id="CorelCorpID_0Corel-Layer"/>
  <path d="M 154 234 L 284 234 L 285 381 L 155 387 Z" class="fil0 str0" style="stroke: rgb(55, 52, 53); stroke-width: 8.19041; stroke-linecap: round; stroke-linejoin: round; fill: rgb(243, 188, 18);"/>
  <path class="fil0 str0" d="M5 146c-6,0 147,86 147,86l61 -107 -131 -62c-40,14 -64,44 -77,83z" style="stroke: rgb(55, 52, 53); stroke-width: 8.19041; stroke-linecap: round; stroke-linejoin: round; fill: rgb(243, 188, 18);"/>
  <path d="M 215 127 L 284 234" class="fil1 str0" style="stroke: rgb(55, 52, 53); stroke-width: 8.19041; stroke-linecap: round; stroke-linejoin: round; fill: none;"/>
  <path class="fil2 str0" d="M4 271c-5,0 151,116 151,116l-1 -153 -149 -88 -1 125z" style="stroke: rgb(55, 52, 53); stroke-width: 8.19041; stroke-linecap: round; stroke-linejoin: round; fill: rgb(154, 133, 104);"/>
  <path class="fil3 str0" d="M284 234l1 147 102 -161 -2 -87c7,0 -101,101 -101,101z" style="stroke: rgb(55, 52, 53); stroke-width: 8.19041; stroke-linecap: round; stroke-linejoin: round; fill: rgb(93, 79, 62);"/>
  <path class="fil0 str0" d="M215 127l125 -102c38,33 52,78 45,108l-101 101 -69 -107z" style="stroke: rgb(55, 52, 53); stroke-width: 8.19041; stroke-linecap: round; stroke-linejoin: round; fill: rgb(243, 188, 18);"/>
  <path d="M 82 63 L 203 4 L 340 25 L 215 127 Z" class="fil4 str0" style="stroke: rgb(55, 52, 53); stroke-width: 8.19041; stroke-linecap: round; stroke-linejoin: round; fill: rgb(228, 196, 152);"/>
  <path class="fil0 str1" d="M215 127c-41,18 -63,60 -61,107 44,27 88,26 130,0 1,-49 -19,-86 -69,-107z" style="stroke: rgb(55, 52, 53); stroke-width: 9.28618; stroke-linecap: round; stroke-linejoin: round; fill: rgb(243, 188, 18);"/>
 </g></g></svg>