<svg xmlns="http://www.w3.org/2000/svg" viewBox="0 0 32 32"><defs><clipPath id="a"><path fill="none" d="M4 4h24v24H4z"/></clipPath></defs><title>help-24</title><g clip-path="url(#a)"><path fill="#4676ba" d="M12 6h6l4 1.5 1.5 1.75L24 11v3l-2.5 5-2.25 1L18 22v4h-3l-3-3v-5l3-3v-1l-1-1H8"/><path fill="#4371b3" stroke="#4371b3" stroke-width=".1" stroke-miterlimit="10" d="M18.94 22.2L17.1 25.4l-.66-.85 1.9-3.14.6.8"/><path fill="#385f96" stroke="#385f96" stroke-width=".1" stroke-miterlimit="10" d="M17.1 25.38l1.84-3.17.16.8-1.78 3.17-.2-.8"/><path fill="#4b7ec7" stroke="#4b7ec7" stroke-width=".1" stroke-miterlimit="10" d="M18.34 21.4l-1.9 3.13-1.04-.8.5-.78.3.12.94-1.48 1.03-.34.17.13"/><path fill="#4f84d0" stroke="#4f84d0" stroke-width=".1" stroke-miterlimit="10" d="M15.9 22.95l-.5.77-1.3-.67.45-.65 1.35.55"/><path fill="#4f85d2" stroke="#4f85d2" stroke-width=".1" stroke-miterlimit="10" d="M14.55 22.4l-.45.65-1.26-.4.53-.72 1.18.47"/><path fill="#4d81cc" stroke="#4d81cc" stroke-width=".1" stroke-miterlimit="10" d="M13.37 21.93l-.53.73-.9-.02.73-1 .7.3"/><path fill="#4777bc" stroke="#4777bc" stroke-width=".1" stroke-miterlimit="10" d="M12.67 21.64l-.74 1-.52.32 1.07-1.4.2.08"/><path fill="#355a8e" stroke="#355a8e" stroke-width=".1" stroke-miterlimit="10" d="M17.32 26.17L19.1 23l-.25.6-1.76 3.15.22-.58"/><path fill="#4676ba" stroke="#4676ba" stroke-width=".1" stroke-miterlimit="10" d="M17.1 25.38l.22.8-.23.57-.64.25-.95-.1-1.17-.4-1.15-.63-.92-.74-.65-.8-.28-.75.1-.62.5-.32.92.02 1.26.4 1.3.66 1.04.8.67.86"/><path fill="#4e83ce" stroke="#4e83ce" stroke-width=".1" stroke-miterlimit="10" d="M6.98 8.2l3.2-2.4 1.1-.3-3.2 2.43L7 8.2"/><path fill="#4f84d0" stroke="#4f84d0" stroke-width=".1" stroke-miterlimit="10" d="M8.1 7.93l3.18-2.43 1.5-.14-3.12 2.48-1.57.1"/><path fill="#4f85d1" stroke="#4f85d1" stroke-width=".1" stroke-miterlimit="10" d="M9.66 7.84l3.12-2.48 1.68.04-3 2.55-1.8-.1"/><path fill="#4f85d2" stroke="#4f85d2" stroke-width=".1" stroke-miterlimit="10" d="M11.45 7.95l3-2.55 1.6.24-2.9 2.64-1.7-.33"/><path fill="#4f85d1" stroke="#4f85d1" stroke-width=".1" stroke-miterlimit="10" d="M13.14 8.28l2.9-2.64 2.02.57-2.74 2.76-2.18-.68"/><path fill="#4e84cf" stroke="#4e84cf" stroke-width=".1" stroke-miterlimit="10" d="M15.32 8.96l2.74-2.75 1.8.76-2.55 2.87-1.98-.87"/><path fill="#4d81cc" stroke="#4d81cc" stroke-width=".1" stroke-miterlimit="10" d="M17.3 9.83l2.57-2.87 1.56.9-2.4 3-1.72-1.03"/><path fill="#4a7dc5" stroke="#4a7dc5" stroke-width=".1" stroke-miterlimit="10" d="M19.03 10.87l2.4-3 1.28 1.07-2.24 3.12-1.43-1.2"/><path fill="#4777bb" stroke="#4777bb" stroke-width=".1" stroke-miterlimit="10" d="M20.46 12.06l2.25-3.12.96 1.2-2.12 3.22-1.08-1.3"/><path fill="#416ead" stroke="#416ead" stroke-width=".1" stroke-miterlimit="10" d="M21.54 13.36l2.12-3.23.6 1.26-2.02 3.3-.7-1.34"/><path fill="#3b639d" stroke="#3b639d" stroke-width=".1" stroke-miterlimit="10" d="M22.24 14.7l2.02-3.3.25 1.3-1.93 3.4-.33-1.4"/><path fill="#365a8e" stroke="#365a8e" stroke-width=".1" stroke-miterlimit="10" d="M22.57 16.1l1.94-3.4-.07 1.34-1.9 3.43.04-1.38"/><path fill="#497ac0" stroke="#497ac0" stroke-width=".1" stroke-miterlimit="10" d="M12.2 18.13l2.4-2.9.04-.03.16.2-1.9 2.32-.7.4"/><path fill="#4a7cc4" stroke="#4a7cc4" stroke-width=".1" stroke-miterlimit="10" d="M12.9 17.72l1.9-2.32v.02l.17.54-.1.5-.5.65-1.48.62"/><path fill="#4575b8" stroke="#4575b8" stroke-width=".1" stroke-miterlimit="10" d="M14.36 17.1l.52-.65-.04.2-.48.46"/><path fill="#355a8e" stroke="#355a8e" stroke-width=".1" stroke-miterlimit="10" d="M17.14 21.6l-.93 1.47v-.35l.67-1.04.27-.1M16.87 21.68l-.66 1.04.1-.57.34-.4.23-.07M22.54 17.47l1.9-3.43-.5 1.44-1.88 3.44.48-1.45"/><path fill="#4676ba" stroke="#4676ba" stroke-width=".1" stroke-miterlimit="10" d="M22.57 16.1l-.03 1.37-.48 1.45-.9 1.1-1.3.75-1.6.46-.1.03-1.02.33-.27.08-.23.08-.33.4-.1.56v.35l-.3-.12-1.35-.55-1.18-.47-.7-.3-.2-.07-.8-.33-.12-.9v-.88l.2-.74.44-.57.7-.4 1.46-.62.48-.46.04-.2.1-.48-.17-.54v-.02l-.16-.2-.26-.34-.65-.5-.8-.34-1.3-.3-1.24-.08-1.2.15-1.1.33L6.97 8.2l1.1-.27 1.58-.1 1.8.12 1.68.33 2.18.68 2 .87 1.7 1.04 1.44 1.2 1.08 1.3.7 1.34.33 1.4"/><path fill="none" stroke="#000" stroke-width=".5" d="M17.1 25.38l.22.8M16.44 24.53l.67.85M15.4 23.72l1.04.8M14.1 23.05l1.3.67M12.84 22.66l1.26.4M11.93 22.64l.9.02M11.4 22.96l.53-.32M17.32 26.17l-.23.58M22.57 16.1l-.03 1.37M22.24 14.7l.33 1.4M21.54 13.35l.7 1.36M20.46 12.06l1.08 1.3M19.03 10.87l1.43 1.2M17.3 9.83l1.73 1.04M15.32 8.96l2 .87M13.14 8.27l2.18.7M11.44 7.95l1.7.32M9.66 7.84l1.78.1M8.1 7.93l1.56-.1M6.98 8.2l1.1-.27M14.36 17.1l.48-.45M12.9 17.72l1.46-.6M12.2 18.13l.7-.4M16.2 22.72v.35M16.3 22.15l-.1.57M22.54 17.47l-.48 1.45" stroke-linecap="round" stroke-linejoin="round"/><path fill="none" stroke="#000" stroke-width="1.5" d="M12.47 21.56l-1.06 1.4M18.85 23.6l-1.76 3.15M11.32 23.58l.1-.62M11.6 24.34l-.28-.76M12.26 25.13l-.65-.8M13.18 25.87l-.92-.74M14.33 26.5l-1.15-.63M15.5 26.9l-1.17-.4M16.46 27l-.95-.1M17.1 26.75l-.64.25M10.2 5.8L6.97 8.2M14.58 15.24l-2.4 2.9M17.14 21.6l-.93 1.47M23.93 15.5l-1.87 3.42M8.1 14.13L6.97 8.2M9.2 13.8l-1.1.33M10.4 13.64l-1.2.15M11.64 13.7l-1.24-.06M12.94 14.02l-1.3-.3M13.73 14.37l-.8-.35M14.38 14.86l-.65-.5M14.97 15.96l-.16-.54M14.84 16.65l.13-.7M11.74 18.7l.45-.57M11.54 19.45l.2-.74M11.55 20.34v-.9M11.66 21.23l-.1-.9M16.64 21.76l-.33.4M19.87 20.77l-1.6.46M21.15 20l-1.28.77M22.06 18.92l-.9 1.1M18.94 22.2l.16.8M18.34 21.4l.6.8M18.17 21.26l.17.13M19.1 23l-.25.6M24.5 12.7l-.07 1.34M24.26 11.4l.25 1.3M23.66 10.13l.6 1.26M22.7 8.94l.96 1.2M21.43 7.87l1.28 1.07M19.87 6.96l1.56.9M18.06 6.2l1.8.76M16.04 5.64l2.02.57M14.47 5.4l1.57.24M12.78 5.36l1.7.04M11.28 5.5l1.5-.14M10.2 5.8l1.08-.3M14.58 15.24l.06-.04M24.43 14.04l-.5 1.45M14.8 15.42l-.16-.22-.26-.34M16.2 23.07l-3.73-1.5-.8-.34M17.14 21.6l-.5.16M18.26 21.23l-.1.03-1.02.33" stroke-linecap="round" stroke-linejoin="round"/></g></svg>