<?xml version="1.0" encoding="UTF-8" standalone="no"?>
<svg width="24px" height="24px" viewBox="0 0 24 24" version="1.1" xmlns="http://www.w3.org/2000/svg" xmlns:xlink="http://www.w3.org/1999/xlink" xmlns:sketch="http://www.bohemiancoding.com/sketch/ns">
    <!-- Generator: Sketch 3.3.1 (12002) - http://www.bohemiancoding.com/sketch -->
    <title>tb_pan</title>
    <desc>Created with Sketch.</desc>
    <defs></defs>
    <g id="Page-1" stroke="none" stroke-width="1" fill="none" fill-rule="evenodd" sketch:type="MSPage">
        <g id="tb_pan" sketch:type="MSArtboardGroup">
            <g id="Group" sketch:type="MSLayerGroup" transform="translate(3.000000, 3.000000)">
                <path d="M11.9839055,0.890625 L15.1875,3.00657043 L9.1350412,11.4049389 L5.64375033,16.734375 L0.890625,13.0741015 L2.2665793,11.451627 L3.38708091,9.01473195 L4.57050947,5.99411062 L6.79256344,2.88885146 L9.75984174,2.42172062 L11.9839055,0.890625 L11.9839055,0.890625 Z" id="Fill-1440" fill="#F4DFB5" sketch:type="MSShapeGroup"></path>
                <path d="M0.951024319,13.125 C0.707621579,14.3896491 1.21180941,15.6817771 2.24820866,16.4491957 C3.28459545,17.2166143 4.66997496,17.3236699 5.8125,16.7247303" id="Fill-1441" fill="#F4DFB5" sketch:type="MSShapeGroup"></path>
                <path d="M1.125,13.03125 C3.01714437,11.4601519 3.84167332,7.01323227 5.07369826,5.1737575 C6.30582346,3.33440785 8.22424779,1.07278727 9.140625,2.15742927" id="Fill-1442" fill="#F4DFB5" sketch:type="MSShapeGroup"></path>
                <path d="M1.125,13.03125 C3.01714437,11.4601519 3.84167332,7.01323227 5.07369826,5.1737575 C6.30582346,3.33440785 8.22424779,1.07278727 9.140625,2.15742927" id="Stroke-1443" stroke="#000000" stroke-width="0.5" stroke-linecap="round" stroke-linejoin="round" sketch:type="MSShapeGroup"></path>
                <path d="M7.125,4.78125 C7.125,4.78125 8.68355024,2.35968762 10.113561,1.66149351 C11.5435094,0.963425064 11.8170773,0.708576673 12.609375,1.36329073" id="Fill-1444" fill="#F4DFB5" sketch:type="MSShapeGroup"></path>
                <path d="M7.125,4.78125 C7.125,4.78125 8.68355024,2.35968762 10.113561,1.66149351 C11.5435094,0.963425064 11.8170773,0.708576673 12.609375,1.36329073" id="Stroke-1445" stroke="#000000" stroke-width="0.5" stroke-linecap="round" stroke-linejoin="round" sketch:type="MSShapeGroup"></path>
                <path d="M9.234375,4.59375 C11.1501956,2.83497845 12.3336229,1.64697288 13.419846,1.17413794 C14.5061821,0.701178405 15.4799794,1.09240415 14.6294001,2.57233391" id="Fill-1446" fill="#F4DFB5" sketch:type="MSShapeGroup"></path>
                <path d="M9.234375,4.59375 C11.1501956,2.83497845 12.3336229,1.64697288 13.419846,1.17413794 C14.5061821,0.701178405 15.4799794,1.09240415 14.6294001,2.57233391" id="Stroke-1447" stroke="#000000" stroke-width="0.5" stroke-linecap="round" stroke-linejoin="round" sketch:type="MSShapeGroup"></path>
                <path d="M11.121334,5.59127137 C11.121334,5.59127137 13.7888402,3.11730951 15.0595471,2.46588501 C16.3303289,1.81446052 17.7836974,2.70621274 15.9890535,4.21623649 C14.1944221,5.72613513 12.5007494,7.12056137 11.8453415,8.42991585 C11.1900833,9.73939544 10.5137723,11.2437894 15.2423085,11.1630964 C17.020205,11.3551334 16.6470322,13.2299648 14.2566446,12.971747 C11.0348889,12.6237034 11.0009199,15.4703547 7.85567567,14.8181795 C7.85567567,14.8181795 5.70352066,15.7786147 5.625,16.828125" id="Fill-1448" fill="#F4DFB5" sketch:type="MSShapeGroup"></path>
                <path d="M11.121334,5.59127137 C11.121334,5.59127137 13.7888402,3.11730951 15.0595471,2.46588501 C16.3303289,1.81446052 17.7836974,2.70621274 15.9890535,4.21623649 C14.1944221,5.72613513 12.5007494,7.12056137 11.8453415,8.42991585 C11.1900833,9.73939544 10.5137723,11.2437894 15.2423085,11.1630964 C17.020205,11.3551334 16.6470322,13.2299648 14.2566446,12.971747 C11.0348889,12.6237034 11.0009199,15.4703547 7.85567567,14.8181795 C7.85567567,14.8181795 5.70352066,15.7786147 5.625,16.828125" id="Stroke-1449" stroke="#000000" stroke-width="0.5" stroke-linecap="round" stroke-linejoin="round" sketch:type="MSShapeGroup"></path>
                <path id="Fill-1450" fill="#F4DFB5" sketch:type="MSShapeGroup" d="M8.484375,4.734375 L9.515625,4.85784375"></path>
                <path id="Stroke-1451" stroke="#000000" stroke-width="0.5" stroke-linecap="round" stroke-linejoin="round" sketch:type="MSShapeGroup" d="M8.484375,4.734375 L9.515625,4.85784375"></path>
                <path id="Fill-1452" fill="#F4DFB5" sketch:type="MSShapeGroup" d="M10.5,5.484375 L11.390625,5.859375"></path>
                <path id="Stroke-1453" stroke="#000000" stroke-width="0.5" stroke-linecap="round" stroke-linejoin="round" sketch:type="MSShapeGroup" d="M10.5,5.484375 L11.390625,5.859375"></path>
                <path id="Fill-1454" fill="#F4DFB5" sketch:type="MSShapeGroup" d="M6.375,5.15625 L7.453125,4.875"></path>
                <path id="Stroke-1455" stroke="#000000" stroke-width="0.5" stroke-linecap="round" stroke-linejoin="round" sketch:type="MSShapeGroup" d="M6.375,5.15625 L7.453125,4.875"></path>
                <path d="M4.875,5.812375 C4.875,5.4245 5.190175,5.109375 5.5781625,5.109375 C5.96615,5.109375 6.28125,5.4245 6.28125,5.812375 C6.28125,6.200375 5.96615,6.515625 5.5781625,6.515625 C5.190175,6.515625 4.875,6.200375 4.875,5.812375 L4.875,5.812375 Z" id="Fill-1491" fill="#FEFFB1" sketch:type="MSShapeGroup"></path>
                <path d="M6.375,5.5078125 C6.375,5.08112234 6.72169,4.734375 7.14846214,4.734375 C7.57517268,4.734375 7.921875,5.08112234 7.921875,5.5078125 C7.921875,5.93462584 7.57517268,6.28125 7.14846214,6.28125 C6.72169,6.28125 6.375,5.93462584 6.375,5.5078125 L6.375,5.5078125 Z" id="Fill-1492" fill="#FEFFB1" sketch:type="MSShapeGroup"></path>
                <path d="M8.015625,5.5546875 C8.015625,5.05027801 8.4253334,4.640625 8.92968125,4.640625 C9.4340541,4.640625 9.84375,5.05027801 9.84375,5.5546875 C9.84375,6.05909699 9.4340541,6.46875 8.92968125,6.46875 C8.4253334,6.46875 8.015625,6.05909699 8.015625,5.5546875 L8.015625,5.5546875 Z" id="Fill-1493" fill="#FEFFB1" sketch:type="MSShapeGroup"></path>
                <path d="M9.609375,6.609375 C9.609375,6.14375 9.98755,5.765625 10.453125,5.765625 C10.9187125,5.765625 11.296875,6.14375 11.296875,6.609375 C11.296875,7.074875 10.9187125,7.453125 10.453125,7.453125 C9.98755,7.453125 9.609375,7.074875 9.609375,6.609375 L9.609375,6.609375 Z" id="Fill-1494" fill="#FEFFB1" sketch:type="MSShapeGroup"></path>
                <path d="M10.5,12.6796249 C10.5,12.433905 10.6996552,12.234375 10.945325,12.234375 C11.191095,12.234375 11.390625,12.433905 11.390625,12.6796249 C11.390625,12.9253448 11.191095,13.125 10.945325,13.125 C10.6996552,13.125 10.5,12.9253448 10.5,12.6796249 L10.5,12.6796249 Z" id="Fill-1495" fill="#FEFFB1" sketch:type="MSShapeGroup"></path>
                <path d="M13.359375,1.71087491 C13.359375,1.46515504 13.5590302,1.265625 13.8047,1.265625 C14.05047,1.265625 14.25,1.46515504 14.25,1.71087491 C14.25,1.95659478 14.05047,2.15625 13.8047,2.15625 C13.5590302,2.15625 13.359375,1.95659478 13.359375,1.71087491 L13.359375,1.71087491 Z" id="Fill-1496" fill="#FEFFB1" sketch:type="MSShapeGroup"></path>
                <path d="M11.015625,1.80475009 C11.015625,1.55903022 11.2151607,1.359375 11.4609375,1.359375 C11.7066392,1.359375 11.90625,1.55903022 11.90625,1.80475009 C11.90625,2.05046996 11.7066392,2.25 11.4609375,2.25 C11.2151607,2.25 11.015625,2.05046996 11.015625,1.80475009 L11.015625,1.80475009 Z" id="Fill-1497" fill="#FEFFB1" sketch:type="MSShapeGroup"></path>
                <path id="Fill-1498" fill="#FEFFB1" sketch:type="MSShapeGroup" d="M7.640625,2.62506268 C7.640625,2.49568317 7.76680737,2.390625 7.92200712,2.390625 C8.07706274,2.390625 8.203125,2.49568317 8.203125,2.62506268 C8.203125,2.7544422 8.07706274,2.859375 7.92200712,2.859375 C7.76680737,2.859375 7.640625,2.7544422 7.640625,2.62506268 L7.640625,2.62506268 Z"></path>
                <path d="M9.140625,12.984375 C9.140625,12.518875 9.5187875,12.140625 9.984375,12.140625 C10.4499625,12.140625 10.828125,12.518875 10.828125,12.984375 C10.828125,13.45 10.4499625,13.828125 9.984375,13.828125 C9.5187875,13.828125 9.140625,13.45 9.140625,12.984375 L9.140625,12.984375 Z" id="Fill-1499" fill="#FEFFB1" sketch:type="MSShapeGroup"></path>
                <path d="M8.015625,13.359375 C8.015625,12.89375 8.3937875,12.515625 8.859375,12.515625 C9.3249625,12.515625 9.703125,12.89375 9.703125,13.359375 C9.703125,13.824875 9.3249625,14.203125 8.859375,14.203125 C8.3937875,14.203125 8.015625,13.824875 8.015625,13.359375 L8.015625,13.359375 Z" id="Fill-1500" fill="#FEFFB1" sketch:type="MSShapeGroup"></path>
            </g>
        </g>
    </g>
</svg>