<?xml version="1.0" encoding="UTF-8" standalone="no"?>
<svg width="24px" height="24px" viewBox="0 0 24 24" version="1.1" xmlns="http://www.w3.org/2000/svg" xmlns:xlink="http://www.w3.org/1999/xlink" xmlns:sketch="http://www.bohemiancoding.com/sketch/ns">
    <!-- Generator: Sketch 3.3.1 (12002) - http://www.bohemiancoding.com/sketch -->
    <title>tb_zoom</title>
    <desc>Created with Sketch.</desc>
    <defs></defs>
    <g id="Page-1" stroke="none" stroke-width="1" fill="none" fill-rule="evenodd" sketch:type="MSPage">
        <g id="tb_zoom" sketch:type="MSArtboardGroup">
            <g id="Group" sketch:type="MSLayerGroup" transform="translate(3.000000, 3.000000)">
                <path d="M9.890625,8.66430717 L6.42448408,12.234375 L5.859375,11.6794428 L9.32544124,8.109375 L9.890625,8.66430717 L9.890625,8.66430717 Z" id="Fill-15601" fill="#212222" sketch:type="MSShapeGroup"></path>
                <path d="M9.890625,8.66430717 L6.42448408,12.234375 L5.859375,11.6794428 L9.32544124,8.109375 L9.890625,8.66430717 L9.890625,8.66430717 Z" id="Stroke-15602" stroke="#212222" stroke-width="0.500000521" stroke-linecap="round" stroke-linejoin="round" sketch:type="MSShapeGroup"></path>
                <path d="M15.3715939,2.40391307 C17.3429035,4.32887322 17.3804857,7.4939206 15.4554021,9.46523212 C13.5304439,11.4366689 10.3653996,11.4742511 8.39408997,9.5491657 C6.42274278,7.62420555 6.38512304,4.45915817 8.31015648,2.48784664 C10.23524,0.516535119 13.400159,0.478827647 15.3715939,2.40391307 L15.3715939,2.40391307 Z" id="Fill-15603" fill="#212222" sketch:type="MSShapeGroup"></path>
                <path d="M15.3715939,2.40391307 C17.3429035,4.32887322 17.3804857,7.4939206 15.4554021,9.46523212 C13.5304439,11.4366689 10.3653996,11.4742511 8.39408997,9.5491657 C6.42274278,7.62420555 6.38512304,4.45915817 8.31015648,2.48784664 C10.23524,0.516535119 13.400159,0.478827647 15.3715939,2.40391307 L15.3715939,2.40391307 Z" id="Stroke-15604" stroke="#212222" stroke-width="0.500000521" stroke-linecap="round" stroke-linejoin="round" sketch:type="MSShapeGroup"></path>
                <path d="M7.62995644,12.0021741 L3.02726922,16.7044851 C2.56778379,17.1739535 1.81384319,17.1828303 1.34325381,16.7244891 L1.34329141,16.7244891 C0.872714559,16.2662729 0.863691034,15.5141232 1.32317646,15.0446547 L5.92586368,10.3423438 C6.38536164,9.87300033 7.13930225,9.86399854 7.60989163,10.3223398 L7.60985403,10.3223398 C8.08040581,10.780681 8.08942934,11.5327057 7.62995644,12.0021741 L7.62995644,12.0021741 Z" id="Fill-15605" fill="#212222" sketch:type="MSShapeGroup"></path>
                <path d="M7.62995644,12.0021741 L3.02726922,16.7044851 C2.56778379,17.1739535 1.81384319,17.1828303 1.34325381,16.7244891 L1.34329141,16.7244891 C0.872714559,16.2662729 0.863691034,15.5141232 1.32317646,15.0446547 L5.92586368,10.3423438 C6.38536164,9.87300033 7.13930225,9.86399854 7.60989163,10.3223398 L7.60985403,10.3223398 C8.08040581,10.780681 8.08942934,11.5327057 7.62995644,12.0021741 L7.62995644,12.0021741 Z" id="Stroke-15606" stroke="#212222" stroke-width="0.500000521" stroke-linecap="round" stroke-linejoin="round" sketch:type="MSShapeGroup"></path>
                <path d="M14.7818576,3.0544783 C16.4199395,4.6542253 16.4514195,7.28445122 14.8516881,8.92242425 C13.2519567,10.5606471 10.6218814,10.5920025 8.98367454,8.99225547 C7.34555511,7.39263339 7.31434998,4.76253239 8.91396892,3.12430951 C10.5135754,1.48621156 13.1436507,1.45498114 14.7818576,3.0544783 L14.7818576,3.0544783 Z" id="Fill-15607" fill="#A8D4FA" sketch:type="MSShapeGroup"></path>
                <path d="M14.2788806,3.57133084 C15.593133,4.85464967 15.6183132,6.96478463 14.3348782,8.27892116 C13.0515686,9.59318297 10.941574,9.618238 9.62732165,8.33491916 C8.31306927,7.05160033 8.28801441,4.94159064 9.57132406,3.62732884 C10.8546337,2.31306703 12.9647535,2.288012 14.2788806,3.57133084 L14.2788806,3.57133084 Z" id="Fill-15608" fill="#8AAECD" sketch:type="MSShapeGroup"></path>
                <path d="M6.80627268,11.4210926 L2.57377905,15.7491905 C2.33226774,15.9961536 1.93595911,16.0007732 1.68862101,15.7596783 L1.68863352,15.7596783 C1.44129542,15.5184585 1.43658148,15.122793 1.67809279,14.8758299 L5.91057392,10.5477321 C6.15212275,10.3007689 6.54840637,10.2960244 6.79574447,10.5372443 L6.79573196,10.5372443 C7.04307006,10.7783392 7.04780901,11.1741295 6.80627268,11.4210926 L6.80627268,11.4210926 Z" id="Fill-15609" fill="#3A3C3D" sketch:type="MSShapeGroup"></path>
                <path d="M11.671875,3.890625 C10.4864919,3.93841482 9.56394806,4.94575427 9.61110526,6.140625" id="Stroke-15610" stroke="#9FD4FC" stroke-width="1.37500143" stroke-linecap="round" stroke-linejoin="round" sketch:type="MSShapeGroup"></path>
            </g>
        </g>
    </g>
</svg>