<svg width="24" height="24" viewBox="0 0 24 24" fill="none" xmlns="http://www.w3.org/2000/svg">
<path fill-rule="evenodd" clip-rule="evenodd" d="M9.25737 20.9378C10.6147 21.1718 11.6891 20.4735 12.1986 19.6774C12.7032 18.8888 12.7029 18.1101 12.5459 17.5895C12.4837 17.3833 12.3767 17.1433 12.2848 16.9371C12.2694 16.9027 12.2545 16.8692 12.2403 16.837C12.1874 16.7173 12.1421 16.611 12.1087 16.5191C12.0734 16.4216 12.0616 16.3671 12.0598 16.345C12.0467 16.1829 12.0812 16.0634 12.1253 15.9107C12.1396 15.8609 12.155 15.8077 12.1701 15.7483L15.7188 2.93323L15.1237 3.03451C14.8547 3.08029 14.4329 3.19876 13.9986 3.40793C13.5656 3.61643 13.0919 3.92872 12.7516 4.37718C12.6246 4.54462 12.4898 4.84121 12.3555 5.17861C12.2149 5.53182 12.0567 5.97817 11.8891 6.48131C11.5538 7.4884 11.1757 8.74013 10.8197 9.96562C10.109 12.4122 9.47893 14.7802 9.44879 14.9123C9.41296 15.0694 9.339 15.2366 9.09628 15.4198C8.98416 15.5045 8.85035 15.5909 8.69915 15.6886C8.65354 15.7181 8.60634 15.7486 8.55768 15.7804C8.36059 15.9091 8.13981 16.0588 7.96833 16.2207C7.61698 16.5523 7.15636 17.2337 7.12663 18.2645C7.11039 18.8278 7.34157 19.4367 7.70688 19.9237C8.07348 20.4124 8.61177 20.8265 9.25737 20.9378Z" fill="white"/>
<path d="M20.0737 10.7023L20.6389 9.4219L7.64033 12.1689L6.48124 11.5592L5.01624 11.5649L3.83006 12.3112L3.22297 13.7945L3.8834 15.4585L5.88227 16.0925L7.38244 15.2832L8.47276 14.114L18.9539 11.6426L20.0737 10.7023Z" fill="white"/>
<path fill-rule="evenodd" clip-rule="evenodd" d="M11.5513 19.2628C11.1827 19.8389 10.3955 20.3545 9.38663 20.1806C8.98514 20.1114 8.60397 19.8414 8.31949 19.4622C8.03373 19.0813 7.88221 18.6383 7.89239 18.2854C7.9155 17.4839 8.2705 16.9882 8.49384 16.7774C8.6097 16.668 8.77703 16.5515 8.97608 16.4215C9.01557 16.3957 9.05664 16.3692 9.09851 16.3422C9.25406 16.2417 9.42059 16.1342 9.55738 16.031C9.95372 15.7318 10.1223 15.4034 10.1956 15.0818C10.1956 15.0818 10.1965 15.0782 10.1981 15.0717L10.2053 15.0436C10.2113 15.0201 10.2196 14.9882 10.2301 14.9481C10.251 14.8682 10.2804 14.7573 10.3171 14.6196C10.3906 14.3443 10.4936 13.9626 10.6179 13.5082C10.8666 12.5991 11.2006 11.3998 11.5553 10.1785C11.9103 8.95637 12.2852 7.71565 12.6159 6.72251C12.7814 6.22554 12.9344 5.79483 13.0672 5.46117C13.2063 5.11171 13.3071 4.91163 13.3617 4.83972C13.6025 4.5223 13.9602 4.27623 14.3304 4.09792C14.4343 4.04788 14.5369 4.00425 14.6353 3.96663L11.4262 15.5551C11.421 15.5756 11.4131 15.6022 11.4036 15.6341C11.3558 15.7939 11.2682 16.0863 11.2942 16.4059C11.3045 16.5337 11.3456 16.6668 11.3865 16.7796C11.4295 16.898 11.484 17.0247 11.5374 17.1457C11.5541 17.1834 11.5705 17.2204 11.5867 17.2567C11.6803 17.4673 11.7635 17.6544 11.8104 17.8099C11.9085 18.1352 11.9248 18.6791 11.5513 19.2628ZM9.2563 20.9366C10.6136 21.1706 11.6881 20.4724 12.1975 19.6762C12.7021 18.8877 12.7019 18.1089 12.5449 17.5884C12.4826 17.3821 12.3757 17.1422 12.2837 16.936C12.2684 16.9016 12.2534 16.8681 12.2392 16.8359C12.1864 16.7162 12.141 16.6099 12.1077 16.5179C12.0723 16.4204 12.0606 16.366 12.0588 16.3438C12.0456 16.1818 12.0801 16.0623 12.1242 15.9095C12.1386 15.8598 12.1539 15.8066 12.169 15.7472L15.7178 2.93207L15.1227 3.03335C14.8536 3.07913 14.4318 3.1976 13.9975 3.40677C13.5646 3.61527 13.0908 3.92756 12.7506 4.37602C12.6235 4.54346 12.4888 4.84005 12.3545 5.17745C12.2139 5.53066 12.0556 5.97701 11.8881 6.48015C11.5527 7.48724 11.1746 8.73897 10.8186 9.96446C10.1079 12.411 9.47787 14.7791 9.44772 14.9112C9.41189 15.0682 9.33794 15.2355 9.09521 15.4187C8.98309 15.5033 8.84929 15.5898 8.69808 15.6875C8.65247 15.7169 8.60528 15.7474 8.55662 15.7792C8.35952 15.9079 8.13874 16.0577 7.96726 16.2195C7.61592 16.5512 7.15529 17.2325 7.12556 18.2633C7.10932 18.8267 7.3405 19.4355 7.70582 19.9225C8.07241 20.4112 8.6107 20.8253 9.2563 20.9366Z" fill="#363545"/>
<path fill-rule="evenodd" clip-rule="evenodd" d="M9.40231 17.7345C9.68281 17.4697 10.1248 17.4825 10.3896 17.763C10.6544 18.0435 10.6416 18.4855 10.3611 18.7503C10.0807 19.0151 9.63862 19.0023 9.37385 18.7218C9.10907 18.4413 9.12182 17.9993 9.40231 17.7345ZM8.87572 17.1767C9.46432 16.621 10.3919 16.6478 10.9475 17.2364C11.5031 17.825 11.4763 18.7525 10.8877 19.3081C10.2991 19.8637 9.37159 19.837 8.81599 19.2484C8.26039 18.6598 8.28713 17.7323 8.87572 17.1767Z" fill="#363545"/>
<path d="M3.65918 14.1131C3.54367 13.0959 4.10379 12.3397 4.70024 12.0049C5.30448 11.6656 5.84646 11.7133 6.16561 11.83C6.31812 11.8857 6.5001 11.9795 6.70498 12.0852L6.81294 12.1407C6.93069 12.201 7.0541 12.2628 7.16978 12.3125C7.28006 12.3598 7.41058 12.4085 7.53751 12.4262C7.85507 12.4705 8.15212 12.4 8.31441 12.3614C8.34677 12.3537 8.37379 12.3474 8.39453 12.3435L10.2553 11.942C10.3308 11.6721 10.4096 11.3923 10.4908 11.1064L8.24556 11.5908C8.18545 11.6024 8.13144 11.6147 8.081 11.6261C7.92595 11.6614 7.80458 11.6889 7.64354 11.6665C7.62157 11.6634 7.56785 11.6486 7.47257 11.6076C7.38269 11.569 7.2792 11.5176 7.16274 11.458C7.1314 11.4419 7.09885 11.4251 7.06538 11.4078C6.86481 11.3041 6.6314 11.1835 6.42907 11.1095C5.91842 10.9227 5.14101 10.8776 4.32467 11.336C3.50053 11.7987 2.74154 12.8311 2.89694 14.1997C2.97086 14.8506 3.35322 15.4119 3.81999 15.806C4.28513 16.1988 4.87969 16.4646 5.44303 16.4809C6.47385 16.5106 7.18058 16.09 7.53192 15.7583C7.7034 15.5965 7.86559 15.3847 8.00545 15.1953C8.03998 15.1486 8.07315 15.1032 8.1052 15.0594C8.21145 14.9141 8.30549 14.7855 8.39643 14.6784C8.59333 14.4466 8.76457 14.3824 8.92339 14.3557C8.96468 14.3488 9.22244 14.2969 9.63221 14.2118C9.69444 13.9802 9.77046 13.6993 9.85737 13.3811C9.62746 13.4294 9.42759 13.4709 9.26454 13.5045C9.12496 13.5333 9.01259 13.5562 8.93157 13.5725C8.89101 13.5807 8.85865 13.5871 8.83481 13.5918L8.80635 13.5973L8.79611 13.5992C8.47081 13.6539 8.13329 13.8033 7.81178 14.1817C7.70084 14.3123 7.5839 14.4724 7.47467 14.6219C7.44527 14.6621 7.4164 14.7016 7.38838 14.7396C7.24713 14.9308 7.12118 15.0911 7.00532 15.2005C6.78199 15.4113 6.2667 15.7372 5.46513 15.7141C5.11227 15.7039 4.67876 15.5271 4.31492 15.2199C3.9527 14.914 3.70515 14.5179 3.65918 14.1131Z" fill="#363545"/>
<path d="M13.014 12.6956L12.782 13.5336C13.1605 13.4493 13.5497 13.3616 13.9409 13.2721C15.1848 12.9873 16.4563 12.682 17.481 12.4052C17.993 12.2669 18.4477 12.1346 18.8084 12.0146C19.153 11.9 19.4569 11.7825 19.6313 11.6654C20.0987 11.3515 20.4377 10.8965 20.6708 10.4763C20.9047 10.0548 21.0472 9.64051 21.1085 9.37456L21.2439 8.78627L13.6424 10.4264L13.4113 11.261L20.1486 9.80737C20.1054 9.90336 20.056 10.0033 20 10.1042C19.8007 10.4635 19.5344 10.8064 19.2036 11.0285C19.1287 11.0788 18.9231 11.168 18.5662 11.2867C18.2255 11.4001 17.7867 11.528 17.281 11.6646C16.2704 11.9375 15.0102 12.2403 13.7697 12.5243C13.5161 12.5824 13.2634 12.6396 13.014 12.6956Z" fill="#363545"/>
<path fill-rule="evenodd" clip-rule="evenodd" d="M6.68848 12.7245C7.24408 13.3131 7.21734 14.2406 6.62875 14.7962C6.04015 15.3518 5.1126 15.3251 4.557 14.7365C4.00139 14.1479 4.02813 13.2203 4.61673 12.6647C5.20532 12.1091 6.13288 12.1359 6.68848 12.7245ZM6.13062 13.2511C6.3954 13.5316 6.38265 13.9736 6.10216 14.2384C5.82166 14.5031 5.37963 14.4904 5.11485 14.2099C4.85008 13.9294 4.86282 13.4874 5.14332 13.2226C5.42382 12.9578 5.86585 12.9706 6.13062 13.2511Z" fill="#363545"/>
<path d="M11.9586 12.0085C12.1266 12.1865 12.1185 12.467 11.9405 12.635C11.7625 12.803 11.4821 12.7949 11.3141 12.6169C11.1461 12.439 11.1541 12.1585 11.3321 11.9905C11.5101 11.8225 11.7906 11.8306 11.9586 12.0085Z" fill="#363545"/>
</svg>
