<svg width="24" height="24" viewBox="0 0 24 24" fill="none" xmlns="http://www.w3.org/2000/svg">
<path d="M11.5 18C15.0899 18 18 15.0899 18 11.5C18 7.91015 15.0899 5 11.5 5C7.91015 5 5 7.91015 5 11.5C5 15.0899 7.91015 18 11.5 18Z" fill="#F9F9FB"/>
<path d="M11.5 18C15.0899 18 18 15.0899 18 11.5C18 7.91015 15.0899 5 11.5 5C7.91015 5 5 7.91015 5 11.5C5 15.0899 7.91015 18 11.5 18Z" stroke="#E9292F" stroke-linecap="round" stroke-linejoin="round"/>
<path d="M9.37866 13.6213L13.6213 9.37867" stroke="#E9292F" stroke-linecap="round" stroke-linejoin="round"/>
<path d="M13.6213 13.6213L9.37866 9.37869" stroke="#E9292F" stroke-linecap="round" stroke-linejoin="round"/>
</svg>
