<svg width="24" height="24" viewBox="0 0 24 24" fill="none" xmlns="http://www.w3.org/2000/svg">
<path d="M5.625 11.1325V8.06499C5.6345 7.97413 5.67891 7.8905 5.74886 7.83174C5.81882 7.77297 5.90886 7.74367 6 7.74999H11.3925C11.4551 7.74998 11.5166 7.76664 11.5707 7.79828C11.6247 7.82992 11.6694 7.87538 11.7 7.92999L12.555 9.42999H18C18.0935 9.42999 18.1831 9.46713 18.2493 9.53324C18.3154 9.59934 18.3525 9.689 18.3525 9.78249V11.185" fill="#9D9C8A"/>
<path d="M5.625 11.1325V8.06499C5.6345 7.97413 5.67891 7.8905 5.74886 7.83174C5.81882 7.77297 5.90886 7.74367 6 7.74999H11.3925C11.4551 7.74998 11.5166 7.76664 11.5707 7.79828C11.6247 7.82992 11.6694 7.87538 11.7 7.92999L12.555 9.42999H18C18.0935 9.42999 18.1831 9.46713 18.2493 9.53324C18.3154 9.59934 18.3525 9.689 18.3525 9.78249V11.185" stroke="#363545" stroke-linejoin="round"/>
<path fill-rule="evenodd" clip-rule="evenodd" d="M16.2 12H17.4318V7.6H18.6637L16.2 4L13.7363 7.6H14.9682V12H16.2Z" stroke="#363545" stroke-width="2" stroke-linecap="round" stroke-linejoin="round"/>
<path fill-rule="evenodd" clip-rule="evenodd" d="M16.2628 11.9992L17.2317 11.9999C17.3422 11.9999 17.4318 11.9104 17.4318 11.7999V7.8632C17.4318 7.75274 17.5214 7.6632 17.6318 7.6632H18.2907C18.4503 7.6632 18.5456 7.48546 18.4572 7.35252L16.4237 4.29182C16.3461 4.17501 16.1755 4.17227 16.0942 4.28654L13.9612 7.28404C13.8669 7.41645 13.9616 7.6 14.1241 7.6H14.7682C14.8786 7.6 14.9682 7.68954 14.9682 7.8V11.7999C14.9682 11.9104 15.0578 11.9999 15.1683 11.9999L16.2628 11.9992Z" fill="white"/>
<path d="M18.375 11.1325H19.5L18.075 18.325C18.0564 18.409 18.0101 18.4844 17.9434 18.5388C17.8767 18.5933 17.7936 18.6236 17.7075 18.625H6.2925C6.20567 18.6265 6.12113 18.5971 6.05386 18.5422C5.98659 18.4873 5.94094 18.4103 5.925 18.325L4.5 11.1325H18.375Z" fill="#9D9C8A"/>
<path d="M18.375 11.1325H19.5L18.075 18.325C18.0564 18.409 18.0101 18.4844 17.9434 18.5388C17.8767 18.5933 17.7936 18.6236 17.7075 18.625H6.2925C6.20567 18.6265 6.12113 18.5971 6.05386 18.5422C5.98659 18.4873 5.94094 18.4103 5.925 18.325L4.5 11.1325H18.375Z" stroke="#363545" stroke-linejoin="round"/>
</svg>
