<svg width="24" height="24" viewBox="0 0 24 24" fill="none" xmlns="http://www.w3.org/2000/svg">
<path d="M4.49997 5.5H16.5C16.5 5.5 16.7816 5.52126 17.1408 5.81396C17.5 6.10666 17.5 6.5 17.5 6.5V19.5C17.5 19.5 17.4335 19.8951 17.1408 20.1534C16.8481 20.4117 16.5 20.5 16.5 20.5H4.49997C4.49997 20.5 4.10987 20.5 3.79996 20.1534C3.49004 19.8068 3.49998 19.5 3.49998 19.5V6.5C3.49998 6.5 3.49005 6.12792 3.79996 5.81396C4.10987 5.5 4.49997 5.5 4.49997 5.5Z" fill="#9D9C8A" stroke="#363545"/>
<path d="M12.5 4.49999C12.5 3.96955 12.3043 3.45463 11.9293 3.07956C11.5542 2.70449 11.0455 2.49377 10.5151 2.49377C9.98463 2.49377 9.47592 2.70449 9.10085 3.07956C8.72577 3.45463 8.5 3.96955 8.5 4.49999H6.5V7.49999H14.5V4.49999H12.5Z" fill="white" stroke="#363545" stroke-linecap="round" stroke-linejoin="round"/>
<path d="M20.5388 20.5C20.5388 20.7652 20.4334 21.0196 20.2459 21.2071C20.0583 21.3946 19.804 21.5 19.5388 21.5L12.5388 21.5043C12.2735 21.5043 11.9998 21.3989 11.8123 21.2114C11.6247 21.0239 11.5194 20.7695 11.5194 20.5043L11.5 10.5043C11.5 10.2391 11.6054 9.98473 11.7929 9.7972C11.9804 9.60966 12.2348 9.5 12.5 9.5H17.5C17.7652 9.50006 18.1249 9.60545 18.3124 9.793L20.2264 11.707C20.4139 11.8945 20.5387 12.2305 20.5388 12.4957V20.5Z" fill="white" stroke="#363545" stroke-linecap="round" stroke-linejoin="round"/>
<path d="M14 14H18" stroke="#363545" stroke-width="0.5" stroke-linecap="round" stroke-linejoin="round"/>
<path d="M14 16H18" stroke="#363545" stroke-width="0.5" stroke-linecap="round" stroke-linejoin="round"/>
<path d="M14 18H18" stroke="#363545" stroke-width="0.5" stroke-linecap="round" stroke-linejoin="round"/>
</svg>
