<?xml version="1.0" standalone="no"?>
<!DOCTYPE svg PUBLIC "-//W3C//DTD SVG 1.1//EN" "http://www.w3.org/Graphics/SVG/1.1/DTD/svg11.dtd">
<!--Generator: Xara Designer (www.xara.com), SVG filter version: 6.5.0.21-->
<svg fill="none" fill-rule="evenodd" stroke="black" stroke-width="0.501" stroke-linejoin="bevel" stroke-miterlimit="10" font-family="Times New Roman" font-size="16" style="font-variant-ligatures:none" xmlns:xlink="http://www.w3.org/1999/xlink" xmlns="http://www.w3.org/2000/svg" version="1.1" overflow="visible" width="71.999pt" height="71.999pt" viewBox="0 -71.999 71.999 71.999">
 <defs>
	</defs>
 <g id="Layer 1" transform="scale(1 -1)">
  <g id="Group" stroke-linejoin="miter">
   <g id="Group_1" stroke="none" stroke-width="0.75">
    <path d="M 48.441,53.831 L 48.441,50.506 C 48.441,49.902 47.948,49.436 47.371,49.436 L 27.659,49.436 C 27.057,49.436 26.589,49.926 26.589,50.506 L 26.589,53.831 L 22.479,53.831 L 22.479,45.796 L 27.3,46.419 L 35.674,39.857 L 33.953,24.924 L 22.479,21.666 L 22.479,13.003 L 52.55,13.003 L 52.55,53.831 L 48.441,53.831 Z" fill="#e2e2e7" fill-rule="nonzero" marker-start="none" marker-end="none"/>
    <path d="M 46.3,53.831 L 46.3,54.902 L 46.3,55.975 L 40.63,55.975 C 40.048,55.975 39.577,56.421 39.558,56.981 C 39.489,58.072 38.595,58.92 37.504,58.92 C 36.408,58.92 35.515,58.072 35.45,56.981 C 35.427,56.421 34.959,55.975 34.399,55.975 L 28.731,55.975 L 28.731,54.902 L 28.731,53.831 L 28.731,51.579 L 46.3,51.579 L 46.3,53.831 Z" fill="#e2e2e7" fill-rule="nonzero" marker-start="none" marker-end="none"/>
    <path d="M 48.441,53.831 L 48.441,50.506 C 48.441,49.902 47.948,49.436 47.371,49.436 L 27.659,49.436 C 27.057,49.436 26.589,49.926 26.589,50.506 L 26.589,53.831 L 22.479,53.831 L 22.479,13.003 L 52.55,13.003 L 52.55,53.831 L 48.441,53.831 Z" fill="#eaeaef" fill-rule="nonzero" marker-start="none" marker-end="none"/>
    <path d="M 46.3,53.831 L 46.3,54.902 L 46.3,55.975 L 40.63,55.975 C 40.048,55.975 39.577,56.421 39.558,56.981 C 39.489,58.072 38.595,58.92 37.504,58.92 C 36.408,58.92 35.515,58.072 35.45,56.981 C 35.427,56.421 34.959,55.975 34.399,55.975 L 28.731,55.975 L 28.731,54.902 L 28.731,53.831 L 28.731,51.579 L 46.3,51.579 L 46.3,53.831 Z" fill="#eaeaef" fill-rule="nonzero" marker-start="none" marker-end="none"/>
    <path d="M 20.336,11.931 L 20.336,54.902 C 20.336,55.482 20.807,55.975 21.408,55.975 L 26.589,55.975 L 26.589,57.045 C 26.589,57.626 27.057,58.117 27.659,58.117 L 33.506,58.117 C 34.042,59.858 35.65,61.087 37.524,61.087 C 39.399,61.087 40.986,59.858 41.522,58.117 L 47.371,58.117 C 47.948,58.117 48.441,57.649 48.441,57.045 L 48.441,55.975 L 53.62,55.975 C 54.222,55.975 54.713,55.506 54.713,54.902 L 54.713,11.931 C 54.713,11.349 54.245,10.862 53.64,10.862 L 21.408,10.862 C 20.827,10.862 20.336,11.329 20.336,11.931 Z M 52.55,13.003 L 52.55,53.831 L 48.441,53.831 L 48.441,50.482 C 48.441,49.902 47.972,49.412 47.371,49.412 L 27.659,49.412 C 27.079,49.412 26.589,49.882 26.589,50.482 L 26.589,53.81 L 22.479,53.81 L 22.479,13.003 L 52.55,13.003 Z M 46.3,51.579 L 46.3,53.831 L 46.32,53.831 L 46.32,55.975 L 40.65,55.975 C 40.069,55.975 39.601,56.4 39.577,56.981 C 39.511,58.072 38.619,58.92 37.524,58.92 C 36.433,58.92 35.539,58.072 35.472,56.981 C 35.45,56.421 34.959,55.975 34.399,55.975 L 28.731,55.975 L 28.731,51.579 L 46.3,51.579 Z" fill="#000000" marker-start="none" marker-end="none"/>
   </g>
   <g id="Group_2">
    <g id="Group_3">
     <path d="M 25.116,20.354 L 33.799,25.414 C 33.799,25.414 36.123,26.848 36.822,28.131 C 37.521,29.405 37.524,31.609 37.524,31.609 L 37.521,43.293 L 27.446,49.118 C 27.446,49.118 25.762,50.119 23.88,50.119 C 21.995,50.119 20.311,49.12 20.311,49.12 L 11.544,44.065 C 10.821,43.636 10.411,42.928 10.237,42.01 L 10.349,30.459 C 10.349,30.459 10.503,29.137 11.002,28.131 C 11.5,27.12 13.469,25.763 13.469,25.763 L 22.637,20.38 C 23.508,19.913 24.331,19.947 25.116,20.354 Z" fill="#ffffff" stroke="none" stroke-width="0.117" marker-start="none" marker-end="none"/>
     <g id="Group_4" stroke="#005f9e" stroke-width="0.581">
      <path d="M 19.244,39.435 L 12.351,43.479 L 20.545,48.204 C 20.545,48.204 22.119,49.138 23.88,49.138 C 25.639,49.138 27.213,48.202 27.213,48.202 L 36.628,42.757 L 36.631,31.839 C 36.631,31.839 36.628,29.779 35.976,28.588 C 35.322,27.389 33.15,26.049 33.15,26.049 L 25.035,21.319 L 25.035,36.007 L 19.244,39.435 Z M 21.571,46.14 L 16.923,43.431 L 19.241,42.083 L 21.722,43.527 C 21.722,43.527 22.842,44.111 23.877,44.111 C 24.916,44.111 26.031,43.518 26.031,43.518 L 31.991,40.019 L 31.991,33.007 C 31.991,33.007 31.991,31.834 31.487,30.953 C 30.983,30.075 30.254,29.5 30.254,29.5 L 27.354,27.903 L 27.354,25.224 L 31.991,27.903 C 31.991,27.903 33.281,28.79 33.747,29.631 C 34.217,30.468 34.31,31.839 34.31,31.839 L 34.31,41.407 L 26.205,46.127 C 26.205,46.127 25.083,46.773 23.877,46.773 C 22.674,46.773 21.571,46.14 21.571,46.14 Z M 25.058,41.396 C 25.058,41.396 24.468,41.704 23.877,41.707 C 23.29,41.707 22.706,41.401 22.706,41.401 L 21.559,40.733 L 27.354,37.358 L 27.354,30.583 L 28.523,31.275 C 28.523,31.275 29.176,31.774 29.425,32.406 C 29.679,33.037 29.673,34.174 29.673,34.174 L 29.673,38.708 L 25.058,41.396 Z" fill="#005f9e" marker-start="none" marker-end="none"/>
      <path d="M 11.13,41.559 L 11.13,38.922 L 20.4,33.309 L 20.4,30.635 L 14.604,33.983 L 12.286,32.632 L 20.4,27.879 L 20.4,25.446 L 11.235,30.764 C 11.235,30.764 11.379,29.529 11.844,28.588 C 12.31,27.643 14.15,26.376 14.15,26.376 L 22.718,21.344 L 22.718,34.659 L 11.13,41.559 Z" fill="#005f9e" marker-start="none" marker-end="none"/>
     </g>
    </g>
   </g>
  </g>
  <text xml:space="preserve" transform="translate(134.554 65.858) scale(1 -1)" kerning="auto" font-size="4.435" font-family="Arial" stroke-linecap="round" stroke-linejoin="round" stroke-width="0.375" fill="#000000" stroke="none"><tspan x="-45.367" y="0">SU2021 Place in Place</tspan><tspan x="-60.404" y="5.099">Location icon with white center</tspan></text>
  <g id="Group_5" stroke-linejoin="miter" stroke="none" stroke-width="0.188">
   <path d="M 49.115,11.461 C 46.994,13.612 45.405,16.164 43.855,18.75 C 41.477,22.862 39.024,28.415 39.037,33.705 C 39.037,39.845 43.885,44.877 50.08,44.877 C 56.248,44.877 61.254,39.872 61.254,33.703 C 61.247,28.427 58.756,22.873 56.35,18.758 C 54.788,16.182 53.172,13.616 51.046,11.464 C 51.141,11.535 50.709,11.127 50.08,11.127 C 49.471,11.127 49.058,11.504 49.115,11.461 Z" fill="#ffffff" marker-start="none" marker-end="none"/>
   <path d="M 40.537,33.704 C 40.537,39.044 44.74,43.377 50.08,43.377 C 55.42,43.377 59.754,39.044 59.754,33.704 C 59.742,23.971 50.461,12.627 50.08,12.627 C 49.691,12.627 40.514,23.932 40.537,33.704 Z" fill="#07fc08" marker-start="none" marker-end="none"/>
   <path d="M 45.582,33.55 C 45.582,36.033 47.596,38.049 50.08,38.049 C 52.563,38.049 54.58,36.033 54.58,33.55 C 54.58,31.067 52.563,29.052 50.08,29.052 C 47.596,29.052 45.582,31.067 45.582,33.55 Z" fill="#ffffff" marker-start="none" marker-end="none"/>
  </g>
 </g>
</svg>
