<?xml version="1.0" encoding="UTF-8" standalone="no"?><!DOCTYPE svg PUBLIC "-//W3C//DTD SVG 1.1//EN" "http://www.w3.org/Graphics/SVG/1.1/DTD/svg11.dtd"><svg width="100%" height="100%" viewBox="0 0 16 16" version="1.1" xmlns="http://www.w3.org/2000/svg" xmlns:xlink="http://www.w3.org/1999/xlink" xml:space="preserve" xmlns:serif="http://www.serif.com/" style="fill-rule:evenodd;clip-rule:evenodd;stroke-linecap:round;stroke-linejoin:round;stroke-miterlimit:3;"><rect id="bevel-settings_tb" x="0" y="0" width="15.36" height="15.36" style="fill:none;"/><g id="bevel-settings_tb1" serif:id="bevel-settings_tb"><g><g><path d="M12.342,9.186l0.557,-0.364c0.332,0.264 0.6,0.6 0.784,0.983l-0.545,0.526c0.052,0.15 0.087,0.305 0.105,0.462l0.72,0.238c-0,0.424 -0.096,0.843 -0.28,1.225l-0.751,-0.098c-0.085,0.134 -0.184,0.259 -0.296,0.371l0.263,0.71c-0.332,0.265 -0.719,0.452 -1.133,0.546l-0.391,-0.649c-0.158,0.018 -0.317,0.018 -0.475,0l-0.391,0.649c-0.414,-0.094 -0.801,-0.281 -1.133,-0.546l0.263,-0.71c-0.064,-0.064 -0.123,-0.132 -0.178,-0.203c-0.369,0.175 -0.757,0.309 -1.158,0.401l-0.783,-1.298c-0.315,0.035 -0.633,0.035 -0.949,-0l-0.783,1.298c-0.827,-0.189 -1.601,-0.562 -2.265,-1.092l0.526,-1.421c-0.224,-0.224 -0.423,-0.473 -0.591,-0.742l-1.503,0.197c-0.368,-0.764 -0.56,-1.602 -0.56,-2.451l1.44,-0.475c0.035,-0.315 0.106,-0.625 0.211,-0.925l-1.091,-1.052c0.368,-0.765 0.904,-1.437 1.568,-1.966l1.268,0.83c0.269,-0.169 0.556,-0.307 0.855,-0.412l0.142,-1.509c0.828,-0.189 1.688,-0.189 2.515,0l0.142,1.509c0.3,0.105 0.587,0.243 0.855,0.412l1.269,-0.83c0.663,0.529 1.199,1.201 1.568,1.966l-1.091,1.052c0.105,0.3 0.175,0.61 0.211,0.925l1.439,0.475c0,0.673 -0.12,1.339 -0.354,1.968Z" style="fill:#fff;stroke:#fff;stroke-width:1px;"/><path d="M8.303,1.709c-0.827,-0.189 -1.687,-0.189 -2.515,0l-0.142,1.509c-0.299,0.105 -0.586,0.243 -0.855,0.412l-1.268,-0.83c-0.664,0.529 -1.2,1.201 -1.568,1.966l1.091,1.052c-0.105,0.3 -0.176,0.61 -0.211,0.925l-1.44,0.475c0,0.849 0.192,1.687 0.56,2.451l1.503,-0.197c0.168,0.269 0.367,0.518 0.591,0.742l-0.526,1.421c0.664,0.53 1.438,0.903 2.265,1.092l0.783,-1.298c0.316,0.035 0.634,0.035 0.949,-0l0.783,1.298c0.828,-0.189 1.602,-0.562 2.266,-1.092l-0.527,-1.421c0.225,-0.224 0.423,-0.473 0.592,-0.742l1.503,0.197c0.368,-0.764 0.559,-1.602 0.559,-2.451l-1.439,-0.475c-0.036,-0.315 -0.106,-0.625 -0.211,-0.925l1.091,-1.052c-0.369,-0.765 -0.905,-1.437 -1.568,-1.966l-1.269,0.83c-0.268,-0.169 -0.555,-0.307 -0.855,-0.412l-0.142,-1.509Zm-1.257,4.096c0.779,0 1.412,0.633 1.412,1.413c0,0.779 -0.633,1.412 -1.412,1.412c-0.78,0 -1.413,-0.633 -1.413,-1.412c0,-0.78 0.633,-1.413 1.413,-1.413Z" style="fill:#71b96b;stroke:#000;stroke-width:0.5px;"/><path d="M11.766,8.276c-0.414,-0.094 -0.843,-0.094 -1.257,0l-0.071,0.755c-0.15,0.052 -0.293,0.121 -0.428,0.205l-0.634,-0.414c-0.332,0.264 -0.6,0.6 -0.784,0.983l0.546,0.526c-0.053,0.15 -0.088,0.305 -0.106,0.462l-0.72,0.238c0,0.424 0.096,0.843 0.28,1.225l0.751,-0.098c0.085,0.134 0.184,0.259 0.296,0.371l-0.263,0.71c0.332,0.265 0.719,0.452 1.133,0.546l0.391,-0.649c0.158,0.018 0.317,0.018 0.475,0l0.391,0.649c0.414,-0.094 0.801,-0.281 1.133,-0.546l-0.263,-0.71c0.112,-0.112 0.211,-0.237 0.296,-0.371l0.751,0.098c0.184,-0.382 0.28,-0.801 0.28,-1.225l-0.72,-0.238c-0.018,-0.157 -0.053,-0.312 -0.105,-0.462l0.545,-0.526c-0.184,-0.383 -0.452,-0.719 -0.784,-0.983l-0.634,0.414c-0.134,-0.084 -0.278,-0.153 -0.428,-0.205l-0.071,-0.755Zm-0.628,2.048c0.389,0 0.706,0.317 0.706,0.707c-0,0.389 -0.317,0.706 -0.706,0.706c-0.39,-0 -0.707,-0.317 -0.707,-0.706c0,-0.39 0.317,-0.707 0.707,-0.707Z" style="fill:#f2a533;stroke:#000;stroke-width:0.5px;"/></g></g></g></svg>