<?xml version="1.0" encoding="UTF-8" standalone="no"?><!DOCTYPE svg PUBLIC "-//W3C//DTD SVG 1.1//EN" "http://www.w3.org/Graphics/SVG/1.1/DTD/svg11.dtd"><svg width="100%" height="100%" viewBox="0 0 16 16" version="1.1" xmlns="http://www.w3.org/2000/svg" xmlns:xlink="http://www.w3.org/1999/xlink" xml:space="preserve" xmlns:serif="http://www.serif.com/" style="fill-rule:evenodd;clip-rule:evenodd;stroke-linecap:round;stroke-linejoin:round;stroke-miterlimit:3;"><rect id="bevel_tb" x="0" y="0" width="15.36" height="15.36" style="fill:none;"/><g id="bevel_tb1" serif:id="bevel_tb"><g id="Fri-Jun--9-21:18:33-2023" serif:id="Fri Jun  9 21:18:33 2023"><path d="M1.62,10.961l-1.235,-7.054c-0.059,-0.337 0.135,-0.668 0.458,-0.781l6.711,-2.347c0.151,-0.053 0.316,-0.052 0.467,0.002l6.501,2.332c0.313,0.113 0.504,0.43 0.456,0.759l-1.033,7.148c-0.026,0.18 -0.122,0.343 -0.266,0.454l-2.762,2.123c-0.019,0.014 -0.038,0.028 -0.058,0.04l-0.733,0.453c-0.042,0.026 -0.087,0.048 -0.134,0.065l-0.795,0.282c-0.04,0.014 -0.081,0.025 -0.123,0.031l-0.879,0.143c-0.039,0.006 -0.079,0.009 -0.12,0.009l-0.903,-0.01c-0.04,-0 -0.08,-0.004 -0.12,-0.012l-0.864,-0.16c-0.043,-0.008 -0.085,-0.02 -0.125,-0.036l-0.768,-0.298c-0.046,-0.017 -0.09,-0.04 -0.131,-0.067l-0.624,-0.41c-0.024,-0.015 -0.046,-0.032 -0.067,-0.05l-2.615,-2.201c-0.126,-0.106 -0.21,-0.253 -0.238,-0.415Zm0.689,-0.121l2.615,2.202l0.624,0.41l0.768,0.297l0.864,0.161l0.903,0.01l0.879,-0.143l0.796,-0.282l0.732,-0.453l2.762,-2.123l1.034,-7.147l-6.501,-2.332l-6.711,2.347l1.235,7.053Z" style="fill:#fff;"/><path d="M2.309,10.84l-1.235,-7.053l6.711,-2.347l6.501,2.332l-1.034,7.147l-2.762,2.123l-0.732,0.453l-0.796,0.282l-0.879,0.143l-0.903,-0.01l-0.864,-0.161l-0.768,-0.297l-0.624,-0.41l-2.615,-2.202Z" style="fill:#73ba6d;stroke:#000;stroke-width:0.5px;"/><path d="M4.924,13.042l-0.793,-7.506l0.793,0.343l0.907,0.232l1.072,0.129l1.125,0.002l1.094,-0.125l0.985,-0.241l0.812,-0.334l-0.429,7.5l-0.732,0.453l-0.796,0.282l-0.879,0.143l-0.903,-0.01l-0.864,-0.161l-0.768,-0.297l-0.624,-0.41Z" style="fill:#f2a533;"/><path d="M6.342,13.754l-0.026,-0.005l-0.768,-0.297l-0.624,-0.41l-0.793,-7.506l0.793,0.343l0.756,0.194l0.662,7.681Z" style="fill:#fceacf;"/><path d="M14.286,3.772l-3.355,1.764l-0.441,7.506l2.762,-2.123l1.034,-7.147Z" style="fill:#55a64e;"/><path d="M1.074,3.787l3.057,1.749l0.793,7.506l-2.615,-2.202l-1.235,-7.053Z" style="fill:#94cb90;"/><path d="M2.309,10.84l-1.235,-7.053l6.711,-2.347l6.501,2.332l-1.034,7.147l-2.762,2.123l-0.732,0.453l-0.796,0.282l-0.879,0.143l-0.903,-0.01l-0.864,-0.161l-0.768,-0.297l-0.624,-0.41l-2.615,-2.202Z" style="fill:none;stroke:#000;stroke-width:0.5px;"/><path d="M1.169,3.841l2.962,1.695l0.756,0.333l0.944,0.242l1.072,0.129l1.125,0.002l1.094,-0.125l0.985,-0.241l0.812,-0.334l3.367,-1.77" style="fill:none;stroke:#000;stroke-width:0.3px;"/><path d="M4.131,5.536l0.793,7.506" style="fill:none;stroke:#000;stroke-width:0.3px;"/><path d="M10.931,5.536l-0.441,7.506" style="fill:none;stroke:#000;stroke-width:0.3px;"/></g></g></svg>