<?xml version="1.0" encoding="UTF-8" standalone="no"?><!DOCTYPE svg PUBLIC "-//W3C//DTD SVG 1.1//EN" "http://www.w3.org/Graphics/SVG/1.1/DTD/svg11.dtd"><svg width="100%" height="100%" viewBox="0 0 16 16" version="1.1" xmlns="http://www.w3.org/2000/svg" xmlns:xlink="http://www.w3.org/1999/xlink" xml:space="preserve" xmlns:serif="http://www.serif.com/" style="fill-rule:evenodd;clip-rule:evenodd;stroke-linecap:round;stroke-linejoin:round;stroke-miterlimit:2;"><rect id="bevel-clean_tb" x="0" y="0" width="15.36" height="15.36" style="fill:none;"/><g id="bevel-clean_tb1" serif:id="bevel-clean_tb"><g><g><path d="M5.742,3.81c0.569,0.144 1.508,0.566 2.726,1.762c0.26,0.255 0.514,0.528 0.757,0.814c0.327,-0.17 0.7,-0.267 1.094,-0.267c0.96,0 1.787,0.572 2.161,1.393c0.957,0.221 1.671,1.08 1.671,2.104c-0,0.139 -0.013,0.276 -0.039,0.408c0.333,0.338 0.538,0.802 0.538,1.313c0,0.475 -0.177,0.908 -0.468,1.238c-0.064,0.737 -0.611,1.335 -1.323,1.477c-0.388,0.465 -0.972,0.761 -1.625,0.761c-0.446,-0 -0.86,-0.138 -1.202,-0.375c-0.452,0.232 -0.825,0.337 -0.825,0.337c-0.269,0.077 -0.558,-0.015 -0.734,-0.232c-0.024,-0.029 -0.046,-0.06 -0.064,-0.092c-0.211,0.15 -0.431,0.285 -0.66,0.406c-0.26,0.137 -0.578,0.097 -0.796,-0.101c-0.115,-0.104 -0.189,-0.24 -0.217,-0.386c-0.425,0.209 -0.862,0.381 -1.311,0.52c-0.265,0.081 -0.552,-0.001 -0.734,-0.209c-0.06,-0.069 -0.106,-0.149 -0.135,-0.232c-0.302,0.129 -0.627,0.24 -0.976,0.33c-0.296,0.077 -0.607,-0.046 -0.769,-0.305c-0.08,-0.128 -0.115,-0.275 -0.106,-0.418c-0.18,0.006 -0.361,0.001 -0.543,-0.016c-0.278,-0.027 -0.514,-0.216 -0.6,-0.482c-0.066,-0.204 -0.034,-0.424 0.08,-0.599c-0.271,-0.151 -0.479,-0.344 -0.613,-0.575c-0.117,-0.203 -0.125,-0.452 -0.021,-0.662c0.105,-0.21 0.308,-0.354 0.541,-0.383c0.452,-0.056 0.833,-0.14 1.137,-0.268c0.211,-0.089 0.378,-0.192 0.479,-0.341c0.086,-0.128 0.109,-0.286 0.094,-0.474c-0.025,-0.298 -0.142,-0.645 -0.338,-1.051c-0.005,-0.01 -0.009,-0.019 -0.013,-0.029c0,0 -0.608,-1.426 -0.737,-2.593c-0.047,-0.426 -0.021,-0.823 0.076,-1.149c-0.115,-0.314 -0.08,-0.705 0.131,-1.077l-1.467,-2.102c-0.181,-0.261 -0.226,-0.521 -0.191,-0.765c0.043,-0.296 0.223,-0.592 0.539,-0.813c0.572,-0.399 1.221,-0.368 1.62,0.204c0,0 1.613,2.311 1.613,2.311c0.581,0.005 1.04,0.262 1.25,0.618Zm-0.659,0.275c-0.037,-0.19 -0.088,-0.321 -0.157,-0.293c-0.08,0.033 -0.142,0.073 -0.188,0.117c-0.168,-0.034 -0.37,-0.027 -0.585,0.021l-1.848,-2.648c-0.158,-0.226 -0.419,-0.189 -0.645,-0.031c-0.226,0.158 -0.333,0.377 -0.175,0.603l1.766,2.531c-0.304,0.268 -0.449,0.588 -0.338,0.829c0.028,0.063 0.072,0.115 0.127,0.158c-0.643,0.843 0.511,3.528 0.511,3.528c0.969,2.005 0.188,2.873 -1.916,3.134c0.215,0.372 0.735,0.535 1.413,0.588l-0.82,0.721c0.592,0.056 1.171,-0.04 1.74,-0.274c-0.037,0.313 -0.249,0.662 -0.564,1.033c0.817,-0.212 1.493,-0.543 2.02,-0.999c0.042,0.361 -0.028,0.734 -0.206,1.118c0.854,-0.263 1.662,-0.658 2.414,-1.21c0.07,0.339 -0.018,0.757 -0.209,1.227c0.607,-0.32 1.14,-0.76 1.608,-1.307c0.034,-0.04 0.068,-0.081 0.101,-0.122c0.025,0.054 0.046,0.11 0.063,0.167c0.09,0.308 0.059,0.67 -0.179,1.126c-0,-0 0.569,-0.162 1.107,-0.528c0.259,0.328 0.661,0.539 1.111,0.539c0.534,-0 0.998,-0.295 1.24,-0.731c0.02,0.001 0.04,0.002 0.06,0.002c0.527,-0 0.955,-0.428 0.955,-0.954c-0,-0.052 -0.005,-0.102 -0.012,-0.151c0.287,-0.214 0.473,-0.556 0.473,-0.942c0,-0.463 -0.269,-0.864 -0.66,-1.055c0.103,-0.2 0.161,-0.426 0.161,-0.666c-0,-0.806 -0.654,-1.46 -1.46,-1.46c-0.011,0 -0.022,0 -0.033,0c-0.156,-0.762 -0.831,-1.337 -1.639,-1.337c-0.48,0 -0.913,0.203 -1.218,0.527c-0.349,-0.456 -0.729,-0.887 -1.123,-1.274c-1.759,-1.727 -2.786,-1.632 -2.786,-1.632l-0.009,0.004c0.014,-0.09 0.005,-0.177 -0.031,-0.255c-0.017,-0.038 -0.04,-0.073 -0.069,-0.104Z" style="fill:#fff;"/><path d="M3.251,4.385l-1.766,-2.531c-0.158,-0.226 -0.051,-0.445 0.175,-0.603c0.226,-0.158 0.487,-0.195 0.645,0.031l1.848,2.648c0.466,-0.105 0.875,-0.012 0.999,0.259c0.036,0.078 0.045,0.165 0.031,0.255l0.009,-0.004c-0,0 1.027,-0.095 2.786,1.632c0.394,0.387 0.774,0.818 1.123,1.274c0.305,-0.324 0.738,-0.527 1.218,-0.527c0.808,0 1.483,0.575 1.639,1.337c0.011,0 0.022,0 0.033,0c0.806,0 1.46,0.654 1.46,1.46c-0,0.24 -0.058,0.466 -0.161,0.666c0.391,0.191 0.66,0.592 0.66,1.055c0,0.386 -0.186,0.728 -0.473,0.942c0.007,0.049 0.012,0.099 0.012,0.151c-0,0.526 -0.428,0.954 -0.955,0.954c-0.02,-0 -0.04,-0.001 -0.06,-0.002c-0.242,0.436 -0.706,0.731 -1.24,0.731c-0.45,-0 -0.852,-0.211 -1.111,-0.539c-0.538,0.366 -1.107,0.528 -1.107,0.528c0.238,-0.456 0.269,-0.818 0.179,-1.126c-0.017,-0.057 -0.038,-0.113 -0.063,-0.167c-0.033,0.041 -0.067,0.082 -0.101,0.122c-0.468,0.547 -1.001,0.987 -1.608,1.307c0.191,-0.47 0.279,-0.888 0.209,-1.227c-0.752,0.552 -1.56,0.947 -2.414,1.21c0.178,-0.384 0.248,-0.757 0.206,-1.118c-0.527,0.456 -1.203,0.787 -2.02,0.999c0.315,-0.371 0.527,-0.72 0.564,-1.033c-0.569,0.234 -1.148,0.33 -1.74,0.274l0.82,-0.721c-0.678,-0.053 -1.198,-0.216 -1.413,-0.588c2.104,-0.261 2.885,-1.129 1.916,-3.134c0,0 -1.154,-2.685 -0.511,-3.528c-0.055,-0.043 -0.099,-0.095 -0.127,-0.158c-0.111,-0.241 0.034,-0.561 0.338,-0.829Z" style="fill:none;stroke:#000;stroke-width:0.5px;"/></g><g><path d="M10.627,10.136c-0.1,0.018 -0.203,0.028 -0.308,0.028c-0.923,-0 -1.673,-0.749 -1.673,-1.672c0,-0.923 0.75,-1.673 1.673,-1.673c0.808,0 1.483,0.575 1.639,1.337c0.011,0 0.022,0 0.033,0c0.806,0 1.46,0.654 1.46,1.46c-0,0.24 -0.058,0.466 -0.161,0.666c0.391,0.191 0.66,0.592 0.66,1.055c0,0.648 -0.526,1.174 -1.173,1.174c-0.648,-0 -1.174,-0.526 -1.174,-1.174c0,-0.105 0.014,-0.207 0.04,-0.304c-0.467,-0.114 -0.846,-0.454 -1.016,-0.897Z" style="fill:#b3b3b3;stroke:#000;stroke-width:0.3px;stroke-miterlimit:1.5;"/><path d="M9.853,13.009c-0.077,0.009 -0.155,0.014 -0.235,0.014c-1.053,0 -1.908,-0.855 -1.908,-1.908c-0,-1.053 0.855,-1.908 1.908,-1.908c0.814,-0 1.509,0.51 1.783,1.227c0.557,0.072 1.004,0.496 1.11,1.042c0.008,-0 0.016,-0 0.023,-0c0.527,-0 0.955,0.427 0.955,0.954c-0,0.526 -0.428,0.954 -0.955,0.954c-0.02,-0 -0.04,-0.001 -0.06,-0.002c-0.242,0.436 -0.706,0.731 -1.24,0.731c-0.674,-0 -1.239,-0.472 -1.381,-1.104Z" style="fill:#d2d2d2;stroke:#000;stroke-width:0.3px;stroke-miterlimit:1.5;"/></g><g><path d="M5.192,4.44c-0,0 1.027,-0.095 2.786,1.632c1.758,1.726 3.212,4.311 3.082,6.101c-0.099,1.376 -2.044,1.929 -2.044,1.929c0.282,-0.54 0.273,-0.949 0.116,-1.293c-0.492,0.604 -1.058,1.085 -1.709,1.429c0.191,-0.47 0.279,-0.888 0.209,-1.227c-0.752,0.552 -1.56,0.947 -2.414,1.21c0.178,-0.384 0.248,-0.757 0.206,-1.118c-0.527,0.456 -1.203,0.787 -2.02,0.999c0.315,-0.371 0.527,-0.72 0.564,-1.033c-0.569,0.234 -1.148,0.33 -1.74,0.274l0.82,-0.721c-0.678,-0.053 -1.198,-0.216 -1.413,-0.588c2.104,-0.261 2.885,-1.129 1.916,-3.134c0,0 -1.239,-2.883 -0.434,-3.612" style="fill:#f2a533;"/><path d="M5.076,4.487l0.116,-0.047c-0,0 1.027,-0.095 2.786,1.632c1.758,1.726 3.212,4.311 3.082,6.101c-0.099,1.376 -2.044,1.929 -2.044,1.929c0.041,-0.08 0.077,-0.157 0.106,-0.231c0.582,-0.279 1.162,-0.899 1.225,-1.775c0.13,-1.79 -1.246,-4.088 -3.005,-5.815c-1.143,-1.122 -1.822,-1.684 -2.266,-1.794Zm4.056,8.322c-0.4,0.411 -1.217,1.169 -1.709,1.429c0.054,-0.132 0.105,-0.13 0.141,-0.253c0.4,-0.29 1.195,-1.247 1.526,-1.652c0.059,0.129 0.033,0.325 0.042,0.476Zm-1.5,0.202c-0.619,0.392 -1.731,0.999 -2.414,1.21c0.031,-0.066 0.058,-0.131 0.082,-0.195c0.805,-0.302 1.912,-1.169 2.293,-1.533c0.02,0.097 0.044,0.408 0.039,0.518Zm-2.208,0.092c-0.44,0.28 -1.165,0.771 -1.755,0.924c0.058,-0.068 0.022,-0.14 0.072,-0.207c0.535,-0.201 1.304,-0.798 1.647,-1.219c0.014,0.115 0.046,0.384 0.036,0.502Zm-1.973,0.139c-0.373,0.097 -0.751,0.134 -1.134,0.108c0.395,-0.028 0.786,-0.123 1.171,-0.281c-0.007,0.057 -0.019,0.115 -0.037,0.173Z" style="fill:#bb740c;"/><path d="M5.192,4.44c-0,0 1.027,-0.095 2.786,1.632c1.758,1.726 3.212,4.311 3.082,6.101c-0.099,1.376 -2.044,1.929 -2.044,1.929c0.282,-0.54 0.273,-0.949 0.116,-1.293c-0.492,0.604 -1.058,1.085 -1.709,1.429c0.191,-0.47 0.279,-0.888 0.209,-1.227c-0.752,0.552 -1.56,0.947 -2.414,1.21c0.178,-0.384 0.248,-0.757 0.206,-1.118c-0.527,0.456 -1.203,0.787 -2.02,0.999c0.315,-0.371 0.527,-0.72 0.564,-1.033c-0.569,0.234 -1.148,0.33 -1.74,0.274l0.82,-0.721c-0.678,-0.053 -1.198,-0.216 -1.413,-0.588c2.104,-0.261 2.885,-1.129 1.916,-3.134c0,0 -1.239,-2.883 -0.434,-3.612" style="fill:none;stroke:#000;stroke-width:0.3px;stroke-miterlimit:1.5;"/><path d="M3.743,4.07c0.618,-0.283 1.249,-0.23 1.409,0.119c0.16,0.349 -0.212,0.862 -0.83,1.145c-0.618,0.283 -1.249,0.229 -1.409,-0.12c-0.16,-0.348 0.212,-0.861 0.83,-1.144Z" style="fill:#f2a533;stroke:#000;stroke-width:0.3px;stroke-miterlimit:1.5;"/><path d="M4.351,11.812c0.939,-0.537 1.622,-1.306 -0.073,-4.5c0.705,2.027 0.859,3.627 0.073,4.5Z" style="fill:#f2a533;"/><path d="M4.384,11.871c-0.032,0.019 -0.074,0.007 -0.092,-0.025c-0.019,-0.032 -0.007,-0.074 0.025,-0.092c0.281,-0.179 0.532,-0.379 0.692,-0.666c0.128,-0.232 0.187,-0.522 0.155,-0.912c-0.014,-0.172 -0.046,-0.363 -0.096,-0.577c-0.042,-0.175 -0.094,-0.366 -0.161,-0.574c-0.151,-0.469 -0.371,-1.024 -0.689,-1.681c-0.018,-0.033 -0.005,-0.074 0.028,-0.092c0.033,-0.017 0.074,-0.005 0.092,0.028c0.372,0.643 0.644,1.187 0.825,1.654c0.083,0.214 0.147,0.412 0.193,0.595c0.059,0.232 0.09,0.44 0.099,0.628c0.017,0.35 -0.038,0.63 -0.142,0.857c-0.189,0.414 -0.538,0.657 -0.929,0.857Z"/><path d="M5.868,12.452c1.073,-0.928 1.506,-2.748 -0.553,-5.379c1.411,2.425 1.146,4.418 0.553,5.379Z" style="fill:#f2a533;"/><path d="M5.907,12.507c-0.031,0.021 -0.073,0.014 -0.095,-0.016c-0.021,-0.031 -0.014,-0.073 0.016,-0.095c0.404,-0.31 0.645,-0.697 0.757,-1.132c0.074,-0.285 0.089,-0.591 0.059,-0.913c-0.021,-0.222 -0.064,-0.451 -0.125,-0.687c-0.057,-0.219 -0.13,-0.444 -0.218,-0.672c-0.241,-0.618 -0.594,-1.259 -1.04,-1.877c-0.023,-0.03 -0.017,-0.072 0.013,-0.095c0.029,-0.023 0.072,-0.017 0.095,0.012c0.495,0.604 0.905,1.234 1.183,1.856c0.104,0.235 0.191,0.469 0.254,0.699c0.07,0.253 0.113,0.501 0.129,0.741c0.023,0.357 -0.013,0.695 -0.113,1.005c-0.152,0.467 -0.449,0.869 -0.915,1.174Z"/><path d="M8.105,12.452c1.124,-1.164 0.806,-3.289 -1.946,-5.59c1.563,1.929 2.354,3.802 1.946,5.59Z" style="fill:#f2a533;"/><path d="M8.154,12.499c-0.026,0.027 -0.069,0.027 -0.096,0.001c-0.027,-0.026 -0.028,-0.069 -0.002,-0.095c0.341,-0.379 0.525,-0.851 0.531,-1.39c0.004,-0.31 -0.054,-0.641 -0.173,-0.993c-0.077,-0.226 -0.181,-0.46 -0.31,-0.702c-0.114,-0.214 -0.248,-0.435 -0.406,-0.662c-0.385,-0.555 -0.903,-1.142 -1.582,-1.744c-0.029,-0.024 -0.032,-0.067 -0.009,-0.095c0.024,-0.029 0.067,-0.033 0.096,-0.009c0.728,0.574 1.296,1.139 1.715,1.688c0.175,0.23 0.325,0.457 0.447,0.68c0.142,0.257 0.25,0.51 0.326,0.754c0.121,0.387 0.166,0.754 0.143,1.093c-0.04,0.587 -0.281,1.088 -0.68,1.474Z"/><path d="M3.141,7.754c2.701,0.287 4.764,-0.153 4.923,-1.596l1.114,1.289c-0.82,1.546 -3.108,1.861 -5.588,1.534l-0.449,-1.227Z" style="fill:#73ba6d;stroke:#000;stroke-width:0.3px;stroke-miterlimit:1.5;"/><path d="M7.836,6.791c0.094,-0.164 0.206,-0.43 0.228,-0.633l1.114,1.289c-0.081,0.154 -0.256,0.412 -0.366,0.542l-0.976,-1.198Z" style="fill:#55a64e;"/><path d="M3.141,7.754c2.701,0.287 4.764,-0.153 4.923,-1.596l1.114,1.289c-0.82,1.546 -3.108,1.861 -5.588,1.534l-0.449,-1.227Z" style="fill:none;stroke:#000;stroke-width:0.3px;stroke-miterlimit:1.5;"/><path d="M4.348,4.209c0.158,0.227 0.042,0.404 -0.185,0.562c-0.226,0.158 -0.477,0.237 -0.635,0.011l-2.043,-2.928c-0.158,-0.226 -0.051,-0.445 0.175,-0.603c0.226,-0.158 0.487,-0.195 0.645,0.031l2.043,2.927Z" style="fill:#8e6f49;stroke:#000;stroke-width:0.3px;"/><path d="M2.305,1.282c0.158,0.226 0.042,0.404 -0.184,0.562c-0.227,0.157 -0.478,0.236 -0.636,0.01c-0.158,-0.226 -0.051,-0.445 0.175,-0.603c0.226,-0.158 0.487,-0.195 0.645,0.031Z" style="fill:#ba9d78;stroke:#000;stroke-width:0.3px;"/></g></g></g></svg>