<?xml version="1.0" encoding="UTF-8" standalone="no"?><!DOCTYPE svg PUBLIC "-//W3C//DTD SVG 1.1//EN" "http://www.w3.org/Graphics/SVG/1.1/DTD/svg11.dtd"><svg width="100%" height="100%" viewBox="0 0 16 16" version="1.1" xmlns="http://www.w3.org/2000/svg" xmlns:xlink="http://www.w3.org/1999/xlink" xml:space="preserve" xmlns:serif="http://www.serif.com/" style="fill-rule:evenodd;clip-rule:evenodd;stroke-linecap:round;stroke-linejoin:round;stroke-miterlimit:1.5;"><rect id="bevel-soft_tb" x="0" y="0" width="15.36" height="15.36" style="fill:none;"/><g id="bevel-soft_tb1" serif:id="bevel-soft_tb"><g><path d="M8.459,0.505c0.966,0.3 3.868,1.387 4.801,1.803c0.447,0.199 0.872,0.568 1.104,0.967c0.23,0.395 0.329,0.935 0.291,1.416c-0.081,1.058 -0.493,4.291 -0.693,5.323c-0.092,0.476 -0.363,0.943 -0.733,1.257c-0.795,0.675 -3.387,2.595 -4.263,3.181c-0.4,0.267 -0.915,0.45 -1.372,0.445c-0.458,-0.005 -0.987,-0.195 -1.382,-0.481c-0.826,-0.599 -3.222,-2.553 -3.964,-3.237c-0.343,-0.316 -0.59,-0.762 -0.69,-1.218c-0.223,-1.021 -0.744,-4.216 -0.85,-5.262c-0.049,-0.48 0.069,-1.021 0.3,-1.418c0.231,-0.397 0.644,-0.771 1.089,-0.964c0.958,-0.416 3.977,-1.508 4.972,-1.811c0.443,-0.134 0.948,-0.139 1.39,-0.001Zm-0.207,0.668c-0.312,-0.097 -0.667,-0.092 -0.98,0.003c-0.979,0.298 -3.953,1.374 -4.896,1.783c-0.311,0.136 -0.601,0.396 -0.763,0.675c-0.162,0.278 -0.243,0.657 -0.209,0.994c0.105,1.03 0.618,4.177 0.838,5.183c0.07,0.319 0.241,0.632 0.481,0.853c0.73,0.673 3.087,2.596 3.9,3.185c0.28,0.203 0.653,0.345 0.979,0.348c0.325,0.004 0.69,-0.137 0.975,-0.327c0.862,-0.577 3.416,-2.468 4.199,-3.133c0.252,-0.214 0.436,-0.532 0.499,-0.856c0.197,-1.017 0.602,-4.202 0.683,-5.244c0.026,-0.342 -0.036,-0.729 -0.199,-1.011c-0.164,-0.281 -0.468,-0.538 -0.784,-0.679c-0.918,-0.409 -3.773,-1.479 -4.723,-1.774Z" style="fill:#fff;"/><path d="M8.252,1.173c-0.312,-0.097 -0.667,-0.092 -0.98,0.003c-0.979,0.298 -3.981,1.414 -4.896,1.783c-0.227,0.092 -0.465,0.32 -0.592,0.433c-0.074,0.065 -0.122,0.158 -0.171,0.242c-0.049,0.083 -0.103,0.167 -0.123,0.261c-0.034,0.166 -0.117,0.489 -0.086,0.733c0.125,0.986 0.618,4.177 0.838,5.183c0.07,0.319 0.241,0.632 0.481,0.853c0.73,0.673 3.138,2.607 3.9,3.185c0.193,0.146 0.505,0.227 0.668,0.285c0.1,0.035 0.212,0.062 0.311,0.063c0.095,0.001 0.189,-0.027 0.28,-0.057c0.162,-0.055 0.491,-0.128 0.695,-0.27c0.816,-0.567 3.454,-2.542 4.199,-3.133c0.129,-0.102 0.186,-0.271 0.269,-0.413c0.083,-0.142 0.203,-0.279 0.23,-0.443c0.152,-0.948 0.586,-4.246 0.683,-5.244c0.024,-0.249 -0.072,-0.575 -0.105,-0.743c-0.018,-0.093 -0.047,-0.186 -0.094,-0.268c-0.05,-0.085 -0.123,-0.173 -0.203,-0.242c-0.131,-0.113 -0.357,-0.343 -0.581,-0.437c-0.884,-0.368 -3.773,-1.479 -4.723,-1.774Z" style="fill:#73ba6d;"/><path d="M6.623,13.849l-0.51,-6.093l-4.709,-3.128c-0,0 0.618,4.177 0.838,5.183c0.07,0.319 0.241,0.632 0.481,0.853c0.73,0.673 3.9,3.185 3.9,3.185Z" style="fill:#94cb90;"/><path d="M13.937,4.717l-5.122,3.04l-0.238,6.113c-0,-0 3.416,-2.468 4.199,-3.133c0.252,-0.214 0.436,-0.532 0.499,-0.856c0.193,-1.003 0.662,-5.164 0.662,-5.164Z" style="fill:#55a64e;"/><path d="M1.405,4.637c-0.007,-0.228 0.054,-0.752 0.216,-1.031c0.161,-0.28 0.557,-0.547 0.755,-0.647c0.129,-0.065 0.302,-0.018 0.433,0.046c0.848,0.413 4.654,2.434 4.654,2.434c0,-0 4.112,-2.029 5.031,-2.444c0.147,-0.067 0.337,-0.12 0.481,-0.048c0.211,0.106 0.62,0.398 0.784,0.679c0.163,0.282 0.216,0.784 0.199,1.011c-0.013,0.155 -0.174,0.269 -0.307,0.35c-0.86,0.522 -4.854,2.78 -4.854,2.78c-0,-0 -0.026,4.638 -0.062,5.656c-0.006,0.158 -0.028,0.357 -0.158,0.447c-0.189,0.129 -0.65,0.331 -0.975,0.327c-0.326,-0.003 -0.784,-0.215 -0.979,-0.348c-0.135,-0.092 -0.178,-0.288 -0.192,-0.45c-0.085,-1.015 -0.318,-5.643 -0.318,-5.643c0,0 -3.666,-2.262 -4.451,-2.782c-0.118,-0.078 -0.252,-0.196 -0.257,-0.337Z" style="fill:#71b96b;"/><path d="M8.707,13.654c-0.021,0.088 -0.06,0.168 -0.13,0.216c-0.189,0.129 -0.65,0.331 -0.975,0.327c-0.326,-0.003 -0.784,-0.215 -0.979,-0.348c-0.135,-0.092 -0.178,-0.288 -0.192,-0.45c-0.085,-1.015 -0.318,-5.643 -0.318,-5.643c0,0 -3.666,-2.262 -4.451,-2.782c-0.118,-0.078 -0.252,-0.196 -0.257,-0.337c-0.007,-0.228 0.054,-0.752 0.216,-1.031c0.161,-0.28 0.557,-0.547 0.755,-0.647c0.036,-0.018 0.075,-0.027 0.115,-0.03c-0.059,0.063 -0.111,0.13 -0.15,0.197c-0.162,0.279 -0.223,0.803 -0.216,1.031c0.005,0.141 0.139,0.259 0.257,0.337c0.59,0.391 2.811,1.768 3.876,2.426c0.359,0.224 0.587,0.609 0.61,1.032c0.068,1.323 0.218,4.193 0.283,4.967c0.014,0.162 0.057,0.358 0.192,0.45c0.195,0.133 0.653,0.345 0.979,0.348c0.117,0.002 0.252,-0.024 0.385,-0.063Zm5.188,-8.866c-0.062,0.081 -0.159,0.147 -0.244,0.199c-0.63,0.382 -2.943,1.697 -4.135,2.372c0.001,-0.047 0.001,-0.072 0.001,-0.072c-0,-0 3.027,-1.712 4.378,-2.499Z" style="fill:#afd8ac;"/><path d="M1.405,4.637c-0.007,-0.228 0.054,-0.752 0.216,-1.031c0.161,-0.28 0.557,-0.547 0.755,-0.647c0.129,-0.065 0.302,-0.018 0.433,0.046c0.848,0.413 4.654,2.434 4.654,2.434c0,-0 4.112,-2.029 5.031,-2.444c0.147,-0.067 0.337,-0.12 0.481,-0.048c0.211,0.106 0.62,0.398 0.784,0.679c0.163,0.282 0.216,0.784 0.199,1.011c-0.013,0.155 -0.174,0.269 -0.307,0.35c-0.86,0.522 -4.854,2.78 -4.854,2.78c-0,-0 -0.026,4.638 -0.062,5.656c-0.006,0.158 -0.028,0.357 -0.158,0.447c-0.189,0.129 -0.65,0.331 -0.975,0.327c-0.326,-0.003 -0.784,-0.215 -0.979,-0.348c-0.135,-0.092 -0.178,-0.288 -0.192,-0.45c-0.085,-1.015 -0.318,-5.643 -0.318,-5.643c0,0 -3.666,-2.262 -4.451,-2.782c-0.118,-0.078 -0.252,-0.196 -0.257,-0.337Z" style="fill:none;stroke:#fff;stroke-width:0.5px;"/><path d="M6.113,7.756c0.854,0.477 1.748,0.477 2.684,0.011c0.122,-1.146 -0.389,-1.879 -1.334,-2.328c-1.028,0.421 -1.469,1.199 -1.35,2.317Z" style="fill:none;stroke:#fff;stroke-width:0.5px;"/><path d="M7.466,5.27c0.021,-0.01 0.047,-0.023 0.076,-0.037c0.074,-0.037 0.164,-0.006 0.201,0.068c0.037,0.074 0.006,0.164 -0.068,0.201c-0.084,0.041 -0.135,0.066 -0.144,0.071c-0.041,0.02 -0.068,0.016 -0.068,0.016c0,-0 -0.028,0.005 -0.072,-0.018c-0.009,-0.005 -0.058,-0.032 -0.141,-0.075c-0.073,-0.039 -0.101,-0.13 -0.062,-0.203c0.038,-0.073 0.129,-0.101 0.202,-0.062c0.03,0.015 0.055,0.028 0.076,0.039Zm1.331,2.647l-0.073,-0.281c0,-0 0.058,-0.033 0.14,-0.079c0.072,-0.041 0.164,-0.016 0.204,0.056c0.041,0.072 0.016,0.164 -0.056,0.205c-0.025,0.014 -0.047,0.026 -0.066,0.037c0,0.022 0,0.048 -0,0.076c-0.001,0.083 -0.068,0.15 -0.151,0.15c-0.083,-0.001 -0.15,-0.069 -0.149,-0.151c0,-0.095 0.001,-0.162 0.001,-0.162l0.15,0.149Zm-2.55,-0.206c0.009,0.002 0.015,0.013 0.016,0.039c0.001,0.011 0.004,0.067 0.008,0.162c0.005,0.082 -0.059,0.153 -0.142,0.157c-0.083,0.004 -0.153,-0.059 -0.157,-0.142c-0.002,-0.032 -0.003,-0.061 -0.005,-0.085c-0.022,-0.014 -0.051,-0.031 -0.084,-0.052c-0.07,-0.043 -0.092,-0.136 -0.049,-0.206c0.044,-0.071 0.136,-0.092 0.207,-0.049c0.087,0.054 0.14,0.086 0.149,0.092c0.04,0.025 0.056,0.054 0.057,0.084Zm-4.658,-2.999c0.049,0.066 0.035,0.16 -0.032,0.209c-0.067,0.049 -0.161,0.035 -0.21,-0.032c-0.055,-0.075 -0.089,-0.159 -0.092,-0.247c-0.001,-0.048 0,-0.108 0.004,-0.176c0.006,-0.083 0.077,-0.146 0.16,-0.14c0.082,0.005 0.145,0.076 0.14,0.159c-0.004,0.057 -0.005,0.107 -0.004,0.147c0.001,0.029 0.016,0.055 0.034,0.08Zm0.192,-1.08c-0.047,0.068 -0.14,0.085 -0.208,0.038c-0.068,-0.047 -0.085,-0.141 -0.038,-0.209c0.064,-0.092 0.148,-0.182 0.24,-0.265c0.062,-0.055 0.156,-0.05 0.212,0.011c0.055,0.062 0.05,0.156 -0.011,0.212c-0.074,0.067 -0.143,0.139 -0.195,0.213Zm0.893,-0.522c-0.078,-0.028 -0.117,-0.115 -0.089,-0.192c0.029,-0.078 0.116,-0.118 0.193,-0.089c0.034,0.012 0.066,0.026 0.096,0.041c0.058,0.028 0.129,0.064 0.212,0.105c0.074,0.038 0.103,0.128 0.066,0.202c-0.037,0.074 -0.128,0.103 -0.201,0.066c-0.082,-0.041 -0.151,-0.076 -0.208,-0.103c-0.022,-0.011 -0.045,-0.021 -0.069,-0.03Zm1.139,0.577c-0.074,-0.039 -0.102,-0.129 -0.064,-0.203c0.038,-0.073 0.129,-0.102 0.202,-0.064c0.093,0.049 0.189,0.099 0.287,0.15c0.074,0.038 0.102,0.129 0.064,0.203c-0.038,0.073 -0.129,0.101 -0.202,0.063c-0.099,-0.051 -0.194,-0.101 -0.287,-0.149Zm1.147,0.6c-0.074,-0.039 -0.102,-0.13 -0.063,-0.203c0.038,-0.073 0.129,-0.102 0.202,-0.063c0.096,0.05 0.192,0.101 0.287,0.151c0.073,0.038 0.101,0.129 0.063,0.202c-0.039,0.074 -0.129,0.102 -0.203,0.063c-0.095,-0.05 -0.191,-0.1 -0.286,-0.15Zm1.145,0.603c-0.073,-0.039 -0.101,-0.129 -0.062,-0.203c0.038,-0.073 0.129,-0.101 0.202,-0.062c0.099,0.052 0.195,0.103 0.287,0.151c0.073,0.039 0.101,0.13 0.062,0.203c-0.038,0.073 -0.129,0.101 -0.202,0.062c-0.092,-0.048 -0.188,-0.099 -0.287,-0.151Zm2.442,0.183c-0.074,0.036 -0.164,0.006 -0.201,-0.069c-0.036,-0.074 -0.006,-0.164 0.069,-0.201c0.093,-0.045 0.19,-0.093 0.291,-0.142c0.074,-0.037 0.164,-0.006 0.2,0.068c0.037,0.074 0.006,0.164 -0.068,0.201c-0.101,0.049 -0.198,0.097 -0.291,0.143Zm1.163,-0.571c-0.074,0.036 -0.164,0.006 -0.2,-0.069c-0.037,-0.074 -0.006,-0.164 0.069,-0.2c0.096,-0.048 0.193,-0.095 0.291,-0.143c0.074,-0.036 0.164,-0.005 0.2,0.069c0.037,0.075 0.006,0.164 -0.069,0.201c-0.097,0.047 -0.194,0.095 -0.291,0.142Zm1.165,-0.568c-0.074,0.036 -0.164,0.005 -0.2,-0.069c-0.037,-0.075 -0.005,-0.165 0.069,-0.201c0.099,-0.048 0.196,-0.095 0.292,-0.141c0.074,-0.036 0.164,-0.005 0.2,0.069c0.036,0.075 0.005,0.165 -0.07,0.201c-0.095,0.046 -0.192,0.093 -0.291,0.141Zm1.167,-0.562c-0.075,0.035 -0.165,0.004 -0.2,-0.071c-0.036,-0.075 -0.004,-0.164 0.071,-0.2c0.108,-0.052 0.207,-0.098 0.294,-0.139c0.074,-0.035 0.164,-0.003 0.199,0.072c0.035,0.075 0.003,0.165 -0.072,0.2c-0.087,0.04 -0.185,0.087 -0.292,0.138Zm1.045,-0.185c-0.069,-0.045 -0.088,-0.139 -0.042,-0.207c0.046,-0.069 0.139,-0.088 0.208,-0.042c0.087,0.058 0.182,0.128 0.273,0.205c0.063,0.054 0.071,0.149 0.017,0.212c-0.054,0.063 -0.149,0.07 -0.212,0.017c-0.081,-0.07 -0.166,-0.133 -0.244,-0.185Zm0.678,0.916c-0.016,-0.081 0.036,-0.16 0.118,-0.176c0.081,-0.016 0.16,0.036 0.176,0.117c0.023,0.117 0.038,0.235 0.046,0.34c0.006,0.083 -0.056,0.154 -0.139,0.16c-0.083,0.006 -0.154,-0.056 -0.16,-0.138c-0.007,-0.094 -0.02,-0.199 -0.041,-0.303Zm-0.403,0.881c0.072,-0.042 0.164,-0.018 0.206,0.053c0.042,0.072 0.018,0.164 -0.053,0.206c-0.083,0.048 -0.177,0.104 -0.281,0.164c-0.071,0.042 -0.163,0.017 -0.205,-0.054c-0.041,-0.072 -0.017,-0.164 0.054,-0.205c0.104,-0.06 0.197,-0.115 0.279,-0.164Zm-1.12,0.649c0.072,-0.041 0.164,-0.016 0.205,0.056c0.041,0.072 0.017,0.163 -0.055,0.205c-0.092,0.052 -0.186,0.106 -0.281,0.161c-0.072,0.041 -0.164,0.016 -0.205,-0.056c-0.041,-0.072 -0.016,-0.163 0.055,-0.204c0.096,-0.055 0.19,-0.109 0.281,-0.162Zm-1.124,0.644c0.072,-0.041 0.163,-0.016 0.204,0.056c0.041,0.072 0.016,0.163 -0.056,0.204c-0.094,0.054 -0.188,0.108 -0.281,0.161c-0.072,0.041 -0.164,0.016 -0.205,-0.056c-0.041,-0.072 -0.016,-0.164 0.056,-0.205c0.093,-0.053 0.187,-0.107 0.282,-0.16Zm-1.127,0.64c0.072,-0.04 0.164,-0.015 0.205,0.057c0.041,0.072 0.015,0.163 -0.057,0.204c-0.097,0.056 -0.191,0.109 -0.281,0.16c-0.072,0.041 -0.164,0.016 -0.205,-0.056c-0.041,-0.072 -0.015,-0.164 0.057,-0.205c0.09,-0.051 0.184,-0.104 0.281,-0.16Zm-1.351,1.994c0,-0.083 0.068,-0.15 0.151,-0.149c0.082,0.001 0.149,0.068 0.149,0.151c-0.001,0.105 -0.002,0.214 -0.003,0.327c-0,0.083 -0.068,0.15 -0.151,0.149c-0.083,-0 -0.149,-0.068 -0.149,-0.151c0.001,-0.113 0.002,-0.223 0.003,-0.327Zm-0.011,1.308c0.001,-0.083 0.069,-0.149 0.152,-0.148c0.083,0 0.149,0.068 0.148,0.151c-0,0.108 -0.001,0.217 -0.002,0.327c-0.001,0.083 -0.069,0.149 -0.152,0.149c-0.083,-0.001 -0.149,-0.069 -0.148,-0.152c0.001,-0.109 0.002,-0.218 0.002,-0.327Zm-0.012,1.308c0.001,-0.082 0.069,-0.149 0.152,-0.148c0.082,0.001 0.149,0.069 0.148,0.152c-0.001,0.111 -0.003,0.22 -0.004,0.327c-0.001,0.083 -0.069,0.149 -0.152,0.148c-0.082,-0.001 -0.149,-0.069 -0.148,-0.152c0.001,-0.106 0.003,-0.216 0.004,-0.327Zm-0.018,1.308c0.001,-0.083 0.07,-0.149 0.153,-0.147c0.082,0.001 0.148,0.07 0.147,0.152c-0.002,0.121 -0.005,0.231 -0.007,0.328c-0.002,0.083 -0.071,0.149 -0.153,0.147c-0.083,-0.002 -0.149,-0.071 -0.147,-0.154c0.002,-0.096 0.005,-0.206 0.007,-0.326Zm-0.29,1.014c0.075,-0.037 0.165,-0.005 0.201,0.069c0.036,0.075 0.005,0.164 -0.07,0.201c-0.095,0.046 -0.206,0.092 -0.32,0.131c-0.079,0.026 -0.164,-0.016 -0.19,-0.095c-0.026,-0.078 0.016,-0.163 0.094,-0.19c0.102,-0.034 0.2,-0.075 0.285,-0.116Zm-1.142,0.101c0.077,0.029 0.117,0.115 0.089,0.193c-0.029,0.077 -0.115,0.118 -0.192,0.089c-0.114,-0.041 -0.223,-0.09 -0.317,-0.138c-0.074,-0.038 -0.103,-0.128 -0.065,-0.202c0.037,-0.073 0.128,-0.103 0.202,-0.065c0.084,0.043 0.181,0.086 0.283,0.123Zm-0.605,-0.815c0.005,0.083 -0.057,0.155 -0.139,0.16c-0.083,0.006 -0.155,-0.056 -0.161,-0.139c-0.006,-0.096 -0.014,-0.206 -0.022,-0.327c-0.005,-0.083 0.058,-0.154 0.141,-0.159c0.082,-0.006 0.154,0.057 0.159,0.14c0.008,0.12 0.015,0.229 0.022,0.325Zm-0.081,-1.304c0.005,0.083 -0.059,0.154 -0.141,0.158c-0.083,0.005 -0.154,-0.058 -0.159,-0.141c-0.006,-0.106 -0.012,-0.216 -0.018,-0.327c-0.005,-0.082 0.058,-0.153 0.141,-0.158c0.083,-0.004 0.154,0.059 0.158,0.142c0.007,0.11 0.013,0.219 0.019,0.326Zm-0.073,-1.306c0.005,0.083 -0.059,0.153 -0.141,0.158c-0.083,0.004 -0.154,-0.059 -0.158,-0.142c-0.006,-0.109 -0.012,-0.218 -0.018,-0.327c-0.004,-0.082 0.059,-0.153 0.142,-0.157c0.083,-0.005 0.153,0.059 0.158,0.141c0.005,0.109 0.011,0.218 0.017,0.327Zm-0.069,-1.307c0.004,0.083 -0.06,0.154 -0.142,0.158c-0.083,0.004 -0.153,-0.059 -0.158,-0.142c-0.006,-0.113 -0.011,-0.222 -0.017,-0.327c-0.004,-0.082 0.059,-0.153 0.142,-0.157c0.083,-0.005 0.153,0.059 0.158,0.142c0.005,0.104 0.011,0.213 0.017,0.326Zm-1.205,-2.244c0.07,0.044 0.092,0.136 0.048,0.207c-0.043,0.07 -0.136,0.092 -0.206,0.048c-0.097,-0.06 -0.198,-0.123 -0.302,-0.187c-0.071,-0.044 -0.092,-0.136 -0.049,-0.207c0.044,-0.07 0.136,-0.092 0.207,-0.048c0.104,0.064 0.205,0.127 0.302,0.187Zm-1.208,-0.75c0.07,0.044 0.092,0.137 0.048,0.207c-0.044,0.07 -0.136,0.092 -0.207,0.048c-0.1,-0.063 -0.201,-0.126 -0.302,-0.188c-0.07,-0.044 -0.091,-0.136 -0.048,-0.207c0.044,-0.07 0.137,-0.091 0.207,-0.048c0.1,0.063 0.201,0.126 0.302,0.188Zm-1.206,-0.753c0.07,0.044 0.092,0.137 0.048,0.207c-0.045,0.07 -0.137,0.091 -0.207,0.047c-0.106,-0.066 -0.206,-0.13 -0.301,-0.19c-0.07,-0.044 -0.091,-0.137 -0.047,-0.207c0.044,-0.07 0.137,-0.091 0.207,-0.046c0.095,0.06 0.195,0.123 0.3,0.189Z"/><path d="M8.252,1.173c-0.312,-0.097 -0.667,-0.092 -0.98,0.003c-0.979,0.298 -3.953,1.374 -4.896,1.783c-0.311,0.136 -0.601,0.396 -0.763,0.675c-0.162,0.278 -0.243,0.657 -0.209,0.994c0.105,1.03 0.618,4.177 0.838,5.183c0.07,0.319 0.241,0.632 0.481,0.853c0.73,0.673 3.087,2.596 3.9,3.185c0.28,0.203 0.653,0.345 0.979,0.348c0.325,0.004 0.69,-0.137 0.975,-0.327c0.862,-0.577 3.416,-2.468 4.199,-3.133c0.252,-0.214 0.436,-0.532 0.499,-0.856c0.197,-1.017 0.602,-4.202 0.683,-5.244c0.026,-0.342 -0.036,-0.729 -0.199,-1.011c-0.164,-0.281 -0.468,-0.538 -0.784,-0.679c-0.918,-0.409 -3.773,-1.479 -4.723,-1.774Z" style="fill:none;stroke:#000;stroke-width:0.5px;"/><path d="M5.946,7.519c-0.003,-0.083 0.062,-0.152 0.145,-0.155c0.083,-0.003 0.152,0.062 0.155,0.145c0.002,0.05 0.005,0.101 0.009,0.153c0.043,0.023 0.086,0.044 0.129,0.064c0.076,0.035 0.108,0.125 0.073,0.2c-0.035,0.075 -0.124,0.107 -0.199,0.072c-0.073,-0.033 -0.146,-0.071 -0.218,-0.111c-0.042,-0.024 -0.071,-0.067 -0.076,-0.115c-0.009,-0.086 -0.015,-0.171 -0.018,-0.253Zm1.26,0.737c-0.083,-0.007 -0.144,-0.08 -0.137,-0.163c0.007,-0.082 0.079,-0.143 0.162,-0.136c0.145,0.012 0.292,0.011 0.439,-0.004c0.083,-0.008 0.156,0.053 0.164,0.135c0.008,0.082 -0.052,0.156 -0.135,0.164c-0.165,0.016 -0.33,0.017 -0.493,0.004Zm1.437,-0.253c-0.076,0.032 -0.164,-0.003 -0.196,-0.079c-0.033,-0.077 0.003,-0.165 0.079,-0.197c0.043,-0.018 0.086,-0.038 0.129,-0.058c0.004,-0.05 0.007,-0.099 0.008,-0.147c0.003,-0.083 0.072,-0.148 0.155,-0.146c0.082,0.003 0.148,0.072 0.145,0.155c-0.002,0.082 -0.008,0.166 -0.017,0.252c-0.005,0.051 -0.036,0.095 -0.082,0.118c-0.074,0.037 -0.147,0.071 -0.221,0.102Zm0.148,-1.479c0.032,0.077 -0.004,0.165 -0.08,0.197c-0.077,0.032 -0.165,-0.004 -0.197,-0.08c-0.058,-0.138 -0.133,-0.266 -0.222,-0.383c-0.051,-0.066 -0.038,-0.16 0.027,-0.21c0.066,-0.051 0.16,-0.038 0.211,0.028c0.105,0.137 0.192,0.287 0.261,0.448Zm-1.04,-1.105c0.072,0.041 0.098,0.133 0.057,0.205c-0.041,0.072 -0.132,0.097 -0.204,0.057c-0.047,-0.027 -0.096,-0.053 -0.145,-0.077c-0.052,0.022 -0.101,0.045 -0.149,0.069c-0.074,0.038 -0.165,0.008 -0.202,-0.066c-0.037,-0.074 -0.007,-0.164 0.067,-0.201c0.073,-0.038 0.151,-0.073 0.231,-0.106c0.039,-0.016 0.084,-0.015 0.122,0.003c0.077,0.037 0.151,0.076 0.223,0.116Zm-1.381,0.63c0.05,-0.065 0.145,-0.078 0.21,-0.027c0.066,0.05 0.078,0.145 0.028,0.21c-0.091,0.118 -0.165,0.247 -0.221,0.385c-0.032,0.077 -0.119,0.114 -0.196,0.083c-0.076,-0.031 -0.113,-0.119 -0.082,-0.196c0.067,-0.164 0.154,-0.315 0.261,-0.455Z"/></g></g></svg>