<?xml version="1.0" encoding="UTF-8" standalone="no"?>
<!DOCTYPE svg PUBLIC "-//W3C//DTD SVG 1.1//EN" "http://www.w3.org/Graphics/SVG/1.1/DTD/svg11.dtd">
<svg width="100%" height="100%" viewBox="0 0 16 16" version="1.1" xmlns="http://www.w3.org/2000/svg" xmlns:xlink="http://www.w3.org/1999/xlink" xml:space="preserve" xmlns:serif="http://www.serif.com/" style="fill-rule:evenodd;clip-rule:evenodd;stroke-linecap:round;stroke-linejoin:round;stroke-miterlimit:1.5;">
    <g id="bevel-soft_tb" transform="matrix(1,0,0,1,0.320019,0.349706)">
        <g>
            <path d="M8.459,0.505C9.425,0.805 12.327,1.892 13.26,2.308C13.707,2.507 14.132,2.876 14.364,3.275C14.594,3.67 14.693,4.21 14.655,4.691C14.574,5.749 14.162,8.982 13.962,10.014C13.87,10.49 13.599,10.957 13.229,11.271C12.434,11.946 9.842,13.866 8.966,14.452C8.566,14.719 8.051,14.902 7.594,14.897C7.136,14.892 6.607,14.702 6.212,14.416C5.386,13.817 2.99,11.863 2.248,11.179C1.905,10.863 1.658,10.417 1.558,9.961C1.335,8.94 0.814,5.745 0.708,4.699C0.659,4.219 0.777,3.678 1.008,3.281C1.239,2.884 1.652,2.51 2.097,2.317C3.055,1.901 6.074,0.809 7.069,0.506C7.512,0.372 8.017,0.367 8.459,0.505ZM8.252,1.173C7.94,1.076 7.585,1.081 7.272,1.176C6.293,1.474 3.319,2.55 2.376,2.959C2.065,3.095 1.775,3.355 1.613,3.634C1.451,3.912 1.37,4.291 1.404,4.628C1.509,5.658 2.022,8.805 2.242,9.811C2.312,10.13 2.483,10.443 2.723,10.664C3.453,11.337 5.81,13.26 6.623,13.849C6.903,14.052 7.276,14.194 7.602,14.197C7.927,14.201 8.292,14.06 8.577,13.87C9.439,13.293 11.993,11.402 12.776,10.737C13.028,10.523 13.212,10.205 13.275,9.881C13.472,8.864 13.877,5.679 13.958,4.637C13.984,4.295 13.922,3.908 13.759,3.626C13.595,3.345 13.291,3.088 12.975,2.947C12.057,2.538 9.202,1.468 8.252,1.173Z" style="fill:white;"/>
            <path d="M8.252,1.173C7.94,1.076 7.585,1.081 7.272,1.176C6.293,1.474 3.291,2.59 2.376,2.959C2.149,3.051 1.911,3.279 1.784,3.392C1.71,3.457 1.662,3.55 1.613,3.634C1.564,3.717 1.51,3.801 1.49,3.895C1.456,4.061 1.373,4.384 1.404,4.628C1.529,5.614 2.022,8.805 2.242,9.811C2.312,10.13 2.483,10.443 2.723,10.664C3.453,11.337 5.861,13.271 6.623,13.849C6.816,13.995 7.128,14.076 7.291,14.134C7.391,14.169 7.503,14.196 7.602,14.197C7.697,14.198 7.791,14.17 7.882,14.14C8.044,14.085 8.373,14.012 8.577,13.87C9.393,13.303 12.031,11.328 12.776,10.737C12.905,10.635 12.962,10.466 13.045,10.324C13.128,10.182 13.248,10.045 13.275,9.881C13.427,8.933 13.861,5.635 13.958,4.637C13.982,4.388 13.886,4.062 13.853,3.894C13.835,3.801 13.806,3.708 13.759,3.626C13.709,3.541 13.636,3.453 13.556,3.384C13.425,3.271 13.199,3.041 12.975,2.947C12.091,2.579 9.202,1.468 8.252,1.173Z" style="fill:rgb(115,186,109);"/>
            <path d="M6.623,13.849L6.113,7.756L1.404,4.628C1.404,4.628 2.022,8.805 2.242,9.811C2.312,10.13 2.483,10.443 2.723,10.664C3.453,11.337 6.623,13.849 6.623,13.849Z" style="fill:rgb(148,203,144);"/>
            <path d="M13.937,4.717L8.815,7.757L8.577,13.87C8.577,13.87 11.993,11.402 12.776,10.737C13.028,10.523 13.212,10.205 13.275,9.881C13.468,8.878 13.937,4.717 13.937,4.717Z" style="fill:rgb(85,166,78);"/>
            <path d="M1.405,4.637C1.398,4.409 1.459,3.885 1.621,3.606C1.782,3.326 2.178,3.059 2.376,2.959C2.505,2.894 2.678,2.941 2.809,3.005C3.657,3.418 7.463,5.439 7.463,5.439C7.463,5.439 11.575,3.41 12.494,2.995C12.641,2.928 12.831,2.875 12.975,2.947C13.186,3.053 13.595,3.345 13.759,3.626C13.922,3.908 13.975,4.41 13.958,4.637C13.945,4.792 13.784,4.906 13.651,4.987C12.791,5.509 8.797,7.767 8.797,7.767C8.797,7.767 8.771,12.405 8.735,13.423C8.729,13.581 8.707,13.78 8.577,13.87C8.388,13.999 7.927,14.201 7.602,14.197C7.276,14.194 6.818,13.982 6.623,13.849C6.488,13.757 6.445,13.561 6.431,13.399C6.346,12.384 6.113,7.756 6.113,7.756C6.113,7.756 2.447,5.494 1.662,4.974C1.544,4.896 1.41,4.778 1.405,4.637Z" style="fill:rgb(113,185,107);"/>
            <path d="M8.707,13.654C8.686,13.742 8.647,13.822 8.577,13.87C8.388,13.999 7.927,14.201 7.602,14.197C7.276,14.194 6.818,13.982 6.623,13.849C6.488,13.757 6.445,13.561 6.431,13.399C6.346,12.384 6.113,7.756 6.113,7.756C6.113,7.756 2.447,5.494 1.662,4.974C1.544,4.896 1.41,4.778 1.405,4.637C1.398,4.409 1.459,3.885 1.621,3.606C1.782,3.326 2.178,3.059 2.376,2.959C2.412,2.941 2.451,2.932 2.491,2.929C2.432,2.992 2.38,3.059 2.341,3.126C2.179,3.405 2.118,3.929 2.125,4.157C2.13,4.298 2.264,4.416 2.382,4.494C2.972,4.885 5.193,6.262 6.258,6.92C6.617,7.144 6.845,7.529 6.868,7.952C6.936,9.275 7.086,12.145 7.151,12.919C7.165,13.081 7.208,13.277 7.343,13.369C7.538,13.502 7.996,13.714 8.322,13.717C8.439,13.719 8.574,13.693 8.707,13.654ZM13.895,4.788C13.833,4.869 13.736,4.935 13.651,4.987C13.021,5.369 10.708,6.684 9.516,7.359C9.517,7.312 9.517,7.287 9.517,7.287C9.517,7.287 12.544,5.575 13.895,4.788Z" style="fill:rgb(175,216,172);"/>
            <path d="M1.405,4.637C1.398,4.409 1.459,3.885 1.621,3.606C1.782,3.326 2.178,3.059 2.376,2.959C2.505,2.894 2.678,2.941 2.809,3.005C3.657,3.418 7.463,5.439 7.463,5.439C7.463,5.439 11.575,3.41 12.494,2.995C12.641,2.928 12.831,2.875 12.975,2.947C13.186,3.053 13.595,3.345 13.759,3.626C13.922,3.908 13.975,4.41 13.958,4.637C13.945,4.792 13.784,4.906 13.651,4.987C12.791,5.509 8.797,7.767 8.797,7.767C8.797,7.767 8.771,12.405 8.735,13.423C8.729,13.581 8.707,13.78 8.577,13.87C8.388,13.999 7.927,14.201 7.602,14.197C7.276,14.194 6.818,13.982 6.623,13.849C6.488,13.757 6.445,13.561 6.431,13.399C6.346,12.384 6.113,7.756 6.113,7.756C6.113,7.756 2.447,5.494 1.662,4.974C1.544,4.896 1.41,4.778 1.405,4.637Z" style="fill:none;stroke:black;stroke-width:0.5px;"/>
            <path d="M6.113,7.756C6.967,8.233 7.861,8.233 8.797,7.767C8.919,6.621 8.408,5.888 7.463,5.439C6.435,5.86 5.994,6.638 6.113,7.756Z" style="fill:none;stroke:black;stroke-width:0.5px;"/>
            <path d="M8.252,1.173C7.94,1.076 7.585,1.081 7.272,1.176C6.293,1.474 3.319,2.55 2.376,2.959C2.065,3.095 1.775,3.355 1.613,3.634C1.451,3.912 1.37,4.291 1.404,4.628C1.509,5.658 2.022,8.805 2.242,9.811C2.312,10.13 2.483,10.443 2.723,10.664C3.453,11.337 5.81,13.26 6.623,13.849C6.903,14.052 7.276,14.194 7.602,14.197C7.927,14.201 8.292,14.06 8.577,13.87C9.439,13.293 11.993,11.402 12.776,10.737C13.028,10.523 13.212,10.205 13.275,9.881C13.472,8.864 13.877,5.679 13.958,4.637C13.984,4.295 13.922,3.908 13.759,3.626C13.595,3.345 13.291,3.088 12.975,2.947C12.057,2.538 9.202,1.468 8.252,1.173Z" style="fill:none;stroke:black;stroke-width:0.5px;"/>
        </g>
    </g>
</svg>
