<?xml version="1.0" encoding="UTF-8" standalone="no"?><!DOCTYPE svg PUBLIC "-//W3C//DTD SVG 1.1//EN" "http://www.w3.org/Graphics/SVG/1.1/DTD/svg11.dtd"><svg width="100%" height="100%" viewBox="0 0 16 16" version="1.1" xmlns="http://www.w3.org/2000/svg" xmlns:xlink="http://www.w3.org/1999/xlink" xml:space="preserve" xmlns:serif="http://www.serif.com/" style="fill-rule:evenodd;clip-rule:evenodd;stroke-linecap:round;stroke-linejoin:round;stroke-miterlimit:1.5;"><rect id="bevel-nd_tb" x="0" y="0" width="15.36" height="15.36" style="fill:none;"/><g id="bevel-nd_tb1" serif:id="bevel-nd_tb"><g><path d="M8.46,0.535c0.966,0.3 3.868,1.387 4.8,1.803c0.447,0.199 0.872,0.568 1.104,0.967c0.23,0.395 0.329,0.935 0.292,1.416c-0.082,1.058 -0.494,4.291 -0.694,5.323c-0.092,0.476 -0.363,0.943 -0.733,1.257c-0.795,0.675 -3.387,2.595 -4.263,3.181c-0.399,0.267 -0.915,0.45 -1.372,0.445c-0.458,-0.005 -0.987,-0.195 -1.382,-0.481c-0.826,-0.599 -3.221,-2.553 -3.963,-3.237c-0.344,-0.316 -0.591,-0.762 -0.69,-1.218c-0.224,-1.021 -0.745,-4.216 -0.851,-5.262c-0.049,-0.48 0.069,-1.021 0.3,-1.418c0.231,-0.397 0.645,-0.771 1.089,-0.964c0.958,-0.416 3.978,-1.508 4.972,-1.811c0.444,-0.134 0.948,-0.139 1.391,-0.001Zm-0.208,0.668c-0.312,-0.097 -0.667,-0.092 -0.979,0.003c-0.98,0.298 -3.953,1.374 -4.897,1.783c-0.311,0.136 -0.601,0.396 -0.763,0.675c-0.162,0.278 -0.243,0.657 -0.209,0.994c0.105,1.03 0.619,4.177 0.838,5.183c0.07,0.319 0.241,0.632 0.481,0.853c0.73,0.673 3.087,2.596 3.9,3.185c0.28,0.203 0.653,0.345 0.979,0.348c0.326,0.004 0.69,-0.137 0.975,-0.327c0.862,-0.577 3.416,-2.468 4.199,-3.133c0.252,-0.214 0.436,-0.532 0.499,-0.856c0.197,-1.017 0.602,-4.202 0.683,-5.244c0.026,-0.342 -0.035,-0.729 -0.199,-1.011c-0.164,-0.281 -0.468,-0.538 -0.784,-0.679c-0.917,-0.409 -3.772,-1.479 -4.723,-1.774Z" style="fill:#fff;"/><path d="M8.252,1.203c-0.312,-0.097 -0.667,-0.092 -0.979,0.003c-0.98,0.298 -3.982,1.414 -4.897,1.783c-0.226,0.092 -0.465,0.32 -0.592,0.433c-0.074,0.065 -0.122,0.158 -0.171,0.242c-0.049,0.083 -0.103,0.167 -0.122,0.261c-0.035,0.166 -0.118,0.489 -0.087,0.733c0.125,0.986 0.619,4.177 0.838,5.183c0.07,0.319 0.241,0.632 0.481,0.853c0.73,0.673 3.138,2.607 3.9,3.185c0.193,0.146 0.506,0.227 0.669,0.285c0.099,0.035 0.212,0.062 0.31,0.063c0.095,0.001 0.19,-0.027 0.28,-0.057c0.162,-0.055 0.491,-0.128 0.695,-0.27c0.816,-0.568 3.454,-2.542 4.199,-3.133c0.129,-0.102 0.187,-0.271 0.269,-0.413c0.084,-0.142 0.204,-0.279 0.23,-0.443c0.152,-0.948 0.586,-4.246 0.683,-5.244c0.024,-0.249 -0.072,-0.575 -0.105,-0.743c-0.018,-0.093 -0.047,-0.186 -0.094,-0.268c-0.05,-0.085 -0.123,-0.173 -0.203,-0.242c-0.13,-0.113 -0.357,-0.344 -0.581,-0.437c-0.884,-0.368 -3.772,-1.479 -4.723,-1.774Z" style="fill:#73ba6d;"/><path d="M6.623,13.879l-0.51,-6.093l-4.709,-3.128c0,0 0.619,4.177 0.838,5.183c0.07,0.319 0.241,0.632 0.481,0.853c0.73,0.673 3.9,3.185 3.9,3.185Z" style="fill:#94cb90;"/><path d="M13.937,4.747l-5.122,3.04l-0.238,6.113c0,-0 3.416,-2.468 4.199,-3.133c0.252,-0.214 0.436,-0.532 0.499,-0.856c0.194,-1.003 0.662,-5.164 0.662,-5.164Z" style="fill:#55a64e;"/><path d="M1.406,4.667c-0.007,-0.228 0.053,-0.752 0.215,-1.031c0.162,-0.28 0.557,-0.547 0.755,-0.647c0.13,-0.065 0.303,-0.018 0.433,0.046c0.848,0.413 4.654,2.434 4.654,2.434c0,-0 4.113,-2.029 5.031,-2.444c0.147,-0.067 0.337,-0.12 0.481,-0.048c0.211,0.106 0.62,0.398 0.784,0.679c0.164,0.282 0.217,0.784 0.199,1.011c-0.012,0.155 -0.174,0.269 -0.307,0.35c-0.86,0.522 -4.854,2.78 -4.854,2.78c0,-0 -0.025,4.638 -0.062,5.656c-0.006,0.158 -0.027,0.357 -0.158,0.447c-0.189,0.129 -0.649,0.331 -0.975,0.327c-0.326,-0.003 -0.784,-0.215 -0.979,-0.348c-0.135,-0.092 -0.178,-0.288 -0.192,-0.45c-0.085,-1.015 -0.318,-5.643 -0.318,-5.643c0,0 -3.666,-2.262 -4.451,-2.782c-0.118,-0.078 -0.252,-0.196 -0.256,-0.337Z" style="fill:#f2a533;stroke:#000;stroke-width:0.3px;"/><path d="M2.103,4.562c-0.031,-0.016 -0.043,-0.055 -0.027,-0.087c0.017,-0.031 0.056,-0.043 0.088,-0.026c-0,-0 1.328,0.579 2.636,1.188c0.636,0.296 1.261,0.607 1.736,0.835c0.301,0.154 0.548,0.385 0.718,0.664c0.17,0.279 0.259,0.606 0.257,0.945c-0.02,0.578 -0.039,1.368 -0.076,2.167c-0.073,1.613 -0.183,3.252 -0.183,3.252c0,0.035 -0.028,0.064 -0.064,0.064c-0.035,0 -0.064,-0.028 -0.065,-0.064c0,0 -0.12,-1.637 -0.205,-3.25c-0.042,-0.799 -0.066,-1.589 -0.09,-2.167c-0.003,-0.211 -0.067,-0.412 -0.172,-0.587c-0.105,-0.176 -0.25,-0.329 -0.436,-0.432c-0.454,-0.267 -1.06,-0.612 -1.66,-0.975c-1.236,-0.746 -2.457,-1.527 -2.457,-1.527Z" style="fill:#faf3d0;"/><path d="M8.252,1.203c-0.312,-0.097 -0.667,-0.092 -0.979,0.003c-0.98,0.298 -3.953,1.374 -4.897,1.783c-0.311,0.136 -0.601,0.396 -0.763,0.675c-0.162,0.278 -0.243,0.657 -0.209,0.994c0.105,1.03 0.619,4.177 0.838,5.183c0.07,0.319 0.241,0.632 0.481,0.853c0.73,0.673 3.087,2.596 3.9,3.185c0.28,0.203 0.653,0.345 0.979,0.348c0.326,0.004 0.69,-0.137 0.975,-0.327c0.862,-0.577 3.416,-2.468 4.199,-3.133c0.252,-0.214 0.436,-0.532 0.499,-0.856c0.197,-1.017 0.602,-4.202 0.683,-5.244c0.026,-0.342 -0.035,-0.729 -0.199,-1.011c-0.164,-0.281 -0.468,-0.538 -0.784,-0.679c-0.917,-0.409 -3.772,-1.479 -4.723,-1.774Z" style="fill:none;stroke:#000;stroke-width:0.5px;"/><path d="M6.113,7.786c0.854,0.477 1.749,0.477 2.684,0.011c0.122,-1.146 -0.389,-1.879 -1.334,-2.328c-1.028,0.421 -1.469,1.199 -1.35,2.317Z" style="fill:none;stroke:#000;stroke-width:0.3px;stroke-linecap:butt;"/></g><path d="M11.971,8.229c-0.458,-0.105 -0.933,-0.105 -1.391,-0l-0.079,0.834c-0.165,0.058 -0.324,0.135 -0.473,0.228l-0.701,-0.459c-0.367,0.293 -0.663,0.665 -0.867,1.087l0.603,0.582c-0.058,0.166 -0.097,0.337 -0.117,0.512l-0.796,0.262c0,0.47 0.106,0.933 0.31,1.356l0.831,-0.109c0.093,0.149 0.203,0.286 0.327,0.41l-0.291,0.786c0.367,0.293 0.795,0.499 1.253,0.604l0.433,-0.718c0.174,0.02 0.35,0.02 0.525,0l0.433,0.718c0.457,-0.105 0.885,-0.311 1.252,-0.604l-0.291,-0.786c0.124,-0.124 0.234,-0.261 0.328,-0.41l0.831,0.109c0.203,-0.423 0.309,-0.886 0.309,-1.356l-0.796,-0.262c-0.02,-0.175 -0.059,-0.346 -0.117,-0.512l0.604,-0.582c-0.204,-0.422 -0.5,-0.794 -0.868,-1.087l-0.701,0.459c-0.148,-0.093 -0.307,-0.17 -0.473,-0.228l-0.078,-0.834Zm-0.696,2.265c0.431,0 0.781,0.35 0.781,0.781c0,0.431 -0.35,0.781 -0.781,0.781c-0.431,0 -0.781,-0.35 -0.781,-0.781c0,-0.431 0.35,-0.781 0.781,-0.781Z" style="stroke:#fff;stroke-width:0.5px;stroke-miterlimit:3;"/></g></svg>