<svg width="24" height="24" viewBox="0 0 24 24" fill="none" xmlns="http://www.w3.org/2000/svg">
<path d="M4.2627 12.0464C4.2627 15.3712 6.95795 18.0664 10.2827 18.0664C13.6075 18.0664 16.3027 15.3712 16.3027 12.0464C16.3027 8.72162 13.6075 6.02637 10.2827 6.02637C6.95795 6.02637 4.2627 8.72162 4.2627 12.0464ZM15.7007 12.0464C15.7007 15.0387 13.275 17.4644 10.2827 17.4644C7.29043 17.4644 4.8647 15.0387 4.8647 12.0464C4.8647 9.0541 7.29043 6.62837 10.2827 6.62837C13.275 6.62837 15.7007 9.0541 15.7007 12.0464Z" fill="#0E416C" stroke="#0E416C" stroke-width="0.75"/>
<path d="M8.65497 19.3708L4.68164 21.6862L4.68172 17.0557C5.14489 18.0116 7.10157 19.3708 8.65497 19.3708Z" fill="#0E416C"/>
<path d="M17.3298 9.7198L21.3217 12.0031L17.3115 14.3183C17.9077 13.4392 18.1065 11.0651 17.3298 9.7198Z" fill="#0E416C"/>
<path d="M4.68417 6.91284L4.66561 2.31412L8.67574 4.62947C7.61633 4.55264 5.46087 5.56756 4.68417 6.91284Z" fill="#0E416C"/>
</svg>
