<?xml version="1.0" encoding="UTF-8" standalone="no"?>
<!DOCTYPE svg PUBLIC "-//W3C//DTD SVG 1.1//EN" "http://www.w3.org/Graphics/SVG/1.1/DTD/svg11.dtd">
<svg width="100%" height="100%" viewBox="0 0 32 32" version="1.1" xmlns="http://www.w3.org/2000/svg" xmlns:xlink="http://www.w3.org/1999/xlink" xml:space="preserve" xmlns:serif="http://www.serif.com/" style="fill-rule:evenodd;clip-rule:evenodd;stroke-miterlimit:1;">
    <g>
        <path d="M6.414,9.295C6.414,9.295 7.53,12.4 7.406,13.519C7.294,14.525 5.668,16.01 5.668,16.01C5.668,16.01 6.54,17.323 7.054,17.917C8.212,19.255 10.959,22.655 12.613,24.039C13.86,25.083 15.438,26.211 16.976,26.221C18.514,26.23 20.613,24.952 21.838,24.095C22.907,23.349 23.631,22.184 24.33,21.084C25.053,19.944 25.983,18.659 26.18,17.256C26.489,15.057 26.18,7.89 26.18,7.89C26.18,7.89 24.897,5.812 23.858,5.293C22.713,4.72 20.769,4.511 19.309,4.454C17.898,4.399 16.475,4.619 15.102,4.951C13.581,5.318 11.633,5.934 10.185,6.658C8.813,7.344 6.414,9.295 6.414,9.295Z" style="fill:url(#_Radial1);stroke:black;stroke-width:1px;"/>
        <path d="M19.509,4.547C19.693,5.489 20.061,7.373 20.178,8.804C20.307,10.382 20.448,12.909 20.283,14.012C20.196,14.599 19.339,14.903 19.193,15.419C19.046,15.935 19.207,16.576 19.404,17.108C19.603,17.647 20.248,18.204 20.389,18.656C20.505,19.028 20.453,19.485 20.248,19.817C20.031,20.169 19.521,20.562 19.087,20.767C18.653,20.972 17.996,20.873 17.645,21.048C17.34,21.201 17.114,21.511 16.976,21.823C16.835,22.139 16.671,22.591 16.8,22.948C16.953,23.371 17.779,23.805 17.891,24.356C18.002,24.907 17.646,25.806 17.469,26.256" style="fill:none;stroke:black;stroke-width:0.5px;"/>
        <path d="M12.318,5.932C12.614,6.775 13.205,8.46 13.349,9.78C13.509,11.246 13.406,13.48 13.28,14.728C13.192,15.602 12.65,16.469 12.593,17.271C12.539,18.033 13.049,18.782 12.937,19.538C12.794,20.506 12.087,22.22 11.734,23.077" style="fill:none;stroke:black;stroke-width:0.5px;"/>
        <path d="M23.794,5.451C23.984,6.27 24.364,7.909 24.482,9.162C24.608,10.502 24.768,12.506 24.55,13.491C24.4,14.173 23.343,14.394 23.176,15.072C22.981,15.862 23.313,17.442 23.382,18.233C23.428,18.762 23.644,19.285 23.588,19.813C23.508,20.569 23.107,22.138 22.901,22.768C22.798,23.082 22.5,23.423 22.351,23.593" style="fill:none;stroke:black;stroke-width:0.5px;"/>
    </g>
    <defs>
        <radialGradient id="_Radial1" cx="0" cy="0" r="1" gradientUnits="userSpaceOnUse" gradientTransform="matrix(14.6755,0,0,14.6755,15.9925,15.3331)"><stop offset="0" style="stop-color:white;stop-opacity:1"/><stop offset="1" style="stop-color:rgb(225,154,133);stop-opacity:1"/></radialGradient>
    </defs>
</svg>
