<svg xmlns="http://www.w3.org/2000/svg" viewBox="0 0 32 32"><title>HelpUpdate</title><g id="Background"><rect x="4.5" y="4.5" width="23" height="23" rx="11" style="fill:#4d4d4d"/><path d="M16.5,5A10.51,10.51,0,0,1,27,15.5v1A10.51,10.51,0,0,1,16.5,27h-1A10.51,10.51,0,0,1,5,16.5v-1A10.51,10.51,0,0,1,15.5,5h1m0-1h-1A11.53,11.53,0,0,0,4,15.5v1A11.53,11.53,0,0,0,15.5,28h1A11.53,11.53,0,0,0,28,16.5v-1A11.53,11.53,0,0,0,16.5,4Z" style="fill:#ccc"/></g><g id="Questionmark"><path d="M19.06,16.79a2.48,2.48,0,0,0-1.18,1.62.58.58,0,0,1-.49.59h-3c-.27,0-.44-.42-.44-.69v-.55c0-1.49,1.47-2.76,2.56-3.26s1.33-.83,1.33-1.62S17,11.58,16,11.58a2.44,2.44,0,0,0-1.32.36,6.86,6.86,0,0,0-1.32,1.41.52.52,0,0,1-.38.2.6.6,0,0,1-.31-.1l-2-1.54a.49.49,0,0,1-.13-.64A6.26,6.26,0,0,1,16.24,8c2.62,0,5.57,2.1,5.57,4.92C21.81,15.24,20.23,16.14,19.06,16.79ZM17.51,24h-3a.49.49,0,0,1-.49-.49v-3a.49.49,0,0,1,.49-.49h3a.49.49,0,0,1,.49.49v3A.49.49,0,0,1,17.51,24Z" style="fill:#fff"/></g><g id="Lock"><rect x="19" y="19" width="10" height="10" style="fill:#ff1d25"/><polygon points="26 26 22 26 22 24 20 24 24 20 28 24 26 24 26 26" style="fill:#fff"/><rect x="22" y="27" width="4" height="1" style="fill:#fff"/></g></svg>