<svg xmlns="http://www.w3.org/2000/svg" viewBox="0 0 32 32"><title>MergeToPoint</title><g id="Arrows"><line x1="8.5" y1="8.5" x2="13.5" y2="13.5" style="fill:none;stroke:#4d4d4d;stroke-miterlimit:10"/><polyline points="14 9 14 14 9 14 14 9" style="fill:#4d4d4d"/><line x1="8.5" y1="23.5" x2="13.5" y2="18.5" style="fill:none;stroke:#4d4d4d;stroke-miterlimit:10"/><polyline points="9 18 14 18 14 23 9 18" style="fill:#4d4d4d"/><line x1="23.5" y1="8.5" x2="18.5" y2="13.5" style="fill:none;stroke:#4d4d4d;stroke-miterlimit:10"/><polyline points="23 14 18 14 18 9 23 14" style="fill:#4d4d4d"/></g><g id="Cursor"><polygon points="18 18 18 26.67 20 24.67 21.33 28 22.67 27.33 21.33 24 23.33 24 18 18" style="fill:#333"/></g><g id="Vertices"><circle cx="6.5" cy="6.5" r="1.5" style="fill:red;stroke:#960000;stroke-miterlimit:10"/><circle cx="6.5" cy="25.5" r="1.5" style="fill:red;stroke:#960000;stroke-miterlimit:10"/><circle cx="25.5" cy="6.5" r="1.5" style="fill:red;stroke:#960000;stroke-miterlimit:10"/><circle cx="16" cy="16" r="2.5" style="fill:#fa0;stroke:#ffd180;stroke-miterlimit:10"/></g></svg>