<?xml version="1.0" encoding="utf-8"?>
<!-- Generator: Adobe Illustrator 19.1.0, SVG Export Plug-In . SVG Version: 6.00 Build 0)  -->
<svg version="1.1" id="Layer_1" xmlns="http://www.w3.org/2000/svg" xmlns:xlink="http://www.w3.org/1999/xlink" x="0px" y="0px"
	 viewBox="0 0 200 200" enable-background="new 0 0 200 200" xml:space="preserve">
<g>
	<path fill="#3F3D3D" d="M100,199.1c-54.7,0-99.1-44.4-99.1-99.1S45.3,0.9,100,0.9s99.1,44.4,99.1,99.1S154.7,199.1,100,199.1z
		 M100,29.8c-38.7,0-70.2,31.5-70.2,70.2s31.5,70.2,70.2,70.2s70.2-31.5,70.2-70.2S138.7,29.8,100,29.8z M97.6,143.8
		c-3.2,3.2-8.4,3.2-11.6,0l-37.9-38c-3.2-3.2-3.2-8.4,0-11.6L61.1,81c3.2-3.2,8.4-3.2,11.6,0l19,19l35.5-35.5
		c3.2-3.2,8.4-3.2,11.6,0L152,77.7c3.2,3.2,3.2,8.4,0,11.6L97.6,143.8z"/>
</g>
</svg>
