<?xml version="1.0" encoding="UTF-8" standalone="no"?>
<!-- Created with Inkscape (http://www.inkscape.org/) -->

<svg
   xmlns:osb="http://www.openswatchbook.org/uri/2009/osb"
   xmlns:dc="http://purl.org/dc/elements/1.1/"
   xmlns:cc="http://creativecommons.org/ns#"
   xmlns:rdf="http://www.w3.org/1999/02/22-rdf-syntax-ns#"
   xmlns:svg="http://www.w3.org/2000/svg"
   xmlns="http://www.w3.org/2000/svg"
   xmlns:sodipodi="http://sodipodi.sourceforge.net/DTD/sodipodi-0.dtd"
   xmlns:inkscape="http://www.inkscape.org/namespaces/inkscape"
   width="20"
   height="20"
   viewBox="0 0 20 20"
   version="1.1"
   id="svg8"
   inkscape:version="0.92.1 r15371"
   sodipodi:docname="icon_mouse.svg"
   inkscape:export-filename="C:\Users\Vid\AppData\Roaming\SketchUp\SketchUp 2017\SketchUp\Plugins\s4u_connect\s4u_connect.svg.png"
   inkscape:export-xdpi="96"
   inkscape:export-ydpi="96">
  <defs
     id="defs2">
    <linearGradient
       id="linearGradient4514"
       osb:paint="solid">
      <stop
         style="stop-color:#000000;stop-opacity:1;"
         offset="0"
         id="stop4512" />
    </linearGradient>
  </defs>
  <sodipodi:namedview
     id="base"
     pagecolor="#ffffff"
     bordercolor="#666666"
     borderopacity="1.0"
     inkscape:pageopacity="0.0"
     inkscape:pageshadow="2"
     inkscape:zoom="18.433332"
     inkscape:cx="3.1221913"
     inkscape:cy="10.203818"
     inkscape:document-units="px"
     inkscape:current-layer="layer1"
     showgrid="true"
     units="px"
     scale-x="0.9"
     showguides="true"
     inkscape:window-width="1366"
     inkscape:window-height="705"
     inkscape:window-x="-8"
     inkscape:window-y="-8"
     inkscape:window-maximized="1">
    <inkscape:grid
       type="xygrid"
       id="grid3696" />
  </sodipodi:namedview>
  <metadata
     id="metadata5">
    <rdf:RDF>
      <cc:Work
         rdf:about="">
        <dc:format>image/svg+xml</dc:format>
        <dc:type
           rdf:resource="http://purl.org/dc/dcmitype/StillImage" />
        <dc:title />
      </cc:Work>
    </rdf:RDF>
  </metadata>
  <g
     inkscape:label="Layer 1"
     inkscape:groupmode="layer"
     id="layer1"
     transform="translate(0,-294.64998)">
    <g
       id="g5055-3-2"
       transform="rotate(-50.547268,2.9898372,293.27384)" />
    <path
       style="fill:none;fill-opacity:0.80303034;stroke:#000000;stroke-width:0.5;stroke-miterlimit:4;stroke-dasharray:none;stroke-dashoffset:0;stroke-opacity:0"
       id="path4615"
       d="m 28.434326,296.88871 c 0.170917,0.36606 0.421812,0.68604 0.683631,0.99065 0.311307,0.39465 0.704874,0.71274 1.133104,0.97152 0.418862,0.24702 0.880115,0.37732 1.353615,0.46798 0.353234,0.0474 0.711207,0.0934 1.068595,0.0785 0.202022,-0.008 0.485137,-0.0477 0.683039,-0.072 0.123779,-0.027 0.249115,-0.0476 0.371338,-0.0809 0.294122,-0.0802 0.502454,-0.16997 0.7849,-0.28652 0.423317,-0.17468 0.832113,-0.36699 1.239687,-0.57546 1.332252,-0.75356 -0.983316,0.57323 -1.478704,0.85333 -0.11594,0.0655 0.228967,-0.13626 0.340747,-0.20868 0.33453,-0.21673 0.63796,-0.46155 0.939996,-0.72049 0.506258,-0.44881 0.91032,-0.98865 1.266071,-1.56006 0.252704,-0.43927 0.482052,-0.89132 0.733273,-1.33139 0.128023,-0.20722 0.259711,-0.41219 0.39374,-0.61557 0,0 2.561887,-1.10095 2.561887,-1.10095 v 0 c -0.166697,0.1893 -0.300745,0.40079 -0.442963,0.60876 -0.295108,0.43034 -0.517724,0.90536 -0.787271,1.35169 -0.360051,0.60104 -0.768228,1.17185 -1.282174,1.65301 -0.287129,0.26267 -0.295603,0.28085 -0.604415,0.5212 -0.249931,0.19452 -0.400811,0.3034 -0.674994,0.46321 -2.394572,1.39571 -1.765141,1.05604 -2.991948,1.70651 -0.796748,0.38551 -1.612998,0.77233 -2.495721,0.90656 -0.623581,0.0731 -1.25322,0.10106 -1.87238,-0.0292 -0.49716,-0.11721 -0.955622,-0.28265 -1.392221,-0.55448 -0.447401,-0.28143 -0.84722,-0.62832 -1.181871,-1.03935 -0.273317,-0.31583 -0.533371,-0.64138 -0.804032,-0.95918 0,0 2.455071,-1.4386 2.455071,-1.4386 z"
       inkscape:connector-curvature="0" />
    <path
       style="fill:none;fill-opacity:0.80303034;stroke:#000000;stroke-width:0.5;stroke-miterlimit:4;stroke-dasharray:none;stroke-dashoffset:0;stroke-opacity:0"
       id="path4617"
       d="m 31.479177,296.0299 c 0.22455,0.39946 0.478468,0.78047 0.732072,1.16184 0.294317,0.45637 0.62733,0.88459 0.959927,1.31302 0.241681,0.29688 0.503315,0.57635 0.755498,0.86413 0.05751,0.0393 0.24473,0.29111 0.319151,0.27035 0.02885,-0.008 0.06725,-0.12216 0.07025,-0.12946 -3.983655,2.32576 -2.717302,1.80817 -2.02478,1.01806 0.277677,-0.31682 0.539633,-0.64742 0.804907,-0.97452 0.817934,-1.03034 1.572682,-2.10755 2.322644,-3.18757 0.643934,-0.91226 1.271948,-1.83555 1.918905,-2.74566 0.314201,-0.42732 0.647163,-0.83961 0.995435,-1.2394 0,0 2.570404,-1.06577 2.570404,-1.06577 v 0 c -0.431826,0.38726 -0.802201,0.83637 -1.178635,1.27608 -0.715465,0.91246 -1.383668,1.85976 -2.06301,2.79914 -0.735599,1.04662 -1.453404,2.10561 -2.197338,3.14636 -0.222261,0.30465 -0.435495,0.61511 -0.656233,0.92075 -0.04338,0.0601 -0.09085,0.11721 -0.132551,0.17846 -0.03158,0.0464 -0.03946,0.11439 -0.08705,0.14413 -0.822054,0.51372 -1.670429,0.98407 -2.505643,1.47611 -0.04146,-0.008 -0.08517,-0.008 -0.124381,-0.0239 -0.188424,-0.0752 -0.2846,-0.29418 -0.420266,-0.42871 -0.239098,-0.29978 -0.491643,-0.58885 -0.712595,-0.90279 -0.331619,-0.43435 -0.638493,-0.88631 -0.936975,-1.34395 -0.26684,-0.37755 -0.536741,-0.76095 -0.864807,-1.08812 0,0 2.455071,-1.4386 2.455071,-1.4386 z"
       inkscape:connector-curvature="0" />
    <path
       style="color:#000000;font-style:normal;font-variant:normal;font-weight:normal;font-stretch:normal;font-size:medium;line-height:normal;font-family:sans-serif;font-variant-ligatures:normal;font-variant-position:normal;font-variant-caps:normal;font-variant-numeric:normal;font-variant-alternates:normal;font-feature-settings:normal;text-indent:0;text-align:start;text-decoration:none;text-decoration-line:none;text-decoration-style:solid;text-decoration-color:#000000;letter-spacing:normal;word-spacing:normal;text-transform:none;writing-mode:lr-tb;direction:ltr;text-orientation:mixed;dominant-baseline:auto;baseline-shift:baseline;text-anchor:start;white-space:normal;shape-padding:0;clip-rule:nonzero;display:inline;overflow:visible;visibility:visible;opacity:1;isolation:auto;mix-blend-mode:normal;color-interpolation:sRGB;color-interpolation-filters:linearRGB;solid-color:#000000;solid-opacity:1;vector-effect:none;fill:#5078c8;fill-opacity:1;fill-rule:nonzero;stroke:#000000;stroke-width:0.2;stroke-linecap:square;stroke-linejoin:round;stroke-miterlimit:4;stroke-dasharray:none;stroke-dashoffset:0;stroke-opacity:1;paint-order:markers fill stroke;color-rendering:auto;image-rendering:auto;shape-rendering:auto;text-rendering:auto;enable-background:accumulate"
       d="M 0.10814449,294.75525 9,310.64998 v -7 h 7 z"
       id="path4506"
       inkscape:connector-curvature="0"
       sodipodi:nodetypes="ccccc" />
  </g>
</svg>
