<?xml version="1.0" encoding="UTF-8" standalone="no"?>
<!-- Created with Inkscape (http://www.inkscape.org/) -->

<svg
   version="1.1"
   id="svg823"
   xml:space="preserve"
   width="127.99997"
   height="127.99997"
   viewBox="0 0 127.99997 127.99997"
   sodipodi:docname="from_vertex.svg"
   inkscape:version="1.1 (c4e8f9e, 2021-05-24)"
   xmlns:inkscape="http://www.inkscape.org/namespaces/inkscape"
   xmlns:sodipodi="http://sodipodi.sourceforge.net/DTD/sodipodi-0.dtd"
   xmlns="http://www.w3.org/2000/svg"
   xmlns:svg="http://www.w3.org/2000/svg"><defs
     id="defs827"><clipPath
       clipPathUnits="userSpaceOnUse"
       id="clipPath839"><path
         d="M 0,0 H 95.99998 V 95.99998 H 0 Z"
         id="path837" /></clipPath></defs><sodipodi:namedview
     id="namedview825"
     pagecolor="#ffffff"
     bordercolor="#999999"
     borderopacity="1"
     inkscape:pageshadow="0"
     inkscape:pageopacity="0"
     inkscape:pagecheckerboard="0"
     showgrid="false"
     inkscape:zoom="4.4218761"
     inkscape:cx="63.999985"
     inkscape:cy="63.999985"
     inkscape:window-width="922"
     inkscape:window-height="480"
     inkscape:window-x="0"
     inkscape:window-y="44"
     inkscape:window-maximized="0"
     inkscape:current-layer="g829" /><g
     id="g829"
     inkscape:groupmode="layer"
     inkscape:label="from_vertex"
     transform="matrix(1.3333333,0,0,-1.3333333,0,127.99997)"><g
       id="g831" /><g
       id="g833"><g
         id="g835"
         clip-path="url(#clipPath839)"><g
           id="g841"
           transform="matrix(1,0,0,-1,0,95.99998)"><path
             d="M 63.02027,30.08271 H 20.54953 v 17.84138 h 42.47074 z"
             style="fill:none;stroke:#ffffff;stroke-width:6;stroke-linecap:round;stroke-linejoin:round;stroke-miterlimit:10;stroke-dasharray:none;stroke-opacity:1"
             id="path843" /></g><g
           id="g845"
           transform="matrix(1,0,0,-1,0,95.99998)"><path
             d="M 70.23167,56.95793 H 20.54954 V 74.7993 h 49.68213 z"
             style="fill:none;stroke:#ffffff;stroke-width:6;stroke-linecap:round;stroke-linejoin:round;stroke-miterlimit:10;stroke-dasharray:none;stroke-opacity:1"
             id="path847" /></g><g
           id="g849"
           transform="matrix(1,0,0,-1,0,95.99998)"><path
             d="M 11.33858,22.67717 V 82.2047"
             style="fill:none;stroke:#ffffff;stroke-width:9;stroke-linecap:round;stroke-linejoin:round;stroke-miterlimit:10;stroke-dasharray:none;stroke-opacity:1"
             id="path851" /></g><path
           d="M 63.02027,65.91726 H 20.54953 V 48.07589 h 42.47074 z"
           style="fill:#ff77f2;fill-opacity:1;fill-rule:nonzero;stroke:none"
           id="path853" /><g
           id="g855"
           transform="matrix(1,0,0,-1,0,95.99998)"><path
             d="M 63.02027,30.08271 H 20.54953 v 17.84138 h 42.47074 z"
             style="fill:none;stroke:#000000;stroke-width:3;stroke-linecap:round;stroke-linejoin:round;stroke-miterlimit:10;stroke-dasharray:none;stroke-opacity:1"
             id="path857" /></g><path
           d="M 70.23167,39.04205 H 20.54954 V 21.20068 h 49.68213 z"
           style="fill:#ff77f2;fill-opacity:1;fill-rule:nonzero;stroke:none"
           id="path859" /><g
           id="g861"
           transform="matrix(1,0,0,-1,0,95.99998)"><path
             d="M 70.23167,56.95793 H 20.54954 V 74.7993 h 49.68213 z"
             style="fill:none;stroke:#000000;stroke-width:3;stroke-linecap:round;stroke-linejoin:round;stroke-miterlimit:10;stroke-dasharray:none;stroke-opacity:1"
             id="path863" /></g><g
           id="g865"
           transform="matrix(1,0,0,-1,0,95.99998)"><path
             d="M 11.33858,22.67717 V 82.2047"
             style="fill:none;stroke:#000000;stroke-width:6;stroke-linecap:round;stroke-linejoin:round;stroke-miterlimit:10;stroke-dasharray:none;stroke-opacity:1"
             id="path867" /></g><path
           d="m 65.33334,18.66665 c 0,6.62141 5.37858,11.99999 11.99999,11.99999 6.62141,0 12,-5.37858 12,-11.99999 0,-6.62142 -5.37859,-12.000001 -12,-12.000001 -6.62141,0 -11.99999,5.378581 -11.99999,12.000001 z"
           style="fill:#ffffff;fill-opacity:1;fill-rule:nonzero;stroke:none"
           id="path869" /><g
           id="g871"
           transform="matrix(1,0,0,-1,0,95.99998)"><path
             d="m 65.33334,77.33333 c 0,-6.62141 5.37858,-11.99999 11.99999,-11.99999 6.62141,0 12,5.37858 12,11.99999 0,6.62141 -5.37859,12 -12,12 -6.62141,0 -11.99999,-5.37859 -11.99999,-12 z"
             style="fill:none;stroke:#ffffff;stroke-width:4;stroke-linecap:butt;stroke-linejoin:miter;stroke-miterlimit:10;stroke-dasharray:none;stroke-opacity:1"
             id="path873" /></g><path
           d="m 67.33333,18.66665 c 0,5.51784 4.48216,10 10,10 5.51784,0 10,-4.48216 10,-10 0,-5.51785 -4.48216,-10.000001 -10,-10.000001 -5.51784,0 -10,4.482151 -10,10.000001 z"
           style="fill:#363446;fill-opacity:1;fill-rule:nonzero;stroke:none"
           id="path875" /><g
           id="g877"
           transform="matrix(1,0,0,-1,0,95.99998)"><path
             d="m 67.33333,77.33333 c 0,-5.51784 4.48216,-10 10,-10 5.51784,0 10,4.48216 10,10 0,5.51784 -4.48216,10 -10,10 -5.51784,0 -10,-4.48216 -10,-10 z"
             style="fill:none;stroke:#353446;stroke-width:3;stroke-linecap:butt;stroke-linejoin:miter;stroke-miterlimit:10;stroke-dasharray:none;stroke-opacity:1"
             id="path879" /></g></g></g></g></svg>
