<?xml version="1.0" encoding="UTF-8" standalone="no"?>
<!-- Created with Inkscape (http://www.inkscape.org/) -->

<svg
   version="1.1"
   id="svg1134"
   xml:space="preserve"
   width="127.99997"
   height="127.99997"
   viewBox="0 0 127.99997 127.99997"
   sodipodi:docname="icon.svg"
   inkscape:version="1.1 (c4e8f9e, 2021-05-24)"
   xmlns:inkscape="http://www.inkscape.org/namespaces/inkscape"
   xmlns:sodipodi="http://sodipodi.sourceforge.net/DTD/sodipodi-0.dtd"
   xmlns="http://www.w3.org/2000/svg"
   xmlns:svg="http://www.w3.org/2000/svg"><defs
     id="defs1138"><clipPath
       clipPathUnits="userSpaceOnUse"
       id="clipPath1150"><path
         d="M 0,0 H 95.99998 V 95.99998 H 0 Z"
         id="path1148" /></clipPath></defs><sodipodi:namedview
     id="namedview1136"
     pagecolor="#ffffff"
     bordercolor="#999999"
     borderopacity="1"
     inkscape:pageshadow="0"
     inkscape:pageopacity="0"
     inkscape:pagecheckerboard="0"
     showgrid="false"
     inkscape:zoom="5.8828139"
     inkscape:cx="64.084978"
     inkscape:cy="64.084978"
     inkscape:window-width="922"
     inkscape:window-height="462"
     inkscape:window-x="0"
     inkscape:window-y="1103"
     inkscape:window-maximized="0"
     inkscape:current-layer="g1140" /><g
     id="g1140"
     inkscape:groupmode="layer"
     inkscape:label="icon"
     transform="matrix(1.3333333,0,0,-1.3333333,0,127.99997)"><g
       id="g1142" /><g
       id="g1144"><g
         id="g1146"
         clip-path="url(#clipPath1150)"><g
           id="g1152"
           transform="matrix(1,0,0,-1,0,95.99998)"><path
             d="M 84,16 V 83.99998"
             style="fill:none;stroke:#f9f9f9;stroke-width:12;stroke-linecap:round;stroke-linejoin:round;stroke-miterlimit:10;stroke-dasharray:none;stroke-opacity:1"
             id="path1154" /></g><g
           id="g1156"
           transform="matrix(1,0,0,-1,0,95.99998)"><path
             d="M 84,16 V 83.99998"
             style="fill:none;stroke:#253136;stroke-width:8;stroke-linecap:round;stroke-linejoin:round;stroke-miterlimit:10;stroke-dasharray:none;stroke-opacity:1"
             id="path1158" /></g><path
           d="m 12,37.99997 h 56.00001 c 1.10457,0 2.00001,-0.89544 2.00001,-2 V 19.99996 c 0,-1.10457 -0.89544,-2.00001 -2.00001,-2.00001 H 12 c -1.10457,0 -2,0.89544 -2,2.00001 v 16.00001 c 0,1.10456 0.89543,2 2,2 z"
           style="fill:#f733b8;fill-opacity:1;fill-rule:nonzero;stroke:none"
           id="path1160" /><g
           id="g1162"
           transform="matrix(1,0,0,-1,0,95.99998)"><path
             d="m 12,58.00001 h 56.00001 c 1.10457,0 2.00001,0.89543 2.00001,2 v 16.00001 c 0,1.10457 -0.89544,2 -2.00001,2 H 12 c -1.10457,0 -2,-0.89543 -2,-2 V 60.00001 c 0,-1.10457 0.89543,-2 2,-2 z"
             style="fill:none;stroke:#f733b8;stroke-width:4;stroke-linecap:round;stroke-linejoin:round;stroke-miterlimit:10;stroke-dasharray:none;stroke-opacity:1"
             id="path1164" /></g><path
           d="m 20,69.99997 h 47.99999 c 1.10457,0 2,-0.89544 2,-2.00001 V 51.99997 c 0,-1.10457 -0.89543,-2 -2,-2 H 20 c -1.10457,0 -2,0.89543 -2,2 v 15.99999 c 0,1.10457 0.89543,2.00001 2,2.00001 z"
           style="fill:#f733b8;fill-opacity:1;fill-rule:nonzero;stroke:none"
           id="path1166" /><g
           id="g1168"
           transform="matrix(1,0,0,-1,0,95.99998)"><path
             d="m 20,26.00001 h 47.99999 c 1.10457,0 2,0.89543 2,2 V 44 c 0,1.10457 -0.89543,2 -2,2 H 20 c -1.10457,0 -2,-0.89543 -2,-2 V 28.00001 c 0,-1.10457 0.89543,-2 2,-2 z"
             style="fill:none;stroke:#f733b8;stroke-width:4;stroke-linecap:round;stroke-linejoin:round;stroke-miterlimit:10;stroke-dasharray:none;stroke-opacity:1"
             id="path1170" /></g></g></g></g></svg>
