<?xml version="1.0" encoding="UTF-8" standalone="no"?>
<svg width="513px" height="512px" viewBox="0 0 513 512" version="1.1" xmlns="http://www.w3.org/2000/svg" xmlns:xlink="http://www.w3.org/1999/xlink" xmlns:sketch="http://www.bohemiancoding.com/sketch/ns">
    <!-- Generator: Sketch 3.3 (11970) - http://www.bohemiancoding.com/sketch -->
    <title>tb_monochrome</title>
    <desc>Created with Sketch.</desc>
    <defs></defs>
    <g id="Page-1" stroke="none" stroke-width="1" fill="none" fill-rule="evenodd" sketch:type="MSPage">
        <g id="tb_monochrome" sketch:type="MSArtboardGroup" transform="translate(1.000000, 0.000000)">
            <path d="M211,433 L417,232 L380.574442,339.01742 L211,433" id="Fill-2029" fill="#0D70BB" sketch:type="MSShapeGroup"></path>
            <path d="M124.056079,276.936547 L88,160 L195,344 L124.056079,276.936547" id="Fill-2030" fill="#0B5995" sketch:type="MSShapeGroup"></path>
            <path d="M211,432 L125,277 L196.273224,344.299077 L211,432" id="Fill-2031" fill="#616054" sketch:type="MSShapeGroup"></path>
            <path d="M209.702173,433 L195,345.569507 L415,232 L209.702173,433" id="Fill-2032" fill="#7A7969" sketch:type="MSShapeGroup"></path>
            <path d="M416,230.478067 L195.540984,344 L88,160 L416,230.478067" id="Fill-2033" fill="#ACAA94" sketch:type="MSShapeGroup"></path>
            <path d="M416,231 L88,160.473794 L286.793378,77 L416,231" id="Fill-2034" fill="#139EFF" sketch:type="MSShapeGroup"></path>
            <path d="M210.273832,432 L416,230.635473 L88,160" id="Stroke-2035" stroke="#000000" stroke-width="2.66666667" stroke-linecap="round" stroke-linejoin="round" sketch:type="MSShapeGroup"></path>
            <path d="M125,277 L196,344" id="Stroke-2036" stroke="#000000" stroke-width="2.66666667" stroke-linecap="round" stroke-linejoin="round" sketch:type="MSShapeGroup"></path>
            <path d="M195,346 L415,232" id="Stroke-2037" stroke="#000000" stroke-width="2.66666667" stroke-linecap="round" stroke-linejoin="round" sketch:type="MSShapeGroup"></path>
            <path d="M210,431 L195,344" id="Stroke-2038" stroke="#000000" stroke-width="2.66666667" stroke-linecap="round" stroke-linejoin="round" sketch:type="MSShapeGroup"></path>
            <path d="M88,160 L195,344" id="Stroke-2039" stroke="#000000" stroke-width="2.66666667" stroke-linecap="round" stroke-linejoin="round" sketch:type="MSShapeGroup"></path>
            <path d="M211,433 L380.574442,339.01742 L417,232" id="Stroke-2040" stroke="#000000" stroke-width="10.6666667" stroke-linecap="round" stroke-linejoin="round" sketch:type="MSShapeGroup"></path>
            <path d="M416,231 L286.793378,77 L88,160.473794" id="Stroke-2041" stroke="#000000" stroke-width="10.6666667" stroke-linecap="round" stroke-linejoin="round" sketch:type="MSShapeGroup"></path>
            <path d="M124,277 L88,160" id="Stroke-2042" stroke="#000000" stroke-width="10.6666667" stroke-linecap="round" stroke-linejoin="round" sketch:type="MSShapeGroup"></path>
            <path d="M125,277 L211,432" id="Stroke-2043" stroke="#000000" stroke-width="10.6666667" stroke-linecap="round" stroke-linejoin="round" sketch:type="MSShapeGroup"></path>
        </g>
    </g>
</svg>