<?xml version="1.0" standalone="no"?>
<!DOCTYPE svg PUBLIC "-//W3C//DTD SVG 1.1//EN" "http://www.w3.org/Graphics/SVG/1.1/DTD/svg11.dtd">
<!--Generator: Xara Designer (www.xara.com), SVG filter version: 6.3.0.31-->
<svg fill="none" fill-rule="evenodd" stroke="black" stroke-width="0.501" stroke-linejoin="bevel" stroke-miterlimit="10" font-family="Times New Roman" font-size="16" style="font-variant-ligatures:none" xmlns:xlink="http://www.w3.org/1999/xlink" xmlns="http://www.w3.org/2000/svg" version="1.1" overflow="visible" width="33pt" height="33.006pt" viewBox="1.499 -34.502 33 33.006">
 <defs>
	</defs>
 <g id="Layer 1" transform="scale(1 -1)">
  <g id="Group" stroke-linecap="round" stroke="none" stroke-width="0.739" fill="#000000">
   <path d="M 1.502,24.75 L 1.502,34.499 L 11.25,34.502 L 11.25,32.251 L 3.75,32.25 L 3.75,24.75 L 1.502,24.75 Z" stroke-linejoin="miter" marker-start="none" marker-end="none"/>
   <path d="M 34.499,24.75 L 34.499,34.499 L 24.749,34.502 L 24.748,32.251 L 32.25,32.25 L 32.25,24.75 L 34.499,24.75 Z" stroke-linejoin="miter" marker-start="none" marker-end="none"/>
   <path d="M 34.496,11.248 L 34.496,1.499 L 24.748,1.496 L 24.748,3.747 L 32.248,3.748 L 32.248,11.248 L 34.496,11.248 Z" stroke-linejoin="miter" marker-start="none" marker-end="none"/>
   <path d="M 1.499,11.248 L 1.499,1.499 L 11.249,1.496 L 11.25,3.747 L 3.748,3.748 L 3.748,11.248 L 1.499,11.248 Z" stroke-linejoin="miter" marker-start="none" marker-end="none"/>
   <path d="M 26.256,24.048 L 22.774,27.275 L 25.111,29.795 C 25.354,30.057 25.628,30.219 25.938,30.293 C 26.248,30.367 26.49,30.325 26.666,30.161 L 28.838,28.148 C 29.013,27.984 29.078,27.748 29.027,27.432 C 28.98,27.117 28.834,26.831 28.592,26.572 L 26.256,24.048 Z M 5.924,5.922 L 8.467,11.832 L 21.394,25.786 L 24.878,22.56 L 11.739,8.379 L 5.924,5.922 Z" fill-rule="nonzero" stroke-linejoin="round" marker-start="none" marker-end="none"/>
  </g>
 </g>
</svg>
