<?xml version="1.0" standalone="no"?>
<!DOCTYPE svg PUBLIC "-//W3C//DTD SVG 1.1//EN" "http://www.w3.org/Graphics/SVG/1.1/DTD/svg11.dtd">
<!--Generator: Xara Designer (www.xara.com), SVG filter version: 6.3.0.31-->
<svg fill="none" fill-rule="evenodd" stroke="black" stroke-width="0.501" stroke-linejoin="bevel" stroke-miterlimit="10" font-family="Times New Roman" font-size="16" style="font-variant-ligatures:none" xmlns:xlink="http://www.w3.org/1999/xlink" xmlns="http://www.w3.org/2000/svg" version="1.1" overflow="visible" width="36pt" height="36pt" viewBox="0 -36 36 36">
 <defs>
	</defs>
 <g id="Layer 2" transform="scale(1 -1)">
  <g id="Group">
   <path d="M 1.5,23.196 L 1.5,34.519 L 34.5,34.519 L 34.5,23.196 L 1.5,23.196 Z" fill-rule="evenodd" fill="#000001" stroke="none" stroke-width="0.688" marker-start="none" marker-end="none"/>
   <path d="M 32.663,25.032 L 32.663,32.684 L 3.334,32.684 L 3.334,25.032 L 32.663,25.032 Z" fill="#ffd300" fill-rule="evenodd" stroke="none" stroke-width="0.688" marker-start="none" marker-end="none"/>
   <path d="M 6.58,26.856 L 6.58,33.144 L 7.726,33.144 L 7.726,26.856 L 6.58,26.856 Z" stroke-width="0.5" stroke="none" fill="#000000" fill-rule="evenodd" marker-start="none" marker-end="none"/>
   <path d="M 29.106,26.856 L 29.106,33.144 L 30.252,33.144 L 30.252,26.856 L 29.106,26.856 Z" stroke-width="0.5" stroke="none" fill="#000000" fill-rule="evenodd" marker-start="none" marker-end="none"/>
   <path d="M 17.843,26.856 L 17.843,33.144 L 18.989,33.144 L 18.989,26.856 L 17.843,26.856 Z" stroke-width="0.5" stroke="none" fill="#000000" fill-rule="evenodd" marker-start="none" marker-end="none"/>
   <path d="M 12.209,28.914 L 12.209,33.144 L 13.355,33.144 L 13.355,28.914 L 12.209,28.914 Z" stroke-width="0.5" stroke="none" fill="#000000" fill-rule="evenodd" marker-start="none" marker-end="none"/>
   <path d="M 23.474,28.914 L 23.474,33.144 L 24.62,33.144 L 24.62,28.914 L 23.474,28.914 Z" stroke-width="0.5" stroke="none" fill="#000000" fill-rule="evenodd" marker-start="none" marker-end="none"/>
  </g>
 </g>
 <g id="Layer 1" transform="scale(1 -1)">
  <path d="M 1.5,1.498 C 1.5,5.399 1.5,9.301 1.5,13.201 C 2.283,13.201 3.178,13.15 3.947,13.201 C 11.773,13.712 11.918,1.636 3.787,1.498 C 3.244,1.489 2.206,1.498 1.5,1.498 Z M 15.073,1.498 L 15.073,13.201 L 17.791,13.201 L 17.791,1.498 L 15.073,1.498 Z M 23.184,1.498 L 23.184,13.201 L 25.923,13.201 L 28.841,6.567 L 31.771,13.201 L 34.5,13.201 L 34.5,1.498 L 32.133,1.498 L 32.133,8.641 L 29.833,3.182 L 27.847,3.182 L 25.549,8.639 L 25.549,1.498 L 23.184,1.498 Z M 5.731,3.873 C 8.451,5.354 7.767,10.982 3.882,11.033 L 3.882,3.665 C 4.688,3.646 5.218,3.63 5.716,3.896 Z" fill="#000000" stroke-linejoin="miter" stroke-width="0.313" stroke="none" marker-start="none" marker-end="none"/>
  <text xml:space="preserve" transform="translate(56.878 10.38) scale(1 -1)" kerning="auto" fill="#ffd300" stroke="none" stroke-linecap="round" stroke-linejoin="round" stroke-width="0.25" font-size="14.266" font-family="LG Display-Regular" letter-spacing="0.34em"><tspan x="-3.281" y="0">5</tspan></text>
 </g>
</svg>
