<?xml version="1.0" encoding="UTF-8" standalone="no"?>
<!DOCTYPE svg PUBLIC "-//W3C//DTD SVG 1.1//EN" "http://www.w3.org/Graphics/SVG/1.1/DTD/svg11.dtd">
<svg width="100%" height="100%" viewBox="0 0 64 64" version="1.1" xmlns="http://www.w3.org/2000/svg" xmlns:xlink="http://www.w3.org/1999/xlink" xml:space="preserve" xmlns:serif="http://www.serif.com/" style="fill-rule:evenodd;clip-rule:evenodd;stroke-linecap:round;stroke-linejoin:round;stroke-miterlimit:1.5;">
    <g transform="matrix(1,0,0,1,-459.719,-974.5)">
        <g transform="matrix(1,0,0,1,150.719,480.5)">
            <g id="artisanTransform">
                <rect id="vscale" x="309" y="494" width="64" height="64" style="fill:none;"/>
                <g id="vscale1" serif:id="vscale">
                    <g transform="matrix(0.820513,0,0,0.820513,64.9744,100.179)">
                        <g transform="matrix(2.34146,0,0,2.34146,181.78,497.902)">
                            <rect x="59.031" y="3.031" width="17.937" height="17.937" style="fill:none;stroke:white;stroke-width:3.25px;"/>
                        </g>
                        <g transform="matrix(4.40195,0,0,4.40195,51.4981,463.346)">
                            <rect x="61.223" y="13.325" width="5.452" height="5.452" style="fill:rgb(24,171,234);stroke:white;stroke-width:1.73px;"/>
                        </g>
                        <g transform="matrix(4.68293,0,0,4.68293,32.7631,459.603)">
                            <rect x="61.337" y="13.324" width="5.339" height="5.339" style="fill:rgb(24,171,234);stroke:black;stroke-width:0.52px;"/>
                        </g>
                        <g transform="matrix(2.34146,0,0,2.34146,181.78,497.902)">
                            <rect x="59.031" y="3.031" width="17.938" height="17.937" style="fill:none;stroke:black;stroke-width:1.08px;"/>
                        </g>
                    </g>
                    <g transform="matrix(1,0,0,1,88,253)">
                        <path d="M223.5,265.5L240.5,257.5L223.5,243.5L223.5,265.5Z" style="fill:none;stroke:white;stroke-width:4.17px;"/>
                        <path d="M223.5,265.5L240.5,257.5L223.5,243.5L223.5,265.5Z"/>
                    </g>
                    <g transform="matrix(0.77778,0,0,0.77778,78.8882,119.999)">
                        <g transform="matrix(1,0,0,1,73.6294,-406.088)">
                            <circle cx="289.085" cy="953.802" r="10.286" style="fill:rgb(129,209,243);stroke:white;stroke-width:8.04px;"/>
                        </g>
                        <g transform="matrix(1,0,0,1,73.6294,-406.088)">
                            <circle cx="289.085" cy="953.802" r="10.286" style="fill:rgb(129,209,243);stroke:black;stroke-width:2.68px;"/>
                        </g>
                        <g transform="matrix(1,0,0,1,73.6294,-406.088)">
                            <path d="M299.274,955.218L298.584,955.28L297.49,955.154L296.837,954.102L296.101,953.534L295.953,953.807L296.837,954.88L296.564,956.038L296.522,957.195L296.564,958.921L296.143,959.973L295.617,960.5L294.754,960.394L294.649,959.279L294.207,958.269L293.428,957.132L292.439,956.796L291.807,955.638L292.334,954.27L293.47,953.828L294.417,953.891L294.806,952.829L294.517,952.355L293.87,952.395L293.925,953.111L293.679,953.257L293.42,952.398L292.754,952.539L292.547,952.997L292.298,953.743L291.439,953.46L291.413,952.802L291.781,952.592L291.728,951.908L292.228,951.408L292.886,951.119L293.649,950.329L292.807,950.593L292.518,950.224L293.07,949.33L293.649,949.33L294.727,948.12L296.306,947.673L297.33,947.655C298.612,949.37 299.371,951.498 299.371,953.802C299.371,954.282 299.338,954.755 299.274,955.218Z" style="fill:rgb(103,160,44);"/>
                        </g>
                        <g transform="matrix(1,0,0,1,73.6294,-406.088)">
                            <path d="M283.395,949.373L285.604,948.448L288.173,948.756L289.509,949.578L288.482,951.685L288.379,953.124L287.588,952.491L286.194,952.675L285.615,953.802L285.931,954.859L286.694,955.227L287.746,955.543L288.509,957.2L287.878,958.541L287.115,959.357L286.983,960.909L286.983,961.751L286.22,961.041L285.089,959.515L284.694,958.015L284.458,955.832L284.721,955.069L285.063,954.332L284.905,953.543L284.116,952.965L283.248,951.728L282.958,950.465L283.395,949.373Z" style="fill:rgb(103,160,44);"/>
                        </g>
                        <g transform="matrix(1,0,0,1,73.6294,-406.088)">
                            <path d="M278.799,953.802C278.799,952.014 279.256,950.332 280.06,948.866L281.355,949.1L282.039,949.863L282.145,950.845L281.355,951.257L280.566,952.151L280.487,953.046L279.909,953.467L278.799,953.802Z" style="fill:rgb(103,160,44);"/>
                        </g>
                    </g>
                </g>
            </g>
        </g>
        <g id="artisanSubdivide">
        </g>
    </g>
</svg>
