<?xml version="1.0" encoding="UTF-8" standalone="no"?>
<svg width="24px" height="24px" viewBox="0 0 24 24" version="1.1" xmlns="http://www.w3.org/2000/svg" xmlns:xlink="http://www.w3.org/1999/xlink" xmlns:sketch="http://www.bohemiancoding.com/sketch/ns">
    <!-- Generator: Sketch 3.3.1 (12002) - http://www.bohemiancoding.com/sketch -->
    <title>tb_phototextures</title>
    <desc>Created with Sketch.</desc>
    <defs>
        <radialGradient cx="50%" cy="50%" fx="50%" fy="50%" r="50%" id="radialGradient-1">
            <stop stop-color="#FCCE64" offset="0%"></stop>
            <stop stop-color="#AD762D" offset="100%"></stop>
        </radialGradient>
    </defs>
    <g id="Page-1" stroke="none" stroke-width="1" fill="none" fill-rule="evenodd" sketch:type="MSPage">
        <g id="tb_phototextures" sketch:type="MSArtboardGroup">
            <g id="Group" sketch:type="MSLayerGroup" transform="translate(4.000000, 3.000000)">
                <path d="M11.890625,3.14075 L9.875,3.140625 L9.875,8.458875 L7.859375,8.458875 L11.890625,12.890625 L15.921875,8.458875 L13.9063747,8.458875 L13.9063747,3.140625 L11.890625,3.14075 L11.890625,3.14075 Z" id="Fill-24758" fill="#1293F5" sketch:type="MSShapeGroup"></path>
                <path d="M11.890625,3.14075 L9.875,3.140625 L9.875,8.458875 L7.859375,8.458875 L11.890625,12.890625 L15.921875,8.458875 L13.9063747,8.458875 L13.9063747,3.140625 L11.890625,3.14075 L11.890625,3.14075 Z" id="Stroke-24759" stroke="#FFFFFF" stroke-width="1.375" stroke-linecap="round" stroke-linejoin="round" sketch:type="MSShapeGroup"></path>
                <path d="M11.890625,3.14075 L9.875,3.140625 L9.875,8.458875 L7.859375,8.458875 L11.890625,12.890625 L15.921875,8.458875 L13.9063747,8.458875 L13.9063747,3.140625 L11.890625,3.14075 L11.890625,3.14075 Z" id="Fill-24760" fill="#1293F5" sketch:type="MSShapeGroup"></path>
                <path d="M11.890625,3.14075 L9.875,3.140625 L9.875,8.458875 L7.859375,8.458875 L11.890625,12.890625 L15.921875,8.458875 L13.9063747,8.458875 L13.9063747,3.140625 L11.890625,3.14075 L11.890625,3.14075 Z" id="Stroke-24761" stroke="#000000" stroke-width="0.5" stroke-linecap="round" stroke-linejoin="round" sketch:type="MSShapeGroup"></path>
                <path d="M10.6011507,16.3325043 L10.6011507,17.0887299 L4.88643546,15.7098999 C4.88643546,15.7098999 3.90699768,15.8229675 3.43705749,15.8229675 C2.96711731,15.8229675 2.3722992,15.8202209 1.87892152,15.6630249 C1.38554383,15.5058289 0.951995857,15.2188568 0.758819588,15.097229 C0.565643318,14.9756012 0.152694699,14.5905304 0.152694699,14.5905304 L0.0828399651,13.7009583 C0.0828399651,13.7009583 0.390502937,13.9949341 0.758819588,14.2026215 C1.12713624,14.4103088 1.56617738,14.6440887 1.87590028,14.7287292 C2.18562318,14.8133698 3.12879927,14.8924255 3.43705732,14.8924255 C3.74531538,14.8924255 4.89247794,14.8128662 4.89247794,14.8128662 L10.6011507,16.3325043 Z" id="Path-4628" stroke="#000000" stroke-width="0.3" fill="#6EBF4D" sketch:type="MSShapeGroup"></path>
                <path d="M10.3864132,16.127014 L7.72506714,13.3424377 C7.72506714,13.3424377 8.02041626,12.5996704 7.73632812,12.1236877 C7.45223999,11.6477051 6.61462402,11.1499329 6.06750488,10.9813843 C5.52038574,10.8128357 3.97561646,10.6383362 2.8203125,10.9171143 C1.66500854,11.1958923 0.656463623,11.8380432 0.342895508,12.3374634 C0.0293273926,12.8368836 -0.0417175293,13.4946901 0.220489502,13.7864685 C0.482696533,14.0782469 1.07623293,14.3664549 1.64436342,14.5953825 C1.92125978,14.7069576 2.69521675,14.8514822 3.40391542,14.8542021 C4.1493107,14.8570629 4.86468507,14.7729948 4.86468507,14.7729948 L10.3864132,16.127014 Z" id="Path-4627" stroke="#000000" stroke-width="0.3" fill="#6EBF4D" sketch:type="MSShapeGroup"></path>
                <path id="Fill-3080-Copy" stroke="#000000" stroke-width="0.3" fill="#FFB647" sketch:type="MSShapeGroup" d="M3.84181213,3.90696716 L4.79441833,3.68206787 L5.89552307,3.90696716 L4.97280901,4.171875 L3.84181213,3.90696716 Z"></path>
                <path d="M5.88423876,3.984375 L6.03125,8.60043261 L5.5297699,8.82371521 L5.42213045,4.22619278 L5.140625,4.15802604 L5.88423876,3.984375 Z" id="Fill-3082" stroke="#000000" stroke-width="0.2" fill="#C68734" sketch:type="MSShapeGroup"></path>
                <path d="M3.80052185,13.6718445 L5.58534241,12.7439117 L5.41665649,4.24145508 L3.16757202,4.79745483 L3.80052185,13.6718445 Z" id="Path-4424" stroke="#000000" stroke-width="0.3" fill="#C68734" sketch:type="MSShapeGroup"></path>
                <path d="M3.125,4.81306794 L5.375,4.265625 L4.43979065,7.359375 L3.125,4.81306794" id="Fill-3083" stroke="#000000" stroke-width="0.3" fill="#8E331E" sketch:type="MSShapeGroup"></path>
                <path d="M3.19100952,4.66941833 L2.05557251,4.3241272 L3.79351807,3.92367554 L4.97807312,4.2063446 L3.19100952,4.66941833 Z" id="Path-4426" stroke="#000000" stroke-width="0.2" fill="#EDB447" sketch:type="MSShapeGroup"></path>
                <path d="M2.91321564,4.75457258 L3.15084076,4.85317487 L3.81354523,13.5893657 C3.81354523,13.5893657 2.51564789,12.8557994 2.51564789,12.7919414 C2.51564789,12.7280833 2.24895477,9.96763105 2.24895477,9.96763105 L2.48049164,10.0835826 L3.27750397,9.76516218 L2.91321564,4.75457258 Z" id="Path-4427" stroke="#000000" stroke-width="0.3" fill="#EEBC4A" sketch:type="MSShapeGroup"></path>
                <path d="M1.60132815,9.63446887 L1.109375,4.640625 L1.97866721,4.90623363 L2.421875,10.03125 L2.22476877,9.93597734 L1.60132815,9.63446887" id="Fill-3077" stroke="#000000" stroke-width="0.3" fill="#FFBE4A" sketch:type="MSShapeGroup"></path>
                <path d="M2.45027654,10.03125 L2,4.9438327 L2.88975964,4.734375 L3.265625,9.71837178 L2.45027654,10.03125" id="Fill-3079" stroke="#000000" stroke-width="0.3" fill="#C68734" sketch:type="MSShapeGroup"></path>
                <path d="M1.05215454,4.56637573 L1.83181763,4.35827637 L2.84375,4.66168956 L1.97333275,4.875 L1.05215454,4.56637573 Z" id="Fill-3080" fill="#FFB647" sketch:type="MSShapeGroup"></path>
                <path d="M1.08126831,4.54614258 L1.85955811,4.32467651 L1.74617004,4.26631165 L3.47198486,3.78804016" id="Path-4427" stroke="#000000" stroke-width="0.2" sketch:type="MSShapeGroup"></path>
                <path id="Path-4428" stroke="#000000" stroke-width="0.5" sketch:type="MSShapeGroup" d="M2.1656189,9.89039612 L2.28108978,11.1448517"></path>
                <path id="Path-4428-Copy" stroke="#000000" stroke-width="0.5" sketch:type="MSShapeGroup" d="M5.54597473,8.8084259 L5.57350922,10.8123322"></path>
                <circle id="Oval-1" stroke="#000000" stroke-width="0.5" fill="url(#radialGradient-1)" sketch:type="MSShapeGroup" cx="3.40625" cy="2.34375" r="1.875"></circle>
            </g>
        </g>
    </g>
</svg>