<?xml version="1.0" encoding="UTF-8" standalone="no"?>
<!DOCTYPE svg PUBLIC "-//W3C//DTD SVG 1.1//EN" "http://www.w3.org/Graphics/SVG/1.1/DTD/svg11.dtd">
<svg width="100%" height="100%" viewBox="0 0 32 32" version="1.1" xmlns="http://www.w3.org/2000/svg" xmlns:xlink="http://www.w3.org/1999/xlink" xml:space="preserve" xmlns:serif="http://www.serif.com/" style="fill-rule:evenodd;clip-rule:evenodd;stroke-linecap:round;stroke-linejoin:round;stroke-miterlimit:1.5;">
    <g transform="matrix(1.01273,1.01273,-1.01273,1.01273,13.0917,-14.5119)">
        <g transform="matrix(0.493713,-0.493713,0.493713,0.493713,0.701189,13.6283)">
            <path d="M4.55,24.524C4.361,24.493 4.169,24.477 3.977,24.477C2.033,24.477 0.454,26.056 0.454,28C0.454,29.944 2.033,31.523 3.977,31.523C5.921,31.523 7.5,29.944 7.5,28C7.5,27.808 7.484,27.617 7.453,27.427" style="fill:rgb(173,181,248);fill-opacity:0.4;stroke:rgb(1,0,1);stroke-width:0.75px;"/>
        </g>
        <path d="M15,12L15,20L16.5,25.5L18,20L18,12" style="fill:rgb(114,140,167);stroke:rgb(1,0,1);stroke-width:0.5px;"/>
        <g transform="matrix(0.8,0,0,1,3.3,0)">
            <path d="M16.5,3C17.163,3 17.799,3.211 18.268,3.586C18.737,3.961 19,4.469 19,5C19,6.083 19,7.417 19,8.5C19,9.031 18.737,9.539 18.268,9.914C17.799,10.289 17.163,10.5 16.5,10.5C16.5,10.5 16.5,10.5 16.5,10.5C15.837,10.5 15.201,10.289 14.732,9.914C14.263,9.539 14,9.031 14,8.5C14,7.417 14,6.083 14,5C14,4.469 14.263,3.961 14.732,3.586C15.201,3.211 15.837,3 16.5,3C16.5,3 16.5,3 16.5,3Z" style="fill:rgb(51,48,45);stroke:rgb(1,0,1);stroke-width:0.55px;"/>
        </g>
        <path d="M13.5,10.75C13.5,10.06 14.06,9.5 14.75,9.5C15.776,9.5 17.224,9.5 18.25,9.5C18.94,9.5 19.5,10.06 19.5,10.75C19.5,10.75 19.5,10.75 19.5,10.75C19.5,11.44 18.94,12 18.25,12C17.224,12 15.776,12 14.75,12C14.06,12 13.5,11.44 13.5,10.75C13.5,10.75 13.5,10.75 13.5,10.75Z" style="fill:rgb(51,48,45);stroke:rgb(1,0,1);stroke-width:0.5px;"/>
        <path d="M15,20L18,17L18,20L16.5,25.5L15,20Z" style="fill:rgb(255,191,0);stroke:rgb(1,0,1);stroke-width:0.5px;"/>
        <path d="M16,13L16,20" style="fill:none;stroke:rgb(254,255,254);stroke-width:0.5px;"/>
        <path d="M15.5,8L15.5,5" style="fill:none;stroke:rgb(254,255,254);stroke-width:0.5px;"/>
    </g>
</svg>
