<?xml version="1.0" encoding="UTF-8"?>
<svg xmlns="http://www.w3.org/2000/svg" xmlns:xlink="http://www.w3.org/1999/xlink" viewBox="0 0 50 50" width="50px" height="50px">
<g id="surface25698846">
<path style=" stroke:none;fill-rule:nonzero;fill:rgb(24.705882%,25.490198%,42.745098%);fill-opacity:1;" d="M 6 8 C 3.792969 8 2 9.792969 2 12 L 2 36 C 2 38.207031 3.792969 40 6 40 L 30 40 C 30 45.5 34.5 50 40 50 C 45.5 50 50 45.5 50 40 C 50 37.726562 49.222656 35.628906 47.929688 33.941406 C 47.953125 33.964844 47.976562 33.980469 48 34 L 48 12 C 48 9.792969 46.207031 8 44 8 Z M 16.9375 15 C 17.917969 15 18.65625 15.472656 18.949219 15.992188 C 21.679688 15.992188 20.96875 19.800781 20.554688 21.046875 C 20.710938 21.199219 20.898438 21.621094 20.898438 22.191406 C 20.898438 23.007812 20.125 23.496094 20.125 23.496094 C 19.980469 24.53125 19.246094 25.390625 18.800781 25.605469 C 18.800781 26.257812 18.738281 26.757812 18.800781 27.472656 C 19.578125 29.5625 24.757812 28.972656 25 33 L 9 33 C 9.242188 28.972656 14.421875 29.558594 15.199219 27.472656 C 15.261719 26.753906 15.199219 26.257812 15.199219 25.605469 C 14.875 25.433594 13.96875 24.515625 13.828125 23.492188 C 13.828125 23.492188 13.097656 23.144531 13.054688 22.042969 C 13.035156 21.457031 13.445312 21.046875 13.445312 21.046875 C 12.679688 18.113281 13.011719 15.070312 16.9375 15 Z M 29 18 L 41 18 C 41.554688 18 42 18.449219 42 19 C 42 19.550781 41.554688 20 41 20 L 29 20 C 28.445312 20 28 19.550781 28 19 C 28 18.449219 28.445312 18 29 18 Z M 29 23 L 41 23 C 41.554688 23 42 23.449219 42 24 C 42 24.550781 41.554688 25 41 25 L 29 25 C 28.445312 25 28 24.550781 28 24 C 28 23.449219 28.445312 23 29 23 Z M 29 28 L 41 28 C 41.554688 28 42 28.449219 42 29 C 42 29.550781 41.554688 30 41 30 L 29 30 C 28.445312 30 28 29.550781 28 29 C 28 28.449219 28.445312 28 29 28 Z M 40 32 C 44.398438 32 48 35.601562 48 40 C 48 44.398438 44.398438 48 40 48 C 35.601562 48 32 44.398438 32 40 C 32 35.601562 35.601562 32 40 32 Z M 44.300781 35.402344 L 38.902344 41.699219 L 35.601562 39.199219 L 34.402344 40.800781 L 39.101562 44.402344 L 45.800781 36.699219 Z M 44.300781 35.402344 "/>
</g>
</svg>
