<?xml version="1.0" encoding="UTF-8"?>
<svg xmlns="http://www.w3.org/2000/svg" xmlns:xlink="http://www.w3.org/1999/xlink" viewBox="0 0 50 50" width="50px" height="50px">
<g id="surface25705788">
<path style=" stroke:none;fill-rule:nonzero;fill:rgb(24.705882%,25.490198%,42.745098%);fill-opacity:1;" d="M 12 2 C 9.242188 2 7 4.242188 7 7 C 7 9.757812 9.242188 12 12 12 C 14.757812 12 17 9.757812 17 7 C 17 4.242188 14.757812 2 12 2 Z M 29 2 L 29 4 L 18.3125 4 C 18.746094 4.910156 19 5.925781 19 7 C 19 8.488281 18.542969 9.863281 17.75 11 L 28.5 11 C 30.980469 11 33 13.019531 33 15.5 C 33 17.980469 30.980469 20 28.5 20 L 20 20 L 20 34 L 47 34 C 47.554688 34 48 33.554688 48 33 L 48 5 C 48 4.449219 47.554688 4 47 4 L 31 4 L 31 2 Z M 7.5 13 C 4.46875 13 2 15.46875 2 18.5 L 2 32 C 2 33.105469 2.898438 34 4 34 C 5.101562 34 6 33.105469 6 32 L 6 20.5625 C 6 20.292969 6.230469 20.0625 6.5 20.0625 C 6.769531 20.0625 7 20.292969 7 20.5625 L 7 45.3125 C 7 46.875 7.839844 48 9.40625 48 C 10.886719 48 12 46.851562 12 45.3125 L 12 33.6875 C 12 33.410156 12.222656 33.1875 12.5 33.1875 C 12.777344 33.1875 13 33.410156 13 33.6875 L 13 45.59375 C 13.003906 45.601562 13.027344 45.585938 13.03125 45.59375 C 13.167969 46.976562 14.210938 48 15.59375 48 C 17.15625 48 18 46.875 18 45.3125 L 18 18 L 28.5 18 C 29.882812 18 31 16.882812 31 15.5 C 31 14.117188 29.882812 13 28.5 13 L 15.53125 13 L 12 20 L 8.53125 13 Z M 27.5 36 L 23 45 L 25 45 L 29.5 36 Z M 30.5 36 L 35 45 L 37 45 L 32.5 36 Z M 30.5 36 "/>
</g>
</svg>
