<?xml version="1.0" encoding="UTF-8" standalone="no"?>
<!DOCTYPE svg PUBLIC "-//W3C//DTD SVG 1.1//EN" "http://www.w3.org/Graphics/SVG/1.1/DTD/svg11.dtd">
<svg width="100%" height="100%" viewBox="0 0 2820 400" version="1.1" xmlns="http://www.w3.org/2000/svg" xmlns:xlink="http://www.w3.org/1999/xlink" xml:space="preserve" xmlns:serif="http://www.serif.com/" style="fill-rule:evenodd;clip-rule:evenodd;stroke-linejoin:round;stroke-miterlimit:2;">
    <g transform="matrix(1,0,0,1,-510.498,-880)">
        <g transform="matrix(1,0,0,1,-3890,0)">
            <g transform="matrix(0.904823,0,0,0.904823,591.707,261.522)">
                <g transform="matrix(2.21038,0,0,2.21038,3435.8,460.286)">
                    <path d="M1264.23,160.819L1299.24,160.819L1299.24,188.923L1314.98,188.923L1314.98,204.339L1318.98,204.339L1318.98,188.923L1329.07,188.923L1329.07,211.264L1333.07,211.264L1333.07,188.923L1339.22,188.923L1339.38,223.927L1299.24,223.927L1299.24,258.747L1264.23,258.747L1264.23,223.927L1221.92,223.927L1221.92,188.923L1230.16,188.923L1230.16,211.264L1234.16,211.264L1234.16,188.923L1244.25,188.923L1244.25,204.339L1248.25,204.339L1248.25,188.923L1264.23,188.923L1264.23,147.988C1264.23,145.679 1265.15,143.465 1266.78,141.833C1268.41,140.2 1270.63,139.283 1272.93,139.283C1278.3,139.283 1285.16,139.283 1290.53,139.283C1292.84,139.283 1295.05,140.2 1296.69,141.833C1298.32,143.465 1299.24,145.679 1299.24,147.988L1299.24,156.819L1264.23,156.819" style="fill:rgb(226,140,50);fill-rule:nonzero;"/>
                </g>
                <g transform="matrix(2.21038,0,0,2.21038,3435.8,460.286)">
                    <path d="M1299.24,264.833L1280.65,301L1264.23,264.833L1299.24,264.833ZM1327.99,133.227L1264.23,133.574L1264.23,101L1335.07,101C1339.15,101 1342.62,101.023 1345.49,101.069C1348.36,101.116 1352.18,101.324 1356.95,101.695C1361.72,102.065 1365.84,102.597 1369.31,103.292C1372.79,103.987 1376.77,104.982 1381.26,106.278C1385.75,107.575 1389.6,109.126 1392.79,110.932C1395.98,112.738 1399.27,115.076 1402.65,117.947C1406.03,120.817 1408.74,124.035 1410.78,127.601C1412.82,131.166 1414.51,135.403 1415.85,140.311C1417.19,145.219 1417.86,150.636 1417.86,156.563C1417.86,164.897 1416.77,172.398 1414.6,179.066C1412.42,185.733 1409.6,191.336 1406.12,195.874C1402.65,200.411 1398.21,204.324 1392.79,207.611C1387.37,210.899 1381.91,214.545 1376.4,216.397C1370.89,218.249 1364.48,220.795 1357.16,221.86C1352.29,222.569 1350.51,222.806 1346.19,223.186L1346.03,188.932C1348.19,188.729 1347.59,188.794 1349.87,188.512C1355.1,187.863 1359.5,186.845 1363.06,185.456C1366.63,184.067 1369.94,182.307 1373,180.177C1376.05,178.047 1378.34,175.315 1379.87,171.982C1381.4,168.648 1382.16,164.758 1382.16,160.313C1382.16,156.331 1381.52,152.836 1380.22,149.826C1378.92,146.816 1376.95,144.362 1374.32,142.464C1371.67,140.565 1368.81,138.968 1365.7,137.672C1362.6,136.375 1358.85,135.426 1354.45,134.824C1350.05,134.222 1345.86,133.805 1341.88,133.574C1337.9,133.342 1333.27,133.227 1327.99,133.227Z" style="fill:rgb(63,65,109);fill-rule:nonzero;"/>
                </g>
                <g transform="matrix(591.359,0,0,591.359,6559.89,1119.83)">
                    <rect x="0.098" y="-0.738" width="0.12" height="0.748" style="fill:rgb(63,65,109);fill-rule:nonzero;"/>
                </g>
                <g transform="matrix(591.359,0,0,591.359,6684.53,1119.83)">
                    <path d="M0.447,-0.492L0.567,-0.492L0.567,0.01L0.478,0.01L0.463,-0.033C0.398,-0.004 0.335,0.01 0.274,0.01C0.243,0.01 0.215,0.006 0.192,-0.003C0.169,-0.011 0.151,-0.022 0.138,-0.034C0.125,-0.047 0.114,-0.063 0.106,-0.083C0.099,-0.102 0.094,-0.12 0.091,-0.138C0.089,-0.155 0.088,-0.175 0.088,-0.197L0.088,-0.492L0.208,-0.492L0.208,-0.198C0.208,-0.19 0.208,-0.182 0.209,-0.176C0.21,-0.169 0.212,-0.161 0.216,-0.151C0.22,-0.141 0.226,-0.133 0.233,-0.126C0.24,-0.12 0.251,-0.114 0.265,-0.109C0.279,-0.104 0.296,-0.102 0.316,-0.102C0.355,-0.102 0.399,-0.111 0.447,-0.129L0.447,-0.492Z" style="fill:rgb(63,65,109);fill-rule:nonzero;"/>
                </g>
                <g transform="matrix(591.359,0,0,591.359,7015.71,1119.83)">
                    <path d="M0.394,-0.144C0.393,-0.152 0.387,-0.159 0.375,-0.166C0.363,-0.172 0.348,-0.177 0.33,-0.182C0.311,-0.187 0.291,-0.192 0.269,-0.197C0.246,-0.202 0.224,-0.209 0.202,-0.217C0.18,-0.224 0.16,-0.233 0.142,-0.243C0.124,-0.254 0.109,-0.267 0.098,-0.284C0.086,-0.301 0.081,-0.32 0.081,-0.341C0.081,-0.354 0.083,-0.367 0.088,-0.38C0.092,-0.392 0.101,-0.406 0.113,-0.42C0.126,-0.434 0.141,-0.446 0.16,-0.456C0.179,-0.466 0.204,-0.475 0.236,-0.482C0.267,-0.488 0.303,-0.492 0.343,-0.492C0.366,-0.492 0.387,-0.49 0.406,-0.488C0.425,-0.486 0.438,-0.483 0.446,-0.481C0.454,-0.479 0.466,-0.476 0.482,-0.471L0.502,-0.465L0.469,-0.367L0.45,-0.372C0.408,-0.383 0.367,-0.389 0.327,-0.389C0.306,-0.389 0.289,-0.388 0.273,-0.385C0.258,-0.382 0.247,-0.379 0.239,-0.375C0.231,-0.372 0.224,-0.367 0.219,-0.362C0.214,-0.357 0.211,-0.353 0.21,-0.349C0.209,-0.346 0.208,-0.343 0.208,-0.34C0.208,-0.332 0.214,-0.326 0.225,-0.319C0.237,-0.313 0.252,-0.308 0.271,-0.302C0.289,-0.297 0.309,-0.292 0.332,-0.286C0.354,-0.281 0.376,-0.274 0.399,-0.266C0.421,-0.257 0.442,-0.248 0.46,-0.238C0.479,-0.227 0.494,-0.214 0.506,-0.198C0.517,-0.181 0.523,-0.163 0.523,-0.143C0.523,-0.129 0.521,-0.116 0.517,-0.103C0.513,-0.09 0.505,-0.076 0.493,-0.062C0.482,-0.048 0.467,-0.036 0.449,-0.026C0.431,-0.015 0.406,-0.007 0.375,-0C0.344,0.006 0.309,0.01 0.269,0.01C0.206,0.01 0.144,-0.003 0.082,-0.028L0.063,-0.036L0.1,-0.133L0.118,-0.126C0.176,-0.104 0.228,-0.093 0.273,-0.093C0.315,-0.093 0.345,-0.097 0.365,-0.106C0.384,-0.114 0.394,-0.127 0.394,-0.144Z" style="fill:rgb(63,65,109);fill-rule:nonzero;"/>
                </g>
                <g transform="matrix(622.676,0,0,622.676,4136.46,1119.53)">
                    <path d="M0.453,-0.7C0.517,-0.7 0.581,-0.691 0.645,-0.671L0.665,-0.666L0.625,-0.552L0.606,-0.558C0.547,-0.574 0.493,-0.582 0.445,-0.582C0.397,-0.582 0.356,-0.574 0.322,-0.559C0.288,-0.543 0.271,-0.523 0.271,-0.499C0.271,-0.483 0.279,-0.469 0.294,-0.457C0.309,-0.444 0.328,-0.434 0.353,-0.426C0.377,-0.418 0.403,-0.41 0.432,-0.401C0.462,-0.393 0.491,-0.384 0.52,-0.373C0.549,-0.362 0.576,-0.35 0.6,-0.336C0.624,-0.322 0.644,-0.303 0.659,-0.28C0.674,-0.257 0.682,-0.23 0.682,-0.2C0.682,-0.18 0.678,-0.161 0.672,-0.142C0.665,-0.123 0.654,-0.104 0.638,-0.085C0.622,-0.067 0.603,-0.051 0.579,-0.037C0.556,-0.023 0.526,-0.012 0.49,-0.003C0.455,0.005 0.414,0.01 0.37,0.01C0.325,0.01 0.285,0.006 0.249,-0.003C0.213,-0.011 0.175,-0.023 0.135,-0.039L0.117,-0.045L0.159,-0.164L0.178,-0.156C0.26,-0.127 0.328,-0.112 0.381,-0.112C0.431,-0.112 0.472,-0.12 0.503,-0.135C0.534,-0.151 0.55,-0.171 0.55,-0.196C0.55,-0.21 0.545,-0.222 0.536,-0.233C0.526,-0.244 0.514,-0.254 0.498,-0.261C0.482,-0.269 0.463,-0.276 0.443,-0.283C0.422,-0.289 0.4,-0.296 0.377,-0.302C0.355,-0.308 0.332,-0.315 0.309,-0.322C0.286,-0.329 0.265,-0.338 0.244,-0.348C0.223,-0.358 0.205,-0.369 0.189,-0.382C0.173,-0.395 0.16,-0.41 0.151,-0.429C0.141,-0.448 0.137,-0.47 0.137,-0.493C0.137,-0.552 0.165,-0.601 0.223,-0.641C0.28,-0.68 0.357,-0.7 0.453,-0.7Z" style="fill:rgb(63,65,109);fill-rule:nonzero;"/>
                </g>
                <g transform="matrix(591.359,0,0,591.359,4556.76,1119.83)">
                    <path d="M0.208,-0.289L0.439,-0.492L0.584,-0.492L0.335,-0.271L0.592,0.01L0.444,0.01L0.208,-0.24L0.208,0.01L0.088,0.01L0.088,-0.738L0.208,-0.738L0.208,-0.289Z" style="fill:rgb(63,65,109);fill-rule:nonzero;"/>
                </g>
                <g transform="matrix(591.359,0,0,591.359,4867.42,1119.83)">
                    <path d="M0.343,-0.492C0.371,-0.492 0.396,-0.489 0.418,-0.483C0.441,-0.477 0.459,-0.469 0.473,-0.46C0.488,-0.45 0.5,-0.438 0.511,-0.424C0.522,-0.409 0.53,-0.395 0.535,-0.381C0.541,-0.368 0.545,-0.351 0.548,-0.333C0.551,-0.314 0.553,-0.298 0.554,-0.285C0.554,-0.272 0.555,-0.256 0.555,-0.238L0.555,-0.184L0.192,-0.184C0.199,-0.16 0.218,-0.139 0.25,-0.121C0.282,-0.103 0.324,-0.094 0.376,-0.094C0.413,-0.094 0.45,-0.1 0.488,-0.111L0.508,-0.117L0.532,-0.024L0.515,-0.018C0.46,0 0.402,0.01 0.341,0.01C0.298,0.01 0.26,0.005 0.227,-0.004C0.193,-0.014 0.167,-0.026 0.147,-0.041C0.127,-0.056 0.11,-0.074 0.097,-0.095C0.085,-0.116 0.076,-0.138 0.071,-0.159C0.066,-0.18 0.063,-0.202 0.063,-0.227C0.063,-0.262 0.069,-0.295 0.079,-0.325C0.089,-0.355 0.103,-0.38 0.121,-0.4C0.139,-0.42 0.159,-0.438 0.183,-0.452C0.207,-0.466 0.233,-0.476 0.259,-0.482C0.286,-0.489 0.314,-0.492 0.343,-0.492ZM0.323,-0.382C0.285,-0.382 0.255,-0.373 0.233,-0.354C0.21,-0.336 0.197,-0.312 0.193,-0.284L0.437,-0.284C0.434,-0.319 0.423,-0.344 0.403,-0.36C0.384,-0.375 0.357,-0.382 0.323,-0.382Z" style="fill:rgb(63,65,109);fill-rule:nonzero;"/>
                </g>
                <g transform="matrix(591.359,0,0,591.359,5208.71,1119.83)">
                    <path d="M0.409,-0.009C0.361,0.004 0.321,0.01 0.289,0.01C0.258,0.01 0.232,0.007 0.209,0C0.187,-0.006 0.169,-0.014 0.157,-0.023C0.144,-0.033 0.134,-0.045 0.127,-0.06C0.119,-0.075 0.115,-0.09 0.112,-0.104C0.11,-0.119 0.109,-0.136 0.109,-0.155L0.109,-0.389L0.034,-0.389L0.034,-0.492L0.109,-0.492L0.109,-0.621L0.229,-0.621L0.229,-0.492L0.406,-0.492L0.406,-0.389L0.229,-0.389L0.229,-0.163C0.229,-0.155 0.23,-0.147 0.233,-0.14C0.236,-0.132 0.24,-0.125 0.247,-0.117C0.253,-0.11 0.262,-0.104 0.274,-0.099C0.287,-0.095 0.301,-0.093 0.318,-0.093C0.327,-0.093 0.351,-0.096 0.39,-0.103L0.409,-0.106L0.428,-0.014L0.409,-0.009Z" style="fill:rgb(63,65,109);fill-rule:nonzero;"/>
                </g>
                <g transform="matrix(591.359,0,0,591.359,5457.6,1119.83)">
                    <path d="M0.063,-0.231C0.063,-0.269 0.069,-0.303 0.079,-0.333C0.09,-0.363 0.104,-0.388 0.121,-0.407C0.139,-0.427 0.16,-0.443 0.185,-0.456C0.209,-0.469 0.235,-0.478 0.262,-0.483C0.289,-0.489 0.318,-0.491 0.348,-0.491C0.403,-0.491 0.454,-0.481 0.5,-0.461L0.518,-0.454L0.486,-0.358L0.467,-0.365C0.433,-0.376 0.398,-0.382 0.36,-0.382C0.336,-0.382 0.314,-0.38 0.294,-0.376C0.274,-0.372 0.255,-0.365 0.237,-0.355C0.22,-0.346 0.206,-0.332 0.196,-0.313C0.186,-0.294 0.181,-0.272 0.181,-0.246C0.181,-0.146 0.244,-0.096 0.371,-0.096C0.403,-0.096 0.433,-0.101 0.461,-0.111L0.48,-0.118L0.513,-0.025L0.495,-0.019C0.446,0 0.393,0.01 0.337,0.01C0.308,0.01 0.281,0.007 0.256,0.003C0.23,-0.002 0.206,-0.01 0.182,-0.021C0.158,-0.033 0.137,-0.047 0.12,-0.065C0.103,-0.083 0.089,-0.106 0.079,-0.134C0.069,-0.163 0.063,-0.195 0.063,-0.231Z" style="fill:rgb(63,65,109);fill-rule:nonzero;"/>
                </g>
                <g transform="matrix(591.359,0,0,591.359,5756.64,1119.83)">
                    <path d="M0.34,-0.38C0.302,-0.38 0.26,-0.371 0.213,-0.353L0.213,0.01L0.093,0.01L0.093,-0.738L0.213,-0.738L0.213,-0.458C0.271,-0.48 0.326,-0.491 0.376,-0.491C0.402,-0.491 0.425,-0.488 0.445,-0.483C0.465,-0.477 0.482,-0.47 0.495,-0.461C0.508,-0.453 0.519,-0.442 0.528,-0.429C0.538,-0.416 0.545,-0.403 0.55,-0.391C0.555,-0.379 0.559,-0.366 0.561,-0.35C0.564,-0.334 0.566,-0.321 0.566,-0.31C0.567,-0.3 0.567,-0.288 0.567,-0.274L0.567,0.01L0.448,0.01L0.448,-0.282C0.448,-0.347 0.412,-0.38 0.34,-0.38Z" style="fill:rgb(63,65,109);fill-rule:nonzero;"/>
                </g>
            </g>
        </g>
    </g>
</svg>
