<svg xmlns="http://www.w3.org/2000/svg" viewBox="0 0 26 26" enable-background="new 0 0 26 26" width="26" height="26">
    <path d="M 4 0 L 4 1 C 4 1.551 4.449 2 5 2 L 6 2 L 6 3 C 6 3.551 6.449 4 7 4 L 7.09375 4 C 7.2746849 10.069698 11.375 12.027855 11.375 13 C 11.375 13.959431 7.2755363 15.922572 7.09375 22 L 7 22 C 6.449 22 6 22.449 6 23 L 6 24 L 5 24 C 4.449 24 4 24.449 4 25 L 4 26 L 22 26 L 22 25 C 22 24.449 21.551 24 21 24 L 20 24 L 20 23 C 20 22.449 19.551 22 19 22 L 18.90625 22 C 18.72194 15.929408 14.5625 13.973123 14.5625 13 C 14.5625 12.040569 18.721982 10.076451 18.90625 4 L 19 4 C 19.551 4 20 3.551 20 3 L 20 2 L 21 2 C 21.551 2 22 1.551 22 1 L 22 0 L 4 0 z M 8.09375 4 L 17.90625 4 C 17.773393 7.9154333 15.862388 9.9408155 14.6875 11.15625 C 14.0345 11.83325 13.5625 12.32 13.5625 13 C 13.5625 13.686 14.0295 14.193 14.6875 14.875 C 15.860457 16.090435 17.773717 18.096328 17.90625 22 L 16.71875 22 C 16.729421 21.95879 16.75 21.9218 16.75 21.875 C 16.75 19.732 13 18.09375 13 18.09375 C 13 18.09375 9.25 19.39725 9.25 21.90625 C 9.25 21.942542 9.2748958 21.967518 9.28125 22 L 8.09375 22 C 8.2248474 18.080903 10.121808 16.059185 11.28125 14.84375 C 11.92625 14.16775 12.375 13.677 12.375 13 C 12.375 12.319 11.92925 11.83725 11.28125 11.15625 C 10.123739 9.9398501 8.2236874 7.9064371 8.09375 4 z M 13 8 C 11.815 8 10.65625 8.1455 10.65625 8.6875 C 10.65625 10.0305 13 11.375 13 11.375 C 13 11.375 15.34375 10.22925 15.34375 8.65625 C 15.34375 8.10925 14.185 8 13 8 z"/>
</svg>