<svg width="25" height="24" viewBox="0 0 25 24" fill="none" xmlns="http://www.w3.org/2000/svg">
<g clip-path="url(#clip0_49760_93687)">
<path d="M1.97461 16.9873C2.82103 16.0703 6.6593 16.101 8.1671 16.6075M17.3746 17.5168C21.3746 17.6223 22.9569 16.5274 22.9569 16.5274" stroke="#009AD9"/>
<path d="M19.5 10C19.5 7.23858 21.7386 5 24.5 5C21.7386 5 19.5 2.76142 19.5 0C19.5 2.76142 17.2614 5 14.5 5C17.2614 5 19.5 7.23858 19.5 10Z" fill="#0E416C"/>
<path d="M13.5 5H3.5C2.94772 5 2.5 5.44772 2.5 6V20C2.5 20.5523 2.94772 21 3.5 21H21.5C22.0523 21 22.5 20.5523 22.5 20V9H23.5V20C23.5 21.0357 22.7128 21.887 21.7041 21.9893L21.5 22H3.5L3.2959 21.9893C2.35435 21.8938 1.6062 21.1457 1.51074 20.2041L1.5 20V6C1.5 4.89543 2.39543 4 3.5 4H13.5V5Z" fill="#0E416C"/>
<path d="M7.5 18.9989V12.6837V11.5469L12.5 7L17.5 11.5469V12.6837V18.9989L16.549 18.9906V15.266L13.5983 15.2848L13.5796 19L7.5 18.9989Z" fill="#009AD9"/>
<path d="M7.88672 9V7.39026H9.5" stroke="#009AD9" stroke-width="0.75"/>
</g>
<defs>
<clipPath id="clip0_49760_93687">
<rect width="24" height="24" fill="white" transform="translate(0.5)"/>
</clipPath>
</defs>
</svg>
