<svg id="Layer_1" data-name="Layer 1" xmlns="http://www.w3.org/2000/svg" viewBox="0 0 1250 1250"><title>Icon - Colored</title><path d="M1066.85,712.56,871.52,202.05,375,179.75,522.48,787.42ZM452.7,238.73l388.48,17L992.64,658.87l-83.51,10.19L789,339.1l-311.12-6Z" fill="none"/><polygon points="371.94 1042.85 173.15 227.08 72.88 222.78 282.31 1193.17 1116.04 980.78 1081.97 891.11 371.94 1042.85" fill="#31578c"/><polygon points="909.13 669.06 992.64 658.87 841.18 255.75 452.7 238.73 477.86 333.15 788.98 339.1 909.13 669.06" fill="#31578c"/><path d="M1194.12,810.28,924.41,111.58,214.23,56.83,429.69,943ZM871.52,202.05l195.33,510.51L522.48,787.42,375,179.75Z" fill="#4fbfd3"/></svg>