<?xml version="1.0" encoding="UTF-8"?>
<svg xmlns="http://www.w3.org/2000/svg" xmlns:xlink="http://www.w3.org/1999/xlink" width="32px" height="32px" viewBox="0 0 32 32" version="1.1">
<g id="surface58528">
<path style=" stroke:none;fill-rule:nonzero;fill:rgb(83.921569%,89.019608%,92.941176%);fill-opacity:1;" d="M 8.800781 24.601562 C 4.058594 24.601562 0.199219 20.742188 0.199219 16 C 0.199219 11.257812 4.058594 7.398438 8.800781 7.398438 L 23.199219 7.398438 C 27.941406 7.398438 31.800781 11.257812 31.800781 16 C 31.800781 20.742188 27.941406 24.601562 23.199219 24.601562 Z M 8.800781 24.601562 "/>
<path style=" stroke:none;fill-rule:nonzero;fill:rgb(83.921569%,89.019608%,92.941176%);fill-opacity:1;" d="M 23.199219 7.601562 C 27.832031 7.601562 31.601562 11.367188 31.601562 16 C 31.601562 20.632812 27.832031 24.398438 23.199219 24.398438 L 8.800781 24.398438 C 4.167969 24.398438 0.398438 20.632812 0.398438 16 C 0.398438 11.367188 4.167969 7.601562 8.800781 7.601562 L 23.199219 7.601562 M 23.199219 7.199219 L 8.800781 7.199219 C 3.941406 7.199219 0 11.140625 0 16 C 0 20.859375 3.941406 24.800781 8.800781 24.800781 L 23.199219 24.800781 C 28.058594 24.800781 32 20.859375 32 16 C 32 11.140625 28.058594 7.199219 23.199219 7.199219 Z M 23.199219 7.199219 "/>
<path style=" stroke:none;fill-rule:nonzero;fill:rgb(100%,100%,100%);fill-opacity:1;" d="M 8.800781 9.601562 C 5.265625 9.601562 2.398438 12.464844 2.398438 16 C 2.398438 19.535156 5.265625 22.398438 8.800781 22.398438 C 12.335938 22.398438 15.199219 19.535156 15.199219 16 C 15.199219 12.464844 12.335938 9.601562 8.800781 9.601562 Z M 8.800781 9.601562 "/>
</g>
</svg>
