<?xml version="1.0" encoding="UTF-8"?>
<svg xmlns="http://www.w3.org/2000/svg" xmlns:xlink="http://www.w3.org/1999/xlink" width="32px" height="32px" viewBox="0 0 32 32" version="1.1">
<g id="surface58334">
<path style=" stroke:none;fill-rule:nonzero;fill:rgb(29.803922%,75.294118%,83.137255%);fill-opacity:1;" d="M 9.160156 24.171875 C 4.65625 24.171875 0.988281 20.503906 0.988281 16 C 0.988281 11.496094 4.65625 7.828125 9.160156 7.828125 L 22.839844 7.828125 C 27.34375 7.828125 31.011719 11.496094 31.011719 16 C 31.011719 20.503906 27.34375 24.171875 22.839844 24.171875 Z M 9.160156 24.171875 "/>
<path style=" stroke:none;fill-rule:nonzero;fill:rgb(29.803922%,75.294118%,83.137255%);fill-opacity:1;" d="M 22.839844 8.019531 C 27.238281 8.019531 30.820312 11.601562 30.820312 16 C 30.820312 20.398438 27.238281 23.980469 22.839844 23.980469 L 9.160156 23.980469 C 4.761719 23.980469 1.179688 20.398438 1.179688 16 C 1.179688 11.601562 4.761719 8.019531 9.160156 8.019531 L 22.839844 8.019531 M 22.839844 7.640625 L 9.160156 7.640625 C 4.542969 7.640625 0.800781 11.382812 0.800781 16 C 0.800781 20.617188 4.542969 24.359375 9.160156 24.359375 L 22.839844 24.359375 C 27.457031 24.359375 31.199219 20.617188 31.199219 16 C 31.199219 11.382812 27.457031 7.640625 22.839844 7.640625 Z M 22.839844 7.640625 "/>
<path style=" stroke:none;fill-rule:nonzero;fill:rgb(100%,100%,100%);fill-opacity:1;" d="M 22.839844 22.078125 C 26.199219 22.078125 28.921875 19.359375 28.921875 16 C 28.921875 12.640625 26.199219 9.921875 22.839844 9.921875 C 19.480469 9.921875 16.761719 12.640625 16.761719 16 C 16.761719 19.359375 19.480469 22.078125 22.839844 22.078125 Z M 22.839844 22.078125 "/>
</g>
</svg>
