<?xml version="1.0" encoding="UTF-8"?>
<svg xmlns="http://www.w3.org/2000/svg" xmlns:xlink="http://www.w3.org/1999/xlink" width="32px" height="32px" viewBox="0 0 32 32" version="1.1">
<g id="surface56258">
<path style=" stroke:none;fill-rule:nonzero;fill:rgb(17.647059%,34.509804%,55.686275%);fill-opacity:1;" d="M 9.644531 28.601562 L 0.554688 24.433594 L 9.0625 21.726562 L 4.421875 9.355469 L 12.925781 15.539062 L 15.625 3.976562 L 19.082031 15.5 L 29.925781 9.300781 L 23.71875 21.714844 L 31.511719 24.441406 L 23.949219 28.601562 Z M 9.644531 28.601562 "/>
<path style=" stroke:none;fill-rule:nonzero;fill:rgb(17.647059%,34.509804%,55.686275%);fill-opacity:1;" d="M 15.648438 4.753906 L 18.816406 15.316406 L 18.960938 15.796875 L 19.398438 15.546875 L 29.453125 9.804688 L 23.640625 21.421875 L 23.4375 21.828125 L 23.867188 21.976562 L 31.023438 24.480469 L 23.898438 28.398438 L 9.6875 28.398438 L 1.105469 24.46875 L 8.921875 21.980469 L 9.324219 21.855469 L 9.175781 21.460938 L 4.84375 9.90625 L 12.566406 15.523438 L 13.054688 15.878906 L 13.191406 15.292969 L 15.648438 4.753906 M 15.601562 3.199219 L 12.800781 15.199219 L 4 8.800781 L 8.800781 21.601562 L 0 24.398438 L 9.601562 28.800781 L 24 28.800781 L 32 24.398438 L 24 21.601562 L 30.398438 8.800781 L 19.199219 15.199219 Z M 15.601562 3.199219 "/>
<path style=" stroke:none;fill-rule:nonzero;fill:rgb(29.803922%,75.294118%,83.137255%);fill-opacity:1;" d="M 14 28.398438 L 10.398438 25.601562 L 13.601562 25.601562 L 12.800781 20.800781 L 16 23.199219 L 20.800781 20 L 18.398438 25.601562 L 22.398438 25.601562 L 18.800781 28.398438 Z M 14 28.398438 "/>
</g>
</svg>
