<?xml version="1.0" encoding="UTF-8"?>
<svg xmlns="http://www.w3.org/2000/svg" xmlns:xlink="http://www.w3.org/1999/xlink" width="32px" height="32px" viewBox="0 0 32 32" version="1.1">
<g id="surface71443">
<path style=" stroke:none;fill-rule:nonzero;fill:rgb(17.647059%,34.509804%,55.686275%);fill-opacity:1;" d="M 1.238281 30.273438 C 1.546875 28.910156 2.386719 25.835938 3.253906 24.96875 L 7.3125 20.90625 L 11.09375 24.683594 L 7.03125 28.746094 C 6.109375 29.667969 3.070312 30.472656 1.730469 30.761719 Z M 1.238281 30.273438 "/>
<path style=" stroke:none;fill-rule:nonzero;fill:rgb(17.647059%,34.509804%,55.686275%);fill-opacity:1;" d="M 7.3125 21.472656 L 10.527344 24.6875 L 6.75 28.460938 C 6.011719 29.199219 3.519531 29.953125 1.859375 30.328125 L 1.675781 30.144531 C 2.074219 28.457031 2.84375 25.945312 3.539062 25.25 L 7.3125 21.472656 M 7.3125 20.34375 C 7.3125 20.34375 4.175781 23.484375 2.972656 24.6875 C 1.769531 25.886719 0.800781 30.398438 0.800781 30.398438 L 1.601562 31.199219 C 1.601562 31.199219 6.039062 30.304688 7.3125 29.027344 C 8.589844 27.753906 11.65625 24.6875 11.65625 24.6875 Z M 7.3125 20.34375 "/>
<path style=" stroke:none;fill-rule:nonzero;fill:rgb(17.647059%,34.509804%,55.686275%);fill-opacity:1;" d="M 16.234375 24 L 12 28.234375 L 3.765625 20 L 8 15.765625 Z M 16.234375 24 "/>
<path style=" stroke:none;fill-rule:nonzero;fill:rgb(17.647059%,34.509804%,55.686275%);fill-opacity:1;" d="M 8 16.332031 L 15.667969 24 L 12 27.667969 L 4.332031 20 L 8 16.332031 M 8 15.199219 L 3.199219 20 L 12 28.800781 L 16.800781 24 Z M 8 15.199219 "/>
<path style="fill-rule:nonzero;fill:rgb(17.647059%,34.509804%,55.686275%);fill-opacity:1;stroke-width:1;stroke-linecap:butt;stroke-linejoin:miter;stroke:rgb(17.647059%,34.509804%,55.686275%);stroke-opacity:1;stroke-miterlimit:10;" d="M 43 129 L 64.5 107.5 M 30.108398 120.391602 L 51.608398 98.891602 M 51.608398 141.891602 L 73.108398 120.391602 " transform="matrix(0.186047,0,0,0.186047,0,0)"/>
<path style=" stroke:none;fill-rule:nonzero;fill:rgb(100%,100%,100%);fill-opacity:1;" d="M 17.925781 26.78125 C 17.117188 26.78125 16.359375 26.46875 15.789062 25.894531 L 6.105469 16.214844 C 5.53125 15.640625 5.21875 14.882812 5.21875 14.074219 C 5.21875 13.265625 5.53125 12.507812 6.105469 11.9375 L 15.972656 2.066406 C 16.542969 1.496094 17.300781 1.179688 18.109375 1.179688 C 18.917969 1.179688 19.675781 1.496094 20.246094 2.066406 L 29.933594 11.753906 C 31.113281 12.929688 31.113281 14.847656 29.933594 16.027344 L 20.0625 25.898438 C 19.492188 26.46875 18.734375 26.78125 17.925781 26.78125 Z M 17.925781 26.78125 "/>
<path style=" stroke:none;fill-rule:nonzero;fill:rgb(17.647059%,34.509804%,55.686275%);fill-opacity:1;" d="M 18.109375 1.582031 C 18.8125 1.582031 19.46875 1.855469 19.964844 2.351562 L 29.648438 12.035156 C 30.671875 13.058594 30.671875 14.722656 29.648438 15.746094 L 19.78125 25.613281 C 19.285156 26.109375 18.625 26.382812 17.925781 26.382812 C 17.222656 26.382812 16.566406 26.109375 16.070312 25.613281 L 6.386719 15.929688 C 5.890625 15.433594 5.617188 14.773438 5.617188 14.074219 C 5.617188 13.375 5.890625 12.714844 6.386719 12.21875 L 16.253906 2.351562 C 16.75 1.855469 17.410156 1.582031 18.109375 1.582031 M 18.109375 0.78125 C 17.234375 0.78125 16.359375 1.117188 15.691406 1.785156 L 5.820312 11.652344 C 4.484375 12.988281 4.484375 15.160156 5.820312 16.496094 L 15.503906 26.179688 C 16.171875 26.847656 17.046875 27.179688 17.925781 27.179688 C 18.800781 27.179688 19.675781 26.847656 20.347656 26.179688 L 30.214844 16.308594 C 31.554688 14.972656 31.554688 12.804688 30.214844 11.46875 L 20.53125 1.785156 C 19.863281 1.117188 18.988281 0.78125 18.109375 0.78125 Z M 18.109375 0.78125 "/>
<path style=" stroke:none;fill-rule:nonzero;fill:rgb(29.803922%,75.294118%,83.137255%);fill-opacity:1;" d="M 16 7.199219 L 24.800781 16 L 19.199219 21.597656 L 10.402344 12.800781 Z M 16 7.199219 "/>
</g>
</svg>
