<?xml version="1.0" encoding="UTF-8"?>
<svg xmlns="http://www.w3.org/2000/svg" xmlns:xlink="http://www.w3.org/1999/xlink" width="32px" height="32px" viewBox="0 0 32 32" version="1.1">
<g id="surface71001">
<path style=" stroke:none;fill-rule:nonzero;fill:rgb(29.803922%,75.294118%,83.137255%);fill-opacity:1;" d="M 13.199219 26.800781 L 7.601562 26.800781 C 3.832031 26.800781 1.199219 24.496094 1.199219 21.199219 L 1.199219 11.601562 C 1.199219 8.070312 4.070312 5.199219 7.601562 5.199219 L 10 5.199219 L 10 8.398438 L 7.601562 8.398438 C 5.835938 8.398438 4.398438 9.835938 4.398438 11.601562 L 4.398438 20.398438 C 4.398438 22.164062 5.835938 23.601562 7.601562 23.601562 L 13.199219 23.601562 L 13.199219 20.839844 L 18.566406 25.199219 L 13.199219 29.558594 Z M 22 26.800781 L 22 23.601562 L 24.398438 23.601562 C 26.164062 23.601562 27.601562 22.164062 27.601562 20.398438 L 27.601562 11.601562 C 27.601562 9.835938 26.164062 8.398438 24.398438 8.398438 L 18.800781 8.398438 L 18.800781 11.160156 L 13.433594 6.800781 L 18.800781 2.441406 L 18.800781 5.199219 L 24.398438 5.199219 C 27.929688 5.199219 30.800781 8.070312 30.800781 11.601562 L 30.800781 20.398438 C 30.800781 23.929688 27.929688 26.800781 24.398438 26.800781 Z M 22 26.800781 "/>
<path style=" stroke:none;fill-rule:nonzero;fill:rgb(29.803922%,75.294118%,83.137255%);fill-opacity:1;" d="M 18.398438 3.28125 L 18.398438 5.601562 L 24.398438 5.601562 C 27.707031 5.601562 30.398438 8.292969 30.398438 11.601562 L 30.398438 20.398438 C 30.398438 23.707031 27.707031 26.398438 24.398438 26.398438 L 22.398438 26.398438 L 22.398438 24 L 24.398438 24 C 26.386719 24 28 22.386719 28 20.398438 L 28 11.601562 C 28 9.613281 26.386719 8 24.398438 8 L 18.398438 8 L 18.398438 10.320312 L 14.070312 6.800781 L 18.398438 3.28125 M 9.601562 5.601562 L 9.601562 8 L 7.601562 8 C 5.613281 8 4 9.613281 4 11.601562 L 4 20.398438 C 4 22.386719 5.613281 24 7.601562 24 L 13.601562 24 L 13.601562 21.679688 L 17.929688 25.199219 L 13.601562 28.71875 L 13.601562 26.398438 L 7.601562 26.398438 C 4.066406 26.398438 1.601562 24.261719 1.601562 21.199219 L 1.601562 11.601562 C 1.601562 8.292969 4.292969 5.601562 7.601562 5.601562 L 9.601562 5.601562 M 19.199219 1.601562 L 12.800781 6.800781 L 19.199219 12 L 19.199219 8.800781 L 24.398438 8.800781 C 25.945312 8.800781 27.199219 10.054688 27.199219 11.601562 L 27.199219 20.398438 C 27.199219 21.945312 25.945312 23.199219 24.398438 23.199219 L 21.601562 23.199219 L 21.601562 27.199219 L 24.398438 27.199219 C 28.148438 27.199219 31.199219 24.148438 31.199219 20.398438 L 31.199219 11.601562 C 31.199219 7.851562 28.148438 4.800781 24.398438 4.800781 L 19.199219 4.800781 Z M 10.398438 4.800781 L 7.601562 4.800781 C 3.851562 4.800781 0.800781 7.851562 0.800781 11.601562 L 0.800781 21.199219 C 0.800781 24.949219 3.851562 27.199219 7.601562 27.199219 L 12.800781 27.199219 L 12.800781 30.398438 L 19.199219 25.199219 L 12.800781 20 L 12.800781 23.199219 L 7.601562 23.199219 C 6.054688 23.199219 4.800781 21.945312 4.800781 20.398438 L 4.800781 11.601562 C 4.800781 10.054688 6.054688 8.800781 7.601562 8.800781 L 10.398438 8.800781 Z M 10.398438 4.800781 "/>
</g>
</svg>
