<?xml version="1.0" encoding="UTF-8" standalone="no"?>
<svg
   width="32"
   height="32"
   viewBox="0 0 32 32"
   fill="none"
   version="1.1"
   id="svg16"
   xmlns="http://www.w3.org/2000/svg"
   xmlns:svg="http://www.w3.org/2000/svg">
  <defs
     id="defs20" />
  <path
     d="M 25,7 H 7 v 4 h 18 z"
     fill="#dcedf9"
     id="path2" />
  <path
     fill-rule="evenodd"
     clip-rule="evenodd"
     d="M 21,6 H 6 V 26 H 21 V 12 h 5 V 6 Z m 0,1 v 4 h 4 V 7 Z m -1,4 V 7 H 7 v 4 z M 7,12 V 25 H 20 V 12 Z"
     fill="#0e416c"
     id="path4" />
  <path
     fill-rule="evenodd"
     clip-rule="evenodd"
     d="m 8.5,14 c 0,-0.27614 0.22386,-0.5 0.5,-0.5 h 9 c 0.2761,0 0.5,0.22386 0.5,0.5 0,0.2761 -0.2239,0.5 -0.5,0.5 H 9 C 8.72386,14.5 8.5,14.2761 8.5,14 Z"
     fill="#0e416c"
     id="path6" />
  <path
     fill-rule="evenodd"
     clip-rule="evenodd"
     d="m 8.5,17 c 0,-0.2761 0.22386,-0.5 0.5,-0.5 h 9 c 0.2761,0 0.5,0.2239 0.5,0.5 0,0.2761 -0.2239,0.5 -0.5,0.5 H 9 C 8.72386,17.5 8.5,17.2761 8.5,17 Z"
     fill="#0e416c"
     id="path8" />
  <path
     fill-rule="evenodd"
     clip-rule="evenodd"
     d="m 8.5,20 c 0,-0.2761 0.22386,-0.5 0.5,-0.5 h 9 c 0.2761,0 0.5,0.2239 0.5,0.5 0,0.2761 -0.2239,0.5 -0.5,0.5 H 9 C 8.72386,20.5 8.5,20.2761 8.5,20 Z"
     fill="#0e416c"
     id="path10" />
  <path
     fill-rule="evenodd"
     clip-rule="evenodd"
     d="m 8.5,23 c 0,-0.2761 0.22386,-0.5 0.5,-0.5 h 9 c 0.2761,0 0.5,0.2239 0.5,0.5 0,0.2761 -0.2239,0.5 -0.5,0.5 H 9 C 8.72386,23.5 8.5,23.2761 8.5,23 Z"
     fill="#0e416c"
     id="path12" />
  <path
     d="m 22.8326,9.17255 0.1747,0.18301 0.181,-0.17688 0.7727,-0.75554 c 0.0418,-0.04086 0.1086,-0.04085 0.1504,10e-6 l 0.1732,-0.17719 -0.1732,0.17719 c 0.0431,0.04217 0.0431,0.11158 0,0.15376 l -0.9151,0.8947 C 23.0976,9.56815 22.9392,9.56635 22.8427,9.46759 l -0.8679,-0.8881 c -0.0407,-0.04167 -0.04,-0.10845 0.0017,-0.14919 0.042,-0.04108 0.1095,-0.03992 0.1501,0.00259 z"
     stroke="#009ad9"
     stroke-width="0.5"
     id="path14" />
</svg>
