<svg width="24" height="24" viewBox="0 0 24 24" fill="none" xmlns="http://www.w3.org/2000/svg">
<path fill-rule="evenodd" clip-rule="evenodd" d="M11.7319 10.1294C11.0358 9.47115 10.1153 8.6483 9.54659 8.32871C8.53638 7.76111 7.38099 8.53829 8.84001 9.854C10.2343 11.1696 11.5808 12.3848 12.1018 13.5259C12.6227 14.6669 13.1604 15.9776 9.40134 15.9072C7.98792 16.0749 8.28462 17.7085 10.1849 17.4835C12.7461 17.1803 12.773 19.6607 15.2736 19.0924C15.2736 19.0924 16.9844 19.9294 17.3 20.8438L20.9 17.6406C20.9 17.6406 20.5 17.6406 19.5 15.6406C18.5 13.6406 19.5 14.6406 18.5 12.6406C17.5 10.6406 17.5 10.6406 16.5 9.64062C15.5 8.64062 15.5 9.64062 15.5 9.64062C15.5 9.64062 15.6614 9.28905 14.5 8.94063C13.5 8.64062 12.5 9.64062 12.5 9.64062" fill="white"/>
<path d="M20.5625 17.4688C19.0637 16.0961 18.4106 12.2112 17.4346 10.6044C16.4586 8.99744 16.1649 8.79305 15.125 9.23287" stroke="white" stroke-width="1.25" stroke-linecap="round" stroke-linejoin="round"/>
<path d="M15.875 10.4375C15.875 10.4375 14.7353 7.67252 13.1094 9.22114" stroke="white" stroke-width="1.25" stroke-linecap="round" stroke-linejoin="round"/>
<path d="M14.1406 10.1094C13.5208 9.46361 12.8496 8.62325 11.6094 10.0364" stroke="white" stroke-width="1.25" stroke-linecap="round" stroke-linejoin="round"/>
<path d="M12.5367 10.9116C12.5367 10.9116 10.4162 8.75581 9.40596 8.18808C8.39576 7.62048 7.24035 8.39767 8.66702 9.71337C10.0937 11.0291 11.4402 12.244 11.9612 13.3852C12.4821 14.5263 13.0197 15.837 9.26068 15.7667C7.8473 15.9343 8.144 17.5679 10.0443 17.3428C12.6055 17.0395 12.6325 19.5201 15.1329 18.9518C15.1329 18.9518 16.8438 19.7887 16.9062 20.7031" stroke="white" stroke-width="1.25" stroke-linecap="round" stroke-linejoin="round"/>
<path d="M20.7031 17.5625C19.2043 16.1898 18.5511 12.3049 17.5752 10.6981C16.5992 9.09113 16.3055 8.88687 15.2656 9.32656" stroke="#0E416C" stroke-width="0.75" stroke-linecap="round" stroke-linejoin="round"/>
<path d="M16.0156 10.5781C16.0156 10.5781 14.876 7.81303 13.25 9.36186" stroke="#0E416C" stroke-width="0.75" stroke-linecap="round" stroke-linejoin="round"/>
<path d="M14.2812 10.25C13.6614 9.60424 12.9902 8.76388 11.75 10.177" stroke="#0E416C" stroke-width="0.75" stroke-linecap="round" stroke-linejoin="round"/>
<path d="M12.6774 11.0522C12.6774 11.0522 10.5568 8.89643 9.54657 8.32871C8.53636 7.76111 7.38098 8.5383 8.80765 9.854C10.2343 11.1696 11.5808 12.3848 12.1018 13.5259C12.6227 14.6669 13.1604 15.9776 9.40133 15.9072C7.98791 16.0749 8.28461 17.7085 10.1849 17.4835C12.7461 17.1803 12.773 19.6607 15.2735 19.0924C15.2735 19.0924 16.9844 19.9294 17.0469 20.8438" stroke="#0E416C" stroke-width="0.75" stroke-linecap="round" stroke-linejoin="round"/>
</svg>
