<?xml version="1.0" encoding="UTF-8" standalone="no"?>
<svg
   width="32"
   height="32"
   viewBox="0 0 32 32"
   fill="none"
   version="1.1"
   id="svg14"
   xmlns="http://www.w3.org/2000/svg"
   xmlns:svg="http://www.w3.org/2000/svg">
  <defs
     id="defs18" />
  <path
     d="m 6,18 c 0,-0.5523 0.44772,-1 1,-1 h 6 c 0.55228,0 1,0.4477 1,1 v 6 c 0,0.5523 -0.44772,1 -1,1 H 7 C 6.44772,25 6,24.5523 6,24 Z"
     fill="#dcedf9"
     id="path2" />
  <path
     d="m 6,8.00049 c 0,-0.55229 0.44772,-1 1,-1 h 6 c 0.55228,0 1,0.44771 1,1 v 6.00001 c 0,0.5523 -0.44772,1 -1,1 H 7 c -0.55228,0 -1,-0.4477 -1,-1 z"
     fill="#dcedf9"
     id="path4" />
  <path
     d="m 25.699,15.3672 c 0.3842,0.3894 0.3842,1.0154 0,1.4048 l -7.9872,8.0944 C 17.0838,25.5029 16,25.0582 16,24.1641 V 7.97515 c 0,-0.89412 1.0838,-1.33882 1.7118,-0.70237 z"
     fill="#dcedf9"
     id="path6" />
  <path
     fill-rule="evenodd"
     clip-rule="evenodd"
     d="M 13,17.9999 H 7 v 6 h 6 z m -6,-1 c -0.55228,0 -1,0.4477 -1,1 v 6 c 0,0.5523 0.44772,1 1,1 h 6 c 0.55228,0 1,-0.4477 1,-1 v -6 c 0,-0.5523 -0.44772,-1 -1,-1 z"
     fill="#0e416c"
     id="path8" />
  <path
     fill-rule="evenodd"
     clip-rule="evenodd"
     d="M 13,8.00027 H 7 v 6.00003 h 6 z m -6,-1 c -0.55228,0 -1,0.44772 -1,1 v 6.00003 c 0,0.5523 0.44772,1 1,1 h 6 c 0.55228,0 1,-0.4477 1,-1 V 8.00027 c 0,-0.55228 -0.44772,-1 -1,-1 z"
     fill="#0e416c"
     id="path10" />
  <path
     fill-rule="evenodd"
     clip-rule="evenodd"
     d="M 17,24.1641 24.9872,16.0696 17,7.97515 Z m 8.699,-7.3921 c 0.3842,-0.3894 0.3842,-1.0154 0,-1.4048 L 17.7118,7.27278 C 17.0838,6.63633 16,7.08103 16,7.97515 V 24.1641 c 0,0.8941 1.0838,1.3388 1.7118,0.7023 z"
     fill="#0e416c"
     id="path12" />
</svg>
