<?xml version="1.0" encoding="UTF-8" standalone="no"?>
<svg
   width="24"
   height="24"
   fill="currentColor"
   class="mi-solid mi-arrow-right"
   viewBox="0 0 24 24"
   version="1.1"
   id="svg1"
   xmlns="http://www.w3.org/2000/svg"
   xmlns:svg="http://www.w3.org/2000/svg">
  <defs
     id="defs1" />
  <path
     id="path7"
     d="M 3 3 C 2.45 3 2 3.4499996 2 4 L 2 8 C 2 8.5500005 2.45 9 3 9 L 7 9 C 7.5315855 9 8.0381748 9.2100498 8.4140625 9.5859375 C 8.7899502 9.9618252 9 10.468414 9 11 L 9 14 L 5.2089844 14 C 4.7699448 14.0068 4.5523001 14.53575 4.859375 14.849609 L 11.650391 21.640625 C 11.850391 21.840625 12.159375 21.840625 12.359375 21.640625 L 19.150391 14.849609 C 19.470391 14.539609 19.24883 14 18.798828 14 L 15.009766 14 L 15 14 L 15 11 C 15 8.8794206 14.155726 6.843226 12.65625 5.34375 C 11.156774 3.844274 9.1205794 3 7 3 L 3 3 z "
     style="fill:#767676;fill-opacity:1" />
</svg>
