<?xml version="1.0" standalone="no"?>
<!DOCTYPE svg PUBLIC "-//W3C//DTD SVG 1.1//EN" "http://www.w3.org/Graphics/SVG/1.1/DTD/svg11.dtd">
<!--Generator: Xara Designer (www.xara.com), SVG filter version: 6.3.0.4-->
<svg stroke-width="0.501" stroke-linejoin="bevel" fill-rule="evenodd" xmlns:xlink="http://www.w3.org/1999/xlink" xmlns="http://www.w3.org/2000/svg" version="1.1" overflow="visible" width="72pt" height="72pt" viewBox="0 0 72 72">
 <defs>
	</defs>
 <g id="Document" fill="none" stroke="black" font-family="Times New Roman" font-size="16" transform="scale(1 -1)">
  <g id="Spread" transform="translate(0 -72)">
   <g id="Layer 1">
    <path d="M 64.698,64.629 L 64.688,57.75 C 36.535,57.75 14.978,35.653 14.978,7.5 L 7.605,7.516 C 7.605,38.153 34.061,64.629 64.698,64.629 Z" fill="#e703e5" stroke="none" stroke-width="0.75" stroke-linejoin="miter" stroke-linecap="round" marker-start="none" marker-end="none" stroke-miterlimit="79.8403193612775"/>
    <path d="M 48.84,47.172 L 48.84,47.172 C 38.93,47.662 33.057,41.047 28.105,33.651 C 19.447,20.128 22.324,12.015 31.441,9.31 C 28.289,12.896 27.082,18.147 28.494,21.029 C 28.756,13.396 33.053,9.534 36.881,9.31 C 35.294,11.636 33.387,17.138 33.934,21.029 C 35.299,14.24 40.017,9.876 44.134,9.31 C 42.613,11.689 40.444,17.176 40.28,21.029 C 41.192,14.275 46.537,9.926 52.276,10.212 C 49.146,12.889 45.656,17.758 46.221,21.213 C 47.343,17.102 52.043,11.456 58.506,16.091 C 52.711,17.006 47.809,19.263 51.874,30.945 C 55.814,39.662 55.931,45.824 48.84,47.172 Z" stroke-width="0.75" fill="#000000" stroke-linejoin="miter" marker-start="none" marker-end="none" stroke-miterlimit="79.8403193612775"/>
    <path d="M 48.93,47.485 L 48.93,47.485 C 39.281,47.964 33.432,41.481 28.465,34.23 C 19.769,20.976 22.421,13.023 31.257,10.371 C 28.253,13.887 27.176,19.033 28.606,21.859 C 28.717,14.376 32.832,10.591 36.559,10.371 C 35.055,12.651 33.301,18.046 33.908,21.859 C 35.11,15.204 39.625,10.927 43.628,10.371 C 42.192,12.704 40.18,18.081 40.094,21.859 C 40.854,15.238 45.982,10.976 51.581,11.256 C 48.581,13.879 45.269,18.652 45.888,22.038 C 46.904,18.01 51.377,12.475 57.764,17.019 C 52.135,17.915 47.4,20.127 51.581,31.579 C 55.587,40.124 55.817,46.162 48.93,47.485 Z" stroke="none" fill="#ffb500" stroke-linejoin="miter" marker-start="none" marker-end="none"/>
    <path d="M 44.537,46.07 C 46.245,47.317 49.428,46.91 51.638,45.161 C 53.848,43.413 54.254,40.98 52.545,39.732 C 50.837,38.485 47.654,38.892 45.444,40.641 C 43.234,42.389 42.828,44.822 44.537,46.07 Z" fill="#5d4f3e" stroke="none" stroke-width="0.5" marker-start="none" marker-end="none" stroke-miterlimit="79.8403193612775"/>
    <path d="M 46.631,42.173 C 45.95,42.968 45.794,43.851 46.152,44.435 L 46.156,44.434 L 46.142,44.444 L 54.084,55.778 C 54.44,53.674 55.887,52.656 58.42,52.729 L 50.478,41.395 L 50.476,41.396 C 50.359,41.254 50.207,41.135 50.02,41.049 C 49.063,40.603 47.546,41.106 46.631,42.173 Z" fill="#a07031" stroke="none" stroke-width="0.5" marker-start="none" marker-end="none" stroke-miterlimit="79.8403193612775"/>
    <g id="Group" stroke="#f5cf72" stroke-linejoin="round" stroke-linecap="round" stroke-width="1.5" stroke-miterlimit="79.8403193612775">
     <path d="M 38.495,40.511 C 36.83,38.908 33.63,36.628 31.357,33.316 C 28.293,28.846 26.295,23.042 26.192,19.657" fill="none"/>
     <path d="M 44.523,37.807 C 43.394,36.261 41.105,33.942 39.721,30.914 C 37.855,26.827 37.051,21.804 37.449,19.026" fill="none"/>
     <path d="M 48.267,34.546 C 47.973,33.254 47.155,31.154 47.103,28.85 C 47.038,25.742 47.904,22.329 48.918,20.672" fill="none"/>
     <path d="M 37.083,31.319 C 36.169,30.216 34.316,28.562 33.196,26.402 C 31.684,23.486 31.035,19.902 31.356,17.921" fill="none"/>
     <path d="M 45.503,31.21 C 45.001,29.868 43.791,27.699 43.439,25.291 C 42.964,22.042 43.523,18.442 44.477,16.675" fill="none"/>
    </g>
    <path d="M 41.684,25.351 C 37.858,25.768 33.51,27.766 31.154,30.91 C 29.915,32.565 29.164,34.706 30.005,36.71 C 30.215,37.214 30.53,37.636 30.927,38.006 C 31.01,38.083 31.211,38.251 31.309,38.3 C 31.379,38.334 31.592,38.378 31.683,38.402 C 31.626,38.067 31.434,37.797 31.289,37.497 C 31.046,36.996 30.875,36.505 30.82,35.948 C 30.601,33.727 32.298,31.7 33.921,30.408 L 34.842,29.734 L 35.868,29.101 C 38.341,27.699 41.281,26.866 44.085,26.796 C 45.754,26.753 47.524,26.985 49.013,27.725 C 49.373,27.911 49.692,28.102 50.03,28.329 C 50.253,28.478 50.457,28.66 50.726,28.718 C 50.777,28.268 50.242,27.65 49.935,27.354 C 48.72,26.187 47.043,25.627 45.409,25.38 C 44.174,25.192 42.921,25.216 41.684,25.351 Z" fill="#5d4f3e" stroke-width="0.5" stroke="none" fill-rule="evenodd" marker-start="none" marker-end="none" stroke-miterlimit="79.8403193612775"/>
    <path d="M 44.275,29.805 C 40.632,30.353 36.873,32.486 34.947,35.703 C 33.919,37.418 33.461,39.536 34.336,41.411 C 34.502,41.768 34.731,42.077 34.995,42.366 C 35.07,42.445 35.298,42.666 35.389,42.709 C 35.47,42.748 35.651,42.792 35.743,42.82 L 35.718,42.679 C 35.71,42.626 35.694,42.516 35.679,42.466 C 35.666,42.423 35.626,42.346 35.606,42.301 C 35.529,42.132 35.447,41.95 35.384,41.774 C 35.217,41.301 35.101,40.88 35.066,40.376 C 34.909,38.163 36.316,36.14 37.932,34.695 L 38.624,34.121 L 39.481,33.509 C 41.573,32.138 44.116,31.287 46.593,31.206 C 48.062,31.158 49.576,31.415 50.852,32.129 C 51.172,32.32 51.456,32.511 51.756,32.736 C 51.963,32.891 52.144,33.074 52.405,33.136 L 52.407,33.024 C 52.409,32.952 52.426,32.875 52.395,32.809 C 52.369,32.754 52.351,32.683 52.328,32.626 C 52.218,32.356 51.96,32.003 51.765,31.785 C 50.712,30.612 49.129,29.998 47.597,29.776 C 46.502,29.619 45.367,29.64 44.275,29.805 Z" fill="#5d4f3e" stroke-width="0.5" stroke="none" fill-rule="evenodd" marker-start="none" marker-end="none" stroke-miterlimit="79.8403193612775"/>
   </g>
  </g>
 </g>
</svg>
