<?xml version="1.0" standalone="no"?>
<!DOCTYPE svg PUBLIC "-//W3C//DTD SVG 1.1//EN" "http://www.w3.org/Graphics/SVG/1.1/DTD/svg11.dtd">
<!--Generator: Xara Designer (www.xara.com), SVG filter version: 6.3.0.4-->
<svg stroke-width="0.501" stroke-linejoin="bevel" fill-rule="evenodd" xmlns:xlink="http://www.w3.org/1999/xlink" xmlns="http://www.w3.org/2000/svg" version="1.1" overflow="visible" width="72pt" height="72pt" viewBox="0 0 72 72">
 <defs>
	</defs>
 <g id="Document" fill="none" stroke="black" font-family="Times New Roman" font-size="16" transform="scale(1 -1)">
  <g id="Spread" transform="translate(0 -72)">
   <g id="Layer 1">
    <path d="M 64.698,64.629 L 64.688,57.75 C 36.535,57.75 14.978,35.653 14.978,7.5 L 7.605,7.516 C 7.605,38.153 34.061,64.629 64.698,64.629 Z" fill="#e703e5" stroke="none" stroke-width="0.75" stroke-linejoin="miter" stroke-linecap="round" marker-start="none" marker-end="none" stroke-miterlimit="79.8403193612775"/>
    <path d="M 55.983,29.681 L 53.096,34.147 C 53.861,34.364 54.506,34.92 54.901,35.881 C 55.49,36.906 55.984,36.562 56.473,37.051 C 58.279,38.857 58.279,41.791 56.473,43.597 C 54.667,45.403 51.733,45.403 49.927,43.597 C 49.281,42.951 48.866,42.161 48.682,41.33 C 48.251,40.54 47.584,40.008 46.612,39.811 L 42.115,41.824 L 48.704,44.078 L 46.972,50.825 L 52.846,47.084 L 57.04,52.641 L 57.775,45.714 L 64.737,45.901 L 59.78,41.009 L 64.266,35.686 L 57.353,36.507 L 55.983,29.681 Z" stroke="none" fill="#ff0000" stroke-linecap="round" stroke-linejoin="miter" stroke-width="0.75" marker-start="none" marker-end="none" stroke-miterlimit="79.8403193612775"/>
    <g id="Group" fill-rule="nonzero" stroke-linejoin="round" stroke-linecap="round" stroke="none" stroke-width="0.75" stroke-miterlimit="79.8403193612775">
     <path d="M 52.175,41.956 L 54.144,39.951 C 52.674,38.811 52.584,37.431 51.844,36.611 C 51.047,35.728 50.054,35.046 49.021,34.574 L 49.923,33.49 C 50.195,33.217 50.333,32.891 50.332,32.514 C 50.333,32.133 50.195,31.808 49.923,31.536 L 48.55,30.16 C 49.823,27.855 50.461,25.398 50.461,22.791 C 50.461,20.743 50.063,18.784 49.269,16.915 C 48.474,15.046 47.399,13.436 46.046,12.082 C 44.693,10.728 43.081,9.655 41.212,8.858 C 39.343,8.063 37.385,7.666 35.336,7.666 C 33.288,7.666 31.329,8.063 29.46,8.858 C 27.591,9.655 25.98,10.728 24.627,12.082 C 23.272,13.436 22.197,15.046 21.403,16.915 C 20.608,18.784 20.211,20.743 20.211,22.791 C 20.211,24.84 20.608,26.798 21.403,28.667 C 22.197,30.536 23.272,32.148 24.627,33.501 C 25.98,34.854 27.591,35.929 29.46,36.724 C 31.329,37.518 33.288,37.916 35.336,37.916 C 37.943,37.916 40.399,37.279 42.705,36.005 L 44.08,37.378 C 44.352,37.65 44.678,37.787 45.059,37.788 C 45.438,37.787 45.762,37.65 46.035,37.378 L 46.839,36.678 C 48.002,36.975 49.322,37.587 49.904,38.798 C 50.615,40.276 51.155,41.116 52.175,41.956 Z" fill="#000000" marker-start="none" marker-end="none"/>
     <path d="M 32.195,34.264 C 30.648,33.635 29.281,32.724 28.092,31.536 C 26.904,30.347 25.994,28.978 25.364,27.431 L 27.92,26.401 C 28.407,27.603 29.113,28.667 30.036,29.592 C 30.96,30.515 32.024,31.219 33.227,31.707 L 32.195,34.264 Z" fill="#ffffff" marker-start="none" marker-end="none"/>
    </g>
   </g>
  </g>
 </g>
</svg>
