<?xml version="1.0" standalone="no"?>
<!DOCTYPE svg PUBLIC "-//W3C//DTD SVG 1.1//EN" "http://www.w3.org/Graphics/SVG/1.1/DTD/svg11.dtd">
<!--Generator: Xara Designer (www.xara.com), SVG filter version: 6.3.0.4-->
<svg stroke-width="0.501" stroke-linejoin="bevel" fill-rule="evenodd" xmlns:xlink="http://www.w3.org/1999/xlink" xmlns="http://www.w3.org/2000/svg" version="1.1" overflow="visible" width="72pt" height="72pt" viewBox="0 0 72 72">
 <defs>
	</defs>
 <g id="Document" fill="none" stroke="black" font-family="Times New Roman" font-size="16" transform="scale(1 -1)">
  <g id="Spread" transform="translate(0 -72)">
   <g id="Old PNG-JPG Image"/>
   <g id="Layer 1">
    <path d="M 64.698,64.629 L 64.688,57.75 C 36.535,57.75 14.978,35.653 14.978,7.5 L 7.605,7.516 C 7.605,38.153 34.061,64.629 64.698,64.629 Z" fill="#e703e5" stroke="none" stroke-width="0.75" stroke-linejoin="miter" stroke-linecap="round" marker-start="none" marker-end="none" stroke-miterlimit="79.8403193612775"/>
    <path d="M 64.635,34.396 L 28.635,34.396" fill="none" stroke-width="6" stroke-linejoin="miter" stroke="#000000" stroke-miterlimit="79.8403193612775"/>
    <g id="Group" stroke-linejoin="miter" stroke="#000000" stroke-width="6.75" fill="#ff0000" stroke-miterlimit="79.8403193612775">
     <path d="M 34.43,22.817 L 28.703,22.817" fill="none"/>
     <path d="M 44.498,22.817 L 38.771,22.817" fill="none"/>
     <path d="M 54.566,22.817 L 48.839,22.817" fill="none"/>
     <path d="M 64.635,22.817 L 58.908,22.817" fill="none"/>
    </g>
    <path d="M 28.703,7.456 L 28.703,14.205 L 34.43,14.205 L 34.43,7.456 L 28.703,7.456 Z M 38.793,7.455 L 38.793,14.203 L 44.52,14.203 L 44.52,7.455 L 38.793,7.455 Z M 48.884,7.455 L 48.884,14.203 L 54.611,14.203 L 54.611,7.455 L 48.884,7.455 Z M 58.976,7.455 L 58.976,14.203 L 64.703,14.203 L 64.703,7.455 L 58.976,7.455 Z" fill="#007dce" stroke="none" stroke-width="0.375" fill-rule="evenodd" marker-start="none" marker-end="none" stroke-miterlimit="79.8403193612775"/>
   </g>
  </g>
 </g>
</svg>
