<?xml version="1.0" standalone="no"?>
<!DOCTYPE svg PUBLIC "-//W3C//DTD SVG 1.1//EN" "http://www.w3.org/Graphics/SVG/1.1/DTD/svg11.dtd">
<!--Generator: Xara Designer (www.xara.com), SVG filter version: 6.3.0.4-->
<svg stroke-width="0.501" stroke-linejoin="bevel" fill-rule="evenodd" xmlns:xlink="http://www.w3.org/1999/xlink" xmlns="http://www.w3.org/2000/svg" version="1.1" overflow="visible" width="72pt" height="72pt" viewBox="0 0 72 72">
 <defs>
	</defs>
 <g id="Document" fill="none" stroke="black" font-family="Times New Roman" font-size="16" transform="scale(1 -1)">
  <g id="Spread" transform="translate(0 -72)">
   <g id="Old PNG-JPG Image"/>
   <g id="Layer 1">
    <path d="M 39.396,7.5 L 34.559,12.206 L 38.552,16.311 L 43.39,11.605 L 39.396,7.5 Z M 46.433,14.731 L 41.596,19.437 L 45.59,23.542 L 50.427,18.836 L 46.433,14.731 Z M 53.47,21.964 L 48.633,26.67 L 52.626,30.775 L 57.463,26.069 L 53.47,21.964 Z M 60.507,29.198 L 55.67,33.903 L 59.664,38.008 L 64.5,33.303 L 60.507,29.198 Z" fill="#007dce" stroke="none" stroke-width="0.375" fill-rule="evenodd" marker-start="none" marker-end="none" stroke-miterlimit="79.8403193612775"/>
    <path d="M 48.15,24.15 L 32.631,27.771 L 36.038,31.177 L 28.095,39.124 L 33.18,44.211 L 41.123,36.262 L 44.529,39.669 L 48.15,24.15 Z" fill="#ff0000" stroke-linejoin="miter" stroke="#ff0000" fill-rule="evenodd" stroke-width="0.75" marker-start="none" marker-end="none" stroke-miterlimit="79.8403193612775"/>
    <path d="M 64.698,64.629 L 64.688,57.75 C 36.535,57.75 14.978,35.653 14.978,7.5 L 7.605,7.516 C 7.605,38.153 34.061,64.629 64.698,64.629 Z" fill="#e703e5" stroke="none" stroke-width="0.75" stroke-linejoin="miter" stroke-linecap="round" marker-start="none" marker-end="none" stroke-miterlimit="79.8403193612775"/>
   </g>
  </g>
 </g>
</svg>
