<?xml version="1.0" standalone="no"?>
<!DOCTYPE svg PUBLIC "-//W3C//DTD SVG 1.1//EN" "http://www.w3.org/Graphics/SVG/1.1/DTD/svg11.dtd">
<!--Generator: Xara Designer (www.xara.com), SVG filter version: 6.3.0.4-->
<svg stroke-width="0.501" stroke-linejoin="bevel" fill-rule="evenodd" xmlns:xlink="http://www.w3.org/1999/xlink" xmlns="http://www.w3.org/2000/svg" version="1.1" overflow="visible" width="72pt" height="72pt" viewBox="0 0 72 72">
 <defs>
	</defs>
 <g id="Document" fill="none" stroke="black" font-family="Times New Roman" font-size="16" transform="scale(1 -1)">
  <g id="Spread" transform="translate(0 -72)">
   <g id="Old PNG-JPG Image"/>
   <g id="Layer 1">
    <path d="M 44.862,46.219 C 55.306,46.219 63.783,37.742 63.783,27.298 C 63.783,16.854 55.306,8.377 44.862,8.377 C 34.418,8.377 25.941,16.854 25.941,27.298 C 25.941,37.742 34.418,46.219 44.862,46.219 Z" stroke-width="1.5" stroke="#ff0000" fill-rule="evenodd" marker-start="none" marker-end="none" stroke-miterlimit="79.8403193612775"/>
    <path d="M 27.674,29.124 L 37.174,11.045 L 57.304,14.487 L 60.247,34.702 L 41.937,43.747 L 27.674,29.124 Z" stroke-width="5.25" fill="#bee6ff" stroke="#009bff" stroke-linejoin="miter" marker-start="none" marker-end="none" stroke-miterlimit="79.8403193612775"/>
    <path d="M 64.698,64.629 L 64.688,57.75 C 36.535,57.75 14.978,35.653 14.978,7.5 L 7.605,7.516 C 7.605,38.153 34.061,64.629 64.698,64.629 Z" fill="#e703e5" stroke="none" stroke-width="0.75" stroke-linejoin="miter" stroke-linecap="round" marker-start="none" marker-end="none" stroke-miterlimit="79.8403193612775"/>
    <g id="Group" stroke="none" stroke-width="0.5" stroke-miterlimit="79.8403193612775">
     <path d="M 56.062,22.071 C 59.747,22.195 62.84,19.302 62.963,15.618 C 63.087,11.933 60.194,8.84 56.51,8.717 C 52.825,8.593 49.732,11.486 49.609,15.17 C 49.485,18.855 52.378,21.948 56.062,22.071 Z" fill="#ffffff" marker-start="none" marker-end="none"/>
     <path d="M 52.895,12.396 C 51.623,13.758 51.361,15.702 52.075,17.303 L 52.196,17.541 L 47.047,23.061 L 46.801,22.958 C 45.154,22.356 43.234,22.753 41.963,24.115 C 40.269,25.931 40.367,28.781 42.184,30.475 C 44,32.17 46.85,32.071 48.544,30.255 C 49.814,28.892 50.076,26.948 49.362,25.347 L 49.24,25.107 L 54.389,19.587 L 54.637,19.692 C 56.283,20.294 58.205,19.898 59.475,18.536 C 61.17,16.719 61.071,13.87 59.255,12.176 C 57.438,10.481 54.588,10.58 52.895,12.396 Z" fill="#ff0000" fill-rule="evenodd" marker-start="none" marker-end="none"/>
    </g>
   </g>
  </g>
 </g>
</svg>
