<?xml version="1.0" standalone="no"?>
<!DOCTYPE svg PUBLIC "-//W3C//DTD SVG 1.1//EN" "http://www.w3.org/Graphics/SVG/1.1/DTD/svg11.dtd">
<!--Generator: Xara Designer (www.xara.com), SVG filter version: 6.3.0.4-->
<svg stroke-width="0.501" stroke-linejoin="bevel" fill-rule="evenodd" xmlns:xlink="http://www.w3.org/1999/xlink" xmlns="http://www.w3.org/2000/svg" version="1.1" overflow="visible" width="72pt" height="72pt" viewBox="0 0 72 72">
 <defs>
	</defs>
 <g id="Document" fill="none" stroke="black" font-family="Times New Roman" font-size="16" transform="scale(1 -1)">
  <g id="Spread" transform="translate(0 -72)">
   <g id="Layer 1">
    <path d="M 64.698,64.629 L 64.688,57.75 C 36.535,57.75 14.978,35.653 14.978,7.5 L 7.605,7.516 C 7.605,38.153 34.061,64.629 64.698,64.629 Z" fill="#e703e5" stroke="none" stroke-width="0.75" stroke-linejoin="miter" stroke-linecap="round" marker-start="none" marker-end="none" stroke-miterlimit="79.8403193612775"/>
    <path d="M 19.556,7.5 C 22.725,12.042 20.723,19.275 24.848,21.675 C 27.623,23.325 30.458,20.845 31.962,18.965 C 32.75,17.98 33.107,17.119 33.973,16.528 C 34.698,16.033 35.722,15.911 36.115,16.881 C 37.115,19.349 36.726,20.517 36.406,24.879 C 36.153,28.305 35.234,35.87 40.606,37.836 C 43.451,38.877 45.532,37.274 46.757,35.625 C 47.92,34.058 48.817,31.858 49.57,30.048 C 50.184,28.57 50.531,27.399 51.079,26.733 C 52.949,24.461 54.202,25.873 54.642,28.705 C 54.986,30.918 53.797,38.324 55.523,45.397 C 56.849,49.035 59.961,54.28 64.169,54.737 L 64.651,54.789 L 64.653,50.263 C 63.439,50.131 61.132,47.646 59.751,43.857 C 57.43,37.49 62.993,24.098 54.404,20.684 C 51.572,19.557 49.467,21.115 48.226,22.767 C 47.062,24.317 46.165,26.514 45.414,28.321 C 44.911,29.532 44.485,30.473 44.125,31.202 C 42.684,34.121 40.888,32.576 40.754,30.6 C 40.669,29.356 40.716,27.625 40.893,25.209 C 41.152,21.69 42.058,14.237 37.129,11.734 C 33.451,9.864 30.576,12.693 29.188,15.187 C 28.424,16.56 27.819,17.322 26.882,16.619 C 26.006,15.962 26.003,14.24 25.889,12.272 C 25.806,10.83 25.128,8.733 24.356,7.5 L 19.556,7.5 Z" fill="#009bff" stroke="none" stroke-width="0.5" marker-start="none" marker-end="none" stroke-miterlimit="79.8403193612775"/>
   </g>
  </g>
 </g>
</svg>
