<?xml version="1.0" standalone="no"?>
<!DOCTYPE svg PUBLIC "-//W3C//DTD SVG 1.1//EN" "http://www.w3.org/Graphics/SVG/1.1/DTD/svg11.dtd">
<!--Generator: Xara Designer (www.xara.com), SVG filter version: 6.3.0.4-->
<svg stroke-width="0.501" stroke-linejoin="bevel" fill-rule="evenodd" xmlns:xlink="http://www.w3.org/1999/xlink" xmlns="http://www.w3.org/2000/svg" version="1.1" overflow="visible" width="72pt" height="72pt" viewBox="0 0 72 72">
 <defs>
	</defs>
 <g id="Document" fill="none" stroke="black" font-family="Times New Roman" font-size="16" transform="scale(1 -1)">
  <g id="Spread" transform="translate(0 -72)">
   <g id="Layer 1">
    <path d="M 13.426,7.515 C 13.415,33.461 36.5,58.539 64.63,58.609" fill="none" stroke="#e703e5" stroke-linejoin="miter" stroke-width="11.682" stroke-miterlimit="79.8403193612775"/>
    <g id="Group" stroke-linejoin="miter">
     <g id="Group_1" stroke="#afafaf" stroke-width="0.57" stroke-miterlimit="79.8403193612775">
      <path d="M 53.339,7.341 L 64.603,26.854 L 53.25,20.188 L 53.339,7.341 Z" fill="#443f3f" stroke-width="0.57" marker-start="none" marker-end="none"/>
      <path d="M 64.603,26.854 L 42.072,26.854 L 53.25,19.755 L 64.603,26.854 Z" fill="#5a5858" stroke-width="0.57" marker-start="none" marker-end="none"/>
      <path d="M 42.072,26.854 L 53.339,7.341 L 53.25,20.188 L 42.072,26.854 Z" fill="#929191" stroke-width="0.57" marker-start="none" marker-end="none"/>
     </g>
     <path d="M 45.728,15.926 L 45.182,15.915" fill="none" stroke="#afafaf" stroke-width="0.055" stroke-miterlimit="79.8403193612775"/>
     <path d="M 45.728,15.927 L 45.182,15.914" fill="none" stroke="#afafaf" stroke-width="0.055" stroke-miterlimit="79.8403193612775"/>
     <path d="M 45.454,16.193 L 45.454,15.648" fill="none" stroke="#afafaf" stroke-width="0.055" stroke-miterlimit="79.8403193612775"/>
     <path d="M 45.454,16.194 L 45.453,15.647" fill="none" stroke="#afafaf" stroke-width="0.055" stroke-miterlimit="79.8403193612775"/>
     <g id="Group_2" stroke="none" stroke-width="0.436" fill="#000000" stroke-miterlimit="79.8403193612775">
      <path d="M 53.387,10.167 L 62.386,25.422 L 44.384,25.422 L 53.387,10.167 Z" stroke-width="0.436" marker-start="none" marker-end="none"/>
     </g>
    </g>
    <path d="M 33.593,27.144 C 32.439,28.18 31.812,29.577 31.812,31.133 C 31.812,32.338 32.195,33.431 32.814,34.376 C 33.335,35.161 34.13,35.923 35.001,36.64 L 32.606,38.832 L 29.72,37.104 C 28.617,36.387 27.397,35.814 26.08,35.368 C 24.325,34.776 22.545,34.468 20.751,34.468 C 18.097,34.468 15.584,35.115 13.251,36.394 C 11.776,37.201 9.464,39.336 7.765,41.234 L 7.766,41.235 L 7.766,64.384 L 33.131,64.384 L 34.894,60.447 L 29.472,55.262 L 28.086,55.411 C 27.484,55.475 26.874,55.577 26.255,55.714 L 24.858,56.097 L 24.941,45.212 L 40.953,56.781 L 48.101,48.812 L 44.193,45.415 L 44.611,45.089 C 46.115,43.647 46.937,41.795 46.937,39.693 C 46.937,38.41 46.594,37.198 45.978,36.097 C 45.344,34.961 44.44,34.026 43.394,33.264 C 43.013,32.988 42.528,32.683 41.958,32.354 L 40.652,31.647 L 41.338,30.692 C 41.531,30.266 41.641,29.791 41.641,29.281 C 41.641,28.192 41.151,27.205 40.332,26.545 C 39.425,25.811 38.394,25.669 37.697,25.669 C 36.269,25.669 34.791,26.065 33.593,27.144 Z" fill="#ffffff" stroke-linejoin="miter" stroke="#000000" stroke-width="0.188" marker-start="none" marker-end="none" stroke-miterlimit="79.8403193612775"/>
    <g id="Group_3" stroke-linejoin="miter" stroke="none" stroke-width="0.75" fill="#000000" stroke-miterlimit="79.8403193612775">
     <path d="M 35.348,29.097 C 34.744,29.638 34.437,30.326 34.437,31.133 C 34.437,31.762 34.632,32.361 35.005,32.93 C 35.381,33.496 36.119,34.195 37.178,35.019 C 38.232,35.841 38.861,36.459 39.123,36.885 C 39.536,37.566 39.734,38.241 39.734,38.908 C 39.734,39.607 39.481,40.198 38.957,40.7 C 38.443,41.195 37.782,41.451 36.949,41.451 C 36.375,41.451 35.661,41.228 34.795,40.729 L 34.552,40.589 L 33.686,41.411 L 39.558,46.694 L 36.628,49.336 L 34.336,47.841 L 33.364,48.885 L 39.125,52.749 L 41.683,50.279 C 42.042,49.93 42.291,49.739 42.443,49.663 C 42.602,49.585 42.773,49.544 42.959,49.544 C 43.022,49.544 43.14,49.567 43.329,49.652 L 43.63,49.786 L 44.158,48.925 L 39.396,44.609 L 40.058,44.556 C 41.117,44.376 42.033,43.924 42.794,43.195 C 43.799,42.231 44.312,41.056 44.312,39.693 C 44.312,38.891 44.101,38.117 43.687,37.378 C 43.272,36.635 42.653,35.972 41.85,35.387 C 41.266,34.963 40.244,34.375 38.804,33.631 C 37.351,32.876 36.526,32.35 36.241,32.041 C 35.958,31.732 35.834,31.416 35.834,31.08 C 35.834,30.754 35.939,30.493 36.15,30.273 C 36.35,30.065 36.613,29.951 36.982,29.953 C 37.093,29.951 37.29,29.982 37.616,30.067 C 37.796,30.104 37.965,30.128 38.115,30.128 C 38.351,30.128 38.571,30.051 38.748,29.886 C 38.917,29.728 39.016,29.521 39.016,29.281 C 39.016,29.001 38.897,28.76 38.682,28.587 C 38.417,28.373 38.068,28.294 37.697,28.294 C 36.752,28.294 35.956,28.549 35.348,29.097 Z M 14.512,38.696 C 12.556,39.769 11.021,41.305 9.915,43.301 C 8.816,45.285 8.262,47.34 8.262,49.461 C 8.262,52.069 9.044,54.486 10.601,56.703 C 11.831,58.453 13.8,60.127 16.479,61.739 L 16.75,61.902 L 17.655,60.854 L 17.306,60.617 C 15.601,59.461 14.349,58.236 13.533,56.95 C 12.475,55.286 11.947,53.479 11.947,51.524 C 11.947,49.746 12.385,48.068 13.268,46.486 L 14.069,45.281 L 14.558,45.741 C 14.744,45.953 14.856,46.131 14.908,46.274 C 15.02,46.587 15.097,47.579 15.097,49.356 L 15.097,57.362 L 22.888,63.858 L 23.095,63.776 C 24.834,63.091 26.184,62.655 27.152,62.459 C 28.123,62.26 29.272,62.16 30.605,62.16 L 31.251,62.16 L 31.742,61.064 L 28.54,58.002 L 28.366,58.021 C 26.864,58.182 25.228,58.633 23.46,59.364 L 22.195,59.94 L 22.379,40.927 L 22.677,40.921 C 24.306,40.921 25.786,41.199 27.116,41.749 C 28.449,42.302 29.844,43.205 31.303,44.473 L 31.562,44.698 L 32.571,43.723 L 32.38,43.46 C 31.284,41.946 30.198,40.758 29.122,39.903 C 28.039,39.045 26.743,38.364 25.24,37.855 C 23.737,37.348 22.239,37.093 20.751,37.093 C 18.542,37.093 16.462,37.628 14.512,38.696 Z M 20.826,41.109 L 20.662,59.821 L 19.36,58.691 L 19.36,50.891 C 19.36,50.4 19.347,49.976 19.319,49.625 L 19.182,48.802 L 18.862,48.059 C 18.714,47.804 18.528,47.548 18.308,47.291 C 17.873,46.785 17.354,46.245 16.752,45.673 L 15.012,44.133 L 16.14,43.063 C 16.622,42.68 17.118,42.357 17.628,42.093 C 18.138,41.828 18.695,41.605 19.299,41.426 L 20.826,41.109 Z" marker-start="none" marker-end="none"/>
     <path d="M 16.673,61.418 L 17.096,60.928 C 15.361,59.752 14.068,58.492 13.217,57.152 C 12.121,55.428 11.572,53.551 11.572,51.524 C 11.572,49.065 12.384,46.792 14.004,44.706 C 14.702,45.278 15.121,45.757 15.261,46.148 C 15.401,46.537 15.472,47.607 15.472,49.356 L 15.472,57.187 L 22.958,63.428 C 24.704,62.74 26.078,62.295 27.078,62.092 C 28.08,61.887 29.255,61.785 30.605,61.785 L 31.009,61.785 L 31.292,61.153 L 28.407,58.394 C 26.462,58.603 24.264,59.315 21.816,60.526 L 22.009,40.562 L 22.673,40.546 C 24.35,40.546 25.879,40.832 27.26,41.403 C 28.64,41.976 30.069,42.904 31.549,44.19 L 32.077,43.68 C 30.994,42.185 29.931,41.025 28.889,40.197 C 27.845,39.37 26.589,38.708 25.12,38.211 C 23.653,37.716 22.196,37.468 20.751,37.468 C 18.606,37.468 16.588,37.987 14.693,39.025 C 12.8,40.063 11.316,41.548 10.244,43.483 C 9.173,45.416 8.637,47.409 8.637,49.461 C 8.637,51.989 9.394,54.331 10.908,56.488 C 12.097,58.179 14.018,59.821 16.673,61.418 Z M 21.03,60.637 L 18.985,58.863 L 18.985,50.891 C 18.985,49.901 18.933,49.244 18.827,48.917 C 18.711,48.486 18.443,48.026 18.024,47.536 C 17.173,46.546 15.985,45.415 14.459,44.144 C 15.392,43.108 16.39,42.313 17.456,41.761 C 18.523,41.207 19.773,40.837 21.206,40.65 L 21.03,60.637 Z M 33.939,48.819 L 39.083,52.269 L 41.423,50.01 C 41.784,49.659 42.068,49.432 42.277,49.328 C 42.487,49.224 42.715,49.169 42.959,49.169 C 43.099,49.169 43.273,49.216 43.483,49.31 L 43.676,48.995 L 38.465,44.271 L 38.953,44.271 C 40.405,44.271 41.599,43.823 42.535,42.925 C 43.469,42.029 43.937,40.951 43.937,39.693 C 43.937,38.96 43.745,38.249 43.36,37.561 C 42.977,36.875 42.398,36.25 41.63,35.691 C 41.071,35.285 40.071,34.708 38.632,33.964 C 37.193,33.217 36.304,32.662 35.965,32.295 C 35.628,31.927 35.459,31.523 35.459,31.08 C 35.459,30.662 35.599,30.306 35.88,30.014 C 36.159,29.723 36.525,29.576 36.981,29.578 C 37.143,29.576 37.382,29.619 37.697,29.701 C 37.86,29.735 38.001,29.753 38.115,29.753 C 38.267,29.753 38.392,29.706 38.492,29.613 C 38.591,29.52 38.641,29.41 38.641,29.281 C 38.641,29.117 38.576,28.983 38.447,28.879 C 38.274,28.739 38.022,28.669 37.697,28.669 C 36.822,28.669 36.123,28.904 35.599,29.376 C 35.074,29.847 34.812,30.434 34.812,31.133 C 34.812,31.68 34.981,32.209 35.319,32.724 C 35.658,33.235 36.354,33.903 37.409,34.724 C 38.463,35.546 39.142,36.2 39.444,36.69 C 39.887,37.422 40.109,38.163 40.109,38.908 C 40.109,39.712 39.813,40.4 39.217,40.971 C 38.625,41.541 37.867,41.826 36.949,41.826 C 36.284,41.826 35.503,41.57 34.608,41.054 L 34.239,41.404 L 40.119,46.694 L 36.665,49.808 L 34.396,48.328 L 33.939,48.819 Z" stroke-linecap="round" fill-rule="nonzero" marker-start="none" marker-end="none"/>
    </g>
   </g>
  </g>
 </g>
</svg>
