<?xml version="1.0" standalone="no"?>
<!DOCTYPE svg PUBLIC "-//W3C//DTD SVG 1.1//EN" "http://www.w3.org/Graphics/SVG/1.1/DTD/svg11.dtd">
<!--Generator: Xara Designer (www.xara.com), SVG filter version: 6.3.0.4-->
<svg stroke-width="0.501" stroke-linejoin="bevel" fill-rule="evenodd" xmlns:xlink="http://www.w3.org/1999/xlink" xmlns="http://www.w3.org/2000/svg" version="1.1" overflow="visible" width="72pt" height="72pt" viewBox="0 0 72 72">
 <defs>
	</defs>
 <g id="Document" fill="none" stroke="black" font-family="Times New Roman" font-size="16" transform="scale(1 -1)">
  <g id="Spread" transform="translate(0 -72)">
   <g id="Layer 1">
    <path d="M 64.698,64.629 L 64.688,57.75 C 36.535,57.75 14.978,35.653 14.978,7.5 L 7.605,7.516 C 7.605,38.153 34.061,64.629 64.698,64.629 Z" fill="#e703e5" stroke="none" stroke-width="0.75" stroke-linejoin="miter" stroke-linecap="round" marker-start="none" marker-end="none" stroke-miterlimit="79.8403193612775"/>
    <path d="M 33.038,13.506 C 26.012,20.532 26.012,31.936 33.039,38.961 L 29.674,42.328 L 43.937,46.148 L 40.114,31.886 L 36.75,35.25 C 31.774,30.273 31.774,22.195 36.75,17.218 C 41.417,12.552 48.807,12.261 53.814,16.342 C 54.147,16.615 54.47,16.907 54.782,17.218 C 59.758,22.195 59.758,30.273 54.782,35.25 C 52.53,37.501 49.643,38.734 46.696,38.947 L 46.693,38.937 L 48.097,44.08 C 51.899,43.587 55.574,41.882 58.494,38.962 C 65.52,31.936 65.52,20.532 58.494,13.506 C 51.468,6.48 40.064,6.48 33.038,13.506 Z" fill="#009bff" stroke-linecap="round" stroke-linejoin="miter" stroke="none" stroke-width="0.75" marker-start="none" marker-end="none" stroke-miterlimit="79.8403193612775"/>
   </g>
  </g>
 </g>
</svg>
