<?xml version="1.0" encoding="UTF-8" standalone="no"?>
<!DOCTYPE svg PUBLIC "-//W3C//DTD SVG 1.1//EN" "http://www.w3.org/Graphics/SVG/1.1/DTD/svg11.dtd">
<svg width="100%" height="100%" viewBox="0 0 32 32" version="1.1" xmlns="http://www.w3.org/2000/svg" xmlns:xlink="http://www.w3.org/1999/xlink" xml:space="preserve" xmlns:serif="http://www.serif.com/" style="fill-rule:evenodd;clip-rule:evenodd;">
    <g id="JPP-Master" serif:id="JPP Master" transform="matrix(1.05668,0,0,1.05668,4.392,3.66525)">
        <g id="thicken-pushpull" transform="matrix(1.17016,0,0,1.17016,-1.43639,-1.80421)">
            <path id="top-side" d="M8.517,8.557L0.258,11.245L0.632,13.781L8.998,21.27L20.788,14.381L20.997,11.952L12.396,8.214" style="fill:rgb(231,76,60);stroke:black;stroke-width:0.85px;"/>
            <path id="right-side" d="M21.083,11.803L20.901,15.204L8.98,22.167L8.851,17.914L21.083,11.803Z" style="fill:rgb(195,40,24);stroke:black;stroke-width:0.6px;stroke-linecap:round;stroke-linejoin:bevel;"/>
            <path id="left-side" d="M8.98,22.204L8.837,18.027L0.148,11.213L0.543,14.653L8.98,22.204Z" style="fill:rgb(241,151,141);stroke:black;stroke-width:0.6px;stroke-linecap:round;stroke-linejoin:round;"/>
        </g>
        <g transform="matrix(0.946362,0,0,0.946362,-4.15642,-3.46865)">
            <g id="Text">
                <path d="M28.499,1.25L28.545,1.251L28.555,1.251L28.603,1.253L28.612,1.253L28.66,1.256L28.67,1.257L28.717,1.261L28.727,1.262L28.774,1.268L28.783,1.269L28.83,1.275L28.84,1.277L28.886,1.284L28.895,1.286L28.942,1.295L28.951,1.297L28.997,1.307L29.006,1.309L29.051,1.32L29.06,1.322L29.105,1.334L29.114,1.337L29.159,1.35L29.168,1.353L29.212,1.367L29.22,1.37L29.264,1.386L29.273,1.389L29.316,1.405L29.324,1.409L29.367,1.426L29.375,1.43L29.417,1.448L29.426,1.452L29.467,1.471L29.475,1.475L29.516,1.495L29.524,1.5L29.565,1.521L29.573,1.525L29.613,1.547L29.62,1.552L29.66,1.575L29.667,1.58L29.706,1.604L29.713,1.609L29.751,1.634L29.759,1.639L29.796,1.664L29.803,1.67L29.84,1.696L29.847,1.702L29.883,1.729L29.89,1.735L29.925,1.763L29.932,1.769L29.967,1.798L29.973,1.804L30.007,1.834L30.014,1.84L30.047,1.871L30.053,1.877L30.085,1.908L30.092,1.915L30.123,1.947L30.129,1.953L30.16,1.986L30.166,1.993L30.196,2.027L30.202,2.033L30.231,2.068L30.237,2.075L30.265,2.11L30.271,2.117L30.298,2.153L30.304,2.16L30.33,2.197L30.336,2.204L30.361,2.241L30.366,2.249L30.391,2.287L30.396,2.294L30.42,2.333L30.425,2.34L30.448,2.38L30.453,2.387L30.475,2.427L30.479,2.435L30.5,2.476L30.505,2.484L30.525,2.525L30.529,2.533L30.548,2.574L30.552,2.583L30.57,2.625L30.574,2.633L30.591,2.676L30.595,2.684L30.611,2.727L30.614,2.736L30.63,2.78L30.633,2.788L30.647,2.832L30.65,2.841L30.663,2.886L30.666,2.895L30.678,2.94L30.68,2.949L30.691,2.994L30.693,3.003L30.703,3.049L30.705,3.058L30.714,3.105L30.716,3.114L30.723,3.16L30.725,3.17L30.731,3.217L30.732,3.226L30.738,3.273L30.739,3.283L30.743,3.33L30.744,3.34L30.747,3.388L30.747,3.397L30.749,3.445L30.749,3.455L30.75,3.506L30.75,3.512L30.75,3.516L30.749,3.563L30.749,3.571L30.748,3.62L30.747,3.628L30.745,3.676L30.744,3.684L30.741,3.733L30.74,3.741L30.735,3.789L30.735,3.797L30.729,3.844L30.728,3.852L30.721,3.9L30.72,3.908L30.713,3.955L30.711,3.963L30.703,4.01L30.701,4.017L30.692,4.064L30.69,4.072L30.68,4.118L30.678,4.126L30.667,4.172L30.665,4.179L30.652,4.225L30.65,4.233L30.637,4.278L30.635,4.286L30.62,4.331L30.618,4.338L30.603,4.383L30.6,4.39L30.584,4.434L30.582,4.441L30.565,4.485L30.562,4.492L30.544,4.536L30.541,4.543L30.523,4.586L30.52,4.593L30.5,4.636L30.497,4.642L30.477,4.685L30.473,4.691L30.452,4.733L30.449,4.74L30.427,4.781L30.423,4.788L30.4,4.828L30.396,4.835L30.373,4.875L30.369,4.882L30.344,4.921L30.34,4.928L30.315,4.967L30.311,4.973L30.285,5.012L30.281,5.018L30.254,5.056L30.25,5.063L30.222,5.1L30.218,5.106L30.189,5.143L30.185,5.149L30.156,5.185L30.151,5.191L30.121,5.227L30.116,5.233L30.086,5.268L30.081,5.274L30.05,5.308L30.044,5.314L30.013,5.348L30.007,5.353L29.975,5.387L29.969,5.392L29.936,5.425L29.931,5.43L29.897,5.462L29.891,5.467L29.856,5.498L29.851,5.503L29.815,5.534L29.81,5.539L29.774,5.569L29.768,5.574L29.731,5.603L29.725,5.608L29.688,5.636L29.682,5.641L29.644,5.668L29.638,5.673L29.599,5.7L29.593,5.704L29.554,5.73L29.547,5.735L29.508,5.76L29.501,5.764L29.461,5.789L29.454,5.793L29.413,5.817L29.407,5.821L29.365,5.844L29.358,5.847L29.316,5.87L29.309,5.873L29.267,5.895L29.26,5.898L29.217,5.919L29.21,5.922L29.166,5.942L29.159,5.945L29.115,5.964L29.108,5.967L29.063,5.985L29.056,5.988L29.011,6.005L29.003,6.007L28.958,6.023L28.95,6.026L28.904,6.041L28.897,6.044L28.85,6.058L28.842,6.06L28.796,6.073L28.788,6.076L28.742,6.087L28.739,6.088L27.727,6.341L30.445,8.345L30.481,8.373L30.515,8.403L30.547,8.435L30.577,8.469L30.604,8.505L30.63,8.542L30.654,8.581L30.675,8.621L30.693,8.662L30.709,8.705L30.723,8.748L30.733,8.792L30.742,8.837L30.747,8.881L30.75,8.927L30.75,8.972L30.747,9.017L30.741,9.062L30.733,9.107L30.722,9.151L30.709,9.194L30.693,9.236L30.674,9.278L30.653,9.318L30.629,9.356L30.604,9.394L30.576,9.429L30.546,9.463L30.514,9.495L30.48,9.525L30.444,9.553L30.407,9.579L30.368,9.602L30.328,9.623L30.286,9.642L30.244,9.658L30.201,9.671L30.157,9.682L30.112,9.69L30.067,9.696L30.022,9.698L29.977,9.698L29.931,9.696L29.886,9.69L29.842,9.682L29.798,9.671L29.755,9.657L29.712,9.641L29.671,9.623L29.631,9.602L29.592,9.578L29.555,9.552L26.75,7.485L26.75,8.949L26.749,8.994L26.745,9.039L26.738,9.084L26.728,9.128L26.716,9.172L26.701,9.215L26.684,9.257L26.664,9.297L26.642,9.337L26.617,9.375L26.59,9.411L26.561,9.446L26.53,9.479L26.497,9.51L26.463,9.539L26.426,9.566L26.388,9.591L26.349,9.613L26.308,9.633L26.266,9.65L26.223,9.665L26.179,9.677L26.135,9.686L26.09,9.693L26.045,9.697L26,9.699L25.955,9.697L25.91,9.693L25.865,9.686L25.821,9.677L25.777,9.665L25.734,9.65L25.692,9.633L25.651,9.613L25.612,9.591L25.574,9.566L25.537,9.539L25.503,9.51L25.47,9.479L25.439,9.446L25.41,9.411L25.383,9.375L25.358,9.337L25.336,9.297L25.316,9.257L25.299,9.215L25.284,9.172L25.272,9.128L25.262,9.084L25.255,9.039L25.251,8.994L25.25,8.949L25.25,6.379L25.172,6.321L25.25,5.927L25.25,1.689L25.689,1.25L28.494,1.25L28.499,1.25ZM26.75,2.75L26.75,5.039L28.369,4.635L28.397,4.627L28.421,4.621L28.445,4.613L28.468,4.606L28.491,4.597L28.514,4.589L28.537,4.58L28.559,4.57L28.581,4.56L28.603,4.55L28.624,4.539L28.645,4.528L28.666,4.516L28.687,4.504L28.707,4.491L28.727,4.479L28.747,4.465L28.767,4.452L28.786,4.438L28.805,4.423L28.823,4.408L28.841,4.393L28.859,4.378L28.877,4.362L28.894,4.346L28.911,4.329L28.927,4.312L28.944,4.295L28.959,4.277L28.975,4.26L28.99,4.241L29.005,4.223L29.019,4.204L29.033,4.185L29.047,4.166L29.06,4.146L29.073,4.126L29.085,4.106L29.097,4.086L29.109,4.065L29.12,4.044L29.13,4.023L29.141,4.002L29.151,3.98L29.16,3.958L29.169,3.936L29.177,3.914L29.186,3.892L29.193,3.869L29.2,3.846L29.207,3.823L29.213,3.8L29.219,3.777L29.224,3.754L29.229,3.73L29.233,3.706L29.237,3.682L29.241,3.658L29.243,3.634L29.246,3.609L29.248,3.585L29.249,3.56L29.25,3.535L29.25,3.51L29.25,3.488L29.249,3.468L29.248,3.449L29.246,3.43L29.244,3.411L29.241,3.392L29.238,3.373L29.235,3.354L29.231,3.336L29.226,3.318L29.221,3.3L29.216,3.282L29.21,3.265L29.204,3.247L29.198,3.23L29.191,3.213L29.183,3.196L29.176,3.18L29.167,3.163L29.159,3.147L29.15,3.131L29.141,3.116L29.131,3.1L29.121,3.085L29.111,3.07L29.1,3.055L29.089,3.04L29.077,3.026L29.065,3.012L29.053,2.999L29.041,2.985L29.028,2.972L29.015,2.959L29.001,2.947L28.988,2.935L28.974,2.923L28.96,2.911L28.945,2.9L28.93,2.889L28.915,2.879L28.9,2.869L28.884,2.859L28.869,2.85L28.853,2.841L28.837,2.833L28.82,2.824L28.804,2.817L28.787,2.809L28.77,2.802L28.753,2.796L28.735,2.79L28.718,2.784L28.7,2.779L28.682,2.774L28.664,2.769L28.646,2.765L28.627,2.762L28.608,2.759L28.589,2.756L28.57,2.754L28.551,2.752L28.532,2.751L28.512,2.75L28.487,2.75L26.75,2.75Z" style="fill:rgb(231,76,60);"/>
            </g>
        </g>
    </g>
    <g id="arrow" transform="matrix(1.60342,0,0,1.60342,-0.982035,-0.636086)">
        <path d="M6.282,7.104L8.308,7.104L8.308,11.108L12.473,11.108L12.473,7.104L14.395,7.104L10.399,0.831L6.282,7.104Z" style="fill:rgb(236,240,241);"/>
    </g>
    <g id="arrow1" serif:id="arrow" transform="matrix(1.23648,0,0,1.23648,2.81743,1.66884)">
        <path d="M6.73,6.48L8.564,6.48L8.564,11.732L12.233,11.732L12.233,6.48L13.979,6.48L10.399,0.831L6.73,6.48Z" style="fill:rgb(255,0,32);stroke:black;stroke-width:0.71px;stroke-linecap:round;"/>
    </g>
</svg>
