<?xml version="1.0" standalone="no"?>
<!DOCTYPE svg PUBLIC "-//W3C//DTD SVG 1.1//EN" "http://www.w3.org/Graphics/SVG/1.1/DTD/svg11.dtd">
<!--Generator: Xara Designer (www.xara.com), SVG filter version: 6.3.0.4-->
<svg stroke-width="0.501" stroke-linejoin="bevel" fill-rule="evenodd" xmlns:xlink="http://www.w3.org/1999/xlink" xmlns="http://www.w3.org/2000/svg" version="1.1" overflow="visible" width="72pt" height="72pt" viewBox="0 0 72 72">
 <defs>
	</defs>
 <g id="Document" fill="none" stroke="black" font-family="Times New Roman" font-size="16" transform="scale(1 -1)">
  <g id="Spread" transform="translate(0 -72)">
   <g id="Old PNG-JPG Image"/>
   <g id="Layer 1">
    <g id="Group" fill-rule="evenodd" stroke-linejoin="miter" stroke="#000000" stroke-width="2.331" fill="#9b763d" stroke-miterlimit="79.8403193612775">
     <path d="M 28.413,43.583 L 3.476,35.464 L 4.605,27.808 L 29.867,5.197 L 65.465,25.997 L 66.098,33.329 L 40.128,44.618"/>
    </g>
    <g id="Group_1" fill-rule="evenodd" stroke-linecap="round" stroke="#000000" stroke-width="1.645" fill="#b58d4f" stroke-miterlimit="79.8403193612775">
     <path d="M 66.357,33.782 L 65.809,25.955 L 29.812,4.931 L 29.423,15.33 L 66.357,33.782 Z" marker-start="none" marker-end="none"/>
    </g>
    <g id="Group_2" fill-rule="evenodd" stroke-linejoin="round" stroke-linecap="round" stroke="#000000" stroke-width="1.645" fill="#7c633d" stroke-miterlimit="79.8403193612775">
     <path d="M 29.812,4.818 L 29.38,14.989 L 3.144,35.563 L 4.337,27.619 L 29.812,4.818 Z" marker-start="none" marker-end="none"/>
    </g>
    <g id="Group_3" fill-rule="evenodd" stroke-linejoin="miter" stroke="none" stroke-width="3.557" fill="#ecf0f1" stroke-miterlimit="79.8403193612775">
     <path d="M 18.018,47.232 L 25.95,47.232 L 25.95,31.555 L 42.259,31.555 L 42.259,47.232 L 49.785,47.232 L 34.138,71.795 L 18.018,47.232 Z" marker-start="none" marker-end="none"/>
    </g>
    <g id="Group_4" fill-rule="evenodd" stroke-linejoin="miter" stroke-linecap="round" stroke="#000000" stroke-width="1.948" fill="#ff0020" stroke-miterlimit="79.8403193612775">
     <path d="M 23.016,49.856 L 28.557,49.856 L 28.557,33.997 L 39.635,33.997 L 39.635,49.856 L 44.906,49.856 L 34.097,66.91 L 23.016,49.856 Z" marker-start="none" marker-end="none"/>
    </g>
    <g id="Group_5" stroke-linejoin="miter" stroke="none">
     <path d="M 51.816,1.307 L 34.085,30.108 L 69.532,30.108 L 51.816,1.307 Z" stroke-width="0.217" fill="#ffffff" marker-start="none" marker-end="none" stroke-miterlimit="79.8403193612775"/>
     <path d="M 51.816,5.346 L 65.958,28.336 L 37.663,28.336 L 51.816,5.346 Z" stroke-width="0.541" fill="#000000" marker-start="none" marker-end="none" stroke-miterlimit="79.8403193612775"/>
    </g>
   </g>
  </g>
 </g>
</svg>
