<svg width="24" height="24" viewBox="0 0 24 24" fill="none" xmlns="http://www.w3.org/2000/svg">
<path fill-rule="evenodd" clip-rule="evenodd" d="M2 7.76483L5.43626 21C5.43626 21 7.03933 20.288 8.29779 20.104C9.55625 19.92 12.0064 19.8793 13.1283 19.6316C14.2503 19.384 15.9208 18.3018 16.918 17.6019C17.9151 16.9021 19.5932 15.8453 20.1497 15.5421C20.7063 15.2388 22 14.8097 22 14.8097C22 14.8097 21.1058 13.4794 20.5662 13.049C20.0266 12.6187 18.9447 12.2923 18.1007 11.2359C17.2567 10.1796 16.7684 8.29441 16.5316 7.61371C16.2948 6.933 15.4562 4.52532 15.4562 4.52532C15.4562 4.52532 14.1188 4.31307 13.6362 4.17498C13.1537 4.03689 11.228 2.78361 9.55625 3.03264C7.88451 3.28166 7.1335 4.1421 5.6901 5.50352C4.2467 6.86493 3.71234 7.32243 2 7.76483Z" fill="#DCEDF9"/>
<path d="M12.3833 3.58203C12.3833 3.58203 12.0617 5.94202 10.1344 6.45476C8.78774 6.81301 7.75511 6.45789 7.15319 6.13925C6.55128 5.8206 6.26047 5.09654 6.26047 5.09654M15.2591 4.45795C15.2591 4.45795 13.1691 7.98143 12.1267 8.63072C11.0843 9.28001 9.24152 9.57031 8.45577 10.5049C7.67002 11.4395 6.5868 16.5319 6.5868 16.5319L5.63892 20.7815M16.8814 9.16205C16.8814 9.16205 16.3129 9.02025 15.7837 9.31481C15.2545 9.60938 13.7613 10.757 12.9745 11.1046C12.1877 11.4523 10.5978 11.9307 9.9143 12.7025C9.23079 13.4743 8.46048 15.2404 8.60144 16.4555C8.7424 17.6707 9.66285 19.0481 10.1453 19.3937C10.6278 19.7393 10.6866 19.9277 10.6866 19.9277M18.1143 11.2148C18.1143 11.2148 17.7236 11.6921 17.5893 11.9312C17.455 12.1704 16.7302 15.2118 16.4695 16.0782C16.2087 16.9446 15.551 18.215 15.551 18.215L15.7049 18.4783M20.0028 12.6163C20.0028 12.6163 19.1293 13.7708 18.8541 14.4894C18.5788 15.2079 18.5931 16.1343 18.5931 16.1343L18.7364 16.4473M2.4115 9.3791C2.4115 9.3791 3.73269 9.11647 4.48287 9.47874C5.23306 9.84101 5.70068 10.5426 5.37928 11.4743C5.05788 12.406 4.72385 13.0672 4.56508 13.2784C4.40631 13.4895 3.6661 13.9507 3.6661 13.9507M13.0845 18.5676C12.3488 18.831 11.4163 18.6149 11.0378 18.2753C10.6594 17.9356 10.1855 16.9892 10.423 16.4001C10.6605 15.811 10.8893 14.8958 11.816 14.577C12.7427 14.2582 13.8616 13.9567 14.35 14.4894C14.8384 15.022 14.9949 16.077 14.572 16.7666C14.1491 17.4562 13.8202 18.3043 13.0845 18.5676Z" stroke="white" stroke-width="2"/>
<path d="M12.3834 3.58203C12.3834 3.58203 12.0619 5.94202 10.1345 6.45476C8.78786 6.81301 7.75523 6.45789 7.15332 6.13925C6.5514 5.8206 6.26059 5.09654 6.26059 5.09654M15.2591 4.45795C15.2591 4.45795 13.1691 7.98143 12.1267 8.63072C11.0843 9.28001 9.24151 9.57031 8.45577 10.5049C7.67002 11.4395 6.5868 16.5319 6.5868 16.5319L5.63892 20.7815M16.9229 9.14051C16.9229 9.14051 16.3129 9.02011 15.7837 9.31468C15.2545 9.60924 13.7613 10.7568 12.9745 11.1045C12.1877 11.4521 10.5978 11.9306 9.9143 12.7024C9.23079 13.4742 8.46048 15.2402 8.60144 16.4554C8.7424 17.6706 9.60149 18.8393 10.0048 19.232C10.4081 19.6248 10.4847 19.849 10.4847 19.849M18.1141 11.2148C18.1141 11.2148 17.7234 11.6921 17.5891 11.9312C17.4549 12.1704 16.7301 15.2118 16.4693 16.0782C16.2086 16.9446 15.2999 18.6398 15.2999 18.6398M20.0028 12.6163C20.0028 12.6163 19.1293 13.7708 18.854 14.4894C18.5788 15.2079 18.5488 16.5424 18.5488 16.5424M2.4115 9.3791C2.4115 9.3791 3.73269 9.11647 4.48287 9.47874C5.23306 9.84101 5.70068 10.5426 5.37928 11.4743C5.05788 12.406 4.72385 13.0672 4.56508 13.2784C4.40631 13.4895 3.6661 13.9507 3.6661 13.9507M13.0845 18.5676C12.3488 18.831 11.4163 18.6149 11.0378 18.2753C10.6594 17.9356 10.1855 16.9892 10.423 16.4001C10.6605 15.811 10.8893 14.8958 11.816 14.577C12.7427 14.2582 13.8616 13.9567 14.35 14.4894C14.8384 15.022 14.9949 16.077 14.572 16.7666C14.1491 17.4562 13.8202 18.3043 13.0845 18.5676Z" stroke="#0E416C"/>
<path fill-rule="evenodd" clip-rule="evenodd" d="M2 7.76483L5.43626 21C5.43626 21 7.03933 20.288 8.29779 20.104C9.55625 19.92 12.0064 19.8793 13.1283 19.6316C14.2503 19.384 15.9208 18.3018 16.918 17.6019C17.9151 16.9021 19.5932 15.8453 20.1497 15.5421C20.7063 15.2388 22 14.8097 22 14.8097C22 14.8097 21.1058 13.4794 20.5662 13.049C20.0266 12.6187 18.9447 12.2923 18.1007 11.2359C17.2567 10.1796 16.7684 8.29441 16.5316 7.61371C16.2948 6.933 15.4562 4.52532 15.4562 4.52532C15.4562 4.52532 14.1188 4.31307 13.6362 4.17498C13.1537 4.03689 11.228 2.78361 9.55625 3.03264C7.88451 3.28166 7.1335 4.1421 5.6901 5.50352C4.2467 6.86493 3.71234 7.32243 2 7.76483Z" stroke="#009AD9"/>
</svg>
