<svg width="24" height="24" viewBox="0 0 24 24" fill="none" xmlns="http://www.w3.org/2000/svg">
<path d="M13.8227 4.74219L7.69995 5.24219L5.25506 6.61061L3.19995 7.77602L6.62424 19.0977L9.26247 18.1076L11.8322 17.612L14.1345 17.07L16.2158 16.1011L19.0126 14.4774L21.2 13.5651L16.593 7.24325L14.8173 4.74219H13.8227Z" fill="#DCEDF9"/>
<path fill-rule="evenodd" clip-rule="evenodd" d="M19 10.0808L18.6619 10.1725L19.3097 12.5478L20.3058 12.1568L20.5981 12.4808L21 12.9296L20.4775 14.1396L19.4964 14.7066L19.1579 14.0004L17.7236 16.0392L15.6256 17.1161L11.1323 18.4006L9.70105 13.8141L10.4868 12.4958L12.2393 11.83L11.7496 10.1725L12.6577 8.32562L14.5709 7.69176L17.0912 6.8092L18.346 9.77975L18.7498 9.61575L19 10.0808ZM14.4011 8.81652L13.1267 11.5405L15.0942 10.8371L14.4011 8.81652ZM15.4976 9.94988L16.8046 7.14598L14.7527 7.77902L15.4976 9.94988ZM15.9009 10.5838L17.091 8.23426L17.7236 9.94988L15.9009 10.5838ZM12.2393 9.94988L12.6577 10.945L14.1384 8.03154L12.8613 8.42111L12.2393 9.94988ZM11.922 12.5668L10.2247 13.3162L9.86393 13.9678L10.4868 15.8067L11.922 12.5668ZM10.599 16.1662L11.2589 18.3116L13.0754 15.2945L10.599 16.1662ZM13.4995 15.6705L12.4529 17.5524L13.8776 17.2776L13.4995 15.6705ZM16.6709 16.0392L16.3105 14.5753L15.2211 16.7861L16.6709 16.0392ZM15.8686 14.3407L14.4011 17.1161L13.8776 15.0207L15.8686 14.3407ZM14.222 14.3407L15.8686 13.7557L15.3959 11.83L14.222 14.3407ZM18.8582 13.3599L16.6709 14.0654L17.2312 15.8067L18.5156 13.8141L18.8582 13.3599ZM18.7498 12.8442L16.8455 13.4774L18.146 10.945L18.7498 12.8442ZM16.1979 11.0453L17.7236 10.5376L16.4036 13.2428L15.7403 11.2016L16.1979 11.0453ZM13.7097 13.9678L14.9557 11.5405L13.1267 12.1515L13.7097 13.9678ZM13.2498 14.7066L12.5866 12.6655L11.2589 15.3866L13.2498 14.7066ZM20.4775 12.7401L19.822 14.1396L19.4964 13.0857L20.4775 12.7401Z" fill="#009AD9"/>
<path d="M6.90167 5.46615L2.56494 7.51287L3.62673 11.2356M6.90167 5.46615L3.62673 11.2356M6.90167 5.46615L8.28442 9.72242M6.90167 5.46615L11.7888 4.59161M3.62673 11.2356L8.28442 9.72242M3.62673 11.2356L5.00949 15.4924M8.28442 9.72242L11.7888 4.59161M8.28442 9.72242L12.9421 8.20929M8.28442 9.72242L9.66741 13.9793M8.28442 9.72242L5.00949 15.4924M11.7888 4.59161L12.9421 8.20929M11.7888 4.59161L15.1702 4.25147M12.9421 8.20929L15.1702 4.25147M12.9421 8.20929L17.191 6.85329L15.1702 4.25147M12.9421 8.20929L9.66741 13.9793M9.66741 13.9793L5.00949 15.4924M9.66741 13.9793L6.39224 19.7487M9.66741 13.9793L11.0499 18.2355L6.39224 19.7487M5.00949 15.4924L6.39224 19.7487" stroke="#0E416C" stroke-width="0.5"/>
<path d="M13.8659 4.24268H13.8455L13.8252 4.24433L7.70247 4.74433L7.59396 4.7532L7.49896 4.80637L5.05407 6.17479L5.05406 6.17478L5.05163 6.17616L2.99652 7.34158L2.64887 7.53872L2.76458 7.92126L6.18886 19.2429L6.34339 19.7538L6.84313 19.5663L9.44183 18.591L11.9701 18.1034L11.9801 18.1015L11.99 18.0992L14.2923 17.5572L14.3422 17.5455L14.3887 17.5238L16.47 16.5549L16.4905 16.5454L16.51 16.534L19.2786 14.9267L21.4356 14.027L22.0204 13.7831L21.6473 13.2711L17.0421 6.95175L15.2682 4.45322L15.1187 4.24268H14.8605H13.8659Z" stroke="#0E416C"/>
</svg>
