<svg width="24" height="24" viewBox="0 0 24 24" fill="none" xmlns="http://www.w3.org/2000/svg">
<path d="M13.6227 5.5H13.61L13.5973 5.50065L10.5528 5.65564L10.5511 5.65573L7.00351 5.84784L6.84848 5.85624L6.72548 5.95097L4.77789 7.45083L2.75336 8.5989L2.40571 8.79605L2.52141 9.17859L5.9457 20.5002L6.10023 21.0111L6.59997 20.8236L9.19866 19.8483L11.727 19.3608L11.7369 19.3588L11.7468 19.3565L14.0491 18.8146L14.099 18.8028L14.1455 18.7811L16.2268 17.8122L16.2473 17.8027L16.2669 17.7913L19.0354 16.184L21.1925 15.2844L21.7772 15.0405L21.4041 14.5284L16.799 8.20907L15.025 5.71054L14.8755 5.5H14.6173H13.6227Z" fill="#DCEDF9" stroke="#0E416C"/>
<path fill-rule="evenodd" clip-rule="evenodd" d="M10.8582 8C11.2704 8 12.6583 8.50885 13.2596 9.43381C13.8609 10.3588 14.6647 11.65 14.8864 12.2585C15.1082 12.8669 15.2953 13.4213 15.1896 13.925C15.0838 14.4287 14.635 15.788 14.1803 16.2438C13.7255 16.6995 13.1519 17.2306 12.3265 17.2306C11.5012 17.2306 10.6721 16.4157 10.0401 15.7828C9.40809 15.1499 8.451 13.3573 8.23805 12.7579C8.0251 12.1585 7.71354 10.9989 8.54603 9.99448C9.37852 8.99005 10.446 8 10.8582 8Z" stroke="white" stroke-width="2"/>
<path fill-rule="evenodd" clip-rule="evenodd" d="M10.8582 8C11.2704 8 12.6583 8.50885 13.2596 9.43381C13.8609 10.3588 14.6647 11.65 14.8864 12.2585C15.1082 12.8669 15.2953 13.4213 15.1896 13.925C15.0838 14.4287 14.635 15.788 14.1803 16.2438C13.7255 16.6995 13.1519 17.2306 12.3265 17.2306C11.5012 17.2306 10.6721 16.4157 10.0401 15.7828C9.40809 15.1499 8.451 13.3573 8.23805 12.7579C8.0251 12.1585 7.71354 10.9989 8.54603 9.99448C9.37852 8.99005 10.446 8 10.8582 8Z" stroke="#009AD9"/>
<path fill-rule="evenodd" clip-rule="evenodd" d="M8 6.04693C8 4.36572 9.98546 3 12.4297 3C14.8739 3 16.8594 4.36572 16.8594 6.04693C16.8594 7.72812 14.8739 9.09375 12.4297 9.09375C9.98546 9.09375 8 7.72812 8 6.04693Z" stroke="white" stroke-width="2" stroke-linecap="round" stroke-linejoin="round"/>
<path fill-rule="evenodd" clip-rule="evenodd" d="M8 6.04693C8 4.36572 9.98546 3 12.4297 3C14.8739 3 16.8594 4.36572 16.8594 6.04693C16.8594 7.72812 14.8739 9.09375 12.4297 9.09375C9.98546 9.09375 8 7.72812 8 6.04693Z" stroke="#0E416C" stroke-linecap="round" stroke-linejoin="round"/>
</svg>
