<svg width="24" height="24" viewBox="0 0 24 24" fill="none" xmlns="http://www.w3.org/2000/svg">
<path d="M17.9201 19.8818L8.73926 4.06055L20.7759 4.63781L17.9201 19.8818Z" fill="#B7B9C3"/>
<path d="M3.29785 16.4815L7.84688 4.50391L17.1869 20.5706L3.29785 16.4815Z" fill="#DCEDF9"/>
<path fill-rule="evenodd" clip-rule="evenodd" d="M7.74046 3.02341L7.37903 3.00635L7.24983 3.34433L2.19546 16.567L2.00305 17.0704L2.51937 17.2246L17.9503 21.8347L18.4818 21.9935L18.5847 21.4484L18.6486 21.1104L18.6593 21.1042L18.6521 21.0918L21.8316 4.25893L21.9383 3.69381L21.3638 3.66668L7.74046 3.02341ZM17.8838 19.7714L20.7422 4.63844L8.74871 4.07214L17.8838 19.7714ZM7.8636 4.53935L3.32195 16.4207L17.1875 20.5632L7.8636 4.53935Z" fill="#0E416C"/>
<path fill-rule="evenodd" clip-rule="evenodd" d="M20.5615 5.63895L4.44942 16.7528L3.31958 16.4187L3.61404 15.6668L19.6034 4.58471L20.7506 4.62408L20.5615 5.63895Z" fill="#009AD9"/>
</svg>
