<svg width="24" height="24" viewBox="0 0 24 24" fill="none" xmlns="http://www.w3.org/2000/svg">
<path fill-rule="evenodd" clip-rule="evenodd" d="M3 15.7483C4.50096 16.474 5.59158 17.351 6.1084 17.721C6.62521 18.091 8.41457 19.5246 11.3871 20.4006C12.8772 20.8398 14.7506 22 14.7506 22C14.7506 22 15.4396 20.7381 15.7472 20.2183C16.0547 19.6985 16.7481 18.8212 16.9748 18.4108C17.2015 18.0003 19.031 14.312 19.2456 13.9143C19.4602 13.5167 20.0457 12.4139 20.0457 12.4139C20.0457 12.4139 18.5392 11.4472 18.2334 11.1501C17.6072 10.5416 15.8602 8.63337 14.193 8.19365C12.5257 7.75394 11.7953 8.19365 10.9431 8.24292C10.0909 8.29218 8.9642 8.36141 8.9642 8.36141C8.9642 8.36141 8.43887 8.6502 7.75928 9.06219C7.43513 9.48993 6.70276 10.6184 5.82211 12.3122C5.30969 13.0001 4.88722 13.6381 4.46214 14.1258C4.03706 14.6136 3.45058 15.3109 3 15.7483Z" fill="#DCEDF9"/>
<path fill-rule="evenodd" clip-rule="evenodd" d="M3 15.7483C4.50096 16.474 5.59158 17.351 6.1084 17.721C6.62521 18.091 8.41457 19.5246 11.3871 20.4006C12.8772 20.8398 14.7506 22 14.7506 22C14.7506 22 15.4396 20.7381 15.7472 20.2183C16.0547 19.6985 16.7481 18.8212 16.9748 18.4108C17.2015 18.0003 19.031 14.312 19.2456 13.9143C19.4602 13.5167 20.0457 12.4139 20.0457 12.4139C20.0457 12.4139 18.5392 11.4472 18.2334 11.1501C17.6072 10.5416 15.8602 8.63337 14.193 8.19365C12.5257 7.75394 11.7953 8.19365 10.9431 8.24292C10.0909 8.29218 8.9642 8.36141 8.9642 8.36141C8.9642 8.36141 8.43887 8.6502 7.75928 9.06219C7.43513 9.48993 6.70276 10.6184 5.82211 12.3122C5.30969 13.0001 4.88722 13.6381 4.46214 14.1258C4.03706 14.6136 3.45058 15.3109 3 15.7483Z" stroke="#009AD9"/>
<path d="M10.3731 8.35181L9.3811 9.1611L8.3309 11.4055L7.3631 14.04L6.12869 15.5605L4.63968 16.6341M12.9766 8.06348L12.2354 8.54479L11.1643 10.6911L10.2078 13.7518L9.21136 16.3165L8.05771 17.4995L6.64423 18.0392M15.0269 8.45188L14.0583 9.70974L12.928 12.5913L11.9255 15.7775L10.9812 17.9599L9.93344 18.8605L8.4957 19.2858M16.6455 9.60721L15.7813 11.112L14.6623 13.7697L13.5495 16.4499L12.5947 18.3232L11.6503 19.2918L10.3411 20.1011M18.352 11.1465L17.4772 12.7522L16.4573 14.7428L15.4661 16.7814L14.5851 18.3776L13.5887 19.4692L12.5272 20.745M10.6725 8.32423L12.2379 8.57645L14.0683 9.72416L15.8067 11.1533L17.4998 12.8071L19.2895 13.9444M7.93649 9.04216L9.39603 9.20919L11.1291 10.6788L12.9195 12.6365L14.6502 13.8246L16.4928 14.7733L18.3406 15.703M6.73834 10.6848L8.37851 11.4208L10.2195 13.7566L11.9344 15.8004L13.5391 16.4899L15.4867 16.8343L17.3709 17.5523M5.63486 12.6614L7.40347 14.0396L9.22272 16.3822L10.9662 17.9972L12.5943 18.3692L14.6219 18.3796L16.5923 18.9538M4.42261 14.3031L6.17227 15.6342L8.11832 17.5283L9.95404 18.8586L11.6056 19.3407L13.6089 19.5136L15.7304 20.162" stroke="#009AD9" stroke-width="0.5"/>
<path fill-rule="evenodd" clip-rule="evenodd" d="M9.42665 6.41111C9.20861 6.4111 9.07193 6.17555 9.18011 5.98624L11.88 1.26158C11.989 1.0708 12.2641 1.0708 12.3731 1.26158L15.0729 5.98628C15.1811 6.17559 15.0444 6.41114 14.8263 6.41114L13.7604 6.41113L13.7604 9.50193C13.7604 9.65876 13.6333 9.7859 13.4765 9.7859L10.7766 9.78596C10.6198 9.78596 10.4927 9.65882 10.4927 9.50199L10.4926 6.41116L9.42665 6.41111Z" fill="#FF0404"/>
<path d="M9.42665 6.41111L9.42666 6.23535L9.42665 6.41111ZM9.18011 5.98624L9.0275 5.89904L9.18011 5.98624ZM11.88 1.26158L12.0326 1.34878L11.88 1.26158ZM12.3731 1.26158L12.5257 1.17438L12.3731 1.26158ZM15.0729 5.98628L14.9203 6.07348L15.0729 5.98628ZM14.8263 6.41114L14.8263 6.5869L14.8263 6.41114ZM13.7604 6.41113L13.7604 6.23537L13.5847 6.23537L13.5847 6.41113L13.7604 6.41113ZM13.7604 9.50193L13.5847 9.50193L13.7604 9.50193ZM13.4765 9.7859L13.4765 9.61014L13.4765 9.7859ZM10.7766 9.78596L10.7766 9.96172L10.7766 9.78596ZM10.4927 9.50199L10.3169 9.50199L10.3169 9.50199L10.4927 9.50199ZM10.4926 6.41116L10.6684 6.41116L10.6684 6.23541L10.4926 6.2354L10.4926 6.41116ZM9.42666 6.23535C9.34357 6.23534 9.29149 6.14558 9.33271 6.07344L9.0275 5.89904C8.85237 6.20551 9.07365 6.58685 9.42664 6.58687L9.42666 6.23535ZM9.33271 6.07344L12.0326 1.34878L11.7274 1.17438L9.0275 5.89904L9.33271 6.07344ZM12.0326 1.34878C12.0741 1.27608 12.1789 1.27609 12.2205 1.34878L12.5257 1.17438C12.3492 0.865524 11.9039 0.865522 11.7274 1.17438L12.0326 1.34878ZM12.2205 1.34878L14.9203 6.07348L15.2255 5.89908L12.5257 1.17438L12.2205 1.34878ZM14.9203 6.07348C14.9615 6.14562 14.9094 6.23538 14.8263 6.23538L14.8263 6.5869C15.1793 6.58691 15.4006 6.20556 15.2255 5.89908L14.9203 6.07348ZM14.8263 6.23538L13.7604 6.23537L13.7604 6.58689L14.8263 6.5869L14.8263 6.23538ZM13.5847 6.41113L13.5847 9.50193L13.9362 9.50193L13.9362 6.41113L13.5847 6.41113ZM13.5847 9.50193C13.5847 9.56169 13.5362 9.61014 13.4765 9.61014L13.4765 9.96166C13.7304 9.96166 13.9362 9.75583 13.9362 9.50193L13.5847 9.50193ZM13.4765 9.61014L10.7766 9.6102L10.7766 9.96172L13.4765 9.96166L13.4765 9.61014ZM10.7766 9.6102C10.7169 9.6102 10.6684 9.56175 10.6684 9.50199L10.3169 9.50199C10.3169 9.7559 10.5227 9.96173 10.7766 9.96172L10.7766 9.6102ZM10.6684 9.50199L10.6684 6.41116L10.3169 6.41116L10.3169 9.50199L10.6684 9.50199ZM10.4926 6.2354L9.42666 6.23535L9.42664 6.58687L10.4926 6.58692L10.4926 6.2354Z" fill="white"/>
<path fill-rule="evenodd" clip-rule="evenodd" d="M14.8263 13.8428C15.0443 13.8428 15.181 14.0784 15.0728 14.2677L12.373 18.9923C12.2639 19.1831 11.9889 19.1831 11.8798 18.9923L9.18003 14.2676C9.07186 14.0783 9.20855 13.8428 9.4266 13.8428L10.4925 13.8428L10.4925 10.752C10.4925 10.5951 10.6196 10.468 10.7765 10.468L13.4763 10.4679C13.6331 10.4679 13.7603 10.5951 13.7603 10.7519L13.7603 13.8427L14.8263 13.8428Z" fill="#FF0404"/>
<path d="M14.8263 13.8428L14.8263 14.0186L14.8263 13.8428ZM15.0728 14.2677L15.2254 14.3549L15.0728 14.2677ZM12.373 18.9923L12.2204 18.9051L12.373 18.9923ZM11.8798 18.9923L11.7272 19.0795L11.8798 18.9923ZM9.18003 14.2676L9.33264 14.1804L9.18003 14.2676ZM9.4266 13.8428L9.4266 13.667L9.4266 13.8428ZM10.4925 13.8428L10.4925 14.0185L10.6683 14.0185L10.6683 13.8428L10.4925 13.8428ZM10.4925 10.752L10.6682 10.752L10.4925 10.752ZM10.7765 10.468L10.7765 10.6438L10.7765 10.468ZM13.4763 10.4679L13.4763 10.2922L13.4763 10.4679ZM13.7603 10.7519L13.936 10.7519L13.936 10.7519L13.7603 10.7519ZM13.7603 13.8427L13.5845 13.8427L13.5845 14.0185L13.7603 14.0185L13.7603 13.8427ZM14.8263 14.0186C14.9094 14.0186 14.9614 14.1083 14.9202 14.1805L15.2254 14.3549C15.4006 14.0484 15.1793 13.6671 14.8263 13.667L14.8263 14.0186ZM14.9202 14.1805L12.2204 18.9051L12.5256 19.0795L15.2254 14.3549L14.9202 14.1805ZM12.2204 18.9051C12.1788 18.9778 12.074 18.9778 12.0325 18.9051L11.7272 19.0795C11.9037 19.3884 12.3491 19.3884 12.5256 19.0795L12.2204 18.9051ZM12.0325 18.9051L9.33264 14.1804L9.02743 14.3548L11.7272 19.0795L12.0325 18.9051ZM9.33264 14.1804C9.29142 14.1083 9.34351 14.0185 9.42659 14.0185L9.4266 13.667C9.0736 13.667 8.8523 14.0483 9.02743 14.3548L9.33264 14.1804ZM9.42659 14.0185L10.4925 14.0185L10.4925 13.667L9.4266 13.667L9.42659 14.0185ZM10.6683 13.8428L10.6682 10.752L10.3167 10.752L10.3167 13.8428L10.6683 13.8428ZM10.6682 10.752C10.6682 10.6922 10.7167 10.6438 10.7765 10.6438L10.7764 10.2922C10.5225 10.2922 10.3167 10.4981 10.3167 10.752L10.6682 10.752ZM10.7765 10.6438L13.4763 10.6437L13.4763 10.2922L10.7764 10.2922L10.7765 10.6438ZM13.4763 10.6437C13.5361 10.6437 13.5845 10.6922 13.5845 10.7519L13.936 10.7519C13.936 10.498 13.7302 10.2922 13.4763 10.2922L13.4763 10.6437ZM13.5845 10.7519L13.5845 13.8427L13.9361 13.8427L13.936 10.7519L13.5845 10.7519ZM13.7603 14.0185L14.8263 14.0186L14.8263 13.667L13.7603 13.667L13.7603 14.0185Z" fill="white"/>
</svg>
