<svg width="24" height="24" viewBox="0 0 24 24" fill="none" xmlns="http://www.w3.org/2000/svg">
<path d="M13.6227 5.5H13.6023L13.582 5.50166L7.4593 6.00166L7.3508 6.01052L7.2558 6.06369L4.8109 7.43211L4.8109 7.4321L4.80846 7.43349L2.75336 8.5989L2.40571 8.79605L2.52141 9.17859L5.9457 20.5002L6.10023 21.0111L6.59997 20.8236L9.19866 19.8483L11.727 19.3608L11.7369 19.3588L11.7468 19.3565L14.0491 18.8146L14.099 18.8028L14.1455 18.7811L16.2268 17.8122L16.2473 17.8027L16.2669 17.7913L19.0354 16.184L21.1925 15.2844L21.7772 15.0405L21.4041 14.5284L16.799 8.20907L15.025 5.71054L14.8755 5.5H14.6173H13.6227Z" fill="#B7B9C3" stroke="#0E416C"/>
<path d="M13.7319 9.04297L16.9791 13.2735L14.5503 13.215L14.0082 11.4027L13.5565 11.5196L12.9045 9.33651L13.7319 9.04297Z" fill="#DCEDF9"/>
<path d="M7.68457 7.53319L5.20728 8.93651L6.91894 9.76205L7.33935 9.6044L7.48199 10.0323L12.6095 8.39571L12.9098 9.4017L13.6756 9.07137V7.24756L7.68457 7.53319Z" fill="#DCEDF9"/>
<path d="M14.1413 13.264L12.6077 8.4043L7.52415 10.0195L7.23853 10.1215L9.48793 14.6692L14.1413 13.264Z" fill="#0063A3"/>
<path d="M4.90698 9.2666L6.76879 10.1379L9.11972 14.8584L7.18786 16.2224L4.90698 9.2666Z" fill="#DCEDF9"/>
<path d="M7.75854 16.3846L9.29199 15.2127L14.4998 13.5723L16.6568 13.7442L12.794 16.4916L10.3008 16.9345L7.75854 16.3846Z" fill="#DCEDF9"/>
<path fill-rule="evenodd" clip-rule="evenodd" d="M14.1637 6.7373V6.99964V8.91386L17.6111 13.3462L17.7715 13.5524L17.5583 13.7036L13.0176 16.9227L12.9725 16.9547L12.918 16.9646L10.3576 17.4324L10.3092 17.4412L10.2609 17.431L7.01582 16.7442L6.8757 16.7146L6.83041 16.5787L4.3304 9.0787L4.26489 8.88219L4.4458 8.7813L7.48739 7.08503L7.53858 7.05648L7.59713 7.05366L13.9017 6.74993L14.1637 6.7373ZM5.20079 8.93274L6.90829 9.71762L7.36038 9.54897L7.53513 10.0174L7.26182 10.1194L9.50908 14.6227L14.0799 13.2658L13.5528 11.5105L14.0317 11.3667L14.5726 13.168L16.9254 13.279L13.7164 9.15312L13.6637 9.08542V8.99964V7.26197L7.67973 7.55026L5.20079 8.93274ZM14.4928 13.6648L14.4626 13.6737L9.45022 15.1618L9.29734 15.2072L7.76049 16.3908L10.3163 16.9317L12.7736 16.4827L16.6078 13.7645L14.4928 13.6648ZM9.02981 14.7821L6.7381 10.1897L4.95448 9.36982L7.22254 16.1739L9.02981 14.7821Z" fill="#009AD9"/>
<path d="M7.94155 9.2138L7.76587 6.84424L8.92713 9.29743L9.11656 11.4019L7.94155 9.2138Z" fill="white"/>
<path d="M9.39673 9.23953L12.1873 5.87958L14.4568 7.81222V10.9364L9.68941 12.3869L9.39673 9.23953Z" fill="white"/>
<path fill-rule="evenodd" clip-rule="evenodd" d="M9.83277 2L7 5.24593L7.25279 9.44225L9.2802 13.347L15.1886 11.5777V7.50894L12.8146 4.47692L9.83277 2ZM7.64786 5.33267L9.83277 2.84277L12.3266 5.09784L12.7185 5.59843L12.1003 5.10641L8.88947 9.01499L9.09819 11.3714L7.96425 9.18745L7.64786 5.33267ZM9.68884 12.3657L14.4635 10.9359V7.82714L12.169 5.85877L9.40996 9.21736L9.68884 12.3657Z" fill="#0E416C"/>
<path fill-rule="evenodd" clip-rule="evenodd" d="M9.11523 9.12345L7.33032 5.28668L9.82658 2.42139L12.105 5.48353L9.11523 9.12345Z" fill="white" stroke="#0E416C" stroke-width="0.5"/>
<path d="M11.5507 10.2485L11.5312 8.39383L12.7807 8.12298V9.92704L11.5507 10.2485Z" fill="white" stroke="#0E416C" stroke-width="0.5"/>
<path d="M12.2056 5.22181L11.7668 4.61182L12.3042 5.08735L12.7108 5.61711L12.2056 5.22181Z" fill="white"/>
</svg>
