<?xml version="1.0" encoding="UTF-8" standalone="no"?>
<!DOCTYPE svg PUBLIC "-//W3C//DTD SVG 1.1//EN" "http://www.w3.org/Graphics/SVG/1.1/DTD/svg11.dtd">
<svg width="100%" height="100%" viewBox="0 0 32 32" version="1.1" xmlns="http://www.w3.org/2000/svg" xmlns:xlink="http://www.w3.org/1999/xlink" xml:space="preserve" xmlns:serif="http://www.serif.com/" style="fill-rule:evenodd;clip-rule:evenodd;stroke-linecap:round;stroke-linejoin:round;stroke-miterlimit:1.5;">
    <g id="lines">
        <path d="M16,14L16,8.5" style="fill:none;stroke:black;stroke-width:1px;"/>
        <path d="M16,18.5L16,25" style="fill:none;stroke:black;stroke-width:1px;"/>
        <path d="M15,16.556L9.185,19.786" style="fill:none;stroke:black;stroke-width:1px;"/>
        <path d="M15,16.556L9.185,19.786" style="fill:none;stroke:black;stroke-width:1px;"/>
        <path d="M24,11.556L18.185,14.786" style="fill:none;stroke:black;stroke-width:1px;"/>
        <path d="M24,11.556L18.185,14.786" style="fill:none;stroke:black;stroke-width:1px;"/>
        <path d="M8,11.556L13.815,14.786" style="fill:none;stroke:black;stroke-width:1px;"/>
        <path d="M17,16.556L22.815,19.786" style="fill:none;stroke:black;stroke-width:1px;"/>
    </g>
    <g id="align">
        <g id="dots">
            <circle cx="16" cy="16" r="2.5" style="fill:rgb(255,211,0);stroke:black;stroke-width:1px;"/>
            <g transform="matrix(1,0,0,1,0,-10)">
                <circle cx="16" cy="16" r="2.5" style="fill:rgb(13,121,242);stroke:black;stroke-width:1px;"/>
            </g>
            <g transform="matrix(1,0,0,1,0,10)">
                <circle cx="16" cy="16" r="2.5" style="fill:rgb(13,121,242);stroke:black;stroke-width:1px;"/>
            </g>
            <g transform="matrix(1,0,0,1,9,4.99996)">
                <circle cx="16" cy="16" r="2.5" style="fill:rgb(0,255,19);stroke:black;stroke-width:1px;"/>
            </g>
            <g transform="matrix(1,-5.55112e-17,5.55112e-17,1,9,-5)">
                <circle cx="16" cy="16" r="2.5" style="fill:rgb(255,0,0);stroke:black;stroke-width:1px;"/>
            </g>
            <g transform="matrix(1,0,0,1,-9,-5.00004)">
                <circle cx="16" cy="16" r="2.5" style="fill:rgb(0,255,19);stroke:black;stroke-width:1px;"/>
            </g>
            <g transform="matrix(1,-5.55112e-17,5.55112e-17,1,-9,4.99996)">
                <circle cx="16" cy="16" r="2.5" style="fill:rgb(255,0,0);stroke:black;stroke-width:1px;"/>
            </g>
        </g>
    </g>
</svg>
