<?xml version="1.0" encoding="UTF-8" standalone="no"?>
<!DOCTYPE svg PUBLIC "-//W3C//DTD SVG 1.1//EN" "http://www.w3.org/Graphics/SVG/1.1/DTD/svg11.dtd">
<svg width="100%" height="100%" viewBox="0 0 32 32" version="1.1" xmlns="http://www.w3.org/2000/svg" xmlns:xlink="http://www.w3.org/1999/xlink" xml:space="preserve" xmlns:serif="http://www.serif.com/" style="fill-rule:evenodd;clip-rule:evenodd;stroke-linejoin:round;stroke-miterlimit:2;">
    <g transform="matrix(1,0,0,1,-42,-84)">
        <g id="batchSave" transform="matrix(1,0,0,1,42,84)">
            <rect x="0" y="0" width="32" height="32" style="fill:none;"/>
            <g transform="matrix(1,0,0,1,1,-1)">
                <g transform="matrix(1,0,0,1,6,-13)">
                    <g transform="matrix(0.5,0,0,0.5,12,-23)">
                        <path d="M16,86L16,100L0,100L0,84L14.003,84L16,86Z" style="fill:rgb(173,174,225);"/>
                        <path d="M18,102L-2,102L-2,82L14.832,82L18,85.172L18,102ZM16,86L14.003,84L0,84L0,100L16,100L16,86Z" style="fill:rgb(140,140,140);"/>
                    </g>
                    <g transform="matrix(0.4,0,0,0.333333,12,-11)">
                        <rect x="5" y="108" width="10" height="6" style="fill:white;"/>
                        <path d="M17.5,117L2.5,117L2.5,105L17.5,105L17.5,117ZM15,108L5,108L5,114L15,114L15,108Z" style="fill:rgb(140,140,140);"/>
                    </g>
                    <g transform="matrix(0.4,0,0,0.5,12,-30)">
                        <rect x="5" y="98" width="10" height="4" style="fill:rgb(191,191,191);"/>
                        <path d="M17.5,104L2.5,104L2.5,96L17.5,96L17.5,104ZM15,98L5,98L5,102L15,102L15,98Z" style="fill:rgb(140,140,140);"/>
                    </g>
                </g>
                <g transform="matrix(1,0,0,1,1,-2)">
                    <g transform="matrix(0.75,0,0,0.75,10,-52)">
                        <path d="M16,86L16,100L0,100L0,84L14.003,84L16,86Z" style="fill:rgb(135,137,212);"/>
                        <path d="M17.333,101.333L-1.333,101.333L-1.333,82.667L14.555,82.667L17.333,85.448L17.333,101.333ZM16,86L14.003,84L0,84L0,100L16,100L16,86Z" style="fill:rgb(77,77,77);"/>
                    </g>
                    <g transform="matrix(0.75,0,0,0.75,8.5,-62.5)">
                        <rect x="5" y="108" width="10" height="6" style="fill:white;"/>
                        <path d="M16.333,115.333L3.667,115.333L3.667,106.667L16.333,106.667L16.333,115.333ZM15,108L5,108L5,114L15,114L15,108Z" style="fill:rgb(77,77,77);"/>
                    </g>
                    <g transform="matrix(0.6,0,0,0.75,10,-62.5)">
                        <rect x="5" y="98" width="10" height="4" style="fill:rgb(191,191,191);"/>
                        <path d="M16.667,103.333L3.333,103.333L3.333,96.667L16.667,96.667L16.667,103.333ZM15,98L5,98L5,102L15,102L15,98Z" style="fill:rgb(77,77,77);"/>
                    </g>
                </g>
                <g transform="matrix(1,0,0,1,-4,9)">
                    <g transform="matrix(1,0,0,1,8,-81)">
                        <path d="M16,86L16,100L0,100L0,84L14.003,84L16,86Z" style="fill:rgb(86,88,194);"/>
                        <path d="M17,101L-1,101L-1,83L14.417,83L17,85.586L17,101ZM16,86L14.003,84L0,84L0,100L16,100L16,86Z"/>
                    </g>
                    <g transform="matrix(1,0,0,1,6,-95)">
                        <rect x="5" y="108" width="10" height="6" style="fill:white;"/>
                        <path d="M16,115L4,115L4,107L16,107L16,115ZM15,108L5,108L5,114L15,114L15,108Z"/>
                    </g>
                    <g transform="matrix(0.8,0,0,1,8,-95)">
                        <rect x="5" y="98" width="10" height="4" style="fill:rgb(191,191,191);"/>
                        <path d="M16.25,103L3.75,103L3.75,97L16.25,97L16.25,103ZM15,98L5,98L5,102L15,102L15,98Z"/>
                    </g>
                </g>
            </g>
        </g>
    </g>
</svg>
