<?xml version="1.0" encoding="UTF-8" standalone="no"?>
<!DOCTYPE svg PUBLIC "-//W3C//DTD SVG 1.1//EN" "http://www.w3.org/Graphics/SVG/1.1/DTD/svg11.dtd">
<svg width="100%" height="100%" viewBox="0 0 32 32" version="1.1" xmlns="http://www.w3.org/2000/svg" xmlns:xlink="http://www.w3.org/1999/xlink" xml:space="preserve" xmlns:serif="http://www.serif.com/" style="fill-rule:evenodd;clip-rule:evenodd;stroke-linecap:round;stroke-linejoin:round;stroke-miterlimit:1.5;">
    <g id="compBox">
        <path d="M17.5,14.5L8,18L13,27L23.534,20.5L17.5,14.5Z" style="fill:none;stroke:rgb(20,40,242);stroke-width:1px;"/>
        <path d="M17.5,5.5L17.5,14.5" style="fill:none;stroke:rgb(20,40,242);stroke-width:1px;"/>
        <g id="boundingBox" transform="matrix(0.7,0,0,0.7,4.8,4.875)">
            <path d="M8,18L13,27L11,15.893L6,8L8,18Z" style="fill:rgb(254,255,254);stroke:rgb(64,64,64);stroke-width:1.43px;"/>
            <path d="M13,27L23.534,20.5L26,11L11,16L13,27Z" style="fill:rgb(254,255,254);stroke:rgb(64,64,64);stroke-width:1.43px;"/>
            <path d="M17.5,5.5L6,8L11,16L26,11L17.5,5.5Z" style="fill:rgb(254,255,254);stroke:rgb(64,64,64);stroke-width:1.43px;"/>
        </g>
        <path d="M17.5,5.5L6,8L11,16L26,11L17.5,5.5Z" style="fill:none;stroke:rgb(20,40,242);stroke-width:1px;"/>
        <path d="M6,8L8,18" style="fill:none;stroke:rgb(20,40,242);stroke-width:1px;"/>
        <path d="M11,16L13,27" style="fill:none;stroke:rgb(20,40,242);stroke-width:1px;"/>
        <path d="M26,11L23.534,20.5" style="fill:none;stroke:rgb(20,40,242);stroke-width:1px;"/>
    </g>
    <g id="search" transform="matrix(1.33333,0,0,1.33333,-11,-11)">
        <g id="Circle" transform="matrix(1.125,0,0,1.125,-3.75,-3.75)">
            <circle cx="26" cy="26" r="4" style="fill:rgb(254,255,254);"/>
        </g>
        <g transform="matrix(0.662913,-0.662913,0.662913,0.662913,-3.80074,26.6932)">
            <circle cx="23" cy="20" r="2" style="fill:none;stroke:black;stroke-width:0.8px;"/>
        </g>
        <g transform="matrix(0.53033,0.53033,-0.707107,0.707107,32.8362,-6.76175)">
            <g id="Subtract">
                <path d="M24.5,28L27.5,28" style="fill:none;stroke:black;stroke-width:0.85px;"/>
            </g>
        </g>
    </g>
</svg>
