<?xml version="1.0" encoding="UTF-8" standalone="no"?>
<!DOCTYPE svg PUBLIC "-//W3C//DTD SVG 1.1//EN" "http://www.w3.org/Graphics/SVG/1.1/DTD/svg11.dtd">
<svg width="100%" height="100%" viewBox="0 0 32 32" version="1.1" xmlns="http://www.w3.org/2000/svg" xmlns:xlink="http://www.w3.org/1999/xlink" xml:space="preserve" xmlns:serif="http://www.serif.com/" style="fill-rule:evenodd;clip-rule:evenodd;stroke-linecap:round;stroke-linejoin:round;">
    <g transform="matrix(0.75,0,0,0.75,4,4.5)">
        <g id="flat" transform="matrix(1,0,0,1,0,2.66667)">
            <path d="M30,30L2,30L9,18L23,18L30,30Z" style="fill:none;stroke:white;stroke-width:2.67px;"/>
            <path d="M30,30L2,30L9,18L23,18L30,30Z" style="fill:rgb(94,191,64);stroke:black;stroke-width:1.33px;"/>
            <path d="M6.089,22.99L25.911,22.99" style="fill:none;stroke:black;stroke-width:0.5px;"/>
            <g transform="matrix(1.17714,0,0,1,-2.8342,3.00963)">
                <path d="M6.089,22.99L25.911,22.99" style="fill:none;stroke:black;stroke-width:0.5px;"/>
            </g>
            <g transform="matrix(1,0,0,1,4,0)">
                <path d="M9,18L5,30" style="fill:none;stroke:black;stroke-width:0.5px;"/>
            </g>
            <g transform="matrix(-1,0,0,1,28,0)">
                <path d="M9,18L5,30" style="fill:none;stroke:black;stroke-width:0.5px;"/>
            </g>
            <path d="M7.766,20.116L24.222,20.116" style="fill:none;stroke:black;stroke-width:0.5px;"/>
            <path d="M16,18L16,30" style="fill:none;stroke:black;stroke-width:0.5px;"/>
        </g>
        <g id="redArrow" transform="matrix(-1.33333,1.63286e-16,-1.63286e-16,-1.33333,24,40)">
            <g transform="matrix(1,0,0,1,-10,0)">
                <path d="M16,10L12,17L14,17L14,22L18,22L18,17L20,17L16,10Z" style="fill:none;stroke:rgb(254,255,254);stroke-width:3px;stroke-miterlimit:1.5;"/>
            </g>
            <g transform="matrix(1,0,0,1,-10,0)">
                <path d="M16,10L12,17L14,17L14,22L18,22L18,17L20,17L16,10Z" style="fill:rgb(250,3,6);stroke:black;stroke-width:1px;stroke-miterlimit:1.5;"/>
            </g>
        </g>
        <g id="displace" transform="matrix(1,0,0,1,0,-3)">
            <g transform="matrix(1,0,0,1,0,-16)">
                <path d="M30,31L22.866,30L16.019,28L9,32L2,30L3.333,26L6.194,22.81L8.766,20.116L9,18L13,19L19,17L23,18L25.155,19.981L25.806,22.81L26.667,26L30,31Z" style="fill:none;stroke:white;stroke-width:2.67px;"/>
            </g>
            <g transform="matrix(1,0,0,1,0,-16)">
                <path d="M30,31L22.866,30L16.019,28L9,32L2,30L3.333,26L6.194,22.81L8.766,20.116L9,18L13,19L19,17L23,18L25.155,19.981L25.806,22.81L26.667,26L30,31Z" style="fill:rgb(173,181,248);stroke:black;stroke-width:1.33px;"/>
            </g>
            <path d="M16,2L17,4L16,9L16,12" style="fill:none;stroke:black;stroke-width:0.5px;"/>
            <g transform="matrix(1,0,0,1,-3,1)">
                <path d="M16,2L16,5L14.237,7.729L12,11L12,15" style="fill:none;stroke:black;stroke-width:0.5px;"/>
            </g>
            <g transform="matrix(1,0,0,1,3,-1)">
                <path d="M16,2L18,5L18,11L19.777,14.974" style="fill:none;stroke:black;stroke-width:0.5px;"/>
            </g>
            <path d="M3.333,10L9,12L16,9L21,10L26.667,10" style="fill:none;stroke:black;stroke-width:0.5px;"/>
            <path d="M8.766,4.116L13,6L17,4L21,4L25.155,3.981" style="fill:none;stroke:black;stroke-width:0.5px;"/>
            <path d="M5.8,7.249L11.237,8.729L16.46,6.701L21,6.897L25.857,7" style="fill:none;stroke:black;stroke-width:0.5px;"/>
        </g>
    </g>
</svg>
