<?xml version="1.0" encoding="UTF-8" standalone="no"?><!DOCTYPE svg PUBLIC "-//W3C//DTD SVG 1.1//EN" "http://www.w3.org/Graphics/SVG/1.1/DTD/svg11.dtd"><svg width="100%" height="100%" viewBox="0 0 16 16" version="1.1" xmlns="http://www.w3.org/2000/svg" xmlns:xlink="http://www.w3.org/1999/xlink" xml:space="preserve" xmlns:serif="http://www.serif.com/" style="fill-rule:evenodd;clip-rule:evenodd;stroke-linecap:round;stroke-linejoin:round;stroke-miterlimit:1.5;"><rect id="Artboard-1" serif:id="Artboard#1" x="0" y="0" width="15.36" height="15.36" style="fill:none;"/><g id="Artboard-11" serif:id="Artboard#1"><g><path d="M5.476,1.269l-4.262,11.019l7.377,1.803l1.502,-6.735l3.382,0.62l0.671,-5.157l-8.67,-1.55Z" style="fill:none;stroke:#fff;stroke-width:1px;"/><g><path d="M5.476,1.269l8.67,1.518l-2.031,0.855l-4.565,-0.823l-2.074,-1.55Z" style="fill:#f2f2f2;"/><path d="M1.214,12.288l4.409,-3.369l1.927,-6.1l-2.074,-1.55l-4.262,11.019Z" style="fill:#8c8c8c;"/><path d="M5.623,8.919l2.968,5.172l1.502,-6.735l3.382,0.62l-1.36,-4.334l-4.565,-0.823l-1.927,6.1Z" style="fill:#d9d9d9;"/><path d="M12.115,3.642l2.031,-0.855l-0.671,5.189l-1.36,-4.334Z" style="fill:#f2f2f2;"/><path d="M1.214,12.288l4.409,-3.369l2.968,5.172l-7.377,-1.803Z" style="fill:#a6a6a6;"/></g><path d="M1.214,12.288l7.377,1.803l1.502,-6.735l3.382,0.62l0.671,-5.189l-8.67,-1.518l-4.262,11.019Z" style="fill:none;stroke:#000;stroke-width:0.5px;"/><path d="M1.214,12.288l4.409,-3.369l2.968,5.172" style="fill:none;stroke:#000;stroke-width:0.24px;"/><path d="M13.475,7.976l-1.36,-4.334l2.031,-0.855" style="fill:none;stroke:#000;stroke-width:0.24px;"/><path d="M12.115,3.642l-4.565,-0.823l-1.927,6.1" style="fill:none;stroke:#000;stroke-width:0.24px;"/><path d="M5.476,1.269l2.074,1.55l2.543,4.537" style="fill:none;stroke:#000;stroke-width:0.24px;"/></g></g></svg>