<?xml version="1.0" encoding="UTF-8" standalone="no"?>
<!DOCTYPE svg PUBLIC "-//W3C//DTD SVG 1.1//EN" "http://www.w3.org/Graphics/SVG/1.1/DTD/svg11.dtd">
<svg width="100%" height="100%" viewBox="0 0 32 32" version="1.1" xmlns="http://www.w3.org/2000/svg" xmlns:xlink="http://www.w3.org/1999/xlink" xml:space="preserve" xmlns:serif="http://www.serif.com/" style="fill-rule:evenodd;clip-rule:evenodd;stroke-linecap:round;stroke-linejoin:round;stroke-miterlimit:1.5;">
    <g id="boundingBox" transform="matrix(1.34375,0,0,1.34375,-7.72414,-6.74939)">
        <g id="sphere" transform="matrix(0.641439,0,0,0.641439,0.787574,4.601)">
            <g transform="matrix(0.957952,0,0,0.427432,13.8784,13.5027)">
                <circle cx="9" cy="17" r="5.219" style="fill:rgb(163,163,163);"/>
            </g>
            <g transform="matrix(1,0,0,1,13.7805,-0.780531)">
                <path d="M9,10.781C5.567,10.781 2.781,13.567 2.781,17C2.781,20.433 5.567,23.219 9,23.219C12.433,23.219 15.219,20.433 15.219,17C15.219,13.567 12.433,10.781 9,10.781ZM9,11.781C11.881,11.781 14.219,14.119 14.219,17C14.219,19.881 11.881,22.219 9,22.219C6.119,22.219 3.781,19.881 3.781,17C3.781,14.119 6.119,11.781 9,11.781Z" style="fill:rgb(89,89,89);"/>
            </g>
            <g transform="matrix(1,0,0,1,13.7805,-0.780531)">
                <circle cx="9" cy="17" r="5.219" style="fill:rgb(194,215,240);"/>
            </g>
            <path d="M25.937,12.063C27.19,13.017 28,14.524 28,16.219C28,19.1 25.661,21.439 22.781,21.439C21.086,21.439 19.578,20.629 18.624,19.376C19.501,20.043 20.595,20.439 21.781,20.439C24.661,20.439 27,18.1 27,15.219C27,14.034 26.604,12.94 25.937,12.063Z" style="fill:rgb(194,199,240);"/>
            <g transform="matrix(0.892388,0,0,0.892388,1.33598,0.690306)">
                <circle cx="21" cy="15" r="1" style="fill:rgb(249,250,250);"/>
            </g>
        </g>
        <g transform="matrix(1,0,0,1,-1.35294,-3.37255)">
            <path d="M23.534,20.5L13,27L11,16L26,11L23.534,20.5" style="fill:rgb(174,202,240);fill-opacity:0.36;stroke:rgb(24,23,22);stroke-width:0.74px;"/>
        </g>
    </g>
    <g id="sphere1" serif:id="sphere" transform="matrix(1.12059,0,0,1.12059,-3.49708,3.22645)">
        <g transform="matrix(0.957952,0,0,0.427432,13.8784,13.5027)">
            <circle cx="9" cy="17" r="5.219" style="fill:rgb(114,114,114);"/>
        </g>
        <g transform="matrix(1,0,0,1,13.7805,-0.780531)">
            <path d="M9,10.781C5.567,10.781 2.781,13.567 2.781,17C2.781,20.433 5.567,23.219 9,23.219C12.433,23.219 15.219,20.433 15.219,17C15.219,13.567 12.433,10.781 9,10.781ZM9,11.781C11.881,11.781 14.219,14.119 14.219,17C14.219,19.881 11.881,22.219 9,22.219C6.119,22.219 3.781,19.881 3.781,17C3.781,14.119 6.119,11.781 9,11.781Z"/>
        </g>
        <g transform="matrix(1,0,0,1,13.7805,-0.780531)">
            <circle cx="9" cy="17" r="5.219" style="fill:rgb(51,123,204);"/>
        </g>
        <path d="M25.937,12.063C27.19,13.017 28,14.524 28,16.219C28,19.1 25.661,21.439 22.781,21.439C21.086,21.439 19.578,20.629 18.624,19.376C19.501,20.043 20.595,20.439 21.781,20.439C24.661,20.439 27,18.1 27,15.219C27,14.034 26.604,12.94 25.937,12.063Z" style="fill:rgb(51,69,204);"/>
        <g transform="matrix(0.892388,0,0,0.892388,1.33598,0.690306)">
            <circle cx="21" cy="15" r="1" style="fill:rgb(120,175,232);"/>
        </g>
    </g>
</svg>
