<?xml version="1.0" encoding="UTF-8" standalone="no"?>
<!DOCTYPE svg PUBLIC "-//W3C//DTD SVG 1.1//EN" "http://www.w3.org/Graphics/SVG/1.1/DTD/svg11.dtd">
<svg width="100%" height="100%" viewBox="0 0 32 32" version="1.1" xmlns="http://www.w3.org/2000/svg" xmlns:xlink="http://www.w3.org/1999/xlink" xml:space="preserve" xmlns:serif="http://www.serif.com/" style="fill-rule:evenodd;clip-rule:evenodd;stroke-linecap:round;stroke-linejoin:round;stroke-miterlimit:1.5;">
    <g id="moveToOrigin" transform="matrix(0.846154,0,0,0.846154,4.46154,4.46154)">
        <circle cx="16" cy="16" r="2.5" style="fill:rgb(254,255,254);stroke:rgb(254,255,254);stroke-width:3.55px;"/>
        <g id="redArrow" transform="matrix(0.666667,0,0,0.666667,12,14.3333)">
            <g transform="matrix(1,0,0,1,-10,0)">
                <path d="M16,10L12,17L14,17L14,22L18,22L18,17L20,17L16,10Z" style="fill:none;stroke:rgb(254,255,254);stroke-width:5.32px;"/>
            </g>
            <g transform="matrix(1,0,0,1,-10,0)">
                <path d="M16,10L12,17L14,17L14,22L18,22L18,17L20,17L16,10Z" style="fill:rgb(250,3,6);stroke:black;stroke-width:1.77px;"/>
            </g>
        </g>
        <g id="redArrow1" serif:id="redArrow" transform="matrix(0.666667,0,0,-0.666667,12,17.6667)">
            <g transform="matrix(1,0,0,1,-10,0)">
                <path d="M16,10L12,17L14,17L14,22L18,22L18,17L20,17L16,10Z" style="fill:none;stroke:rgb(254,255,254);stroke-width:5.32px;"/>
            </g>
            <g transform="matrix(1,0,0,1,-10,0)">
                <path d="M16,10L12,17L14,17L14,22L18,22L18,17L20,17L16,10Z" style="fill:rgb(250,3,6);stroke:black;stroke-width:1.77px;"/>
            </g>
        </g>
        <g id="redArrow2" serif:id="redArrow" transform="matrix(4.08216e-17,-0.666667,0.666667,4.08216e-17,14.3333,20)">
            <g transform="matrix(1,0,0,1,-10,0)">
                <path d="M16,10L12,17L14,17L14,22L18,22L18,17L20,17L16,10Z" style="fill:none;stroke:rgb(254,255,254);stroke-width:5.32px;"/>
            </g>
            <g transform="matrix(1,0,0,1,-10,0)">
                <path d="M16,10L12,17L14,17L14,22L18,22L18,17L20,17L16,10Z" style="fill:rgb(250,3,6);stroke:black;stroke-width:1.77px;"/>
            </g>
        </g>
        <g id="redArrow3" serif:id="redArrow" transform="matrix(-4.08216e-17,0.666667,-0.666667,-4.08216e-17,17.6667,12)">
            <g transform="matrix(1,0,0,1,-10,0)">
                <path d="M16,10L12,17L14,17L14,22L18,22L18,17L20,17L16,10Z" style="fill:none;stroke:rgb(254,255,254);stroke-width:5.32px;"/>
            </g>
            <g transform="matrix(1,0,0,1,-10,0)">
                <path d="M16,10L12,17L14,17L14,22L18,22L18,17L20,17L16,10Z" style="fill:rgb(250,3,6);stroke:black;stroke-width:1.77px;"/>
            </g>
        </g>
        <circle cx="16" cy="16" r="2.5" style="fill:rgb(255,211,0);stroke:black;stroke-width:1.18px;"/>
    </g>
    <g id="cursor_pointer" transform="matrix(-3.70693e-18,-0.0605388,-0.0605388,3.70693e-18,33.3691,34.1185)">
        <g transform="matrix(-1.62957e-15,-26.6129,-26.6129,1.62957e-15,592.029,579.651)">
            <path d="M2,2L4,8L5,5L8,4L2,2Z" style="stroke:rgb(254,255,254);stroke-width:1.86px;stroke-linecap:butt;"/>
        </g>
        <g transform="matrix(-1.62957e-15,-26.6129,-26.6129,1.62957e-15,592.029,579.651)">
            <path d="M2,2L4,8L5,5L8,4L2,2Z"/>
        </g>
    </g>
</svg>
