<?xml version="1.0" encoding="UTF-8" standalone="no"?>
<!DOCTYPE svg PUBLIC "-//W3C//DTD SVG 1.1//EN" "http://www.w3.org/Graphics/SVG/1.1/DTD/svg11.dtd">
<svg width="100%" height="100%" viewBox="0 0 32 32" version="1.1" xmlns="http://www.w3.org/2000/svg" xmlns:xlink="http://www.w3.org/1999/xlink" xml:space="preserve" xmlns:serif="http://www.serif.com/" style="fill-rule:evenodd;clip-rule:evenodd;stroke-linecap:round;stroke-linejoin:round;stroke-miterlimit:1.5;">
    <path d="M16,4L16,28" style="fill:none;stroke:rgb(254,255,254);stroke-width:2.53px;"/>
    <g transform="matrix(0.5,0.866025,-0.866025,0.5,21.8564,-5.85641)">
        <path d="M16,4L16,28" style="fill:none;stroke:rgb(254,255,254);stroke-width:2.53px;"/>
    </g>
    <g transform="matrix(-0.5,0.866025,-0.866025,-0.5,37.8564,10.1436)">
        <path d="M16,4L16,28" style="fill:none;stroke:rgb(254,255,254);stroke-width:2.53px;"/>
    </g>
    <g transform="matrix(1,0,0,0.5,0,2)">
        <path d="M16,4L16,28" style="fill:none;stroke:rgb(0,12,255);stroke-width:2.53px;"/>
    </g>
    <g transform="matrix(0.5,-0.866025,0.433013,0.25,6.26795,28.8564)">
        <path d="M16,4L16,28" style="fill:none;stroke:rgb(250,3,6);stroke-width:2.53px;"/>
    </g>
    <path d="M15.5,28L15.5,28C15.5,28.276 15.724,28.5 16,28.5C16.276,28.5 16.5,28.276 16.5,28L16.5,28C16.5,27.724 16.276,27.5 16,27.5C15.724,27.5 15.5,27.724 15.5,28ZM15.5,26L15.5,26C15.5,26.276 15.724,26.5 16,26.5C16.276,26.5 16.5,26.276 16.5,26L16.5,26C16.5,25.724 16.276,25.5 16,25.5C15.724,25.5 15.5,25.724 15.5,26ZM15.5,24L15.5,24C15.5,24.276 15.724,24.5 16,24.5C16.276,24.5 16.5,24.276 16.5,24L16.5,24C16.5,23.724 16.276,23.5 16,23.5C15.724,23.5 15.5,23.724 15.5,24ZM15.5,22L15.5,22C15.5,22.276 15.724,22.5 16,22.5C16.276,22.5 16.5,22.276 16.5,22L16.5,22C16.5,21.724 16.276,21.5 16,21.5C15.724,21.5 15.5,21.724 15.5,22ZM15.5,20L15.5,20C15.5,20.276 15.724,20.5 16,20.5C16.276,20.5 16.5,20.276 16.5,20L16.5,20C16.5,19.724 16.276,19.5 16,19.5C15.724,19.5 15.5,19.724 15.5,20Z" style="fill:rgb(0,12,255);stroke:rgb(0,12,255);stroke-width:0.5px;stroke-linecap:butt;stroke-miterlimit:2;"/>
    <path d="M12.286,14.433C12.286,14.433 12.286,14.433 12.286,14.433C12.525,14.571 12.831,14.489 12.969,14.25C13.107,14.011 13.025,13.705 12.786,13.567C12.786,13.567 12.786,13.567 12.786,13.567C12.547,13.429 12.241,13.511 12.103,13.75C11.965,13.989 12.047,14.295 12.286,14.433ZM10.554,13.433C10.554,13.433 10.554,13.433 10.554,13.433C10.793,13.571 11.099,13.489 11.237,13.25C11.375,13.011 11.293,12.705 11.054,12.567C11.054,12.567 11.054,12.567 11.054,12.567C10.815,12.429 10.509,12.511 10.371,12.75C10.233,12.989 10.315,13.295 10.554,13.433ZM8.822,12.433C8.822,12.433 8.822,12.433 8.822,12.433C9.061,12.571 9.367,12.489 9.505,12.25C9.643,12.011 9.561,11.705 9.322,11.567C9.322,11.567 9.322,11.567 9.322,11.567C9.083,11.429 8.777,11.511 8.639,11.75C8.501,11.989 8.583,12.295 8.822,12.433ZM7.09,11.433C7.09,11.433 7.09,11.433 7.09,11.433C7.329,11.571 7.635,11.489 7.773,11.25C7.911,11.011 7.829,10.705 7.59,10.567C7.59,10.567 7.59,10.567 7.59,10.567C7.351,10.429 7.045,10.511 6.907,10.75C6.769,10.989 6.851,11.295 7.09,11.433ZM5.358,10.433C5.358,10.433 5.358,10.433 5.358,10.433C5.597,10.571 5.903,10.489 6.041,10.25C6.179,10.011 6.097,9.705 5.858,9.567C5.858,9.567 5.858,9.567 5.858,9.567C5.619,9.429 5.313,9.511 5.175,9.75C5.037,9.989 5.119,10.295 5.358,10.433Z" style="fill:rgb(250,3,6);stroke:rgb(250,3,6);stroke-width:0.5px;stroke-linecap:butt;stroke-miterlimit:2;"/>
    <path d="M5.358,21.567C5.358,21.567 5.358,21.567 5.358,21.567C5.119,21.705 5.037,22.011 5.175,22.25C5.313,22.489 5.619,22.571 5.858,22.433C5.858,22.433 5.858,22.433 5.858,22.433C6.097,22.295 6.179,21.989 6.041,21.75C5.903,21.511 5.597,21.429 5.358,21.567ZM7.09,20.567C7.09,20.567 7.09,20.567 7.09,20.567C6.851,20.705 6.769,21.011 6.907,21.25C7.045,21.489 7.351,21.571 7.59,21.433C7.59,21.433 7.59,21.433 7.59,21.433C7.829,21.295 7.911,20.989 7.773,20.75C7.635,20.511 7.329,20.429 7.09,20.567ZM8.822,19.567C8.822,19.567 8.822,19.567 8.822,19.567C8.583,19.705 8.501,20.011 8.639,20.25C8.777,20.489 9.083,20.571 9.322,20.433C9.322,20.433 9.322,20.433 9.322,20.433C9.561,20.295 9.643,19.989 9.505,19.75C9.367,19.511 9.061,19.429 8.822,19.567ZM10.554,18.567C10.554,18.567 10.554,18.567 10.554,18.567C10.315,18.705 10.233,19.011 10.371,19.25C10.509,19.489 10.815,19.571 11.054,19.433C11.054,19.433 11.054,19.433 11.054,19.433C11.293,19.295 11.375,18.989 11.237,18.75C11.099,18.511 10.793,18.429 10.554,18.567ZM12.286,17.567C12.286,17.567 12.286,17.567 12.286,17.567C12.047,17.705 11.965,18.011 12.103,18.25C12.241,18.489 12.547,18.571 12.786,18.433C12.786,18.433 12.786,18.433 12.786,18.433C13.025,18.295 13.107,17.989 12.969,17.75C12.831,17.511 12.525,17.429 12.286,17.567Z" style="fill:rgb(11,145,8);stroke:rgb(11,145,8);stroke-width:0.5px;stroke-linecap:butt;stroke-miterlimit:2;"/>
    <g transform="matrix(-0.5,-0.866025,-0.433013,0.25,36.1244,22.8564)">
        <path d="M16,4L16,28" style="fill:none;stroke:rgb(11,145,8);stroke-width:2.53px;"/>
    </g>
    <g transform="matrix(0.833333,0,0,0.833333,2.66667,2.66667)">
        <circle cx="16" cy="16" r="3" style="fill:rgb(252,228,14);stroke:black;stroke-width:1.2px;"/>
    </g>
</svg>
