<?xml version="1.0" encoding="UTF-8" standalone="no"?>
<!DOCTYPE svg PUBLIC "-//W3C//DTD SVG 1.1//EN" "http://www.w3.org/Graphics/SVG/1.1/DTD/svg11.dtd">
<svg width="100%" height="100%" viewBox="0 0 32 32" version="1.1" xmlns="http://www.w3.org/2000/svg" xmlns:xlink="http://www.w3.org/1999/xlink" xml:space="preserve" xmlns:serif="http://www.serif.com/" style="fill-rule:evenodd;clip-rule:evenodd;stroke-linecap:round;stroke-linejoin:round;stroke-miterlimit:1.5;">
    <g id="ruler">
        <g transform="matrix(1,0,0,1.16667,0,-0.666667)">
            <rect x="4" y="4" width="24" height="6" style="fill:rgb(255,228,0);"/>
        </g>
        <path d="M3.5,11.5L28.5,11.5" style="fill:none;stroke:black;stroke-width:1px;"/>
        <path d="M3.5,3.5L28.5,3.5" style="fill:none;stroke:black;stroke-width:1px;"/>
        <path d="M5.5,3.5L5.5,8.5" style="fill:none;stroke:black;stroke-width:1px;"/>
        <path d="M26.5,3.5L26.5,8.5" style="fill:none;stroke:black;stroke-width:1px;"/>
        <path d="M16,3.5L16,8.5" style="fill:none;stroke:black;stroke-width:1px;"/>
        <path d="M10.5,3.5L10.5,6.5" style="fill:none;stroke:black;stroke-width:1px;"/>
        <path d="M21.5,3.5L21.5,6.5" style="fill:none;stroke:black;stroke-width:1px;"/>
        <path d="M13,3.5L13,5" style="fill:none;stroke:black;stroke-width:1px;"/>
        <path d="M8,3.5L8,5" style="fill:none;stroke:black;stroke-width:1px;"/>
        <path d="M19,3.5L19,5" style="fill:none;stroke:black;stroke-width:1px;"/>
        <path d="M24,3.5L24,5" style="fill:none;stroke:black;stroke-width:1px;"/>
    </g>
    <g transform="matrix(1,0,0,1,0,0.5)">
        <path d="M16,14L16,27" style="fill:none;stroke:rgb(254,255,254);stroke-width:3px;"/>
    </g>
    <g transform="matrix(1,0,0,1,0,0.5)">
        <path d="M16,14L16,17" style="fill:none;stroke:black;stroke-width:1px;"/>
    </g>
    <g transform="matrix(1,0,0,1,0,0.5)">
        <path d="M16,19L16,22" style="fill:none;stroke:black;stroke-width:1px;"/>
    </g>
    <g transform="matrix(1,0,0,1,0,0.5)">
        <path d="M16,24L16,27" style="fill:none;stroke:black;stroke-width:1px;"/>
    </g>
    <path d="M13,16L13,26L4,21L13,16Z" style="fill:rgb(94,191,64);stroke:black;stroke-width:1px;"/>
    <g transform="matrix(-1,0,0,1,32,0)">
        <path d="M13,16L13,26L4,21L13,16Z" style="fill:rgb(94,191,64);stroke:black;stroke-width:1px;"/>
    </g>
</svg>
