<?xml version="1.0" encoding="UTF-8" standalone="no"?>
<!DOCTYPE svg PUBLIC "-//W3C//DTD SVG 1.1//EN" "http://www.w3.org/Graphics/SVG/1.1/DTD/svg11.dtd">
<svg width="100%" height="100%" viewBox="0 0 64 64" version="1.1" xmlns="http://www.w3.org/2000/svg" xmlns:xlink="http://www.w3.org/1999/xlink" xml:space="preserve" xmlns:serif="http://www.serif.com/" style="fill-rule:evenodd;clip-rule:evenodd;stroke-linejoin:round;">
    <g transform="matrix(1,0,0,1,-150.066,0)">
        <g id="pipe" transform="matrix(1,0,0,1,150.066,0)">
            <rect x="0" y="0" width="64" height="64" style="fill:none;"/>
            <g transform="matrix(0.1258,0,0,0.1258,-0.152932,0.158971)">
                <path d="M287.36,275.81C287.335,277.243 287.309,278.677 287.284,280.11C287.225,283.443 287.168,286.776 287.109,290.109C286.992,296.775 286.875,303.44 286.758,310.106C286.349,333.436 285.938,356.765 285.529,380.095C285.412,386.761 285.295,393.426 285.178,400.092C285.12,403.425 285.061,406.757 285.003,410.09C284.366,413.362 283.729,416.634 283.092,419.906C282.439,423.259 279.84,425.915 278.178,428.9C274.343,435.789 266.419,440.887 260.129,445.152C238.954,459.509 209.931,464.435 184.764,463.687C163.794,463.064 137.118,458.583 120.62,444.346C115.736,440.131 107.658,432.426 106.312,425.707C105.644,422.371 104.637,415.639 104.637,415.639C104.421,413.042 104.205,410.446 103.989,407.849C103.437,401.205 102.884,394.562 102.332,387.918C100.675,367.987 99.018,348.055 97.361,328.124C92.101,264.85 79.05,196.173 110.441,137.19C118.992,121.123 130.114,106.238 142.43,92.946C149.269,85.565 162.705,76.207 169.875,70.578C172.982,68.139 176.786,66.749 180.241,64.834C201.07,53.29 223.348,46.866 246.872,43.74C277.846,39.623 309.967,46.394 340.657,50.215C357.196,52.274 373.735,54.334 390.274,56.393C400.852,57.71 410.182,58.282 420.055,62.385C424.398,64.19 427.774,69.134 430.095,73.247C438.886,88.824 442.086,105.345 442.882,123.156C444.434,157.9 437.8,192.76 425.51,225.207C416.269,249.605 403.655,273.106 383.35,290.019C367.826,302.95 352.119,295.386 335.221,290.278C317.548,284.936 299.876,279.592 282.203,274.251C272.631,271.358 263.058,268.465 253.486,265.571C250.295,264.606 247.105,263.642 243.914,262.677C240.723,261.713 237.533,260.748 234.342,259.784" style="fill:white;fill-rule:nonzero;stroke:white;stroke-width:47.69px;"/>
            </g>
            <g transform="matrix(0.1258,0,0,0.1258,-0.152932,0.158971)">
                <path d="M287.36,275.81C287.335,277.243 287.309,278.677 287.284,280.11C287.225,283.443 287.168,286.776 287.109,290.109C286.992,296.775 286.875,303.44 286.758,310.106C286.349,333.436 285.938,356.765 285.529,380.095C285.412,386.761 285.295,393.426 285.178,400.092C285.12,403.425 285.061,406.757 285.003,410.09C284.366,413.362 283.729,416.634 283.092,419.906C282.439,423.259 279.84,425.915 278.178,428.9C274.343,435.789 266.419,440.887 260.129,445.152C238.954,459.509 209.931,464.435 184.764,463.687C163.794,463.064 137.118,458.583 120.62,444.346C115.736,440.131 107.658,432.426 106.312,425.707C105.644,422.371 104.637,415.639 104.637,415.639C104.421,413.042 104.205,410.446 103.989,407.849C103.437,401.205 102.884,394.562 102.332,387.918C100.675,367.987 99.018,348.055 97.361,328.124C92.101,264.85 79.05,196.173 110.441,137.19C118.992,121.123 130.114,106.238 142.43,92.946C149.269,85.565 162.705,76.207 169.875,70.578C172.982,68.139 176.786,66.749 180.241,64.834C201.07,53.29 223.348,46.866 246.872,43.74C277.846,39.623 309.967,46.394 340.657,50.215C357.196,52.274 373.735,54.334 390.274,56.393C400.852,57.71 410.182,58.282 420.055,62.385C424.398,64.19 427.774,69.134 430.095,73.247C438.886,88.824 442.086,105.345 442.882,123.156C444.434,157.9 437.8,192.76 425.51,225.207C416.269,249.605 403.655,273.106 383.35,290.019C367.826,302.95 352.119,295.386 335.221,290.278C317.548,284.936 299.876,279.592 282.203,274.251C272.631,271.358 263.058,268.465 253.486,265.571C250.295,264.606 247.105,263.642 243.914,262.677C240.723,261.713 237.533,260.748 234.342,259.784" style="fill:rgb(217,217,217);fill-rule:nonzero;"/>
            </g>
            <g transform="matrix(1,0,0,1,-74.3725,0)">
                <path d="M91.383,56.058C91.383,56.058 91.469,57.849 89.394,56.058C88.779,55.528 87.763,54.558 87.594,53.713C87.51,53.293 87.383,52.446 87.383,52.446L86.468,41.437C85.806,33.477 84.164,24.838 88.113,17.417C89.189,15.396 90.588,13.524 92.137,11.852C92.998,10.923 94.688,9.746 95.59,9.038C95.981,8.731 96.459,8.556 96.894,8.315C99.514,6.863 102.317,6.055 105.276,5.661C106.824,5.456 108.395,5.466 109.969,5.584C109.737,5.605 109.506,5.631 109.276,5.661C106.317,6.055 103.514,6.863 100.894,8.315C100.459,8.556 99.981,8.731 99.59,9.038C98.688,9.746 96.998,10.923 96.137,11.852C94.588,13.524 93.189,15.396 92.113,17.417C88.164,24.838 89.806,33.477 90.468,41.437L91.383,56.058Z" style="fill:rgb(243,243,243);fill-rule:nonzero;"/>
            </g>
            <g transform="matrix(1,0,0,1,-74.3725,0)">
                <path d="M104.195,32.234C104.195,32.234 104.191,32.147 104.184,31.998C104.141,31.054 104.544,30.144 105.273,29.542C106.002,28.94 106.972,28.716 107.891,28.938C110.941,29.673 114.671,30.573 114.671,30.573L115.747,35.412L104.195,32.234Z" style="fill:rgb(177,177,177);"/>
            </g>
            <g transform="matrix(0.1258,0,0,0.1258,-0.152932,0.158971)">
                <path d="M287.36,275.81C287.335,277.243 287.309,278.677 287.284,280.11C287.225,283.443 287.168,286.776 287.109,290.109C286.992,296.775 286.875,303.44 286.758,310.106C286.349,333.436 285.938,356.765 285.529,380.095C285.412,386.761 285.295,393.426 285.178,400.092C285.12,403.425 285.061,406.757 285.003,410.09C284.366,413.362 283.729,416.634 283.092,419.906C282.439,423.259 279.84,425.915 278.178,428.9C274.343,435.789 266.419,440.887 260.129,445.152C238.954,459.509 209.931,464.435 184.764,463.687C163.794,463.064 137.118,458.583 120.62,444.346C115.736,440.131 107.658,432.426 106.312,425.707C105.644,422.371 104.637,415.639 104.637,415.639C104.421,413.042 104.205,410.446 103.989,407.849C103.437,401.205 102.884,394.562 102.332,387.918C100.675,367.987 99.018,348.055 97.361,328.124C92.101,264.85 79.05,196.173 110.441,137.19C118.992,121.123 130.114,106.238 142.43,92.946C149.269,85.565 162.705,76.207 169.875,70.578C172.982,68.139 176.786,66.749 180.241,64.834C201.07,53.29 223.348,46.866 246.872,43.74C277.846,39.623 309.967,46.394 340.657,50.215C357.196,52.274 373.735,54.334 390.274,56.393C400.852,57.71 410.182,58.282 420.055,62.385C424.398,64.19 427.774,69.134 430.095,73.247C438.886,88.824 442.086,105.345 442.882,123.156C444.434,157.9 437.8,192.76 425.51,225.207C416.269,249.605 403.655,273.106 383.35,290.019C367.826,302.95 352.119,295.386 335.221,290.278C317.548,284.936 299.876,279.592 282.203,274.251C272.631,271.358 263.058,268.465 253.486,265.571C250.295,264.606 247.105,263.642 243.914,262.677C240.723,261.713 237.533,260.748 234.342,259.784" style="fill:none;fill-rule:nonzero;stroke:black;stroke-width:15.9px;"/>
            </g>
            <g transform="matrix(0.1258,0,0,0.1258,-0.152932,0.158971)">
                <path d="M410.121,58.864C410.121,58.864 402.314,58.547 398.93,60.177C389.54,64.701 381.433,70.142 374.564,78.138C354.249,101.784 340.839,134.289 334.333,164.507C329.147,188.596 326.942,211.769 327.417,236.36C327.562,243.845 328.438,252.942 330.548,260.073C333.329,269.473 336.059,276.568 341.212,284.878C344.93,290.874 345.561,290.065 351.058,294.515C351.419,294.808 351.781,295.1 352.142,295.393" style="fill:none;fill-rule:nonzero;stroke:black;stroke-width:15.9px;"/>
            </g>
        </g>
    </g>
</svg>
