<?xml version="1.0" encoding="UTF-8" standalone="no"?>
<!DOCTYPE svg PUBLIC "-//W3C//DTD SVG 1.1//EN" "http://www.w3.org/Graphics/SVG/1.1/DTD/svg11.dtd">
<svg width="100%" height="100%" viewBox="0 0 32 32" version="1.1" xmlns="http://www.w3.org/2000/svg" xmlns:xlink="http://www.w3.org/1999/xlink" xml:space="preserve" xmlns:serif="http://www.serif.com/" style="fill-rule:evenodd;clip-rule:evenodd;stroke-linecap:round;">
    <g id="dice" transform="matrix(1.33928,0,0,1.33928,-5.44024,-5.42845)">
        <path d="M11.869,16.027L24.847,11.47L22.703,20.476L13.187,25.192L11.869,16.027Z" style="fill:rgb(140,140,140);"/>
        <path d="M7.171,9.131L9.249,17.742L13.215,25.192L11.869,16.027L7.171,9.131Z" style="fill:rgb(179,179,179);"/>
        <path d="M7.171,9.131L11.851,16L24.847,11.47L17.543,6.808L7.171,9.131Z" style="fill:white;"/>
        <g transform="matrix(0.698708,0,0,0.698708,4.82332,4.82067)">
            <path d="M2.066,5.413L5.327,18.876L11.556,30.576L26.513,23.14L29.873,9.025L18.403,1.703L2.066,5.413ZM6.334,18.493L3.36,6.215L18.204,2.844L28.658,9.517L25.589,22.405L12.011,29.156L6.334,18.493Z"/>
            <path d="M3.36,6.168L10.084,16.038L28.658,9.517" style="fill:none;stroke:black;stroke-width:1.07px;"/>
            <path d="M10.084,16.038L11.971,29.156" style="fill:none;stroke:black;stroke-width:1.07px;"/>
        </g>
        <g id="dots" transform="matrix(0.746671,0,0,0.746671,4.06207,4.05326)">
            <path d="M23.064,18.815C23.922,18.815 24.387,19.508 24.101,20.361C23.815,21.214 22.887,21.907 22.029,21.907C21.171,21.907 20.706,21.214 20.992,20.361C21.278,19.508 22.206,18.815 23.064,18.815ZM16.284,17.053C17.141,17.053 17.606,17.746 17.32,18.6C17.034,19.453 16.106,20.146 15.248,20.146C14.39,20.146 13.926,19.453 14.211,18.6C14.497,17.746 15.426,17.053 16.284,17.053ZM7.762,16.169C8.064,16.169 8.475,16.714 8.68,17.384C8.885,18.055 8.807,18.6 8.505,18.6C8.204,18.6 7.792,18.055 7.587,17.384C7.382,16.714 7.46,16.169 7.762,16.169ZM13.461,10.459C14.618,10.459 15.558,10.943 15.558,11.539C15.558,12.134 14.618,12.618 13.461,12.618C12.303,12.618 11.364,12.134 11.364,11.539C11.364,10.943 12.303,10.459 13.461,10.459ZM21.072,8.186C22.124,8.186 22.978,8.626 22.978,9.167C22.978,9.708 22.124,10.148 21.072,10.148C20.021,10.148 19.167,9.708 19.167,9.167C19.167,8.626 20.021,8.186 21.072,8.186ZM9.527,7.512C10.414,7.512 11.135,7.883 11.135,8.34C11.135,8.796 10.414,9.167 9.527,9.167C8.64,9.167 7.92,8.796 7.92,8.34C7.92,7.883 8.64,7.512 9.527,7.512ZM16.863,5.528C17.69,5.528 18.361,5.873 18.361,6.299C18.361,6.724 17.69,7.07 16.863,7.07C16.036,7.07 15.365,6.724 15.365,6.299C15.365,5.873 16.036,5.528 16.863,5.528Z"/>
        </g>
    </g>
    <g id="cursor_rotate.svg" transform="matrix(0.75,0,0,0.75,22,22)">
        <g transform="matrix(1,0,0,1,-12,-12)">
            <circle cx="12" cy="12" r="11" style="fill:white;"/>
            <g id="Stroke-24799" transform="matrix(1,0,0,1,5,5.5)">
                <path d="M9.766,3.658L12.94,0.484L13.469,4.188L9.766,3.658Z" style="fill:none;stroke:black;stroke-width:1.75px;"/>
            </g>
            <g id="Stroke-24801" transform="matrix(1,0,0,1,5,5.5)">
                <path d="M4.469,9.029L1.295,12.203L0.766,8.5L4.469,9.029Z" style="fill:none;stroke:black;stroke-width:1.75px;"/>
            </g>
            <g id="Stroke-24802" transform="matrix(1,0,0,1,5,5.5)">
                <path d="M2.875,10.624C4.282,12.039 6.295,12.66 8.248,12.282C10.202,11.903 11.841,10.574 12.625,8.734" style="fill:none;stroke:black;stroke-width:2.88px;stroke-linejoin:round;"/>
            </g>
            <g id="Stroke-24803" transform="matrix(1,0,0,1,5,5.5)">
                <path d="M11.359,2.158C9.953,0.742 7.94,0.121 5.986,0.5C4.033,0.878 2.393,2.207 1.609,4.047" style="fill:none;stroke:black;stroke-width:2.88px;stroke-linejoin:round;"/>
            </g>
            <path d="M8.81,15.63L10.132,14.308L5.397,13.632L6.074,18.366L7.481,16.958C9.076,18.393 11.251,19.012 13.372,18.618C13.372,18.618 13.372,18.618 13.372,18.618C15.615,18.2 17.509,16.703 18.435,14.614C18.645,14.141 18.431,13.587 17.958,13.377C17.485,13.168 16.931,13.381 16.721,13.854C16.046,15.378 14.665,16.47 13.029,16.774C11.516,17.056 9.965,16.629 8.81,15.63ZM15.403,8.079L14.103,9.379L18.837,10.056L18.161,5.321L16.731,6.751C15.134,5.3 12.947,4.673 10.815,5.07C10.815,5.07 10.815,5.07 10.815,5.07C8.573,5.487 6.679,6.984 5.752,9.073C5.543,9.546 5.756,10.1 6.229,10.31C6.702,10.52 7.257,10.306 7.466,9.833C8.142,8.31 9.523,7.218 11.158,6.913C12.683,6.63 14.245,7.064 15.403,8.079Z" style="fill:rgb(255,0,0);"/>
        </g>
    </g>
</svg>
