<?xml version="1.0" encoding="UTF-8" standalone="no"?><!DOCTYPE svg PUBLIC "-//W3C//DTD SVG 1.1//EN" "http://www.w3.org/Graphics/SVG/1.1/DTD/svg11.dtd"><svg width="100%" height="100%" viewBox="0 0 32 32" version="1.1" xmlns="http://www.w3.org/2000/svg" xmlns:xlink="http://www.w3.org/1999/xlink" xml:space="preserve" xmlns:serif="http://www.serif.com/" style="fill-rule:evenodd;clip-rule:evenodd;stroke-linecap:round;"><g id="dice"><path d="M10.456,16.036l17.38,-6.102l-2.871,12.06l-12.744,6.317l-1.765,-12.275Z" style="fill:#8c8c8c;"/><path d="M4.164,6.8l2.783,11.533l5.312,9.978l-1.803,-12.275l-6.292,-9.236Z" style="fill:#b3b3b3;"/><path d="M4.164,6.8l6.268,9.2l17.404,-6.066l-9.782,-6.245l-13.89,3.111Z" style="fill:#fff;"/><g><path d="M2.953,6.093l3.052,12.598l5.828,10.948l13.996,-6.958l3.145,-13.207l-10.734,-6.853l-15.287,3.472Zm3.994,12.24l-2.783,-11.489l13.89,-3.155l9.782,6.245l-2.871,12.06l-12.706,6.317l-5.312,-9.978Z"/><path d="M4.164,6.8l6.292,9.236l17.38,-6.102" style="fill:none;stroke:#000;stroke-width:1px;"/><path d="M10.456,16.036l1.765,12.275" style="fill:none;stroke:#000;stroke-width:1px;"/></g><path id="dots" d="M23.064,18.815c0.858,-0 1.323,0.693 1.037,1.546c-0.286,0.853 -1.214,1.546 -2.072,1.546c-0.858,0 -1.323,-0.693 -1.037,-1.546c0.286,-0.853 1.214,-1.546 2.072,-1.546Zm-6.78,-1.762c0.857,0 1.322,0.693 1.036,1.547c-0.286,0.853 -1.214,1.546 -2.072,1.546c-0.858,-0 -1.322,-0.693 -1.037,-1.546c0.286,-0.854 1.215,-1.547 2.073,-1.547Zm-8.522,-0.884c0.302,0 0.713,0.545 0.918,1.215c0.205,0.671 0.127,1.216 -0.175,1.216c-0.301,-0 -0.713,-0.545 -0.918,-1.216c-0.205,-0.67 -0.127,-1.215 0.175,-1.215Zm5.699,-5.71c1.157,0 2.097,0.484 2.097,1.08c-0,0.595 -0.94,1.079 -2.097,1.079c-1.158,0 -2.097,-0.484 -2.097,-1.079c-0,-0.596 0.939,-1.08 2.097,-1.08Zm7.611,-2.273c1.052,0 1.906,0.44 1.906,0.981c0,0.541 -0.854,0.981 -1.906,0.981c-1.051,-0 -1.905,-0.44 -1.905,-0.981c-0,-0.541 0.854,-0.981 1.905,-0.981Zm-11.545,-0.674c0.887,0 1.608,0.371 1.608,0.828c-0,0.456 -0.721,0.827 -1.608,0.827c-0.887,-0 -1.607,-0.371 -1.607,-0.827c-0,-0.457 0.72,-0.828 1.607,-0.828Zm7.336,-1.984c0.827,-0 1.498,0.345 1.498,0.771c-0,0.425 -0.671,0.771 -1.498,0.771c-0.827,-0 -1.498,-0.346 -1.498,-0.771c0,-0.426 0.671,-0.771 1.498,-0.771Z"/></g></svg>