<?xml version="1.0" encoding="UTF-8" standalone="no"?>
<!DOCTYPE svg PUBLIC "-//W3C//DTD SVG 1.1//EN" "http://www.w3.org/Graphics/SVG/1.1/DTD/svg11.dtd">
<svg width="100%" height="100%" viewBox="0 0 32 32" version="1.1" xmlns="http://www.w3.org/2000/svg" xmlns:xlink="http://www.w3.org/1999/xlink" xml:space="preserve" xmlns:serif="http://www.serif.com/" style="fill-rule:evenodd;clip-rule:evenodd;stroke-linecap:round;stroke-linejoin:round;stroke-miterlimit:1.5;">
    <g transform="matrix(1,0,0,1,0,-42)">
        <g id="scatter" transform="matrix(1,0,0,1,0,42)">
            <rect x="0" y="0" width="32" height="32" style="fill:none;"/>
            <g transform="matrix(1,0,0,1,0,-42)">
                <circle cx="16" cy="57" r="3" style="fill:rgb(184,41,142);stroke:black;stroke-width:1px;"/>
            </g>
            <g transform="matrix(1,0,0,1,-8,-46)">
                <circle cx="16" cy="57" r="3" style="fill:rgb(164,111,206);stroke:black;stroke-width:1px;"/>
            </g>
            <g transform="matrix(1,0,0,1,10,-52)">
                <circle cx="16" cy="57" r="3" style="fill:rgb(235,89,70);stroke:black;stroke-width:1px;"/>
            </g>
            <g transform="matrix(1,0,0,1,-4,-31)">
                <circle cx="16" cy="57" r="3" style="fill:rgb(174,149,212);stroke:black;stroke-width:1px;"/>
            </g>
            <g transform="matrix(0.666667,0,0,0.666667,-1.66667,-19)">
                <circle cx="16" cy="57" r="3" style="fill:rgb(0,142,112);stroke:black;stroke-width:1.5px;"/>
            </g>
            <g transform="matrix(0.666667,0,0,0.666667,6.33333,-32)">
                <circle cx="16" cy="57" r="3" style="fill:rgb(47,113,207);stroke:black;stroke-width:1.5px;"/>
            </g>
            <g transform="matrix(0.666667,0,0,0.666667,-6.66667,-34)">
                <circle cx="16" cy="57" r="3" style="fill:rgb(255,173,0);stroke:black;stroke-width:1.5px;"/>
            </g>
            <g transform="matrix(0.833333,0,0,0.833333,14.1667,-20)">
                <circle cx="16" cy="57" r="3" style="fill:rgb(251,161,189);stroke:black;stroke-width:1.2px;"/>
            </g>
            <g transform="matrix(0.833333,0,0,0.833333,-8.83333,-23)">
                <circle cx="16" cy="57" r="3" style="fill:rgb(191,220,0);stroke:black;stroke-width:1.2px;"/>
            </g>
            <g transform="matrix(0.666667,0,0,0.666667,13.3333,-26)">
                <circle cx="16" cy="57" r="3" style="fill:rgb(0,195,91);stroke:black;stroke-width:1.5px;"/>
            </g>
            <g transform="matrix(0.666667,0,0,0.666667,8.33333,-16)">
                <circle cx="16" cy="57" r="3" style="fill:rgb(244,231,55);stroke:black;stroke-width:1.5px;"/>
            </g>
            <g transform="matrix(1,0,0,1,10,-38)">
                <circle cx="16" cy="57" r="3" style="fill:rgb(86,163,168);stroke:black;stroke-width:1px;"/>
            </g>
        </g>
    </g>
</svg>
