<?xml version="1.0" encoding="UTF-8" standalone="no"?>
<!DOCTYPE svg PUBLIC "-//W3C//DTD SVG 1.1//EN" "http://www.w3.org/Graphics/SVG/1.1/DTD/svg11.dtd">
<svg width="100%" height="100%" viewBox="0 0 32 32" version="1.1" xmlns="http://www.w3.org/2000/svg" xmlns:xlink="http://www.w3.org/1999/xlink" xml:space="preserve" xmlns:serif="http://www.serif.com/" style="fill-rule:evenodd;clip-rule:evenodd;stroke-linejoin:round;stroke-miterlimit:2;">
    <g transform="matrix(-1,1.22465e-16,-1.22465e-16,-1,33.3047,32)">
        <g id="Cursor" transform="matrix(0.460781,-1.2528,1.2528,0.460781,-116.059,302.938)">
            <g id="cursor" transform="matrix(0.958801,-5.55112e-17,5.55112e-17,0.958801,233.161,14.985)">
                <path d="M1.401,-0.127L0.956,12.26L3.842,9.532L5.462,13.937L7.42,13.217L5.8,8.812L9.766,9.02L1.401,-0.127Z" style="stroke:rgb(254,255,254);stroke-width:1.56px;"/>
            </g>
            <g id="cursor1" serif:id="cursor" transform="matrix(0.958801,0,0,0.958801,233.161,14.985)">
                <path d="M1.401,-0.127L0.956,12.26L3.842,9.532L5.462,13.937L7.42,13.217L5.8,8.812L9.766,9.02L1.401,-0.127Z"/>
            </g>
        </g>
        <path d="M6,6L6,26" style="fill:none;stroke:rgb(254,255,254);stroke-width:4px;stroke-linecap:round;stroke-miterlimit:1.5;"/>
        <path d="M6,6L6,26" style="fill:none;stroke:rgb(20,40,242);stroke-width:2px;stroke-linecap:round;stroke-miterlimit:1.5;"/>
    </g>
</svg>
