<?xml version="1.0" encoding="UTF-8" standalone="no"?>
<!DOCTYPE svg PUBLIC "-//W3C//DTD SVG 1.1//EN" "http://www.w3.org/Graphics/SVG/1.1/DTD/svg11.dtd">
<svg width="100%" height="100%" viewBox="0 0 32 32" version="1.1" xmlns="http://www.w3.org/2000/svg" xmlns:xlink="http://www.w3.org/1999/xlink" xml:space="preserve" xmlns:serif="http://www.serif.com/" style="fill-rule:evenodd;clip-rule:evenodd;stroke-linejoin:round;stroke-miterlimit:2;">
    <g transform="matrix(1,0,0,1,2.01041,-2)">
        <g transform="matrix(1,0,0,1,0,8)">
            <path d="M16,10L19,22L13,22L16,10Z" style="fill:rgb(242,13,13);"/>
            <path d="M16.245,9.939C16.217,9.826 16.116,9.747 16,9.747C15.884,9.747 15.783,9.826 15.755,9.939C15.755,9.939 14.413,14.771 13.463,18.291C12.92,20.298 12.509,21.877 12.509,21.877C12.471,22.028 12.505,22.189 12.601,22.312C12.697,22.435 12.844,22.506 13,22.506L19,22.502C19.155,22.502 19.3,22.431 19.396,22.309C19.491,22.187 19.524,22.028 19.487,21.878C19.487,21.878 19.071,20.3 18.528,18.293C17.577,14.774 16.245,9.939 16.245,9.939ZM16.001,11.153C16.372,12.799 17.093,15.99 17.672,18.507C17.961,19.764 18.215,20.852 18.366,21.498C18.366,21.498 13.641,21.494 13.641,21.494C13.794,20.848 14.049,19.763 14.337,18.509C14.916,15.992 15.633,12.8 16.001,11.154L16.001,11.153Z" style="fill:rgb(30,40,23);"/>
        </g>
        <g transform="matrix(0.647059,0.647059,-0.647059,0.647059,10.8235,0.470588)">
            <path d="M16,10L19,22L13,22L16,10Z" style="fill:rgb(243,255,29);"/>
            <path d="M16.268,9.933C16.237,9.81 16.127,9.724 16,9.724C15.873,9.724 15.763,9.81 15.732,9.933C15.732,9.933 14.379,14.763 13.422,18.28C12.876,20.287 12.463,21.866 12.463,21.866C12.422,22.031 12.459,22.206 12.564,22.341C12.669,22.475 12.83,22.553 13,22.553L19,22.548C19.169,22.548 19.328,22.471 19.432,22.337C19.536,22.204 19.573,22.031 19.532,21.867C19.532,21.867 19.114,20.289 18.568,18.283C17.61,14.766 16.268,9.933 16.268,9.933ZM16.001,11.273C16.376,12.949 17.071,16.055 17.632,18.517C17.911,19.738 18.157,20.799 18.309,21.451C18.309,21.451 13.699,21.447 13.699,21.447C13.853,20.795 14.1,19.737 14.378,18.52C14.94,16.057 15.63,12.95 16.001,11.273L16.001,11.273Z" style="fill:rgb(30,40,23);"/>
        </g>
        <g transform="matrix(0,0.85863,-0.85863,0,22.869,2.26193)">
            <path d="M16,10L19,22L13,22L16,10Z" style="fill:rgb(0,251,4);"/>
            <path d="M16.285,9.929C16.253,9.798 16.135,9.706 16,9.706C15.865,9.706 15.747,9.798 15.715,9.929C15.715,9.929 14.353,14.756 13.39,18.273C12.842,20.278 12.428,21.857 12.428,21.857C12.384,22.033 12.423,22.22 12.535,22.363C12.647,22.506 12.818,22.59 13,22.59L19,22.584C19.18,22.584 19.35,22.501 19.461,22.36C19.571,22.218 19.611,22.033 19.567,21.858C19.567,21.858 19.148,20.281 18.599,18.275C17.636,14.759 16.285,9.929 16.285,9.929ZM16.001,11.367C16.377,13.063 17.053,16.105 17.601,18.525C17.872,19.718 18.112,20.76 18.264,21.415C18.264,21.415 13.745,21.411 13.745,21.411C13.898,20.756 14.14,19.717 14.41,18.527C14.958,16.107 15.629,13.064 16.001,11.367L16.001,11.367Z" style="fill:rgb(30,40,23);"/>
        </g>
        <g transform="matrix(-0.558824,0.558824,-0.558824,-0.558824,29.4118,11.5294)">
            <path d="M16,10L19,22L13,22L16,10Z" style="fill:rgb(26,232,255);"/>
            <path d="M16.31,9.923C16.274,9.78 16.147,9.68 16,9.68C15.853,9.68 15.726,9.78 15.69,9.923C15.69,9.923 14.315,14.746 13.346,18.262C12.794,20.266 12.378,21.845 12.378,21.845C12.33,22.036 12.374,22.239 12.495,22.394C12.616,22.55 12.803,22.641 13,22.641L19,22.635C19.196,22.635 19.38,22.545 19.5,22.391C19.621,22.237 19.663,22.036 19.616,21.846C19.616,21.846 19.194,20.269 18.642,18.265C17.672,14.75 16.31,9.923 16.31,9.923ZM16.002,11.502C16.379,13.221 17.028,16.174 17.558,18.535C17.818,19.692 18.05,20.706 18.201,21.364C18.202,21.364 13.808,21.36 13.808,21.36C13.961,20.702 14.195,19.691 14.454,18.538C14.984,16.176 15.629,13.221 16.002,11.502L16.002,11.502Z" style="fill:rgb(30,40,23);"/>
        </g>
        <g transform="matrix(-0.714286,0,0,-0.714286,27.4286,21.7143)">
            <path d="M16,10L19,22L13,22L16,10Z" style="fill:rgb(30,26,255);"/>
            <path d="M16.343,9.914C16.304,9.757 16.162,9.646 16,9.646C15.838,9.646 15.696,9.757 15.657,9.914C15.657,9.914 14.266,14.733 13.288,18.247C12.73,20.25 12.312,21.828 12.312,21.828C12.259,22.04 12.307,22.264 12.441,22.436C12.576,22.608 12.782,22.709 13,22.709L19,22.702C19.216,22.702 19.421,22.603 19.554,22.432C19.687,22.262 19.734,22.039 19.682,21.83C19.682,21.83 19.257,20.254 18.699,18.25C17.721,14.737 16.343,9.914 16.343,9.914ZM16.002,11.687C16.378,13.427 16.994,16.265 17.501,18.55C17.747,19.659 17.968,20.638 18.118,21.297C18.118,21.297 13.892,21.292 13.892,21.292C14.044,20.633 14.267,19.659 14.512,18.553C15.02,16.268 15.63,13.427 16.002,11.686L16.002,11.687Z" style="fill:rgb(30,40,23);"/>
        </g>
        <g transform="matrix(-0.470588,-0.470588,0.470588,-0.470588,19.7647,27.2941)">
            <path d="M16,10L19,22L13,22L16,10Z" style="fill:rgb(247,26,255);"/>
            <path d="M16.368,9.908C16.326,9.739 16.174,9.621 16,9.621C15.826,9.621 15.674,9.739 15.632,9.908C15.632,9.908 14.228,14.723 13.243,18.236C12.681,20.238 12.262,21.815 12.262,21.815C12.205,22.043 12.256,22.284 12.4,22.468C12.544,22.653 12.766,22.761 13,22.761L19,22.754C19.232,22.754 19.451,22.647 19.594,22.464C19.737,22.281 19.788,22.042 19.731,21.817C19.731,21.817 19.305,20.242 18.743,18.239C17.758,14.727 16.368,9.908 16.368,9.908ZM16.003,11.831C16.377,13.582 16.967,16.334 17.457,18.561C17.693,19.636 17.906,20.587 18.055,21.245C18.055,21.245 13.956,21.24 13.956,21.24C14.107,20.583 14.322,19.635 14.557,18.564C15.048,16.336 15.633,13.582 16.002,11.83L16.003,11.831Z" style="fill:rgb(30,40,23);"/>
        </g>
        <g transform="matrix(0,-0.571429,0.571429,0,11.4286,25.1429)">
            <path d="M16,10L19,22L13,22L16,10Z" style="fill:rgb(255,26,26);"/>
            <path d="M16.429,9.893C16.38,9.696 16.203,9.558 16,9.558C15.797,9.558 15.62,9.696 15.571,9.893C15.571,9.893 14.136,14.699 13.134,18.209C12.563,20.209 12.14,21.785 12.14,21.785C12.074,22.05 12.134,22.33 12.301,22.545C12.469,22.76 12.727,22.886 13,22.886L19,22.878C19.27,22.878 19.526,22.754 19.692,22.54C19.859,22.327 19.917,22.049 19.852,21.787C19.852,21.787 19.421,20.213 18.849,18.213C17.847,14.704 16.429,9.893 16.429,9.893ZM16.003,12.192C16.368,13.947 16.902,16.498 17.351,18.587C17.565,19.582 17.76,20.472 17.904,21.12C17.904,21.12 14.11,21.115 14.11,21.115C14.256,20.468 14.453,19.582 14.666,18.591C15.115,16.502 15.643,13.949 16.003,12.193L16.003,12.192Z" style="fill:rgb(30,40,23);"/>
        </g>
    </g>
</svg>
