<?xml version="1.0" encoding="UTF-8" standalone="no"?>
<!DOCTYPE svg PUBLIC "-//W3C//DTD SVG 1.1//EN" "http://www.w3.org/Graphics/SVG/1.1/DTD/svg11.dtd">
<svg width="100%" height="100%" viewBox="0 0 32 32" version="1.1" xmlns="http://www.w3.org/2000/svg" xmlns:xlink="http://www.w3.org/1999/xlink" xml:space="preserve" xmlns:serif="http://www.serif.com/" style="fill-rule:evenodd;clip-rule:evenodd;stroke-linejoin:round;stroke-miterlimit:2;">
    <g id="sphere" transform="matrix(0.249599,0,0,0.249599,-0.470518,-0.11999)">
        <g id="sphereShadowGround" transform="matrix(0.992753,0,0,1.23388,0.803102,-27.2866)">
            <ellipse cx="74.459" cy="113.42" rx="36.364" ry="3.247" style="fill:rgb(86,86,86);"/>
        </g>
        <g id="sphereBG">
            <g transform="matrix(0.985474,0,0,0.985474,0.289271,2.08474)">
                <circle cx="66.667" cy="63.42" r="46.753" style="fill:rgb(140,130,104);"/>
            </g>
            <g id="sphereShadow" transform="matrix(4.00642,0,0,4.00642,1.8851,0.480731)">
                <path d="M21.735,6.058C25.166,8.044 27.477,11.754 27.477,16C27.477,22.334 22.334,27.477 16,27.477C13.837,27.477 11.813,26.877 10.084,25.835C11.334,26.292 12.683,26.541 14.089,26.541C20.53,26.541 25.759,21.313 25.759,14.872C25.759,11.354 24.199,8.198 21.735,6.058Z" style="fill:rgb(94,88,70);"/>
            </g>
            <g transform="matrix(0.983509,0,0,0.983509,0.420258,2.20935)">
                <path d="M66.667,12.5C38.563,12.5 15.747,35.316 15.747,63.42C15.747,91.523 38.563,114.34 66.667,114.34C94.77,114.34 117.587,91.523 117.587,63.42C117.587,35.316 94.77,12.5 66.667,12.5ZM66.667,16.667C92.47,16.667 113.42,37.616 113.42,63.42C113.42,89.224 92.47,110.173 66.667,110.173C40.863,110.173 19.913,89.224 19.913,63.42C19.913,37.616 40.863,16.667 66.667,16.667Z"/>
            </g>
        </g>
        <path id="sphereHighlight" d="M44.301,33.761C47.574,34.851 49.05,39.279 47.596,43.643C46.142,48.006 42.304,50.663 39.032,49.573C35.759,48.482 34.283,44.054 35.737,39.691C37.191,35.327 41.029,32.67 44.301,33.761Z" style="fill:rgb(190,184,167);"/>
    </g>
</svg>
