<?xml version="1.0" encoding="UTF-8" standalone="no"?>
<!DOCTYPE svg PUBLIC "-//W3C//DTD SVG 1.1//EN" "http://www.w3.org/Graphics/SVG/1.1/DTD/svg11.dtd">
<svg width="100%" height="100%" viewBox="0 0 32 32" version="1.1" xmlns="http://www.w3.org/2000/svg" xmlns:xlink="http://www.w3.org/1999/xlink" xml:space="preserve" xmlns:serif="http://www.serif.com/" style="fill-rule:evenodd;clip-rule:evenodd;stroke-linecap:round;stroke-miterlimit:1.5;">
    <g transform="matrix(1,0,0,1,-126,-168)">
        <g id="spinView" transform="matrix(1,0,0,1,126,168)">
            <rect x="0" y="0" width="32" height="32" style="fill:none;"/>
            <g transform="matrix(-1.51497,2.01996,-2.01996,-1.51497,13.615,14.7174)">
                <path d="M-0.64,0.059C-0.604,-0.028 -0.456,-0.376 -0.454,-0.379C-0.271,-0.562 -0.259,-0.562 -0,-0.569C0.262,-0.576 0.272,-0.564 0.458,-0.379C0.857,0.021 0.535,0.617 0.494,0.692C-0.346,2.246 -3.277,0.947 -2.412,-1.438C-1.759,-3.24 0.506,-3.669 2.048,-2.404C4.682,-0.245 2.624,4.502 -1.322,3.913C-4.356,3.46 -6.129,0.151 -4.646,-2.86C-3.082,-6.036 1.152,-6.77 3.935,-4.228C5.869,-2.461 5.808,-0.039 5.792,0.004C5.723,0.192 5.701,0.417 5.559,0.559C5.555,0.564 4.999,0.793 4.996,0.792C4.811,0.715 4.584,0.701 4.442,0.559C4.121,0.239 4.227,0.182 4.201,-0.271C3.989,-3.888 -0.514,-5.587 -2.797,-2.976C-4.309,-1.248 -3.907,1.41 -1.839,2.296C0.249,3.192 2.067,1.549 1.831,-0.204C1.619,-1.789 -0.611,-2.417 -1.166,-0.982C-1.39,-0.404 -1.1,0.028 -0.683,0.06C-0.664,0.061 -0.649,0.057 -0.64,0.059Z" style="fill:white;"/>
            </g>
            <g transform="matrix(-1.51497,2.01996,-2.01996,-1.51497,13.615,14.7174)">
                <path d="M5,0C5,-2.761 2.761,-5 -0,-5C-2.455,-5 -4.444,-3.01 -4.444,-0.556C-4.444,1.548 -2.739,3.254 -0.635,3.254C1.118,3.254 2.54,1.833 2.54,0.079C2.54,-1.323 1.403,-2.46 -0,-2.46C-1.052,-2.46 -1.905,-1.608 -1.905,-0.556C-1.905,0.146 -1.336,0.714 -0.635,0.714C-0.284,0.714 0,0.43 -0,0.079" style="fill:none;stroke:black;stroke-width:0.79px;"/>
            </g>
        </g>
    </g>
</svg>
