<?xml version="1.0" encoding="UTF-8" standalone="no"?>
<!DOCTYPE svg PUBLIC "-//W3C//DTD SVG 1.1//EN" "http://www.w3.org/Graphics/SVG/1.1/DTD/svg11.dtd">
<svg width="100%" height="100%" viewBox="0 0 32 32" version="1.1" xmlns="http://www.w3.org/2000/svg" xmlns:xlink="http://www.w3.org/1999/xlink" xml:space="preserve" xmlns:serif="http://www.serif.com/" style="fill-rule:evenodd;clip-rule:evenodd;stroke-linecap:round;stroke-linejoin:round;stroke-miterlimit:1.5;">
    <g id="compBox">
        <path d="M17.5,14.5L8,18L13,27L23.534,20.5L17.5,14.5Z" style="fill:none;stroke:rgb(92,87,93);stroke-width:1px;"/>
        <path d="M17.5,5.5L17.5,14.5" style="fill:none;stroke:rgb(92,87,93);stroke-width:1px;"/>
        <g id="boundingBox" transform="matrix(0.7,0,0,0.7,4.8,4.875)">
            <path d="M8,18L13,27L11,15.893L6,8L8,18Z" style="fill:rgb(254,255,254);stroke:rgb(64,64,64);stroke-width:1.43px;"/>
            <path d="M17.5,5.5L6,8L11,16L26,11L17.5,5.5Z" style="fill:rgb(254,255,254);stroke:rgb(64,64,64);stroke-width:1.43px;"/>
            <path d="M13,27L23.534,20.5L26,11L11,16L13,27Z" style="fill:rgb(109,126,247);stroke:rgb(20,40,242);stroke-width:1.43px;"/>
        </g>
        <path d="M26,11L17.5,5.5L6,8" style="fill:none;stroke:rgb(92,87,93);stroke-width:1px;"/>
        <path d="M6,8L8,18" style="fill:none;stroke:rgb(92,87,93);stroke-width:1px;"/>
        <path d="M26,11L23.534,20.5" style="fill:none;stroke:rgb(92,87,93);stroke-width:1px;"/>
        <g id="remove" transform="matrix(1.19565,0,0,1.19565,-8.0163,-7.71739)">
            <g transform="matrix(0.836365,0,0,0.836365,5.86819,5.61819)">
                <circle cx="24" cy="24" r="6" style="fill:rgb(255,0,0);stroke:rgb(254,255,254);stroke-width:1px;"/>
            </g>
            <g transform="matrix(0.836365,0,0,0.836365,5.86819,5.61819)">
                <path d="M21,24L27,24" style="fill:none;stroke:rgb(254,255,254);stroke-width:2px;"/>
            </g>
        </g>
    </g>
    <g transform="matrix(-0.454286,0.46269,0.46269,0.454286,9.69067,-4.75217)">
        <g>
            <g id="Stroke-28344" transform="matrix(1.42262,0,0,1.42262,3.2393,3.33998)">
                <path d="M11.575,1.593L17.242,9.579C18.238,11.674 14.478,16.633 11.027,15.779C11.027,15.779 11.241,16.076 2.995,10.365" style="fill:rgb(115,127,140);stroke:black;stroke-width:0.7px;stroke-linejoin:miter;stroke-miterlimit:4;"/>
            </g>
            <g id="Stroke-28346" transform="matrix(1.42262,0,-1.11022e-16,1.42262,3.2393,3.33998)">
                <path d="M12.892,3.449C12.968,3.539 16.284,8.229 16.284,8.229C16.284,8.229 17.415,8.983 15.792,11.48L11.957,7.541C14.058,4.564 12.892,3.449 12.892,3.449Z" style="fill:white;stroke:black;stroke-width:0.5px;stroke-miterlimit:4;"/>
            </g>
            <path id="Stroke-283441" serif:id="Stroke-28344" d="M19.715,5.619L8.5,17.085C20.231,25.209 19.927,24.787 19.927,24.787C21.973,25.294 24.096,24.363 25.774,22.889C23.998,24.905 21.406,26.401 18.927,25.787C18.927,25.787 19.231,26.209 7.5,18.085L19.705,5.606L19.715,5.619Z" style="fill:rgb(92,101,112);"/>
            <g id="Stroke-283442" serif:id="Stroke-28344" transform="matrix(1.42262,0,0,1.42262,3.2393,3.33998)">
                <path d="M11.575,1.593L17.242,9.579C18.238,11.674 14.478,16.633 11.027,15.779C11.027,15.779 11.241,16.076 2.995,10.365" style="fill:none;stroke:black;stroke-width:0.7px;stroke-linejoin:miter;stroke-miterlimit:4;"/>
            </g>
        </g>
        <g>
            <g id="Stroke-28340" transform="matrix(1.42262,0,0,1.42262,3.2393,3.33998)">
                <path d="M11.872,4.418C11.139,7.09 8.379,9.85 5.707,10.583C3.035,11.316 1.463,9.744 2.196,7.072C2.929,4.4 5.689,1.64 8.361,0.907C11.034,0.174 12.605,1.746 11.872,4.418" style="fill:rgb(115,127,140);stroke:black;stroke-width:0.7px;stroke-linejoin:miter;stroke-miterlimit:4;"/>
            </g>
            <g id="Stroke-28342" transform="matrix(1.35189,0,0,1.35189,3.74019,3.73953)">
                <path d="M11.088,4.371C10.381,6.583 8.016,8.949 5.804,9.655C3.592,10.361 2.371,9.14 3.077,6.928C3.783,4.716 6.149,2.35 8.361,1.644C10.573,0.938 11.794,2.159 11.088,4.371" style="fill:rgb(255,228,0);stroke:black;stroke-width:0.35px;stroke-miterlimit:4;"/>
            </g>
            <path id="Stroke-283421" serif:id="Stroke-28342" d="M10.539,17.029C8.227,17.317 7.063,15.725 7.9,13.105C8.854,10.115 12.052,6.917 15.043,5.962C15.824,5.712 16.514,5.641 17.09,5.725C16.763,5.765 16.413,5.844 16.043,5.962C13.052,6.917 9.854,10.115 8.9,13.105C8.194,15.314 8.911,16.792 10.539,17.029Z" style="fill:rgb(90,109,106);"/>
            <g id="Stroke-283422" serif:id="Stroke-28342" transform="matrix(1.35189,0,0,1.35189,3.74019,3.73953)">
                <path d="M11.088,4.371C10.381,6.583 8.016,8.949 5.804,9.655C3.592,10.361 2.371,9.14 3.077,6.928C3.783,4.716 6.149,2.35 8.361,1.644C10.573,0.938 11.794,2.159 11.088,4.371" style="fill:none;stroke:black;stroke-width:0.35px;stroke-miterlimit:4;"/>
            </g>
        </g>
    </g>
</svg>
