<?xml version="1.0" encoding="UTF-8" standalone="no"?>
<!DOCTYPE svg PUBLIC "-//W3C//DTD SVG 1.1//EN" "http://www.w3.org/Graphics/SVG/1.1/DTD/svg11.dtd">
<svg width="100%" height="100%" viewBox="0 0 32 32" version="1.1" xmlns="http://www.w3.org/2000/svg" xmlns:xlink="http://www.w3.org/1999/xlink" xml:space="preserve" xmlns:serif="http://www.serif.com/" style="fill-rule:evenodd;clip-rule:evenodd;stroke-linecap:round;stroke-linejoin:round;stroke-miterlimit:1.5;">
    <g id="compBox">
        <path d="M17.5,14.5L8,18L13,27L23.534,20.5L17.5,14.5Z" style="fill:none;stroke:rgb(20,40,242);stroke-width:1px;"/>
        <path d="M17.5,5.5L17.5,14.5" style="fill:none;stroke:rgb(20,40,242);stroke-width:1px;"/>
        <g id="cubeBox-00" transform="matrix(0.7,0,0,0.7,4.8,4.875)">
            <path d="M8,18L13,27L11,15.893L6,8L8,18Z" style="fill:rgb(184,184,184);stroke:rgb(20,40,242);stroke-width:1.43px;"/>
            <path d="M13,27L23.534,20.5L26,11L11,16L13,27Z" style="fill:rgb(200,200,200);stroke:rgb(20,40,242);stroke-width:1.43px;"/>
            <path d="M17.5,5.5L6,8L11,16L26,11L17.5,5.5Z" style="fill:rgb(254,255,254);stroke:rgb(20,40,242);stroke-width:1.43px;"/>
        </g>
        <path d="M17.5,5.5L6,8L11,16L26,11L17.5,5.5Z" style="fill:none;stroke:rgb(20,40,242);stroke-width:1px;"/>
        <path d="M6,8L8,18" style="fill:none;stroke:rgb(20,40,242);stroke-width:1px;"/>
        <path d="M11,16L13,27" style="fill:none;stroke:rgb(20,40,242);stroke-width:1px;"/>
        <path d="M26,11L23.534,20.5" style="fill:none;stroke:rgb(20,40,242);stroke-width:1px;"/>
    </g>
    <g id="classifiable" transform="matrix(0.543478,0,0,0.543478,-0.347826,-0.804348)">
        <path d="M6.16,7L6.16,30.88L14,36.88L21.84,30.88L21.84,7L6.16,7ZM14,27.04C15.104,27.04 16,27.936 16,29.04C16,30.144 15.104,31.04 14,31.04C12.896,31.04 12,30.144 12,29.04C12,27.936 12.896,27.04 14,27.04Z" style="fill:rgb(140,130,104);stroke:black;stroke-width:1.47px;"/>
    </g>
    <g id="remove" transform="matrix(1.19565,0,0,1.19565,-8.0163,-7.71739)">
        <g transform="matrix(0.836365,0,0,0.836365,5.86819,5.61819)">
            <circle cx="24" cy="24" r="6" style="fill:rgb(255,0,0);stroke:rgb(254,255,254);stroke-width:1px;"/>
        </g>
        <g transform="matrix(0.836365,0,0,0.836365,5.86819,5.61819)">
            <path d="M21,24L27,24" style="fill:none;stroke:rgb(254,255,254);stroke-width:2px;"/>
        </g>
    </g>
</svg>
