<?xml version="1.0" encoding="UTF-8" standalone="no"?>
<!DOCTYPE svg PUBLIC "-//W3C//DTD SVG 1.1//EN" "http://www.w3.org/Graphics/SVG/1.1/DTD/svg11.dtd">
<svg width="100%" height="100%" viewBox="0 0 32 32" version="1.1" xmlns="http://www.w3.org/2000/svg" xmlns:xlink="http://www.w3.org/1999/xlink" xml:space="preserve" xmlns:serif="http://www.serif.com/" style="fill-rule:evenodd;clip-rule:evenodd;stroke-linejoin:round;stroke-miterlimit:2;">
    <rect id="Artboard1" x="0" y="0" width="32" height="32" style="fill:none;"/>
    <g id="Artboard11" serif:id="Artboard1">
        <g transform="matrix(1,0,0,1,0.603179,0.247492)">
            <g transform="matrix(0.279828,0,0,0.279828,1.59519,2.14281)">
                <path d="M23.174,56.921L40.481,56.921C40.985,56.882 41.488,57.057 41.863,57.397C42.242,57.737 42.465,58.214 42.485,58.721C42.574,61.061 42.601,67.004 40.53,69.078C38.526,71.082 35.784,72.301 32.8,72.508C32.108,72.555 31.429,72.547 30.769,72.492C25.499,72.031 22.42,70.796 21.912,65.893C21.736,64.225 21.619,62.132 21.478,59.702L21.431,58.901C21.373,57.878 22.146,56.995 23.174,56.921L23.174,56.921Z" style="fill:rgb(140,130,104);fill-rule:nonzero;stroke:black;stroke-width:3.57px;"/>
            </g>
            <g transform="matrix(-0.288899,0,0,0.288899,29.3956,7.55306)">
                <path d="M23.174,56.921L40.481,56.921C40.985,56.882 41.488,57.057 41.863,57.397C42.242,57.737 42.465,58.214 42.485,58.721C42.574,61.061 42.601,67.004 40.53,69.078C38.526,71.082 35.784,72.301 32.8,72.508C32.108,72.555 31.429,72.547 30.769,72.492C25.499,72.031 22.42,70.796 21.912,65.893C21.736,64.225 21.619,62.132 21.478,59.702L21.431,58.901C21.373,57.878 22.146,56.995 23.174,56.921L23.174,56.921Z" style="fill:rgb(140,130,104);fill-rule:nonzero;stroke:black;stroke-width:3.46px;"/>
            </g>
            <g transform="matrix(0.288677,0.0113255,-0.0113255,0.288677,2.10375,1.29613)">
                <path d="M20.715,11.277C23.285,7.543 27.63,4.92 31.001,4.686C34.521,4.444 36.718,4.713 38.054,7.873C42.378,18.958 37.865,32.337 41.313,47.472L21.571,48.851C21.469,48.859 19.676,48.085 19.575,47.187C19.235,44.144 18.817,41.828 18.293,40.101C13.477,24.257 20.715,11.277 20.715,11.277Z" style="fill:rgb(140,130,104);fill-rule:nonzero;stroke:black;stroke-width:3.46px;"/>
            </g>
            <g transform="matrix(-0.288677,0.0113255,0.0113255,0.288677,28.597,7.29349)">
                <path d="M20.715,11.277C23.285,7.543 26.696,5.265 30.067,5.031C33.586,4.789 37.543,5.308 38.879,8.468C43.203,19.553 37.865,32.337 41.313,47.472L21.571,48.851C21.469,48.859 19.676,48.085 19.575,47.187C19.235,44.144 18.817,41.828 18.293,40.101C13.477,24.257 18.383,14.663 20.715,11.273L20.715,11.277Z" style="fill:rgb(140,130,104);fill-rule:nonzero;stroke:black;stroke-width:3.46px;"/>
            </g>
        </g>
    </g>
</svg>
