<?xml version="1.0" encoding="UTF-8" standalone="no"?>
<!-- Created with Inkscape (http://www.inkscape.org/) -->

<svg
   version="1.1"
   id="svg823"
   xml:space="preserve"
   width="170.66667"
   height="170.66667"
   viewBox="0 0 170.66667 170.66667"
   sodipodi:docname="icon.svg"
   inkscape:version="1.1 (c4e8f9e, 2021-05-24)"
   xmlns:inkscape="http://www.inkscape.org/namespaces/inkscape"
   xmlns:sodipodi="http://sodipodi.sourceforge.net/DTD/sodipodi-0.dtd"
   xmlns="http://www.w3.org/2000/svg"
   xmlns:svg="http://www.w3.org/2000/svg"><defs
     id="defs827"><clipPath
       clipPathUnits="userSpaceOnUse"
       id="clipPath839"><path
         d="M 0,0 H 128 V 128 H 0 Z"
         id="path837" /></clipPath></defs><sodipodi:namedview
     id="namedview825"
     pagecolor="#ffffff"
     bordercolor="#999999"
     borderopacity="1"
     inkscape:pageshadow="0"
     inkscape:pageopacity="0"
     inkscape:pagecheckerboard="0"
     showgrid="false"
     inkscape:zoom="3.3164062"
     inkscape:cx="85.333336"
     inkscape:cy="85.333336"
     inkscape:window-width="922"
     inkscape:window-height="480"
     inkscape:window-x="0"
     inkscape:window-y="1103"
     inkscape:window-maximized="0"
     inkscape:current-layer="g829" /><g
     id="g829"
     inkscape:groupmode="layer"
     inkscape:label="icon"
     transform="matrix(1.3333333,0,0,-1.3333333,0,170.66667)"><g
       id="g831" /><g
       id="g833"><g
         id="g835"
         clip-path="url(#clipPath839)"><g
           id="g841"
           transform="matrix(1,0,0,-1,0,128)"><path
             d="M 76.00004,20 H 32 v 92.1337 h 76 z"
             style="fill:none;stroke:#d84942;stroke-width:8;stroke-linecap:round;stroke-linejoin:round;stroke-miterlimit:10;stroke-dasharray:none;stroke-opacity:1"
             id="path843" /></g><path
           d="m 22.00001,108 c 0,5.5178 4.48215,10 9.99998,10 C 37.51784,118 42,113.5178 42,108 42,102.4822 37.51784,98 31.99999,98 c -5.51783,0 -9.99998,4.4822 -9.99998,10 z"
           style="fill:#ffffff;fill-opacity:1;fill-rule:nonzero;stroke:none"
           id="path845" /><g
           id="g847"
           transform="matrix(1,0,0,-1,0,128)"><path
             d="m 22.00001,20 c 0,-5.51783 4.48215,-10 9.99998,-10 C 37.51784,10 42,14.48217 42,20 42,25.51784 37.51784,30 31.99999,30 26.48216,30 22.00001,25.51784 22.00001,20 Z"
             style="fill:none;stroke:#d84942;stroke-width:4;stroke-linecap:round;stroke-linejoin:round;stroke-miterlimit:10;stroke-dasharray:none;stroke-opacity:1"
             id="path849" /></g><path
           d="m 65.99999,108 c 0,5.5178 4.48221,10 10.00006,10 5.51783,0 9.99997,-4.4822 9.99997,-10 0,-5.5178 -4.48214,-10 -9.99997,-10 -5.51785,0 -10.00006,4.4822 -10.00006,10 z"
           style="fill:#ffffff;fill-opacity:1;fill-rule:nonzero;stroke:none"
           id="path851" /><g
           id="g853"
           transform="matrix(1,0,0,-1,0,128)"><path
             d="M 65.99999,20.00001 C 65.99999,14.48217 70.4822,10 76.00005,10 c 5.51783,0 9.99997,4.48217 9.99997,10.00001 C 86.00002,25.51784 81.51788,30 76.00005,30 70.4822,30 65.99999,25.51784 65.99999,20.00001 Z"
             style="fill:none;stroke:#d84942;stroke-width:4;stroke-linecap:round;stroke-linejoin:round;stroke-miterlimit:10;stroke-dasharray:none;stroke-opacity:1"
             id="path855" /></g><path
           d="m 22,15.86627 c 0,5.51784 4.48215,9.99999 9.99999,9.99999 C 37.51786,25.86626 42,21.38411 42,15.86627 42,10.3484 37.51786,5.866295 31.99999,5.866295 26.48215,5.866295 22,10.3484 22,15.86627 Z"
           style="fill:#ffffff;fill-opacity:1;fill-rule:nonzero;stroke:none"
           id="path857" /><g
           id="g859"
           transform="matrix(1,0,0,-1,0,128)"><path
             d="m 22,112.1337 c 0,-5.5178 4.48215,-10 9.99999,-10 5.51787,0 10.00001,4.4822 10.00001,10 0,5.5179 -4.48214,10 -10.00001,10 -5.51784,0 -9.99999,-4.4821 -9.99999,-10 z"
             style="fill:none;stroke:#d84942;stroke-width:4;stroke-linecap:round;stroke-linejoin:round;stroke-miterlimit:10;stroke-dasharray:none;stroke-opacity:1"
             id="path861" /></g><path
           d="M 6,34 V 90 H 18 V 34 Z"
           style="fill:#929191;fill-opacity:1;fill-rule:nonzero;stroke:none"
           id="path863" /><g
           id="g865"
           transform="matrix(1,0,0,-1,0,128)"><path
             d="M 6,94 V 38 h 12 v 56 z"
             style="fill:none;stroke:#929191;stroke-width:4;stroke-linecap:round;stroke-linejoin:round;stroke-miterlimit:10;stroke-dasharray:none;stroke-opacity:1"
             id="path867" /></g><path
           d="m 97.99998,15.86627 c 0,5.51787 4.48212,10 10.00002,10 5.5179,0 10,-4.48213 10,-10 0,-5.51787 -4.4821,-10.000013 -10,-10.000013 -5.5179,0 -10.00002,4.482143 -10.00002,10.000013 z"
           style="fill:#ffffff;fill-opacity:1;fill-rule:nonzero;stroke:none"
           id="path869" /><g
           id="g871"
           transform="matrix(1,0,0,-1,0,128)"><path
             d="m 97.99998,112.1337 c 0,-5.5178 4.48212,-10 10.00002,-10 5.5179,0 10,4.4822 10,10 0,5.5179 -4.4821,10 -10,10 -5.5179,0 -10.00002,-4.4821 -10.00002,-10 z"
             style="fill:none;stroke:#d84942;stroke-width:4;stroke-linecap:round;stroke-linejoin:round;stroke-miterlimit:10;stroke-dasharray:none;stroke-opacity:1"
             id="path873" /></g><path
           d="M 86.87991,34 67.42966,90.00001 46,90 V 33.99999 Z"
           style="fill:#424242;fill-opacity:1;fill-rule:nonzero;stroke:none"
           id="path875" /><g
           id="g877"
           transform="matrix(1,0,0,-1,0,128)"><path
             d="M 86.87991,94 67.42966,37.99999 46,38 v 56.00001 z"
             style="fill:none;stroke:#414141;stroke-width:4;stroke-linecap:round;stroke-linejoin:round;stroke-miterlimit:10;stroke-dasharray:none;stroke-opacity:1"
             id="path879" /></g><path
           d="m 122.0117,34 0.1588,56 H 95.38914 L 114.8394,33.99999 Z"
           style="fill:#929191;fill-opacity:1;fill-rule:nonzero;stroke:none"
           id="path881" /><g
           id="g883"
           transform="matrix(1,0,0,-1,0,128)"><path
             d="m 122.0117,94 0.1588,-56 H 95.38914 l 19.45026,56.00001 z"
             style="fill:none;stroke:#929191;stroke-width:4;stroke-linecap:round;stroke-linejoin:round;stroke-miterlimit:10;stroke-dasharray:none;stroke-opacity:1"
             id="path885" /></g></g></g></g></svg>
