<?xml version="1.0" encoding="UTF-8" standalone="no"?>
<svg width="24px" height="24px" viewBox="0 0 24 24" version="1.1" xmlns="http://www.w3.org/2000/svg" xmlns:xlink="http://www.w3.org/1999/xlink" xmlns:sketch="http://www.bohemiancoding.com/sketch/ns">
    <!-- Generator: Sketch 3.3.1 (12002) - http://www.bohemiancoding.com/sketch -->
    <title>tb_3dtext</title>
    <desc>Created with Sketch.</desc>
    <defs>
        <linearGradient x1="24.7451728%" y1="4.43469591%" x2="88.4257341%" y2="100%" id="linearGradient-1">
            <stop stop-color="#2D2D27" offset="0%"></stop>
            <stop stop-color="#5F5E51" offset="55.8458179%"></stop>
            <stop stop-color="#B9B79E" offset="66.6499743%"></stop>
            <stop stop-color="#A5A38E" offset="74.8348148%"></stop>
            <stop stop-color="#49483E" offset="100%"></stop>
        </linearGradient>
        <linearGradient x1="4.65367101%" y1="0%" x2="100%" y2="102.927112%" id="linearGradient-2">
            <stop stop-color="#9F9D89" offset="0%"></stop>
            <stop stop-color="#CFCDB2" offset="5.24261501%"></stop>
            <stop stop-color="#93927F" offset="10.9190839%"></stop>
            <stop stop-color="#94927F" offset="69.2808884%"></stop>
            <stop stop-color="#747365" offset="76.3229471%"></stop>
            <stop stop-color="#818073" offset="82.8410005%"></stop>
            <stop stop-color="#34332D" offset="100%"></stop>
        </linearGradient>
        <linearGradient x1="4.76591182%" y1="0%" x2="61.3514064%" y2="96.0426981%" id="linearGradient-3">
            <stop stop-color="#48483F" offset="0%"></stop>
            <stop stop-color="#535246" offset="30.4645615%"></stop>
            <stop stop-color="#828171" offset="44.3823365%"></stop>
            <stop stop-color="#656457" offset="65.3925902%"></stop>
            <stop stop-color="#9C9A87" offset="75.5795271%"></stop>
            <stop stop-color="#9D9C88" offset="86.1259458%"></stop>
            <stop stop-color="#32312B" offset="100%"></stop>
        </linearGradient>
        <linearGradient x1="33.7639116%" y1="19.1741421%" x2="95.3974366%" y2="107.882076%" id="linearGradient-4">
            <stop stop-color="#8B8978" offset="0%"></stop>
            <stop stop-color="#A4A18D" offset="32.4567634%"></stop>
            <stop stop-color="#393931" offset="100%"></stop>
        </linearGradient>
    </defs>
    <g id="Page-1" stroke="none" stroke-width="1" fill="none" fill-rule="evenodd" sketch:type="MSPage">
        <g id="tb_3dtext" sketch:type="MSArtboardGroup">
            <g id="Group" sketch:type="MSLayerGroup" transform="translate(4.000000, 3.000000)">
                <path d="M7.36608887,9.84686279 L4.18032837,8.85653687 L4.07522583,8.66976929 L4.05178833,8.44152832 L5.42443848,2.95980835 L6.34239197,6.23870087 L6.13239288,7.1784668 C6.13239288,7.1784668 6.09288788,7.30556488 6.13239288,7.37091064 C6.17189789,7.43625641 6.28269958,7.48599243 6.28269958,7.48599243 L6.75350952,7.60464478 L7.36608887,9.84686279 Z" id="Path-5262" stroke="#000000" stroke-width="0.5" fill="url(#linearGradient-1)" sketch:type="MSShapeGroup"></path>
                <path d="M5.70074463,0.723266602 L7.63562012,0.212860107 C7.63562012,0.212860107 8.11121368,0.310180664 8.36183929,0.575363159 C8.6124649,0.840545654 8.80145264,1.34390259 8.80145264,1.34390259 L12.0731125,12.8248215 C12.0731125,12.8248215 12.3209735,13.8905085 12.8280334,14.1753845 C13.3350934,14.4602605 13.5721283,14.4697266 13.8751907,14.5789261 C14.1782532,14.6881256 14.4471207,14.8084488 14.6188965,15.0201874 C14.7906723,15.231926 14.7680359,15.5322876 14.7680359,15.5322876 L13.3703003,17.2220993 C13.3703003,17.2220993 13.3450775,17.0771484 13.256958,16.9393387 C13.1688385,16.8015289 12.7802429,16.5880051 12.3121796,16.3903656 C11.8441162,16.1927261 11.4373932,16.0617599 11.0942993,15.7350082 C10.7512054,15.4082565 10.6125946,14.9208069 10.4068527,14.4371109 C10.2011108,13.9534149 6.75030518,2.03805542 6.75030518,2.03805542 C6.75030518,2.03805542 6.45399475,1.36088562 6.25939941,1.13502502 C6.06480408,0.909164429 5.70074463,0.723266602 5.70074463,0.723266602 Z" id="Path-5323" stroke="#000000" stroke-width="0.5" fill="url(#linearGradient-2)" sketch:type="MSShapeGroup"></path>
                <path d="M4.1597527,10.1424878 C4.1597527,10.1424878 3.92416013,10.0633661 3.73874235,10.2140233 C3.55332458,10.3646805 3.46994067,10.7029796 3.46994067,10.7029796 L3.15686035,11.7117459 C3.15686035,11.7117459 3.06467831,12.0376251 3.11058044,12.2772671 C3.15648257,12.5169092 3.29048957,12.6684508 3.29048957,12.6684508 C3.29048957,12.6684508 3.53262074,12.8729429 3.73874242,12.9798213 C3.94486411,13.0866997 4.41276052,13.15742 4.67127991,13.2946919 C4.92979929,13.4319639 5.01760106,13.5511097 5.12149048,13.6813892 C5.2253799,13.8116688 5.28212821,13.9112867 5.27447505,14.0681538 C5.2668219,14.2250208 5.22029872,14.3559269 5.08644862,14.3996433 C4.95259853,14.4433598 4.72824855,14.4428791 4.43873592,14.3171085 C4.14922328,14.191338 3.84002903,13.9302614 3.51342882,13.7485601 C3.18682862,13.5668588 2.70252347,13.3676619 2.16354667,13.1675686 C1.62456987,12.9674752 1.28355009,12.9297406 1.07034458,12.8415733 C0.857139062,12.7534061 0.695824086,12.6312069 0.567231676,12.4684521 C0.438639266,12.3056974 0.448422343,11.8587159 0.567231679,11.7625891 C0.686041015,11.6664623 0.831021626,11.7364643 0.922384898,11.7779639 C1.01374817,11.8194634 1.25766853,11.9305866 1.25766853,11.9305866 C1.25766853,11.9305866 1.45683619,12.0021633 1.56958353,11.9780859 C1.68233087,11.9540086 1.74090572,11.9030453 1.77802673,11.8194633 C1.81514774,11.7358812 4.07828169,2.09694775 4.19061928,1.66173668 C4.30295687,1.22652561 4.4192275,1.06773771 4.60775561,0.92312247 C4.79628372,0.778507235 5.17060852,0.726482391 5.38404407,0.75 C5.59747962,0.773517609 6.00132398,0.95795717 6.18894973,1.13424439 C6.37657547,1.3105316 6.62423706,1.84941102 6.690688,2.04035615 C6.75713894,2.23130127 10.3178246,14.2246781 10.3178246,14.2246781 C10.3178246,14.2246781 10.4851896,15.1125849 10.8932928,15.6372825 C11.301396,16.16198 12.3171924,16.4383625 12.5677115,16.5483942 C12.8182306,16.6584258 13.0179811,16.7731362 13.1534344,16.9369816 C13.2888876,17.100827 13.3462332,17.2523705 13.3110195,17.4475054 C13.2758058,17.6426402 13.2056652,17.7082676 13.0307995,17.7834324 C12.8559337,17.8585972 12.4573665,17.7462517 12.4573665,17.7462517 L11.8519065,17.447506 L9.97666755,16.5130197 L7.76052146,15.6945316 L7.20404811,15.4867847 C7.20404811,15.4867847 6.83512696,15.3043251 6.69043807,15.124415 C6.54574918,14.9445048 6.51061207,14.6245473 6.51061207,14.6245473 C6.51061207,14.6245473 6.44705646,14.3537495 6.68681406,14.2675525 C6.92657165,14.1813555 7.25778346,14.3559262 7.25778346,14.3559262 L7.72977984,14.5840479 L8.21052384,14.8165445 C8.21052384,14.8165445 8.55347226,14.9280633 8.66977369,14.8844185 C8.78607511,14.8407737 8.84961761,14.6664204 8.83072983,14.5837979 C8.81184204,14.5011753 8.0135775,11.9364615 8.0135775,11.9364615 C8.0135775,11.9364615 7.97986177,11.6621972 7.77439268,11.4605935 C7.5689236,11.2589898 7.27290434,11.2097222 7.27290434,11.2097222 L4.1597527,10.1424878 Z M4.03778593,8.56051087 C4.03778593,8.56051087 4.00164032,8.69144404 4.09199142,8.80731583 C4.18234252,8.92318761 4.27659585,8.94363028 4.27659585,8.94363028 L7.1233201,9.84011718 C7.1233201,9.84011718 7.23910467,9.87689245 7.31089381,9.79860341 C7.38268296,9.72031438 7.31089399,9.56874614 7.31089399,9.56874614 L6.86539039,8.01264388 L6.35865348,6.24316973 L5.38641842,2.84809434 L4.03778593,8.56051087 Z" id="Fill-1912" stroke="#000000" stroke-width="0.5" fill="#9F9D89" sketch:type="MSShapeGroup"></path>
                <path d="M5.29455034,14.2756577 L7.51138306,12.9093933 C7.51138306,12.9093933 7.56402604,12.6320801 7.47027604,12.4098816 C7.37652604,12.1876831 7.22873704,12.0614548 6.95902268,12.0087204 C6.68930833,11.955986 5.91509141,11.8863601 5.60571289,11.7751465 C5.29633437,11.6639328 4.91943357,11.5085907 4.91943357,11.2058258 C4.91943357,10.9030609 5.15994261,10.4934082 5.15994261,10.4934082 C5.15994261,10.4934082 4.38183633,10.1971886 4.2125778,10.163887 C4.04331927,10.1305855 3.84577173,10.1084061 3.69738768,10.2421646 C3.54900363,10.3759232 3.49571993,10.6114883 3.40233613,10.8681106 C3.30895233,11.1247329 3.11140899,11.7113559 3.08370972,11.9034577 C3.05601045,12.0955595 3.03310394,12.2836533 3.17514801,12.5343247 C3.31719208,12.7849961 3.45688664,12.8194779 3.72549437,12.9730683 C3.99410209,13.1266586 4.4950355,13.1986459 4.73669432,13.3336029 C4.97835313,13.46856 5.17310331,13.6096802 5.2484741,13.8793946 C5.32384489,14.1491089 5.29455034,14.2756577 5.29455034,14.2756577 Z" id="Path-5263" stroke="#000000" stroke-width="0.5" fill="url(#linearGradient-3)" sketch:type="MSShapeGroup"></path>
                <path d="M0.663421631,11.7194366 L1.95019531,11.0510559 L1.81643677,11.7044678 C1.81643677,11.7044678 1.75442497,11.8697654 1.64788818,11.9311523 C1.5413514,11.9925393 1.35089111,11.9727173 1.35089111,11.9727173 L0.945678711,11.7982178 L0.663421631,11.7194366 Z" id="Path-5264" stroke="#000000" stroke-width="0.5" fill="#747364" sketch:type="MSShapeGroup"></path>
                <path d="M6.66866302,14.2283478 L8.39619446,13.1790619 C8.39619446,13.1790619 8.83834839,14.5399704 8.83834839,14.6164398 C8.83834839,14.6929092 8.80163574,14.8055649 8.70999146,14.8712769 C8.61834717,14.9369888 8.48632812,14.8923798 8.32013702,14.8463745 C8.15394592,14.8003693 7.87876129,14.6653519 7.64248657,14.5402908 C7.40621185,14.4152298 7.22637939,14.2928925 7.03221893,14.2553101 C6.83805847,14.2177277 6.66866302,14.2283478 6.66866302,14.2283478 Z" id="Path-5265" stroke="#000000" stroke-width="0.5" fill="url(#linearGradient-4)" sketch:type="MSShapeGroup"></path>
                <path d="M0.636161805,11.6625136 L1.81950385,10.9985045 C1.81950385,10.9985045 4.12860107,1.48059082 4.25714111,1.22360229 C4.38568115,0.96661377 4.60467529,0.810241699 4.98937988,0.693878174 C5.37408447,0.577514648 7.56860352,0.0259094238 7.56860352,0.0259094238 C7.56860352,0.0259094238 8.06115723,-0.0149230957 8.37554932,0.339477539 C8.68994141,0.693878174 8.8053894,0.844940169 8.92788696,1.15411377 C9.05038452,1.46328737 12.2918091,13.1476137 12.4263916,13.387207 C12.5609741,13.6268004 12.6818237,13.8701479 12.9379883,14.0386047 C13.1941528,14.2070616 13.7590332,14.2651979 14.1445618,14.4571838 C14.5300903,14.6491698 14.7976074,14.8213808 14.9079285,15.0896301 C15.0182495,15.3578795 15.0008545,15.6411438 15.0008545,15.6411438 L13.4043583,17.5650786 C13.4043583,17.5650786 13.2119145,17.8406752 12.9843144,17.8758314 C12.7567143,17.9109877 12.5338749,17.8960188 11.9676663,17.5917433 C11.4014577,17.2874678 10.2308423,16.6576538 9.6497571,16.4596251 C9.06867189,16.2615964 7.27124023,15.616974 7.02633667,15.4649963 C6.78143311,15.3130186 6.6381073,15.2050325 6.57424927,15.0686188 C6.51039124,14.932205 6.36495972,14.6103975 6.46960449,14.4297638 C6.57424927,14.2491301 6.72636414,14.1366121 6.93569946,14.0171814 C7.14503479,13.8977507 8.2173459,13.1643675 8.2173459,13.1643675 L7.99999971,12.0685271 C7.99999971,12.0685271 7.90018434,11.7053603 7.77551241,11.5678709 C7.65084047,11.4303816 7.27110291,11.2716522 7.27110291,11.2716522 L5.10057068,10.6170502 C5.10057068,10.6170502 5.06829827,10.8242342 5.02883911,10.9985046 C4.98937995,11.1727751 4.86825562,11.346863 5.25776672,11.5678711 C5.64727783,11.7888792 6.33254976,11.8193893 6.70521516,11.8836592 C7.07788057,11.9479291 7.16526765,12.0785292 7.28172273,12.231468 C7.39817781,12.3844069 7.47109985,12.5781099 7.47109985,12.6922302 C7.47109985,12.8063505 7.4919281,12.9801178 7.4919281,12.9801178 L5.16442871,14.4513702 C5.16442871,14.4513702 5.03112793,14.5152284 4.8452301,14.5152283 C4.65933228,14.5152281 4.35569763,14.3709871 4.1463623,14.2519684 C3.93702698,14.1329497 3.57901001,13.8376009 3.16949463,13.6604004 C2.75997925,13.4831999 2.32070923,13.2629701 1.94593811,13.1643677 C1.57116699,13.0657652 1.28826904,13.0370638 0.999969482,12.8942413 C0.711669922,12.7514189 0.555297852,12.6425173 0.465393066,12.4404602 C0.375488281,12.2384032 0.377685547,11.9632875 0.447998047,11.8468781 C0.518310547,11.7304686 0.636161805,11.6625136 0.636161805,11.6625136 Z" id="Path-5266" stroke="#000000" stroke-width="0.5" sketch:type="MSShapeGroup"></path>
                <path d="M5.40631104,2.84683228 L7.38101196,9.77435303" id="Path-3441" stroke="#000000" stroke-width="0.5" sketch:type="MSShapeGroup"></path>
                <path d="M6.37436676,6.22993469 L6.12374115,7.21446991 C6.12374115,7.21446991 6.04628754,7.37267303 6.25557709,7.46642303 C6.46486664,7.56017303 6.76511383,7.58935547 6.76511383,7.58935547" id="Path-3442" stroke="#000000" stroke-width="0.5" sketch:type="MSShapeGroup"></path>
                <circle id="Oval-19" fill="#000000" sketch:type="MSShapeGroup" cx="5.3984375" cy="2.7890625" r="0.2109375"></circle>
                <circle id="Oval-19-Copy-2" fill="#000000" sketch:type="MSShapeGroup" cx="8.7265625" cy="14.6953125" r="0.2109375"></circle>
                <circle id="Oval-19-Copy" fill="#000000" sketch:type="MSShapeGroup" cx="7.34375" cy="9.75" r="0.234375"></circle>
                <path d="M8.04874039,12.3402333 L8.71801376,14.6896587" id="Path-3443" stroke="#000000" stroke-width="0.5" sketch:type="MSShapeGroup"></path>
            </g>
        </g>
    </g>
</svg>