<?xml version="1.0" encoding="UTF-8" standalone="no"?>
<svg width="24px" height="24px" viewBox="0 0 24 24" version="1.1" xmlns="http://www.w3.org/2000/svg" xmlns:xlink="http://www.w3.org/1999/xlink" xmlns:sketch="http://www.bohemiancoding.com/sketch/ns">
    <!-- Generator: Sketch 3.3.1 (12002) - http://www.bohemiancoding.com/sketch -->
    <title>tb_addlocation</title>
    <desc>Created with Sketch.</desc>
    <defs></defs>
    <g id="Page-1" stroke="none" stroke-width="1" fill="none" fill-rule="evenodd" sketch:type="MSPage">
        <g id="tb_addlocation" sketch:type="MSArtboardGroup">
            <g id="Group" sketch:type="MSLayerGroup" transform="translate(4.000000, 4.000000)">
                <g id="googlemap" transform="translate(0.734375, 0.078125)" sketch:type="MSShapeGroup">
                    <path d="M14.765625,14.9533429 L14.765625,15.84375 L9,14.564697 L9,11.671875 L14.765625,14.9533429" id="Fill-2151" fill="#6083C8"></path>
                    <path d="M7.18106228,15.0092474 L5.71706761,15.328125 L5.74661592,15.1714308 L5.76130824,15.0157348 L5.76075429,14.8630328 L5.74525622,14.7140736 L5.71470073,14.5698551 L5.66947809,14.4319991 L5.60965127,14.3015039 L5.53605118,14.1796168 L5.44884149,14.0668369 L5.34885314,13.9642871 L5.23682892,13.8732148 L5.1135494,13.7941192 L4.265625,13.3381342 L4.265625,10.78125 L5.43306645,11.4626699 L6.19106176,11.9051812 L6.41925225,12.079466 L6.62396273,12.2753337 L6.80387126,12.4912872 L6.95784476,12.7252056 L7.08500195,12.9755919 L7.18458743,13.2404499 L7.25584581,13.517035 L7.2985253,13.8040997 L7.3125,14.0988993 L7.29751811,14.3995625 L7.25357964,14.7037188 L7.18106228,15.0092474" id="Fill-2152" fill="#878584"></path>
                    <path d="M5.42807746,11.5135235 L4.265625,10.8304986 L4.265625,10.5305028 L9.046875,4.3125 L9.046875,6.67345032 L7.21711774,9.12081042 L9.046875,9.63614285 L9.046875,11.765625 L5.8168194,10.9935642 L5.42807746,11.5135235" id="Fill-2153" fill="#AFA956"></path>
                    <path d="M5.53125,11.4422471 L5.91897974,10.921875 L9.140625,11.6945487 L9.140625,14.5878824 L7.26724394,15 L7.3392634,14.6935086 L7.38290019,14.3883939 L7.39777921,14.0867833 L7.38390046,13.7910548 L7.34151401,13.5030856 L7.27074489,13.2256289 L7.17184317,12.9599363 L7.04555906,12.708761 L6.89264275,12.4741055 L6.71396949,12.2574716 L6.51066457,12.0609867 L6.28404085,11.8861527 L5.53125,11.4422471" id="Fill-2154" fill="#38507E"></path>
                    <path d="M9,11.6847766 L9,9.5625 L14.765625,12.5864544 L14.765625,14.953125 L9,11.6847766" id="Fill-2155" fill="#EEE773"></path>
                    <path d="M9,6.5625 L9,4.20458085 L9.3890346,3.70339814 L9.3905357,3.67979397 L10.7562848,1.94307661 L12.1222841,0.184503544 L14.296875,0.046875 L9,6.5625" id="Fill-2156" fill="#EEE773"></path>
                    <path d="M9.046875,4.31995428 L4.265625,10.546875 L4.265625,9.09659005 L4.78778778,8.72603542 L5.24078934,8.29461917 L5.61654396,7.81348673 L5.9088087,7.29390878 L6.11260675,6.74690552 L6.22497962,6.18387287 L6.24419734,5.61658241 L6.17000918,5.05643004 L6.00349325,4.5149369 L5.7471442,4.00362411 L5.40506133,3.5327605 L4.98291091,3.11374198 L6.20963554,3.1256388 L7.50544616,2.23888742 L4.265625,2.15122665 L4.265625,0.1875 L9.046875,0.48692417 L9.046875,4.31995428" id="Fill-2157" fill="#577C28"></path>
                    <path d="M4.21875,10.7488019 L4.21875,13.3125 L4.07922897,13.1586406 L3.1854356,12.1711884 L2.95030346,12.0906311 L2.86920453,12.0627363 L2.55537556,11.9883084 L2.24630101,11.9477795 L1.94423363,11.940024 L1.65128925,11.9651669 L1.36944682,12.0219573 L1.10043633,12.1097697 L0.845850905,12.2267279 L0.607296083,12.3722063 L0.386053816,12.5445789 L0.183256702,12.7417191 L0,12.9625011 L0,11.6591993 L0.188633427,11.5700109 L0.384162005,11.4948324 L0.586336813,11.4329134 L0.794585328,11.3852545 L1.00858395,11.3518558 L1.22759836,11.3329673 L1.45135475,11.3294648 L1.67924324,11.3410981 L1.91061665,11.3682424 L2.14486512,11.4107727 L2.38152813,11.4695645 L2.61972201,11.5438673 L2.47634269,11.4055189 L2.34845878,11.2475316 L2.23833549,11.0735328 L2.14791442,10.88665 L2.07873887,10.6908857 L2.0319539,10.488742 L2.00838094,10.2852223 L2.00848051,10.0832036 L2.03212814,9.88706413 L2.07900024,9.69980597 L2.14827535,9.52530688 L2.23878355,9.36669409 L2.02845654,9.366569 L1.81903809,9.34768057 L1.61167325,9.3100288 L1.4073577,9.25436421 L1.20733608,9.18118718 L1.01244225,9.09162349 L0.823622131,8.98542297 L0.641796733,8.86433686 L0.467775054,8.72836517 L0.302341199,8.57888387 L0.146154812,8.41651841 L0,8.24251968 L0,3.43585161 L0.145806321,3.24746764 L0.302714582,3.07096713 L0.470102479,2.90672534 L0.647447273,2.75636842 L0.834201335,2.62002146 L1.02964279,2.49856009 L1.23307466,2.39336028 L1.4436506,2.30429694 L1.66051183,2.2323708 L1.8830236,2.17820728 L2.11000353,2.14230675 L2.3403937,2.12516957 L4.21875,2.0625 L4.21875,6.52342221 L4.21104585,6.37456636 L4.18291761,6.07485323 L4.14204455,5.77689134 L4.08872536,5.48143124 L4.02304718,5.1897238 L3.94534604,4.90251957 L3.85600777,4.62081925 L3.75536843,4.34524829 L3.64371427,4.07718266 L3.5214809,3.81687255 L3.28400889,3.44485801 L2.98389555,3.15064879 L2.63924998,2.94888031 L2.27023491,2.84855898 L1.89727441,2.85243673 L1.54007071,2.95788672 L1.21648398,3.15727851 L0.941910076,3.43785303 L0.728807573,3.78484978 L0.586685305,4.18013087 L0.521455178,4.60480786 L0.535793111,5.03836617 L0.571277005,5.28966988 L0.614203681,5.54009796 L0.664647813,5.78915006 L0.722634296,6.0367011 L0.787963991,6.28262598 L0.860811144,6.52667452 L0.940926832,6.76872165 L1.02855998,7.00839208 L1.12346166,7.24518547 L1.225719,7.47935198 L1.33521998,7.71064146 L1.4519895,7.93855353 L1.64412029,8.23363837 L1.88068373,8.4823152 L2.1529302,8.67345112 L2.45034274,8.79778954 L2.76077392,8.84870074 L3.07136689,8.8231826 L3.36851806,8.72023439 L3.63842466,8.54285825 L3.86845389,8.29768391 L4.04732956,7.99509373 L4.16615269,7.64859734 L4.21875,7.2742061 L4.21875,9.00005837 L4.11355538,9.08149128 L4.02179012,9.18081191 L3.94517179,9.29564357 L3.8851317,9.42373466 L3.84283977,9.5624583 L3.818993,9.70918764 L3.81416391,9.86079545 L3.82831515,10.0140294 L3.8611978,10.1663878 L3.91237626,10.3147433 L3.98065568,10.4560938 L4.06489104,10.5875623 L4.09060473,10.6143313 L4.21875,10.7488019" id="Fill-2158" fill="#FFFFFF"></path>
                    <path d="M0.302714582,3.15147869 L0.145806321,3.32762214 L0,3.515625 L0,0.512073331 L4.21875,0.1875 L4.21875,2.14505169 L2.3403937,2.20759448 L2.11000353,2.22469699 L1.8830236,2.2605249 L1.66051183,2.31457884 L1.4436506,2.38635948 L1.23307466,2.47524264 L1.02964279,2.58022963 L0.834201335,2.70144528 L0.647447273,2.83751641 L0.470102479,2.98756916 L0.302714582,3.15147869" id="Fill-2159" fill="#9ABB63"></path>
                    <path d="M1.25920577,7.30277261 L1.16415444,7.06598482 L1.07638311,6.82632005 L0.996141088,6.58427864 L0.923179065,6.34023587 L0.857746353,6.0943168 L0.799668432,5.84677161 L0.749144755,5.59772539 L0.70615039,5.34730322 L0.670610542,5.09600546 L0.65625,4.66245739 L0.721582986,4.23779043 L0.863929364,3.84251868 L1.0773679,3.49553013 L1.35237477,3.21496224 L1.67647176,3.01557516 L2.03423873,2.91012767 L2.40778734,2.90625 L2.7773843,3.00656897 L3.12257333,3.20833268 L3.42315992,3.50253495 L3.66100639,3.8745407 L3.78343251,4.13484466 L3.89526273,4.40290395 L3.99606077,4.6784684 L4.08553991,4.96016206 L4.16336358,5.24735951 L4.22914533,5.53906006 L4.28254859,5.83451318 L4.32348611,6.13246802 L4.3516587,6.43217407 L4.359375,6.58102641 L4.359375,7.33179256 L4.30669475,7.70617495 L4.18768425,8.05266316 L4.00852652,8.35524618 L3.77813456,8.60041474 L3.50780235,8.77778668 L3.21018261,8.88073246 L2.89909987,8.90625 L2.58817918,8.85534 L2.29029766,8.73100452 L2.01762189,8.53987312 L1.78068541,8.29120215 L1.58825166,7.99612429 L1.47129801,7.7682176 L1.36162436,7.53693359 L1.25920577,7.30277261" id="Fill-2160" fill="#9ABB63"></path>
                    <path id="Fill-2161" fill="#9ABB63" d="M4.3125,9.046875 L4.3125,10.4771128 L4.17887878,10.640625 L4.15206629,10.6141963 L4.06423136,10.4843992 L3.99303419,10.3448457 L3.93966876,10.1983764 L3.90538096,10.047955 L3.890625,9.89666917 L3.89566045,9.74698881 L3.92052625,9.6021249 L3.96462541,9.46516491 L4.02723115,9.3387023 L4.10712356,9.22533054 L4.20281016,9.12727262 L4.3125,9.046875"></path>
                    <path d="M9.39282978,3.69250462 L9.39131986,3.71617439 L9,4.21875 L9,0.385499511 L12.140625,0.1875 L10.7666016,1.95096054 L9.39282978,3.69250462" id="Fill-2162" fill="#9ABB63"></path>
                    <path d="M5.9060465,7.19935969 L5.61427306,7.71834938 L5.23915009,8.19893709 L4.78691002,8.62986491 L4.265625,9 L4.265625,7.27416225 L4.265625,6.52338468 L4.265625,2.0625 L7.5,2.15006153 L6.20636764,3.03580895 L4.98170514,3.0239256 L5.40314593,3.44246971 L5.74465376,3.91280021 L6.00057188,4.42353411 L6.1668079,4.96441418 L6.24087134,5.52393236 L6.22168593,6.09058054 L6.10950196,6.65297574 L5.9060465,7.19935969" id="Fill-2163" fill="#878584"></path>
                    <path d="M2.2428451,11.132193 L2.35319025,11.3064563 L2.48133181,11.4646839 L2.625,11.6032426 L2.38632622,11.5288268 L2.1491864,11.4699456 L1.914466,11.4273507 L1.68262643,11.4001651 L1.45427881,11.3885141 L1.23007162,11.3920219 L1.01061596,11.4109391 L0.796186189,11.4443886 L0.587518113,11.49212 L0.384935981,11.5541332 L0.189013469,11.629426 L0,11.71875 L0,8.296875 L0.146449272,8.47113831 L0.302950329,8.63375066 L0.468717486,8.78345926 L0.643089769,8.91963771 L0.825281493,9.04090794 L1.01448203,9.14726994 L1.20976851,9.23696982 L1.41019313,9.31025813 L1.6149203,9.36600736 L1.82270292,9.40371639 L2.03254329,9.42263354 L2.24329406,9.42275882 L2.15260351,9.58161279 L2.08318883,9.75637722 L2.0362223,9.94392013 L2.01252702,10.1403579 L2.01242725,10.3426837 L2.0360477,10.5465129 L2.08292693,10.748964 L2.15224185,10.9450259 L2.2428451,11.132193" id="Fill-2164" fill="#9ABB63"></path>
                    <path d="M14.765625,0.046875 L14.765625,12.609375 L9,9.57214403 L9,6.6065128 L14.3036936,0.0760406287 L14.765625,0.046875" id="Fill-2166" fill="#E5D6CA"></path>
                    <path d="M2.55781941,11.9541042 L2.87194851,12.0278691 L2.953125,12.0555154 L0.912052012,14.671875 L0,14.4276451 L0,12.9196182 L0.18343196,12.7008031 L0.38642302,12.5054192 L0.607876873,12.3345822 L0.846659839,12.1903997 L1.10148874,12.0744835 L1.37075649,11.9874534 L1.65286847,11.9311689 L1.94609301,11.90625 L2.24844927,11.9139364 L2.55781941,11.9541042" id="Fill-2167" fill="#9ABB63"></path>
                    <path d="M3.01853943,12.0871124 L4.21875,13.1110689 L2.58653702,15.09375 L1.03125,14.6773209 L3.01853943,12.0871124 Z" id="Fill-2168" fill="#EEE773"></path>
                    <path d="M5.23963195,13.8454058 L5.35197949,13.9361079 L5.45225643,14.0382409 L5.53971781,14.1505624 L5.61353032,14.2719541 L5.67352982,14.401919 L5.71888297,14.5392146 L5.74952665,14.682847 L5.76506945,14.8312008 L5.765625,14.9832821 L5.75089028,15.1383454 L5.72125669,15.2944027 L4.265625,15.609375 L4.265625,13.3125 L5.11599663,13.7666317 L5.23963195,13.8454058" id="Fill-2169" fill="#3E5787"></path>
                    <path d="M4.3125,13.3268649 L4.3125,15.65625 L2.53125,15.1762853 L4.17143656,13.171875 L4.3125,13.3268649" id="Fill-2170" fill="#6083C8"></path>
                    <path d="M7.265625,9.09570675 L9.09375,6.65625 L9.09375,9.609375 L7.265625,9.09570675" id="Fill-2171" fill="#A79386"></path>
                    <path d="M14.7943726,0.0287475586 L8.96154785,0.46307373 L4.27542114,0.15637207 L0.022064209,0.532562256 L0.0475158691,14.4293518 L4.26525879,15.6343689 L9.09036255,14.56073 L14.7555542,15.8004456 L14.7943726,0.0287475586 Z" id="Path-3345" stroke="#000000" stroke-width="0.5"></path>
                    <path id="Path-3346" stroke="#000000" stroke-width="0.5" d="M4.28146362,0.266052246 L4.25198364,15.5648804"></path>
                    <path d="M14.7709351,14.9789429 L9.03543091,11.6481628 L5.84527588,10.9159241 L5.52035522,11.4553528" id="Path-3348" stroke="#000000" stroke-width="0.5"></path>
                    <path d="M12.041748,0.337554932 L9.03222656,4.34967041 L4.28713989,10.5231628" id="Path-3349" stroke="#000000" stroke-width="0.5"></path>
                    <path d="M14.2496338,0.129821777 L9.03259277,6.65002441 L7.33428955,9.09475708 L9.03707886,9.57073975 L14.7588501,12.6158752" id="Path-3351" stroke="#000000" stroke-width="0.5"></path>
                    <path id="Path-3347" stroke="#000000" stroke-width="0.5" d="M9.04147339,0.563873291 L9.06417847,14.4726562"></path>
                    <path d="M7.21206665,14.909317 C7.265625,14.909317 7.37832642,14.18367 7.32197571,13.5709991 C7.265625,12.9583282 7.03807068,12.580719 6.4871521,12.1007538 C5.93623352,11.6207886 5.11491394,11.2515564 4.85870361,11.1208649 C4.60249329,10.9901733 4.27542114,10.7352448 4.17640686,10.6101379 C4.07739258,10.4850311 3.80241394,10.0231934 3.86627197,9.70578003 C3.93013,9.3883667 4.19073487,9.0401001 4.42570496,8.90066528 C4.66067504,8.76123047 5.14393616,8.33546448 5.55207825,7.78308105 C5.96022034,7.23069763 6.21253967,6.78945923 6.2769928,6.02220154 C6.34144592,5.25494385 6.16850281,4.71427917 5.8913269,4.16313171 C5.614151,3.61198425 5.01992798,3.04170227 5.01992798,3.04170227 L6.25479126,3.05603027 L7.56967163,2.16645813 L4.27015686,2.05311584 C4.27015686,2.05311584 2.83300782,2.09353638 2.32328796,2.15473938 C1.81356811,2.21594238 1.62464905,2.23086548 1.02557373,2.54914856 C0.426498413,2.86743164 0.051361084,3.34959412 0.051361084,3.34959412" id="Path-3351" stroke="#000000" stroke-width="0.5"></path>
                    <path d="M0.0465087891,8.29275513 C0.159484863,8.45256042 0.514709473,8.8719635 1.03491211,9.15371704 C1.55511475,9.43547058 2.23397827,9.45417023 2.23397827,9.45417023 C2.23397827,9.45417023 1.9871521,9.92024231 2.05705261,10.461319 C2.12695312,11.0023956 2.49662018,11.4714203 2.49662018,11.4714203 C2.49662018,11.4714203 1.95542908,11.2735291 1.21311951,11.3404083 C0.470809937,11.4072876 0.0465087891,11.7214966 0.0465087891,11.7214966" id="Path-3352" stroke="#000000" stroke-width="0.5"></path>
                    <path d="M0.0343780518,12.9040833 C0.0343780518,12.9040833 0.366714478,12.448883 0.878128052,12.2144165 C1.38954163,11.9799499 1.77204895,11.8398743 2.26226807,11.9046021 C2.75248718,11.9693298 3.0435791,12.0852814 3.0435791,12.0852814 L4.30247498,13.3253174 C4.30247498,13.3253174 4.84286499,13.6229096 5.04959106,13.7536469 C5.25631714,13.8843841 5.59510803,14.2084809 5.67068481,14.3513031 C5.7462616,14.4941253 5.80142212,14.6791535 5.80142212,14.7785797 C5.80142212,14.8780059 5.80220032,15.2693481 5.80220032,15.2693481" id="Path-3353" stroke="#000000" stroke-width="0.5"></path>
                    <path d="M2.99468994,12.0753479 L1.04782104,14.596344" id="Path-3354" stroke="#000000" stroke-width="0.5"></path>
                    <path d="M4.13145447,13.2250671 L2.65937805,15.01474" id="Path-3329" stroke="#000000" stroke-width="0.5"></path>
                    <path d="M4.2747345,7.8891449 C4.2747345,7.8891449 3.9744873,8.42477417 3.79953003,8.57588196 C3.62457275,8.72698975 3.20498657,8.90945435 2.93138123,8.90945435 C2.65777588,8.90945435 2.379776,8.82215881 2.14480591,8.65708923 C1.90983582,8.49201965 1.59443665,8.07092285 1.45848083,7.77658081 C1.32252502,7.48223877 1.06796265,6.93045044 0.923309326,6.3271637 C0.778656006,5.72387695 0.681198122,5.09147643 0.733291626,4.58111573 C0.785385131,4.07075503 0.96446232,3.49882508 1.30819702,3.25030518 C1.65193172,3.00178528 1.89587407,2.84907532 2.36402893,2.90158081 C2.83218379,2.9540863 3.18914785,3.20343019 3.40594477,3.51031495 C3.6227417,3.81719971 3.92765813,4.42355346 4.00016785,4.65893555 C4.07267756,4.89431764 4.27473445,5.45800782 4.27473445,5.45800782" id="Path-3330" stroke="#000000" stroke-width="0.5"></path>
                </g>
                <g id="arrow" transform="translate(7.859375, 2.140625)" sketch:type="MSShapeGroup">
                    <path d="M4.03125,0.000125 L2.015625,0 L2.015625,5.31825 L0,5.31825 L4.03125,9.75 L8.0625,5.31825 L6.04699974,5.31825 L6.04699974,0 L4.03125,0.000125 L4.03125,0.000125 Z" id="Fill-24754" fill="#1293F5"></path>
                    <path d="M4.03125,0.000125 L2.015625,0 L2.015625,5.31825 L0,5.31825 L4.03125,9.75 L8.0625,5.31825 L6.04699974,5.31825 L6.04699974,0 L4.03125,0.000125 L4.03125,0.000125 Z" id="Stroke-24755" stroke="#FFFFFF" stroke-width="1.375" stroke-linecap="round" stroke-linejoin="round"></path>
                    <path d="M4.03125,0.000125 L2.015625,0 L2.015625,5.31825 L0,5.31825 L4.03125,9.75 L8.0625,5.31825 L6.04699974,5.31825 L6.04699974,0 L4.03125,0.000125 L4.03125,0.000125 Z" id="Fill-24756" fill="#1293F5"></path>
                    <path d="M4.03125,0.000125 L2.015625,0 L2.015625,5.31825 L0,5.31825 L4.03125,9.75 L8.0625,5.31825 L6.04699974,5.31825 L6.04699974,0 L4.03125,0.000125 L4.03125,0.000125 Z" id="Stroke-24757" stroke="#000000" stroke-width="0.5" stroke-linecap="round" stroke-linejoin="round"></path>
                </g>
            </g>
        </g>
    </g>
</svg>