<?xml version="1.0" encoding="UTF-8" standalone="no"?>
<svg width="512px" height="512px" viewBox="0 0 512 512" version="1.1" xmlns="http://www.w3.org/2000/svg" xmlns:xlink="http://www.w3.org/1999/xlink" xmlns:sketch="http://www.bohemiancoding.com/sketch/ns">
    <!-- Generator: Sketch 3.3 (11970) - http://www.bohemiancoding.com/sketch -->
    <title>tb_arc3pointpie</title>
    <desc>Created with Sketch.</desc>
    <defs></defs>
    <g id="Page-1" stroke="none" stroke-width="1" fill="none" fill-rule="evenodd" sketch:type="MSPage">
        <g id="tb_arc3pointpie" sketch:type="MSArtboardGroup">
            <path d="M398.735231,123.366523 C395.674214,276.942791 272.830846,400.477227 121.738966,400.477227 C117.793858,400.477227 113.868008,400.393005 109.963047,400.226226 L109.963047,123.366523 L398.735231,123.366523 Z" id="Oval-22" stroke="#000000" stroke-width="12" fill="#A09E8A" sketch:type="MSShapeGroup"></path>
            <path d="M399,122.590154 L107.363573,122.590154 L399,122.590154 Z M390.781399,129.906554 L102.341142,398.881444 L390.781399,129.906554 Z" id="Stroke-22483" stroke="#FEFEFE" stroke-width="34.0250015" stroke-linecap="round" stroke-linejoin="round" sketch:type="MSShapeGroup"></path>
            <path d="M108.363586,84.4768102 C129.66977,84.4768102 146.97693,101.783766 146.97693,123.089496 C146.97693,144.395225 129.66977,161.703498 108.363586,161.703498 C87.057403,161.703498 69.7502426,144.395225 69.7502426,123.089496 C69.7502426,101.783766 87.057403,84.4768102 108.363586,84.4768102 L108.363586,84.4768102 Z" id="Fill-22485" fill="#FCFCFC" sketch:type="MSShapeGroup"></path>
            <path d="M69.7502426,399.570191 C69.7502426,378.263282 87.0576663,360.955531 108.363323,360.955531 C129.668717,360.955531 146.97693,378.263282 146.97693,399.570191 C146.97693,420.874468 129.668717,438.182219 108.363323,438.182219 C87.0576663,438.182219 69.7502426,420.874468 69.7502426,399.570191 L69.7502426,399.570191 Z" id="Fill-22484-Copy" fill="#FCFCFC" sketch:type="MSShapeGroup" transform="translate(108.363586, 399.568875) rotate(90.000000) translate(-108.363586, -399.568875) "></path>
            <path d="M117.653523,386.717219 C124.399811,393.463267 124.399811,404.40088 117.653523,411.146928 C110.907501,417.892976 99.9701965,417.892976 93.2241742,411.146928 C86.4778862,404.40088 86.4778862,393.463267 93.2241742,386.717219 C99.9701965,379.971171 110.907501,379.971171 117.653523,386.717219" id="Stroke-23631-Copy" stroke="#FB0011" stroke-width="10.4099252" fill="#FB0011" sketch:type="MSShapeGroup" transform="translate(105.438849, 398.932074) rotate(90.000000) translate(-105.438849, -398.932074) "></path>
            <path d="M398.733915,84.4768102 C420.040825,84.4768102 437.348575,101.784234 437.348575,123.089891 C437.348575,144.395284 420.040825,161.703498 398.733915,161.703498 C377.429638,161.703498 360.121887,144.395284 360.121887,123.089891 C360.121887,101.784234 377.429638,84.4768102 398.733915,84.4768102 L398.733915,84.4768102 Z" id="Fill-22484-Copy-2" fill="#FCFCFC" sketch:type="MSShapeGroup"></path>
            <path d="M410.950086,135.304829 C404.204038,142.051117 393.266425,142.051117 386.520377,135.304829 C379.774329,128.558806 379.774329,117.621502 386.520377,110.875479 C393.266425,104.129191 404.204038,104.129191 410.950086,110.875479 C417.696134,117.621502 417.696134,128.558806 410.950086,135.304829" id="Stroke-23631-Copy-2" stroke="#FB0011" stroke-width="10.4099252" fill="#FB0011" sketch:type="MSShapeGroup"></path>
            <path d="M120.578441,135.304829 C113.832393,142.051117 102.89478,142.051117 96.1487319,135.304829 C89.4026837,128.558806 89.4026837,117.621502 96.1487319,110.875479 C102.89478,104.129191 113.832393,104.129191 120.578441,110.875479 C127.324489,117.621502 127.324489,128.558806 120.578441,135.304829" id="Stroke-23631-Copy-3" stroke="#FB0011" stroke-width="10.4099252" fill="#FB0011" sketch:type="MSShapeGroup"></path>
            <path d="M249.578125,-20.3317214 L249.578125,265.953435" id="Stroke-23629" stroke="#FB0011" stroke-width="10.4099252" stroke-linecap="round" stroke-linejoin="round" sketch:type="MSShapeGroup" transform="translate(249.578125, 123.090154) rotate(90.000000) translate(-249.578125, -123.090154) "></path>
            <path d="M251.144855,57.0761173 L251.144855,464.884089" id="Stroke-23629-Copy" stroke="#FB0011" stroke-width="10.4099252" stroke-linecap="round" stroke-linejoin="round" sketch:type="MSShapeGroup" transform="translate(251.644855, 261.020807) rotate(47.000000) translate(-251.644855, -261.020807) "></path>
        </g>
    </g>
</svg>