<?xml version="1.0" encoding="UTF-8" standalone="no"?>
<svg width="512px" height="512px" viewBox="0 0 512 512" version="1.1" xmlns="http://www.w3.org/2000/svg" xmlns:xlink="http://www.w3.org/1999/xlink" xmlns:sketch="http://www.bohemiancoding.com/sketch/ns">
    <!-- Generator: Sketch 3.3 (11970) - http://www.bohemiancoding.com/sketch -->
    <title>tb_arc3pointfit</title>
    <desc>Created with Sketch.</desc>
    <defs></defs>
    <g id="Page-1" stroke="none" stroke-width="1" fill="none" fill-rule="evenodd" sketch:type="MSPage">
        <g id="tb_arc3pointfit" sketch:type="MSArtboardGroup" transform="translate(0.000000, 0.000000)">
            <path d="M215.713972,108.889868 C281.180227,82.1738539 356.47202,97.7909601 405.626386,148.282035 C454.780752,198.773911 467.825462,273.893131 438.527539,337.761565 C409.232284,401.629198 343.53666,441.284551 272.824251,437.785996 C202.114509,434.288243 140.731561,388.34713 118,321.905563" id="Stroke-29903" stroke="#FFFFFF" stroke-width="37.3333333" stroke-linecap="round" sketch:type="MSShapeGroup"></path>
            <path d="M402,390 L118,317" id="Stroke-29898" stroke="#FFFFFF" stroke-width="32" stroke-linecap="round" stroke-linejoin="round" sketch:type="MSShapeGroup"></path>
            <path d="M403,389 L217,109" id="Stroke-29899" stroke="#FFFFFF" stroke-width="32" stroke-linecap="round" stroke-linejoin="round" sketch:type="MSShapeGroup"></path>
            <path d="M84,317.5 C84,298.463962 99.4613077,283 118.5,283 C137.536038,283 153,298.463962 153,317.5 C153,336.536038 137.536038,352 118.5,352 C99.4613077,352 84,336.536038 84,317.5 L84,317.5 Z" id="Fill-29907" fill="#FEFEFE" sketch:type="MSShapeGroup"></path>
            <path d="M180,108.998664 C180,88.5845943 196.585193,72 217,72 C237.417479,72 254,88.5845943 254,108.998664 C254,129.415406 237.417479,146 217,146 C196.585193,146 180,129.415406 180,108.998664 L180,108.998664 Z" id="Fill-29908" fill="#FEFEFE" sketch:type="MSShapeGroup"></path>
            <path d="M358,389 C358,365.8252 376.8252,347 400,347 C423.1748,347 442,365.8252 442,389 C442,412.1748 423.1748,431 400,431 C376.8252,431 358,412.1748 358,389 L358,389 Z" id="Fill-29909" fill="#FEFEFE" sketch:type="MSShapeGroup"></path>
            <path d="M215.713972,108.889868 C281.180227,82.1738539 356.47202,97.7909601 405.626386,148.282035 C454.780752,198.773911 467.825462,273.893131 438.527539,337.761565 C409.232284,401.629198 343.53666,441.284551 272.824251,437.785996 C202.114509,434.288243 140.731561,388.34713 118,321.905563" id="Stroke-30152" stroke="#000000" stroke-width="13.3333333" stroke-linecap="round" sketch:type="MSShapeGroup"></path>
            <path d="M385,384 L134,320" id="Stroke-30153" stroke="#FB0011" stroke-width="10.6666667" stroke-linecap="round" stroke-linejoin="round" sketch:type="MSShapeGroup"></path>
            <path d="M392,375 L225,123" id="Stroke-30158" stroke="#FB0011" stroke-width="10.6666667" stroke-linecap="round" stroke-linejoin="round" sketch:type="MSShapeGroup"></path>
            <path d="M233.409609,96.5899957 C242.196797,105.377023 242.196797,119.623069 233.409609,128.40973 C224.622421,137.196757 210.377579,137.196757 201.590391,128.40973 C192.803203,119.623069 192.803203,105.377023 201.590391,96.5899957 C210.377579,87.8033348 224.622421,87.8033348 233.409609,96.5899957" id="Stroke-30162" stroke="#FB0011" stroke-width="10.6666667" fill="#FB0011" sketch:type="MSShapeGroup"></path>
            <path d="M408.409609,373.589996 C417.196797,382.377023 417.196797,396.623069 408.409609,405.40973 C399.622421,414.196757 385.377579,414.196757 376.590391,405.40973 C367.803203,396.623069 367.803203,382.377023 376.590391,373.589996 C385.377579,364.803335 399.622421,364.803335 408.409609,373.589996" id="Stroke-30162-Copy" stroke="#FB0011" stroke-width="10.6666667" fill="#FB0011" sketch:type="MSShapeGroup"></path>
            <path d="M134.409609,300.589996 C143.196797,309.377023 143.196797,323.623069 134.409609,332.40973 C125.622421,341.196757 111.377579,341.196757 102.590391,332.40973 C93.803203,323.623069 93.803203,309.377023 102.590391,300.589996 C111.377579,291.803335 125.622421,291.803335 134.409609,300.589996" id="Stroke-30162-Copy-2" stroke="#FB0011" stroke-width="10.6666667" fill="#FB0011" sketch:type="MSShapeGroup"></path>
        </g>
    </g>
</svg>