<?xml version="1.0" encoding="UTF-8" standalone="no"?>
<svg width="512px" height="512px" viewBox="0 0 512 512" version="1.1" xmlns="http://www.w3.org/2000/svg" xmlns:xlink="http://www.w3.org/1999/xlink" xmlns:sketch="http://www.bohemiancoding.com/sketch/ns">
    <!-- Generator: Sketch 3.3 (11970) - http://www.bohemiancoding.com/sketch -->
    <title>tb_arc</title>
    <desc>Created with Sketch.</desc>
    <defs></defs>
    <g id="Page-1" stroke="none" stroke-width="1" fill="none" fill-rule="evenodd" sketch:type="MSPage">
        <g id="tb_arc" sketch:type="MSArtboardGroup">
            <path d="M170.633602,405.575312 C115.368614,363.391834 89.209271,293.253457 103.363694,225.197183 C117.518117,157.141174 169.471494,103.237269 236.979647,86.5696001 C304.482506,69.9016666 375.569634,93.4258775 419.790625,147.068594" id="Stroke-177" stroke="#000000" stroke-width="15.6148997" stroke-linecap="round" sketch:type="MSShapeGroup"></path>
            <path d="M183.948125,390.326875 L402.509063,163.633438" id="Stroke-28783" stroke="#FB0011" stroke-width="15.6148997" stroke-linecap="round" stroke-linejoin="round" sketch:type="MSShapeGroup"></path>
            <path d="M185.529179,389.760603 C194.26444,398.496122 194.26444,412.657134 185.529179,421.390022 C176.796548,430.122909 162.635952,430.122909 153.903321,421.390022 C145.16806,412.657134 145.16806,398.496122 153.903321,389.760603 C162.635952,381.027716 176.796548,381.027716 185.529179,389.760603" id="Fill-28784" fill="#FB0011" sketch:type="MSShapeGroup"></path>
            <path d="M185.529179,389.761407 C194.26444,398.495103 194.26444,412.655456 185.529179,421.389416 C176.796548,430.123111 162.635952,430.123111 153.903321,421.389416 C145.16806,412.655456 145.16806,398.495103 153.903321,389.761407 C162.635952,381.027448 176.796548,381.027448 185.529179,389.761407" id="Stroke-28785" stroke="#FB0011" stroke-width="15.6148997" sketch:type="MSShapeGroup"></path>
            <path d="M431.836198,132.273177 C440.172934,140.609914 440.172934,154.126961 431.836198,162.463698 C423.499461,170.800434 409.982414,170.800434 401.645677,162.463698 C393.308941,154.126961 393.308941,140.609914 401.645677,132.273177 C409.982414,123.936441 423.499461,123.936441 431.836198,132.273177" id="Fill-28786" fill="#FB0011" sketch:type="MSShapeGroup"></path>
            <path d="M431.836198,132.273292 C440.172934,140.610182 440.172934,154.126693 431.836198,162.463583 C423.499461,170.800472 409.982414,170.800472 401.645677,162.463583 C393.308941,154.126693 393.308941,140.610182 401.645677,132.273292 C409.982414,123.936403 423.499461,123.936403 431.836198,132.273292" id="Stroke-28787" stroke="#FB0011" stroke-width="15.6148997" sketch:type="MSShapeGroup"></path>
            <path d="M294.753437,277.488438 L165.65,152.45125" id="Stroke-28788" stroke="#FB0011" stroke-width="15.6148997" stroke-linecap="round" stroke-linejoin="round" sketch:type="MSShapeGroup"></path>
            <path d="M164.48026,122.107552 C172.816997,130.444289 172.816997,143.961336 164.48026,152.298073 C156.143524,160.634809 142.626476,160.634809 134.28974,152.298073 C125.953003,143.961336 125.953003,130.444289 134.28974,122.107552 C142.626476,113.770816 156.143524,113.770816 164.48026,122.107552" id="Fill-28789" fill="#FB0011" sketch:type="MSShapeGroup"></path>
            <path d="M164.48026,122.107667 C172.816997,130.444295 172.816997,143.961068 164.48026,152.297958 C156.143524,160.634847 142.626476,160.634847 134.28974,152.297958 C125.953003,143.961068 125.953003,130.444295 134.28974,122.107667 C142.626476,113.770778 156.143524,113.770778 164.48026,122.107667" id="Stroke-28790" stroke="#FB0011" stroke-width="15.6148997" sketch:type="MSShapeGroup"></path>
        </g>
    </g>
</svg>