<?xml version="1.0" encoding="UTF-8" standalone="no"?>
<svg width="24px" height="24px" viewBox="0 0 24 24" version="1.1" xmlns="http://www.w3.org/2000/svg" xmlns:xlink="http://www.w3.org/1999/xlink" xmlns:sketch="http://www.bohemiancoding.com/sketch/ns">
    <!-- Generator: Sketch 3.3.1 (12002) - http://www.bohemiancoding.com/sketch -->
    <title>tb_copy</title>
    <desc>Created with Sketch.</desc>
    <defs></defs>
    <g id="Page-1" stroke="none" stroke-width="1" fill="none" fill-rule="evenodd" sketch:type="MSPage">
        <g id="tb_copy" sketch:type="MSArtboardGroup">
            <g id="Group" sketch:type="MSLayerGroup" transform="translate(3.000000, 3.000000)">
                <path d="M1.23068011,1.63336971 L1.54559744,3.30642019 L1.97891408,4.27120302 L2.23232089,5.74112154 L2.76816759,7.05364724 L2.953125,8.296875 L1.69158943,4.99801695 L0.890625,0.984375 L1.23068011,1.63336971" id="Fill-26128" fill="#A8000B" sketch:type="MSShapeGroup"></path>
                <path d="M1.58112691,3.375 L1.265625,1.72073765 L4.828125,1.125 L4.82289236,2.67084504 L1.785225,3.33064183 L1.58112691,3.375" id="Fill-26129" fill="#F80010" sketch:type="MSShapeGroup"></path>
                <path d="M1.125,1.03635955 L5.52730377,0.375 L8.34375,2.11191656 L8.15080859,2.15625 L5.45427635,0.448972802 L1.16231737,1.10267133 L1.125,1.03635955" id="Fill-26130" fill="#D9000E" sketch:type="MSShapeGroup"></path>
                <path d="M8.484375,2.109375 L7.56496976,6.48942738 L2.94988788,8.25 L2.765625,7.01324853 L4.64233122,6.37224701 L4.63460732,4.87358497 L6.48049284,4.3326854 L6.68308592,2.52848179 L8.484375,2.109375" id="Fill-26131" fill="#F80010" sketch:type="MSShapeGroup"></path>
                <path d="M8.32643433,2.0655516 L8.484375,2.16137245 L6.68201599,2.578125 L4.774255,1.07994794 L1.22960438,1.67594623 L0.890625,1.03395888 L1.09288894,1.00396063 L1.1302828,1.06941136 L1.40885768,1.55744074 L4.86991835,0.984375 L6.75950056,2.42020033 L8.13309747,2.10930937 L8.32643433,2.0655516" id="Fill-26132" fill="#D9000E" sketch:type="MSShapeGroup"></path>
                <path d="M6.65625,2.63950426 L6.45259266,4.453125 L6.33030544,4.32756375 L4.734375,2.68837541 L4.73960567,1.125 L6.65625,2.63950426" id="Fill-26133" fill="#A8000B" sketch:type="MSShapeGroup"></path>
                <path d="M6.5625,4.33146546 L4.72072026,4.875 L3.94038763,3.77076931 L2.07135427,4.24365313 L1.640625,3.27922067 L1.84312851,3.234375 L2.2389846,4.06514731 L4.06166563,3.61167992 L4.84075324,4.6693112 L6.44112239,4.20594769 L6.5625,4.33146546" id="Fill-26134" fill="#D9000E" sketch:type="MSShapeGroup"></path>
                <path d="M4.67970688,5.00111955 L4.6875,6.515625 L4.5957703,6.36545943 L3.96668033,5.33483482 L3.890625,3.890625 L4.67970688,5.00111955" id="Fill-26135" fill="#A8000B" sketch:type="MSShapeGroup"></path>
                <path d="M4.6875,6.48723483 L2.78980487,7.125 L2.25,5.82590385 L2.45595659,5.765625 L2.94707026,6.88413264 L4.59556839,6.3393904 L4.6875,6.48723483" id="Fill-26136" fill="#D9000E" sketch:type="MSShapeGroup"></path>
                <path d="M3.97218508,5.25 L4.59375,6.2870213 L2.9685483,6.84375 L2.484375,5.70063082 L3.97218508,5.25" id="Fill-26137" fill="#DDDDDD" sketch:type="MSShapeGroup"></path>
                <path d="M2.4764805,5.75225935 L2.27069349,5.8125 L2.015625,4.35854361 L3.90821502,3.890625 L3.984375,5.31161017 L2.4764805,5.75225935" id="Fill-26138" fill="#F80010" sketch:type="MSShapeGroup"></path>
                <path d="M4.74552775,2.625 L6.328125,4.26938226 L4.72923296,4.734375 L3.95086444,3.67302499 L2.12986572,4.12808682 L1.734375,3.29439344 L4.74552775,2.625" id="Fill-26139" fill="#DDDDDD" sketch:type="MSShapeGroup"></path>
                <path d="M1.40470605,1.5193823 L1.125,1.02655435 L5.44321915,0.375 L8.15625,2.0766772 L6.77707553,2.390625 L4.87982056,0.940681864 L1.40470605,1.5193823" id="Fill-26140" fill="#DDDDDD" sketch:type="MSShapeGroup"></path>
                <path id="Stroke-26141" stroke="#FB0011" stroke-width="0.5" stroke-linecap="round" stroke-linejoin="round" sketch:type="MSShapeGroup" d="M1.265625,1.734375 L1.59375,3.421875"></path>
                <path id="Stroke-26142" stroke="#FB0011" stroke-width="0.5" stroke-linecap="round" stroke-linejoin="round" sketch:type="MSShapeGroup" d="M6.75,2.53125 L8.53125,2.109375"></path>
                <path id="Stroke-26143" stroke="#FB0011" stroke-width="0.5" stroke-linecap="round" stroke-linejoin="round" sketch:type="MSShapeGroup" d="M6.703125,2.625 L6.515625,4.453125"></path>
                <path d="M4.640625,4.921875 L6.46875,4.359375" id="Stroke-26144" stroke="#FB0011" stroke-width="0.5" stroke-linecap="round" stroke-linejoin="round" sketch:type="MSShapeGroup"></path>
                <path id="Stroke-26145" stroke="#FB0011" stroke-width="0.5" stroke-linecap="round" stroke-linejoin="round" sketch:type="MSShapeGroup" d="M4.640625,5.015625 L4.64932969,6.515625"></path>
                <path d="M2.765625,7.171875 L4.640625,6.515625" id="Stroke-26146" stroke="#FB0011" stroke-width="0.5" stroke-linecap="round" stroke-linejoin="round" sketch:type="MSShapeGroup"></path>
                <path id="Stroke-26147" stroke="#FB0011" stroke-width="0.5" stroke-linecap="round" stroke-linejoin="round" sketch:type="MSShapeGroup" d="M2.953125,8.34375 L2.765625,7.125"></path>
                <path d="M3.984375,5.25 L4.59375,6.28125" id="Stroke-26148" stroke="#FB0011" stroke-width="0.5" stroke-linecap="round" stroke-linejoin="round" sketch:type="MSShapeGroup"></path>
                <path id="Stroke-26149" stroke="#FB0011" stroke-width="0.5" stroke-linecap="round" stroke-linejoin="round" sketch:type="MSShapeGroup" d="M2.25,5.83396875 L2.4375,5.765625"></path>
                <path d="M2.25,5.765625 L2.765625,7.078125" id="Stroke-26150" stroke="#FB0011" stroke-width="0.5" stroke-linecap="round" stroke-linejoin="round" sketch:type="MSShapeGroup"></path>
                <path id="Stroke-26151" stroke="#FB0011" stroke-width="0.5" stroke-linecap="round" stroke-linejoin="round" sketch:type="MSShapeGroup" d="M3.890625,3.890625 L3.97557656,5.34375"></path>
                <path d="M0.890625,0.984375 L1.23083993,1.62748856 L4.78841042,1.03044473 L6.703125,2.53125" id="Stroke-26152" stroke="#FB0011" stroke-width="0.5" stroke-linecap="round" stroke-linejoin="round" sketch:type="MSShapeGroup"></path>
                <path id="Stroke-26153" stroke="#FB0011" stroke-width="0.5" stroke-linecap="round" stroke-linejoin="round" sketch:type="MSShapeGroup" d="M2.015625,4.359375 L2.25,5.8125"></path>
                <path id="Stroke-26154" stroke="#FB0011" stroke-width="0.5" stroke-linecap="round" stroke-linejoin="round" sketch:type="MSShapeGroup" d="M1.640625,3.375 L2.0625,4.359375"></path>
                <path d="M3.890625,3.890625 L4.6875,5.015625" id="Stroke-26155" stroke="#FB0011" stroke-width="0.5" stroke-linecap="round" stroke-linejoin="round" sketch:type="MSShapeGroup"></path>
                <path id="Stroke-26156" stroke="#FB0011" stroke-width="0.5" stroke-linecap="round" stroke-linejoin="round" sketch:type="MSShapeGroup" d="M2.015625,4.359375 L3.890625,3.890625"></path>
                <path d="M4.734375,2.625 L6.328125,4.265625" id="Stroke-26157" stroke="#FB0011" stroke-width="0.5" stroke-linecap="round" stroke-linejoin="round" sketch:type="MSShapeGroup"></path>
                <path id="Stroke-26158" stroke="#FB0011" stroke-width="0.5" stroke-linecap="round" stroke-linejoin="round" sketch:type="MSShapeGroup" d="M1.640625,3.28471875 L1.828125,3.234375"></path>
                <path id="Stroke-26159" stroke="#FB0011" stroke-width="0.5" stroke-linecap="round" stroke-linejoin="round" sketch:type="MSShapeGroup" d="M4.74023906,1.125 L4.734375,2.671875"></path>
                <path d="M1.734375,3.28125 L4.78125,2.625" id="Stroke-26160" stroke="#FB0011" stroke-width="0.5" stroke-linecap="round" stroke-linejoin="round" sketch:type="MSShapeGroup"></path>
                <path id="Stroke-26161" stroke="#FB0011" stroke-width="0.5" stroke-linecap="round" stroke-linejoin="round" sketch:type="MSShapeGroup" d="M6.375,4.265625 L6.51209531,4.40625"></path>
                <path id="Stroke-26162" stroke="#FB0011" stroke-width="0.5" stroke-linecap="round" stroke-linejoin="round" sketch:type="MSShapeGroup" d="M2.484375,5.671875 L3.984375,5.25"></path>
                <path id="Stroke-26163" stroke="#FB0011" stroke-width="0.5" stroke-linecap="round" stroke-linejoin="round" sketch:type="MSShapeGroup" d="M4.640625,6.234375 L4.74308438,6.375"></path>
                <path id="Stroke-26164" stroke="#FFFFFF" stroke-width="0.5" stroke-linecap="round" stroke-linejoin="round" sketch:type="MSShapeGroup" d="M8.109375,2.15901563 L8.296875,2.109375"></path>
                <path id="Stroke-26165" stroke="#FFFFFF" stroke-width="0.5" stroke-linecap="round" stroke-linejoin="round" sketch:type="MSShapeGroup" d="M1.16711719,1.058625 L1.125,0.984375"></path>
                <path d="M7.640625,6.609375 L8.578125,2.20624487 L8.41717151,2.109375" id="Stroke-26166" stroke="#FB0011" stroke-width="0.5" stroke-linecap="round" stroke-linejoin="round" sketch:type="MSShapeGroup"></path>
                <path d="M3,8.390625 L7.640625,6.609375" id="Stroke-26167" stroke="#FB0011" stroke-width="0.5" stroke-linecap="round" stroke-linejoin="round" sketch:type="MSShapeGroup"></path>
                <path d="M1.734375,5.015625 L3,8.296875" id="Stroke-26168" stroke="#FB0011" stroke-width="0.5" stroke-linecap="round" stroke-linejoin="round" sketch:type="MSShapeGroup"></path>
                <path id="Stroke-26169" stroke="#FB0011" stroke-width="0.5" stroke-linecap="round" stroke-linejoin="round" sketch:type="MSShapeGroup" d="M1.078125,0.984375 L0.890625,1.01840625"></path>
                <path d="M8.296875,2.109375 L5.484375,0.375" id="Stroke-26170" stroke="#FB0011" stroke-width="0.5" stroke-linecap="round" stroke-linejoin="round" sketch:type="MSShapeGroup"></path>
                <path d="M1.6875,4.96875 L0.890625,0.984375" id="Stroke-26171" stroke="#FB0011" stroke-width="0.5" stroke-linecap="round" stroke-linejoin="round" sketch:type="MSShapeGroup"></path>
                <path d="M5.53125,0.375 L1.125,1.03125" id="Stroke-26172" stroke="#FB0011" stroke-width="0.5" stroke-linecap="round" stroke-linejoin="round" sketch:type="MSShapeGroup"></path>
                <path d="M0.890625,1.06229252 L5.50421558,0.375 L8.484375,2.19717369 L7.56442366,6.56100703 L2.94660052,8.34375 L1.68905567,5.05902082 L0.890625,1.06229252 L0.890625,1.06229252 Z" id="Stroke-26173" stroke="#000000" stroke-width="0.5" stroke-linecap="round" sketch:type="MSShapeGroup"></path>
                <path d="M5.77563204,7.24121376 L6.262179,9.83644254 L6.93184079,11.3330745 L7.32348819,13.6134005 L8.15159391,15.649705 L8.4375,17.578125 L6.48777707,12.4606739 L5.25,6.234375 L5.77563204,7.24121376" id="Fill-30808" fill="#A8000B" sketch:type="MSShapeGroup"></path>
                <path d="M7.3791472,13.640625 L6.984375,11.3708087 L9.91343564,10.640625 L10.03125,12.8589252 L7.69767255,13.5468011 L7.3791472,13.640625" id="Fill-30810" fill="#F80010" sketch:type="MSShapeGroup"></path>
                <path d="M9.9670852,10.718302 L7.04776098,11.4475525 L6.375,9.95972236 L6.69139111,9.890625 L7.30967995,11.1724059 L10.1564122,10.4726087 L11.3732818,12.1044745 L13.8729229,11.3895157 L14.0625,11.5832617 L11.1857056,12.421875 L9.9670852,10.718302" id="Fill-30811" fill="#D9000E" sketch:type="MSShapeGroup"></path>
                <path d="M9.890625,10.640625 L11.0973633,12.3461395 L11.109375,14.671875 L10.9690739,14.4413295 L10.0069028,12.858615 L9.890625,10.640625" id="Fill-30812" fill="#A8000B" sketch:type="MSShapeGroup"></path>
                <path d="M10.0697367,10.3956239 L7.22683244,11.1037341 L6.609375,9.80672678 L11.3104462,8.765625 L13.78125,11.3234231 L11.2849701,12.046875 L10.0697367,10.3956239" id="Fill-30813" fill="#DDDDDD" sketch:type="MSShapeGroup"></path>
                <path d="M11.1727942,14.7477078 L11.1606721,12.4140418 L14.0356152,11.57161 L14.3510404,8.76179775 L17.15625,8.109375 L15.7244646,14.9302263 L8.53704442,17.671875 L8.25,15.7460669 L11.1727942,14.7477078" id="Fill-30814" fill="#F80010" sketch:type="MSShapeGroup"></path>
                <path d="M17.0625,8.06932304 L14.2589272,8.71875 L11.291364,6.38324861 L5.7774169,7.31240387 L5.25,6.31154571 L5.56465412,6.26482077 L5.62283134,6.36696944 L6.05608807,7.12774094 L11.4401169,6.234375 L14.3795781,8.47257419 L16.5163235,7.9879272 L16.8170765,7.91982809 L17.0625,8.06932304" id="Fill-30815" fill="#D9000E" sketch:type="MSShapeGroup"></path>
                <path d="M6.05938557,7.173908 L5.625,6.4060603 L12.332625,5.390625 L16.546875,8.04209515 L14.4045624,8.53125 L11.4574424,6.27223255 L6.05938557,7.173908" id="Fill-30816" fill="#DDDDDD" sketch:type="MSShapeGroup"></path>
                <path d="M11.3824812,8.79063042 L6.66610072,9.82140067 L6.34910609,9.890625 L5.859375,7.30591788 L11.390625,6.375 L11.3824812,8.79063042" id="Fill-30817" fill="#F80010" sketch:type="MSShapeGroup"></path>
                <path d="M14.0728076,11.53125 L13.8819157,11.3366156 L11.390625,8.79725521 L11.3988097,6.375 L14.390625,8.72134906 L14.0728076,11.53125" id="Fill-30818" fill="#A8000B" sketch:type="MSShapeGroup"></path>
                <path d="M16.875,7.94690759 L16.5743117,8.015625 L12.3719182,5.36473801 L5.6831647,6.37994998 L5.625,6.27687387 L12.4855504,5.25 L16.875,7.94690759" id="Fill-30819" fill="#D9000E" sketch:type="MSShapeGroup"></path>
                <path d="M7.359375,13.7339459 L7.67628256,13.640625 L8.43188246,15.3760974 L10.9679419,14.5308869 L11.109375,14.7602287 L8.18984832,15.75 L7.359375,13.7339459" id="Fill-30820" fill="#D9000E" sketch:type="MSShapeGroup"></path>
                <path d="M11.015625,14.4766832 L8.48758545,15.328125 L7.734375,13.5798577 L10.0487581,12.890625 L11.015625,14.4766832" id="Fill-30821" fill="#DDDDDD" sketch:type="MSShapeGroup"></path>
                <path id="Stroke-30822" stroke="#FB0011" stroke-width="0.5" stroke-linecap="round" stroke-linejoin="round" sketch:type="MSShapeGroup" d="M5.859375,7.359375 L6.328125,9.9375"></path>
                <path d="M14.390625,8.765625 L17.203125,8.109375" id="Stroke-30823" stroke="#FB0011" stroke-width="0.5" stroke-linecap="round" stroke-linejoin="round" sketch:type="MSShapeGroup"></path>
                <path id="Stroke-30824" stroke="#FB0011" stroke-width="0.5" stroke-linecap="round" stroke-linejoin="round" sketch:type="MSShapeGroup" d="M14.34375,8.765625 L14.015625,11.578125"></path>
                <path d="M11.109375,12.328125 L13.96875,11.484375" id="Stroke-30825" stroke="#FB0011" stroke-width="0.5" stroke-linecap="round" stroke-linejoin="round" sketch:type="MSShapeGroup"></path>
                <path id="Stroke-30826" stroke="#FB0011" stroke-width="0.5" stroke-linecap="round" stroke-linejoin="round" sketch:type="MSShapeGroup" d="M11.109375,12.375 L11.1230156,14.71875"></path>
                <path d="M8.25,15.75 L11.15625,14.765625" id="Stroke-30827" stroke="#FB0011" stroke-width="0.5" stroke-linecap="round" stroke-linejoin="round" sketch:type="MSShapeGroup"></path>
                <path id="Stroke-30828" stroke="#FB0011" stroke-width="0.5" stroke-linecap="round" stroke-linejoin="round" sketch:type="MSShapeGroup" d="M8.53125,17.671875 L8.25,15.75"></path>
                <path d="M9.984375,12.890625 L10.96875,14.484375" id="Stroke-30829" stroke="#FB0011" stroke-width="0.5" stroke-linecap="round" stroke-linejoin="round" sketch:type="MSShapeGroup"></path>
                <path id="Stroke-30830" stroke="#FB0011" stroke-width="0.5" stroke-linecap="round" stroke-linejoin="round" sketch:type="MSShapeGroup" d="M7.359375,13.7466562 L7.6875,13.640625"></path>
                <path d="M7.359375,13.734375 L8.203125,15.75" id="Stroke-30831" stroke="#FB0011" stroke-width="0.5" stroke-linecap="round" stroke-linejoin="round" sketch:type="MSShapeGroup"></path>
                <path id="Stroke-30832" stroke="#FB0011" stroke-width="0.5" stroke-linecap="round" stroke-linejoin="round" sketch:type="MSShapeGroup" d="M9.890625,10.640625 L10.0226719,12.890625"></path>
                <path d="M5.25,6.234375 L5.77689427,7.24782939 L11.2853775,6.30698031 L14.25,8.671875" id="Stroke-30833" stroke="#FB0011" stroke-width="0.5" stroke-linecap="round" stroke-linejoin="round" sketch:type="MSShapeGroup"></path>
                <path id="Stroke-30834" stroke="#FB0011" stroke-width="0.5" stroke-linecap="round" stroke-linejoin="round" sketch:type="MSShapeGroup" d="M6.984375,11.390625 L7.359375,13.6875"></path>
                <path d="M6.375,9.890625 L7.03125,11.390625" id="Stroke-30835" stroke="#FB0011" stroke-width="0.5" stroke-linecap="round" stroke-linejoin="round" sketch:type="MSShapeGroup"></path>
                <path d="M9.890625,10.640625 L11.109375,12.375" id="Stroke-30836" stroke="#FB0011" stroke-width="0.5" stroke-linecap="round" stroke-linejoin="round" sketch:type="MSShapeGroup"></path>
                <path d="M6.984375,11.390625 L9.890625,10.640625" id="Stroke-30837" stroke="#FB0011" stroke-width="0.5" stroke-linecap="round" stroke-linejoin="round" sketch:type="MSShapeGroup"></path>
                <path d="M11.390625,8.765625 L13.875,11.296875" id="Stroke-30838" stroke="#FB0011" stroke-width="0.5" stroke-linecap="round" stroke-linejoin="round" sketch:type="MSShapeGroup"></path>
                <path id="Stroke-30839" stroke="#FB0011" stroke-width="0.5" stroke-linecap="round" stroke-linejoin="round" sketch:type="MSShapeGroup" d="M6.375,9.9688125 L6.703125,9.890625"></path>
                <path id="Stroke-30840" stroke="#FB0011" stroke-width="0.5" stroke-linecap="round" stroke-linejoin="round" sketch:type="MSShapeGroup" d="M11.3997656,6.375 L11.390625,8.8125"></path>
                <path d="M6.609375,9.796875 L11.296875,8.765625" id="Stroke-30841" stroke="#FB0011" stroke-width="0.5" stroke-linecap="round" stroke-linejoin="round" sketch:type="MSShapeGroup"></path>
                <path id="Stroke-30842" stroke="#FB0011" stroke-width="0.5" stroke-linecap="round" stroke-linejoin="round" sketch:type="MSShapeGroup" d="M13.875,11.390625 L14.0625,11.578125"></path>
                <path d="M7.734375,13.59375 L10.078125,12.890625" id="Stroke-30843" stroke="#FB0011" stroke-width="0.5" stroke-linecap="round" stroke-linejoin="round" sketch:type="MSShapeGroup"></path>
                <path id="Stroke-30844" stroke="#FB0011" stroke-width="0.5" stroke-linecap="round" stroke-linejoin="round" sketch:type="MSShapeGroup" d="M11.015625,14.484375 L11.15625,14.71875"></path>
                <path id="Stroke-30846" stroke="#FFFFFF" stroke-width="0.5" stroke-linecap="round" stroke-linejoin="round" sketch:type="MSShapeGroup" d="M5.69050312,6.34996875 L5.625,6.234375"></path>
                <path d="M15.75,14.859375 L17.203125,8.02547195 L16.9538983,7.875" id="Stroke-30847" stroke="#FB0011" stroke-width="0.5" stroke-linecap="round" stroke-linejoin="round" sketch:type="MSShapeGroup"></path>
                <path d="M8.484375,17.625 L15.65625,14.859375" id="Stroke-30848" stroke="#FB0011" stroke-width="0.5" stroke-linecap="round" stroke-linejoin="round" sketch:type="MSShapeGroup"></path>
                <path d="M6.515625,12.515625 L8.484375,17.625" id="Stroke-30849" stroke="#FB0011" stroke-width="0.5" stroke-linecap="round" stroke-linejoin="round" sketch:type="MSShapeGroup"></path>
                <path id="Stroke-30850" stroke="#FB0011" stroke-width="0.5" stroke-linecap="round" stroke-linejoin="round" sketch:type="MSShapeGroup" d="M5.578125,6.234375 L5.25,6.28725"></path>
                <path d="M16.921875,7.921875 L12.515625,5.25" id="Stroke-30851" stroke="#FB0011" stroke-width="0.5" stroke-linecap="round" stroke-linejoin="round" sketch:type="MSShapeGroup"></path>
                <path d="M6.515625,12.46875 L5.25,6.234375" id="Stroke-30852" stroke="#FB0011" stroke-width="0.5" stroke-linecap="round" stroke-linejoin="round" sketch:type="MSShapeGroup"></path>
                <path d="M12.515625,5.25 L5.625,6.28125" id="Stroke-30853" stroke="#FB0011" stroke-width="0.5" stroke-linecap="round" stroke-linejoin="round" sketch:type="MSShapeGroup"></path>
                <path d="M5.25,6.32135811 L12.4265716,5.25 L17.0625,8.09069382 L15.6314297,14.8929735 L8.44822608,17.671875 L6.4919637,12.5514962 L5.25,6.32135811 L5.25,6.32135811 Z" id="Stroke-30854" stroke="#000000" stroke-width="0.5" stroke-linecap="round" sketch:type="MSShapeGroup"></path>
            </g>
        </g>
    </g>
</svg>