<?xml version="1.0" encoding="UTF-8" standalone="no"?>
<svg width="512px" height="512px" viewBox="0 0 512 512" version="1.1" xmlns="http://www.w3.org/2000/svg" xmlns:xlink="http://www.w3.org/1999/xlink" xmlns:sketch="http://www.bohemiancoding.com/sketch/ns">
    <!-- Generator: Sketch 3.3 (11970) - http://www.bohemiancoding.com/sketch -->
    <title>tb_circle</title>
    <desc>Created with Sketch.</desc>
    <defs></defs>
    <g id="Page-1" stroke="none" stroke-width="1" fill="none" fill-rule="evenodd" sketch:type="MSPage">
        <g id="tb_circle" sketch:type="MSArtboardGroup">
            <path d="M80.5478125,255.960938 C80.5478125,159.170101 159.170133,80.5478125 255.960273,80.5478125 C352.751476,80.5478125 431.374062,159.170101 431.374062,255.960938 C431.374062,352.751774 352.751476,431.374062 255.960273,431.374062 C159.170133,431.374062 80.5478125,352.751774 80.5478125,255.960938 L80.5478125,255.960938 Z" id="Fill-1542" fill="#A09F88" sketch:type="MSShapeGroup"></path>
            <path d="M80.5478125,255.96107 C80.5478125,159.170839 159.170133,80.5478125 255.960273,80.5478125 C352.751476,80.5478125 431.374062,159.170839 431.374062,255.96107 C431.374062,352.751567 352.751476,431.374062 255.960273,431.374062 C159.170133,431.374062 80.5478125,352.751567 80.5478125,255.96107 L80.5478125,255.96107 Z" id="Stroke-1543" stroke="#000000" stroke-width="10.4099331" stroke-linecap="round" sketch:type="MSShapeGroup"></path>
            <path d="M255.960938,253.92125 L379.362031,130.520156" id="Stroke-22444" stroke="#FFFFFF" stroke-width="26.0248328" stroke-linecap="round" stroke-linejoin="round" sketch:type="MSShapeGroup"></path>
            <path d="M341.607969,132.558523 C341.607969,111.173964 358.978202,93.8057812 380.362031,93.8057812 C401.745861,93.8057812 419.116094,111.173964 419.116094,132.558523 C419.116094,153.943081 401.745861,171.313906 380.362031,171.313906 C358.978202,171.313906 341.607969,153.943081 341.607969,132.558523 L341.607969,132.558523 Z" id="Fill-22445" fill="#FFFFFF" sketch:type="MSShapeGroup"></path>
            <path d="M216.187031,253.92125 C216.187031,232.53742 233.556563,215.167188 254.940301,215.167188 C276.324568,215.167188 293.695156,232.53742 293.695156,253.92125 C293.695156,275.30508 276.324568,292.675313 254.940301,292.675313 C233.556563,292.675313 216.187031,275.30508 216.187031,253.92125 L216.187031,253.92125 Z" id="Fill-22446" fill="#FFFFFF" sketch:type="MSShapeGroup"></path>
            <path d="M267.218906,242.722813 L367.163594,142.778125" id="Stroke-23218" stroke="#FB0011" stroke-width="10.4099331" stroke-linecap="round" stroke-linejoin="round" sketch:type="MSShapeGroup"></path>
            <path d="M267.199458,241.662886 C273.971431,248.432191 273.971431,259.410309 267.199458,266.179614 C260.430152,272.951587 249.452035,272.951587 242.68273,266.179614 C235.910757,259.410309 235.910757,248.432191 242.68273,241.662886 C249.452035,234.890913 260.430152,234.890913 267.199458,241.662886" id="Fill-23219" fill="#FB0011" sketch:type="MSShapeGroup"></path>
            <path d="M266.199458,241.721412 C272.971431,248.492045 272.971431,259.469251 266.199458,266.24015 C259.430152,273.010783 248.452035,273.010783 241.68273,266.24015 C234.910757,259.469251 234.910757,248.492045 241.68273,241.721412 C248.452035,234.950779 259.430152,234.950779 266.199458,241.721412" id="Stroke-23220" stroke="#FB0011" stroke-width="10.4099331" sketch:type="MSShapeGroup"></path>
            <path d="M391.919877,118.982154 C398.292541,125.354818 398.292541,135.685494 391.919877,142.058158 C385.547213,148.430822 375.216537,148.430822 368.843873,142.058158 C362.471209,135.685494 362.471209,125.354818 368.843873,118.982154 C375.216537,112.60949 385.547213,112.60949 391.919877,118.982154" id="Fill-23221" fill="#FB0011" sketch:type="MSShapeGroup"></path>
            <path d="M391.919877,118.982067 C398.292541,125.354349 398.292541,135.685898 391.919877,142.058445 C385.547213,148.430727 375.216537,148.430727 368.843873,142.058445 C362.471209,135.685898 362.471209,125.354349 368.843873,118.982067 C375.216537,112.609519 385.547213,112.609519 391.919877,118.982067" id="Stroke-23222" stroke="#FB0011" stroke-width="10.4099331" sketch:type="MSShapeGroup"></path>
        </g>
    </g>
</svg>