<?xml version="1.0" encoding="UTF-8" standalone="no"?>
<svg width="24px" height="24px" viewBox="0 0 24 24" version="1.1" xmlns="http://www.w3.org/2000/svg" xmlns:xlink="http://www.w3.org/1999/xlink" xmlns:sketch="http://www.bohemiancoding.com/sketch/ns">
    <!-- Generator: Sketch 3.3.1 (12002) - http://www.bohemiancoding.com/sketch -->
    <title>tb_cut</title>
    <desc>Created with Sketch.</desc>
    <defs></defs>
    <g id="Page-1" stroke="none" stroke-width="1" fill="none" fill-rule="evenodd" sketch:type="MSPage">
        <g id="tb_cut" sketch:type="MSArtboardGroup">
            <g id="Group" sketch:type="MSLayerGroup" transform="translate(4.000000, 3.000000)">
                <path d="M10.127846,8.22013697 L15.78125,4.734375 L15.7191668,4.8780673 L10.109375,8.34375 L10.127846,8.22013697" id="Fill-14793" fill="#747474" sketch:type="MSShapeGroup"></path>
                <path d="M9.875,8.53125 L10.1594145,6.56740292 L16.1863654,3.890625 L16.2181889,3.97891171 L16.2394879,4.06857594 L16.25,4.15861587 L16.249563,4.2482801 L16.2382394,4.33681727 L16.2158543,4.42284985 L16.1827698,4.50600216 L16.1392605,4.58514712 L16.0856011,4.65953337 L16.022416,4.72840953 L15.9503167,4.79089899 L15.8699525,4.84662606 L10.2298908,8.32499722 L10.0852677,8.41215686 L9.93802289,8.49668669 L9.875,8.53125" id="Fill-14789" fill="#BDBDBD" sketch:type="MSShapeGroup"></path>
                <path d="M9.98413086,7.84872437 L10.8945312,0.967254639 C10.8945312,0.967254639 10.4844666,0.99508667 10.3385315,1.08883667 C10.1925964,1.18258667 10.1647644,1.3041687 10.0241394,1.49697876 C9.8835144,1.68978882 8.16333008,7.24987793 8.16333008,7.24987793 L9.98413086,7.84872437 Z" id="Path-3339" fill="#D8D8D8" sketch:type="MSShapeGroup"></path>
                <path d="M8.08317566,7.47683716 L7.69444275,7.56976318 L7.38691711,7.49116516 L5.36231995,8.36824036 L5.6746521,9.21697998 L5.90962219,9.31256104 L7.03416443,8.9012146 C7.03416443,8.9012146 7.3117981,9.07113647 7.46290588,9.14405823 C7.61401367,9.21697998 7.97367859,9.27740479 7.97367859,9.27740479 C7.97367859,9.27740479 7.87548828,8.82518005 7.87548828,8.59671021 C7.87548828,8.36824036 8.08317566,7.47683716 8.08317566,7.47683716 Z" id="Path-3341" fill="#BDBDBD" sketch:type="MSShapeGroup"></path>
                <path d="M3.92399505,8.96424236 L3.99197523,8.9866441 L4.06283539,9.00220087 L4.13577415,9.0105393 L4.2096896,9.01165939 L4.28389305,9.00556114 L4.35728258,8.99224454 L4.42895666,8.97195852 L4.49820152,8.94495197 L5.41346087,8.54346288 L5.4250935,8.57420306 L5.609375,9.06007205 L4.47249452,9.43754148 L4.42552572,9.45521397 L4.38027238,9.47674454 L4.3371853,9.50163537 L4.29661507,9.53001092 L4.25874952,9.56149782 L4.22403944,9.59572271 L4.19266012,9.63256114 L4.16507487,9.67163974 L4.14135881,9.71283406 L4.12169978,9.75539738 L4.10638577,9.79945415 L4.09547939,9.8443821 L4.09917329,10.0761157 L3.97204072,10.5385873 L3.71636063,10.9690742 L3.34762233,11.3360895 L2.89071891,11.6120044 L2.37799387,11.7751638 L1.84725013,11.8125 L1.33769307,11.7212751 L0.887088058,11.5084585 L0.527816146,11.1911004 L0.284394776,10.7935939 L0.171875,10.3458079 L0.195315576,9.87972707 L0.349933225,9.4274607 L0.622580186,9.01875328 L0.993209258,8.6791179 L1.43631379,8.42908952 L1.92334435,8.28335371 L2.42343503,8.25 L2.90550701,8.33139301 L3.33915768,8.52243013 L3.69662647,8.81228384 L3.74531074,8.85870524 L3.79985516,8.89989956 L3.85962112,8.93524454 L3.92399505,8.96424236 M3.4236289,9.71121616 L3.34339,9.4516048 L3.17516129,9.20369214 L2.93912771,9.00954367 L2.65116674,8.88123144 L2.33022368,8.82659607 L1.99699685,8.84887336 L1.67298597,8.94694323 L1.37907721,9.11458297 L1.13475428,9.34158734 L0.956683531,9.6136441 L0.857699686,9.91308079 L0.845804095,10.2201092 L0.92297518,10.5135721 L1.07416189,10.7551376 L1.08515592,10.7726856 L1.32209106,10.9787817 L1.61735217,11.1165524 L1.950291,11.1755437 L2.29685341,11.1513996 L2.63205866,11.0458624 L2.93192775,10.8668974 L3.17543677,10.6279454 L3.34609468,10.3465546 L3.43309528,10.0426376 L3.43174294,9.73747598 L3.4236289,9.71121616" id="Fill-14882" fill="#FF0013" sketch:type="MSShapeGroup"></path>
                <path d="M8.60459919,12.6605807 L8.62744564,12.6155955 L8.64579526,12.568856 L8.65964803,12.5208634 L8.66215877,12.5070797 L8.66872915,12.4717431 L8.67303863,12.4219962 L8.71881898,11.25 L8.77153196,11.2622801 L8.82468214,11.2726806 L8.87810712,11.2814521 L8.93188186,11.2883439 L8.98593141,11.2934815 L9.03999344,11.2968648 L9.09423036,11.2983685 L9.14845478,11.2982432 L9.20250432,11.296113 L9.25646643,11.2923538 L9.31015373,11.2867149 L9.36366615,11.2793218 L9.22184075,12.2577188 L9.21482068,12.3313993 L9.21509548,12.3456843 L9.21634461,12.4058316 L9.22642503,12.4798881 L9.24504945,12.552942 L9.27184313,12.6237405 L9.3066437,12.6916569 L9.34901394,12.7559393 L9.39847921,12.8154602 L9.45450237,12.8698434 L9.51619654,12.9180866 L9.58311205,12.9598138 L9.65416216,12.9943985 L10.1217463,13.2653122 L10.5087496,13.6456189 L10.7889903,14.1126381 L10.9415206,14.637549 L10.953125,15.1863936 L10.819294,15.7218304 L10.5459859,16.2055153 L10.149989,16.6014854 L9.65820932,16.8787898 L9.10608453,17.015625 L8.53462333,17.0007135 L7.98655819,16.8353082 L7.50224828,16.5328172 L7.1165941,16.1172992 L6.85532756,15.6205823 L6.734375,15.0795068 L6.75847058,14.5324165 L6.92251788,14.016277 L7.2125642,13.5639188 L7.60719958,13.2034106 L8.08000507,12.955804 L8.34054711,12.895406 L8.38731427,12.8726002 L8.43164564,12.8456591 L8.47320396,12.8149589 L8.51161448,12.7808754 L8.54650248,12.743534 L8.5775307,12.7033104 L8.60459919,12.6605807 M9.69445886,13.7983682 L9.38417675,13.6162971 L9.03926895,13.5178058 L8.6820448,13.5090343 L8.33523834,13.5902333 L8.0212838,13.7568915 L7.76071678,13.9983581 L7.57113741,14.3000973 L7.46618611,14.6426866 L7.45430695,15.0038214 L7.46978358,15.0698581 L7.53777334,15.3589413 L7.71233825,15.6831105 L7.96704689,15.9531471 L8.28451146,16.1490019 L8.64256003,16.2556381 L9.01534825,16.2652868 L9.37590756,16.1770707 L9.69805634,15.9976311 L9.95923543,15.7406264 L10.1312771,15.4430223 L10.1415324,15.4252287 L10.2333554,15.0741186 L10.2297705,14.712232 L10.1325387,14.3642545 L9.94969213,14.052992 L9.69445886,13.7983682" id="Fill-14799" fill="#FF0013" sketch:type="MSShapeGroup"></path>
                <path d="M10.3150722,1.0015389 L10.34375,0.984375 L10.1746239,1.50655862 L8.54109118,6.54936398 L9.13569422,6.69920361 L9.2469186,6.75620782 L9.39622705,6.85906597 L9.5285472,6.97933858 L9.64139718,7.11477056 L9.73244407,7.26298151 L9.79980164,7.42108989 L9.84189392,7.58633945 L9.8577902,7.75547282 L9.84689485,7.92523261 L9.36156793,11.296875 L9.36423593,11.2750756 L9.31107457,11.2824673 L9.25773949,11.2881051 L9.2041314,11.2918636 L9.15043645,11.2939935 L9.09656776,11.2941188 L9.04268667,11.2926153 L8.98897931,11.2892327 L8.93528436,11.284096 L8.88186241,11.2772054 L8.82878792,11.2684355 L8.77598644,11.258037 L8.72361928,11.2457591 L8.72210534,11.2676838 L8.76579842,10.1407545 L8.76963289,10.0916431 L8.76767222,10.0424065 L8.76007774,9.99354579 L8.74684945,9.94581259 L8.72827276,9.89983337 L8.70442212,9.85573341 L8.67573187,9.81426442 L8.64241295,9.77592752 L8.60497415,9.74109857 L8.56368848,9.71002815 L8.51910194,9.68321738 L8.4718474,9.66104211 L8.38052751,9.61857084 L8.29430784,9.56833197 L8.21389571,9.51057606 L8.14028386,9.44605481 L8.07408036,9.37551993 L8.01581879,9.29947255 L7.96623131,9.21891496 L7.92557851,9.13447356 L7.89439399,9.04715062 L7.87286389,8.95769787 L7.86116194,8.86699227 L7.859375,8.7760361 L7.86679575,8.61441977 L7.87786483,8.45393099 L7.89278078,8.29456977 L7.91119615,8.13633611 L7.93334672,7.97935529 L7.9589967,7.82375259 L7.98820814,7.66940273 L8.020919,7.51643099 L8.04226296,7.42685295 L8.05700519,7.36496267 L8.09659079,7.21512303 L8.13956412,7.06666152 L8.18575146,6.91995398 L9.99521056,1.40507859 L10.0260352,1.32740253 L10.0666011,1.25298385 L10.1162755,1.18257425 L10.1746984,1.11680016 L10.2411749,1.05616272 L10.3150722,1.0015389 M8.49847772,7.90330791 L8.50274651,7.91871784 L8.50517873,7.92736244 L8.50784672,7.93675874 L8.52294882,7.99063085 L8.52732929,7.99777203 L8.57048877,8.06730464 L8.5720027,8.06968504 L8.63490534,8.12819265 L8.64241295,8.13508327 L8.71611166,8.17517414 L8.72925309,8.18244062 L8.80868489,8.20336304 L8.82672798,8.20799855 L8.90624664,8.20975252 L8.92806216,8.21037894 L9.00203387,8.19421731 L9.02605824,8.18908067 L9.08932075,8.15801024 L9.11415171,8.14585769 L9.16205153,8.1043887 L9.18608831,8.08371684 L9.21503916,8.04011802 L9.23710286,8.00679248 L9.24308413,7.98762403 L9.25255241,7.95680417 L9.25353274,7.95367207 L9.26373317,7.92072239 L9.26426677,7.83114434 L9.25541895,7.80107619 L9.23710286,7.72214728 L9.19340978,7.64434593 L9.12890635,7.5789477 L9.04786134,7.53033752 L8.95592099,7.50177277 L8.85907897,7.49513272 L8.76401148,7.51079321 L8.6769852,7.54775199 L8.60389455,7.60362864 L8.54965359,7.67466466 L8.53045643,7.72427711 L8.52776362,7.72816091 L8.52215462,7.74570067 L8.51812161,7.75609924 L8.51786101,7.75873021 L8.50016538,7.81385516 L8.49847772,7.90330791" id="Fill-14800" fill="#BDBDBD" sketch:type="MSShapeGroup"></path>
                <path d="M10.9398499,0.940979004 C10.9398499,0.940979004 10.4411621,0.952423096 10.2787476,1.10348511 C10.116333,1.25454712 10.089325,1.41897583 9.99026489,1.68731689 C9.89120483,1.95565796 8.83377084,5.07403564 8.58529672,5.8458252 C8.3368226,6.61761475 8,7.64538574 7.91567993,8.3687439 C7.83135987,9.09210205 7.98251337,9.38053894 8.22732538,9.57847595 C8.47213739,9.77641296 8.69050837,9.98052979 8.74899286,10.2524872 C8.80747736,10.5244446 8.76153559,10.8857574 8.69726557,11.3859558 C8.63299555,11.8861542 8.62118529,12.5445099 8.45025634,12.6670074 C8.27932738,12.789505 7.56301883,12.8262177 7.08479309,13.56633 C6.60656736,14.3064423 6.60157776,14.9907532 6.65371704,15.3609009 C6.70585632,15.7310486 7.15885924,16.5466003 7.49421691,16.7690735 C7.82957458,16.9915466 8.64590435,17.3263092 9.40931701,17.1230621 C10.1727297,16.9198151 10.5565185,16.4646149 10.8545227,15.8686066 C11.1525268,15.2725983 11.118103,14.4510498 10.6984252,13.7287445 C10.2787475,13.0064392 9.65193167,12.8530426 9.51533507,12.7245941 C9.37873848,12.5961456 9.43444818,12.1575623 9.51533502,11.3859558 C9.59622186,10.6143494 9.80216989,9.06349182 9.94146737,7.91693115 C10.0807649,6.77037048 10.9398499,0.940979004 10.9398499,0.940979004 Z" id="Path-3336" stroke="#000000" stroke-width="0.5" sketch:type="MSShapeGroup"></path>
                <path d="M8.15083313,7.33232117 L7.66995239,7.5703125 C7.66995239,7.5703125 7.51660156,7.48123169 7.42326355,7.48123169 C7.32992554,7.48123169 5.48371887,8.26194763 5.41642761,8.31445313 C5.34913635,8.36695862 5.32235735,8.52108765 5.32235735,8.52108765 C5.32235735,8.52108765 4.62014771,8.86335754 4.4417572,8.86335754 C4.2633667,8.86335754 4.01026917,8.8535614 3.88520813,8.78974915 C3.7601471,8.72593689 3.44447327,8.3780365 2.99783325,8.21292114 C2.55119323,8.04780579 1.92442313,8.05622864 1.28634644,8.31445313 C0.648269745,8.57267761 0.187072751,9.15948486 0.0723113982,9.80259705 C-0.0424499546,10.4457092 0.251937851,11.2229004 0.819839482,11.6173096 C1.38774111,12.0117188 2.58081055,12.0070496 3.18125916,11.6173096 C3.78170777,11.2275696 4.18327201,10.7115784 4.24139405,10.0767517 C4.26954457,9.76928303 4.29257219,9.68421936 4.59785479,9.53530884 C4.90313738,9.38639832 5.49530054,9.20700073 5.56561297,9.20700073 C5.63592539,9.20700073 5.80213936,9.29008484 5.88677979,9.29008484 C5.97142021,9.29008484 7.05334473,8.9070282 7.05334473,8.9070282 C7.05334473,8.9070282 7.21502693,9.05776978 7.38128662,9.13027954 C7.54754631,9.20278931 8.02050781,9.28967285 8.02050781,9.28967285" id="Path-3337" stroke="#000000" stroke-width="0.5" sketch:type="MSShapeGroup"></path>
                <circle id="Oval-4" stroke="#000000" stroke-width="0.5" sketch:type="MSShapeGroup" cx="8.984375" cy="7.828125" r="0.375"></circle>
                <path d="M10.2610779,6.48028564 L16.1112976,3.93740845 C16.1112976,3.93740845 16.1634827,4.31890869 16.1634827,4.47079468 C16.1634827,4.62268066 16.0999451,4.73822021 15.9480591,4.84936523 C15.7961731,4.96051025 9.85293579,8.65621948 9.85293579,8.65621948" id="Path-3338" stroke="#000000" stroke-width="0.5" sketch:type="MSShapeGroup"></path>
                <path d="M8.39981079,6.51132202 C8.39981079,6.51132202 8.93800354,6.61514282 9.14775085,6.71113586 C9.35749817,6.80712891 9.48136902,6.90229797 9.59773254,7.04512024 C9.71409607,7.1879425 9.89390564,7.58418274 9.89390564,7.73872375" id="Path-3340" stroke="#000000" stroke-width="0.5" sketch:type="MSShapeGroup"></path>
                <path id="Path-3342" stroke="#000000" stroke-width="0.5" sketch:type="MSShapeGroup" d="M5.36172485,8.43186951 L5.6605072,9.22366333"></path>
                <path id="Path-3343" stroke="#000000" stroke-width="0.5" sketch:type="MSShapeGroup" d="M8.68078613,11.2796173 L9.54431152,11.3056641"></path>
                <ellipse id="Oval-5" stroke="#000000" stroke-width="0.5" sketch:type="MSShapeGroup" transform="translate(2.187500, 10.007812) rotate(-15.000000) translate(-2.187500, -10.007812) " cx="2.1875" cy="10.0078125" rx="1.359375" ry="1.1484375"></ellipse>
                <path d="M8.98063405,13.5796223 C8.25063768,13.5353782 7.60987685,14.1066417 7.54945467,14.855575 C7.4890325,15.6045082 8.03182963,16.2475055 8.761826,16.2917496 C9.49182237,16.3359936 10.1325832,15.7647301 10.1930054,15.0157969 C10.2534276,14.2668636 9.71063042,13.6238663 8.98063405,13.5796223 Z" id="Oval-5-Copy" stroke="#000000" stroke-width="0.5" sketch:type="MSShapeGroup"></path>
            </g>
        </g>
    </g>
</svg>