<?xml version="1.0" encoding="UTF-8" standalone="no"?>
<svg width="24px" height="24px" viewBox="0 0 24 24" version="1.1" xmlns="http://www.w3.org/2000/svg" xmlns:xlink="http://www.w3.org/1999/xlink" xmlns:sketch="http://www.bohemiancoding.com/sketch/ns">
    <!-- Generator: Sketch 3.3.2 (12043) - http://www.bohemiancoding.com/sketch -->
    <title>tb_dimension</title>
    <desc>Created with Sketch.</desc>
    <defs></defs>
    <g id="Page-1" stroke="none" stroke-width="1" fill="none" fill-rule="evenodd" sketch:type="MSPage">
        <g id="tb_dimension" sketch:type="MSArtboardGroup">
            <g id="Group" sketch:type="MSLayerGroup" transform="translate(3.000000, 3.000000)">
                <path d="M8.25,16.2655622 C8.25,15.8517908 8.58612661,15.515625 8.99991797,15.515625 C9.41370933,15.515625 9.75,15.8517908 9.75,16.2655622 C9.75,16.6794592 9.41370933,17.015625 8.99991797,17.015625 C8.58612661,17.015625 8.25,16.6794592 8.25,16.2655622 L8.25,16.2655622 Z" id="Fill-23232" fill="#00FF00" sketch:type="MSShapeGroup"></path>
                <path d="M8.25,16.2656313 C8.25,15.8517992 8.58612661,15.515625 8.99991797,15.515625 C9.41370933,15.515625 9.75,15.8517992 9.75,16.2656313 C9.75,16.6794634 9.41370933,17.015625 8.99991797,17.015625 C8.58612661,17.015625 8.25,16.6794634 8.25,16.2656313 L8.25,16.2656313 Z" id="Stroke-23233" stroke="#FFFFFF" stroke-width="2.12499834" stroke-linecap="round" sketch:type="MSShapeGroup"></path>
                <path d="M15.375,9.00006279 C15.375,8.58616576 15.7112163,8.25 16.1249306,8.25 C16.5388468,8.25 16.875,8.58616576 16.875,9.00006279 C16.875,9.41383424 16.5388468,9.75 16.1249306,9.75 C15.7112163,9.75 15.375,9.41383424 15.375,9.00006279 L15.375,9.00006279 Z" id="Fill-23234" fill="#00FF00" sketch:type="MSShapeGroup"></path>
                <path d="M15.375,9.00000628 C15.375,8.5861742 15.7112163,8.25 16.1249306,8.25 C16.5388468,8.25 16.875,8.5861742 16.875,9.00000628 C16.875,9.41383836 16.5388468,9.75 16.1249306,9.75 C15.7112163,9.75 15.375,9.41383836 15.375,9.00000628 L15.375,9.00000628 Z" id="Stroke-23235" stroke="#FFFFFF" stroke-width="2.12499834" stroke-linecap="round" sketch:type="MSShapeGroup"></path>
                <path d="M8.90625,16.21875 L0.890625,8.15625" id="Stroke-23236" stroke="#FFFFFF" stroke-width="1.74999863" stroke-linecap="round" sketch:type="MSShapeGroup"></path>
                <path d="M1.640625,12.609375 L12.421875,1.875" id="Stroke-23237" stroke="#FFFFFF" stroke-width="1.74999863" stroke-linecap="round" sketch:type="MSShapeGroup"></path>
                <path d="M16.03125,9.09375 L8.015625,1.03125" id="Stroke-23238" stroke="#FFFFFF" stroke-width="1.74999863" stroke-linecap="round" sketch:type="MSShapeGroup"></path>
                <path id="Stroke-23239" stroke="#FFFFFF" stroke-width="2.49999805" stroke-linecap="round" sketch:type="MSShapeGroup" d="M10.640625,1.875 L10.640625,5.4375"></path>
                <path id="Stroke-23240" stroke="#FFFFFF" stroke-width="2.49999805" stroke-linecap="round" sketch:type="MSShapeGroup" d="M3.515625,9 L3.515625,12.515625"></path>
                <path d="M8.90625,16.21875 L0.890625,8.15625" id="Stroke-23243" stroke="#000000" stroke-width="0.624999512" stroke-linecap="round" sketch:type="MSShapeGroup"></path>
                <path d="M1.640625,12.609375 L12.421875,1.875" id="Stroke-23244" stroke="#000000" stroke-width="0.624999512" stroke-linecap="round" sketch:type="MSShapeGroup"></path>
                <path d="M16.03125,9.09375 L8.015625,1.03125" id="Stroke-23245" stroke="#000000" stroke-width="0.624999512" stroke-linecap="round" sketch:type="MSShapeGroup"></path>
                <path id="Stroke-23246" stroke="#000000" stroke-width="0.999999219" stroke-linecap="round" sketch:type="MSShapeGroup" d="M3.515625,9 L3.515625,12.515625"></path>
                <path id="Stroke-23247" stroke="#000000" stroke-width="0.999999219" stroke-linecap="round" sketch:type="MSShapeGroup" d="M10.640625,1.875 L10.640625,5.390625"></path>
                <path d="M8.25,16.2656313 C8.25,15.8517992 8.58612661,15.515625 8.99991797,15.515625 C9.41370933,15.515625 9.75,15.8517992 9.75,16.2656313 C9.75,16.6794634 9.41370933,17.015625 8.99991797,17.015625 C8.58612661,17.015625 8.25,16.6794634 8.25,16.2656313 L8.25,16.2656313 Z" id="Stroke-23251" stroke="#FFFFFF" stroke-width="1.37499893" stroke-linecap="round" sketch:type="MSShapeGroup"></path>
                <path d="M8.25,16.2655622 C8.25,15.8517908 8.58612661,15.515625 8.99991797,15.515625 C9.41370933,15.515625 9.75,15.8517908 9.75,16.2655622 C9.75,16.6794592 9.41370933,17.015625 8.99991797,17.015625 C8.58612661,17.015625 8.25,16.6794592 8.25,16.2655622 L8.25,16.2655622 Z" id="Fill-23253" fill="#00FF00" sketch:type="MSShapeGroup"></path>
                <path d="M8.25,16.2656313 C8.25,15.8517992 8.58612661,15.515625 8.99991797,15.515625 C9.41370933,15.515625 9.75,15.8517992 9.75,16.2656313 C9.75,16.6794634 9.41370933,17.015625 8.99991797,17.015625 C8.58612661,17.015625 8.25,16.6794634 8.25,16.2656313 L8.25,16.2656313 Z" id="Stroke-23255" stroke="#419324" stroke-width="0.5" stroke-linecap="round" sketch:type="MSShapeGroup"></path>
                <path d="M15.375,9.00000628 C15.375,8.5861742 15.7112163,8.25 16.1249306,8.25 C16.5388468,8.25 16.875,8.5861742 16.875,9.00000628 C16.875,9.41383836 16.5388468,9.75 16.1249306,9.75 C15.7112163,9.75 15.375,9.41383836 15.375,9.00000628 L15.375,9.00000628 Z" id="Stroke-23256" stroke="#FFFFFF" stroke-width="1.37499893" stroke-linecap="round" sketch:type="MSShapeGroup"></path>
                <path d="M15.375,9.00006279 C15.375,8.58616576 15.7112163,8.25 16.1249306,8.25 C16.5388468,8.25 16.875,8.58616576 16.875,9.00006279 C16.875,9.41383424 16.5388468,9.75 16.1249306,9.75 C15.7112163,9.75 15.375,9.41383424 15.375,9.00006279 L15.375,9.00006279 Z" id="Fill-23257" fill="#00FF00" sketch:type="MSShapeGroup"></path>
                <path d="M15.375,9.00000628 C15.375,8.5861742 15.7112163,8.25 16.1249306,8.25 C16.5388468,8.25 16.875,8.5861742 16.875,9.00000628 C16.875,9.41383836 16.5388468,9.75 16.1249306,9.75 C15.7112163,9.75 15.375,9.41383836 15.375,9.00000628 L15.375,9.00000628 Z" id="Stroke-23258" stroke="#419324" stroke-width="0.5" stroke-linecap="round" sketch:type="MSShapeGroup"></path>
                <path d="M3.87499858,3.18862537 L5.38299741,1.70962652 L3.70099872,1.70962652 C3.51249792,1.70962652 3.38683261,1.72170972 3.32399901,1.74587649 C3.20316517,1.78454332 3.14274916,1.87879231 3.14274916,2.02862627 C3.14274916,2.07695981 3.14758244,2.14704239 3.15724914,2.23887611 C3.16691585,2.33070983 3.17174913,2.40079241 3.17174913,2.44912594 C3.17174913,2.70046034 3.08716671,2.82612565 2.91799933,2.82612565 C2.75366531,2.82612565 2.67149952,2.7222101 2.67149952,2.51437589 C2.67149952,2.45637565 2.67512449,2.36816827 2.68237452,2.2497511 C2.68962455,2.13133393 2.69324951,2.04312655 2.69324951,1.98512631 C2.69324951,1.8497924 2.69083287,1.7482935 2.68599951,1.68062654 C2.68116616,1.61295959 2.67874952,1.53804373 2.67874952,1.45587672 C2.67874952,1.32537617 2.70291592,1.24441871 2.75124946,1.21300191 C2.799583,1.18158511 2.92041503,1.16587695 3.11374918,1.16587695 L4.89724779,1.16587695 C4.99391486,1.16587695 5.15824642,1.16104366 5.3902474,1.15137696 C5.50624789,1.1465436 5.64157976,1.14412696 5.79624708,1.14412696 C6.08141495,1.14412696 6.22399675,1.23112602 6.22399675,1.40512676 C6.22399675,1.51629389 6.16358073,1.629876 6.04274689,1.74587649 L4.70874793,3.02912549 C4.73774805,3.02912549 4.7764143,3.02670885 4.82474784,3.0218755 L4.91899777,3.0218755 C5.32983283,3.0218755 5.6669542,3.15358241 5.93037198,3.41700019 C6.19378976,3.68041796 6.32549667,4.01753933 6.32549667,4.4283744 C6.32549667,4.94070989 6.13820702,5.35878872 5.76362211,5.68262342 C5.38903719,6.00645812 4.90691739,6.16837304 4.31724824,6.16837304 C3.77591262,6.16837304 3.32400083,6.03666612 2.9614993,5.77324835 C2.59899777,5.50983057 2.41774972,5.17995912 2.41774972,4.78362412 C2.41774972,4.55645649 2.48299902,4.36433357 2.61349957,4.20724957 C2.74400012,4.05016557 2.90591504,3.97162475 3.09924919,3.97162475 C3.22491639,3.97162475 3.32762361,4.00908268 3.40737395,4.08399967 C3.48712429,4.15891665 3.52699886,4.25679059 3.52699886,4.37762444 C3.52699886,4.61929212 3.38441706,4.74012415 3.09924919,4.74012415 L3.01949925,4.74012415 L3.01949925,4.79087411 C3.01949925,5.02770845 3.15120617,5.2331229 3.41462394,5.40712363 C3.67804172,5.58112437 3.98858004,5.66812343 4.34624822,5.66812343 C4.74741657,5.66812343 5.0760797,5.553333 5.33224745,5.3237487 C5.58841519,5.0941644 5.71649715,4.80054256 5.71649715,4.44287439 C5.71649715,3.8145384 5.35883433,3.50037512 4.64349798,3.50037512 C4.45499719,3.50037512 4.2592493,3.52212489 4.05624844,3.56562507 C4.01274826,3.57529178 3.97166537,3.58012506 3.93299854,3.58012506 C3.81699805,3.58012506 3.75899867,3.5172924 3.75899867,3.39162521 C3.75899867,3.33362496 3.79766492,3.26595902 3.87499858,3.18862537 L3.87499858,3.18862537 Z" id="3-copy" stroke="#FFFFFF" sketch:type="MSShapeGroup" transform="translate(4.549248, 3.656250) rotate(-45.000000) translate(-4.549248, -3.656250) "></path>
                <path d="M3.87499858,3.18862537 L5.38299741,1.70962652 L3.70099872,1.70962652 C3.51249792,1.70962652 3.38683261,1.72170972 3.32399901,1.74587649 C3.20316517,1.78454332 3.14274916,1.87879231 3.14274916,2.02862627 C3.14274916,2.07695981 3.14758244,2.14704239 3.15724914,2.23887611 C3.16691585,2.33070983 3.17174913,2.40079241 3.17174913,2.44912594 C3.17174913,2.70046034 3.08716671,2.82612565 2.91799933,2.82612565 C2.75366531,2.82612565 2.67149952,2.7222101 2.67149952,2.51437589 C2.67149952,2.45637565 2.67512449,2.36816827 2.68237452,2.2497511 C2.68962455,2.13133393 2.69324951,2.04312655 2.69324951,1.98512631 C2.69324951,1.8497924 2.69083287,1.7482935 2.68599951,1.68062654 C2.68116616,1.61295959 2.67874952,1.53804373 2.67874952,1.45587672 C2.67874952,1.32537617 2.70291592,1.24441871 2.75124946,1.21300191 C2.799583,1.18158511 2.92041503,1.16587695 3.11374918,1.16587695 L4.89724779,1.16587695 C4.99391486,1.16587695 5.15824642,1.16104366 5.3902474,1.15137696 C5.50624789,1.1465436 5.64157976,1.14412696 5.79624708,1.14412696 C6.08141495,1.14412696 6.22399675,1.23112602 6.22399675,1.40512676 C6.22399675,1.51629389 6.16358073,1.629876 6.04274689,1.74587649 L4.70874793,3.02912549 C4.73774805,3.02912549 4.7764143,3.02670885 4.82474784,3.0218755 L4.91899777,3.0218755 C5.32983283,3.0218755 5.6669542,3.15358241 5.93037198,3.41700019 C6.19378976,3.68041796 6.32549667,4.01753933 6.32549667,4.4283744 C6.32549667,4.94070989 6.13820702,5.35878872 5.76362211,5.68262342 C5.38903719,6.00645812 4.90691739,6.16837304 4.31724824,6.16837304 C3.77591262,6.16837304 3.32400083,6.03666612 2.9614993,5.77324835 C2.59899777,5.50983057 2.41774972,5.17995912 2.41774972,4.78362412 C2.41774972,4.55645649 2.48299902,4.36433357 2.61349957,4.20724957 C2.74400012,4.05016557 2.90591504,3.97162475 3.09924919,3.97162475 C3.22491639,3.97162475 3.32762361,4.00908268 3.40737395,4.08399967 C3.48712429,4.15891665 3.52699886,4.25679059 3.52699886,4.37762444 C3.52699886,4.61929212 3.38441706,4.74012415 3.09924919,4.74012415 L3.01949925,4.74012415 L3.01949925,4.79087411 C3.01949925,5.02770845 3.15120617,5.2331229 3.41462394,5.40712363 C3.67804172,5.58112437 3.98858004,5.66812343 4.34624822,5.66812343 C4.74741657,5.66812343 5.0760797,5.553333 5.33224745,5.3237487 C5.58841519,5.0941644 5.71649715,4.80054256 5.71649715,4.44287439 C5.71649715,3.8145384 5.35883433,3.50037512 4.64349798,3.50037512 C4.45499719,3.50037512 4.2592493,3.52212489 4.05624844,3.56562507 C4.01274826,3.57529178 3.97166537,3.58012506 3.93299854,3.58012506 C3.81699805,3.58012506 3.75899867,3.5172924 3.75899867,3.39162521 C3.75899867,3.33362496 3.79766492,3.26595902 3.87499858,3.18862537 L3.87499858,3.18862537 Z" id="3" fill="#000000" sketch:type="MSShapeGroup" transform="translate(4.549248, 3.656250) rotate(-45.000000) translate(-4.549248, -3.656250) "></path>
            </g>
        </g>
    </g>
</svg>