<svg xmlns="http://www.w3.org/2000/svg" width="24" height="24" viewBox="0 0 24 24">
  <g fill="none" fill-rule="evenodd" transform="translate(2.5 4.5)">
    <g transform="translate(.45)">
      <path fill="#000000" d="M9.79331036,12.8916259 C9.15384655,13.552723 8.72586732,13.9952579 8.72349625,14 C8.72349625,14 2.16044682,6.88680466 2.16044682,6.96038163 C2.14573147,6.87208926 0.43875,3.89957956 0.43875,3.89957956 C0.43875,3.89957956 3.94100508,0.956500647 3.98515115,0.993289133 C3.98515115,0.941785252 6.92822264,0.0220730918 6.92822264,0.0220730918 C6.92822264,0.0220730918 10.6953541,0.0441461837 10.6953541,0.0220730918 C10.7100695,0.0441461837 13.6678564,1.04479301 13.6678564,0.993289133 L17.11125,3.89957956 C17.11125,3.89957956 15.4925607,7.01924321 15.4778453,6.96038163 C15.4778453,6.98096142 14.9501605,7.53929346 14.1897758,8.33335739 C14.1848524,8.33334135 14.1799272,8.33333333 14.175,8.33333333 C11.7518507,8.33333333 9.7875,10.2734328 9.7875,12.6666667 C9.7875,12.742119 9.78945251,12.8171209 9.79331036,12.8916259 Z"/>
      <polygon fill="#E72B2D" points="10.564 .427 13.357 1.339 13.663 2.575 10.96 3.826 6.604 3.826 3.882 2.575 4.221 1.339 7.017 .427"/>
      <polygon fill="#E72B2D" points="3.75 1.707 3.514 2.56 1.896 3.252"/>
      <polygon fill="#FF0011" points="1.027 4.017 3.382 3.002 2.308 6.239"/>
      <polygon fill="#FF0013" points="3.764 2.928 6.207 4.047 2.646 6.328"/>
      <polygon fill="#FF0014" points="8.492 8.039 2.746 6.715 6.501 4.253"/>
      <polygon fill="#670007" points="8.589 13.143 3.012 7.179 8.589 8.404"/>
      <path fill="#670007" d="M9.80638662,12.2619141 L8.97230896,13.1538391 L8.97230896,8.41509247 L14.5492863,7.19007111 L13.4204782,8.39716765 C11.488527,8.72788648 9.9897724,10.3065624 9.80638662,12.2619141 Z"/>
      <polygon fill="#E72B2D" points="15.654 1.707 15.419 2.56 13.8 3.252" transform="matrix(-1 0 0 1 29.455 0)"/>
      <polygon fill="#DB000E" points="14.168 4.017 16.523 3.002 15.448 6.239" transform="matrix(-1 0 0 1 30.69 0)"/>
      <polygon fill="#FF0011" points="12.461 2.928 14.904 4.047 11.343 6.328" transform="matrix(-1 0 0 1 26.247 0)"/>
      <polygon fill="#FF0014" points="14.804 8.039 9.058 6.715 12.756 4.263" transform="matrix(-1 0 0 1 23.862 0)"/>
      <polygon fill="#FF7776" points="8.775 7.875 6.855 4.194 10.789 4.194"/>
    </g>
    <g transform="translate(9.9 1.6)">
      <path fill="#FFFADB" d="M1.38186362,1.90035225 C1.57165467,1.61724518 1.96135531,1.53706264 2.25205832,1.72237636 C2.54248785,1.90742326 2.62411987,2.28792343 2.43432883,2.57129733 C2.24467451,2.85480465 1.8547004,2.93445353 1.5644076,2.74940664 C1.27356786,2.56409291 1.19220931,2.18359274 1.38186362,1.90035225 L1.38186362,1.90035225 Z"/>
      <path stroke="#FFFADB" stroke-width=".506" d="M1.00604297.822036037L2.82232144 3.68299177M2.7709083 1.48911208L1.00604297 3.15226607" stroke-linecap="round"/>
    </g>
    <path fill="#E72B2D" stroke="#000000" stroke-width=".5" d="M6.52307008,3.05940938 L5.97866647,2.93529679 C5.91644891,2.6870716 5.83066877,2.46987457 5.70607965,2.25298173 L6.02070952,1.7877116 C6.0519723,1.72580741 6.05382035,1.66390321 6.02271157,1.57066667 L5.55731193,1.10554864 C5.52635716,1.04364444 5.40238406,1.04364444 5.37127528,1.07452049 L4.90510563,1.41552593 C4.71876097,1.29171753 4.47004475,1.19848099 4.25259131,1.13627259 L4.12831021,0.607881481 C4.06593865,0.515101235 4.0040291,0.513580247 3.91070277,0.513580247 L3.22677167,0.513580247 C3.13375334,0.513580247 3.10249056,0.515101235 3.07138178,0.60803358 L2.94679267,1.15117827 C2.72964724,1.21323457 2.51173179,1.29932247 2.29397035,1.42313086 L1.82764669,1.10919901 C1.76558314,1.04729481 1.6721028,1.07649778 1.61019325,1.10737383 L1.1438696,1.60275951 C1.08165204,1.63363556 1.08165204,1.7264158 1.11291482,1.78832 L1.45495737,2.25313383 C1.33021426,2.47033086 1.23719593,2.71840395 1.17497837,2.93544889 L0.645359134,3.05940938 C0.552186805,3.05940938 0.52,3.12131358 0.52,3.21439802 L0.52,3.89671309 C0.52,3.98964543 0.552032801,4.02052148 0.61440436,4.05170173 L1.15896197,4.17581432 C1.22087152,4.42403951 1.30680567,4.64123654 1.43124078,4.85812938 L1.08550214,5.32339951 C1.08550214,5.3853037 1.08365409,5.4472079 1.14587165,5.5091121 L1.64238006,5.97468642 C1.70444361,6.00556247 1.76619915,6.03659062 1.85967949,5.97468642 L2.32569514,5.66455704 C2.5121938,5.78836543 2.76075602,5.88144988 3.00947224,5.94365827 L3.13406135,6.50322963 C3.16455411,6.59600988 3.22677167,6.59753086 3.28883522,6.59753086 L3.97276632,6.59753086 C4.06593865,6.59753086 4.09720143,6.59600988 4.12831021,6.50307753 L4.25259131,5.92875259 C4.50130753,5.8666963 4.71891497,5.78106469 4.93652241,5.6572563 L5.40269207,5.97103605 C5.46490962,6.0020642 5.55823596,6.00388938 5.58934473,5.97270914 L6.05566839,5.5085037 C6.08631516,5.47762765 6.11757794,5.35397136 6.05566839,5.32309531 L5.74458061,4.85812938 C5.86916973,4.6718084 5.96234206,4.42403951 6.02440561,4.20669037 L6.58513363,4.08303407 C6.67861397,4.05170173 6.68,3.98964543 6.68,3.92774123 L6.68,3.24527407 C6.68,3.12146568 6.61655041,3.05940938 6.52307008,3.05940938 L6.52307008,3.05940938 Z M3.56866022,4.79592099 C2.88488312,4.79592099 2.32523313,4.23771852 2.32523313,3.55555556 C2.32523313,2.87339259 2.88488312,2.31519012 3.56866022,2.31519012 C4.25274532,2.31519012 4.8120873,2.87339259 4.8120873,3.55555556 C4.8120873,4.23771852 4.25274532,4.79592099 3.56866022,4.79592099 L3.56866022,4.79592099 Z" transform="translate(10.8 8.889)"/>
  </g>
</svg>
