<?xml version="1.0" encoding="UTF-8" standalone="no"?>
<svg width="24px" height="24px" viewBox="0 0 24 24" version="1.1" xmlns="http://www.w3.org/2000/svg" xmlns:xlink="http://www.w3.org/1999/xlink" xmlns:sketch="http://www.bohemiancoding.com/sketch/ns">
    <!-- Generator: Sketch 3.3.2 (12043) - http://www.bohemiancoding.com/sketch -->
    <title>tb_erase</title>
    <desc>Created with Sketch.</desc>
    <defs></defs>
    <g id="Page-1" stroke="none" stroke-width="1" fill="none" fill-rule="evenodd" sketch:type="MSPage">
        <g id="tb_erase" sketch:type="MSArtboardGroup">
            <path d="M3.421875,16.2343611 L5.01944508,10.6875 L13.40625,14.9399977 L11.6092027,20.671875 L3.421875,16.2343611 L3.421875,16.2343611 Z" id="Fill-28211" fill="#FC8098" sketch:type="MSShapeGroup"></path>
            <path d="M11.53125,20.625 L13.3291427,14.8978648 L19.921875,4.921875 L17.9240356,10.6488853 L11.53125,20.625 L11.53125,20.625 Z" id="Fill-28212" fill="#6D434C" sketch:type="MSShapeGroup"></path>
            <path d="M11.53125,20.625 L13.3291427,14.8979389 L19.921875,4.921875 L17.9240356,10.6488811 L11.53125,20.625 L11.53125,20.625 Z" id="Stroke-28213" stroke="#FFFFFF" stroke-width="0.5" stroke-linecap="round" stroke-linejoin="round" sketch:type="MSShapeGroup"></path>
            <path d="M4.921875,10.7091229 L13.295625,14.953125 L19.875,4.98882146 L13.295625,3.328125 L4.921875,10.7091229 L4.921875,10.7091229 Z" id="Fill-28214" fill="#FFA2BF" sketch:type="MSShapeGroup"></path>
            <path d="M4.921875,10.7090821 L13.295625,14.953125 L19.875,4.98883536 L13.295625,3.328125 L4.921875,10.7090821 L4.921875,10.7090821 Z" id="Stroke-28215" stroke="#FFFFFF" stroke-width="0.5" stroke-linecap="round" stroke-linejoin="round" sketch:type="MSShapeGroup"></path>
            <path d="M9.46077145,7.5670407 L9.46077145,7.68350503 C9.59664717,7.49424955 9.78226034,7.39962323 10.0176165,7.39962323 C10.2602517,7.39962323 10.4531438,7.48333113 10.5962986,7.65074943 C10.7394534,7.81816774 10.8110297,8.04502827 10.8110297,8.33133784 C10.8110297,8.63948458 10.7352074,8.88514906 10.5835603,9.06833865 C10.4319133,9.25152825 10.2287094,9.34312167 9.97394238,9.34312167 C9.76284974,9.34312167 9.59179447,9.26911904 9.46077145,9.12111155 L9.46077145,9.4231909 C9.46077145,9.51539228 9.46319776,9.57483702 9.46805047,9.6015269 C9.48260858,9.67674382 9.51779016,9.71435171 9.57359626,9.71435171 C9.59058073,9.71435171 9.61605704,9.71071224 9.65002598,9.70343318 C9.68399491,9.69615413 9.70947122,9.69251465 9.72645569,9.69251465 C9.80409896,9.69251465 9.84292002,9.73254886 9.84292002,9.81261849 C9.84292002,9.89268811 9.79196738,9.93272232 9.69006059,9.93272232 C9.6536653,9.93272232 9.5990732,9.92786969 9.52628263,9.91816428 C9.47290288,9.91088523 9.39283446,9.90724575 9.28607496,9.90724575 C9.2278425,9.90724575 9.17931619,9.90967207 9.14049455,9.91452477 C9.04344046,9.92665653 8.97914309,9.93272232 8.94760051,9.93272232 C8.90635252,9.93272232 8.87117094,9.91998417 8.84205471,9.89450747 C8.81293849,9.86903077 8.79838059,9.8393084 8.79838059,9.80533947 C8.79838059,9.7276962 8.83962796,9.68887514 8.92212394,9.68887514 C8.93668205,9.68887514 8.95973205,9.69251462 8.99127463,9.69979367 C9.03252262,9.70949908 9.06285157,9.71435171 9.08226239,9.71435171 C9.12836308,9.71435171 9.15687229,9.69069513 9.16779088,9.64338126 C9.17870946,9.59606739 9.18538183,9.46443976 9.18780818,9.24849441 L9.19144769,7.84364347 C9.18902134,7.73203127 9.15747923,7.67622601 9.09682043,7.67622601 C9.07983596,7.67622601 9.05375307,7.68047206 9.01857096,7.68896429 C8.98338885,7.69745652 8.9560928,7.70170258 8.93668198,7.70170258 C8.84690695,7.70170258 8.8020201,7.66166837 8.8020201,7.58159874 C8.8020201,7.50395547 8.85539905,7.46513442 8.96215855,7.46513442 C8.98884843,7.46513442 9.01796422,7.46634757 9.04950679,7.46877393 C9.1101656,7.47362663 9.15505244,7.47605295 9.18416867,7.47605295 C9.20600584,7.47605295 9.23754795,7.47423321 9.27879594,7.47059368 C9.32004393,7.46695415 9.35037287,7.46513442 9.36978369,7.46513442 C9.4304425,7.46513442 9.46077145,7.49910284 9.46077145,7.5670407 L9.46077145,7.5670407 Z M9.5153641,8.01106094 C9.49352693,8.10568868 9.48139535,8.22093869 9.478969,8.35681441 C9.478969,8.36651982 9.47775584,8.38471719 9.47532949,8.41140706 L9.47532949,8.46236021 C9.47532949,8.62492581 9.48867422,8.74320871 9.5153641,8.81721245 C9.54205397,8.89121619 9.59482634,8.9573333 9.67368279,9.01556576 C9.75253924,9.07379821 9.85019845,9.102914 9.96666336,9.102914 C10.1413607,9.102914 10.2766278,9.03922321 10.3724687,8.91183972 C10.4683097,8.78445622 10.5162294,8.60308911 10.5162294,8.36773294 C10.5162294,7.88246249 10.343961,7.6398309 9.99941895,7.6398309 C9.88295405,7.6398309 9.77922904,7.67501248 9.68824083,7.7453767 C9.59725262,7.81574092 9.53962762,7.90430144 9.5153641,8.01106094 L9.5153641,8.01106094 Z M11.6808727,8.22579204 L11.6808727,8.69892837 C11.6808727,8.82024598 11.6820858,8.8918223 11.6845122,8.91365947 C11.6966439,9.02284532 11.7293992,9.07743743 11.7827789,9.07743743 C11.7949107,9.07743743 11.8252397,9.07137164 11.8737667,9.05923988 C11.8858985,9.05438717 11.9040958,9.05196086 11.9283594,9.05196086 C12.0205607,9.05196086 12.0666607,9.09199507 12.0666607,9.17206469 C12.0666607,9.20603363 12.0514963,9.23514942 12.0211669,9.25941294 C11.9908375,9.28367646 11.952623,9.29580804 11.9065223,9.29580804 C11.8677007,9.29580804 11.8088625,9.29034883 11.730006,9.27943024 C11.6511496,9.26851166 11.5923114,9.26305245 11.5534898,9.26305245 C11.4904046,9.26305245 11.4200415,9.26790508 11.3423982,9.27761049 C11.2477705,9.28974225 11.1846863,9.29580804 11.1531437,9.29580804 C11.0560896,9.29580804 11.0075633,9.25456067 11.0075633,9.17206469 C11.0075633,9.09199507 11.0488106,9.05196086 11.1313066,9.05196086 C11.1507174,9.05196086 11.1792267,9.05560033 11.2168351,9.06287939 C11.2544436,9.07015845 11.2829528,9.07379792 11.3023636,9.07379792 C11.3605961,9.07379792 11.3957776,8.99615581 11.4079094,8.84086927 L11.4079094,8.52423188 L11.4079094,8.22579204 L11.4079094,7.90915466 C11.3957776,7.75629447 11.3593829,7.67986552 11.2987241,7.67986552 C11.2793133,7.67986552 11.2520172,7.68411157 11.2168351,7.6926038 C11.181653,7.70109604 11.1555701,7.70534209 11.1385856,7.70534209 C11.051237,7.70534209 11.0075633,7.66652103 11.0075633,7.58887776 C11.0075633,7.50638178 11.0609422,7.46513442 11.1677017,7.46513442 C11.2138024,7.46513442 11.2465577,7.46634757 11.2659685,7.46877393 C11.3436118,7.47847933 11.3933512,7.48333197 11.4151884,7.48333197 C11.4345992,7.48333197 11.4643216,7.48029907 11.5043564,7.47423319 C11.5443912,7.46816731 11.5741136,7.46513442 11.5935244,7.46513442 C11.6638886,7.46513442 11.6990702,7.51244757 11.6990702,7.60707531 C11.6990702,7.61678072 11.6978571,7.63133862 11.6954307,7.65074943 C11.6930044,7.67016025 11.6917912,7.68471815 11.6917912,7.69442356 C11.6893648,7.71383438 11.6869385,7.78905017 11.6845122,7.92007319 C11.6820858,8.01955363 11.6808727,8.1214589 11.6808727,8.22579204 L11.6808727,8.22579204 Z M11.4916181,7.27224038 C11.435812,7.27224038 11.3878923,7.25222327 11.3478575,7.21218846 C11.3078227,7.17215364 11.2878056,7.12423391 11.2878056,7.0684278 C11.2878056,7.0126217 11.3078227,6.96530854 11.3478575,6.92648691 C11.3878923,6.88766527 11.435812,6.86825474 11.4916181,6.86825474 C11.5474242,6.86825474 11.595344,6.88766527 11.6353788,6.92648691 C11.6754136,6.96530854 11.6954307,7.0126217 11.6954307,7.0684278 C11.6954307,7.12423391 11.6754136,7.17215364 11.6353788,7.21218846 C11.595344,7.25222327 11.5474242,7.27224038 11.4916181,7.27224038 L11.4916181,7.27224038 Z M12.7763652,7.57431972 L12.7763652,7.67622601 C12.9219464,7.49182323 13.1160516,7.39962323 13.3586869,7.39962323 C13.4897099,7.39962323 13.613452,7.43298507 13.7299169,7.49970976 C13.8463818,7.56643445 13.9252371,7.64953577 13.9664851,7.74901621 C14.000454,7.83151219 14.0174382,7.93948324 14.0174382,8.07293262 L14.0174382,8.76443955 C14.0174382,8.8687727 14.0186514,8.93064375 14.0210777,8.95005457 C14.0332095,9.03255055 14.0659647,9.07379792 14.1193445,9.07379792 C14.1411817,9.07379792 14.1696909,9.07076502 14.204873,9.06469914 C14.2400551,9.05863326 14.2649248,9.05560037 14.2794829,9.05560037 C14.3110255,9.05560037 14.3383216,9.06651879 14.3613719,9.08835596 C14.3844223,9.11019313 14.3959473,9.1368826 14.3959473,9.16842518 C14.3959473,9.20482047 14.3813894,9.23514942 14.3522731,9.25941294 C14.3231569,9.28367646 14.2879753,9.29580804 14.2467273,9.29580804 C14.2127584,9.29580804 14.1569531,9.29095541 14.0793099,9.28125 C14.0016666,9.27154459 13.9288771,9.26669196 13.8609393,9.26669196 C13.7978541,9.26669196 13.7456883,9.26911828 13.7044403,9.27397098 C13.5831227,9.28852909 13.5188253,9.29580804 13.5115463,9.29580804 C13.4144922,9.29580804 13.3659659,9.25334751 13.3659659,9.16842518 C13.3659659,9.09320826 13.4072132,9.05560037 13.4897092,9.05560037 C13.50912,9.05560037 13.5309569,9.05802668 13.5552204,9.06287939 C13.6013211,9.0725848 13.6304369,9.07743743 13.6425687,9.07743743 C13.7008011,9.07743743 13.7323432,9.01071374 13.7371959,8.87726437 L13.7444749,8.69164935 L13.7481145,8.46963923 L13.7481145,8.19303645 C13.7481145,8.06443978 13.7420487,7.97587925 13.7299169,7.92735221 C13.7080797,7.83515082 13.6607666,7.76357451 13.587976,7.71262111 C13.5079064,7.65681501 13.4169195,7.62891237 13.3150127,7.62891237 C13.1209046,7.62891237 12.9813914,7.69806238 12.8964691,7.83636445 C12.8382366,7.93099219 12.8091208,8.0923422 12.8091208,8.32041931 L12.8091208,8.80447417 C12.8091208,8.91123366 12.8163998,8.98402314 12.8309579,9.02284478 C12.845516,9.06166641 12.8722055,9.08107694 12.9110271,9.08107694 C12.9304379,9.08107694 12.9571274,9.07622431 12.9910963,9.0665189 C13.0250653,9.05681349 13.0529679,9.05196086 13.0748051,9.05196086 C13.150022,9.05196086 13.1876299,9.09320823 13.1876299,9.1757042 C13.1876299,9.25577383 13.1391036,9.29580804 13.0420495,9.29580804 C13.0226387,9.29580804 12.9595544,9.28852909 12.8527949,9.27397098 C12.7994152,9.26669192 12.7399705,9.26305245 12.6744589,9.26305245 C12.6235055,9.26305245 12.5555687,9.26790508 12.4706464,9.27761049 C12.3638869,9.28974225 12.303229,9.29580804 12.2886709,9.29580804 C12.1867641,9.29580804 12.1358114,9.25456067 12.1358114,9.17206469 C12.1358114,9.09442142 12.1746325,9.05560037 12.2522758,9.05560037 C12.2644075,9.05560037 12.2868509,9.05923984 12.3196067,9.0665189 C12.3523625,9.07379796 12.3845111,9.07743743 12.4160537,9.07743743 C12.4888443,9.07743743 12.5264522,9.00707427 12.5288785,8.86634584 L12.5361576,8.46236021 L12.5361576,8.02197947 L12.5288785,7.89459662 C12.5240258,7.81210064 12.513714,7.7556888 12.4979427,7.72535939 C12.4821714,7.69502999 12.4548754,7.67986552 12.4160537,7.67986552 C12.3990693,7.67986552 12.3741995,7.68289841 12.3414438,7.68896429 C12.308688,7.69503017 12.2838183,7.69806307 12.2668338,7.69806307 C12.1794851,7.69806307 12.1358114,7.65924201 12.1358114,7.58159874 C12.1358114,7.50152912 12.1904035,7.46149491 12.2995894,7.46149491 C12.3141475,7.46149491 12.3262791,7.46270806 12.3359845,7.46513442 L12.4706464,7.47969246 C12.509468,7.47969246 12.5434364,7.47726614 12.5725527,7.47241344 C12.6356378,7.46756073 12.6683931,7.46513442 12.6708194,7.46513442 C12.7411836,7.46513442 12.7763652,7.50152915 12.7763652,7.57431972 L12.7763652,7.57431972 Z M15.1056518,8.36045392 L15.728008,7.77813229 C15.7498452,7.75872147 15.7607636,7.73688463 15.7607636,7.71262111 C15.7607636,7.68835759 15.7449925,7.67622601 15.71345,7.67622601 C15.6891864,7.67622601 15.6540048,7.68107864 15.6079042,7.69078405 C15.5618035,7.70048946 15.5266219,7.70534209 15.5023584,7.70534209 C15.417436,7.70534209 15.3749755,7.66652103 15.3749755,7.58887776 C15.3749755,7.50395543 15.4283545,7.46149491 15.535114,7.46149491 C15.5618038,7.46149491 15.5957723,7.46392122 15.6370202,7.46877393 C15.8044385,7.48818474 15.9318201,7.49789001 16.0191688,7.49789001 C16.0676959,7.49789001 16.1089432,7.49546369 16.1429122,7.49061099 L16.2921321,7.46877393 C16.326101,7.46392122 16.3540036,7.46149491 16.3758408,7.46149491 C16.4947321,7.46149491 16.5541768,7.50274227 16.5541768,7.58523825 C16.5541768,7.66288152 16.5129294,7.70170258 16.4304335,7.70170258 C16.4110226,7.70170258 16.3837266,7.69927626 16.3485445,7.69442356 C16.3133624,7.68957085 16.2860663,7.68714454 16.2666555,7.68714454 C16.2059967,7.68714454 16.1429125,7.71747349 16.077401,7.77813229 L15.6952524,8.12752527 C15.6685625,8.15178879 15.6552178,8.17119932 15.6552178,8.18575743 C15.6552178,8.19788919 15.6649231,8.21608656 15.6843339,8.24035009 L16.1501912,8.84450878 C16.2690824,8.99736897 16.3540035,9.07379792 16.4049569,9.07379792 C16.4170886,9.07379792 16.4371058,9.07076502 16.4650088,9.06469914 C16.4929119,9.05863326 16.5153553,9.05560037 16.5323397,9.05560037 C16.6196884,9.05560037 16.6633621,9.09442142 16.6633621,9.17206469 C16.6633621,9.25456067 16.6075568,9.29580804 16.4959446,9.29580804 C16.4522703,9.29580804 16.3873664,9.29095541 16.3012308,9.28125 C16.2150953,9.27154459 16.1501914,9.26669196 16.1065171,9.26669196 C16.0676954,9.26669196 16.0112836,9.27154459 15.9372798,9.28125 C15.8632761,9.29095541 15.8080774,9.29580804 15.7716821,9.29580804 C15.6794807,9.29580804 15.6333807,9.25456067 15.6333807,9.17206469 C15.6333807,9.09442142 15.6770544,9.05560037 15.7644031,9.05560037 C15.7886666,9.05560037 15.8080771,9.05681353 15.8226353,9.05923988 C15.8663096,9.07137164 15.8942122,9.07743743 15.906344,9.07743743 C15.9281812,9.07743743 15.9390996,9.06894532 15.9390996,9.05196086 L15.9390996,9.04104233 C15.9366732,9.03861598 15.9354601,9.03618966 15.9354601,9.03376331 L15.899065,8.98281016 L15.8517513,8.91365947 L15.4878003,8.42960462 C15.4635368,8.39806204 15.4441263,8.38229098 15.4295682,8.38229098 C15.4198627,8.38229098 15.4016654,8.39442256 15.3749755,8.41868608 L15.1056518,8.65889376 L15.1056518,8.74260249 C15.1056518,8.8590674 15.1068649,8.92457793 15.1092913,8.93913604 C15.121423,9.02405837 15.1553914,9.0665189 15.2111975,9.0665189 C15.2354611,9.0665189 15.2560848,9.06469916 15.2730692,9.06105963 C15.2900537,9.05742011 15.3131037,9.05560037 15.3422199,9.05560037 C15.4247159,9.05560037 15.4659633,9.09563458 15.4659633,9.1757042 C15.4659633,9.25577383 15.4198633,9.29580804 15.3276619,9.29580804 C15.2864139,9.29580804 15.2239363,9.29034883 15.1402271,9.27943024 C15.0565179,9.26851166 14.9928272,9.26305245 14.9491528,9.26305245 C14.8933467,9.26305245 14.8290493,9.26790508 14.7562588,9.27761049 C14.6640574,9.28974225 14.6021863,9.29580804 14.5706438,9.29580804 C14.476016,9.29580804 14.4287029,9.25577383 14.4287029,9.1757042 C14.4287029,9.09563458 14.4748029,9.05560037 14.5670042,9.05560037 C14.5864151,9.05560037 14.6094651,9.05802668 14.6361549,9.06287939 C14.6749766,9.07015845 14.701666,9.07379792 14.7162242,9.07379792 C14.7744566,9.07379792 14.8072119,9.02769792 14.8144909,8.93549653 L14.8254095,8.79355563 L14.8254095,7.32319352 C14.8205568,7.1921705 14.8120647,7.10906918 14.7999329,7.07388707 C14.7878011,7.03870496 14.7623248,7.02111417 14.7235032,7.02111417 C14.7113714,7.02111417 14.6883214,7.02354049 14.6543525,7.02839319 C14.6203836,7.04052495 14.5864151,7.04659074 14.5524462,7.04659074 C14.4723766,7.04659074 14.4323424,7.00898285 14.4323424,6.93376593 C14.4323424,6.85126995 14.4796555,6.81002258 14.5742833,6.81002258 C14.6228103,6.81002258 14.6567787,6.81123574 14.6761895,6.81366209 C14.7368484,6.82094115 14.7768826,6.82458062 14.7962934,6.82458062 C14.8157042,6.82458062 14.8442134,6.82154773 14.8818219,6.81548185 C14.9194303,6.80941597 14.9467264,6.80638307 14.9637109,6.80638307 L14.9891874,6.80638307 C15.0668307,6.80638307 15.1056518,6.85612255 15.1056518,6.95560299 L15.1056518,8.36045392 Z" id="pink" fill="#000000" sketch:type="MSShapeGroup" transform="translate(12.730871, 8.369553) rotate(-56.000000) translate(-12.730871, -8.369553) "></path>
            <path d="M5.01682978,10.7283686 L3.421875,16.2785638 L11.5957996,20.71875 L17.975119,10.7283686 L19.96875,4.99317481 L13.3899051,3.328125 L5.01682978,10.7283686 L5.01682978,10.7283686 Z" id="Stroke-28219" stroke="#000000" stroke-width="0.625" stroke-linecap="round" stroke-linejoin="round" sketch:type="MSShapeGroup"></path>
        </g>
    </g>
</svg>