<?xml version="1.0" encoding="UTF-8" standalone="no"?>
<svg width="24px" height="24px" viewBox="0 0 24 24" version="1.1" xmlns="http://www.w3.org/2000/svg" xmlns:xlink="http://www.w3.org/1999/xlink" xmlns:sketch="http://www.bohemiancoding.com/sketch/ns">
    <!-- Generator: Sketch 3.3.1 (12002) - http://www.bohemiancoding.com/sketch -->
    <title>tb_ewh_update</title>
    <desc>Created with Sketch.</desc>
    <defs></defs>
    <g id="Page-1" stroke="none" stroke-width="1" fill="none" fill-rule="evenodd" sketch:type="MSPage">
        <g id="tb_ewh_update" sketch:type="MSArtboardGroup">
            <g id="Group" sketch:type="MSLayerGroup" transform="translate(3.000000, 4.000000)">
                <path d="M5.4678621,9.04297339 L4.80504183,9.23695911 L4.45661552,8.35815313 L5.4678621,9.04297339" id="Fill-26823" fill="#9C9C9C" sketch:type="MSShapeGroup"></path>
                <path d="M5.55186255,9.12275569 L4.54061597,8.43793542 L3.24117493,7.55766188 L8.86326293,8.79842332 L8.77386052,11.3051617 L5.55186255,9.12275569" id="Fill-26824" fill="#670007" sketch:type="MSShapeGroup"></path>
                <path d="M3.20714259,7.53751618 L4.50658364,8.41778973 L4.85500994,9.2965957 L6.14864388,12.559398 L5.27609258,12.4439939 L2.18954871,12.036277 L0,5.15618812 L2.15902765,5.73707794 L3.20714259,7.53751618" id="Fill-26825" fill="#D6D6D6" sketch:type="MSShapeGroup"></path>
                <path d="M3.27466707,7.54845623 L2.22655213,5.74801799 L1.89068537,5.17139746 L4.43865401,4.08886645 L3.27466707,7.54845623" id="Fill-26826" fill="#FF0011" sketch:type="MSShapeGroup"></path>
                <path d="M1.89068537,5.17433259 L3.10585587,4.16531337 L4.80490678,2.75471437 L4.43865401,4.09180159 L1.89068537,5.17433259" id="Fill-26827" fill="#EF0010" sketch:type="MSShapeGroup"></path>
                <path d="M8.77818209,11.3058287 L8.8675845,8.79909039 L14.4821098,7.69107708 L13.6177965,8.23887993 L11.8726939,9.34489201 L8.77818209,11.3058287" id="Fill-26828" fill="#640006" sketch:type="MSShapeGroup"></path>
                <path d="M13.6157707,8.27236715 L14.480084,7.7245643 L15.8616348,5.38472837 L13.009536,2.89786889 L12.5595528,2.74457481 L13.9026147,1.42056228 L17.9925723,7.08230349 L14.6240462,9.94245873 L13.6157707,8.27236715" id="Fill-26829" fill="#FFFFFF" sketch:type="MSShapeGroup"></path>
                <path d="M11.8843081,9.33075 L13.6294107,8.22473792 L14.6376862,9.8948295 L12.557257,10.5535004 L11.8843081,9.33075" id="Fill-26830" fill="#9A9A9A" sketch:type="MSShapeGroup"></path>
                <path d="M12.570897,10.4843913 L14.6513261,9.82572042 L16.7853697,10.8128595 L14.2661665,11.6395002 L7.3039877,13.924369 L6.21225194,12.4969597 L12.570897,10.4843913" id="Fill-26831" fill="#D3D3D3" sketch:type="MSShapeGroup"></path>
                <path d="M6.21225194,12.5509929 L7.3039877,13.9784022 L14.2661665,11.6935333 L13.9712196,13.0822522 L6.53582924,15.5883235 L6.21225194,12.5509929" id="Fill-26832" fill="#615744" sketch:type="MSShapeGroup"></path>
                <path d="M10.5174776,2.02840197 L12.4736617,2.69547802 L12.9236448,2.84877209 L13.2921934,4.19346398 L10.7933826,5.2647881 L6.82739993,5.21662521 L4.32156657,4.0831296 L4.68781933,2.74604238 L7.19446299,1.95422312 L10.4190269,1.99491476 L10.5174776,2.02840197" id="Fill-26833" fill="#F86363" sketch:type="MSShapeGroup"></path>
                <path d="M10.5178827,2.05588551 L10.419432,2.02239829 L7.19486814,1.98170665 L4.68822448,2.77352591 L2.98917358,4.18412491 L2.43088119,2.21318204 L10.0866714,0.353240614 L10.5178827,2.05588551" id="Fill-26834" fill="#FFFFFF" sketch:type="MSShapeGroup"></path>
                <path d="M6.88749672,5.15618812 L10.8534794,5.20435101 L8.83976441,8.72304372 L6.88749672,5.15618812" id="Fill-26835" fill="#FF7776" sketch:type="MSShapeGroup"></path>
                <path d="M8.77818209,8.80829604 L10.7918971,5.28960333 L14.3927074,7.70028273 L8.77818209,8.80829604" id="Fill-26836" fill="#FF0013" sketch:type="MSShapeGroup"></path>
                <path d="M14.4047267,7.70428519 L10.8039164,5.29360579 L13.3027272,4.22228166 L14.4047267,7.70428519" id="Fill-26837" fill="#FF0011" sketch:type="MSShapeGroup"></path>
                <path d="M5.52458266,9.15864438 L8.74658064,11.3410504 L11.8410924,9.38011362 L12.5140413,10.602864 L6.15539633,12.6154324 L4.86176239,9.35263009 L5.52458266,9.15864438" id="Fill-26838" fill="#FFFFFF" sketch:type="MSShapeGroup"></path>
                <path d="M6.91099524,5.15618812 L8.86326293,8.72304372 L3.24117493,7.48228228 L6.91099524,5.15618812" id="Fill-26839" fill="#FF0014" sketch:type="MSShapeGroup"></path>
                <path d="M6.91099524,5.22236207 L3.24117493,7.54845623 L4.40516187,4.08886645 L6.91099524,5.22236207" id="Fill-26840" fill="#FF0013" sketch:type="MSShapeGroup"></path>
                <path d="M13.3332483,4.23282146 L12.9646997,2.88812958 L15.8167986,5.37498906 L13.3332483,4.23282146" id="Fill-26841" fill="#CC000D" sketch:type="MSShapeGroup"></path>
                <path d="M13.3698466,4.22228166 L15.8533969,5.36444926 L14.471846,7.70428519 L13.3698466,4.22228166" id="Fill-26842" fill="#DB000E" sketch:type="MSShapeGroup"></path>
                <path d="M6.13946055,12.6094287 L6.46303785,15.6467594 L5.26690925,12.4940246 L6.13946055,12.6094287" id="Fill-26843" fill="#605643" sketch:type="MSShapeGroup"></path>
                <path id="Stroke-26844" stroke="#000000" stroke-width="0.5" stroke-linecap="round" stroke-linejoin="round" sketch:type="MSShapeGroup" d="M5.52458266,9.15864438 L4.86176239,9.35263009"></path>
                <path d="M12.557257,10.51481 L11.8843081,9.29205959" id="Stroke-26845" stroke="#000000" stroke-width="0.5" stroke-linecap="round" stroke-linejoin="round" sketch:type="MSShapeGroup"></path>
                <path id="Stroke-26846" stroke="#000000" stroke-width="0.5" stroke-linecap="round" stroke-linejoin="round" sketch:type="MSShapeGroup" d="M6.53582924,15.5313552 L6.21225194,12.4940246"></path>
                <path d="M14.64822,9.8948295 L13.6399445,8.22473792" id="Stroke-26847" stroke="#000000" stroke-width="0.5" stroke-linecap="round" stroke-linejoin="round" sketch:type="MSShapeGroup"></path>
                <path d="M13.3698466,4.22228166 L14.471846,7.70428519" id="Stroke-26848" stroke="#000000" stroke-width="0.5" stroke-linecap="round" stroke-linejoin="round" sketch:type="MSShapeGroup"></path>
                <path d="M13.3698466,4.22228166 L15.8533969,5.36444926" id="Stroke-26849" stroke="#000000" stroke-width="0.5" stroke-linecap="round" stroke-linejoin="round" sketch:type="MSShapeGroup"></path>
                <path id="Stroke-26850" stroke="#000000" stroke-width="0.5" stroke-linecap="round" stroke-linejoin="round" sketch:type="MSShapeGroup" d="M13.3332483,4.23282146 L12.9646997,2.88812958"></path>
                <path d="M1.89068537,5.17139746 L4.43865401,4.08886645 L3.27466707,7.54845623" id="Stroke-26851" stroke="#000000" stroke-width="0.5" stroke-linecap="round" stroke-linejoin="round" sketch:type="MSShapeGroup"></path>
                <path id="Stroke-26852" stroke="#000000" stroke-width="0.5" stroke-linecap="round" stroke-linejoin="round" sketch:type="MSShapeGroup" d="M4.68781933,2.75471437 L4.32156657,4.09180159"></path>
                <path d="M4.32156657,4.08886645 L6.82739993,5.22236207" id="Stroke-26853" stroke="#000000" stroke-width="0.5" stroke-linecap="round" stroke-linejoin="round" sketch:type="MSShapeGroup"></path>
                <path d="M10.8039164,5.29360579 L13.3027272,4.22228166" id="Stroke-26854" stroke="#000000" stroke-width="0.5" stroke-linecap="round" stroke-linejoin="round" sketch:type="MSShapeGroup"></path>
                <path d="M3.24117493,7.55766188 L8.86326293,8.79842332" id="Stroke-26855" stroke="#000000" stroke-width="0.5" stroke-linecap="round" stroke-linejoin="round" sketch:type="MSShapeGroup"></path>
                <path d="M6.88749672,5.15618812 L8.83976441,8.72304372 L14.4542897,7.61503042" id="Stroke-26856" stroke="#000000" stroke-width="0.5" stroke-linecap="round" stroke-linejoin="round" sketch:type="MSShapeGroup"></path>
                <path d="M6.91099524,5.15618812 L3.24117493,7.48228228" id="Stroke-26857" stroke="#000000" stroke-width="0.5" stroke-linecap="round" stroke-linejoin="round" sketch:type="MSShapeGroup"></path>
                <path id="Stroke-26858" stroke="#000000" stroke-width="0.5" stroke-linecap="round" stroke-linejoin="round" sketch:type="MSShapeGroup" d="M8.8675845,8.75839875 L8.77818209,11.2651371"></path>
                <path d="M10.7918971,5.28960333 L8.77818209,8.80829604" id="Stroke-26859" stroke="#000000" stroke-width="0.5" stroke-linecap="round" stroke-linejoin="round" sketch:type="MSShapeGroup"></path>
                <path d="M10.8039164,5.28960333 L14.4047267,7.70028273" id="Stroke-26860" stroke="#000000" stroke-width="0.5" stroke-linecap="round" stroke-linejoin="round" sketch:type="MSShapeGroup"></path>
                <path id="Stroke-26861" stroke="#000000" stroke-width="0.5" stroke-linecap="round" stroke-linejoin="round" sketch:type="MSShapeGroup" d="M6.88749672,5.15618812 L10.8534794,5.20435101"></path>
                <path d="M5.26690925,12.4940246 L6.46303785,15.6467594 L13.8984282,13.1406881" id="Stroke-26862" stroke="#000000" stroke-width="0.5" stroke-linecap="round" stroke-linejoin="round" sketch:type="MSShapeGroup"></path>
                <path id="Stroke-26863" stroke="#000000" stroke-width="0.5" stroke-linecap="round" stroke-linejoin="round" sketch:type="MSShapeGroup" d="M13.9100424,13.0822522 L14.2049893,11.6935333"></path>
                <path d="M2.98917358,4.19199641 L2.43088119,2.22105353" id="Stroke-26864" stroke="#000000" stroke-width="0.5" stroke-linecap="round" stroke-linejoin="round" sketch:type="MSShapeGroup"></path>
                <path d="M12.5595528,2.74457481 L13.9026147,1.42056228" id="Stroke-26865" stroke="#000000" stroke-width="0.5" stroke-linecap="round" stroke-linejoin="round" sketch:type="MSShapeGroup"></path>
                <path d="M14.5852872,9.82572042 L16.7193308,10.8128595" id="Stroke-26866" stroke="#000000" stroke-width="0.5" stroke-linecap="round" stroke-linejoin="round" sketch:type="MSShapeGroup"></path>
                <path d="M7.3039877,13.9214339 L6.21225194,12.4940246" id="Stroke-26867" stroke="#000000" stroke-width="0.5" stroke-linecap="round" stroke-linejoin="round" sketch:type="MSShapeGroup"></path>
                <path d="M17.9538133,7.02400104 L14.5852872,9.88415628" id="Stroke-26868" stroke="#000000" stroke-width="0.5" stroke-linecap="round" stroke-linejoin="round" sketch:type="MSShapeGroup"></path>
                <path d="M18,7.08230349 L13.9100424,1.42056228" id="Stroke-26869" stroke="#000000" stroke-width="0.5" stroke-linecap="round" stroke-linejoin="round" sketch:type="MSShapeGroup"></path>
                <path d="M10.1286716,0.353240614 L10.559883,2.05588551" id="Stroke-26870" stroke="#000000" stroke-width="0.5" stroke-linecap="round" stroke-linejoin="round" sketch:type="MSShapeGroup"></path>
                <path d="M10.0866714,0.353240614 L2.43088119,2.21318204" id="Stroke-26871" stroke="#000000" stroke-width="0.5" stroke-linecap="round" stroke-linejoin="round" sketch:type="MSShapeGroup"></path>
                <path d="M0,5.15618812 L2.15902765,5.73707794" id="Stroke-26872" stroke="#000000" stroke-width="0.5" stroke-linecap="round" stroke-linejoin="round" sketch:type="MSShapeGroup"></path>
                <path d="M0,5.15618812 L2.18954871,12.036277" id="Stroke-26873" stroke="#000000" stroke-width="0.5" stroke-linecap="round" stroke-linejoin="round" sketch:type="MSShapeGroup"></path>
                <path d="M14.4502382,7.62943926 L15.831789,5.28960333" id="Stroke-26874" stroke="#000000" stroke-width="0.5" stroke-linecap="round" stroke-linejoin="round" sketch:type="MSShapeGroup"></path>
                <path d="M15.8167986,5.37498906 L12.9646997,2.88812958" id="Stroke-26875" stroke="#000000" stroke-width="0.5" stroke-linecap="round" stroke-linejoin="round" sketch:type="MSShapeGroup"></path>
                <path d="M10.457921,1.99491476 L7.23335709,1.95422312 L4.72671343,2.74604238" id="Stroke-26876" stroke="#000000" stroke-width="0.5" stroke-linecap="round" stroke-linejoin="round" sketch:type="MSShapeGroup"></path>
                <path d="M4.47781821,8.35815313 L4.82624451,9.23695911 L6.11987846,12.4997614 L5.24732716,12.3843573 L2.16078328,11.9766404" id="Stroke-26877" stroke="#000000" stroke-width="0.5" stroke-linecap="round" stroke-linejoin="round" sketch:type="MSShapeGroup"></path>
                <path d="M6.21225194,12.4969597 L12.570897,10.4843913 L14.6513261,9.82572042" id="Stroke-26878" stroke="#000000" stroke-width="0.5" stroke-linecap="round" stroke-linejoin="round" sketch:type="MSShapeGroup"></path>
                <path d="M16.7740256,10.8930421 L14.2548224,11.7196827 L7.29264358,14.0045516" id="Stroke-26879" stroke="#000000" stroke-width="0.5" stroke-linecap="round" stroke-linejoin="round" sketch:type="MSShapeGroup"></path>
                <path id="Stroke-26880" stroke="#000000" stroke-width="0.5" stroke-linecap="round" stroke-linejoin="round" sketch:type="MSShapeGroup" d="M13.009536,2.90800844 L12.5595528,2.75471437"></path>
                <path d="M4.80490678,2.75471437 L3.10585587,4.16531337 L1.89068537,5.17433259 L2.22655213,5.75095312 L3.27466707,7.55139136" id="Stroke-26881" stroke="#000000" stroke-width="0.5" stroke-linecap="round" stroke-linejoin="round" sketch:type="MSShapeGroup"></path>
                <path d="M8.77818209,11.2529963 L11.8726939,9.29205959" id="Stroke-26882" stroke="#000000" stroke-width="0.5" stroke-linecap="round" stroke-linejoin="round" sketch:type="MSShapeGroup"></path>
                <path d="M8.75900514,11.3410504 L5.53700717,9.15864438" id="Stroke-26883" stroke="#000000" stroke-width="0.5" stroke-linecap="round" stroke-linejoin="round" sketch:type="MSShapeGroup"></path>
                <path d="M12.5884533,2.65478638 L10.6322692,1.98771033 L10.5338185,1.95422312" id="Stroke-26884" stroke="#000000" stroke-width="0.5" stroke-linecap="round" stroke-linejoin="round" sketch:type="MSShapeGroup"></path>
                <path d="M11.8843081,9.34489201 L13.6294107,8.23887993 L14.493724,7.69107708" id="Stroke-26885" stroke="#000000" stroke-width="0.5" stroke-linecap="round" stroke-linejoin="round" sketch:type="MSShapeGroup"></path>
                <path d="M5.55186255,9.12275569 L4.54061597,8.43793542 L3.24117493,7.55766188" id="Stroke-26886" stroke="#000000" stroke-width="0.5" stroke-linecap="round" stroke-linejoin="round" sketch:type="MSShapeGroup"></path>
                <path d="M10.3648036,4.90035225 C10.5522515,4.61724518 10.937141,4.53706264 11.2242551,4.72237636 C11.5110991,4.90742326 11.5917233,5.28792343 11.4042754,5.57129733 C11.2169625,5.85480465 10.8318029,5.93445353 10.5450939,5.74940664 C10.2578448,5.56409291 10.1774907,5.18359274 10.3648036,4.90035225 L10.3648036,4.90035225 Z" id="Fill-26887" fill="#FFFADB" sketch:type="MSShapeGroup"></path>
                <path d="M9.99362269,3.82203604 L11.787478,6.68299177" id="Stroke-26888" stroke="#FFFADB" stroke-width="0.5" stroke-linecap="round" sketch:type="MSShapeGroup"></path>
                <path d="M11.7366996,4.48911208 L9.99362269,6.15226607" id="Stroke-26889" stroke="#FFFADB" stroke-width="0.5" stroke-linecap="round" sketch:type="MSShapeGroup"></path>
                <path d="M8.18001574,11.6206888 C8.18001574,9.14463344 10.1907926,7.13289172 12.6656994,7.13289172 C15.1403593,7.13289172 17.1506426,9.14463344 17.1506426,11.6206888 C17.1506426,14.0973493 15.1403593,16.1092886 12.6656994,16.1092886 C10.1907926,16.1092886 8.18001574,14.0973493 8.18001574,11.6206888 L8.18001574,11.6206888 Z" id="Fill-31153" fill="#FFBF00" sketch:type="MSShapeGroup"></path>
                <path d="M8.18001574,11.6206764 C8.18001574,9.14455934 10.1907926,7.13289172 12.6656994,7.13289172 C15.1403593,7.13289172 17.1506426,9.14455934 17.1506426,11.6206764 C17.1506426,14.0972875 15.1403593,16.1092021 12.6656994,16.1092021 C10.1907926,16.1092021 8.18001574,14.0972875 8.18001574,11.6206764 L8.18001574,11.6206764 Z" id="Stroke-31154" stroke="#000000" stroke-width="0.5" sketch:type="MSShapeGroup"></path>
                <path d="M11.979809,12.1706064 L10.3923146,11.8080987 L8.7970456,12.1703347 L10.8296653,9.72620173 L11.979809,12.1706064 L11.979809,12.1706064 Z" id="Fill-31155" fill="#000000" sketch:type="MSShapeGroup"></path>
                <path d="M10.4072881,11.4550751 C10.3457085,12.3154365 10.7645483,13.1401091 11.4959755,13.5970257 C11.8728574,13.8326464 12.3008293,13.9509507 12.7292948,13.9508272" id="Stroke-31156" stroke="#000000" stroke-width="0.5" stroke-linecap="round" sketch:type="MSShapeGroup"></path>
                <path d="M15.0675498,11.851728 C15.1293762,10.9907491 14.7101661,10.166447 13.9787389,9.708913 C13.6019805,9.47378622 13.1742554,9.35572887 12.7460367,9.35572887" id="Stroke-31157" stroke="#000000" stroke-width="0.5" stroke-linecap="round" sketch:type="MSShapeGroup"></path>
                <path d="M13.4864725,11.2080932 L15.0740903,11.5706132 L16.6691125,11.2083648 L14.6366162,13.6524978 L13.4864725,11.2080932 L13.4864725,11.2080932 Z" id="Fill-31158" fill="#000000" sketch:type="MSShapeGroup"></path>
            </g>
        </g>
    </g>
</svg>