<?xml version="1.0" encoding="UTF-8" standalone="no"?>
<svg width="513px" height="512px" viewBox="0 0 513 512" version="1.1" xmlns="http://www.w3.org/2000/svg" xmlns:xlink="http://www.w3.org/1999/xlink" xmlns:sketch="http://www.bohemiancoding.com/sketch/ns">
    <!-- Generator: Sketch 3.3 (11970) - http://www.bohemiancoding.com/sketch -->
    <title>tb_freehand</title>
    <desc>Created with Sketch.</desc>
    <defs></defs>
    <g id="Page-1" stroke="none" stroke-width="1" fill="none" fill-rule="evenodd" sketch:type="MSPage">
        <g id="tb_freehand" sketch:type="MSArtboardGroup" transform="translate(1.000000, 0.000000)">
            <path d="M93.8072366,435.440828 C79.3070655,244.998778 187.14975,293.298932 280.494935,399.904284 C373.834776,506.511241 481.32471,307.55459 252.838785,251.639825 C-10.9435386,187.086858 93.8072366,46.9747573 373.834776,186.691172 C479.878968,239.600704 498.286115,115.619956 404.943602,80.0826094" id="Stroke-18803" stroke="#000000" stroke-width="20.8198556" stroke-linecap="round" sketch:type="MSShapeGroup"></path>
            <path d="M89.5378641,410.210249 C85.2354191,246.661033 187.975668,295.258974 277.410406,397.359499 C370.752084,503.92421 478.238384,305.046329 249.754503,249.15427 C-14.0254614,184.627208 90.7270492,44.5713334 370.752084,184.231413 C468.668784,233.066564 491.869919,131.147088 421.36594,87.2719375" id="Stroke-29907" stroke="#FB0011" stroke-width="15.6148917" stroke-linecap="round" stroke-linejoin="round" sketch:type="MSShapeGroup"></path>
            <path d="M107.437379,417.410621 C116.262603,426.233186 116.262603,440.539618 107.437379,449.364842 C98.6148138,458.187407 84.308382,458.187407 75.4831584,449.364842 C66.660593,440.539618 66.660593,426.233186 75.4831584,417.410621 C84.308382,408.585397 98.6148138,408.585397 107.437379,417.410621" id="Fill-29908" fill="#FB0011" sketch:type="MSShapeGroup"></path>
            <path d="M107.437379,417.409532 C116.262603,426.233569 116.262603,440.539966 107.437379,449.363738 C98.6148138,458.187775 84.308382,458.187775 75.4831584,449.363738 C66.660593,440.539966 66.660593,426.233569 75.4831584,417.409532 C84.308382,408.58576 98.6148138,408.58576 107.437379,417.409532" id="Stroke-29909" stroke="#FB0011" stroke-width="15.6148917" sketch:type="MSShapeGroup"></path>
            <path d="M417.907415,61.7509106 C426.330133,70.1741455 426.330133,83.828792 417.907415,92.2520269 C409.484697,100.675262 395.82824,100.675262 387.405523,92.2520269 C378.982805,83.828792 378.982805,70.1741455 387.405523,61.7509106 C395.82824,53.3276756 409.484697,53.3276756 417.907415,61.7509106" id="Fill-29910" fill="#FB0011" sketch:type="MSShapeGroup"></path>
            <path d="M417.907415,61.7506293 C426.330133,70.1734893 426.330133,83.8296469 417.907415,92.2525068 C409.484697,100.675102 395.82824,100.675102 387.405523,92.2525068 C378.982805,83.8296469 378.982805,70.1734893 387.405523,61.7506293 C395.82824,53.3277694 409.484697,53.3277694 417.907415,61.7506293" id="Stroke-29911" stroke="#FB0011" stroke-width="15.6148917" sketch:type="MSShapeGroup"></path>
        </g>
    </g>
</svg>