<?xml version="1.0" encoding="UTF-8" standalone="no"?>
<svg width="24px" height="24px" viewBox="0 0 24 24" version="1.1" xmlns="http://www.w3.org/2000/svg" xmlns:xlink="http://www.w3.org/1999/xlink" xmlns:sketch="http://www.bohemiancoding.com/sketch/ns">
    <!-- Generator: Sketch 3.3.2 (12043) - http://www.bohemiancoding.com/sketch -->
    <title>tb_followme</title>
    <desc>Created with Sketch.</desc>
    <defs>
        <linearGradient x1="24.8442263%" y1="7.42940158%" x2="76.3053103%" y2="95.9187095%" id="linearGradient-1">
            <stop stop-color="#9E9C88" offset="0%"></stop>
            <stop stop-color="#000000" offset="100%"></stop>
        </linearGradient>
        <linearGradient x1="89.0293079%" y1="0%" x2="1.71302066%" y2="93.3272557%" id="linearGradient-2">
            <stop stop-color="#504F47" offset="0%"></stop>
            <stop stop-color="#9E9C88" offset="7.64860396%"></stop>
            <stop stop-color="#C8C6B0" offset="48.3461219%"></stop>
            <stop stop-color="#848276" offset="85.8929354%"></stop>
            <stop stop-color="#32312C" offset="100%"></stop>
        </linearGradient>
        <linearGradient x1="12.7857825%" y1="89.0345112%" x2="91.3197127%" y2="-21.0021022%" id="linearGradient-3">
            <stop stop-color="#410A0A" offset="0%"></stop>
            <stop stop-color="#D91F21" offset="36.3527733%"></stop>
            <stop stop-color="#DA1F21" offset="100%"></stop>
        </linearGradient>
        <linearGradient x1="100%" y1="17.0468356%" x2="11.2839252%" y2="102.228429%" id="linearGradient-4">
            <stop stop-color="#E11F21" offset="0%"></stop>
            <stop stop-color="#C72022" offset="39.4668014%"></stop>
            <stop stop-color="#E11F21" offset="68.5244429%"></stop>
            <stop stop-color="#4D0C0D" offset="100%"></stop>
        </linearGradient>
    </defs>
    <g id="Page-1" stroke="none" stroke-width="1" fill="none" fill-rule="evenodd" sketch:type="MSPage">
        <g id="tb_followme" sketch:type="MSArtboardGroup">
            <g id="Group" sketch:type="MSLayerGroup" transform="translate(3.000000, 3.000000)">
                <path d="M3.02133179,10.854126 C3.02133179,10.854126 2.02207948,9.8638457 1.92915345,8.61808764 C1.83622741,7.37232959 2.30172707,6.16355878 3.95947259,4.57269275 C5.61721811,2.98182671 7.18172244,2.28160855 9.21185303,1.79260254 C10.3806154,1.51107788 12.4043883,1.41394043 13.0740051,1.65280151 C13.743622,1.8916626 14.3056641,2.22784424 14.3056641,2.22784424 L15.7546692,8.29101562 C15.7546692,8.29101562 15.033783,7.6020813 13.9375307,7.30792222 C12.8412784,7.01376314 11.4294434,7.06466675 10.6180116,7.30792222 C9.80657991,7.55117769 7.83956925,8.70811472 7.03546143,9.51049805 C6.2313536,10.3128814 5.39447006,12.4295649 5.52740479,13.2078552 C5.66033951,13.9861456 7.03546158,15.9111334 7.03546158,15.9111334 L3.02133179,10.854126 Z" id="Path-5267" stroke="#000000" stroke-width="0.5" fill="url(#linearGradient-1)" sketch:type="MSShapeGroup"></path>
                <path d="M3.07250977,10.8970642 L6.99325562,15.8594971 C6.99325562,15.8594971 6.0191803,16.4919434 5.50259399,16.6725769 C4.98600769,16.8532104 3.95379639,16.6968384 3.33956909,16.2729492 C2.7253418,15.8490601 2.18746948,15.1381531 2.06588745,14.5729065 C1.94430542,14.0076599 1.91995239,12.9041748 2.11798096,12.4083252 C2.31600952,11.9124756 2.67407228,11.3617859 2.79125977,11.2098083 C2.90844725,11.0578308 3.07250977,10.8970642 3.07250977,10.8970642 Z" id="Path-5268" stroke="#000000" stroke-width="0.5" fill="#9E9C88" sketch:type="MSShapeGroup"></path>
                <path d="M15.9851074,8.40458679 L14.3292847,2.19396973 C14.3292847,2.19396973 14.9050598,1.90383911 15.344696,1.90383911 C15.7843323,1.90383911 16.4115143,2.31774902 16.6910706,2.71600342 C16.9706268,3.11425781 17.2413025,4.06178284 17.2413025,4.92050171 C17.2413025,5.77922058 17.0805359,6.40869141 16.8129272,7.0949707 C16.5453186,7.78125 15.9851074,8.40458679 15.9851074,8.40458679 Z" id="Path-5269" stroke="#000000" stroke-width="0.5" fill="#9E9C88" sketch:type="MSShapeGroup"></path>
                <path d="M3.01428223,10.8918457 C3.01428223,10.8918457 2.31399536,9.91003418 2.15762329,9.45501709 C2.00125122,9 1.85005188,7.9193573 2.19232178,7.02470398 C2.53459167,6.13005066 3.69946289,4.78060913 4.79145813,3.97787476 C5.88345337,3.17514038 7.26745605,2.42660522 8.41767883,2.06918335 C9.56790161,1.71176147 10.8116913,1.57841492 11.6169891,1.57841492 C12.422287,1.57841492 13.1134644,1.67884827 13.6463928,1.896698 C14.1793213,2.11454773 14.3369751,2.2215271 14.3369751,2.2215271 C14.3369751,2.2215271 14.6008301,2.01828003 14.8695374,1.97744751 C15.1382446,1.93661499 15.6726379,1.94430542 15.9503174,2.07119751 C16.2279968,2.1980896 16.6114197,2.48355103 16.6114197,2.48355103 C16.6114197,2.48355103 15.6998292,1.72457884 14.8363953,1.44049072 C13.9729613,1.15640261 12.6770782,1.00566101 11.3204041,1.00566101 C9.96372986,1.00566101 8.33569345,1.43353271 7.49395752,1.76367188 C6.65222159,2.09381104 5.64784241,2.58764648 4.41522217,3.44549561 C3.18260193,4.30334473 1.88630676,5.88267517 1.43902588,6.68234253 C0.991744995,7.48200989 0.698364258,8.37011719 0.588043213,9.61468506 C0.477722168,10.8592529 0.635742188,11.7568817 0.925048828,12.7325134 C1.21435547,13.7081451 2.3067627,15.2158813 2.3067627,15.2158813 C2.3067627,15.2158813 1.96989441,14.55867 1.96989441,13.7081451 C1.96989441,12.8576202 2.18353271,12.1316528 2.45709229,11.7000732 C2.73065186,11.2684937 3.01428223,10.8918457 3.01428223,10.8918457 Z" id="Path-5270" stroke="#000000" stroke-width="0.5" fill="url(#linearGradient-2)" sketch:type="MSShapeGroup"></path>
                <circle id="Oval-6" fill="#000000" sketch:type="MSShapeGroup" cx="3.046875" cy="10.96875" r="0.421875"></circle>
                <circle id="Oval-6-Copy-2" fill="#000000" sketch:type="MSShapeGroup" cx="14.3203125" cy="2.3203125" r="0.3515625"></circle>
                <circle id="Oval-6-Copy" fill="#000000" sketch:type="MSShapeGroup" cx="7.03125" cy="15.890625" r="0.515625"></circle>
                <path d="M11.6764526,9.72454834 L11.2525635,11.6479797 L12.8866882,12.4185791 C12.8866882,12.4185791 11.666748,13.1015625 10.8937683,13.276062 C10.1207886,13.4505615 9.05722046,13.567749 8.1965332,13.4219055 C7.33584595,13.276062 6.17971802,12.5713806 6.17971802,12.5713806 L4.51089478,9.86444092 C4.51089478,9.86444092 5.92886353,10.6744995 6.49859619,10.8256531 C7.06832886,10.9768066 8.02606201,10.9472351 9.1020813,10.7379456 C10.1781006,10.528656 11.6764526,9.72454834 11.6764526,9.72454834 Z" id="Path-5271" fill="url(#linearGradient-3)" sketch:type="MSShapeGroup"></path>
                <path d="M5.71490479,10.3451843 L4.06182861,9.01977539 C4.06182861,9.01977539 4.02786255,7.71496582 4.35717773,7.02685547 C4.68649292,6.33874512 5.67617795,5.040802 6.26852417,4.72119141 C6.86087039,4.40158081 8.99999985,3.35998535 8.99999985,3.35998535 L8.60888672,2.51046753 L13.2541809,3.93447876 L10.6157229,7.23742676 L9.95379623,6.19985962 C9.95379623,6.19985962 8.22061172,6.9057312 7.81933594,7.23742676 C7.41806015,7.56912231 6.57202146,8.33816528 6.29315186,8.8444519 C6.01428225,9.35073853 5.71490479,10.3451843 5.71490479,10.3451843 Z" id="Path-5272" fill="url(#linearGradient-4)" sketch:type="MSShapeGroup"></path>
                <path d="M11.9300537,9.38919067 L11.4827271,11.5053406 L13.1863403,12.368866 C13.1863403,12.368866 11.7995911,13.2505188 10.8309631,13.4703369 C9.86233521,13.690155 8.32113647,13.7362976 7.62011719,13.493042 C6.9190979,13.2497864 6.46618658,12.5679932 6.46618658,12.5679932 C6.46618658,12.5679932 4.58765826,10.3358125 4.26068116,9.38919067 C3.93370406,8.44256885 3.85061646,7.56646729 4.26068115,6.84796143 C4.67074585,6.12945557 5.58929443,4.81063843 6.71585083,4.29986572 C7.84240723,3.78909302 8.79281616,3.34259033 8.79281616,3.34259033 L8.38705444,2.2749939 L13.5899963,3.87515259 L10.6083069,7.39105225 L9.95855713,6.31741333 C9.95855713,6.31741333 8.69091797,6.88916016 8.23754883,7.20272827 C7.78417969,7.51629639 6.55664062,8.70748901 6.33517456,9.14428711 C6.1137085,9.58108521 6.02407843,10.2264404 6.02407843,10.2264404 C6.02407843,10.2264404 6.23703009,10.7621155 7.46099841,10.7621155 C8.68496674,10.7621155 9.43331909,10.5400085 10.2220459,10.2264404 C11.0107727,9.91287231 11.9300537,9.38919067 11.9300537,9.38919067 Z" id="Path-5273" stroke="#000000" stroke-width="0.515625" sketch:type="MSShapeGroup"></path>
                <path d="M6.18850708,10.6102295 C6.18850708,10.6102295 5.6333313,10.3613892 5.1965332,10.1285706 C4.75973511,9.89575195 4.2288208,9.32849121 4.2288208,9.32849121" id="Path-5274" stroke="#000000" stroke-width="0.515625" sketch:type="MSShapeGroup"></path>
                <path d="M7.02474976,15.8851318 C7.02474976,15.8851318 6.1138916,16.6269836 5.38009644,16.7252197 C4.64630127,16.8234558 4.07446289,16.7087402 3.51608276,16.3943481 C2.95770264,16.0799561 2.43640137,15.4310303 2.01333618,14.8099365 C1.590271,14.1888428 0.737640381,12.5562743 0.737640381,11.1303405 C0.737640381,9.70440665 0.917907715,7.19467154 2.01333618,5.75527945 C3.10876465,4.31588736 4.96875,2.51174929 7.79122925,1.60052492 C10.6137085,0.689300558 13.0022278,1.00085449 14.0661621,1.1972351 C15.1300964,1.39361572 16.246582,2.11981208 16.6175537,2.57839966 C16.9885254,3.03698723 17.2490845,4.13690193 17.2490845,4.71716309 C17.2490845,5.29742425 17.2490845,5.92053214 16.9242554,6.84017944 C16.5994263,7.75982675 15.9504089,8.4828186 15.9504089,8.4828186 C15.9504089,8.4828186 15.2790527,7.90255729 14.5016785,7.55502311 C13.7243042,7.20748893 12.4971313,7.1145627 11.8865662,7.11456299 C11.276001,7.11456328 10.9086914,7.20748901 10.9086914,7.20748901 L10.6472168,7.55502319 L10.5013733,7.36230469 C10.5013733,7.36230469 8.86798096,8.203865 8.30273438,8.55670166 C7.73748779,8.90953832 7.07803345,9.40731783 6.8739624,9.65744019 C6.66989136,9.90756254 6.3397522,10.5173035 6.3397522,10.5173035 C6.3397522,10.5173035 7.3293457,10.7952573 8.46560669,10.604187 C9.60186768,10.4131167 10.7018738,10.0203549 11.1030579,9.83889771 C11.5042419,9.65744047 11.9803162,9.34552002 11.9803162,9.34552002 L11.5172424,11.512207 L13.1044006,12.4330444 C13.1044006,12.4330444 12.7052307,12.7398381 12.1112366,12.9943542 C11.5172424,13.2488704 10.6856689,13.643279 9.66577148,13.64328 C8.64587402,13.643281 7.78234863,13.6388859 7.2255249,13.3948059 C6.66870117,13.1507259 6.20480347,12.6399536 6.20480347,12.6399536 L5.73486328,11.9085388 C5.73486328,11.9085388 5.53244019,12.494843 5.53244019,12.8484192 C5.53244019,13.2019954 5.82696533,14.1054387 6.13449097,14.5423279 C6.4420166,14.9792171 7.02474976,15.8851318 7.02474976,15.8851318 Z" id="Path-5275" stroke="#040404" stroke-width="0.703125" sketch:type="MSShapeGroup"></path>
            </g>
        </g>
    </g>
</svg>