<?xml version="1.0" encoding="UTF-8" standalone="no"?>
<svg width="24px" height="24px" viewBox="0 0 24 24" version="1.1" xmlns="http://www.w3.org/2000/svg" xmlns:xlink="http://www.w3.org/1999/xlink" xmlns:sketch="http://www.bohemiancoding.com/sketch/ns">
    <!-- Generator: Sketch 3.3.1 (12002) - http://www.bohemiancoding.com/sketch -->
    <title>tb_getmodels</title>
    <desc>Created with Sketch.</desc>
    <defs></defs>
    <g id="Page-1" stroke="none" stroke-width="1" fill="none" fill-rule="evenodd" sketch:type="MSPage">
        <g id="tb_getmodels" sketch:type="MSArtboardGroup">
            <g id="Group" sketch:type="MSLayerGroup" transform="translate(3.000000, 4.000000)">
                <path d="M5.578125,9.00548589 L5.17909484,9.125 L4.03125,6.16144876 L4.84137525,5.9375 L5.08642037,7.76971742 L5.578125,9.00548589" id="Fill-8087" fill="#626054" sketch:type="MSShapeGroup"></path>
                <path d="M5.62479634,9.13929022 L5.12827156,7.90245763 L4.88082428,6.06866248 L4.546875,3.59375 L5.20534061,5.11521873 L5.39279274,6.67772395 L6.07757856,8.30621188 L6.21828899,9.68710877 L6.92791411,11.4171277 L6.984375,12.1262235 L6.842221,12.171875 L5.62479634,9.13929022" id="Fill-8088" fill="#98000A" sketch:type="MSShapeGroup"></path>
                <path d="M5.20891327,5.0813819 L4.546875,3.55498174 L10.4267688,2.05298295 L10.8176206,1.953125 L11.8245915,3.54647254 L13.6875,6.49415923 L11.4402459,7.15625 L9.60158576,3.90723755 L5.20891327,5.0813819 M4.75520085,3.62205425 L5.32461232,4.92020766 L9.69582662,3.75569873 L11.5345368,6.97718141 L13.4454166,6.41632508 L10.732376,2.09014813 L4.75520085,3.62205425" id="Fill-8089" fill="#FF3133" sketch:type="MSShapeGroup"></path>
                <path d="M5.15625,4.99243496 L9.5625,3.828125 L9.52522431,5.39559419 L5.34530175,6.546875 L5.15625,4.99243496" id="Fill-8090" fill="#9A000A" sketch:type="MSShapeGroup"></path>
                <path d="M9.59964456,3.828125 L11.4375,7.07498316 L11.2975263,8.609375 L9.5625,5.40778577 L9.59964456,3.828125" id="Fill-8091" fill="#98000A" sketch:type="MSShapeGroup"></path>
                <path d="M11.4391357,7.11569262 L13.6875,6.453125 L13.3788001,8.30508353 L13.0747194,10.129242 L6.99429527,12.078125 L6.9375,11.3662186 L9.0876211,10.6882482 L9.10030208,9.32404265 L11.2990315,8.65220835 L11.4391357,7.11569262" id="Fill-8092" fill="#9A000A" sketch:type="MSShapeGroup"></path>
                <path d="M9,9.30321256 L8.98707713,10.671875 L8.18621626,8.98083439 L8.15625,7.578125 L9,9.30321256" id="Fill-8093" fill="#98000A" sketch:type="MSShapeGroup"></path>
                <path d="M6.99548465,12.0088142 L13.0735071,10.0616028 L14.241486,9.6875 L16.21875,10.6131229 L13.8844941,11.3884792 L7.43346265,13.53125 L6.421875,12.1924874 L6.85254523,12.0546074 L6.99548465,12.0088142" id="Fill-8094" fill="#858372" sketch:type="MSShapeGroup"></path>
                <path d="M13.6020447,12.7722096 L6.72129973,15.125 L6.421875,12.2735959 L7.4321757,13.6137533 L13.875,11.46875 L13.6020447,12.7722096" id="Fill-8095" fill="#615744" sketch:type="MSShapeGroup"></path>
                <path d="M13.5598241,1.8125 L17.34375,7.10670312 L14.2273383,9.78125 L13.3646399,8.33700217 L13.6727465,6.4920526 L11.8125,3.55340684 L13.5598241,1.8125" id="Fill-8096" fill="#ABA993" sketch:type="MSShapeGroup"></path>
                <path d="M6.3519134,12.3267271 L6.65625,15.171875 L5.53125,12.21875 L6.3519134,12.3267271" id="Fill-8097" fill="#605643" sketch:type="MSShapeGroup"></path>
                <path d="M5.5232854,12.1576055 L2.67610752,11.7754117 L0.65625,5.328125 L3.9745232,6.23503841 L5.13482419,9.20807409 L6.328125,12.265625 L5.5232854,12.1576055" id="Fill-8098" fill="#868474" sketch:type="MSShapeGroup"></path>
                <path d="M5.98577537,8.27474408 L5.296875,6.63441728 L9.46633288,5.46875 L11.203125,8.68532833 L9.00420738,9.359375 L8.17617986,7.6342427 L5.98577537,8.27474408 M5.50432006,6.70640773 L6.0964336,8.10174087 L8.27617163,7.46639063 L9.10485016,9.17720023 L10.9747101,8.60592526 L9.37589334,5.62052043 L5.50432006,6.70640773" id="Fill-8099" fill="#FF3133" sketch:type="MSShapeGroup"></path>
                <path d="M8.2208132,7.578125 L8.25,8.96995215 L6.18736676,9.59375 L6.046875,8.21364088 L8.2208132,7.578125" id="Fill-8100" fill="#9A000A" sketch:type="MSShapeGroup"></path>
                <path d="M6.1875,9.55889054 L8.26225976,8.9375 L9.046875,10.6089462 L6.9001878,11.28125 L6.1875,9.55889054 M7.00576053,11.0995765 L8.83128016,10.5297201 L8.16679811,9.10178851 L6.39355867,9.63463958 L7.00576053,11.0995765" id="Fill-8101" fill="#FF3133" sketch:type="MSShapeGroup"></path>
                <path d="M6.796875,12.1274143 L6.36321636,12.265625 L5.15625,9.19840092 L5.56422958,9.078125 L6.796875,12.1274143" id="Fill-8102" fill="#B6B49D" sketch:type="MSShapeGroup"></path>
                <path d="M10.3125,2.060375 L4.42891986,3.56075 L4.76489157,6.041 L3.94187043,6.265625 L2.90625,2.570875 L10.0036714,0.828125 L10.3125,2.060375" id="Fill-8103" fill="#ACAA94" sketch:type="MSShapeGroup"></path>
                <path d="M13.03125,10.15625 L13.3362245,8.328125 L14.203125,9.78101188 L13.03125,10.15625" id="Fill-8104" fill="#616053" sketch:type="MSShapeGroup"></path>
                <path d="M13.359375,6.40927466 L11.4525281,6.96875 L9.61769855,3.75519953 L5.25570972,4.9168411 L4.6875,3.62188412 L10.6520602,2.09375 L13.359375,6.40927466" id="Fill-8105" fill="#FFFFFF" sketch:type="MSShapeGroup"></path>
                <path d="M11.015625,8.51344427 L9.1409848,9.078125 L8.31018777,7.3870633 L6.12487728,8.01507968 L5.53125,6.63585289 L9.4127209,5.5625 L11.015625,8.51344427" id="Fill-8106" fill="#FFFFFF" sketch:type="MSShapeGroup"></path>
                <path d="M8.859375,10.6594307 L7.03402124,11.234375 L6.421875,9.75635858 L8.19495333,9.21875 L8.859375,10.6594307" id="Fill-8107" fill="#FFFFFF" sketch:type="MSShapeGroup"></path>
                <path id="Stroke-8108" stroke="#000000" stroke-width="0.5" stroke-linecap="round" stroke-linejoin="round" sketch:type="MSShapeGroup" d="M5.578125,9.078125 L5.15625,9.21298438"></path>
                <path id="Stroke-8109" stroke="#000000" stroke-width="0.5" stroke-linecap="round" stroke-linejoin="round" sketch:type="MSShapeGroup" d="M4.875,5.9375 L4.03125,6.171875"></path>
                <path id="Stroke-8110" stroke="#000000" stroke-width="0.5" stroke-linecap="round" stroke-linejoin="round" sketch:type="MSShapeGroup" d="M6.703125,15.078125 L6.421875,12.21875"></path>
                <path d="M14.15625,9.78125 L13.3125,8.328125" id="Stroke-8111" stroke="#000000" stroke-width="0.5" stroke-linecap="round" stroke-linejoin="round" sketch:type="MSShapeGroup"></path>
                <path d="M5.15625,4.99697959 L9.55192133,3.828125 L11.3918367,7.0625 L13.640625,6.40339208" id="Stroke-8112" stroke="#E72B2D" stroke-width="0.5" stroke-linecap="round" stroke-linejoin="round" sketch:type="MSShapeGroup"></path>
                <path d="M6.1875,9.546875 L8.25,8.9375" id="Stroke-8113" stroke="#E72B2D" stroke-width="0.5" stroke-linecap="round" stroke-linejoin="round" sketch:type="MSShapeGroup"></path>
                <path id="Stroke-8114" stroke="#E72B2D" stroke-width="0.5" stroke-linecap="round" stroke-linejoin="round" sketch:type="MSShapeGroup" d="M8.15625,7.578125 L8.18928281,8.984375"></path>
                <path id="Stroke-8115" stroke="#E72B2D" stroke-width="0.5" stroke-linecap="round" stroke-linejoin="round" sketch:type="MSShapeGroup" d="M9.06112031,9.3125 L9.046875,10.671875"></path>
                <path d="M8.15625,7.578125 L9,9.3125" id="Stroke-8116" stroke="#E72B2D" stroke-width="0.5" stroke-linecap="round" stroke-linejoin="round" sketch:type="MSShapeGroup"></path>
                <path d="M8.296875,8.9375 L9.09375,10.625" id="Stroke-8117" stroke="#E72B2D" stroke-width="0.5" stroke-linecap="round" stroke-linejoin="round" sketch:type="MSShapeGroup"></path>
                <path d="M6.046875,8.234375 L8.25,7.578125" id="Stroke-8118" stroke="#E72B2D" stroke-width="0.5" stroke-linecap="round" stroke-linejoin="round" sketch:type="MSShapeGroup"></path>
                <path id="Stroke-8119" stroke="#E72B2D" stroke-width="0.5" stroke-linecap="round" stroke-linejoin="round" sketch:type="MSShapeGroup" d="M6.046875,8.1875 L6.1875,9.59375"></path>
                <path d="M5.296875,6.59375 L6,8.234375" id="Stroke-8120" stroke="#E72B2D" stroke-width="0.5" stroke-linecap="round" stroke-linejoin="round" sketch:type="MSShapeGroup"></path>
                <path d="M9.046875,9.359375 L11.25,8.703125" id="Stroke-8121" stroke="#E72B2D" stroke-width="0.5" stroke-linecap="round" stroke-linejoin="round" sketch:type="MSShapeGroup"></path>
                <path d="M9.5625,5.46875 L11.296875,8.65625" id="Stroke-8122" stroke="#E72B2D" stroke-width="0.5" stroke-linecap="round" stroke-linejoin="round" sketch:type="MSShapeGroup"></path>
                <path d="M5.296875,6.640625 L9.46875,5.46875" id="Stroke-8123" stroke="#E72B2D" stroke-width="0.5" stroke-linecap="round" stroke-linejoin="round" sketch:type="MSShapeGroup"></path>
                <path id="Stroke-8124" stroke="#E72B2D" stroke-width="0.5" stroke-linecap="round" stroke-linejoin="round" sketch:type="MSShapeGroup" d="M7.00130156,12.03125 L6.9375,11.328125"></path>
                <path d="M6.1875,9.59375 L6.890625,11.328125" id="Stroke-8125" stroke="#E72B2D" stroke-width="0.5" stroke-linecap="round" stroke-linejoin="round" sketch:type="MSShapeGroup"></path>
                <path id="Stroke-8126" stroke="#E72B2D" stroke-width="0.5" stroke-linecap="round" stroke-linejoin="round" sketch:type="MSShapeGroup" d="M5.15625,5.09375 L5.34375,6.640625"></path>
                <path d="M4.546875,3.59375 L5.203125,5.140625" id="Stroke-8127" stroke="#E72B2D" stroke-width="0.5" stroke-linecap="round" stroke-linejoin="round" sketch:type="MSShapeGroup"></path>
                <path d="M6.9375,11.375 L9.09375,10.71875" id="Stroke-8128" stroke="#E72B2D" stroke-width="0.5" stroke-linecap="round" stroke-linejoin="round" sketch:type="MSShapeGroup"></path>
                <path id="Stroke-8129" stroke="#E72B2D" stroke-width="0.5" stroke-linecap="round" stroke-linejoin="round" sketch:type="MSShapeGroup" d="M9.60426563,3.828125 L9.5625,5.421875"></path>
                <path id="Stroke-8130" stroke="#E72B2D" stroke-width="0.5" stroke-linecap="round" stroke-linejoin="round" sketch:type="MSShapeGroup" d="M11.4375,7.0625 L11.296875,8.609375"></path>
                <path d="M4.6875,3.62188412 L5.25570972,4.9168411 L9.61769855,3.75519953 L11.4525281,6.96875 L13.359375,6.40927466 L10.6520602,2.09375" id="Stroke-8131" stroke="#E72B2D" stroke-width="0.5" stroke-linecap="round" stroke-linejoin="round" sketch:type="MSShapeGroup"></path>
                <path d="M5.53125,6.63585289 L6.12487728,8.01507968 L8.31018777,7.3870633 L9.1409848,9.078125 L11.015625,8.51344427 L9.4127209,5.5625 L5.53125,6.63585289" id="Stroke-8132" stroke="#E72B2D" stroke-width="0.5" stroke-linecap="round" stroke-linejoin="round" sketch:type="MSShapeGroup"></path>
                <path d="M7.03402124,11.234375 L8.859375,10.6594307 L8.19495333,9.21875 L6.421875,9.75635858 L7.03402124,11.234375" id="Stroke-8133" stroke="#E72B2D" stroke-width="0.5" stroke-linecap="round" stroke-linejoin="round" sketch:type="MSShapeGroup"></path>
                <path d="M4.6875,3.640625 L10.640625,2.09375" id="Stroke-8134" stroke="#E72B2D" stroke-width="0.5" stroke-linecap="round" stroke-linejoin="round" sketch:type="MSShapeGroup"></path>
                <path d="M5.53125,12.21875 L6.63548258,15.171875 L13.5,12.8242469" id="Stroke-8135" stroke="#000000" stroke-width="0.75" stroke-linecap="round" stroke-linejoin="round" sketch:type="MSShapeGroup"></path>
                <path id="Stroke-8136" stroke="#000000" stroke-width="0.75" stroke-linecap="round" stroke-linejoin="round" sketch:type="MSShapeGroup" d="M13.546875,12.78125 L13.828125,11.46875"></path>
                <path d="M3.9375,6.265625 L2.90625,2.5625" id="Stroke-8137" stroke="#000000" stroke-width="0.75" stroke-linecap="round" stroke-linejoin="round" sketch:type="MSShapeGroup"></path>
                <path d="M11.8125,3.546875 L13.546875,1.8125" id="Stroke-8138" stroke="#000000" stroke-width="0.75" stroke-linecap="round" stroke-linejoin="round" sketch:type="MSShapeGroup"></path>
                <path d="M14.15625,9.6875 L16.125,10.625" id="Stroke-8139" stroke="#000000" stroke-width="0.75" stroke-linecap="round" stroke-linejoin="round" sketch:type="MSShapeGroup"></path>
                <path d="M7.453125,13.578125 L6.421875,12.21875" id="Stroke-8140" stroke="#000000" stroke-width="0.75" stroke-linecap="round" stroke-linejoin="round" sketch:type="MSShapeGroup"></path>
                <path d="M17.296875,7.0625 L14.15625,9.734375" id="Stroke-8141" stroke="#000000" stroke-width="0.75" stroke-linecap="round" stroke-linejoin="round" sketch:type="MSShapeGroup"></path>
                <path d="M17.34375,7.109375 L13.546875,1.8125" id="Stroke-8142" stroke="#000000" stroke-width="0.75" stroke-linecap="round" stroke-linejoin="round" sketch:type="MSShapeGroup"></path>
                <path d="M10.03125,0.828125 L10.8120117,2.30419922" id="Stroke-8143" stroke="#000000" stroke-width="0.75" stroke-linecap="round" stroke-linejoin="round" sketch:type="MSShapeGroup"></path>
                <path d="M9.984375,0.828125 L2.90625,2.5625" id="Stroke-8144" stroke="#000000" stroke-width="0.75" stroke-linecap="round" stroke-linejoin="round" sketch:type="MSShapeGroup"></path>
                <path d="M0.65625,5.328125 L3.984375,6.21875" id="Stroke-8145" stroke="#000000" stroke-width="0.75" stroke-linecap="round" stroke-linejoin="round" sketch:type="MSShapeGroup"></path>
                <path d="M0.65625,5.328125 L2.671875,11.796875" id="Stroke-8146" stroke="#000000" stroke-width="0.75" stroke-linecap="round" stroke-linejoin="round" sketch:type="MSShapeGroup"></path>
                <path d="M3.97179548,6.21875 L5.1334412,9.19981575 L6.328125,12.265625 L5.52235262,12.1573138 L2.671875,11.7740876" id="Stroke-8147" stroke="#000000" stroke-width="0.75" stroke-linecap="round" stroke-linejoin="round" sketch:type="MSShapeGroup"></path>
                <path id="Stroke-8148" stroke="#000000" stroke-width="0.75" stroke-linecap="round" stroke-linejoin="round" sketch:type="MSShapeGroup" d="M6.421875,12.21875 L6.84375,12.078125"></path>
                <path d="M16.171875,10.71875 L13.8428434,11.4909505 L7.40625,13.625" id="Stroke-8149" stroke="#000000" stroke-width="0.75" stroke-linecap="round" stroke-linejoin="round" sketch:type="MSShapeGroup"></path>
                <path d="M5.0625,7.8125 L5.56494199,9.04823395 L6.796875,12.078125" id="Stroke-8150" stroke="#E72B2D" stroke-width="0.75" stroke-linecap="round" stroke-linejoin="round" sketch:type="MSShapeGroup"></path>
                <path id="Stroke-8151" stroke="#E72B2D" stroke-width="0.75" stroke-linecap="round" stroke-linejoin="round" sketch:type="MSShapeGroup" d="M10.78125,1.953125 L10.40625,2.06534375"></path>
                <path d="M13.0303888,10.15625 L13.3332069,8.33592976 L13.640625,6.48786798 L11.7845351,3.54426508 L10.78125,1.953125" id="Stroke-8152" stroke="#E72B2D" stroke-width="0.75" stroke-linecap="round" stroke-linejoin="round" sketch:type="MSShapeGroup"></path>
                <path d="M6.796875,12.03125 L6.93924247,11.9859087 L12.9929446,10.0579114 L14.15625,9.6875" id="Stroke-8153" stroke="#000000" stroke-width="0.75" stroke-linecap="round" stroke-linejoin="round" sketch:type="MSShapeGroup"></path>
                <path id="Stroke-8154" stroke="#E72B2D" stroke-width="0.75" stroke-linecap="round" stroke-linejoin="round" sketch:type="MSShapeGroup" d="M5.015625,7.765625 L4.78125,5.9375"></path>
                <path id="Stroke-8155" stroke="#E72B2D" stroke-width="0.75" stroke-linecap="round" stroke-linejoin="round" sketch:type="MSShapeGroup" d="M4.546875,3.59375 L4.875,6.078125"></path>
                <path d="M10.40625,2.09375 L4.546875,3.59375" id="Stroke-8156" stroke="#E72B2D" stroke-width="0.75" stroke-linecap="round" stroke-linejoin="round" sketch:type="MSShapeGroup"></path>
            </g>
        </g>
    </g>
</svg>