<?xml version="1.0" encoding="UTF-8" standalone="no"?>
<svg width="24px" height="24px" viewBox="0 0 24 24" version="1.1" xmlns="http://www.w3.org/2000/svg" xmlns:xlink="http://www.w3.org/1999/xlink" xmlns:sketch="http://www.bohemiancoding.com/sketch/ns">
    <!-- Generator: Sketch 3.3.3 (12072) - http://www.bohemiancoding.com/sketch -->
    <title>tb_label</title>
    <desc>Created with Sketch.</desc>
    <defs></defs>
    <g id="Page-1" stroke="none" stroke-width="1" fill="none" fill-rule="evenodd" sketch:type="MSPage">
        <g id="tb_label" sketch:type="MSArtboardGroup">
            <path d="M8.859375,3.984375 L20.8125,3.984375 L20.8125,14.625 L8.859375,14.625 L8.859375,3.984375 L8.859375,3.984375 Z" id="Stroke-15557" stroke="#000000" stroke-width="0.5" stroke-linecap="round" fill="#FFFFFF" sketch:type="MSShapeGroup"></path>
            <path d="M6.75,19.875 L5.25,16.5 L8.25,16.5 L6.75,19.875 L6.75,19.875 Z" id="Fill-15559" fill="#000000" sketch:type="MSShapeGroup"></path>
            <path d="M6.75,19.875 L5.25,16.5 L8.25,16.5 L6.75,19.875 L6.75,19.875 Z" id="Stroke-15561" stroke="#000000" stroke-width="0.5" stroke-linecap="round" stroke-linejoin="round" sketch:type="MSShapeGroup"></path>
            <path d="M6.75,19.875 L6.75,9.234375 L8.67938232,9.234375" id="Stroke-15562" stroke="#000000" stroke-width="0.5" stroke-linecap="round" stroke-linejoin="round" sketch:type="MSShapeGroup"></path>
            <path d="M14.0647378,9.69231549 C14.0379376,9.62084846 14.0100212,9.57618224 13.9809878,9.55831549 C13.9519543,9.54044873 13.8927715,9.53151549 13.8034377,9.53151549 L12.6108377,9.53151549 C12.5215039,9.53151549 12.4600879,9.54714866 12.4265877,9.57841549 C12.3930875,9.60968231 12.349538,9.69454813 12.2959377,9.83301549 L12.1016377,10.3489155 C12.0837709,10.3980491 12.0748377,10.4449486 12.0748377,10.4896155 C12.0748377,10.6325496 12.1619368,10.7040155 12.3361377,10.7040155 C12.3808046,10.7040155 12.444454,10.6995489 12.5270877,10.6906155 C12.6097215,10.6816821 12.6711375,10.6772155 12.7113377,10.6772155 C12.894472,10.6772155 12.9860377,10.7553814 12.9860377,10.9117155 C12.9860377,11.0591163 12.8855387,11.1328155 12.6845377,11.1328155 C12.6488042,11.1328155 12.5996714,11.1283489 12.5371377,11.1194155 L12.2021377,11.0725155 C12.1396041,11.0635822 12.0368717,11.0591155 11.8939377,11.0591155 C11.7376036,11.0591155 11.6281713,11.0635822 11.5656377,11.0725155 L11.2842377,11.1127155 C11.1591704,11.1305823 11.0676046,11.1395155 11.0095377,11.1395155 C10.8353368,11.1395155 10.7482377,11.0658163 10.7482377,10.9184155 C10.7482377,10.7620814 10.8331035,10.6839155 11.0028377,10.6839155 C11.0385712,10.6839155 11.0653709,10.6861488 11.0832377,10.6906155 L11.1703377,10.6906155 C11.2909383,10.6906155 11.382504,10.643716 11.4450377,10.5499155 C11.4718378,10.514182 11.516504,10.4092164 11.5790377,10.2350155 L12.8252377,6.86491541 C12.8967047,6.67731447 13.0374033,6.5835154 13.2473377,6.5835154 C13.4528054,6.5835154 13.5890374,6.67731447 13.6560377,6.86491541 L14.8553378,10.1881155 C14.9312715,10.3980499 15.0005041,10.5365152 15.0630378,10.6035155 C15.1255714,10.6705159 15.2149039,10.7040155 15.3310378,10.7040155 C15.3667713,10.7040155 15.393571,10.7017822 15.4114378,10.6973155 C15.5365051,10.6883821 15.5990378,10.6839155 15.5990378,10.6839155 C15.768772,10.6839155 15.8536378,10.7553815 15.8536378,10.8983155 C15.8536378,11.050183 15.768772,11.1261155 15.5990378,11.1261155 C15.5499042,11.1261155 15.4851382,11.1216489 15.4047378,11.1127155 C15.1233364,11.0814487 14.9134051,11.0658155 14.7749378,11.0658155 C14.6096703,11.0658155 14.3416729,11.083682 13.9709378,11.1194155 C13.8771373,11.1283489 13.8056713,11.1328155 13.7565377,11.1328155 C13.5778702,11.1328155 13.4885377,11.056883 13.4885377,10.9050155 C13.4885377,10.7531481 13.5868034,10.6772155 13.7833377,10.6772155 C13.8235379,10.6772155 13.8827207,10.6816821 13.9608877,10.6906155 C14.0390548,10.6995489 14.0982376,10.7040155 14.1384378,10.7040155 C14.2858385,10.7040155 14.3595378,10.6437161 14.3595378,10.5231155 C14.3595378,10.5052488 14.3416713,10.4471827 14.3059378,10.3489155 L14.0647378,9.69231549 Z M13.2722307,7.22167969 L12.6558307,9.07087974 C12.6468973,9.09767988 12.6424307,9.11331305 12.6424307,9.11777974 C12.6424307,9.15797994 12.6759303,9.17807974 12.7429307,9.17807974 L13.8082307,9.17807974 C13.861831,9.17807974 13.8886307,9.16021325 13.8886307,9.12447974 C13.8886307,9.11554636 13.8841641,9.09767988 13.8752307,9.07087974 L13.2722307,7.22167969 Z" id="A1" fill="#000000" sketch:type="MSShapeGroup"></path>
            <path d="M17.2905484,7.63252705 C17.2860817,7.4047259 17.262632,7.25286075 17.2201984,7.17692704 C17.1777649,7.10099332 17.0940157,7.06302703 16.9689484,7.06302703 C16.9242815,7.06302703 16.8595155,7.06861031 16.7746484,7.07977703 C16.6897813,7.09094376 16.6250153,7.09652703 16.5803484,7.09652703 C16.4061475,7.09652703 16.3190484,7.01836115 16.3190484,6.86202703 C16.3190484,6.70569291 16.4016809,6.62752702 16.5669484,6.62752702 C16.6205487,6.62752702 16.7042978,6.6331103 16.8181984,6.64427702 C16.932099,6.65544374 17.0203148,6.66102702 17.0828484,6.66102702 C17.2257825,6.66102702 17.3441479,6.6565604 17.4379484,6.64762702 C17.5764158,6.63422695 17.6612816,6.62752702 17.6925484,6.62752702 C17.7908156,6.62752702 17.851115,6.65656006 17.8734484,6.71462702 C17.8913152,6.75482723 17.9002484,6.82405987 17.9002484,6.92232703 C17.9002484,6.9357271 17.8980151,6.98932656 17.8935484,7.08312703 C17.871215,7.56106277 17.8600484,7.99432512 17.8600484,8.38292707 L17.8600484,9.14002709 C17.8600484,9.27849446 17.8622817,9.46385927 17.8667484,9.69612711 C17.8756818,9.97752852 17.8801484,10.1628933 17.8801484,10.2522271 C17.8846151,10.5604287 17.9873474,10.7145271 18.1883484,10.7145271 C18.237482,10.7145271 18.3111813,10.7089439 18.4094484,10.6977771 C18.5077156,10.6866104 18.5814149,10.6810271 18.6305485,10.6810271 C18.8449495,10.6810271 18.9521485,10.759193 18.9521485,10.9155271 C18.9521485,11.0718613 18.8538828,11.1500271 18.6573485,11.1500271 C18.5814147,11.1500271 18.5099488,11.1455605 18.4429484,11.1366271 C18.0677466,11.0874936 17.7818827,11.0629271 17.5853484,11.0629271 C17.3888141,11.0629271 17.1476165,11.0830269 16.8617484,11.1232271 C16.7009476,11.1455606 16.5870487,11.1567271 16.5200484,11.1567271 C16.3279808,11.1567271 16.2319484,11.076328 16.2319484,10.9155271 C16.2319484,10.759193 16.3413806,10.6810271 16.5602484,10.6810271 C16.6272487,10.6810271 16.6964814,10.6877271 16.7679484,10.7011271 C16.8751489,10.7100605 16.9421483,10.7145271 16.9689484,10.7145271 C17.1252825,10.7145271 17.2213149,10.6531111 17.2570484,10.5302771 C17.2927819,10.4074432 17.3106484,10.0891964 17.3106484,9.5755271 L17.2905484,7.63252705 Z" id="Path" fill="#000000" sketch:type="MSShapeGroup"></path>
        </g>
    </g>
</svg>