<?xml version="1.0" encoding="UTF-8" standalone="no"?>
<svg width="24px" height="24px" viewBox="0 0 24 24" version="1.1" xmlns="http://www.w3.org/2000/svg" xmlns:xlink="http://www.w3.org/1999/xlink" xmlns:sketch="http://www.bohemiancoding.com/sketch/ns">
    <!-- Generator: Sketch 3.3.2 (12043) - http://www.bohemiancoding.com/sketch -->
    <title>tb_lookaround</title>
    <desc>Created with Sketch.</desc>
    <defs></defs>
    <g id="Page-1" stroke="none" stroke-width="1" fill="none" fill-rule="evenodd" sketch:type="MSPage">
        <g id="tb_lookaround" sketch:type="MSArtboardGroup">
            <path d="M12,4.7153125 C12.1232812,4.4125 12.3529687,4.12796875 12.6595312,4 C12.54,4.30984375 12.26625,4.53203125 12,4.7153125 L12,4.7153125 Z" id="Shape" fill="#B3B3B3" sketch:type="MSShapeGroup"></path>
            <path d="M12.7092187,4.211875 C12.7959375,4.114375 12.9098437,4.04734375 13.0303125,4 C12.8910937,4.286875 12.6525,4.5053125 12.4509375,4.7471875 C12.4598437,4.79828125 12.4692187,4.849375 12.4785937,4.90046875 C12.3332812,5.04625 12.2076562,5.228125 12,5.28953125 C12.0445312,5.12078125 12.1729687,5.0003125 12.2892187,4.87890625 C12.2657812,4.8775 12.219375,4.87421875 12.1964062,4.87234375 L12.1415625,4.868125 C12.2995312,4.62390625 12.51375,4.42515625 12.7092187,4.211875 L12.7092187,4.211875 Z" id="Shape" fill="#B3B3B3" sketch:type="MSShapeGroup"></path>
            <path d="M13.1115625,5.51609375 C13.2507813,5.31453125 13.440625,5.15703125 13.6257813,5 C13.6492188,5.0571875 13.6726563,5.11484375 13.6960938,5.17296875 C13.5821875,5.28546875 13.474375,5.4040625 13.380625,5.534375 C13.46875,5.51421875 13.5564063,5.49171875 13.6440625,5.46921875 C13.4570312,5.64921875 13.2779687,5.89203125 13,5.9178125 C13.06,5.725625 13.2198437,5.598125 13.3459375,5.4509375 C13.2667187,5.47015625 13.1884375,5.4903125 13.1115625,5.51609375 L13.1115625,5.51609375 Z" id="Shape" fill="#B3B3B3" sketch:type="MSShapeGroup"></path>
            <path d="M13.875625,5.241875 C14.0228125,5.1321875 14.1807812,5.03 14.3659375,5 C14.2515625,5.1265625 14.1151562,5.22921875 13.975,5.324375 C14.0935938,5.32296875 14.2126563,5.3225 14.33125,5.328125 C14.0935938,5.44859375 13.8957812,5.7059375 13.6023437,5.6571875 C13.6773437,5.5315625 13.7757813,5.42328125 13.8732812,5.315 C13.5751562,5.40078125 13.3721875,5.65625 13.088125,5.7725 C13.0660937,5.73359375 13.0220312,5.65625 13,5.6178125 C13.1720312,5.49640625 13.34125,5.36796875 13.4795312,5.208125 C13.3979688,5.20203125 13.3173437,5.196875 13.23625,5.1921875 C13.444375,5.0890625 13.6679688,5.19265625 13.875625,5.241875 L13.875625,5.241875 Z" id="Shape" fill="#B3B3B3" sketch:type="MSShapeGroup"></path>
            <path d="M14.6454687,5.05615632 C14.8414062,4.91365632 15.059375,5.07256257 15.2140625,5.19818757 C15.3354688,5.15506257 15.4545312,5.10021882 15.5834375,5.08146882 C15.756875,5.04537507 15.8182812,5.25162507 15.906875,5.35803132 C16.0695312,5.34865632 16.25375,5.31725007 16.39625,5.41803132 C16.450625,5.48834382 16.4665625,5.57928132 16.4984375,5.66084382 C16.6292187,5.65428132 16.7670312,5.62709382 16.89125,5.68287507 C17.0628125,5.75928132 17.25125,5.77381257 17.4359375,5.78928132 C17.5179688,6.00443757 17.6051563,6.21771882 17.68625,6.43381257 C17.7884375,6.44178132 17.9004687,6.43334382 17.9857812,6.50178132 C17.8803125,6.50084382 17.774375,6.50975007 17.6703125,6.49287507 C17.5864062,6.40756257 17.556875,6.28521882 17.489375,6.18818757 C17.3482812,6.15865632 17.2029688,6.18115632 17.0604687,6.17787507 C17.0525,6.09068757 17.0459375,6.00350007 17.0403125,5.91631257 C16.8139062,5.97021882 16.5935938,6.04662507 16.371875,6.11553132 C16.2457813,6.08646882 16.1515625,5.99646882 16.0657813,5.90553132 C15.8932812,5.94115632 15.7221875,5.99693757 15.5445312,5.99365632 C15.50375,5.96084382 15.4821875,5.91771882 15.4807812,5.86568757 C15.48875,5.85068757 15.5042187,5.82162507 15.5117188,5.80662507 C15.8065625,5.69131257 16.1360938,5.65193757 16.3957812,5.45740632 C16.0639062,5.47475007 15.753125,5.64584382 15.4170312,5.60365632 C15.2604687,5.58725007 15.1053125,5.61912507 14.9534375,5.65240632 C14.950625,5.60318757 14.9482812,5.55350007 14.9464062,5.50428132 C15.1273438,5.43725007 15.3115625,5.36928132 15.4671875,5.25115632 C15.24125,5.20193757 15.033125,5.30365632 14.8470313,5.41896882 C14.5685937,5.55912507 14.31875,5.77006257 14.0046875,5.82725007 C14.0028125,5.76584382 14.0009375,5.70443757 14,5.64350007 C14.2803125,5.47100007 14.5770313,5.32709382 14.8521875,5.14568757 C14.8817188,5.12787507 14.9135938,5.11240632 14.945,5.09740632 C14.8442187,5.08990632 14.744375,5.07584382 14.6454687,5.05615632 L14.6454687,5.05615632 Z" id="Shape" fill="#B3B3B3" sketch:type="MSShapeGroup"></path>
            <path d="M12.6696774,5.08856502 C12.7465524,5.06278377 12.8248337,5.04262752 12.9040524,5.02340877 C12.7779587,5.17059627 12.6181149,5.29809627 12.5581149,5.49028377 C12.8360837,5.46450252 13.0151462,5.22169002 13.2021774,5.04169002 L13.2331149,5.00653377 C13.3142087,5.01122127 13.3948337,5.01637752 13.4763962,5.02247127 C13.3381149,5.18231502 13.1688962,5.31075252 12.9968649,5.43215877 C13.0188962,5.47059627 13.0629587,5.54794002 13.0849899,5.58684627 C13.3690524,5.47059627 13.5720212,5.21512752 13.8701462,5.12934627 C13.7726462,5.23762752 13.6742087,5.34590877 13.5992087,5.47153377 C13.8926462,5.52028377 14.0904587,5.26294002 14.3281149,5.14247127 C14.5057712,5.06887752 14.6899899,4.96200252 14.8896774,5.01356502 L14.8395212,5.05575252 C14.5643649,5.23715877 14.2676462,5.38106502 13.9873337,5.55356502 C13.9882712,5.61450252 13.9901462,5.67590877 13.9920212,5.73731502 C14.3060837,5.68012752 14.5559274,5.46919002 14.8343649,5.32903377 C15.0204587,5.21372127 15.2285837,5.11200252 15.4545212,5.16122127 C15.2988962,5.27934627 15.1146774,5.34731502 14.9337399,5.41434627 C14.9356149,5.46356502 14.9379587,5.51325252 14.9407712,5.56247127 C15.1371774,5.56106502 15.3335837,5.55872127 15.5295212,5.57653377 C15.4446774,5.68294002 15.4118649,5.81419002 15.4249899,5.94872127 C15.6232712,5.95294002 15.8196774,5.92200252 16.0128024,5.88122127 C16.1070212,5.97309627 16.2162399,6.07762752 16.3592087,6.02559627 C16.5809274,5.95669002 16.8012399,5.88028377 17.0276462,5.82637752 C17.0332712,5.91356502 17.0398337,6.00075252 17.0478024,6.08794002 C17.1903024,6.09122127 17.3356149,6.06872127 17.4767087,6.09825252 C17.5442087,6.19528377 17.5737399,6.31762752 17.6576462,6.40294002 C17.7617087,6.41981502 17.8676462,6.41090877 17.9731149,6.41184627 C18.0631149,6.51965877 17.9829587,6.68653377 18.0996774,6.77700252 C18.2028024,6.79903377 18.3082712,6.77606502 18.4128024,6.77981502 C18.5060837,6.82106502 18.5960837,6.86981502 18.6903024,6.90825252 C18.6645212,7.06200252 18.6701462,7.22044002 18.7742087,7.34559627 C18.8548337,7.34840877 18.9354587,7.35028377 19.0165524,7.35028377 C18.9888962,7.50262752 19.0948337,7.61934627 19.1510837,7.75012752 C19.1534274,7.82278377 19.1585837,7.89731502 19.1407712,7.96856502 C19.0606149,8.07731502 18.9392087,8.14340877 18.8271774,8.21325252 C18.8562399,8.33794002 18.8763962,8.46403377 18.8792087,8.59200252 C18.8295212,8.60981502 18.7807712,8.62762752 18.7315524,8.64544002 C18.5074899,8.53809627 18.2876462,8.42137752 18.0790524,8.28637752 C17.9018649,8.17247127 17.6890524,8.15794002 17.4846774,8.17153377 C17.5629587,8.01919002 17.6407712,7.86637752 17.7106149,7.70981502 C17.3810837,7.70840877 17.0928024,7.89356502 16.7731149,7.94700252 C16.8570212,7.83169002 16.9507712,7.71919002 16.9976462,7.58231502 C16.8921774,7.59872127 16.7895212,7.62637752 16.6873337,7.65450252 C16.5734274,7.57012752 16.4651462,7.44731502 16.3156149,7.43840877 C16.1468649,7.47215877 16.0034274,7.57481502 15.8524899,7.65122127 C15.9232712,7.48059627 15.9907712,7.30856502 16.0596774,7.13700252 C16.0034274,7.08215877 15.9490524,7.02544002 15.8876462,6.97715877 C15.6542087,7.01934627 15.5028024,7.24669002 15.2613962,7.27528377 C15.3556149,7.12622127 15.5060837,7.00528377 15.5445212,6.82622127 C15.4128024,6.85059627 15.2946774,6.91481502 15.1793649,6.97856502 C15.1395212,6.94997127 15.1001462,6.92137752 15.0612399,6.89278377 C15.0813962,6.78122127 15.1020212,6.66965877 15.1217087,6.55809627 C14.9126462,6.61153377 14.7317087,6.73247127 14.5732712,6.87637752 C14.5484274,6.85997127 14.4992087,6.82762752 14.4748337,6.81122127 C14.5221774,6.69356502 14.5685837,6.57544002 14.6103024,6.45544002 C14.3013962,6.56512752 14.1649899,6.89465877 13.8837399,7.04372127 C13.7979587,7.09387752 13.7070212,7.13465877 13.6188962,7.18012752 C13.5912399,7.16840877 13.5359274,7.14497127 13.5087399,7.13325252 C13.5457712,7.01325252 13.6765524,6.86606502 13.5570212,6.75450252 C13.5040524,6.68231502 13.4037399,6.66919002 13.3245212,6.69965877 C13.1590524,6.76106502 13.0217087,6.87637752 12.8843649,6.98372127 C12.8703024,6.85294002 12.9288962,6.63450252 12.7493649,6.60403377 C12.6007712,6.59840877 12.4938962,6.72778377 12.3757712,6.79997127 C12.2243649,6.92653377 12.0134274,6.92231502 11.8306149,6.88528377 C11.5784274,6.82715877 11.3060837,6.85669002 11.0707712,6.73247127 C10.9699899,6.69778377 10.8528024,6.58762752 10.7534274,6.68137752 C10.5804587,6.81028377 10.4342087,6.97153377 10.2626462,7.10278377 C10.1121774,6.92325252 9.94248991,6.66403377 9.67998991,6.67856502 C9.47280241,6.81075252 9.37717741,7.05497127 9.23655241,7.24809627 L9.20702116,7.26450252 C9.11233366,7.19653377 9.02139616,7.12012752 8.91358366,7.07372127 C8.78420866,7.15387752 8.67592741,7.28465877 8.51280241,7.29169002 C8.46264616,7.29825252 8.41248991,7.30387752 8.36233366,7.31231502 C8.17530241,7.43184627 8.06186491,7.62637752 7.95264616,7.81294002 C7.87811491,7.75903377 7.80311491,7.70653377 7.72717741,7.65450252 C7.59873991,7.84059627 7.49373991,8.04215877 7.40561491,8.25028377 C7.24155241,8.22262752 7.07702116,8.18044002 6.90967741,8.18512752 C6.82530241,8.29153377 6.78405241,8.42465877 6.70108366,8.53200252 C6.55577116,8.63044002 6.37483366,8.66512752 6.23467741,8.77200252 C6.12733366,8.90090877 6.09498991,9.07247127 6.03639616,9.22622127 C5.89670866,9.24544002 5.75655241,9.26325252 5.61592741,9.27919002 C5.47905241,9.57919002 5.17108366,9.74044002 5.01358366,10.0240338 C4.96202116,10.11169 4.90905241,10.1988775 4.85092741,10.2827838 C4.72998991,10.4365338 4.65170866,10.6165338 4.59498991,10.8026275 C4.45155241,10.66294 4.27483366,10.5705963 4.07280241,10.5584088 C3.97155241,10.4796588 4.00623991,10.3390338 4.00389616,10.2284088 C3.99358366,9.97059627 4.14405241,9.74559627 4.29077116,9.54684627 C4.43467741,9.39169002 4.48530241,9.17700252 4.61795866,9.01434627 C4.70420866,8.96278377 4.79936491,8.92809627 4.88561491,8.87606502 C4.98780241,8.76450252 5.01920866,8.60794002 5.10780241,8.48700252 C5.17389616,8.42372127 5.26389616,8.39325252 5.33514616,8.33606502 C5.41811491,8.25309627 5.45186491,8.13028377 5.54045866,8.05247127 C5.70920866,7.98450252 5.88873991,7.92825252 6.03170866,7.81106502 C6.15827116,7.67606502 6.24920866,7.50919002 6.30967741,7.33528377 C6.31342741,7.32356502 6.32092741,7.30059627 6.32467741,7.28934627 C6.45780241,7.38450252 6.63545866,7.41965877 6.78967741,7.35872127 C6.93592741,7.27340877 7.02077116,7.11356502 7.16514616,7.02544002 C7.28092741,6.99872127 7.40373991,7.03575252 7.51717741,6.99919002 C7.71967741,6.87590877 7.82702116,6.61528377 8.07686491,6.56747127 C8.21186491,6.50887752 8.38248991,6.66497127 8.48561491,6.52481502 C8.67358366,6.33497127 8.82827116,6.11606502 8.99561491,5.90840877 C8.96092741,6.04575252 8.92389616,6.18356502 8.92952116,6.32653377 C9.08561491,6.23090877 9.20139616,6.08794002 9.32889616,5.95997127 C9.40858366,5.87747127 9.52858366,5.86669002 9.63170866,5.83012752 C9.68420866,5.92809627 9.73811491,6.02465877 9.79670866,6.11887752 C9.93686491,6.01762752 10.0573337,5.89200252 10.1585837,5.75184627 C10.2265524,5.66559627 10.3020212,5.58544002 10.3760837,5.50387752 C10.4646774,5.53856502 10.5532712,5.57372127 10.6413962,5.60981502 C10.6971774,5.56903377 10.7529587,5.52825252 10.8082712,5.48700252 C10.8012399,5.58450252 10.7988962,5.68247127 10.7984274,5.78090877 C11.0238962,5.68481502 11.1415524,5.44622127 11.3632712,5.34825252 C11.5151462,5.28075252 11.6388962,5.43122127 11.7738962,5.47575252 C11.8943649,5.42606502 11.9956149,5.34169002 12.1020212,5.26809627 C12.1484274,5.23481502 12.1948337,5.20012752 12.2463962,5.17387752 C12.2693649,5.17575252 12.3157712,5.17903377 12.3392087,5.18044002 C12.2229587,5.30184627 12.0945212,5.42231502 12.0499899,5.59106502 C12.2576462,5.52965877 12.3832712,5.34778377 12.5285837,5.20200252 C12.5717087,5.16028377 12.6148337,5.11575252 12.6696774,5.08856502 L12.6696774,5.08856502 Z" id="Shape" fill="#050505" sketch:type="MSShapeGroup"></path>
            <path d="M11.7120313,5.02405842 C11.9084375,4.96405842 12.1104688,5.03015217 12.3035938,5.07187092 C12.1971875,5.14546467 12.0959375,5.22983967 11.9754688,5.27952717 C11.8404688,5.23499592 11.7167188,5.08452717 11.5648438,5.15202717 C11.343125,5.24999592 11.2254688,5.48858967 11,5.58468342 C11.0004688,5.48624592 11.0028125,5.38827717 11.0098438,5.29077717 C10.99625,5.21343342 11.0848438,5.20124592 11.1321875,5.16562092 C11.1251563,5.26124592 11.1157813,5.35733967 11.106875,5.45296467 C11.28875,5.28655842 11.4589063,5.07937092 11.7120313,5.02405842 L11.7120313,5.02405842 Z" id="Shape" fill="#B3B3B3" sketch:type="MSShapeGroup"></path>
            <path d="M15.4635937,5.14625 C15.7996875,5.1884375 16.1104687,5.01734375 16.4423438,5 C16.1826563,5.19453125 15.853125,5.23390625 15.5582813,5.34921875 C15.5507812,5.36421875 15.5353125,5.39328125 15.5273438,5.40828125 C15.52875,5.4603125 15.5503125,5.5034375 15.5910938,5.53625 C15.76875,5.53953125 15.9398438,5.48375 16.1123438,5.448125 C16.198125,5.5390625 16.2923438,5.6290625 16.4184375,5.658125 C16.2754688,5.71015625 16.16625,5.605625 16.0720313,5.51375 C15.8789062,5.55453125 15.6825,5.58546875 15.4842188,5.58125 C15.4710938,5.44671875 15.5039062,5.31546875 15.58875,5.2090625 C15.3928125,5.19125 15.1964062,5.19359375 15,5.195 C15.151875,5.16171875 15.3070313,5.12984375 15.4635937,5.14625 L15.4635937,5.14625 Z" id="Shape" fill="#5D5D5D" sketch:type="MSShapeGroup"></path>
            <path d="M9.52125,6.07359375 C9.62859375,6.0665625 9.72984375,6.02625 9.83390625,6 C9.73265625,6.14015625 9.6121875,6.26578125 9.47203125,6.36703125 C9.4134375,6.2728125 9.35953125,6.17625 9.30703125,6.07828125 C9.20390625,6.11484375 9.08390625,6.125625 9.00421875,6.208125 C8.87671875,6.33609375 8.7609375,6.4790625 8.60484375,6.5746875 C8.59921875,6.43171875 8.63625,6.29390625 8.6709375,6.1565625 C8.50359375,6.36421875 8.34890625,6.583125 8.1609375,6.77296875 C8.0578125,6.913125 7.8871875,6.75703125 7.7521875,6.815625 C7.50234375,6.8634375 7.395,7.1240625 7.1925,7.24734375 C7.0790625,7.28390625 6.95625,7.246875 6.84046875,7.27359375 C6.69609375,7.36171875 6.61125,7.5215625 6.465,7.606875 C6.31078125,7.6678125 6.133125,7.63265625 6,7.5375 C6.0834375,7.46296875 6.1846875,7.41515625 6.286875,7.3725 C6.51890625,7.2759375 6.72140625,7.12171875 6.95109375,7.02 C7.27546875,6.86296875 7.64671875,6.7828125 7.9171875,6.53015625 C8.06953125,6.41296875 8.15484375,6.2371875 8.28328125,6.09890625 C8.46421875,6.04828125 8.649375,6.11671875 8.7984375,6.21890625 C8.92078125,6.15 9.0403125,6.06796875 9.17953125,6.03890625 C9.29484375,6.02484375 9.406875,6.06703125 9.52125,6.07359375 L9.52125,6.07359375 Z" id="Shape" fill="#B3B3B3" sketch:type="MSShapeGroup"></path>
            <path d="M13.4657812,7.58828125 C13.7470312,7.43921875 13.8834375,7.1096875 14.1923437,7 C14.150625,7.12 14.1042187,7.238125 14.056875,7.35578125 C14.08125,7.3721875 14.1304687,7.40453125 14.1553125,7.4209375 C14.31375,7.27703125 14.4946875,7.15609375 14.70375,7.10265625 C14.6840625,7.21421875 14.6634375,7.32578125 14.6432812,7.43734375 C14.6821875,7.4659375 14.7215625,7.49453125 14.7614062,7.523125 C14.8767187,7.459375 14.9948437,7.39515625 15.1265625,7.37078125 C15.088125,7.54984375 14.9376562,7.67078125 14.8434375,7.81984375 C15.0848437,7.79125 15.23625,7.56390625 15.4696875,7.52171875 C15.5310937,7.57 15.5854687,7.62671875 15.6417187,7.6815625 C15.5728125,7.853125 15.5053125,8.02515625 15.4345312,8.19578125 C15.5854687,8.119375 15.7289062,8.01671875 15.8976562,7.98296875 C16.0471875,7.991875 16.1554687,8.1146875 16.269375,8.1990625 C16.3715625,8.1709375 16.4742187,8.14328125 16.5796875,8.126875 C16.5328125,8.26375 16.4390625,8.37625 16.3551562,8.4915625 C16.6748437,8.438125 16.963125,8.25296875 17.2926562,8.254375 C17.2228125,8.4109375 17.145,8.56375 17.0667187,8.71609375 C17.2710937,8.7025 17.4839062,8.71703125 17.6610937,8.8309375 C17.8696875,8.9659375 18.0895312,9.08265625 18.3135937,9.19 C18.3628125,9.1721875 18.4115625,9.154375 18.46125,9.1365625 C18.3660937,9.236875 18.2723437,9.3390625 18.185625,9.446875 C18.1289062,9.5190625 18.06,9.58140625 17.9854687,9.63484375 C17.6985937,9.840625 17.4445312,10.0876562 17.1646875,10.3028125 C16.9617187,10.4579687 16.7709375,10.6285938 16.5960937,10.8146875 C16.771875,10.7626562 16.9448437,10.699375 17.1121875,10.6229688 C17.4895312,10.448125 17.904375,10.3839062 18.2995312,10.2615625 C18.526875,10.1898437 18.7692187,10.155625 19.0035937,10.2175 C19.0214062,10.26625 19.0396875,10.3145312 19.0579687,10.3632812 C18.76875,10.669375 18.3773437,10.83625 18.0370312,11.0734375 C18.361875,11.0284375 18.7045312,10.89625 19.0284375,11.0096875 C19.273125,11.1714062 19.1489062,11.5295312 18.9890625,11.7123438 C18.9670312,11.7353125 18.9229687,11.7803125 18.9004687,11.8032812 C18.7345312,11.9542187 18.5526562,12.086875 18.3778125,12.2270312 C18.4382812,12.278125 18.4982812,12.3301562 18.5610937,12.3789062 C18.25875,12.2598437 17.9610937,12.124375 17.6423437,12.0545313 C17.525625,12.0371875 17.465625,11.929375 17.3967187,11.8473438 C17.6770312,11.9673437 18.0042187,12.1796875 18.3089062,12.01 C18.6178125,11.8398438 18.8953125,11.5567187 18.950625,11.1948438 C18.61875,11.1475 18.2892187,11.2295312 17.9667187,11.2989062 C17.6845312,11.3607813 17.41125,11.4554687 17.145,11.5660938 C17.16375,11.5890625 17.2007812,11.6354687 17.2195312,11.6584375 C17.1107812,11.5820312 17.0010937,11.505625 16.8839062,11.4428125 C17.1379687,11.2717187 17.4201562,11.15125 17.69625,11.0223438 C18.0464062,10.849375 18.425625,10.7148438 18.7115625,10.4378125 C18.7635937,10.395625 18.8142187,10.3510937 18.8648437,10.3070312 C18.6496875,10.31125 18.436875,10.3529688 18.2376562,10.435 C17.61,10.5892188 17.015625,10.8451562 16.423125,11.0978125 C16.49625,11.228125 16.591875,11.3523437 16.7428125,11.395 C16.6490625,11.3664062 16.5539062,11.335 16.479375,11.269375 C16.3148437,11.1325 16.1175,11.0457813 15.935625,10.9360938 C16.14375,10.939375 16.2932812,10.7809375 16.4404687,10.6571875 C16.7995312,10.343125 17.1970312,10.0754687 17.5410937,9.74453125 C17.1285937,9.96109375 16.771875,10.2667187 16.3621875,10.4875 C16.1695312,10.5990625 15.9379687,10.673125 15.8146875,10.8723437 C15.6215625,10.7842188 15.4828125,10.6070313 15.2789062,10.54 C15.0478125,10.4589063 14.8115625,10.3928125 14.5785937,10.3178125 C14.334375,10.2428125 14.1182812,10.0970313 13.8707812,10.0304687 C13.5060937,9.92875 13.1254687,9.90109375 12.76125,9.7965625 C12.9628125,9.80828125 13.1625,9.84625 13.3645312,9.85 C13.5351562,9.79046875 13.65375,9.64375 13.7817187,9.52234375 C14.0198437,9.2978125 14.205,9.02546875 14.428125,8.78734375 C14.7028125,8.49578125 14.9559375,8.185 15.1940625,7.86296875 C14.8457812,8.08609375 14.5870312,8.41328125 14.2729687,8.67671875 C14.1370312,8.7915625 14.01,8.91578125 13.8820312,9.03859375 C13.6457812,9.20640625 13.456875,9.4290625 13.2257812,9.6025 C13.1329687,9.68453125 13.005,9.6746875 12.8901562,9.67796875 C12.9735937,9.49375 13.1165625,9.3484375 13.2665625,9.21671875 C13.614375,8.89515625 13.9551562,8.56375 14.2565625,8.1971875 C13.9570312,8.45875 13.6476562,8.7090625 13.3654687,8.98890625 C13.243125,9.101875 13.1132812,9.25703125 12.92625,9.20828125 C13.1503125,8.93265625 13.4479687,8.72734375 13.6617187,8.44234375 C13.8225,8.2234375 14.0451562,8.0378125 14.1192187,7.766875 C13.8853125,7.841875 13.7460937,8.055625 13.595625,8.23421875 C13.3921875,8.4990625 13.1615625,8.741875 12.9754687,9.01984375 C12.89625,9.1384375 12.7964062,9.24109375 12.6848437,9.32921875 C12.6496875,9.14875 12.7907812,9.01796875 12.8859375,8.884375 C13.1578125,8.5309375 13.430625,8.1690625 13.603125,7.7546875 C13.4226562,7.9290625 13.2946875,8.14609375 13.1423437,8.34390625 C12.9154687,8.64625 12.665625,8.93125 12.43125,9.2284375 C12.3164062,9.375625 12.1795312,9.5125 12,9.5771875 C12.0346875,9.476875 12.0754687,9.37890625 12.1228125,9.28375 C12.2620312,9.27484375 12.3675,9.191875 12.4284375,9.07 C12.7739062,8.6621875 13.1128125,8.2478125 13.4114062,7.80296875 C13.329375,7.78328125 13.2478125,7.7640625 13.16625,7.744375 L13.2009375,7.7246875 C13.2890625,7.67921875 13.38,7.6384375 13.4657812,7.58828125 L13.4657812,7.58828125 Z" id="Shape" fill="#5D5D5D" sketch:type="MSShapeGroup"></path>
            <path d="M10.516875,7.07752131 C10.61625,6.98377131 10.7334375,7.09392756 10.8342188,7.12861506 C11.0695313,7.25283381 11.341875,7.22330256 11.5940625,7.28142756 C11.776875,7.31845881 11.9878125,7.32267756 12.1392188,7.19611506 C12.2573438,7.12392756 12.3642188,6.99455256 12.5128125,7.00017756 C12.6923438,7.03064631 12.63375,7.24908381 12.6478125,7.37986506 C12.7851562,7.27252131 12.9225,7.15720881 13.0879688,7.09580256 C13.1671875,7.06533381 13.2675,7.07845881 13.3204687,7.15064631 C13.44,7.26220881 13.3092187,7.40939631 13.2721875,7.52939631 C13.08375,7.48814631 12.913125,7.62642756 12.725625,7.59830256 C12.4598438,7.54627131 12.1664063,7.58892756 11.9404688,7.40845881 C11.589375,7.29220881 11.2064063,7.31611506 10.839375,7.31236506 C10.621875,7.36064631 10.4460938,7.52892756 10.2196875,7.55002131 C10.0176562,7.56220881 9.81421875,7.57064631 9.61171875,7.55845881 C9.40359375,7.53877131 9.20296875,7.61236506 9,7.64424006 C9.140625,7.45111506 9.23625,7.20689631 9.4434375,7.07470881 C9.7059375,7.06017756 9.875625,7.31939631 10.0260938,7.49892756 C10.1976563,7.36767756 10.3439062,7.20642756 10.516875,7.07752131 L10.516875,7.07752131 Z" id="Shape" fill="#5D5D5D" sketch:type="MSShapeGroup"></path>
            <path d="M10.3457658,7.23765625 C10.572172,7.2165625 10.7479533,7.04828125 10.9654533,7 C11.3324845,7.00375 11.7154533,6.97984375 12.066547,7.09609375 C12.154672,7.17625 12.231547,7.29859375 12.3660783,7.29109375 C12.6651408,7.301875 12.9693595,7.40453125 13.259047,7.279375 C12.897172,7.76921875 12.4251408,8.2009375 12.2245158,8.790625 C12.5287345,8.62796875 12.6060783,8.25765625 12.8329533,8.01765625 C12.7101408,8.29140625 12.5573283,8.55109375 12.430297,8.82296875 C12.3829533,8.918125 12.342172,9.01609375 12.3074845,9.11640625 C12.4870158,9.05171875 12.6238908,8.91484375 12.7387345,8.76765625 C12.9731095,8.47046875 13.2229533,8.18546875 13.4498283,7.883125 C13.602172,7.6853125 13.7301408,7.46828125 13.9106095,7.29390625 C13.7381095,7.70828125 13.465297,8.07015625 13.193422,8.42359375 C13.0982658,8.5571875 12.957172,8.68796875 12.9923283,8.8684375 C13.1038908,8.7803125 13.2037345,8.67765625 13.2829533,8.5590625 C13.469047,8.28109375 13.699672,8.03828125 13.9031095,7.7734375 C14.0535783,7.59484375 14.192797,7.38109375 14.4267033,7.30609375 C14.3526408,7.57703125 14.1299845,7.76265625 13.9692033,7.9815625 C13.7554533,8.2665625 13.457797,8.471875 13.2337345,8.7475 C13.4207658,8.79625 13.5506095,8.64109375 13.6729533,8.528125 C13.9551408,8.24828125 14.2645158,7.99796875 14.564047,7.73640625 C14.2626408,8.10296875 13.9218595,8.434375 13.574047,8.7559375 C13.424047,8.88765625 13.2810783,9.03296875 13.1976408,9.2171875 C13.3124845,9.21390625 13.4404533,9.22375 13.5332658,9.14171875 C13.7643595,8.96828125 13.9532658,8.745625 14.1895158,8.5778125 C14.2574845,8.5496875 14.3273283,8.5253125 14.3967033,8.50046875 C14.275297,8.63640625 14.1295158,8.75265625 14.0301408,8.9059375 C14.0413908,8.96078125 14.0676408,9.01046875 14.0892033,9.0615625 C13.9612345,9.18296875 13.8426408,9.3296875 13.6720158,9.38921875 C13.4699845,9.38546875 13.270297,9.3475 13.0687345,9.33578125 C12.734047,9.23265625 12.3824845,9.2809375 12.0417033,9.22421875 C11.5410783,9.180625 11.039047,9.1253125 10.5351408,9.1525 C10.2557658,9.17640625 9.96889076,9.2659375 9.69139076,9.1834375 C9.52451576,9.13984375 9.34592201,9.1478125 9.17904701,9.18578125 C8.89076576,9.2621875 8.59779701,9.33015625 8.32779701,9.46 C8.03014076,9.57859375 7.76107826,9.77265625 7.44045326,9.829375 C7.36967201,9.8321875 7.29889076,9.833125 7.22810951,9.835 C7.25107826,9.7890625 7.27357826,9.74359375 7.29607826,9.698125 C7.45639076,9.450625 7.57264076,9.18015625 7.67435951,8.90453125 C7.77420326,8.62234375 8.03482826,8.41984375 8.07935951,8.115625 C7.86748451,8.27921875 7.72685951,8.51125 7.60779701,8.7465625 C7.38560951,8.974375 7.19576576,9.23171875 7.05232826,9.51625 C7.05654701,9.263125 7.04623451,9.0090625 7.00404701,8.75921875 C6.98154701,8.69078125 7.05842201,8.65 7.09779701,8.60921875 C7.39076576,8.39125 7.71935951,8.228125 8.03670326,8.04953125 C8.14967201,7.980625 8.27389076,7.91265625 8.34326576,7.7959375 C8.39951576,7.6553125 8.31045326,7.5184375 8.25185951,7.39609375 C8.30201576,7.38765625 8.35217201,7.38203125 8.40232826,7.37546875 C8.60576576,7.5578125 8.89264076,7.49265625 9.09654701,7.34828125 L9.12607826,7.331875 C9.32904701,7.3 9.52967201,7.22640625 9.73779701,7.24609375 C9.94029701,7.25828125 10.1437345,7.24984375 10.3457658,7.23765625 L10.3457658,7.23765625 Z" id="Shape" fill="#FEFEFE" sketch:type="MSShapeGroup"></path>
            <path d="M12,7 C12.2259375,7.18046875 12.519375,7.1378125 12.7851562,7.18984375 C12.9726562,7.21796875 13.1432812,7.0796875 13.3317187,7.1209375 C13.3589063,7.13265625 13.4142187,7.15609375 13.441875,7.1678125 L13.4071875,7.1875 C13.179375,7.3853125 13.0725,7.67546875 12.9121875,7.92296875 C12.7945312,8.1025 12.6951563,8.2975 12.669375,8.513125 C12.6084375,8.635 12.5029688,8.71796875 12.36375,8.726875 C12.4907812,8.455 12.6435938,8.1953125 12.7664062,7.9215625 C12.5395312,8.1615625 12.4621875,8.531875 12.1579688,8.69453125 C12.3585937,8.10484375 12.830625,7.673125 13.1925,7.18328125 C12.9028125,7.3084375 12.5985937,7.20578125 12.2995312,7.195 C12.165,7.2025 12.088125,7.08015625 12,7 L12,7 Z" id="Shape" fill="#B3B3B3" sketch:type="MSShapeGroup"></path>
            <path id="Shape" fill="#5D5D5D" sketch:type="MSShapeGroup" d="M8,7.21796875 C8.163125,7.2109375 8.27140625,7.08015625 8.40078125,7 C8.50859375,7.04640625 8.59953125,7.1228125 8.69421875,7.19078125 C8.4903125,7.33515625 8.2034375,7.4003125 8,7.21796875 L8,7.21796875 Z"></path>
            <path id="Shape" fill="#B3B3B3" sketch:type="MSShapeGroup" d="M14,7.42328125 C14.0834375,7.211875 14.2578125,7.05625 14.478125,7 C14.3496875,7.17203125 14.1889063,7.31921875 14,7.42328125 L14,7.42328125 Z"></path>
            <path d="M13.2428125,7.73546875 C13.403125,7.48796875 13.51,7.1978125 13.7378125,7 C13.819375,7.0196875 13.9009375,7.03890625 13.9829688,7.05859375 C13.684375,7.5034375 13.3454688,7.9178125 13,8.325625 C13.0257813,8.11 13.1251562,7.915 13.2428125,7.73546875 L13.2428125,7.73546875 Z" id="Shape" fill="#FEFEFE" sketch:type="MSShapeGroup"></path>
            <path d="M15.564375,7.7096875 C15.7757813,7.46640625 15.9689063,7.2025 16.2220313,7 C16.1184375,7.2475 16.104375,7.56671875 15.860625,7.725625 C15.560625,7.9403125 15.3229688,8.23421875 15,8.4175 C15.1509375,8.15359375 15.3764063,7.9459375 15.564375,7.7096875 L15.564375,7.7096875 Z" id="Shape" fill="#B3B3B3" sketch:type="MSShapeGroup"></path>
            <path d="M5.9365625,7.36328125 C6.1934375,7.2390625 6.4278125,7.058125 6.711875,7 C6.65140625,7.17390625 6.56046875,7.34078125 6.43390625,7.47578125 C6.2909375,7.59296875 6.11140625,7.64921875 5.94265625,7.7171875 C5.8540625,7.795 5.8203125,7.9178125 5.73734375,8.00078125 C5.66609375,8.05796875 5.57609375,8.0884375 5.51,8.15171875 C5.42140625,8.27265625 5.39,8.42921875 5.2878125,8.54078125 C5.2015625,8.5928125 5.10640625,8.6275 5.02015625,8.6790625 C5.02859375,8.52296875 5.00046875,8.36875 5,8.213125 C5.11953125,7.98109375 5.39515625,7.9103125 5.59859375,7.7725 C5.7696875,7.68671875 5.75796875,7.4396875 5.9365625,7.36328125 L5.9365625,7.36328125 Z" id="Shape" fill="#B3B3B3" sketch:type="MSShapeGroup"></path>
            <path d="M7.9609375,7.500625 C8.07015625,7.3140625 8.18359375,7.11953125 8.370625,7 C8.42921875,7.12234375 8.51828125,7.25921875 8.46203125,7.39984375 C8.39265625,7.5165625 8.2684375,7.58453125 8.15546875,7.6534375 C7.838125,7.83203125 7.50953125,7.99515625 7.2165625,8.213125 C7.1771875,8.25390625 7.1003125,8.2946875 7.1228125,8.363125 C7.165,8.61296875 7.1753125,8.86703125 7.17109375,9.12015625 C7.31453125,8.835625 7.504375,8.57828125 7.7265625,8.35046875 C7.72984375,8.69546875 7.52265625,8.98609375 7.41484375,9.30203125 C7.39234375,9.3475 7.36984375,9.39296875 7.346875,9.43890625 C7.41765625,9.43703125 7.4884375,9.43609375 7.55921875,9.43328125 C7.3871875,9.4965625 7.27421875,9.64140625 7.19171875,9.7984375 C7.1340625,9.78953125 7.07640625,9.78015625 7.01875,9.77078125 C6.9990625,9.38921875 6.915625,9.01375 6.911875,8.63078125 C6.775,8.978125 6.74125,9.355 6.71828125,9.724375 C6.70328125,9.8021875 6.76140625,9.8584375 6.80359375,9.91609375 C6.655,10.0754687 6.45015625,10.1546875 6.274375,10.275625 C6.2209375,10.391875 6.22796875,10.525 6.2125,10.6496875 C6.19328125,10.64875 6.15484375,10.6459375 6.135625,10.6445312 C6.08921875,10.58125 6.04328125,10.5184375 5.996875,10.455625 C5.94671875,10.4828125 5.89609375,10.5104687 5.8459375,10.538125 C5.8703125,10.7429687 5.91625,10.9651562 5.783125,11.1451562 C5.71375,11.0134375 5.65375,10.8770312 5.5928125,10.7410937 C5.554375,10.7945312 5.5103125,10.8451562 5.483125,10.9060937 C5.49671875,11.1423437 5.58859375,11.3645312 5.63265625,11.595625 C5.580625,11.610625 5.5290625,11.625625 5.47703125,11.6401563 C5.41984375,11.5314062 5.36265625,11.4221875 5.30453125,11.3139062 C5.29,11.5215625 5.3021875,11.7385937 5.216875,11.9340625 C5.16578125,12.053125 5.14046875,12.1801562 5.1203125,12.3076562 C5.04015625,12.2673437 4.96046875,12.225625 4.88125,12.1839062 C4.82125,12.255625 4.76078125,12.326875 4.6975,12.3957812 C4.6234375,12.1989062 4.5071875,12.0226562 4.38953125,11.8496875 C4.34875,11.8970312 4.3075,11.9439062 4.2653125,11.9903125 C4.2465625,11.71375 4.3084375,11.4184375 4.16546875,11.164375 C4.106875,11.2960937 4.05109375,11.4292187 4,11.56375 C4.0346875,11.36875 4.09,11.175625 4.08109375,10.9754687 C4.06703125,10.8939062 4.14109375,10.8465625 4.193125,10.8001562 C4.26859375,10.8803125 4.345,10.96 4.4228125,11.0382812 C4.38625,10.8990625 4.343125,10.7626562 4.3009375,10.6257812 C4.28359375,10.5325 4.34453125,10.4448437 4.36703125,10.35625 C4.2671875,10.331875 4.1659375,10.3060937 4.08109375,10.2460938 C4.283125,10.2582812 4.45984375,10.350625 4.60328125,10.4903125 C4.66,10.3042187 4.73828125,10.1242187 4.85921875,9.97046875 C4.94921875,10.1021875 5.04859375,10.2278125 5.15265625,10.34875 C5.13203125,10.1317187 5.1034375,9.91515625 5.11,9.69671875 C5.08796875,9.70046875 5.04390625,9.70796875 5.021875,9.71171875 C5.179375,9.428125 5.48734375,9.266875 5.62421875,8.966875 C5.76484375,8.9509375 5.905,8.933125 6.0446875,8.91390625 C6.10328125,8.76015625 6.135625,8.58859375 6.24296875,8.4596875 C6.383125,8.3528125 6.5640625,8.318125 6.709375,8.2196875 C6.79234375,8.11234375 6.83359375,7.97921875 6.91796875,7.8728125 C7.0853125,7.868125 7.24984375,7.9103125 7.41390625,7.93796875 C7.50203125,7.72984375 7.60703125,7.52828125 7.73546875,7.3421875 C7.81140625,7.39421875 7.88640625,7.44671875 7.9609375,7.500625 L7.9609375,7.500625 Z" id="Shape" fill="#5D5D5D" sketch:type="MSShapeGroup"></path>
            <path d="M14.5967188,7.1865625 C14.6810938,7.1003125 14.7875,7.04125 14.9,7 C14.8423438,7.10171875 14.7734375,7.19734375 14.688125,7.27796875 C14.4710938,7.485625 14.2592188,7.7040625 14,7.860625 C14.1673438,7.60984375 14.380625,7.39515625 14.5967188,7.1865625 L14.5967188,7.1865625 Z" id="Shape" fill="#B3B3B3" sketch:type="MSShapeGroup"></path>
            <path d="M14.5503125,7.81375 C14.864375,7.5503125 15.123125,7.223125 15.4714062,7 C15.2332813,7.32203125 14.9801563,7.6328125 14.7054688,7.924375 C14.4823438,8.1625 14.2971875,8.43484375 14.0590625,8.659375 C14.0375,8.60828125 14.01125,8.55859375 14,8.50375 C14.099375,8.35046875 14.2451563,8.23421875 14.3665625,8.09828125 C14.2971875,8.123125 14.2273438,8.1475 14.159375,8.175625 C14.2873437,8.0528125 14.414375,7.92859375 14.5503125,7.81375 L14.5503125,7.81375 Z" id="Shape" fill="#B3B3B3" sketch:type="MSShapeGroup"></path>
            <path d="M19.5475,8 C19.6510938,8.03796875 19.7523438,8.08625 19.8615625,8.10734375 C20.014375,8.11765625 20.1653125,8.0796875 20.3176562,8.07125 C20.2820313,8.1453125 20.2473437,8.22546875 20.1742188,8.27 C19.9351563,8.43921875 19.6834375,8.58921875 19.4453125,8.7584375 C19.36375,8.80953125 19.3215625,8.89765625 19.2798438,8.980625 C19.1860938,9.036875 19.0928125,9.0940625 19,9.1521875 C19.0867188,9.044375 19.1804688,8.9421875 19.275625,8.841875 C19.2728125,8.71390625 19.2526563,8.5878125 19.2235938,8.463125 C19.335625,8.39328125 19.4570312,8.3271875 19.5371875,8.2184375 C19.555,8.1471875 19.5498438,8.07265625 19.5475,8 L19.5475,8 Z" id="Shape" fill="#B3B3B3" sketch:type="MSShapeGroup"></path>
            <path d="M15.6998437,8.18515625 C15.7846875,8.06796875 15.9239062,8.02578125 16.059375,8 C16.0589062,8.03140625 16.0584375,8.09421875 16.0579688,8.125625 C15.7120312,8.405 15.403125,8.73875 15,8.93984375 C15.2170312,8.673125 15.4846875,8.45375 15.6998437,8.18515625 L15.6998437,8.18515625 Z" id="Shape" fill="#B3B3B3" sketch:type="MSShapeGroup"></path>
            <path d="M16.494375,8.1153125 C16.6092187,8.0178125 16.764375,8.0103125 16.9073437,8 C16.790625,8.196875 16.5951562,8.32109375 16.4235937,8.4640625 C15.954375,8.83859375 15.5348437,9.28859375 15,9.5721875 C15.1528125,9.3246875 15.388125,9.1484375 15.594375,8.94921875 C15.8985937,8.6759375 16.1695312,8.365625 16.494375,8.1153125 L16.494375,8.1153125 Z" id="Shape" fill="#B3B3B3" sketch:type="MSShapeGroup"></path>
            <path d="M7.31171875,8.6309375 C7.43078125,8.395625 7.57140625,8.16359375 7.78328125,8 C7.73875,8.30421875 7.478125,8.50671875 7.37828125,8.78890625 C7.2765625,9.06453125 7.1603125,9.335 7,9.5825 C7.1078125,9.2665625 7.315,8.9759375 7.31171875,8.6309375 L7.31171875,8.6309375 Z" id="Shape" fill="#B3B3B3" sketch:type="MSShapeGroup"></path>
            <path d="M14.5146875,8.6375 C14.7757813,8.43171875 14.9946875,8.174375 15.2801563,8 C14.8957813,8.4021875 14.5367187,8.82921875 14.1148437,9.19390625 C14.0740625,9.15265625 14.035625,9.10953125 14,9.06453125 C14.1710937,8.9215625 14.3407812,8.7771875 14.5146875,8.6375 L14.5146875,8.6375 Z" id="Shape" fill="#B3B3B3" sketch:type="MSShapeGroup"></path>
            <path d="M15.736875,8.860625 C16.0846875,8.56765625 16.4085938,8.23953125 16.7976563,8 C16.5735938,8.27609375 16.2848438,8.48703125 16.0307813,8.73265625 C15.825,8.93234375 15.616875,9.1315625 15.433125,9.351875 C15.3778125,9.41375 15.324375,9.4803125 15.25125,9.5215625 C15.1645312,9.51359375 15.0825,9.4821875 15,9.45640625 C15.2315625,9.2403125 15.5025,9.0734375 15.736875,8.860625 L15.736875,8.860625 Z" id="Shape" fill="#B3B3B3" sketch:type="MSShapeGroup"></path>
            <path d="M18.3884375,8.8667493 C18.9884375,8.5742493 19.5907812,8.2836243 20.2057813,8.02346805 C20.3834375,7.93815555 20.609375,8.09846805 20.586875,8.29440555 C20.5709375,8.4692493 20.4040625,8.5686243 20.2676562,8.64878055 C19.9278125,8.83253055 19.595,9.02940555 19.2579687,9.21878055 C19.3076563,9.2576868 19.3573438,9.29659305 19.4075,9.33596805 C19.173125,9.27409305 18.9307812,9.3083118 18.7034375,9.38003055 C18.3082813,9.5023743 17.8934375,9.56659305 17.5160937,9.7414368 C17.34875,9.81784305 17.1757812,9.8811243 17,9.93315555 C17.1748438,9.7470618 17.365625,9.5764368 17.5685937,9.42128055 C17.8484375,9.2061243 18.1025,8.95909305 18.389375,8.7533118 C18.3889062,8.7814368 18.3884375,8.8386243 18.3884375,8.8667493 L18.3884375,8.8667493 Z" id="Shape" fill="#B3B3B3" sketch:type="MSShapeGroup"></path>
            <path d="M17.2023437,9.16031584 C17.2698437,9.10453459 17.3335937,9.03515959 17.4198437,9.00937834 C17.5548437,8.98922209 17.69125,9.00656584 17.8267187,9.01500334 C17.7976562,9.12000334 17.7676562,9.23578459 17.6696875,9.29859709 C17.4067187,9.49219084 17.1292187,9.66469084 16.8578125,9.84562834 C16.5775,10.0242221 16.3107812,10.2300033 16,10.3537533 C16.0796875,10.2314096 16.170625,10.1165658 16.275625,10.0153158 C16.5775,9.72234709 16.894375,9.44625334 17.2023437,9.16031584 L17.2023437,9.16031584 Z" id="Shape" fill="#B3B3B3" sketch:type="MSShapeGroup"></path>
            <path d="M16.7373438,9.28597111 C16.8559375,9.18565861 16.9628125,9.06284611 17.1090625,9.00190861 C17.23,8.99206486 17.3490625,9.02253361 17.468125,9.04222111 C16.99,9.36331486 16.525,9.71393986 16,9.95675236 C16.2015625,9.68722111 16.4973438,9.51612736 16.7373438,9.28597111 L16.7373438,9.28597111 Z" id="Shape" fill="#B3B3B3" sketch:type="MSShapeGroup"></path>
            <path id="Shape" fill="#B3B3B3" sketch:type="MSShapeGroup" d="M6,9.01078125 C6.03890625,9.00796875 6.11625,9.0028125 6.15515625,9 C6.14296875,9.13453125 6.1190625,9.2690625 6.050625,9.3871875 C6.0253125,9.26296875 6.01125,9.136875 6,9.01078125 L6,9.01078125 Z"></path>
            <path id="Shape" fill="#FEFEFE" sketch:type="MSShapeGroup" d="M7.00241411,10.0935938 C7.02538286,9.72421875 7.05913286,9.34734375 7.19600786,9 C7.19975786,9.38296875 7.28319536,9.7584375 7.30288286,10.14 C7.22882036,10.1845313 7.15475786,10.2304688 7.08772661,10.2853125 C7.04553911,10.2276563 6.98741411,10.1714063 7.00241411,10.0935938 L7.00241411,10.0935938 Z"></path>
            <path d="M14,9.43359375 C14.2357813,9.31546875 14.4532813,9.1659375 14.658125,9 C14.4748438,9.1509375 14.3089063,9.3225 14.1851563,9.52640625 C14.1232813,9.49546875 14.0614063,9.46453125 14,9.43359375 L14,9.43359375 Z" id="Shape" fill="#FEFEFE" sketch:type="MSShapeGroup"></path>
            <path d="M8.15076532,9.31471508 C8.42076532,9.18487133 8.71373407,9.11690258 9.00201532,9.04049633 C9.16889032,9.00252758 9.34748407,8.99455883 9.51435907,9.03815258 C9.79185907,9.12065258 10.0787341,9.03112133 10.3581091,9.00721508 C10.8620153,8.98002758 11.3640466,9.03534008 11.8646716,9.07893383 C12.2054528,9.13565258 12.5570153,9.08737133 12.8917028,9.19049633 C13.2559216,9.29502758 13.6365466,9.32268383 14.0012341,9.42440258 C14.2487341,9.49096508 14.4648278,9.63674633 14.7090466,9.71174633 C14.9420153,9.78674633 15.1782653,9.85284008 15.4093591,9.93393383 C15.6132653,10.0009651 15.7520153,10.1781526 15.9451403,10.2662776 C15.9756091,10.2822151 16.0356091,10.3140901 16.0660778,10.3300276 C16.2479528,10.4397151 16.4452966,10.5264338 16.6098278,10.6633088 C16.6843591,10.7289338 16.7795153,10.7603401 16.8732653,10.7889338 C16.9206091,10.8039338 16.9674841,10.8198713 17.0143591,10.8367463 C17.1315466,10.8995588 17.2412341,10.9759651 17.3499841,11.0523713 C17.4104528,11.1137776 17.4699841,11.1765901 17.5271716,11.2412776 C17.5960778,11.3233088 17.6560778,11.4311213 17.7727966,11.4484651 C18.0915466,11.5183088 18.3892028,11.6537776 18.6915466,11.7728401 C19.0177966,11.9481526 19.4017028,11.9425276 19.7415466,12.0808088 C19.8502966,12.1867463 20.0092028,12.3165901 19.9496716,12.4886213 C19.9234216,12.6076838 19.7931091,12.6465901 19.6867028,12.6508088 C19.3974841,12.6676838 19.1035778,12.6283088 18.8331091,12.5233088 C18.8152966,12.5167463 18.7787341,12.5031526 18.7609216,12.4965901 C18.5748278,12.4201838 18.3756091,12.3850276 18.1867028,12.3170588 C18.0657653,12.2739338 18.0207653,12.1394026 17.9509216,12.0428401 C17.7938903,12.0100276 17.6401403,11.9603401 17.4985778,11.8834651 C17.3204528,11.7704963 17.1071716,11.9608088 16.9285778,11.8487776 C16.7331091,11.7404963 16.5559216,11.6036213 16.3642028,11.4897151 C16.2592028,11.7137776 16.1120153,11.9172151 16.0365466,12.1548713 C15.9202966,12.4328401 15.6999841,12.6517463 15.5312341,12.8987776 C15.3615466,13.0581526 15.2077966,13.2334651 15.0334216,13.3876838 C14.7048278,13.6698713 14.4160778,13.9994026 14.0551403,14.2426838 C13.9492028,14.3176838 13.8160778,14.3204963 13.6918591,14.3345588 C13.6313903,14.4592463 13.5540466,14.5750276 13.4556091,14.6729963 C13.2868591,14.7869026 13.0899841,14.8520588 12.9287341,14.9781526 C12.7590466,15.1075276 12.5495153,15.1637776 12.3671716,15.2692463 C12.2757653,15.3194026 12.2120153,15.4056526 12.1234216,15.4595588 C12.0188903,15.4895588 11.9120153,15.5106526 11.8098278,15.5476838 C11.6467028,15.5983088 11.4798278,15.6334651 11.3124841,15.6653401 C11.2262341,15.5786213 11.1676403,15.4042463 11.0190466,15.4286213 C10.8132653,15.4731526 10.6829528,15.6667463 10.4879528,15.7337776 C10.2615466,15.7525276 10.0384216,15.6873713 9.81670282,15.6522151 C9.81435907,15.5739338 9.81201532,15.4956526 9.81014032,15.4173713 C9.65779657,15.5294026 9.48717157,15.6170588 9.29498407,15.6259651 C9.29826532,15.4872151 9.30389032,15.3494026 9.30810907,15.2111213 C9.14779657,15.2040901 8.98842157,15.1890901 8.82857782,15.1815901 C8.69592157,15.1717463 8.58576532,15.2575276 8.47467157,15.3165901 C8.44373407,15.2945588 8.41279657,15.2725276 8.38185907,15.2504963 C8.46998407,15.0962776 8.54076532,14.9322151 8.58295282,14.7597151 C8.42873407,14.7794026 8.27779657,14.8262776 8.12170282,14.8272151 C7.68154657,14.7826838 7.29717157,14.5154963 7.02482782,14.1775276 C6.94654657,14.1920588 6.86826532,14.2070588 6.78998407,14.2215901 C6.78201532,14.1053401 6.77310907,13.9886213 6.76373407,13.8723713 C6.69389032,13.9178401 6.62451532,13.9633088 6.55467157,14.0087776 C6.53217157,13.9984651 6.48623407,13.9773713 6.46326532,13.9670588 C6.55232782,13.8667463 6.64185907,13.7673713 6.73139032,13.6684651 C6.62498407,13.5658088 6.52139032,13.4429963 6.36857782,13.4134651 C6.17451532,13.3726838 5.98654657,13.3051838 5.82810907,13.1833088 C5.73060907,13.3295588 5.64857782,13.5062776 5.47935907,13.5822151 C5.24920282,13.6881526 5.00264032,13.7542463 4.76826532,13.8494026 C4.64404657,13.6853401 4.54326532,13.5048713 4.47154657,13.3117463 C4.41998407,13.4251838 4.36842157,13.5390901 4.31639032,13.6525276 C4.21373407,13.5920588 4.10357782,13.5404963 4.01451532,13.4603401 C3.98451532,13.3497151 4.00795282,13.2334651 4.02295282,13.1228401 C4.12092157,12.9423713 4.25873407,12.7909651 4.40170282,12.6465901 C4.46498407,12.5776838 4.52545282,12.5064338 4.58545282,12.4347151 C4.66467157,12.4764338 4.74435907,12.5181526 4.82451532,12.5584651 C4.84467157,12.4309651 4.86998407,12.3039338 4.92107782,12.1848713 C5.00639032,11.9894026 4.99420282,11.7723713 5.00873407,11.5647151 C5.06685907,11.6729963 5.12404657,11.7822151 5.18123407,11.8909651 C5.23326532,11.8764338 5.28482782,11.8614338 5.33685907,11.8464338 C5.29279657,11.6153401 5.20092157,11.3931526 5.18732782,11.1569026 C5.21451532,11.0959651 5.25857782,11.0453401 5.29701532,10.9919026 C5.35795282,11.1278401 5.41795282,11.2642463 5.48732782,11.3959651 C5.62045282,11.2159651 5.57451532,10.9937776 5.55014032,10.7889338 C5.60029657,10.7612776 5.65092157,10.7336213 5.70107782,10.7064338 C5.74748407,10.7692463 5.79342157,10.8320588 5.83982782,10.8953401 C5.85904657,10.8967463 5.89748407,10.8995588 5.91670282,10.9004963 C5.93217157,10.7758088 5.92514032,10.6426838 5.97857782,10.5264338 C6.15435907,10.4054963 6.35920282,10.3262776 6.50779657,10.1669026 C6.57482782,10.1120588 6.64889032,10.0661213 6.72295282,10.0215901 C6.78060907,10.0309651 6.83826532,10.0403401 6.89592157,10.0492463 C6.97842157,9.89221508 7.09139032,9.74737133 7.26342157,9.68409008 C7.58404657,9.62737133 7.85310907,9.43330883 8.15076532,9.31471508 L8.15076532,9.31471508 Z" id="Shape" fill="#050505" sketch:type="MSShapeGroup"></path>
            <path id="Shape" fill="#FEFEFE" sketch:type="MSShapeGroup" d="M14,9.25359375 C14.09,9.16734375 14.1823437,9.0834375 14.2746875,9 C14.3103125,9.045 14.34875,9.088125 14.3895313,9.129375 C14.3628125,9.2015625 14.3370312,9.27421875 14.315,9.3478125 C14.2095313,9.3178125 14.1045313,9.2859375 14,9.25359375 L14,9.25359375 Z"></path>
            <path id="Shape" fill="#FEFEFE" sketch:type="MSShapeGroup" d="M6.0738219,9 C6.20366565,9.38765625 6.2500719,9.7996875 6.2519469,10.2075 C6.17272815,10.2548438 6.09022815,10.2965625 6.00866565,10.3392188 C5.99085315,9.89203125 5.9950719,9.44203125 6.0738219,9 L6.0738219,9 Z"></path>
            <path d="M16.5475,9.74296875 C16.9571875,9.5221875 17.3139063,9.2165625 17.7264063,9 C17.3823438,9.3309375 16.9848438,9.59859375 16.6257813,9.91265625 C16.4785938,10.0364063 16.3290625,10.1948438 16.1209375,10.1915625 C16.0904688,10.175625 16.0304688,10.14375 16,10.1278125 C16.1232813,9.92859375 16.3548438,9.85453125 16.5475,9.74296875 L16.5475,9.74296875 Z" id="Shape" fill="#B3B3B3" sketch:type="MSShapeGroup"></path>
            <path d="M19.8642187,9.15948088 C20.053125,9.09666838 20.2420313,8.95651213 20.44875,9.01323088 C20.653125,9.07698088 20.6845312,9.38354338 20.5059375,9.49463713 C20.1825,9.69338713 19.7896875,9.73979338 19.464375,9.93573088 C19.86375,9.90432463 20.248125,9.76791838 20.6517188,9.76041838 C20.660625,9.96573088 20.6807812,10.1738559 20.6489062,10.3782309 C20.4759375,10.5136996 20.2415625,10.5240121 20.0376562,10.5886996 C19.6645312,10.6716684 19.3157813,10.8319809 18.9520313,10.9458871 C19.111875,10.7630746 19.2360938,10.4049496 18.9914063,10.2432309 C18.6675,10.1297934 18.3248437,10.2619809 18,10.3069809 C18.3403125,10.0697934 18.7317188,9.90291838 19.0209375,9.59682463 C19.0026563,9.54807463 18.984375,9.49979338 18.9665625,9.45104338 C19.2825,9.41541838 19.5675,9.26260588 19.8642187,9.15948088 L19.8642187,9.15948088 Z" id="Shape" fill="#B3B3B3" sketch:type="MSShapeGroup"></path>
            <path id="Shape" fill="#B3B3B3" sketch:type="MSShapeGroup" d="M6,9.0290625 C6.0684375,9.01921875 6.136875,9.009375 6.2053125,9 C6.200625,9.13453125 6.18703125,9.27 6.1359375,9.39609375 C6.06234375,9.28546875 6.01453125,9.16078125 6,9.0290625 L6,9.0290625 Z"></path>
            <path d="M16,10.5559375 C16.316875,10.395625 16.6014062,10.1823437 16.9051562,10 C16.6698437,10.2175 16.425625,10.4246875 16.1940625,10.6464063 C16.129375,10.6159375 16.0646875,10.5859375 16,10.5559375 L16,10.5559375 Z" id="Shape" fill="#B3B3B3" sketch:type="MSShapeGroup"></path>
            <path id="Shape" fill="#FEFEFE" sketch:type="MSShapeGroup" d="M6.01994554,10 C6.12447679,10.196875 6.17135179,10.41625 6.22291429,10.6314062 C6.25994554,10.7903125 6.31666429,10.9496875 6.30119554,11.115625 C6.25572679,11.1573437 6.20838304,11.1976563 6.15963304,11.2360938 C6.08369554,10.82875 5.94916429,10.4190625 6.01994554,10 L6.01994554,10 Z"></path>
            <path id="Shape" fill="#B3B3B3" sketch:type="MSShapeGroup" d="M5,10.0670312 C5.04265625,10.0445312 5.0853125,10.0225 5.12796875,10 L5.10828125,10.1884375 C5.07171875,10.1476563 5.035625,10.1073438 5,10.0670312 L5,10.0670312 Z"></path>
            <path d="M18.515625,10.1279688 C18.7148438,10.0459375 18.9276563,10.0042187 19.1428125,10 C19.0921875,10.0440625 19.0415625,10.0885938 18.9895312,10.1307813 C18.6407812,10.2207812 18.3379688,10.421875 18,10.5395313 C18.1439063,10.3707813 18.3239063,10.238125 18.515625,10.1279688 L18.515625,10.1279688 Z" id="Shape" fill="#FEFEFE" sketch:type="MSShapeGroup"></path>
            <path id="Shape" fill="#5D5D5D" sketch:type="MSShapeGroup" d="M11.0534375,10 C11.3248438,10.0248438 11.620625,10.0070313 11.856875,10.166875 C11.5685938,10.1907813 11.286875,10.1153125 11,10.1054688 C11.013125,10.07875 11.0398438,10.02625 11.0534375,10 L11.0534375,10 Z"></path>
            <path d="M17,10.6628125 C17.5925,10.4101562 18.186875,10.1542188 18.8145313,10 C18.6228125,10.1101562 18.4428125,10.2428125 18.2989063,10.4115625 C18.636875,10.2939062 18.9396875,10.0928125 19.2884375,10.0028125 C19.0025,10.2798437 18.6232813,10.414375 18.273125,10.5873438 C17.9970313,10.71625 17.7148438,10.8367187 17.4607813,11.0078125 C17.4139063,10.9909375 17.3670313,10.975 17.3196875,10.96 C17.16875,10.9173438 17.073125,10.793125 17,10.6628125 L17,10.6628125 Z" id="Shape" fill="#B3B3B3" sketch:type="MSShapeGroup"></path>
            <path d="M9.00001185,10.15862 C9.24751185,10.06487 9.5067306,9.98987002 9.7739181,10.00112 C9.9736056,10.0133075 10.1737618,10.0020575 10.3734493,10.0137763 C10.5651681,10.0695575 10.7325118,10.201745 10.8454806,10.3658075 C10.9612618,10.5289325 10.9814181,10.7333075 11.0329806,10.9208075 C11.0400118,10.9695575 11.0704806,11.0258075 11.0381368,11.071745 C10.9607931,11.2062763 10.8548556,11.32112 10.7517306,11.4364325 C10.8271993,11.300495 10.9246993,11.1701825 10.9603243,11.0169013 C10.9617306,10.7220575 10.8726681,10.39862 10.6331368,10.2078388 C10.3936056,10.0165888 10.0617306,10.0475263 9.7757931,10.07237 C9.5357931,10.1487763 9.3079806,10.26737 9.0529806,10.2931513 C9.0679806,10.4572138 9.0745431,10.6222138 9.08907435,10.786745 C9.10313685,11.0065888 9.21844935,11.1997138 9.30844935,11.3951825 C9.16969935,11.2165888 9.0164181,11.0197138 9.0136056,10.782995 C9.01313685,10.57487 8.9995431,10.366745 9.00001185,10.15862 L9.00001185,10.15862 Z" id="Shape" fill="#B3B3B3" sketch:type="MSShapeGroup"></path>
            <path id="Shape" fill="#B3B3B3" sketch:type="MSShapeGroup" d="M5.16265625,10.015 C5.1846875,10.01125 5.22875,10.00375 5.25078125,10 C5.24421875,10.2184375 5.2728125,10.435 5.2934375,10.6520313 C5.189375,10.5310938 5.09,10.4054688 5,10.27375 C5.058125,10.1898438 5.11109375,10.1026563 5.16265625,10.015 L5.16265625,10.015 Z"></path>
            <path d="M9,10.2393323 C9.255,10.213551 9.4828125,10.0949573 9.7228125,10.018551 C10.00875,9.9937073 10.340625,9.9627698 10.5801562,10.1540198 C10.8196875,10.344801 10.90875,10.6682385 10.9073437,10.9630823 C10.8717187,11.1163635 10.7742187,11.246676 10.69875,11.3826135 C10.5754687,11.5738635 10.3542187,11.6727698 10.1460937,11.7412073 C9.80765625,11.7430823 9.48609375,11.5832385 9.25546875,11.3413635 C9.16546875,11.1458948 9.05015625,10.9527698 9.03609375,10.732926 C9.0215625,10.5683948 9.015,10.4033948 9,10.2393323 L9,10.2393323 Z" id="Shape" fill="#FEFEFE" sketch:type="MSShapeGroup"></path>
            <path d="M11.328125,10.7398847 C11.3675,10.4933222 11.2573437,10.2059785 11.4434375,10.0001972 C11.5390625,10.0039472 11.6398437,9.98894723 11.7321875,10.0226972 C11.9379687,10.2383222 11.9417187,10.5551972 11.8873437,10.8308222 C11.811875,11.0891035 11.7232812,11.3609785 11.5123437,11.5423847 C11.3839062,11.6464472 11.286875,11.7786347 11.1851562,11.9066035 C11.1232812,11.8691035 11.0614062,11.8316035 11,11.7941035 C11.0192187,11.6305097 10.986875,11.465041 11.013125,11.3028535 C11.1223437,11.1176972 11.253125,10.9428535 11.328125,10.7398847 L11.328125,10.7398847 Z" id="Shape" fill="#FEFEFE" sketch:type="MSShapeGroup"></path>
            <path id="Shape" fill="#B3B3B3" sketch:type="MSShapeGroup" d="M13,10 C13.1289062,10.0103125 13.2554687,10.0407812 13.3745313,10.091875 C13.2821875,10.1542188 13.181875,10.2034375 13.0735938,10.22875 C13.0482813,10.1523438 13.0229688,10.0764062 13,10 L13,10 Z"></path>
            <path id="Shape" fill="#FEFEFE" sketch:type="MSShapeGroup" d="M5.00151345,10 C5.0779197,10.1870313 5.1801072,10.3707813 5.2007322,10.5746875 C5.21338845,10.6445312 5.14588845,10.684375 5.10838845,10.7321875 C5.03432595,10.4954688 4.99120095,10.2489063 5.00151345,10 L5.00151345,10 Z"></path>
            <path d="M13.4465625,11 C13.831875,11.0698437 14.2410938,11.0365625 14.6029688,11.21 C14.9385938,11.3103125 15.27,11.4729687 15.5076563,11.7345312 C15.5807812,12.0420312 15.2967188,12.2276562 15.18375,12.4760937 C15.00375,12.8590625 14.7984375,13.2326562 14.5373438,13.566875 C14.3596875,13.7740625 14.0723437,13.8420312 13.8928125,14.0473437 C13.7578125,14.189375 13.7573438,14.4265625 13.5670312,14.52125 C13.1920313,14.7551562 12.8460938,15.0523437 12.42375,15.198125 C11.9404688,15.29375 11.4642188,15.4203125 10.9790625,15.5065625 C10.5553125,15.5285937 10.1221875,15.5478125 9.70734375,15.4432812 C9.2090625,15.35 8.765625,15.0907812 8.28984375,14.9304687 C8.05125,14.826875 7.86703125,14.6309375 7.62796875,14.5264062 C7.47984375,14.4659375 7.38796875,14.3248437 7.2459375,14.255 C7.10578125,14.1823437 6.95671875,14.1125 6.85734375,13.985 C6.5296875,13.5795312 6.1959375,13.1646875 6,12.6767187 C6.14015625,12.5642187 6.2634375,12.4334375 6.39,12.3064062 C6.493125,12.1934375 6.66046875,12.1835937 6.7715625,12.0809375 C6.935625,11.9304687 7.16390625,11.8948437 7.3725,11.8465625 C7.475625,12.2525 7.6303125,12.6429687 7.7653125,13.0390625 C7.861875,13.3564062 8.128125,13.5729687 8.35359375,13.7998437 C8.65265625,14.0342187 8.96296875,14.27 9.331875,14.3825 C9.60140625,14.5217187 9.90984375,14.5151562 10.1990625,14.5807812 C10.6425,14.5971875 11.1014063,14.5348437 11.4989063,14.3267187 C11.8228125,14.13125 12.196875,13.96625 12.3965625,13.626875 C12.6178125,13.2467187 13.0096875,12.9692187 13.12125,12.528125 C13.190625,12.2496875 13.44375,12.0584375 13.47375,11.7673437 C13.4873438,11.51 13.6176562,11.234375 13.4465625,11 L13.4465625,11 Z" id="Shape" fill="#FEFEFE" sketch:type="MSShapeGroup"></path>
            <path d="M6.80296875,11.37125 C7.0471875,11.2090625 7.3265625,11.1148438 7.59421875,11 C7.33828125,11.140625 7.09875,11.3079688 6.84234375,11.4485938 C6.67828125,11.5690625 6.52078125,11.7021875 6.32859375,11.778125 C6.17484375,11.830625 6.10546875,11.9857813 6,12.0964063 C6.080625,11.9782813 6.1715625,11.868125 6.260625,11.7560937 C6.40265625,11.5803125 6.61828125,11.4926563 6.80296875,11.37125 L6.80296875,11.37125 Z" id="Shape" fill="#FEFEFE" sketch:type="MSShapeGroup"></path>
            <path d="M18.8217188,11.1180921 C19.1442188,11.0487171 19.47375,10.9666859 19.805625,11.0140296 C19.7503125,11.3759046 19.4728125,11.6590296 19.1639063,11.8291859 C18.8592188,11.9988734 18.5320313,11.7865296 18.2517188,11.6665296 C18.1945313,11.6018421 18.135,11.5390296 18.0745313,11.4776234 C18.0557813,11.4546546 18.01875,11.4082484 18,11.3852796 C18.26625,11.2746546 18.5395313,11.1799671 18.8217188,11.1180921 L18.8217188,11.1180921 Z" id="Shape" fill="#B3B3B3" sketch:type="MSShapeGroup"></path>
            <path id="Shape" fill="#FEFEFE" sketch:type="MSShapeGroup" d="M5,11 C5.1228125,11.1940625 5.21234375,11.4059375 5.301875,11.616875 C5.384375,11.77625 5.3196875,11.9567188 5.3215625,12.1259375 C5.25453125,11.7392188 5.05671875,11.3895313 5,11 L5,11 Z"></path>
            <path id="Shape" fill="#B3B3B3" sketch:type="MSShapeGroup" d="M5.04980114,11.000782 C5.13276989,10.9881257 5.16136364,11.1329695 5.08120739,11.1550007 C4.99589489,11.1690632 4.96589489,11.021407 5.04980114,11.000782 L5.04980114,11.000782 Z"></path>
            <path id="Shape" fill="#5D5D5D" sketch:type="MSShapeGroup" d="M8,11.1148437 C8.04171875,11.0707812 8.07171875,11.0046875 8.1396875,11 C8.17109375,11.058125 8.19640625,11.1190625 8.2221875,11.18 C8.14765625,11.159375 8.07359375,11.1378125 8,11.1148437 L8,11.1148437 Z"></path>
            <path id="Shape" fill="#050505" sketch:type="MSShapeGroup" d="M4.1078125,11 C4.15,11.136875 4.193125,11.2732813 4.2296875,11.4125 C4.151875,11.3342188 4.07546875,11.2545313 4,11.174375 C4.035625,11.1157813 4.07171875,11.0576563 4.1078125,11 L4.1078125,11 Z"></path>
            <path d="M20.2239062,11.0995622 C20.5876563,11.0592497 20.9495312,10.9828434 21.3170312,11.0034684 C21.3146875,11.1628434 21.3498437,11.3325309 21.2898438,11.4853434 C20.6715625,11.6137809 20.0289062,11.6165934 19.4171875,11.7844059 C19.6890625,11.8692497 20.0078125,11.8570622 20.2332813,12.0525309 C19.8934375,11.9142497 19.5095313,11.9198747 19.1832813,11.7445622 C19.1204688,11.6958122 19.0604688,11.6437809 19,11.5926872 C19.1748438,11.4525309 19.3567187,11.3198747 19.5226562,11.1689372 C19.759375,11.2008122 19.9904687,11.1234684 20.2239062,11.0995622 L20.2239062,11.0995622 Z" id="Shape" fill="#B3B3B3" sketch:type="MSShapeGroup"></path>
            <path d="M8,11 C8.05109375,11.076875 8.106875,11.15 8.16265625,11.2235938 C8.2803125,11.3759375 8.31734375,11.5695313 8.38578125,11.7457813 C8.440625,11.8995312 8.5503125,12.02375 8.62578125,12.1667187 C8.50484375,12.025625 8.41625,11.8601563 8.2925,11.7209375 C8.1115625,11.5207813 8.09984375,11.2390625 8,11 L8,11 Z" id="Shape" fill="#B3B3B3" sketch:type="MSShapeGroup"></path>
            <path id="Shape" fill="#050505" sketch:type="MSShapeGroup" d="M4.38602593,12 C4.52899468,12.2540625 4.46711968,12.549375 4.48586968,12.8259375 C4.45586968,13.0935938 4.31852593,13.3401563 4.29180718,13.6096875 C4.26930718,13.9860938 4.29133843,14.3629688 4.28336968,14.7398438 C4.29040093,14.8354688 4.24868218,14.9226563 4.20930718,15.0070313 C3.96508843,14.76 4.10758843,14.3746875 4.04711968,14.0676563 C3.98290093,13.82625 3.99555718,13.5735938 4.01946343,13.3275 C4.06868218,13.0148438 4.10758843,12.6970313 4.22055718,12.399375 C4.27165093,12.2648438 4.32743218,12.1317188 4.38602593,12 L4.38602593,12 Z"></path>
            <path d="M16.3740625,12 C16.5657813,12.1139062 16.7429688,12.2507812 16.9384375,12.3590625 C17.1170313,12.4710937 17.3303125,12.2807812 17.5084375,12.39375 C17.65,12.470625 17.80375,12.5203125 17.9607813,12.553125 C18.030625,12.6496875 18.075625,12.7842187 18.1965625,12.8273437 C18.3854688,12.8953125 18.5846875,12.9304687 18.7707813,13.006875 C18.7075,13.003125 18.6442188,12.9998437 18.5814063,12.9965625 C18.5870313,13.0678125 18.5926563,13.1395312 18.5978125,13.21125 C18.43375,13.1620312 18.2729688,13.1001562 18.10375,13.0720313 C17.7226563,12.9970312 17.3715625,12.825 17.0209375,12.6660937 C17.2548438,12.98625 17.6171875,13.1592187 17.9448438,13.3640625 C18.0573438,13.4442187 18.235,13.5365625 18.1801563,13.704375 C18.1590625,13.8135937 18.131875,13.921875 18.105625,14.0301562 C17.951875,14.0104687 17.7985938,13.9870312 17.6457813,13.9607812 C17.6448438,13.9973437 17.6425,14.0709375 17.6415625,14.1075 C17.4460938,14.1328125 17.2478125,14.1126562 17.0598438,14.0545313 C16.9885938,13.9954687 16.9225,13.9307812 16.8573438,13.8660937 C16.9426563,13.85625 17.0279687,13.8482812 17.11375,13.8403125 C17.0546875,13.8046875 16.9960938,13.7685937 16.9379688,13.7310937 C16.6295312,13.5192187 16.3365625,13.2839062 16.0046875,13.1076562 C16.0032813,13.0771875 16.0009375,13.01625 16,12.9857812 C16.1195313,12.9857812 16.2390625,12.9876562 16.3590625,12.98625 C16.2634375,12.8709375 16.1603125,12.7621875 16.0464063,12.6651562 C16.121875,12.4275 16.2690625,12.2240625 16.3740625,12 L16.3740625,12 Z" id="Shape" fill="#5D5D5D" sketch:type="MSShapeGroup"></path>
            <path id="Shape" fill="#B3B3B3" sketch:type="MSShapeGroup" d="M4,12 C4.1246875,12.140625 4.249375,12.2854688 4.3309375,12.4570312 C4.37265625,12.5189063 4.33984375,12.5901563 4.32953125,12.6567187 C4.18140625,12.4589063 4.0853125,12.2296875 4,12 L4,12 Z"></path>
            <path id="Shape" fill="#FEFEFE" sketch:type="MSShapeGroup" d="M17.0229687,12 C17.1495312,12.0426562 17.2198437,12.1579687 17.2873437,12.2653125 C17.1917187,12.2226562 17.0960937,12.18 17,12.1396875 C17.005625,12.1045312 17.0173437,12.0346875 17.0229687,12 L17.0229687,12 Z"></path>
            <path id="Shape" fill="#B3B3B3" sketch:type="MSShapeGroup" d="M18,12 C18.2564063,12.0065625 18.495,12.1298438 18.6792188,12.30375 C18.4364063,12.2526563 18.16875,12.1978125 18,12 L18,12 Z"></path>
            <path id="Shape" fill="#5D5D5D" sketch:type="MSShapeGroup" d="M9,12 C9.0459375,12.0192187 9.091875,12.0379688 9.1378125,12.0571875 C9.10640625,12.1017187 9.075,12.14625 9.045,12.1921875 C9.02953125,12.1279687 9.01453125,12.06375 9,12 L9,12 Z"></path>
            <path d="M20.2673438,12 C20.3535937,12.045 20.4571875,12.0829688 20.5035938,12.17625 C20.5626562,12.3178125 20.5420313,12.5292188 20.379375,12.5901563 C20.1703125,12.63375 19.9546875,12.6032813 19.74375,12.598125 C19.8745313,12.8090625 19.99875,13.0307813 20.049375,13.2764063 C20.1614062,13.7971875 20.1529687,14.3353125 20.1229688,14.8640625 C20.0620313,15.6346875 19.6546875,16.3303125 19.14375,16.891875 C18.65625,17.4351563 18.13125,17.949375 17.5373437,18.3764063 C17.1407812,18.645 16.7460938,18.9370313 16.2815625,19.0771875 C15.8653125,19.2164063 15.4467188,19.3982813 15,19.3907812 C15.7040625,19.2703125 16.4090625,19.0575 17.00625,18.6548438 C17.7904688,18.1617188 18.4485938,17.4975 19.063125,16.81125 C19.4723438,16.3579688 19.815,15.8226563 19.9467188,15.2198437 C20.0339063,14.8589063 20.0053125,14.4848438 20.01,14.116875 C20.0151563,13.7034375 19.9739062,13.275 19.7845313,12.9009375 C19.6898438,12.710625 19.5314062,12.5625 19.3589063,12.4425 C19.629375,12.5475 19.9232813,12.586875 20.2125,12.57 C20.3189063,12.5657813 20.4492188,12.526875 20.4754688,12.4078125 C20.535,12.2357813 20.3760937,12.1059375 20.2673438,12 L20.2673438,12 Z" id="Shape" fill="#5D5D5D" sketch:type="MSShapeGroup"></path>
            <path id="Shape" fill="#5D5D5D" sketch:type="MSShapeGroup" d="M11.1889063,12.0616109 C11.2273437,12.0194234 11.298125,11.9669234 11.3473438,12.0273921 C11.3998438,12.1562984 11.42,12.3541109 11.2854687,12.4412984 C11.0998437,12.4722359 11.031875,12.2519234 11,12.1098921 C11.0346875,12.0967671 11.105,12.0700484 11.1396875,12.0564546 C11.1153125,12.1150484 11.0914062,12.1741109 11.0670312,12.2331734 C11.1321875,12.3002046 11.1982812,12.3662984 11.2657812,12.4309859 C11.3009375,12.3161421 11.3225,12.1975484 11.3173438,12.0775484 C11.285,12.0733296 11.2207812,12.0658296 11.1889063,12.0616109 L11.1889063,12.0616109 Z"></path>
            <path d="M16.5967187,12 C16.710625,12.0970313 16.81375,12.2057813 16.909375,12.3210938 C16.789375,12.3225 16.6698437,12.320625 16.5503125,12.320625 C16.55125,12.3510938 16.5535938,12.4120313 16.555,12.4425 C16.886875,12.61875 17.1798437,12.8540625 17.4882812,13.0659375 C17.4160937,13.0785938 17.3439062,13.0907813 17.2717187,13.1034375 C17.1798437,13.0495313 17.0879687,12.995625 16.995625,12.9435938 C16.94875,12.916875 16.9023438,12.8901563 16.856875,12.8620313 C16.6660937,12.7429688 16.4935937,12.5732813 16.25875,12.5503125 C16.350625,12.7996875 16.5798438,12.9510938 16.7664062,13.1240625 C16.8414062,13.186875 16.9196875,13.245 16.9946875,13.3082813 C17.1325,13.4329688 17.2609375,13.5679688 17.400625,13.69125 C17.2876562,13.66875 17.1732812,13.6523438 17.0621875,13.6209375 C16.9323437,13.5407813 16.8071875,13.453125 16.6754688,13.3771875 C16.5315625,13.2951563 16.3834375,13.2192188 16.2521875,13.1175 C16.1664063,13.0514063 16.0834375,12.980625 16,12.9117188 C16.0295312,12.8554688 16.0590625,12.79875 16.0914062,12.7439063 C16.2601563,12.496875 16.4804688,12.2779688 16.5967187,12 L16.5967187,12 Z" id="Shape" fill="#FEFEFE" sketch:type="MSShapeGroup"></path>
            <path id="Shape" fill="#B3B3B3" sketch:type="MSShapeGroup" d="M10,12.3445313 C10.0285938,12.195 10.1326563,12.084375 10.2535938,12 C10.2296875,12.1120312 10.204375,12.2240625 10.1832813,12.3365625 C10.121875,12.3398438 10.0609375,12.3421875 10,12.3445313 L10,12.3445313 Z"></path>
            <path id="Shape" fill="#5D5D5D" sketch:type="MSShapeGroup" d="M11,12.005625 C11.0379688,12.0042187 11.1148438,12.0014062 11.1532813,12 C11.151875,12.0403125 11.15,12.1214062 11.1490625,12.1621875 C11.0979688,12.1110937 11.0464063,12.0604687 11,12.005625 L11,12.005625 Z"></path>
            <path id="Shape" fill="#FEFEFE" sketch:type="MSShapeGroup" d="M11.0726562,12 L11.121875,12.0051563 C11.15375,12.009375 11.2179688,12.016875 11.2503125,12.0210937 C11.2554687,12.1410937 11.2339062,12.2596875 11.19875,12.3745313 C11.13125,12.3098438 11.0651562,12.24375 11,12.1767188 C11.024375,12.1176562 11.0482813,12.0585938 11.0726562,12 L11.0726562,12 Z"></path>
            <path d="M17,12 C17.459375,12.21 17.8760937,12.5010937 18.2496875,12.84 C18.0289062,12.7340625 17.7954687,12.6520312 17.5854688,12.525 C17.3670313,12.3778125 17.1860937,12.18375 17,12 L17,12 Z" id="Shape" fill="#FEFEFE" sketch:type="MSShapeGroup"></path>
            <path id="Shape" fill="#5D5D5D" sketch:type="MSShapeGroup" d="M10,12.1692188 C10.039375,12.1125 10.0792187,12.05625 10.1190625,12 C10.1251562,12.0614063 10.13125,12.1232813 10.1373437,12.1851563 C10.103125,12.1809375 10.0342187,12.1734375 10,12.1692188 L10,12.1692188 Z"></path>
            <path id="Shape" fill="#FEFEFE" sketch:type="MSShapeGroup" d="M10.0249558,13.4589063 C9.98323701,13.2976563 9.98276826,13.1223438 10.110737,13 C10.151987,13.1546875 10.172612,13.3515625 10.0249558,13.4589063 L10.0249558,13.4589063 Z"></path>
            <path id="Shape" fill="#B3B3B3" sketch:type="MSShapeGroup" d="M10.1429688,13 C10.2625,13.0028125 10.2789063,13.1551563 10.3173438,13.2423437 C10.2132813,13.2728125 10.1073438,13.2971875 10,13.3117188 C10.043125,13.20625 10.0825,13.0975 10.1429688,13 L10.1429688,13 Z"></path>
            <path d="M5.00645175,13.451875 C5.11613925,13.294375 5.24645175,13.1523438 5.36270175,13 C5.422233,13.10125 5.49676425,13.196875 5.53332675,13.3103125 C5.44426425,13.5095313 5.27832675,13.6721875 5.06363925,13.7307813 C5.030358,13.6417187 4.9825455,13.549375 5.00645175,13.451875 L5.00645175,13.451875 Z" id="Shape" fill="#FEFEFE" sketch:type="MSShapeGroup"></path>
            <path d="M16,13 C16.2348437,13.0229687 16.4073437,13.1926562 16.598125,13.3117187 C16.5690625,13.399375 16.5395312,13.4870312 16.5076562,13.57375 C16.3210937,13.4007812 16.091875,13.249375 16,13 L16,13 Z" id="Shape" fill="#5D5D5D" sketch:type="MSShapeGroup"></path>
            <path d="M15.5778125,13.4889063 C15.7521875,13.3346875 15.9059375,13.159375 16.075625,13 C16.0432812,13.0548438 16.01375,13.1115625 15.9842188,13.1678125 C16.0676562,13.2367188 16.150625,13.3075 16.2364063,13.3735938 C16.2284375,13.4842188 16.2204688,13.5948438 16.2110937,13.7054688 C16.0859375,13.579375 15.9617188,13.4523438 15.83375,13.3290625 C15.6021875,13.53625 15.3734375,13.7467188 15.1465625,13.9590625 C14.808125,14.2895313 14.3942188,14.5196875 14,14.7742188 C14.0984375,14.67625 14.1757812,14.5604688 14.23625,14.4357813 C14.3604687,14.4217188 14.4935938,14.4189063 14.5995313,14.3439063 C14.9604688,14.100625 15.2492188,13.7710938 15.5778125,13.4889063 L15.5778125,13.4889063 Z" id="Shape" fill="#5D5D5D" sketch:type="MSShapeGroup"></path>
            <path id="Shape" fill="#B3B3B3" sketch:type="MSShapeGroup" d="M16.0904687,13 C16.1359375,13.028125 16.1823438,13.0548437 16.2292188,13.0815625 C16.2264063,13.2029688 16.2278125,13.324375 16.2282813,13.44625 C16.1532813,13.3829687 16.075,13.3248437 16,13.2620312 C16.031875,13.1753125 16.0614063,13.0876563 16.0904687,13 L16.0904687,13 Z"></path>
            <path d="M4.03106198,13.380625 C3.96449948,13.2559375 4.01606198,13.1125 4.08121823,13 C4.06621823,13.110625 4.04278073,13.226875 4.07278073,13.3375 C4.16184323,13.4176563 4.27199948,13.4692187 4.37465573,13.5296875 C4.42668698,13.41625 4.47824948,13.3023437 4.52981198,13.1889062 C4.60153073,13.3820313 4.70231198,13.5625 4.82653073,13.7265625 C5.06090573,13.6314062 5.30746823,13.5653125 5.53762448,13.459375 C5.70684323,13.3834375 5.78887448,13.2067188 5.88637448,13.0604687 C6.04481198,13.1823437 6.23278073,13.2498437 6.42684323,13.290625 C6.57965573,13.3201562 6.68324948,13.4429687 6.78965573,13.545625 C6.70012448,13.6445312 6.61059323,13.7439062 6.52153073,13.8442187 C6.54449948,13.8545312 6.59043698,13.875625 6.61293698,13.8859375 C6.68278073,13.8404687 6.75215573,13.795 6.82199948,13.7495312 C6.83137448,13.8657812 6.84028073,13.9825 6.84824948,14.09875 C6.92653073,14.0842187 7.00481198,14.0692187 7.08309323,14.0546875 C7.35543698,14.3926562 7.73981198,14.6598438 8.17996823,14.704375 C8.33606198,14.7034375 8.48699948,14.6565625 8.64121823,14.636875 C8.59903073,14.809375 8.52824948,14.9734375 8.44012448,15.1276562 C8.47106198,15.1496875 8.50199948,15.1717187 8.53293698,15.19375 C8.64403073,15.1346875 8.75418698,15.0489062 8.88684323,15.05875 C9.04668698,15.06625 9.20606198,15.08125 9.36637448,15.0882812 C9.36215573,15.2265625 9.35653073,15.364375 9.35324948,15.503125 C9.54543698,15.4942187 9.71606198,15.4065625 9.86840573,15.2945312 C9.87028073,15.3728125 9.87262448,15.4510937 9.87496823,15.529375 C10.096687,15.5645312 10.319812,15.6296875 10.5462182,15.6109375 C10.7412182,15.5439062 10.8715307,15.3503125 11.077312,15.3057812 C11.2259057,15.2814062 11.2844995,15.4557812 11.3707495,15.5425 C11.5380932,15.510625 11.7049682,15.4754687 11.8680932,15.4248437 C11.7162182,15.5710937 11.491687,15.566875 11.298562,15.6109375 C11.251687,15.8064062 11.1944995,16.0004687 11.1715307,16.2010937 C11.3238745,16.2020312 11.4776245,16.2160937 11.6290307,16.195 C11.8530932,15.941875 11.9805932,15.5865625 12.297937,15.42625 C12.3977807,15.3676562 12.509812,15.4721875 12.4994995,15.5757812 C12.4943432,15.7590625 12.4334057,15.934375 12.4001245,16.1134375 C12.5787182,16.0839062 12.7582495,16.0590625 12.939187,16.0510937 C12.935437,16.0764062 12.9274682,16.1275 12.9237182,16.1528125 C12.7338745,16.178125 12.5449682,16.2095312 12.3574682,16.2475 C12.290437,16.4701562 12.2337182,16.695625 12.1812182,16.9220312 C12.1465307,17.0748437 12.1230932,17.2304688 12.0855932,17.3828125 C11.981062,17.8046875 11.9018432,18.2345312 11.8737182,18.6685937 C11.7888745,19.1495312 11.7977807,19.6384375 11.7996557,20.1245312 C11.7963745,20.26 11.8563745,20.38375 11.8980932,20.5098437 C11.7480932,20.4395312 11.679187,20.2825 11.6684057,20.1245312 C11.6243432,19.241875 11.7340307,18.360625 11.9224682,17.4985937 C11.936062,17.4221875 11.9477807,17.3453125 11.9637182,17.2689062 C12.0555932,16.9445313 12.1526245,16.620625 12.1994995,16.2859375 C12.0415307,16.309375 11.844187,16.2521875 11.7138745,16.3595312 C11.5319995,16.645 11.394187,16.958125 11.2521557,17.265625 C11.2137182,17.3546875 11.1757495,17.44375 11.133562,17.5309375 C10.7130932,18.2157812 10.5509057,19.0253125 10.1294995,19.7092187 C9.98887448,19.5995312 10.136062,19.45 10.1777807,19.32625 C10.4201245,18.7810937 10.6563745,18.2326562 10.8907495,17.68375 C10.9132495,17.6284375 10.9352807,17.573125 10.9605932,17.51875 C11.184187,17.1404687 11.362312,16.7378125 11.555437,16.343125 C11.4021557,16.34125 11.2484057,16.3417187 11.0951245,16.3426562 C10.9746557,16.6810937 10.8574682,17.0209375 10.734187,17.3584375 C10.7051245,17.4423437 10.6807495,17.528125 10.6549682,17.6139062 C10.4196557,18.2621875 10.1787182,18.9132813 10.0399682,19.5901562 C10.0052807,19.590625 9.93637448,19.5910937 9.90168698,19.5915625 C9.91434323,19.3623438 9.98418698,19.1429687 10.0446557,18.923125 C10.0746557,18.8082813 10.106062,18.6939062 10.1426245,18.5809375 C10.3690307,17.9490625 10.5996557,17.3185937 10.8326245,16.6885937 C10.8734057,16.5784375 10.906687,16.4659375 10.9343432,16.3520312 C10.6769995,16.3332812 10.421062,16.2915625 10.1618432,16.2985937 C9.81449948,16.825 9.48590573,17.365 9.21215573,17.9340625 C9.08934323,18.1567187 8.99699948,18.3967187 8.85918698,18.6114062 C8.80246823,18.611875 8.73778073,18.5476562 8.77621823,18.4923437 C8.99793698,18.0292187 9.21731198,17.56375 9.48543698,17.1245312 C9.64481198,16.8320312 9.84449948,16.5639062 10.002937,16.2714062 C9.85809323,16.2428125 9.71324948,16.2123437 9.56653073,16.195 C9.22856198,16.939375 8.95528073,17.7104687 8.66934323,18.4754687 C8.63043698,18.4660937 8.59153073,18.4571875 8.55262448,18.4482813 C8.80059323,17.670625 9.14090573,16.9271875 9.45637448,16.17625 C9.43809323,16.1603125 9.40153073,16.1289062 9.38324948,16.1129688 C9.29793698,16.1795312 9.24543698,16.2765625 9.19293698,16.369375 C8.88168698,16.9229687 8.57418698,17.4784375 8.27793698,18.0395312 C8.22590573,18.03625 8.17434323,18.0334375 8.12278073,18.0310937 C8.16590573,17.8548437 8.27512448,17.708125 8.36418698,17.5539063 C8.51043698,17.3059375 8.63887448,17.0476562 8.78090573,16.7973437 C8.92387448,16.5578125 9.07387448,16.3229687 9.20418698,16.0764062 C9.13059323,16.0473437 9.05699948,16.0192188 8.98246823,15.994375 C8.89856198,16.1204687 8.81746823,16.2489062 8.73965573,16.3796875 C8.51887448,16.7504687 8.25215573,17.095 8.07309323,17.4892187 C8.00465573,17.6171875 7.96153073,17.7690625 7.84246823,17.8609375 C7.82090573,17.8510937 7.77824948,17.8309375 7.75668698,17.820625 C7.76512448,17.6682812 7.86121823,17.54125 7.92168698,17.4057812 C8.16824948,16.8775 8.54043698,16.4214062 8.81840573,15.9104687 C8.72981198,15.8889062 8.64074948,15.8640625 8.54934323,15.863125 C8.45184323,15.9409375 8.40496823,16.0642187 8.32199948,16.1560937 C7.93481198,16.55875 7.59778073,17.0064062 7.27293698,17.460625 C7.22371823,17.4259375 7.17449948,17.3917187 7.12481198,17.3589062 C7.33715573,16.9717188 7.65121823,16.6567187 7.91418698,16.3060937 C8.02528073,16.1879687 7.92449948,16.0304688 7.89215573,15.9020313 C7.55606198,16.328125 7.32215573,16.8240625 7.00199948,17.2614063 C6.95324948,17.2145313 6.90449948,17.1676563 6.85621823,17.1207813 C7.04887448,16.7673437 7.27762448,16.435 7.48903073,16.0928125 C7.44731198,16.0164062 7.40793698,15.9390625 7.36949948,15.86125 C7.09059323,16.13125 6.87496823,16.4570312 6.60965573,16.7392187 C6.50840573,16.8460937 6.38793698,16.7017187 6.32887448,16.6196875 C6.26184323,16.5353125 6.34762448,16.4514062 6.39684323,16.3857813 C6.59465573,16.1457812 6.79153073,15.9048437 6.97856198,15.6564062 C6.90637448,15.6367187 6.83465573,15.6151562 6.76340573,15.5935937 C6.50746823,15.8045312 6.31574948,16.1059375 6.00684323,16.2414063 C5.99512448,16.2020312 5.97262448,16.12375 5.96137448,16.084375 C6.24637448,15.7965625 6.61621823,15.5720312 6.80418698,15.2021875 C6.44699948,15.4210938 6.19762448,15.7590625 5.91028073,16.0539063 C5.87184323,15.9840625 5.73449948,15.9071875 5.82028073,15.8223437 C5.95106198,15.6671875 6.09731198,15.5246875 6.20934323,15.3540625 C5.98293698,15.5354687 5.77668698,15.7421875 5.53293698,15.9015625 C5.37871823,15.7 5.19590573,15.5242187 5.02715573,15.3357812 C5.05949948,15.25 5.11715573,15.1778125 5.16637448,15.101875 C5.04871823,15.1632813 4.92965573,15.2270312 4.79606198,15.244375 C4.75434323,15.1764062 4.71121823,15.1089062 4.66856198,15.041875 C4.85418698,14.850625 5.06887448,14.69125 5.27184323,14.51875 C5.06371823,14.6467187 4.84762448,14.760625 4.62403073,14.858125 C4.58746823,14.8135937 4.55043698,14.7695312 4.51340573,14.7254687 C4.62965573,14.5829687 4.76840573,14.460625 4.92309323,14.3617187 C4.75481198,14.44375 4.57809323,14.5103125 4.39246823,14.5370312 C4.39528073,14.4723438 4.36949948,14.4010937 4.39996823,14.340625 C4.53028073,14.220625 4.68590573,14.1325 4.83637448,14.040625 C4.64465573,14.12125 4.44731198,14.1910938 4.24106198,14.2210937 C4.24809323,14.1104687 4.25184323,13.9998437 4.26356198,13.8901562 C4.40746823,13.8151562 4.56824948,13.7832812 4.72387448,13.7420312 C4.71074948,13.6876562 4.69715573,13.6342187 4.68356198,13.5807812 C4.44262448,13.6464062 4.21059323,13.5353125 4.03106198,13.380625 L4.03106198,13.380625 Z" id="Shape" fill="#5D5D5D" sketch:type="MSShapeGroup"></path>
            <path id="Shape" fill="#FEFEFE" sketch:type="MSShapeGroup" d="M10.680625,13.1420313 C10.795,13.0942187 10.909375,13.046875 11.0242187,13 C11.0275,13.0557812 11.0303125,13.1115625 11.033125,13.1673438 C10.9440625,13.2170312 10.8596875,13.2784375 10.7621875,13.3098438 C10.51,13.3482812 10.2545312,13.3609375 10,13.3496875 C10.2273437,13.2821875 10.4626563,13.238125 10.680625,13.1420313 L10.680625,13.1420313 Z"></path>
            <path d="M17.0007678,13.3646875 C17.000299,13.2428125 16.9988928,13.1214062 17.0017053,13 C17.094049,13.0520313 17.185924,13.1059375 17.277799,13.1598437 C17.2482678,13.2203125 17.2182678,13.2803125 17.1882678,13.3403125 C17.199049,13.3501562 17.2210803,13.3698437 17.2318615,13.3792187 C17.401549,13.5348437 17.5820178,13.6778125 17.754049,13.830625 C17.8356115,13.9210937 17.9120178,14.0157812 17.9917053,14.1076562 C17.9785803,14.1310937 17.9518615,14.1779687 17.9387365,14.2014062 C17.8562365,14.1859375 17.7737365,14.1709375 17.6926428,14.1503125 C17.5206115,14.0917187 17.3654553,13.9975 17.208424,13.9089062 C17.3129553,13.864375 17.4245178,13.8451562 17.5374865,13.8339062 C17.493424,13.8053125 17.4498303,13.77625 17.4067053,13.7476562 C17.2670178,13.624375 17.1385803,13.489375 17.0007678,13.3646875 L17.0007678,13.3646875 Z" id="Shape" fill="#5D5D5D" sketch:type="MSShapeGroup"></path>
            <path id="Shape" fill="#5D5D5D" sketch:type="MSShapeGroup" d="M10.4889063,13.1401563 C10.7621875,13.1275 11.0209375,13.0239063 11.2928125,13 C11.0748437,13.0960938 10.8395313,13.1401563 10.6121875,13.2076563 C10.8667188,13.2189063 11.1221875,13.20625 11.374375,13.1678125 C11.1953125,13.2826563 10.97125,13.2601563 10.76875,13.2775 C10.511875,13.2723438 10.219375,13.3328125 10,13.1640625 C10.1621875,13.148125 10.3257813,13.1490625 10.4889063,13.1401563 L10.4889063,13.1401563 Z"></path>
            <path id="Shape" fill="#B3B3B3" sketch:type="MSShapeGroup" d="M17.3060938,13 C17.3642188,13.0375 17.4228125,13.0735938 17.481875,13.1092188 C17.3960937,13.1171875 17.3107812,13.1251562 17.2254688,13.135 C17.290625,13.1996875 17.3567187,13.264375 17.4279687,13.3234375 C17.3023437,13.2892187 17.1734375,13.2671875 17.0435937,13.256875 C17.0328125,13.2475 17.0107813,13.2278125 17,13.2179687 C17.03,13.1579687 17.06,13.0979687 17.0895313,13.0375 C17.1617187,13.0248437 17.2339063,13.0126562 17.3060938,13 L17.3060938,13 Z"></path>
            <path d="M18.7442187,13.3257812 C18.7704687,13.2175 18.7976563,13.1092187 18.81875,13 C18.8215625,13.1082812 18.8248437,13.2170312 18.82625,13.3257812 C18.7071875,13.350625 18.573125,13.3421875 18.4671875,13.4073437 C18.2721875,13.58875 18.1095312,13.8235937 18.0832812,14.0954687 C17.973125,14.1489062 17.8676562,14.2126562 17.78,14.2989062 C17.7129687,14.2946875 17.6459375,14.29 17.579375,14.2853125 C17.609375,14.3603125 17.6398437,14.4353125 17.6740625,14.5084375 C17.4603125,14.3776562 17.245625,14.2459375 17.009375,14.15875 C17.0398438,14.155 17.1003125,14.1479687 17.1307813,14.1442187 C17.0876563,14.0659375 17.0454687,13.9871875 17,13.9103125 C17.2395312,14.0429687 17.4790625,14.1864062 17.7495313,14.2473437 C17.7579687,14.1826562 17.7664063,14.1184375 17.7748437,14.0546875 C17.8559375,14.0753125 17.9384375,14.0903125 18.0209375,14.1057812 C18.0340625,14.0823437 18.0607812,14.0354687 18.0739063,14.0120312 C17.9942187,13.9201562 17.9178125,13.8254687 17.83625,13.735 C17.9004687,13.778125 17.9670312,13.8189062 18.033125,13.8596875 C18.1334375,13.7190625 18.2492187,13.5779687 18.2801563,13.403125 C18.2810938,13.3665625 18.2834375,13.2929687 18.284375,13.2564062 C18.4371875,13.2826562 18.5904687,13.3060937 18.7442187,13.3257812 L18.7442187,13.3257812 Z" id="Shape" fill="#B3B3B3" sketch:type="MSShapeGroup"></path>
            <path d="M15,13.63 C15.226875,13.4176563 15.455625,13.2071875 15.6871875,13 C15.8151562,13.1232812 15.939375,13.2503125 16.0645312,13.3764062 C16.1465625,13.4584375 16.2295312,13.5390625 16.310625,13.6220312 C16.1067187,13.5770313 15.905625,13.515625 15.7251562,13.4096875 C15.6229687,13.3454688 15.504375,13.361875 15.3932812,13.3839062 C15.5057812,13.5460937 15.6529687,13.6801562 15.8123437,13.795 C15.8901562,13.8545313 15.9698437,13.91125 16.0471875,13.9721875 C16.1235937,14.0359375 16.1971875,14.1034375 16.2717187,14.1695312 C16.2675,14.1910938 16.2595312,14.2332813 16.2553125,14.254375 C15.9614062,14.1648438 15.6660937,14.070625 15.3932812,13.9267187 C15.3407812,13.8807813 15.28875,13.8348438 15.234375,13.79125 C15.1584375,13.7340625 15.07875,13.6825 15,13.63 L15,13.63 Z" id="Shape" fill="#FEFEFE" sketch:type="MSShapeGroup"></path>
            <path d="M16.3646875,13 C16.4959375,13.1017187 16.6440625,13.1776563 16.7879688,13.2596875 C16.78375,13.3121875 16.78,13.3646875 16.7767188,13.4176563 C16.7471875,13.4321875 16.7176563,13.4467188 16.6885937,13.46125 C16.6703125,13.4701563 16.6342188,13.4879688 16.6164063,13.496875 C16.67875,13.6351563 16.7382812,13.7757813 16.8132813,13.9079688 C16.6684375,13.8465625 16.5207812,13.789375 16.3646875,13.7645313 C16.3478125,13.76125 16.3140625,13.7551563 16.2971875,13.751875 C16.305625,13.8104688 16.3135937,13.8690625 16.3220313,13.9276563 C16.2446875,13.8667188 16.165,13.81 16.0871875,13.7504687 C16.0876563,13.616875 16.0492188,13.4879688 16,13.3651563 C16.1804688,13.4710938 16.3815625,13.5325 16.5854688,13.5775 C16.504375,13.4945313 16.4214063,13.4139063 16.339375,13.331875 C16.34875,13.22125 16.3567187,13.110625 16.3646875,13 L16.3646875,13 Z" id="Shape" fill="#B3B3B3" sketch:type="MSShapeGroup"></path>
            <path d="M17,14 C17.1298437,14.0103125 17.25875,14.0323437 17.384375,14.0665625 C17.5723437,14.1246875 17.770625,14.1448438 17.9660937,14.1195313 C17.9351562,14.294375 17.819375,14.4354688 17.7190625,14.5760938 C17.6529687,14.5353125 17.5864062,14.4945313 17.5221875,14.4514062 C17.3501563,14.2985938 17.1696875,14.155625 17,14 L17,14 Z" id="Shape" fill="#FEFEFE" sketch:type="MSShapeGroup"></path>
            <path id="Shape" fill="#5D5D5D" sketch:type="MSShapeGroup" d="M15,14.0195502 C15.1110938,13.997519 15.2296875,13.9811127 15.331875,14.0453315 C15.3810938,14.168144 15.4195313,14.2970502 15.4190625,14.430644 C15.2596875,14.3158002 15.1125,14.1817377 15,14.0195502 L15,14.0195502 Z"></path>
            <path id="Shape" fill="#5D5D5D" sketch:type="MSShapeGroup" d="M16,14.1579687 C16.0032813,14.105 16.0070313,14.0525 16.01125,14 C16.1429688,14.0759375 16.268125,14.1635937 16.3979688,14.24375 C16.3810938,14.2939062 16.3651563,14.3440625 16.34875,14.3946875 C16.2221875,14.331875 16.1096875,14.245625 16,14.1579687 L16,14.1579687 Z"></path>
            <path d="M16,14.0435937 C16.0290625,14.0290625 16.0585938,14.0145313 16.088125,14 C16.1978125,14.0876563 16.3103125,14.1739062 16.436875,14.2367188 C16.4992188,14.2648437 16.5634375,14.2892187 16.62625,14.3173437 C16.7832813,14.4059375 16.9384375,14.5001562 17.1104687,14.55875 C17.1020312,14.6225 17.0935938,14.6867187 17.0851563,14.7514062 C16.8146875,14.6904687 16.5751562,14.5470312 16.335625,14.414375 C16.2226562,14.2915625 16.1101562,14.16875 16,14.0435937 L16,14.0435937 Z" id="Shape" fill="#FEFEFE" sketch:type="MSShapeGroup"></path>
            <path d="M16,14.035625 C16.0178125,14.0267188 16.0539062,14.0089062 16.0721875,14 C16.1823438,14.1251562 16.2948437,14.2479687 16.4078125,14.3707812 C16.4532812,14.4476562 16.4954688,14.5264062 16.5385938,14.6046875 C16.508125,14.6084375 16.4476563,14.6154687 16.4171875,14.6192187 C16.3421875,14.5634375 16.2564062,14.5198437 16.196875,14.4467187 C16.121875,14.3145312 16.0623438,14.1739062 16,14.035625 L16,14.035625 Z" id="Shape" fill="#5D5D5D" sketch:type="MSShapeGroup"></path>
            <path id="Shape" fill="#B3B3B3" sketch:type="MSShapeGroup" d="M17.0492188,14 C17.1603125,14.0314062 17.2746875,14.0478125 17.3876563,14.0703125 C17.4307813,14.0989063 17.474375,14.1279688 17.5184375,14.1565625 C17.4054688,14.1678125 17.2939063,14.1870313 17.189375,14.2315625 C17.1265625,14.2034375 17.0623438,14.1790625 17,14.1509375 C17.0164063,14.1003125 17.0323438,14.0501563 17.0492188,14 L17.0492188,14 Z"></path>
            <path d="M13.526875,14.8151562 C13.9210937,14.560625 14.335,14.3304688 14.6734375,14 C14.7521875,14.0525 14.831875,14.1040625 14.9078125,14.16125 C14.8454688,14.1809375 14.7835937,14.2010938 14.7217187,14.2221875 C14.8435938,14.3576562 14.99125,14.4664063 15.1534375,14.549375 C15.12625,14.4640625 15.0985937,14.3796875 15.0667187,14.2967188 C15.3395312,14.440625 15.6348437,14.5348438 15.92875,14.624375 C15.9329688,14.6032813 15.9409375,14.5610938 15.9451563,14.5395312 C15.9545312,14.4898437 15.9648438,14.4401562 15.9746875,14.3904688 C16.1284375,14.4490625 16.2803125,14.5132812 16.43125,14.5798438 C16.440625,14.6867187 16.4884375,14.7828125 16.545625,14.871875 C16.6121875,14.8573438 16.6792187,14.8428125 16.74625,14.8292187 C16.5390625,14.94875 16.2882812,14.8709375 16.0614063,14.8915625 C16.1096875,14.9698437 16.1565625,15.0495312 16.2039062,15.12875 C16.0225,15.2557813 15.80875,15.1896875 15.6128125,15.1465625 C15.7445312,15.2628125 15.9029687,15.3410938 16.0520312,15.4320313 C16.020625,15.4292188 15.956875,15.423125 15.925,15.4203125 C15.9564063,15.4798438 15.9882812,15.5389063 16.0225,15.5975 C15.964375,15.5928125 15.9071875,15.5885937 15.8495312,15.584375 C15.8026562,15.6889062 15.7717187,15.8084375 15.6854687,15.8895313 C15.6034375,15.9270313 15.5096875,15.9176563 15.4220312,15.925625 C15.4332812,15.9921875 15.4440625,16.0592187 15.4553125,16.12625 C15.2992187,16.139375 15.143125,16.1548438 14.9884375,16.1764062 C14.9335938,16.1140625 14.8834375,16.0470312 14.81875,15.9945313 C14.6589062,15.9785937 14.520625,16.0723437 14.3940625,16.1557813 C14.261875,16.0320313 14.1479687,15.8914063 14.0195312,15.764375 C13.8775,15.62375 13.6989062,15.5210937 13.5770313,15.3603125 C13.5367187,15.30125 13.4790625,15.23 13.5203125,15.1559375 C13.5465625,15.0457813 13.6773437,15.0340625 13.76125,14.984375 C13.6984375,14.96 13.6365625,14.9332813 13.5714062,14.9182812 C13.485625,14.9459375 13.414375,15.0035938 13.3398438,15.0514062 C13.3796875,15.1559375 13.4204687,15.2604687 13.4584375,15.3659375 C13.4223437,15.374375 13.350625,15.3907812 13.315,15.3992188 C13.3253125,15.4803125 13.3351562,15.5609375 13.3435938,15.6429688 C13.245625,15.5839063 13.1551563,15.5145313 13.07125,15.4367187 C13.1270312,15.35 13.1785938,15.26 13.2095312,15.1610937 C13.1392187,15.1475 13.069375,15.1339062 13,15.1203125 C13.16125,14.9942187 13.358125,14.9290625 13.526875,14.8151562 L13.526875,14.8151562 Z" id="Shape" fill="#B3B3B3" sketch:type="MSShapeGroup"></path>
            <path id="Shape" fill="#5D5D5D" sketch:type="MSShapeGroup" d="M15,14.0609375 C15.061875,14.0398438 15.12375,14.0196875 15.1860938,14 C15.2404687,14.0435938 15.2925,14.0895313 15.345,14.1354688 C15.376875,14.2184375 15.4045312,14.3028125 15.4317188,14.388125 C15.2695312,14.3051563 15.121875,14.1964063 15,14.0609375 L15,14.0609375 Z"></path>
            <path id="Shape" fill="#5D5D5D" sketch:type="MSShapeGroup" d="M16,14 C16.016875,14.0032812 16.050625,14.009375 16.0675,14.0126562 C16.1354688,14.0853125 16.2057813,14.1560937 16.2789062,14.2240625 C16.2690625,14.27375 16.25875,14.3234375 16.249375,14.373125 C16.1748437,14.3070312 16.10125,14.2395312 16.0248437,14.1757812 C16.0164062,14.1171875 16.0084375,14.0585937 16,14 L16,14 Z"></path>
            <path id="Shape" fill="#5D5D5D" sketch:type="MSShapeGroup" d="M14,14.2479688 C14.0895312,14.151875 14.1903125,14.0665625 14.30375,14 C14.2620312,14.12 14.22875,14.2446875 14.2390625,14.3735938 C14.1603125,14.3295313 14.0801562,14.2878125 14,14.2479688 L14,14.2479688 Z"></path>
            <path d="M15,15 C15.3107813,15.1471875 15.493125,15.4621875 15.7045313,15.72 C15.58125,15.6914062 15.4265625,15.6867188 15.358125,15.5610938 C15.2385938,15.3740625 15.095625,15.2015625 15,15 L15,15 Z" id="Shape" fill="#5D5D5D" sketch:type="MSShapeGroup"></path>
            <path d="M18.6915625,15.8564063 C18.8392188,15.5920313 18.8659375,15.2775 18.9882812,15 C19.0098438,15.5807813 18.746875,16.1235938 18.4660937,16.6157813 C18.265,16.9153125 18.1257813,17.2617188 17.858125,17.5115625 C17.4976563,17.8546875 17.1690625,18.2404688 16.7415625,18.5034375 C16.5015625,18.6464063 16.275625,18.825 16,18.8953125 C16.1589063,18.7504688 16.3459375,18.643125 16.5273438,18.5292188 C16.9070313,18.294375 17.231875,17.983125 17.5365625,17.6592188 C17.7840625,17.3601562 18.0535938,17.0746875 18.2439062,16.7334375 C18.1890625,16.7015625 18.1351563,16.6696875 18.0807813,16.6378125 C18.1276563,16.554375 18.165625,16.4634375 18.2326562,16.3935938 C18.3278125,16.3190625 18.4426562,16.2754688 18.55,16.220625 C18.4867188,16.209375 18.4239063,16.198125 18.3610938,16.186875 C18.4065625,16.0195312 18.5565625,15.9417187 18.6915625,15.8564063 L18.6915625,15.8564063 Z" id="Shape" fill="#B3B3B3" sketch:type="MSShapeGroup"></path>
            <path id="Shape" fill="#5D5D5D" sketch:type="MSShapeGroup" d="M17.114375,15.2920313 C17.0571875,15.2029688 17.009375,15.106875 17,15 C17.1284375,15.0501563 17.245625,15.1260937 17.315,15.249375 C17.2479687,15.2629688 17.1809375,15.2775 17.114375,15.2920313 L17.114375,15.2920313 Z"></path>
            <path id="Shape" fill="#5D5D5D" sketch:type="MSShapeGroup" d="M17,15 C17.0665625,15.0046875 17.1335937,15.009375 17.200625,15.0135938 C17.2620312,15.0857813 17.3370312,15.1640625 17.3009375,15.2676563 C17.2339063,15.3323438 17.1448437,15.2807813 17.0946875,15.223125 C17.0604687,15.15 17.03,15.075 17,15 L17,15 Z"></path>
            <path id="Shape" fill="#5D5D5D" sketch:type="MSShapeGroup" d="M16,15 C16.135,15.0046875 16.2479687,15.0665625 16.2929688,15.1992188 C16.165,15.1846875 16.0703125,15.1021875 16,15 L16,15 Z"></path>
            <path id="Shape" fill="#5D5D5D" sketch:type="MSShapeGroup" d="M14,15.1083175 C14.0735938,15.0633175 14.148125,14.9672237 14.2442187,15.0112862 C14.33,15.075505 14.39375,15.16363 14.4635937,15.244255 C14.3829687,15.18988 14.3032812,15.135505 14.2226562,15.0820675 C14.193125,15.1350362 14.1626562,15.1884737 14.1317188,15.2409737 C14.088125,15.1964425 14.0440625,15.1519112 14,15.1083175 L14,15.1083175 Z"></path>
            <path id="Shape" fill="#B3B3B3" sketch:type="MSShapeGroup" d="M17,15.2854687 C17.0229688,15.1303125 17.1321875,15.0267188 17.285,15 C17.2240625,15.1251562 17.1251562,15.2245312 17,15.2854687 L17,15.2854687 Z"></path>
            <path d="M15,15 C15.3267188,15.1321875 15.6525,15.3398438 15.8198438,15.66 C15.48375,15.5409375 15.2160938,15.275625 15,15 L15,15 Z" id="Shape" fill="#FEFEFE" sketch:type="MSShapeGroup"></path>
            <path d="M16.5385938,15.1801545 C16.8882812,14.9959357 17.2946875,14.982342 17.6809375,15.012342 C17.5970313,15.1524982 17.5192188,15.3076545 17.3804687,15.4014045 C17.1039063,15.4670295 16.7720312,15.317967 16.5404687,15.5326545 C16.373125,15.6418732 16.22125,15.8406232 16,15.8078107 C16.1092188,15.6470295 16.2371875,15.494217 16.2929688,15.304842 C16.3510938,15.317967 16.4101562,15.3287482 16.4692187,15.3395295 C16.4921875,15.286092 16.5151563,15.2331232 16.5385938,15.1801545 L16.5385938,15.1801545 Z" id="Shape" fill="#B3B3B3" sketch:type="MSShapeGroup"></path>
            <path id="Shape" fill="#5D5D5D" sketch:type="MSShapeGroup" d="M16,15 C16.031875,15.0028125 16.095625,15.0089062 16.1270312,15.0117187 C16.2264063,15.0182812 16.3159375,15.0642187 16.403125,15.10875 C16.3796875,15.1617187 16.3567187,15.2146875 16.33375,15.268125 C16.2746875,15.2573437 16.215625,15.2465625 16.1575,15.2334375 C16.1425,15.219375 16.1125,15.19125 16.0975,15.1771875 C16.0632813,15.1185937 16.0314062,15.0595312 16,15 L16,15 Z"></path>
            <path id="Shape" fill="#FEFEFE" sketch:type="MSShapeGroup" d="M8.01640625,16 C8.0834375,16.0159375 8.15,16.03375 8.2165625,16.0525 C8.185625,16.1190625 8.15375,16.1860938 8.1228125,16.253125 C8.09234375,16.2545313 8.0309375,16.2582813 8,16.2601563 C8.00421875,16.1729688 8.00984375,16.08625 8.01640625,16 L8.01640625,16 Z"></path>
            <path id="Shape" fill="#050505" sketch:type="MSShapeGroup" d="M11,16.2296875 C11.0946875,16.1289062 11.1996875,16.0234375 11.3426562,16 C11.3928125,16.0520312 11.4064062,16.1251562 11.4317187,16.1907813 C11.2901562,16.2226562 11.1448437,16.2353125 11,16.2296875 L11,16.2296875 Z"></path>
            <path id="Shape" fill="#FEFEFE" sketch:type="MSShapeGroup" d="M9,16.1424118 C9.0459375,16.0242868 9.1546875,15.9942868 9.2728125,16.0008493 C9.2540625,16.0514743 9.2353125,16.1020993 9.21609375,16.153193 C9.14390625,16.149443 9.0721875,16.145693 9,16.1424118 L9,16.1424118 Z"></path>
            <path d="M14.3382436,16.6121875 C14.1924623,16.4401562 13.9346498,16.2554687 14.0152748,16 C14.2140248,16.15375 14.3987123,16.3248437 14.5693373,16.5090625 C14.4924623,16.5432812 14.4151186,16.5775 14.3382436,16.6121875 L14.3382436,16.6121875 Z" id="Shape" fill="#B3B3B3" sketch:type="MSShapeGroup"></path>
            <path id="Shape" fill="#FEFEFE" sketch:type="MSShapeGroup" d="M9,16.3009375 C9.00890625,16.189375 9.05671875,16.0890625 9.12140625,16 C9.17859375,16.0478125 9.2353125,16.095625 9.2915625,16.1439063 C9.2615625,16.195 9.23390625,16.2475 9.20015625,16.29625 C9.1340625,16.3089062 9.0665625,16.3009375 9,16.3009375 L9,16.3009375 Z"></path>
            <path id="Shape" fill="#FEFEFE" sketch:type="MSShapeGroup" d="M10,16.3773438 C10.050625,16.2334375 10.1265625,16.0984375 10.245625,16 C10.2179688,16.1246875 10.1720312,16.2442188 10.1260937,16.3632813 C10.0946875,16.3670313 10.0314062,16.3740625 10,16.3773438 L10,16.3773438 Z"></path>
            <path d="M12,16.6421875 C12.1425,16.4007813 12.2939062,16.1490625 12.54,16 C12.5625,16.1959375 12.5273437,16.3979688 12.4373437,16.57375 C12.3215625,16.6764062 12.1425,16.6229688 12,16.6421875 L12,16.6421875 Z" id="Shape" fill="#FEFEFE" sketch:type="MSShapeGroup"></path>
            <path d="M10,16.4115625 C10.0426563,16.2690625 10.1007813,16.1321875 10.1673438,16 C10.3909375,16.0407813 10.6201563,16.0482812 10.8390625,16.1115625 C10.7167188,16.25125 10.5859375,16.3829687 10.46125,16.5207812 C10.3075,16.4832813 10.15375,16.4467187 10,16.4115625 L10,16.4115625 Z" id="Shape" fill="#FEFEFE" sketch:type="MSShapeGroup"></path>
            <path id="Shape" fill="#B3B3B3" sketch:type="MSShapeGroup" d="M8,16 C8.0796875,16.0140625 8.159375,16.0304688 8.2390625,16.0478125 C8.20390625,16.1607813 8.15,16.2671875 8.05765625,16.3435938 C8.03234375,16.2301563 8.01453125,16.1148438 8,16 L8,16 Z"></path>
            <path id="Shape" fill="#FEFEFE" sketch:type="MSShapeGroup" d="M10.4007813,16.0135451 C10.5442188,15.9919826 10.69,16.0032326 10.834375,16.0008889 C10.7851562,16.1612014 10.740625,16.3229201 10.7003125,16.4855764 C10.4664063,16.4958889 10.2320313,16.4883889 10,16.4602639 C10.1134375,16.2957326 10.2428125,16.1372951 10.4007813,16.0135451 L10.4007813,16.0135451 Z"></path>
            <path id="Shape" fill="#B3B3B3" sketch:type="MSShapeGroup" d="M5,16 C5.11953125,16.0609375 5.1996875,16.1678125 5.2315625,16.298125 C5.10921875,16.24 5.035625,16.1279688 5,16 L5,16 Z"></path>
            <path d="M11.4804688,17.0735938 C11.6107813,16.96625 11.808125,17.0234375 11.9660938,17 C11.9192188,17.3346875 11.8221875,17.6585938 11.7303125,17.9829687 C11.4842188,18.0045312 11.2423437,18.0565625 11,18.1010938 C11.0046875,18.070625 11.0140625,18.0101563 11.01875,17.9796875 C11.1607812,17.6721875 11.2985938,17.3590625 11.4804688,17.0735938 L11.4804688,17.0735938 Z" id="Shape" fill="#FEFEFE" sketch:type="MSShapeGroup"></path>
            <path d="M11.3609375,17.0008203 C11.5142188,16.9998828 11.6679688,16.9994141 11.82125,17.0012891 C11.628125,17.3959766 11.45,17.7986328 11.2264063,18.1769141 C11.1575,18.1614453 11.0890625,18.1464453 11.020625,18.1319141 C11.0154688,18.1028516 11.0051563,18.0451953 11,18.0166016 C11.1232813,17.6791016 11.2404688,17.3392578 11.3609375,17.0008203 L11.3609375,17.0008203 Z" id="Shape" fill="#FEFEFE" sketch:type="MSShapeGroup"></path>
            <path id="Shape" fill="#B3B3B3" sketch:type="MSShapeGroup" d="M17,17.5128125 C17.0501562,17.3201563 17.1382812,17.1345312 17.2896875,17 C17.2615625,17.193125 17.2503125,17.4860937 17,17.5128125 L17,17.5128125 Z"></path>
            <path id="Shape" fill="#B3B3B3" sketch:type="MSShapeGroup" d="M16,17.51375 C16.091875,17.3023437 16.2671875,17.1471875 16.4382813,17 C16.4232813,17.2329688 16.2554687,17.5076563 16,17.51375 L16,17.51375 Z"></path>
            <path id="Shape" fill="#B3B3B3" sketch:type="MSShapeGroup" d="M12.10125,17.279375 C12.5076563,17.2254688 12.8840625,17.0407813 13.2923438,17 C12.8915625,17.2348437 12.4232812,17.3089062 12,17.493125 C12.0375,17.3407812 12.0609375,17.1851562 12.095625,17.0323437 C12.0965625,17.114375 12.0984375,17.1964062 12.10125,17.279375 L12.10125,17.279375 Z"></path>
            <path id="Shape" fill="#B3B3B3" sketch:type="MSShapeGroup" d="M6,17 C6.09515625,17.0417188 6.18046875,17.1021875 6.24234375,17.1865625 C6.204375,17.1865625 6.12890625,17.1860937 6.0909375,17.185625 C6.06046875,17.12375 6.02953125,17.061875 6,17 L6,17 Z"></path>
            <path id="Shape" fill="#B3B3B3" sketch:type="MSShapeGroup" d="M13.001046,17.3178125 C12.9799523,17.0825 13.2827648,17.0079687 13.4683898,17 C13.4149523,17.1992188 13.1974523,17.3234375 13.001046,17.3178125 L13.001046,17.3178125 Z"></path>
            <path id="Shape" fill="#5D5D5D" sketch:type="MSShapeGroup" d="M6.11390625,17 C6.200625,17.0285937 6.2765625,17.0815625 6.354375,17.1284375 C6.34734375,17.17625 6.3403125,17.2245313 6.33375,17.2728125 C6.20671875,17.2995312 6.09,17.2596875 6,17.1678125 C6.03703125,17.1110937 6.0721875,17.0534375 6.11390625,17 L6.11390625,17 Z"></path>
            <path id="Shape" fill="#B3B3B3" sketch:type="MSShapeGroup" d="M11,18.2653125 C11.0421875,18.178125 11.0801562,18.0890625 11.1185938,18 C11.1139062,18.0304688 11.1045312,18.0909375 11.0998437,18.1214063 C11.3421875,18.076875 11.5840625,18.0248438 11.8301562,18.0032813 C11.8142188,18.0796875 11.8025,18.1565625 11.7889063,18.2329688 C11.7739062,18.2109375 11.7439063,18.166875 11.7289063,18.1448438 C11.4879688,18.1964063 11.2489062,18.2695313 11,18.2653125 L11,18.2653125 Z"></path>
            <path id="Shape" fill="#B3B3B3" sketch:type="MSShapeGroup" d="M11,18.2554687 C11.0257813,18.1696875 11.0501563,18.0839062 11.0792188,18 C11.084375,18.0285937 11.0946875,18.08625 11.0998438,18.1153125 C11.1682813,18.1298437 11.2367188,18.1448437 11.305625,18.1603125 C11.2803125,18.2146875 11.2582813,18.27 11.2357813,18.3253125 C11.1570313,18.301875 11.0782813,18.2789062 11,18.2554687 L11,18.2554687 Z"></path>
            <path id="Shape" fill="#B3B3B3" sketch:type="MSShapeGroup" d="M7,18 C7.046875,18.0103125 7.09421875,18.0201563 7.1415625,18.0304688 C7.14859375,18.0553125 7.1621875,18.105 7.16921875,18.1298438 C7.121875,18.1214063 7.07453125,18.1139063 7.0271875,18.1064063 C7.020625,18.0796875 7.0065625,18.0267188 7,18 L7,18 Z"></path>
            <path id="Shape" fill="#5D5D5D" sketch:type="MSShapeGroup" d="M8,18 C8.04734375,18.0060937 8.0946875,18.0121875 8.1425,18.0182813 C8.14625,18.06375 8.15,18.1092188 8.15375,18.1551563 C8.10359375,18.1546875 8.0534375,18.1551563 8.00328125,18.1560938 C8.00234375,18.1040625 8.00140625,18.0520312 8,18 L8,18 Z"></path>
            <path id="Shape" fill="#5D5D5D" sketch:type="MSShapeGroup" d="M8,19 C8.05484375,19 8.11015625,19.0004687 8.165,19.0014062 C8.1603125,19.0459375 8.155625,19.0909375 8.15140625,19.1359375 C8.1228125,19.1401563 8.06609375,19.1485937 8.0375,19.1528125 C8.024375,19.1017187 8.0121875,19.050625 8,19 L8,19 Z"></path>
            <path id="Shape" fill="#5D5D5D" sketch:type="MSShapeGroup" d="M6,19 C6.02296875,19.0046875 6.06890625,19.0140625 6.091875,19.0192188 C6.1275,19.0810938 6.16453125,19.1429688 6.20203125,19.204375 C6.1396875,19.1996875 6.07734375,19.1954687 6.01546875,19.19125 C6.00984375,19.1275 6.00515625,19.06375 6,19 L6,19 Z"></path>
            <path id="Shape" fill="#B3B3B3" sketch:type="MSShapeGroup" d="M11,19.3207114 C11.0759375,19.0863364 11.3220313,18.9761802 11.5554687,19.0043052 C11.43125,19.1894614 11.2348437,19.3432114 11,19.3207114 L11,19.3207114 Z"></path>
            <path id="Shape" fill="#B3B3B3" sketch:type="MSShapeGroup" d="M10,19.2915625 C10.1434375,19.1710937 10.3046875,19.0745312 10.47625,19 C10.4396875,19.1129688 10.4082812,19.2273438 10.3782813,19.3421875 C10.2507813,19.3370312 10.1242188,19.3210938 10,19.2915625 L10,19.2915625 Z"></path>
            <path id="Shape" fill="#5D5D5D" sketch:type="MSShapeGroup" d="M9.000715,19 C9.11837125,19.0342188 9.22993375,19.0871875 9.34149625,19.1373438 C9.33680875,19.1710938 9.326965,19.2385938 9.3222775,19.2723438 C9.18305875,19.230625 8.9866525,19.1828125 9.000715,19 L9.000715,19 Z"></path>
            <path id="Shape" fill="#B3B3B3" sketch:type="MSShapeGroup" d="M7,19 C7.06796875,19.0421875 7.135,19.08625 7.2015625,19.1321875 C7.14390625,19.1425 7.08578125,19.1504687 7.02765625,19.1570313 C7.020625,19.1176562 7.00703125,19.039375 7,19 L7,19 Z"></path>
        </g>
    </g>
</svg>