<?xml version="1.0" encoding="UTF-8" standalone="no"?>
<svg width="24px" height="24px" viewBox="0 0 24 24" version="1.1" xmlns="http://www.w3.org/2000/svg" xmlns:xlink="http://www.w3.org/1999/xlink" xmlns:sketch="http://www.bohemiancoding.com/sketch/ns">
    <!-- Generator: Sketch 3.3.1 (12002) - http://www.bohemiancoding.com/sketch -->
    <title>tb_layerinfo</title>
    <desc>Created with Sketch.</desc>
    <defs></defs>
    <g id="Page-1" stroke="none" stroke-width="1" fill="none" fill-rule="evenodd" sketch:type="MSPage">
        <g id="tb_layerinfo" sketch:type="MSArtboardGroup">
            <g id="Group" sketch:type="MSLayerGroup" transform="translate(3.000000, 3.000000)">
                <path d="M17.015625,7.74509736 L14.7561187,8.91118572 L6.68161066,13.078125 L3.26083014,7.21252211 L1.640625,4.43429546 L10.9590873,0.515625 L17.015625,7.74509736" id="Fill-26099" fill="#FFFFFF" sketch:type="MSShapeGroup"></path>
                <path d="M14.671875,8.8125 L10.734375,3.75" id="Stroke-26111" stroke="#7D7D7D" stroke-width="0.5" stroke-linecap="round" stroke-linejoin="round" sketch:type="MSShapeGroup"></path>
                <path d="M13.078125,9.84375 L10.640625,6.515625" id="Stroke-26115" stroke="#7D7D7D" stroke-width="0.5" stroke-linecap="round" stroke-linejoin="round" sketch:type="MSShapeGroup"></path>
                <path d="M10.78125,3.75 L3.234375,7.125" id="Stroke-26112" stroke="#7D7D7D" stroke-width="0.5" stroke-linecap="round" stroke-linejoin="round" sketch:type="MSShapeGroup"></path>
                <path d="M3.29267463,7.265625 L6.71142875,13.1305286 L14.7811536,8.9640861 L16.078125,10.632436 L14.3926247,11.540831 L7.10458298,15.46875 L3.86146691,9.74779186 L2.625,7.56647436 L3.29267463,7.265625" id="Fill-26100" fill="#FFFFFF" sketch:type="MSShapeGroup"></path>
                <path d="M3.86495998,9.609375 L7.10509039,15.3039602 L14.3864227,11.3941485 L15.328125,12.6703753 L7.40183903,17.0625 L3.375,9.84091661 L3.86495998,9.609375" id="Fill-26101" fill="#FFFFFF" sketch:type="MSShapeGroup"></path>
                <path d="M10.96875,0.515625 L1.640625,4.40625" id="Stroke-26102" stroke="#000000" stroke-width="0.5" stroke-linecap="round" stroke-linejoin="round" sketch:type="MSShapeGroup"></path>
                <path d="M17.0625,7.734375 L11.015625,0.515625" id="Stroke-26103" stroke="#000000" stroke-width="0.5" stroke-linecap="round" stroke-linejoin="round" sketch:type="MSShapeGroup"></path>
                <path d="M16.078125,10.546875 L14.765625,8.859375" id="Stroke-26104" stroke="#000000" stroke-width="0.5" stroke-linecap="round" stroke-linejoin="round" sketch:type="MSShapeGroup"></path>
                <path id="Stroke-26105" stroke="#000000" stroke-width="0.5" stroke-linecap="round" stroke-linejoin="round" sketch:type="MSShapeGroup" d="M3.28125,7.265625 L2.625,7.546875"></path>
                <path d="M15.328125,12.75 L14.390625,11.484375" id="Stroke-26106" stroke="#000000" stroke-width="0.5" stroke-linecap="round" stroke-linejoin="round" sketch:type="MSShapeGroup"></path>
                <path d="M3.86495998,9.609375 L3.375,9.84092985 L7.40183903,17.0625 L15.328125,12.6703108" id="Stroke-26107" stroke="#000000" stroke-width="0.5" stroke-linecap="round" stroke-linejoin="round" sketch:type="MSShapeGroup"></path>
                <path d="M1.640625,4.359375 L3.26083014,7.13162949 L6.68161066,12.984375 L14.7561187,8.82649303 L17.015625,7.66301576" id="Stroke-26108" stroke="#000000" stroke-width="0.5" stroke-linecap="round" stroke-linejoin="round" sketch:type="MSShapeGroup"></path>
                <path d="M7.125,15.328125 L14.3964596,11.406828 L16.078125,10.5" id="Stroke-26109" stroke="#000000" stroke-width="0.5" stroke-linecap="round" stroke-linejoin="round" sketch:type="MSShapeGroup"></path>
                <path d="M2.625,7.5 L3.86710247,9.67387231 L7.125,15.375" id="Stroke-26110" stroke="#000000" stroke-width="0.5" stroke-linecap="round" stroke-linejoin="round" sketch:type="MSShapeGroup"></path>
                <path d="M10.640625,6.515625 L4.5,9.421875" id="Fill-26113" fill="#7D7D7D" sketch:type="MSShapeGroup"></path>
                <path d="M10.640625,6.515625 L4.5,9.421875" id="Stroke-26114" stroke="#7D7D7D" stroke-width="0.5" stroke-linecap="round" stroke-linejoin="round" sketch:type="MSShapeGroup"></path>
                <path d="M14.390625,11.484375 L13.125,9.75" id="Stroke-26116" stroke="#000000" stroke-width="0.5" stroke-linecap="round" stroke-linejoin="round" sketch:type="MSShapeGroup"></path>
                <path id="Stroke-26117" stroke="#000000" stroke-width="0.5" stroke-linecap="round" stroke-linejoin="round" sketch:type="MSShapeGroup" d="M4.59375,9.375 L3.890625,9.703125"></path>
                <path d="M0.75,12.3747688 C0.75,9.55575108 3.04022199,7.265625 5.8594375,7.265625 C8.67865301,7.265625 10.96875,9.55575108 10.96875,12.3747688 C10.96875,15.1940614 8.67865301,17.484375 5.8594375,17.484375 C3.04022199,17.484375 0.75,15.1940614 0.75,12.3747688 L0.75,12.3747688 Z" id="Fill-31052" fill="#144689" sketch:type="MSShapeGroup"></path>
                <path d="M0.75,12.3748125 C0.75,9.55572199 3.04022199,7.265625 5.8594375,7.265625 C8.67865301,7.265625 10.96875,9.55572199 10.96875,12.3748125 C10.96875,15.194028 8.67865301,17.484375 5.8594375,17.484375 C3.04022199,17.484375 0.75,15.194028 0.75,12.3748125 L0.75,12.3748125 Z" id="Stroke-31053" stroke="#FFFFFF" stroke-width="1.25" stroke-linecap="round" stroke-linejoin="round" sketch:type="MSShapeGroup"></path>
                <path d="M0.75,12.3747688 C0.75,9.55575108 3.04022199,7.265625 5.8594375,7.265625 C8.67865301,7.265625 10.96875,9.55575108 10.96875,12.3747688 C10.96875,15.1940614 8.67865301,17.484375 5.8594375,17.484375 C3.04022199,17.484375 0.75,15.1940614 0.75,12.3747688 L0.75,12.3747688 Z" id="Fill-31054" fill="#144689" sketch:type="MSShapeGroup"></path>
                <path d="M0.75,12.3748125 C0.75,9.55572199 3.04022199,7.265625 5.8594375,7.265625 C8.67865301,7.265625 10.96875,9.55572199 10.96875,12.3748125 C10.96875,15.194028 8.67865301,17.484375 5.8594375,17.484375 C3.04022199,17.484375 0.75,15.194028 0.75,12.3748125 L0.75,12.3748125 Z" id="Stroke-31055" stroke="#000000" stroke-width="0.75" stroke-linecap="round" stroke-linejoin="round" sketch:type="MSShapeGroup"></path>
                <path d="M5.015625,11.390625 L6.84375,11.390625 L6.84375,16.03125 L5.015625,16.03125 L5.015625,11.390625 L5.015625,11.390625 Z" id="Fill-31056" fill="#FFFFFF" sketch:type="MSShapeGroup"></path>
                <path d="M5.015625,11.390625 L6.84375,11.390625 L6.84375,16.03125 L5.015625,16.03125 L5.015625,11.390625 L5.015625,11.390625 Z" id="Stroke-31057" stroke="#000000" stroke-width="0.5" stroke-linecap="round" stroke-linejoin="round" sketch:type="MSShapeGroup"></path>
                <path d="M5.015625,8.625 L6.84375,8.625 L6.84375,10.453125 L5.015625,10.453125 L5.015625,8.625 L5.015625,8.625 Z" id="Fill-31058" fill="#FFFFFF" sketch:type="MSShapeGroup"></path>
                <path d="M5.015625,8.625 L6.84375,8.625 L6.84375,10.453125 L5.015625,10.453125 L5.015625,8.625 L5.015625,8.625 Z" id="Stroke-31059" stroke="#000000" stroke-width="0.5" stroke-linecap="round" stroke-linejoin="round" sketch:type="MSShapeGroup"></path>
            </g>
        </g>
    </g>
</svg>