<?xml version="1.0" standalone="no"?>
<!DOCTYPE svg PUBLIC "-//W3C//DTD SVG 1.1//EN" "http://www.w3.org/Graphics/SVG/1.1/DTD/svg11.dtd">
<!--Generator: Xara Designer (www.xara.com), SVG filter version: 6.5.0.21-->
<svg fill="none" fill-rule="evenodd" stroke="black" stroke-width="0.501" stroke-linejoin="bevel" stroke-miterlimit="10" font-family="Times New Roman" font-size="16" style="font-variant-ligatures:none" xmlns:xlink="http://www.w3.org/1999/xlink" xmlns="http://www.w3.org/2000/svg" version="1.1" overflow="visible" width="75pt" height="72pt" viewBox="0 -72 75 72">
 <defs>
	</defs>
 <g id="LOCK CLOSED" transform="scale(1 -1)">
  <g id="Group" fill="#ff0000" stroke-linejoin="miter" stroke="none" stroke-width="12.872">
   <path d="M 40.628,10.838 L 40.63,29.125 L 42.916,29.134 L 42.94,33.352 L 42.981,33.732 C 43.034,37.38 45.668,40.604 49.397,41.266 C 53.614,42.012 57.652,39.189 58.401,34.969 C 58.493,34.462 58.53,33.962 58.519,33.469 L 58.537,33.363 L 58.581,29.183 L 61.162,29.187 L 61.16,10.838 L 40.628,10.838 Z M 54.128,29.06 L 54.128,33.75 L 54.112,33.75 C 54.126,33.84 54.121,33.946 54.121,34.043 C 54.126,35.677 52.61,37.002 50.752,37.002 C 48.892,37.002 47.383,35.677 47.383,34.043 C 47.383,33.946 47.378,33.854 47.387,33.757 L 47.387,29.072 L 54.128,29.06 Z" marker-start="none" marker-end="none"/>
  </g>
 </g>
 <g id="Layer 1" transform="scale(1 -1)">
  <rect x="12.367" y="44.464" width="37.663" height="15.016" fill="#ff0000" stroke-width="3" stroke="#ff0000" stroke-linejoin="miter"/>
  <text xml:space="preserve" transform="translate(81.162 64.565) scale(1 -1)" kerning="auto" font-size="7.342" font-family="Arial" fill="#000000" stroke="none" stroke-linecap="round" stroke-linejoin="round" stroke-width="0.375"><tspan x="0" y="0">LOCK</tspan></text>
  <g id="Group_1" stroke-linejoin="miter" stroke="none">
   <path d="M 10.838,46.453 L 43.917,54.676 L 26.491,25.967 L 24.246,35.219 L 16.34,29.255 L 11.774,36.316 L 19.597,41.661 L 10.838,46.453 Z" stroke-width="1.748" fill="#000000" marker-start="none" marker-end="none"/>
   <path d="M 15.036,35.926 L 17.159,32.644 L 25.575,38.99 L 27.313,31.823 L 39.006,51.089 L 16.947,45.606 L 23.753,41.882 L 15.036,35.926 Z" fill="#32cd33" stroke-width="1.696" fill-rule="evenodd" marker-start="none" marker-end="none"/>
  </g>
 </g>
</svg>
