<?xml version="1.0" standalone="no"?>
<!DOCTYPE svg PUBLIC "-//W3C//DTD SVG 1.1//EN" "http://www.w3.org/Graphics/SVG/1.1/DTD/svg11.dtd">
<!--Generator: Xara Designer (www.xara.com), SVG filter version: 6.5.0.21-->
<svg fill="none" fill-rule="evenodd" stroke="black" stroke-width="0.501" stroke-linejoin="bevel" stroke-miterlimit="10" font-family="Times New Roman" font-size="16" style="font-variant-ligatures:none" xmlns:xlink="http://www.w3.org/1999/xlink" xmlns="http://www.w3.org/2000/svg" version="1.1" overflow="visible" width="73.5pt" height="72pt" viewBox="0 -72 73.5 72">
 <defs>
  <linearGradient id="LinearGradient" gradientUnits="userSpaceOnUse" x1="0" y1="0" x2="9.75" y2="0.15" gradientTransform="translate(51.07 38.348)">
   <stop offset="0" stop-color="#e5e5e5"/>
   <stop offset="1" stop-color="#bcb9b9"/>
  </linearGradient>
  <linearGradient id="LinearGradient_1" gradientUnits="userSpaceOnUse" x1="0" y1="0" x2="8.601" y2="0" gradientTransform="translate(48.272 45.851) rotate(90)">
   <stop offset="0" stop-color="#e5e5e5"/>
   <stop offset="1" stop-color="#bcb9b9"/>
  </linearGradient>
  <linearGradient id="LinearGradient_2" gradientUnits="userSpaceOnUse" x1="0" y1="0" x2="-9.446" y2="0.151" gradientTransform="translate(20.321 38.636)">
   <stop offset="0" stop-color="#ffffff"/>
   <stop offset="1" stop-color="#bcb9b9"/>
  </linearGradient>
  <linearGradient id="LinearGradient_3" gradientUnits="userSpaceOnUse" x1="0" y1="0" x2="8.54" y2="0" gradientTransform="translate(23.408 43.688) rotate(90)">
   <stop offset="0" stop-color="#e5e5e5"/>
   <stop offset="1" stop-color="#bcb9b9"/>
  </linearGradient>
  <linearGradient id="LinearGradient_4" gradientUnits="userSpaceOnUse" x1="0" y1="0" x2="0" y2="6.609" gradientTransform="translate(32.359 53.48)">
   <stop offset="0" stop-color="#e5e5e5"/>
   <stop offset="1" stop-color="#bcb9b9"/>
  </linearGradient>
 </defs>
 <g id="Cubes" transform="scale(1 -1)">
  <g id="Group" stroke-width="1.125" fill-rule="nonzero">
   <g id="Group_1">
    <g id="Group_2">
     <path d="M 36.074,31.947 L 36.074,48.57 L 51.4,44.843 L 51.4,28.222 L 36.074,31.947 Z" fill="#ffffff" marker-start="none" marker-end="none"/>
     <path d="M 51.4,44.843 L 60.769,51.132 L 60.769,34.51 L 51.4,28.222 L 51.4,44.843 Z" marker-start="none" marker-end="none" fill="url(#LinearGradient)"/>
     <path d="M 36.293,48.617 L 36.272,48.631 L 45.605,54.818 L 60.769,51.132 L 51.4,44.843 L 36.074,48.57 L 36.293,48.617 Z" marker-start="none" marker-end="none" fill="url(#LinearGradient_1)"/>
    </g>
    <g id="Group_3">
     <path d="M 11.338,32.507 L 11.338,49.128 L 20.047,42.687 L 20.047,26.067 L 11.338,32.507 Z" marker-start="none" marker-end="none" fill="url(#LinearGradient_2)"/>
     <path d="M 20.047,26.067 L 20.047,42.687 L 35.774,46.158 L 35.774,29.535 L 20.047,26.067 Z" fill="#e5e5e5" marker-start="none" marker-end="none"/>
     <path d="M 11.338,49.128 L 27.043,52.594 L 29.985,53.197 L 35.541,46.22 L 35.533,46.215 L 35.774,46.158 L 20.047,42.687 L 11.338,49.128 Z" marker-start="none" marker-end="none" fill="url(#LinearGradient_3)"/>
    </g>
    <path d="M 41.504,53.081 L 41.615,60.42 L 41.615,43.798 L 41.595,42.668 L 41.504,36.459 L 41.504,53.081 Z" stroke="none" fill="#e0e0e0" marker-start="none" marker-end="none"/>
    <path d="M 23.443,60.464 L 41.615,60.42 L 41.504,53.081 L 23.333,53.125 L 23.443,60.464 Z" marker-start="none" marker-end="none" fill="url(#LinearGradient_4)"/>
    <path d="M 23.333,53.125 L 41.504,53.081 L 41.504,36.459 L 32.262,36.481 L 31.831,36.482 L 23.333,36.504 L 23.333,42.856 L 23.333,53.125 Z" fill="#ececec" marker-start="none" marker-end="none"/>
   </g>
  </g>
 </g>
 <g id="G - Groups" transform="scale(1 -1)">
  <g id="Group_4" fill-rule="nonzero" stroke-linejoin="miter" stroke="none" stroke-width="1.712">
   <path d="M 37.723,11.564 L 37.723,14.101 L 10.824,21.64 L 10.825,42.815 L 22.227,42.815 L 22.227,25.989 C 22.227,24.645 22.261,23.589 22.327,22.8 C 22.5,20.552 24.518,20.36 26.441,21.383 L 26.441,42.815 L 38.766,42.815 L 38.766,11.564 L 37.723,11.564 Z" fill="#ffffff" marker-start="none" marker-end="none"/>
   <path d="M 13.332,13.704 C 11.63,15.624 10.868,18.412 10.868,21.878 L 10.868,41.801 L 21.213,41.801 L 21.26,25.989 C 21.266,23.531 20.482,19.457 24.941,19.858 C 25.843,19.939 26.689,20.368 27.455,20.903 L 27.455,41.801 L 37.752,41.801 L 37.752,11.601 L 27.455,11.601 L 27.455,13.492 C 25.617,12.024 23.41,10.989 21.046,10.874 L 19.961,10.874 C 17.228,10.931 14.976,11.846 13.332,13.704 Z" fill="#000000" marker-start="none" marker-end="none"/>
   <g id="Group_5" fill="#0003ff">
    <g id="Group_6">
     <path d="M 14.091,14.377 C 12.619,16.038 11.882,18.539 11.882,21.878 L 11.882,40.787 L 20.199,40.787 L 20.199,25.989 C 20.199,24.619 20.234,23.501 20.306,22.634 C 20.377,21.768 20.546,21.035 20.814,20.436 C 21.066,19.886 21.455,19.468 21.983,19.183 C 22.511,18.901 23.247,18.759 24.192,18.759 C 24.776,18.759 25.464,18.901 26.259,19.183 C 27.055,19.468 27.79,19.854 28.469,20.341 L 28.469,40.787 L 36.738,40.787 L 36.738,12.615 L 28.469,12.615 L 28.469,15.546 C 27.035,14.348 25.72,13.439 24.523,12.817 C 23.326,12.194 21.9,11.884 20.246,11.884 C 17.616,11.884 15.564,12.714 14.091,14.377 Z" marker-start="none" marker-end="none"/>
    </g>
   </g>
  </g>
 </g>
 <g id="C- Components" transform="scale(1 -1)"/>
</svg>
