<?xml version="1.0" standalone="no"?>
<!DOCTYPE svg PUBLIC "-//W3C//DTD SVG 1.1//EN" "http://www.w3.org/Graphics/SVG/1.1/DTD/svg11.dtd">
<!--Generator: Xara Designer (www.xara.com), SVG filter version: 6.5.0.21-->
<svg fill="none" fill-rule="evenodd" stroke="black" stroke-width="0.501" stroke-linejoin="bevel" stroke-miterlimit="10" font-family="Times New Roman" font-size="16" style="font-variant-ligatures:none" xmlns:xlink="http://www.w3.org/1999/xlink" xmlns="http://www.w3.org/2000/svg" version="1.1" overflow="visible" width="73.5pt" height="72pt" viewBox="0 -72 73.5 72">
 <defs>
  <linearGradient id="LinearGradient" gradientUnits="userSpaceOnUse" x1="0" y1="0" x2="-9.446" y2="0.151" gradientTransform="translate(20.321 29.18)">
   <stop offset="0" stop-color="#ffffff"/>
   <stop offset="1" stop-color="#bcb9b9"/>
  </linearGradient>
  <linearGradient id="LinearGradient_1" gradientUnits="userSpaceOnUse" x1="0" y1="0" x2="9.75" y2="0.15" gradientTransform="translate(51.07 35.03)">
   <stop offset="0" stop-color="#ffffff"/>
   <stop offset="1" stop-color="#bcb9b9"/>
  </linearGradient>
  <linearGradient id="LinearGradient_2" gradientUnits="userSpaceOnUse" x1="0" y1="0" x2="8.601" y2="0" gradientTransform="translate(48.272 42.533) rotate(90)">
   <stop offset="0" stop-color="#ffffff"/>
   <stop offset="1" stop-color="#bcb9b9"/>
  </linearGradient>
  <linearGradient id="LinearGradient_3" gradientUnits="userSpaceOnUse" x1="0" y1="0" x2="8.54" y2="0" gradientTransform="translate(23.408 34.232) rotate(90)">
   <stop offset="0" stop-color="#ffffff"/>
   <stop offset="1" stop-color="#bcb9b9"/>
  </linearGradient>
  <linearGradient id="LinearGradient_4" gradientUnits="userSpaceOnUse" x1="0" y1="0" x2="0" y2="6.609" gradientTransform="translate(33.219 53.762)">
   <stop offset="0" stop-color="#ffffff"/>
   <stop offset="1" stop-color="#bcb9b9"/>
  </linearGradient>
 </defs>
 <g id="Cubes" transform="scale(1 -1)">
  <g id="Group" fill-rule="nonzero" stroke-linejoin="round">
   <g id="Group_1">
    <path d="M 11.338,23.051 L 11.338,39.672 L 20.047,33.231 L 20.047,16.611 L 11.338,23.051 Z" stroke-width="0.75" marker-start="none" marker-end="none" fill="url(#LinearGradient)"/>
    <path d="M 20.047,16.611 L 20.047,33.231 L 35.774,36.702 L 35.774,20.079 L 20.047,16.611 Z" fill="#ffffff" stroke-width="0.75" marker-start="none" marker-end="none"/>
    <path d="M 36.074,28.629 L 36.074,45.252 L 51.4,41.525 L 51.4,24.904 L 36.074,28.629 Z" fill="#ffffff" stroke-width="0.75" marker-start="none" marker-end="none"/>
    <path d="M 51.4,41.525 L 60.769,47.814 L 60.769,31.192 L 51.4,24.904 L 51.4,41.525 Z" stroke-width="0.75" marker-start="none" marker-end="none" fill="url(#LinearGradient_1)"/>
    <path d="M 36.293,45.299 L 36.272,45.313 L 45.605,51.5 L 60.769,47.814 L 51.4,41.525 L 36.074,45.252 L 36.293,45.299 Z" stroke-width="0.75" marker-start="none" marker-end="none" fill="url(#LinearGradient_2)"/>
    <path d="M 11.338,39.672 L 27.043,43.138 L 29.985,43.741 L 35.541,36.764 L 35.533,36.759 L 35.774,36.702 L 20.047,33.231 L 11.338,39.672 Z" stroke-width="0.75" marker-start="none" marker-end="none" fill="url(#LinearGradient_3)"/>
    <path d="M 42.364,53.363 L 42.475,60.702 L 42.475,44.08 L 42.455,42.95 L 42.364,36.741 L 42.364,53.363 Z" stroke="none" fill="#e0e0e0" stroke-width="0.25" marker-start="none" marker-end="none"/>
    <path d="M 24.303,60.746 L 42.475,60.702 L 42.364,53.363 L 24.193,53.407 L 24.303,60.746 Z" stroke-width="0.75" marker-start="none" marker-end="none" fill="url(#LinearGradient_4)"/>
    <path d="M 24.193,53.407 L 42.364,53.363 L 42.364,36.741 L 33.122,36.763 L 32.691,36.764 L 24.193,36.786 L 24.193,43.138 L 24.193,53.407 Z" fill="#ffffff" stroke-width="0.75" marker-start="none" marker-end="none"/>
   </g>
  </g>
 </g>
 <g id="G - Groups" transform="scale(1 -1)">
  <g id="Group_2" fill-rule="nonzero" stroke-linejoin="round" stroke-linecap="round" stroke-width="0.993" fill="#0003ff">
   <g id="Group_3">
    <g id="Group_4">
     <g id="Group_5">
      <path d="M 44.606,11.442 C 39.32,11.442 35.116,12.783 32.002,15.458 C 28.893,18.134 27.333,21.895 27.333,26.74 C 27.333,31.418 28.896,35.143 32.011,37.927 C 35.132,40.707 39.339,42.097 44.633,42.097 C 46.038,42.097 47.302,42.03 48.423,41.898 C 49.545,41.768 50.619,41.582 51.645,41.343 C 52.45,41.149 53.324,40.876 54.273,40.531 C 55.222,40.19 55.988,39.89 56.571,39.642 L 56.571,32.608 L 55.671,32.608 C 55.247,32.926 54.712,33.302 54.06,33.748 C 53.413,34.189 52.677,34.624 51.857,35.043 C 51.035,35.464 50.134,35.824 49.149,36.121 C 48.155,36.42 47.125,36.565 46.052,36.565 C 44.773,36.565 43.6,36.399 42.535,36.062 C 41.467,35.726 40.45,35.141 39.488,34.309 C 38.606,33.554 37.885,32.538 37.321,31.26 C 36.761,29.978 36.482,28.465 36.482,26.724 C 36.482,24.883 36.773,23.345 37.358,22.097 C 37.942,20.844 38.708,19.837 39.656,19.072 C 40.571,18.336 41.594,17.797 42.723,17.471 C 43.853,17.138 44.977,16.974 46.099,16.974 C 47.267,16.974 48.386,17.136 49.44,17.455 C 50.498,17.779 51.391,18.138 52.12,18.536 C 52.91,18.951 53.603,19.363 54.202,19.783 C 54.803,20.211 55.324,20.587 55.77,20.913 L 56.571,20.913 L 56.571,13.982 C 55.925,13.729 55.174,13.442 54.321,13.116 C 53.467,12.796 52.589,12.52 51.692,12.299 C 50.584,12.021 49.551,11.807 48.587,11.66 C 47.626,11.517 46.296,11.442 44.606,11.442 Z" marker-start="none" marker-end="none"/>
     </g>
    </g>
   </g>
  </g>
 </g>
 <g id="C- Components" transform="scale(1 -1)">
  <g id="Group_6" fill-rule="nonzero" stroke-linejoin="round" stroke-linecap="round" stroke-width="0.375" fill="#0003ff">
   <g id="Group_7">
    <g id="Group_8">
     <path d="M -10.086,30.219 C -11.756,30.219 -13.082,30.725 -14.065,31.735 C -15.048,32.744 -15.539,34.164 -15.539,35.994 C -15.539,37.76 -15.046,39.166 -14.062,40.217 C -13.077,41.266 -11.749,41.791 -10.078,41.791 C -9.633,41.791 -9.235,41.766 -8.881,41.716 C -8.527,41.666 -8.188,41.597 -7.864,41.507 C -7.609,41.433 -7.334,41.33 -7.034,41.2 C -6.735,41.07 -6.493,40.958 -6.309,40.864 L -6.309,38.209 L -6.593,38.209 C -6.727,38.329 -6.897,38.471 -7.101,38.639 C -7.306,38.806 -7.538,38.97 -7.797,39.128 C -8.057,39.287 -8.342,39.424 -8.653,39.535 C -8.966,39.649 -9.291,39.703 -9.629,39.703 C -10.033,39.703 -10.404,39.64 -10.74,39.513 C -11.077,39.386 -11.397,39.165 -11.702,38.851 C -11.98,38.566 -12.208,38.182 -12.386,37.699 C -12.563,37.216 -12.651,36.645 -12.651,35.988 C -12.651,35.293 -12.559,34.712 -12.374,34.241 C -12.19,33.769 -11.949,33.388 -11.649,33.099 C -11.36,32.821 -11.037,32.619 -10.681,32.495 C -10.324,32.369 -9.968,32.307 -9.615,32.307 C -9.246,32.307 -8.893,32.368 -8.56,32.489 C -8.226,32.611 -7.944,32.747 -7.714,32.897 C -7.465,33.052 -7.246,33.209 -7.057,33.368 C -6.867,33.528 -6.703,33.67 -6.562,33.794 L -6.309,33.794 L -6.309,31.178 C -6.513,31.082 -6.75,30.975 -7.019,30.852 C -7.289,30.729 -7.566,30.626 -7.849,30.542 C -8.199,30.437 -8.525,30.358 -8.829,30.301 C -9.133,30.247 -9.553,30.219 -10.086,30.219 Z" marker-start="none" marker-end="none"/>
    </g>
   </g>
  </g>
 </g>
</svg>
