<?xml version="1.0" encoding="UTF-8" standalone="no"?>
<svg width="24px" height="24px" viewBox="0 0 24 24" version="1.1" xmlns="http://www.w3.org/2000/svg" xmlns:xlink="http://www.w3.org/1999/xlink" xmlns:sketch="http://www.bohemiancoding.com/sketch/ns">
    <!-- Generator: Sketch 3.3.1 (12002) - http://www.bohemiancoding.com/sketch -->
    <title>tb_nextview</title>
    <desc>Created with Sketch.</desc>
    <defs></defs>
    <g id="Page-1" stroke="none" stroke-width="1" fill="none" fill-rule="evenodd" sketch:type="MSPage">
        <g id="tb_nextview" sketch:type="MSArtboardGroup">
            <g id="Group" sketch:type="MSLayerGroup" transform="translate(3.000000, 3.000000)">
                <path d="M4.50864983,9.515625 L5.21080368,10.0024512 L6.92251456,10.6993813 L8.953125,11.1605851 L6.92251456,12.9941513 L8.953125,15.75 L6.92251456,15.2887962 L5.21080368,14.5919911 L3.93433072,13.7069548 L3.18006829,12.6940564 L3,11.6222888 L3.40562224,10.5647698 L4.36981856,9.59361718 L4.50864983,9.515625 L4.50864983,9.515625 Z" id="Fill-1438" fill="#1293F5" sketch:type="MSShapeGroup"></path>
                <path d="M4.50864983,9.515625 L5.21080368,10.0024512 L6.92251456,10.6993813 L8.953125,11.1605851 L6.92251456,12.9941513 L8.953125,15.75 L6.92251456,15.2887962 L5.21080368,14.5919911 L3.93433072,13.7069548 L3.18006829,12.6940564 L3,11.6222888 L3.40562224,10.5647698 L4.36981856,9.59361718 L4.50864983,9.515625 L4.50864983,9.515625 Z" id="Stroke-1439" stroke="#000000" stroke-width="0.5" stroke-linecap="round" stroke-linejoin="round" sketch:type="MSShapeGroup"></path>
                <path d="M9.890625,8.66441551 L6.42445697,12.234375 L5.859375,11.6794597 L9.32554303,8.109375 L9.890625,8.66441551 L9.890625,8.66441551 Z" id="Fill-1553" fill="#212222" sketch:type="MSShapeGroup"></path>
                <path d="M9.890625,8.66441551 L6.42445697,12.234375 L5.859375,11.6794597 L9.32554303,8.109375 L9.890625,8.66441551 L9.890625,8.66441551 Z" id="Stroke-1554" stroke="#FFFFFF" stroke-width="1.5" stroke-linecap="round" stroke-linejoin="round" sketch:type="MSShapeGroup"></path>
                <path d="M15.3715077,2.40391307 C17.3429325,4.32887322 17.3805144,7.4939206 15.4553155,9.46523212 C13.5303672,11.4366689 10.3654645,11.4742511 8.39403973,9.5491657 C6.42274029,7.62420555 6.38515832,4.45915817 8.31010667,2.48784664 C10.235055,0.516535119 13.400083,0.478827647 15.3715077,2.40391307 L15.3715077,2.40391307 Z" id="Fill-1555" fill="#212222" sketch:type="MSShapeGroup"></path>
                <path d="M15.3715077,2.40391307 C17.3429325,4.32887322 17.3805144,7.4939206 15.4553155,9.46523212 C13.5303672,11.4366689 10.3654645,11.4742511 8.39403973,9.5491657 C6.42274029,7.62420555 6.38515832,4.45915817 8.31010667,2.48784664 C10.235055,0.516535119 13.400083,0.478827647 15.3715077,2.40391307 L15.3715077,2.40391307 Z" id="Stroke-1556" stroke="#FFFFFF" stroke-width="1.5" stroke-linecap="round" stroke-linejoin="round" sketch:type="MSShapeGroup"></path>
                <path d="M7.62991784,12.0022635 L3.02722319,16.7044914 C2.56776836,17.1739516 1.81379121,17.1828282 1.34330746,16.7244951 L1.34330746,16.7244951 C0.872698381,16.2661619 0.863674718,15.5140255 1.32325488,15.0445653 L5.92594953,10.3423374 C6.38552968,9.8730023 7.13938151,9.86400067 7.60986526,10.3223338 L7.60986526,10.3223338 C8.08047434,10.7806669 8.08937267,11.5328034 7.62991784,12.0022635 L7.62991784,12.0022635 Z" id="Fill-1557" fill="#212222" sketch:type="MSShapeGroup"></path>
                <path d="M7.62991784,12.0022635 L3.02722319,16.7044914 C2.56776836,17.1739516 1.81379121,17.1828282 1.34330746,16.7244951 L1.34330746,16.7244951 C0.872698381,16.2661619 0.863674718,15.5140255 1.32325488,15.0445653 L5.92594953,10.3423374 C6.38552968,9.8730023 7.13938151,9.86400067 7.60986526,10.3223338 L7.60986526,10.3223338 C8.08047434,10.7806669 8.08937267,11.5328034 7.62991784,12.0022635 L7.62991784,12.0022635 Z" id="Stroke-1558" stroke="#FFFFFF" stroke-width="1.5" stroke-linecap="round" stroke-linejoin="round" sketch:type="MSShapeGroup"></path>
                <path d="M14.7819023,3.0544783 C16.419988,4.6542253 16.4513431,7.28445122 14.851733,8.92242425 C13.252123,10.5606471 10.6220418,10.5920025 8.98370632,8.99225547 C7.34562069,7.39263339 7.31426559,4.76253239 8.91400054,3.12430951 C10.5136106,1.48621156 13.1438167,1.45498114 14.7819023,3.0544783 L14.7819023,3.0544783 Z" id="Fill-1559" fill="#A8D4FA" sketch:type="MSShapeGroup"></path>
                <path d="M14.7819023,3.0544783 C16.419988,4.6542253 16.4513431,7.28445122 14.851733,8.92242425 C13.252123,10.5606471 10.6220418,10.5920025 8.98370632,8.99225547 C7.34562069,7.39263339 7.31426559,4.76253239 8.91400054,3.12430951 C10.5136106,1.48621156 13.1438167,1.45498114 14.7819023,3.0544783 L14.7819023,3.0544783 Z" id="Stroke-1560" stroke="#FFFFFF" stroke-width="1.5" stroke-linecap="round" stroke-linejoin="round" sketch:type="MSShapeGroup"></path>
                <path d="M14.2789212,3.57133084 C15.593183,4.85464967 15.618238,6.96478463 14.3349192,8.27892116 C13.0516003,9.59318297 10.9415906,9.618238 9.62732884,8.33491916 C8.31306703,7.05160033 8.288012,4.94159064 9.57133084,3.62732884 C10.8546497,2.31306703 12.9647846,2.288012 14.2789212,3.57133084 L14.2789212,3.57133084 Z" id="Fill-1561" fill="#8AAECD" sketch:type="MSShapeGroup"></path>
                <path d="M14.2789212,3.57133084 C15.593183,4.85464967 15.618238,6.96478463 14.3349192,8.27892116 C13.0516003,9.59318297 10.9415906,9.618238 9.62732884,8.33491916 C8.31306703,7.05160033 8.288012,4.94159064 9.57133084,3.62732884 C10.8546497,2.31306703 12.9647846,2.288012 14.2789212,3.57133084 L14.2789212,3.57133084 Z" id="Stroke-1562" stroke="#FFFFFF" stroke-width="1.5" stroke-linecap="round" stroke-linejoin="round" sketch:type="MSShapeGroup"></path>
                <path d="M6.80630825,11.4209794 L2.57378919,15.7491245 C2.33234179,15.9960904 1.93597295,16.0008349 1.68864879,15.7597373 L1.68864879,15.7597373 C1.44132464,15.5186397 1.43657321,15.12297 1.67802061,14.8760041 L5.91053967,10.5477341 C6.15198706,10.3007683 6.54835591,10.2960237 6.79568006,10.5372462 L6.79568006,10.5372462 C7.04312926,10.7783438 7.04775565,11.1740135 6.80630825,11.4209794 L6.80630825,11.4209794 Z" id="Fill-1563" fill="#3A3C3D" sketch:type="MSShapeGroup"></path>
                <path d="M6.80630825,11.4209794 L2.57378919,15.7491245 C2.33234179,15.9960904 1.93597295,16.0008349 1.68864879,15.7597373 L1.68864879,15.7597373 C1.44132464,15.5186397 1.43657321,15.12297 1.67802061,14.8760041 L5.91053967,10.5477341 C6.15198706,10.3007683 6.54835591,10.2960237 6.79568006,10.5372462 L6.79568006,10.5372462 C7.04312926,10.7783438 7.04775565,11.1740135 6.80630825,11.4209794 L6.80630825,11.4209794 Z" id="Stroke-1564" stroke="#FFFFFF" stroke-width="1.5" stroke-linecap="round" stroke-linejoin="round" sketch:type="MSShapeGroup"></path>
                <path d="M11.671875,3.890625 C10.4864257,3.93841482 9.56383034,4.94575427 9.61111428,6.140625" id="Stroke-1565" stroke="#FFFFFF" stroke-width="1.5" stroke-linecap="round" stroke-linejoin="round" sketch:type="MSShapeGroup"></path>
                <path d="M9.890625,8.66441551 L6.42445697,12.234375 L5.859375,11.6794597 L9.32554303,8.109375 L9.890625,8.66441551 L9.890625,8.66441551 Z" id="Fill-1566" fill="#212222" sketch:type="MSShapeGroup"></path>
                <path d="M9.890625,8.66441551 L6.42445697,12.234375 L5.859375,11.6794597 L9.32554303,8.109375 L9.890625,8.66441551 L9.890625,8.66441551 Z" id="Stroke-1567" stroke="#212222" stroke-width="0.5" stroke-linecap="round" stroke-linejoin="round" sketch:type="MSShapeGroup"></path>
                <path d="M15.3715077,2.40391307 C17.3429325,4.32887322 17.3805144,7.4939206 15.4553155,9.46523212 C13.5303672,11.4366689 10.3654645,11.4742511 8.39403973,9.5491657 C6.42274029,7.62420555 6.38515832,4.45915817 8.31010667,2.48784664 C10.235055,0.516535119 13.400083,0.478827647 15.3715077,2.40391307 L15.3715077,2.40391307 Z" id="Fill-1568" fill="#212222" sketch:type="MSShapeGroup"></path>
                <path d="M15.3715077,2.40391307 C17.3429325,4.32887322 17.3805144,7.4939206 15.4553155,9.46523212 C13.5303672,11.4366689 10.3654645,11.4742511 8.39403973,9.5491657 C6.42274029,7.62420555 6.38515832,4.45915817 8.31010667,2.48784664 C10.235055,0.516535119 13.400083,0.478827647 15.3715077,2.40391307 L15.3715077,2.40391307 Z" id="Stroke-1569" stroke="#212222" stroke-width="0.5" stroke-linecap="round" stroke-linejoin="round" sketch:type="MSShapeGroup"></path>
                <path d="M7.62991784,12.0022635 L3.02722319,16.7044914 C2.56776836,17.1739516 1.81379121,17.1828282 1.34330746,16.7244951 L1.34330746,16.7244951 C0.872698381,16.2661619 0.863674718,15.5140255 1.32325488,15.0445653 L5.92594953,10.3423374 C6.38552968,9.8730023 7.13938151,9.86400067 7.60986526,10.3223338 L7.60986526,10.3223338 C8.08047434,10.7806669 8.08937267,11.5328034 7.62991784,12.0022635 L7.62991784,12.0022635 Z" id="Fill-1570" fill="#212222" sketch:type="MSShapeGroup"></path>
                <path d="M7.62991784,12.0022635 L3.02722319,16.7044914 C2.56776836,17.1739516 1.81379121,17.1828282 1.34330746,16.7244951 L1.34330746,16.7244951 C0.872698381,16.2661619 0.863674718,15.5140255 1.32325488,15.0445653 L5.92594953,10.3423374 C6.38552968,9.8730023 7.13938151,9.86400067 7.60986526,10.3223338 L7.60986526,10.3223338 C8.08047434,10.7806669 8.08937267,11.5328034 7.62991784,12.0022635 L7.62991784,12.0022635 Z" id="Stroke-1571" stroke="#212222" stroke-width="0.5" stroke-linecap="round" stroke-linejoin="round" sketch:type="MSShapeGroup"></path>
                <path d="M14.7819023,3.0544783 C16.419988,4.6542253 16.4513431,7.28445122 14.851733,8.92242425 C13.252123,10.5606471 10.6220418,10.5920025 8.98370632,8.99225547 C7.34562069,7.39263339 7.31426559,4.76253239 8.91400054,3.12430951 C10.5136106,1.48621156 13.1438167,1.45498114 14.7819023,3.0544783 L14.7819023,3.0544783 Z" id="Fill-1572" fill="#A8D4FA" sketch:type="MSShapeGroup"></path>
                <path d="M14.2789212,3.57133084 C15.593183,4.85464967 15.618238,6.96478463 14.3349192,8.27892116 C13.0516003,9.59318297 10.9415906,9.618238 9.62732884,8.33491916 C8.31306703,7.05160033 8.288012,4.94159064 9.57133084,3.62732884 C10.8546497,2.31306703 12.9647846,2.288012 14.2789212,3.57133084 L14.2789212,3.57133084 Z" id="Fill-1573" fill="#8AAECD" sketch:type="MSShapeGroup"></path>
                <path d="M6.80630825,11.4209794 L2.57378919,15.7491245 C2.33234179,15.9960904 1.93597295,16.0008349 1.68864879,15.7597373 L1.68864879,15.7597373 C1.44132464,15.5186397 1.43657321,15.12297 1.67802061,14.8760041 L5.91053967,10.5477341 C6.15198706,10.3007683 6.54835591,10.2960237 6.79568006,10.5372462 L6.79568006,10.5372462 C7.04312926,10.7783438 7.04775565,11.1740135 6.80630825,11.4209794 L6.80630825,11.4209794 Z" id="Fill-1574" fill="#3A3C3D" sketch:type="MSShapeGroup"></path>
                <path d="M11.671875,3.890625 C10.4864257,3.93841482 9.56383034,4.94575427 9.61111428,6.140625" id="Stroke-1575" stroke="#9FD4FC" stroke-width="1.375" stroke-linecap="round" stroke-linejoin="round" sketch:type="MSShapeGroup"></path>
                <path d="M9.797,3.44780457 L9.797,0.984375 L14.25,5.85134261 L9.797,10.5025007 L9.797,8.03907112 L7.67875,8.39979563 L5.827875,9.01058913 L4.509125,9.7517936 L4.37025,9.82969009 L3.934625,10.2688112 L3.40575,10.8012081 L3.180125,11.3892453 L3,11.859375 L3,7.26798341 L3.40575,6.2101916 L4.37025,5.23854857 L5.827875,4.41944761 L7.67875,3.80865411 L9.797,3.44780457 L9.797,3.44780457 Z" id="Fill-22442" fill="#1293F5" sketch:type="MSShapeGroup"></path>
                <path d="M9.797,3.44780457 L9.797,0.984375 L14.25,5.85134261 L9.797,10.5025007 L9.797,8.03907112 L7.67875,8.39979563 L5.827875,9.01058913 L4.509125,9.7517936 L4.37025,9.82969009 L3.934625,10.2688112 L3.40575,10.8012081 L3.180125,11.3892453 L3,11.859375 L3,7.26798341 L3.40575,6.2101916 L4.37025,5.23854857 L5.827875,4.41944761 L7.67875,3.80865411 L9.797,3.44780457 L9.797,3.44780457 Z" id="Stroke-22443" stroke="#FFFFFF" stroke-width="1.5" stroke-linecap="round" stroke-linejoin="round" sketch:type="MSShapeGroup"></path>
                <path d="M9.797,3.44780457 L9.797,0.984375 L14.25,5.85134261 L9.797,10.5025007 L9.797,8.03907112 L7.67875,8.39979563 L5.827875,9.01058913 L4.509125,9.7517936 L4.37025,9.82969009 L3.934625,10.2688112 L3.40575,10.8012081 L3.180125,11.3892453 L3,11.859375 L3,7.26798341 L3.40575,6.2101916 L4.37025,5.23854857 L5.827875,4.41944761 L7.67875,3.80865411 L9.797,3.44780457 L9.797,3.44780457 Z" id="Fill-23192" fill="#1293F5" sketch:type="MSShapeGroup"></path>
                <path d="M9.797,3.44780457 L9.797,0.984375 L14.25,5.85134261 L9.797,10.5025007 L9.797,8.03907112 L7.67875,8.39979563 L5.827875,9.01058913 L4.509125,9.7517936 L4.37025,9.82969009 L3.934625,10.2688112 L3.40575,10.8012081 L3.180125,11.3892453 L3,11.859375 L3,7.26798341 L3.40575,6.2101916 L4.37025,5.23854857 L5.827875,4.41944761 L7.67875,3.80865411 L9.797,3.44780457 L9.797,3.44780457 Z" id="Stroke-23193" stroke="#000000" stroke-width="0.5" stroke-linecap="round" stroke-linejoin="round" sketch:type="MSShapeGroup"></path>
            </g>
        </g>
    </g>
</svg>