<?xml version="1.0" encoding="UTF-8" standalone="no"?>
<svg width="24px" height="24px" viewBox="0 0 24 24" version="1.1" xmlns="http://www.w3.org/2000/svg" xmlns:xlink="http://www.w3.org/1999/xlink" xmlns:sketch="http://www.bohemiancoding.com/sketch/ns">
    <!-- Generator: Sketch 3.3.1 (12002) - http://www.bohemiancoding.com/sketch -->
    <title>tb_offset</title>
    <desc>Created with Sketch.</desc>
    <defs></defs>
    <g id="Page-1" stroke="none" stroke-width="1" fill="none" fill-rule="evenodd" sketch:type="MSPage">
        <g id="tb_offset" sketch:type="MSArtboardGroup">
            <g id="Group" sketch:type="MSLayerGroup" transform="translate(3.000000, 3.000000)">
                <path d="M0.75,3.57298434 C4.51400755,-0.190986456 10.6162679,-0.191011432 14.3802754,3.57300932 C18.1441581,7.33688022 18.1440332,13.4393165 14.3801506,17.203125" id="Stroke-157" stroke="#FB0011" stroke-linecap="round" stroke-linejoin="round" sketch:type="MSShapeGroup"></path>
                <path d="M2.390625,10.4345323 C2.39050001,7.7957464 4.37075204,5.57837301 6.99021439,5.28286001 C9.60967673,4.9877849 12.0330263,6.70891666 12.6194898,9.28158125 C13.2058284,11.8539956 11.7680427,14.4570122 9.27969722,15.328125" id="Stroke-158" stroke="#000000" stroke-width="0.75" stroke-linecap="round" stroke-linejoin="round" sketch:type="MSShapeGroup"></path>
                <path d="M16.03125,2.015625 L14.0927143,9.12386608 L12.7999822,7.83152677 L9.56883939,11.0625 L6.984375,8.47769642 L10.2151429,5.24672319 L8.92266081,3.95413396 L16.03125,2.015625 L16.03125,2.015625 Z" id="Fill-30531" fill="#FB0011" sketch:type="MSShapeGroup"></path>
                <path d="M16.03125,2.015625 L14.0927143,9.12389642 L12.7999822,7.83146072 L9.56883939,11.0625 L6.984375,8.47767857 L10.2151429,5.24668927 L8.92266081,3.95412861 L16.03125,2.015625 L16.03125,2.015625 Z" id="Stroke-30532" stroke="#000000" stroke-width="0.75" stroke-linecap="round" stroke-linejoin="round" sketch:type="MSShapeGroup"></path>
            </g>
        </g>
    </g>
</svg>