<?xml version="1.0" encoding="UTF-8" standalone="no"?>
<svg width="24px" height="24px" viewBox="0 0 24 24" version="1.1" xmlns="http://www.w3.org/2000/svg" xmlns:xlink="http://www.w3.org/1999/xlink" xmlns:sketch="http://www.bohemiancoding.com/sketch/ns">
    <!-- Generator: Sketch 3.3.1 (12002) - http://www.bohemiancoding.com/sketch -->
    <title>tb_outershell</title>
    <desc>Created with Sketch.</desc>
    <defs></defs>
    <g id="Page-1" stroke="none" stroke-width="1" fill="none" fill-rule="evenodd" sketch:type="MSPage">
        <g id="tb_outershell" sketch:type="MSArtboardGroup">
            <g id="Group" sketch:type="MSLayerGroup" transform="translate(3.000000, 5.000000)">
                <path d="M2.80906699,11.03125 L1.734375,8.3082565 L6.64149242,7.234375 L6.984375,10.0530867 L2.80906699,11.03125" id="Fill-3696" fill="#56554A" sketch:type="MSShapeGroup"></path>
                <path d="M1.7503167,8.36655005 L0.75,1.49908654 L8.86535466,0.015625 L9.81802892,2.4495318 L13.8722013,1.6511488 L17.4375,8.58342901 L7.63260697,10.9375 L6.65329889,7.29073762 L1.7503167,8.36655005" id="Fill-3697" fill="#7C7A6B" sketch:type="MSShapeGroup"></path>
                <path d="M17.4375,8.640625 L16.1918243,11.3510878 L7.85672777,13.46875 L7.640625,10.9970057 L17.4375,8.640625" id="Fill-3698" fill="#56554A" sketch:type="MSShapeGroup"></path>
                <path d="M7.60765535,10.8957702 L7.828125,13.375 L6.95860574,10.0694856 L6.609375,7.234375 L7.60765535,10.8957702" id="Fill-3699" fill="#94927F" sketch:type="MSShapeGroup"></path>
                <path d="M1.734375,8.3125 L6.65625,7.234375" id="Stroke-3700" stroke="#000000" stroke-width="0.5" stroke-linecap="round" stroke-linejoin="round" sketch:type="MSShapeGroup"></path>
                <path d="M6.609375,7.234375 L7.58841509,10.890625 L17.390625,8.53045897" id="Stroke-3701" stroke="#000000" stroke-width="0.5" stroke-linecap="round" stroke-linejoin="round" sketch:type="MSShapeGroup"></path>
                <path id="Stroke-3702" stroke="#000000" stroke-width="0.5" stroke-linecap="round" stroke-linejoin="round" sketch:type="MSShapeGroup" d="M6.609375,7.234375 L6.9375,10.046875"></path>
                <path id="Stroke-3703" stroke="#000000" stroke-width="0.5" stroke-linecap="round" stroke-linejoin="round" sketch:type="MSShapeGroup" d="M7.875,13.375 L7.640625,10.890625"></path>
                <path d="M8.859375,0.015625 L0.75,1.515625" id="Stroke-3704" stroke="#000000" stroke-width="0.5" stroke-linecap="round" stroke-linejoin="round" sketch:type="MSShapeGroup"></path>
                <path d="M2.765625,11.125 L6.9375,10.140625" id="Stroke-3705" stroke="#000000" stroke-width="0.5" stroke-linecap="round" stroke-linejoin="round" sketch:type="MSShapeGroup"></path>
                <path d="M2.8125,11.078125 L1.734375,8.359375" id="Stroke-3706" stroke="#000000" stroke-width="0.5" stroke-linecap="round" stroke-linejoin="round" sketch:type="MSShapeGroup"></path>
                <path d="M9.796875,2.453125 L8.859375,0.015625" id="Stroke-3707" stroke="#000000" stroke-width="0.5" stroke-linecap="round" stroke-linejoin="round" sketch:type="MSShapeGroup"></path>
                <path d="M0.75,1.515625 L1.734375,8.40625" id="Stroke-3708" stroke="#000000" stroke-width="0.5" stroke-linecap="round" stroke-linejoin="round" sketch:type="MSShapeGroup"></path>
                <path d="M13.828125,1.609375 L9.75,2.40625" id="Stroke-3709" stroke="#000000" stroke-width="0.5" stroke-linecap="round" stroke-linejoin="round" sketch:type="MSShapeGroup"></path>
                <path d="M17.4375,8.546875 L13.875,1.609375" id="Stroke-3710" stroke="#000000" stroke-width="0.5" stroke-linecap="round" stroke-linejoin="round" sketch:type="MSShapeGroup"></path>
                <path d="M7.875,13.375 L16.21875,11.265625" id="Stroke-3711" stroke="#000000" stroke-width="0.5" stroke-linecap="round" stroke-linejoin="round" sketch:type="MSShapeGroup"></path>
                <path d="M6.984375,10.140625 L7.828125,13.421875" id="Stroke-3712" stroke="#000000" stroke-width="0.5" stroke-linecap="round" stroke-linejoin="round" sketch:type="MSShapeGroup"></path>
                <path d="M16.125,11.359375 L17.390625,8.640625" id="Stroke-3713" stroke="#000000" stroke-width="0.5" stroke-linecap="round" stroke-linejoin="round" sketch:type="MSShapeGroup"></path>
                <path d="M9.71270358,2.359375 L11.203125,6.16785733 L6.55705461,7.1875 L5.484375,3.19215783 L9.71270358,2.359375 L9.71270358,2.359375 Z" id="Stroke-23286" stroke="#000000" stroke-width="0.5" sketch:type="MSShapeGroup"></path>
            </g>
        </g>
    </g>
</svg>