<?xml version="1.0" encoding="UTF-8" standalone="no"?>
<svg width="24px" height="24px" viewBox="0 0 24 24" version="1.1" xmlns="http://www.w3.org/2000/svg" xmlns:xlink="http://www.w3.org/1999/xlink" xmlns:sketch="http://www.bohemiancoding.com/sketch/ns">
    <!-- Generator: Sketch 3.3.1 (12002) - http://www.bohemiancoding.com/sketch -->
    <title>tb_protractor</title>
    <desc>Created with Sketch.</desc>
    <defs></defs>
    <g id="Page-1" stroke="none" stroke-width="1" fill="none" fill-rule="evenodd" sketch:type="MSPage">
        <g id="tb_protractor" sketch:type="MSArtboardGroup">
            <g id="Group" sketch:type="MSLayerGroup" transform="translate(4.000000, 4.000000)">
                <path d="M14.328125,3.58790185 L13.4108284,4.671875 L12.265625,4.17452407 L13.2087485,3.125 L14.328125,3.58790185" id="Fill-1818" fill="#FFEE2F" sketch:type="MSShapeGroup"></path>
                <path d="M13.2229467,3.17852417 L12.2865159,4.24097463 L11.2792836,5.38379636 L10.1927437,6.61636389 L9.0172641,7.95005172 L7.74133649,9.39760923 L6.35177627,10.9741607 L4.83237165,12.6978304 L3.31269184,14.421875 L2.19111394,13.3954229 L3.68900292,12.3863449 L2.4667143,10.4493102 L2,8.47965203 L2.21056558,6.6312382 L2.98369015,5.00568898 L4.19759767,3.66200163 L5.74041931,2.62929977 L7.51579753,1.91958286 L9.44169767,1.53547576 L11.4466553,1.47697849 L13.4631213,1.74409104 L13.740573,1.015625 L14.84375,1.33973489 L14.0957062,2.18844532 L13.2229467,3.17852417 M4.292967,5.34817302 L3.70331332,6.72435886 L3.5987498,8.26216217 L4.05735821,9.8700872 L4.52739994,10.5558052 L12.2169653,2.388436 L11.4376487,2.28206596 L9.71527156,2.33381355 L8.0671984,2.67279774 L6.56235436,3.29551871 L5.2763069,4.19360184 L4.292967,5.34817302 M7.91133508,8.94913014 L7.90257872,8.97112911 L7.87055544,8.9972529 L7.84628779,9.01712697 L7.83152706,9.05375026 L7.85842162,9.08349888 L7.90770745,9.0893736 L7.95374091,9.0637498 L8.00140056,8.9972529 L8.03992857,8.94863016 L8.1127315,8.87388365 L8.16501951,8.82463594 L8.18515916,8.78126297 L8.15914024,8.74913946 L8.1141075,8.73838996 L8.07708058,8.75963897 L8.04268057,8.81326147 L8.01178311,8.82888575 L7.96662528,8.82188607 L7.8918209,8.78463781 L7.7688565,8.71776593 L7.83853216,8.7055165 L7.90107763,8.68251757 L7.95649291,8.64864415 L8.00490311,8.60402123 L8.04893512,8.54302407 L8.07370313,8.48090197 L8.07895695,8.41752992 L8.06494676,8.35290794 L8.0326733,8.28966088 L7.98326238,8.23053864 L7.91646381,8.17541621 L7.83277797,8.1241686 L7.74784122,8.08479543 L7.66428047,8.05854666 L7.58222082,8.04517228 L7.50153716,8.04492229 L7.4249815,8.05729672 L7.35555603,8.08204556 L7.29301056,8.11916883 L7.23759527,8.16891651 L7.19681562,8.22428893 L7.17529998,8.28166126 L7.17317343,8.34115848 L7.19056108,8.40278061 L7.14415234,8.37753179 L7.10725051,8.36803223 L7.07735377,8.38390649 L7.05321122,8.41340512 L7.02794285,8.44427868 L6.9859248,8.48477679 L6.95908029,8.51140055 L6.93566326,8.55564848 L6.9588176,8.587397 L7.00465092,8.59652158 L7.04608104,8.57127276 L7.06484468,8.54264909 L7.08235741,8.51527537 L7.11925924,8.50265095 L7.17680107,8.52202505 L7.7425874,8.83313555 L7.89807544,8.92763114 L7.91133508,8.94913014 M8.26846972,8.13254321 L8.25145736,8.14666755 L8.23194317,8.16104188 L8.21543116,8.17716613 L8.19791843,8.21516436 L8.22256135,8.24403801 L8.27134681,8.25303759 L8.31525374,8.22528889 L8.36416429,8.158542 L8.42433304,8.08654535 L8.52515634,7.99067482 L8.52915925,7.98617503 L8.54679707,7.94542693 L8.51852652,7.9139284 L8.47562032,7.90430385 L8.4400945,7.9246779 L8.42558395,7.94805181 L8.40469376,7.98105027 L8.38768139,7.9911748 L8.36316357,7.99304971 L8.29048573,7.97142572 L8.1804057,7.91492835 L8.08458604,7.86430571 L7.9787591,7.80180863 L7.91296127,7.74756116 L7.88531617,7.70656307 L7.87680998,7.66519 L7.88731762,7.62344194 L7.91671399,7.5814439 L7.95886964,7.54744549 L8.00878093,7.5278214 L8.05981803,7.52382159 L8.1044755,7.53707097 L8.12999405,7.5600699 L8.11285659,7.57194434 L8.10297441,7.6115675 L8.13199551,7.64619088 L8.16264279,7.65581543 L8.19679261,7.65456549 L8.22969153,7.64306603 L8.25571045,7.62269198 L8.27797663,7.58219387 L8.27359845,7.53919587 L8.24445226,7.49769781 L8.19266461,7.46194947 L8.10109804,7.43145089 L8.00427765,7.43282583 L7.91221072,7.46457435 L7.83465434,7.52544651 L7.79975396,7.57356927 L7.78224123,7.62381693 L7.78211614,7.67643947 L7.79962887,7.73143691 L7.76072559,7.71093786 L7.72407394,7.70206328 L7.69442739,7.71818753 L7.67804048,7.74031149 L7.65452338,7.7703101 L7.58634882,7.83230721 L7.56608408,7.87455524 L7.59272845,7.90655374 L7.63575974,7.91592831 L7.67253648,7.8946793 L7.70856267,7.84168177 L7.7260754,7.83130725 L7.75109359,7.82980732 L7.82389652,7.85368121 L8.15601297,8.02492323 L8.22831553,8.06654629 L8.27097154,8.10204463 L8.26846972,8.13254321 M8.22844062,7.35582942 L8.27409882,7.41095185 L8.33664429,7.46232445 L8.41607703,7.50994723 L8.50339051,7.54907041 L8.58970326,7.57519419 L8.67489019,7.58819359 L8.75882622,7.5879436 L8.83813387,7.57481921 L8.90918553,7.5493204 L8.97210627,7.51132217 L9.02664592,7.46107451 L9.06917684,7.40257724 L9.09306921,7.34308001 L9.09832303,7.28270783 L9.08506339,7.22146068 L9.05441611,7.16196346 L9.0076321,7.10684103 L8.94471136,7.05609339 L8.86552879,7.00947057 L8.77934113,6.97159733 L8.69477965,6.94672349 L8.61184436,6.93459906 L8.53041016,6.93522403 L8.45335414,6.9485984 L8.38305303,6.9743472 L8.31975701,7.01272042 L8.26334099,7.06346805 L8.22018462,7.1202154 L8.19516643,7.17796271 L8.18828643,7.23695996 L8.19954461,7.29708216 L8.22844062,7.35582942 M8.7369353,6.59773976 L8.71879711,6.60886424 L8.69865747,6.6054894 L8.54842325,6.52974293 L8.49988797,6.51874344 L8.46098468,6.53949248 L8.44647413,6.57586578 L8.47699632,6.60611437 L8.62185163,6.67936096 L8.63786328,6.69386028 L8.63248436,6.71035951 L8.59533235,6.75035765 L8.58832726,6.78248115 L8.61372072,6.8113548 L8.65987928,6.81885445 L8.69990838,6.79898038 L8.73043057,6.76598192 L8.75144585,6.75498243 L8.77821531,6.76135713 L9.11996377,6.93422407 L9.23479725,6.98284681 L9.32423727,6.99959603 L9.3750242,6.99497124 L9.42180821,6.97984695 L9.46496458,6.95397315 L9.50411805,6.91759985 L9.5365166,6.87297693 L9.55265333,6.82960395 L9.55277843,6.78748092 L9.53676678,6.74660782 L9.47109404,6.68248581 L9.34587801,6.60948921 L9.28858636,6.59398994 L9.26619508,6.5989897 L9.2479318,6.61261407 L9.23779943,6.64698747 L9.2728249,6.67861099 L9.36213983,6.72635877 L9.40992457,6.75873226 L9.43494276,6.79235569 L9.43681912,6.82697907 L9.41580384,6.86272741 L9.37827656,6.88935117 L9.32986637,6.89760078 L9.27069835,6.88722627 L9.20089761,6.8586026 L8.85114333,6.68223582 L8.83212951,6.66748651 L8.83463133,6.65298719 L8.93808154,6.54074242 L8.95384299,6.50299418 L8.92444662,6.47299558 L8.87853825,6.46424599 L8.83950987,6.48686993 L8.7369353,6.59773976 M9.2907129,6.09438823 L9.32949109,6.06338967 L9.37652529,6.04539051 L9.42506057,6.04176568 L9.46834204,6.05389012 L9.4937355,6.07488914 L9.47772386,6.08563864 L9.46971804,6.12201194 L9.49898932,6.15351047 L9.52851078,6.16226006 L9.56128461,6.16113512 L9.59218207,6.15063561 L9.61632462,6.13201147 L9.6359639,6.09513819 L9.63008463,6.05576503 L9.60056316,6.01789179 L9.54965115,5.98514332 L9.46096167,5.95739461 L9.36851947,5.95864456 L9.28170635,5.9876432 L9.21015433,6.04326561 L9.17850633,6.08713857 L9.1637456,6.13313642 L9.16574705,6.18125918 L9.18451069,6.23138184 L9.14673323,6.21275771 L9.11133249,6.20463309 L9.0835623,6.21913241 L9.06880157,6.23950646 L9.04753611,6.26688019 L8.98486555,6.32350255 L8.96710263,6.36200075 L8.9938721,6.39112439 L9.03540229,6.39974899 L9.06955212,6.3803749 L9.10207576,6.33187716 L9.11821249,6.32250259 L9.14222995,6.32112766 L9.21265615,6.34300164 L9.5365166,6.49924435 L9.60731808,6.53724258 L9.64934863,6.56949108 L9.64809772,6.59723978 L9.63246136,6.61011418 L9.61444826,6.62336357 L9.59918716,6.63798789 L9.58392607,6.67261127 L9.60856899,6.69898504 L9.65560318,6.70723466 L9.69638283,6.68186084 L9.74053993,6.62098868 L9.79520467,6.55536674 L9.88777197,6.46787082 L9.89139961,6.463871 L9.90678579,6.42662274 L9.87864033,6.39787408 L9.83723523,6.38912449 L9.80408613,6.40774862 L9.79107667,6.42899763 L9.77231303,6.45912122 L9.75667666,6.46849579 L9.73315956,6.47012071 L9.66298354,6.45037163 L9.55553043,6.39874904 L9.46208749,6.35262619 L9.35851219,6.29562885 L9.29358999,6.24613115 L9.26544453,6.2086329 L9.25568744,6.17088466 L9.26419362,6.13276144 L9.2907129,6.09438823 M9.71939956,5.91602154 L9.74704466,5.89577249 L9.76055448,5.87389851 L9.76155521,5.85127456 L9.7506723,5.83077552 L9.72840611,5.81477626 L9.69663301,5.80440175 L9.66848755,5.80552669 L9.64647154,5.80740161 L9.63058499,5.77877794 L9.64084245,5.72703035 L9.67086427,5.68078251 L9.71927447,5.64103436 L9.7740643,5.62003534 L9.83160613,5.61803544 L9.88889779,5.63578461 L9.93368034,5.6660332 L9.94856617,5.69965663 L9.93305489,5.74815437 L9.88652106,5.8226509 L9.83285704,5.90702196 L9.81872177,5.96576922 L9.82222431,6.01151709 L9.84136323,6.05226519 L9.8762636,6.08826351 L9.92705052,6.11938706 L10.0231204,6.14888569 L10.072156,6.15113558 L10.1218171,6.14501087 L10.2146346,6.10951252 L10.2930666,6.04439056 L10.3313444,5.99114304 L10.3497328,5.93877048 L10.3484819,5.88727288 L10.3275917,5.83665024 L10.3832572,5.84464987 L10.4330434,5.83890014 L10.4773256,5.81952604 L10.5157285,5.78652758 L10.54525,5.73990475 L10.5472514,5.69728174 L10.521858,5.65853355 L10.4690696,5.62366017 L10.3900121,5.58466199 L10.383007,5.58141214 L10.3255903,5.56528789 L10.3040746,5.56916271 L10.2873124,5.58103716 L10.2783059,5.60866087 L10.3050754,5.63203478 L10.3737503,5.66478326 L10.4335437,5.70540636 L10.4409241,5.72403049 L10.4332936,5.74152968 L10.4013954,5.75740394 L10.3544863,5.75090424 L10.2726768,5.71453094 L9.99047163,5.57953723 L9.87426215,5.53953909 L9.81997268,5.53316439 L9.76843521,5.53578927 L9.71927447,5.54753872 L9.67261555,5.56828775 L9.58667807,5.63740953 L9.53526569,5.71453094 L9.52175587,5.79415222 L9.54564824,5.86427396 L9.57116679,5.89152269 L9.60569189,5.91314668 L9.64321918,5.92527111 L9.682873,5.92602108 L9.71939956,5.91602154 M10.658082,5.16155672 L10.6674638,5.18380568 L10.7128718,5.22105394 L10.7529009,5.262677 L10.7711642,5.30792489 L10.7674115,5.35354777 L10.7412675,5.39642077 L10.7083685,5.42554441 L10.6694653,5.44679342 L10.6241823,5.45991781 L10.5730201,5.46504257 L10.458687,5.45116821 L10.3333459,5.40529535 L10.2286448,5.34142333 L10.1673502,5.26992666 L10.1538404,5.23305338 L10.1525895,5.19743004 L10.1637226,5.16330663 L10.1872397,5.13043317 L10.2291451,5.09568479 L10.2776804,5.07518574 L10.3297183,5.06943601 L10.3820063,5.07943554 L10.3699975,5.12368348 L10.3807554,5.14118267 L10.4027714,5.15568199 L10.4342943,5.16493156 L10.4679438,5.16430659 L10.4993416,5.15430705 L10.5239845,5.13530794 L10.5404965,5.10443438 L10.5353678,5.07106094 L10.51085,5.03931242 L10.4688194,5.01293865 L10.4219103,4.99543946 L10.3735001,4.9859399 L10.3234637,4.98443997 L10.2719263,4.99093967 L10.1761066,5.02518807 L10.0983,5.08593524 L10.0608978,5.13630789 L10.0406331,5.1876805 L10.0378811,5.24042804 L10.0525167,5.29455052 L10.0837895,5.34742305 L10.1306986,5.39717073 L10.193244,5.44329358 L10.2716761,5.48604159 L10.352735,5.51916504 L10.4326681,5.54128901 L10.5118507,5.55216351 L10.5896572,5.55178852 L10.6628354,5.54053905 L10.7273824,5.51841508 L10.7835482,5.48591659 L10.8310828,5.44279361 L10.8636064,5.39767071 L10.8811191,5.35167285 L10.8841213,5.30480004 L10.8723628,5.25717726 L10.8235773,5.18380568 L10.7537766,5.13005818 L10.7056165,5.12205856 L10.6667133,5.14105767 L10.658082,5.16155672 M11.1510654,5.04806201 L11.1902189,5.02518807 L11.2253694,4.99293958 L11.25364,4.95344142 L11.2667745,4.91494321 L11.2647731,4.87756996 L11.2477607,4.84119665 L11.1827134,4.7844493 L11.0609999,4.71970232 L11.0064603,4.70595296 L10.9855701,4.71045275 L10.968933,4.72245219 L10.9613024,4.75295077 L10.9955774,4.78107445 L11.0821403,4.82332248 L11.1287992,4.85219614 L11.1539425,4.88181976 L11.1575701,4.91256832 L11.1394319,4.94431684 L11.1054072,4.96781575 L11.0603745,4.97506541 L11.0040835,4.96594084 L10.9370348,4.94056702 L10.5986638,4.7843243 L10.5800252,4.77119991 L10.5816514,4.75832552 L10.6735933,4.65858017 L10.6864776,4.62520672 L10.6572064,4.59858296 L10.6135496,4.59070833 L10.5780238,4.61083239 L10.4868325,4.70920281 L10.4703205,4.71907734 L10.4513067,4.71607748 L10.3058259,4.64883062 L10.2596673,4.63908107 L10.2238913,4.65758021 L10.2121328,4.68982871 L10.2425299,4.71670246 L10.3826317,4.78169943 L10.3985183,4.79457383 L10.3942652,4.80907315 L10.3613663,4.84482148 L10.3564877,4.87319516 L10.3817561,4.89869397 L10.4255379,4.90531866 L10.4623147,4.88781948 L10.4893343,4.85844585 L10.5084732,4.8488213 L10.5339918,4.85444603 L10.864482,5.00768889 L10.9750624,5.05081188 L11.0599992,5.06556119 L11.1075337,5.06156138 L11.1510654,5.04806201 M11.4206364,4.69470348 L11.4839324,4.67320448 L11.5385971,4.64158096 L11.5850059,4.59945792 L11.6197812,4.5505852 L11.637419,4.50083752 L11.6380444,4.45033987 L11.6216575,4.39896727 L11.5895091,4.34921959 L11.5428502,4.30309674 L11.4816808,4.26047373 L11.4058756,4.22147554 L11.3243163,4.18985202 L11.2451338,4.168853 L11.168453,4.15872847 L11.0938988,4.15922845 L11.0242232,4.17035293 L10.9618028,4.19210191 L10.9065126,4.22410042 L10.8584777,4.26684843 L10.823202,4.31422122 L10.8043133,4.36259396 L10.8023118,4.41196666 L10.8170726,4.46233931 L10.8477199,4.51146202 L10.8933781,4.55758487 L10.9541722,4.60045787 L11.0302275,4.64033102 L11.1129127,4.67307949 L11.1937214,4.69495347 L11.2724036,4.70570297 L11.3490844,4.70557797 L11.4206364,4.69470348 M11.3922407,3.8556176 L11.3977447,3.82274413 L11.420136,3.78974567 L11.4541607,3.76299692 L11.4968168,3.74749764 L11.5414742,3.74437279 L11.582379,3.7548723 L11.6072721,3.77287146 L11.5930117,3.78212103 L11.5880081,3.81349456 L11.6169041,3.8406183 L11.6449244,3.84824294 L11.6753215,3.847118 L11.7032168,3.83824341 L11.7244823,3.82211916 L11.740619,3.79037064 L11.7326132,3.75649722 L11.7029666,3.72374875 L11.6538059,3.69562506 L11.5698699,3.67162618 L11.4839324,3.67275112 L11.4051251,3.69774996 L11.3420793,3.74562273 L11.31556,3.78349596 L11.3046771,3.82311911 L11.3095556,3.86449219 L11.3300705,3.90761518 L11.2937942,3.89161592 L11.2603949,3.88461625 L11.2356269,3.89724066 L11.2231178,3.91461485 L11.2051047,3.93823875 L11.1504399,3.98686148 L11.1364298,4.01998494 L11.1631992,4.04510877 L11.2021025,4.05248342 L11.2326247,4.0358592 L11.2596443,3.99423614 L11.2741549,3.98598652 L11.2961709,3.98498657 L11.3629694,4.00373569 L11.6729448,4.13810443 L11.7408692,4.17072791 L11.7817739,4.19847662 L11.7823994,4.2224755 L11.7686394,4.23347498 L11.7526277,4.24484945 L11.7394932,4.25734887 L11.7274845,4.28709748 L11.7518772,4.30984642 L11.7960343,4.3168461 L11.8321856,4.29509711 L11.8694627,4.24272455 L11.9161216,4.18635218 L11.9968053,4.11123068 L11.9999325,4.10773085 L12.0118162,4.07573234 L11.984046,4.05098349 L11.9451427,4.04348384 L11.9154961,4.0594831 L11.9047383,4.07773224 L11.8891019,4.10360604 L11.8750918,4.11160567 L11.853451,4.1131056 L11.7871528,4.09610639 L11.6844532,4.05173346 L11.5948881,4.01198531 L11.4954408,3.96298759 L11.4321447,3.92036458 L11.4037491,3.88811608 L11.3922407,3.8556176" id="Fill-1819" fill="#FFEE2F" sketch:type="MSShapeGroup"></path>
                <path d="M11.234375,5.39414627 L12.2472163,4.25 L13.390625,4.75406007 L12.4041991,5.9375 L11.234375,5.39414627" id="Fill-1820" fill="#FFEE2F" sketch:type="MSShapeGroup"></path>
                <path d="M1.95805802,8.375 L2.421875,10.3556979 L0.799932757,10.953125 L0.359375,8.5952172 L1.95805802,8.375" id="Fill-1821" fill="#FFEE2F" sketch:type="MSShapeGroup"></path>
                <path d="M6.359375,10.9436043 L7.7432856,9.359375 L8.984375,10.0548382 L7.62842068,11.703125 L6.359375,10.9436043" id="Fill-1822" fill="#FFEE2F" sketch:type="MSShapeGroup"></path>
                <path d="M9.00700253,10.015625 L7.765625,9.3181629 L9.03666001,7.859375 L10.25,8.50040528 L9.00700253,10.015625" id="Fill-1823" fill="#FFEE2F" sketch:type="MSShapeGroup"></path>
                <path d="M4.859375,12.5686071 L6.38904213,10.859375 L7.671875,11.6088838 L6.170619,13.390625 L4.859375,12.5686071" id="Fill-1824" fill="#FFEE2F" sketch:type="MSShapeGroup"></path>
                <path d="M0.875,10.9392614 L2.50994001,10.34375 L3.734375,12.2853952 L2.23385568,13.296875 L0.875,10.9392614" id="Fill-1825" fill="#FFEE2F" sketch:type="MSShapeGroup"></path>
                <path d="M11.3666928,1.38024831 L9.37942222,1.4375 L9.125,0.703626324 L11.375,0.640625 L11.3666928,1.38024831" id="Fill-1826" fill="#FFEE2F" sketch:type="MSShapeGroup"></path>
                <path d="M9.19728755,0.734375 L9.453125,1.47829861 L7.53359609,1.859375 L7.015625,1.15488591 L9.19728755,0.734375" id="Fill-1827" fill="#FFEE2F" sketch:type="MSShapeGroup"></path>
                <path d="M11.328125,7.22703991 L10.1910103,8.609375 L8.984375,7.97361329 L10.1488766,6.640625 L11.328125,7.22703991" id="Fill-1828" fill="#FFEE2F" sketch:type="MSShapeGroup"></path>
                <path d="M11.2998009,7.203125 L10.109375,6.61355312 L11.1959701,5.375 L12.359375,5.92036027 L11.2998009,7.203125" id="Fill-1829" fill="#FFEE2F" sketch:type="MSShapeGroup"></path>
                <path d="M14.140625,2.08546507 L14.8874777,1.25 L16.015625,1.57692647 L15.2255597,2.515625 L14.140625,2.08546507" id="Fill-1830" fill="#FFEE2F" sketch:type="MSShapeGroup"></path>
                <path d="M14.1269132,2.140625 L15.21875,2.57593991 L14.3667227,3.59375 L13.25,3.12693204 L14.1269132,2.140625" id="Fill-1831" fill="#FFEE2F" sketch:type="MSShapeGroup"></path>
                <path d="M13.671875,0.937410256 L13.3940656,1.671875 L11.375,1.40256286 L11.3833919,0.640625 L13.671875,0.937410256" id="Fill-1832" fill="#FFEE2F" sketch:type="MSShapeGroup"></path>
                <path d="M4.25,3.64084626 L3.03723738,5 L1.765625,4.66318274 L3.21621116,3.125 L4.25,3.64084626" id="Fill-1833" fill="#FFEE2F" sketch:type="MSShapeGroup"></path>
                <path d="M4.15998099,3.6875 L3.125,3.17068571 L4.92263215,2 L5.703125,2.64095106 L4.15998099,3.6875" id="Fill-1834" fill="#FFEE2F" sketch:type="MSShapeGroup"></path>
                <path d="M5.77286208,2.515625 L5,1.88919442 L7.0165331,1.109375 L7.53125,1.8126857 L5.77286208,2.515625" id="Fill-1835" fill="#FFEE2F" sketch:type="MSShapeGroup"></path>
                <path d="M2.1875,6.59186154 L1.97590546,8.43757959 L0.359375,8.65625 L0.705747449,6.5 L2.1875,6.59186154" id="Fill-1836" fill="#FFEE2F" sketch:type="MSShapeGroup"></path>
                <path d="M2.21044953,6.59375 L0.734375,6.50127441 L1.71024361,4.625 L2.984375,4.95972142 L2.21044953,6.59375" id="Fill-1837" fill="#FFEE2F" sketch:type="MSShapeGroup"></path>
                <path d="M3.265625,14.3220229 L4.78012096,12.59375 L6.078125,13.4247444 L4.44325325,15.40625 L3.265625,14.3220229" id="Fill-1838" fill="#FFEE2F" sketch:type="MSShapeGroup"></path>
                <path d="M7.08618035,8.32840549 L7.13318816,8.35333518 L7.11557607,8.29249192 L7.11773007,8.23374671 L7.13952344,8.17709954 L7.18082949,8.122427 L7.23696011,8.0733081 L7.30031295,8.03665405 L7.3706346,8.01221802 L7.44817847,8 L7.52990363,8.00024683 L7.61302256,8.01345216 L7.69766195,8.03936917 L7.78369511,8.07824467 L7.8684612,8.12884454 L7.93612204,8.18327025 L7.98617078,8.24164522 L8.01886084,8.30409287 L8.03305188,8.36789807 L8.02773024,8.43046912 L8.00264252,8.49180604 L7.95804212,8.55203222 L7.90900702,8.59609113 L7.85287641,8.62953641 L7.78952357,8.65224464 L7.71894851,8.66433925 L7.84350019,8.7303659 L7.91927018,8.76714337 L7.96501093,8.77405457 L7.99630723,8.75862778 L8.03115129,8.70568304 L8.06865618,8.68470261 L8.11427022,8.69531624 L8.140625,8.72703372 L8.12022539,8.76985848 L8.06726241,8.81848372 L7.99351971,8.89228548 L7.95449436,8.94029365 L7.9062195,9.00595007 L7.85959181,9.03125 L7.80966977,9.02544953 L7.78242805,8.99607692 L7.79737932,8.95991653 L7.82196022,8.94029365 L7.85439687,8.91450006 L7.86326627,8.89277914 L7.84983547,8.87155188 L7.69234031,8.77825066 L7.11925053,8.47107243 L7.06096592,8.45194321 L7.02358775,8.46440806 L7.00584895,8.49143579 L6.9868431,8.51969767 L6.94487818,8.54462736 L6.89845322,8.53561812 L6.875,8.50427088 L6.8987193,8.46058222 L6.92591034,8.43429497 L6.96847078,8.39430873 L6.99406533,8.36382539 L7.01851952,8.33469962 L7.04880218,8.319026 L7.08618035,8.32840549 M7.28156051,8.40677358 L7.41156053,8.49266994 L7.43272038,8.50562844 L7.45350011,8.51661231 L7.54232079,8.55906684 L7.60998162,8.58103459 L7.67029353,8.58523067 L7.73706742,8.57461704 L7.80219414,8.54758931 L7.8571844,8.50229625 L7.88759376,8.46119929 L7.9040655,8.41985549 L7.90647291,8.37789463 L7.89494269,8.33556352 L7.86972826,8.29360265 L7.83120974,8.25299934 L7.71464051,8.17561857 L7.57640462,8.11786067 L7.45704787,8.09934852 L7.4040849,8.10453192 L7.35568333,8.11958847 L7.31171646,8.14427133 L7.27218429,8.17882734 L7.23493282,8.23498085 L7.22441625,8.29656459 L7.24025446,8.35642054 L7.28156051,8.40677358" id="Fill-1839" fill="#3E3E3E" sketch:type="MSShapeGroup"></path>
                <path id="Fill-1840" fill="#FFEE2F" sketch:type="MSShapeGroup" d="M7.30498212,8.43721028 L7.26523895,8.38863268 L7.25,8.33088726 L7.26011866,8.27147495 L7.29596066,8.2173014 L7.33399707,8.18396384 L7.37630039,8.16015129 L7.42287061,8.14562564 L7.47382965,8.140625 L7.58867035,8.15848441 L7.72167588,8.21420577 L7.83383453,8.28885811 L7.87089564,8.32802975 L7.89515605,8.36851108 L7.90625,8.4093496 L7.90393368,8.44983093 L7.88808518,8.48971695 L7.8588264,8.52936484 L7.80591678,8.57306086 L7.74325423,8.5991356 L7.67900683,8.609375 L7.62097692,8.60532687 L7.55587614,8.5841337 L7.47041612,8.54317612 L7.45042263,8.53257953 L7.43006339,8.52007795 L7.30498212,8.43721028"></path>
                <path d="M7.6797433,7.67765147 L7.71879185,7.6987035 L7.70121373,7.64222244 L7.70133929,7.58818034 L7.71891741,7.53657719 L7.7539481,7.48715626 L7.83179408,7.424642 L7.9242048,7.39203703 L8.02138672,7.390625 L8.1132952,7.42194631 L8.16527623,7.458659 L8.19453125,7.50127653 L8.19892578,7.54543445 L8.17657645,7.58702505 L8.15046038,7.60794871 L8.11743862,7.61975839 L8.08316127,7.62104205 L8.05239955,7.61115786 L8.02327009,7.57560047 L8.03318917,7.53490843 L8.05039063,7.52271366 L8.02477679,7.49909431 L7.97995257,7.48548751 L7.92872489,7.48959522 L7.87862723,7.50974869 L7.83631417,7.54466425 L7.80680804,7.58779524 L7.79626116,7.6306695 L7.80479911,7.67315866 L7.83254743,7.71526272 L7.89859096,7.77097359 L8.00481306,7.83515661 L8.10099051,7.88714485 L8.21148158,7.94516631 L8.2844308,7.96737363 L8.30904018,7.96544814 L8.32611607,7.95505049 L8.34708426,7.92116186 L8.361649,7.89715741 L8.39730748,7.87623374 L8.44037388,7.88611793 L8.46875,7.91846617 L8.45104632,7.9603135 L8.44702846,7.96493468 L8.34582868,8.06339143 L8.28543527,8.13733027 L8.23634208,8.20587774 L8.19227121,8.234375 L8.14330357,8.22513264 L8.11856864,8.19548009 L8.13614676,8.15645681 L8.15272042,8.13989759 L8.17230748,8.1251355 L8.18938337,8.11063013 L8.19189453,8.07930882 L8.14907924,8.04285286 L8.0765067,8.00010697 L7.74315011,7.82424549 L7.67007533,7.79972758 L7.64496373,7.80126797 L7.6273856,7.81192235 L7.59122489,7.86634955 L7.55431083,7.88817178 L7.51111886,7.87854433 L7.484375,7.84568262 L7.5047154,7.8022949 L7.57314453,7.73862534 L7.59674944,7.70781749 L7.61319754,7.6850967 L7.6429548,7.66853748 L7.6797433,7.67765147" id="Fill-1841" fill="#3E3E3E" sketch:type="MSShapeGroup"></path>
                <path d="M8.9611018,7.40361446 L8.90772552,7.45406627 L8.84614691,7.49221888 L8.77661082,7.51782129 L8.69899485,7.530999 L8.61684923,7.53125 L8.53347938,7.51819779 L8.44900773,7.49196787 L8.3635567,7.45268574 L8.2858183,7.40486948 L8.22460696,7.35328815 L8.17992268,7.29794177 L8.15164304,7.23895582 L8.140625,7.17858936 L8.14735825,7.11935241 L8.17184278,7.06137048 L8.21407861,7.00439257 L8.26929124,6.95343876 L8.33123711,6.91490964 L8.40003866,6.88905622 L8.47545103,6.87562751 L8.5551482,6.875 L8.63631443,6.88717369 L8.71907216,6.91214859 L8.80342139,6.9501757 L8.88091495,6.99698795 L8.94249356,7.04794177 L8.98827964,7.10328815 L9.0182732,7.16302711 L9.03125,7.22452309 L9.02610825,7.28514056 L9.00272552,7.34487952 L8.9611018,7.40361446 M8.30773196,7.05070281 L8.26525129,7.12600402 L8.2620683,7.16440763 L8.27100515,7.20368976 L8.32425902,7.28087349 L8.42378866,7.35441767 L8.44202964,7.36408133 L8.56983892,7.41629016 L8.68809923,7.43210341 L8.74184278,7.42620482 L8.78983247,7.41101908 L8.8320683,7.38667169 L8.86842784,7.35303715 L8.89621778,7.31337851 L8.91078608,7.27321787 L8.91213273,7.23217871 L8.90038015,7.19063755 L8.87589562,7.14959839 L8.83953608,7.11019076 L8.73045747,7.03702309 L8.59922036,6.98293173 L8.54009021,6.97025602 L8.48524485,6.96724398 L8.43468428,6.97377008 L8.38828608,6.98983434 L8.34592784,7.01543675 L8.30773196,7.05070281" id="Fill-1842" fill="#3E3E3E" sketch:type="MSShapeGroup"></path>
                <path id="Fill-1843" fill="#FFEE2F" sketch:type="MSShapeGroup" d="M8.31903249,7.06422111 L8.36179379,7.03840443 L8.40863347,7.02220572 L8.45967514,7.015625 L8.51504237,7.01866226 L8.57473517,7.03144405 L8.70722105,7.08598812 L8.81733757,7.15976816 L8.85404308,7.1995056 L8.87876059,7.24088823 L8.890625,7.28277707 L8.88926554,7.32415969 L8.87455862,7.36465645 L8.84650424,7.404647 L8.80979873,7.43856304 L8.76716102,7.4631142 L8.71871469,7.47842704 L8.66445975,7.484375 L8.54507415,7.4684294 L8.41604873,7.41578361 L8.39763418,7.40603908 L8.29715749,7.33187939 L8.24339689,7.25404968 L8.234375,7.21443878 L8.23758828,7.17571376 L8.28047316,7.09978233 L8.31903249,7.06422111"></path>
                <path d="M9.30613976,6.6118302 L9.21531547,6.5658417 L9.1796981,6.53538335 L9.1900017,6.50227644 L9.20857361,6.48915407 L9.23134328,6.48433852 L9.28960312,6.49926672 L9.41693521,6.56957375 L9.48371777,6.63133318 L9.5,6.6707003 L9.4998728,6.71127131 L9.48346336,6.7530462 L9.4505173,6.79602498 L9.41070217,6.83105811 L9.36681649,6.85597858 L9.31924186,6.87054562 L9.26759668,6.875 L9.17664518,6.85886791 L9.0598711,6.81203669 L8.71234735,6.64553905 L8.68512551,6.63939922 L8.66375509,6.64999343 L8.6327171,6.68177606 L8.59201153,6.70091787 L8.54507293,6.69369455 L8.51925034,6.66588475 L8.52637381,6.63494484 L8.56415366,6.59642044 L8.56962347,6.58052913 L8.55334125,6.56656403 L8.40603799,6.49601623 L8.375,6.46688215 L8.38975577,6.43184903 L8.42931649,6.41186449 L8.47867198,6.4224587 L8.63144505,6.49541428 L8.65192503,6.49866478 L8.67036974,6.48795018 L8.77467775,6.38116536 L8.81436567,6.359375 L8.86104986,6.36780221 L8.89094301,6.39669551 L8.8749152,6.43305291 L8.76971676,6.54116201 L8.76717266,6.5551271 L8.7865078,6.56933297 L9.14217266,6.73920149 L9.21315299,6.76677052 L9.2733209,6.77676278 L9.32254919,6.76881713 L9.36071065,6.74317432 L9.38208107,6.70874314 L9.380173,6.67539546 L9.35473202,6.64301089 L9.30613976,6.6118302" id="Fill-1844" fill="#3E3E3E" sketch:type="MSShapeGroup"></path>
                <path d="M9.16358826,6.14604257 L9.20127796,6.16467067 L9.18255791,6.11453732 L9.1805611,6.0664043 L9.19528754,6.02039663 L9.22686202,5.97651431 L9.2982478,5.92088004 L9.38485923,5.89187521 L9.47708666,5.890625 L9.56557009,5.91837963 L9.61636382,5.95113509 L9.64581669,5.9890164 L9.65168231,6.02839796 L9.63208866,6.06527911 L9.6080022,6.08390721 L9.57717652,6.09440896 L9.54447883,6.09553415 L9.51502596,6.08678269 L9.48582268,6.05527744 L9.4938099,6.01889638 L9.50978435,6.00814459 L9.48444988,5.98714109 L9.44126897,5.97501406 L9.39284645,5.97863967 L9.34592153,5.99664267 L9.30723343,6.02764784 L9.28077576,6.06602923 L9.27228934,6.10416059 L9.28202376,6.14191688 L9.31010383,6.17942313 L9.3748752,6.22893138 L9.47820986,6.28594089 L9.5714357,6.33207357 L9.67863918,6.38370718 L9.74865216,6.40346047 L9.77211462,6.4018352 L9.78771466,6.39245864 L9.8064347,6.36232862 L9.81941394,6.34107508 L9.85248602,6.32244697 L9.89379493,6.33119843 L9.921875,6.35995322 L9.90652456,6.39720943 L9.90290535,6.4012101 L9.81055312,6.48872468 L9.75601538,6.55436062 L9.71196086,6.61524577 L9.67127596,6.640625 L9.62435104,6.63237362 L9.59976538,6.60599423 L9.61499101,6.57136346 L9.63021665,6.55673602 L9.6481879,6.54348381 L9.66378794,6.53060666 L9.66503594,6.50285204 L9.62310304,6.47059666 L9.55246605,6.43259033 L9.22935803,6.27631428 L9.15909545,6.25443564 L9.13513379,6.25581086 L9.11903454,6.26518743 L9.08658646,6.31369551 L9.05251597,6.33307374 L9.01108227,6.3244473 L8.984375,6.29531745 L9.00209665,6.25681103 L9.06462161,6.20017659 L9.08583766,6.17279703 L9.1005641,6.15241863 L9.12826977,6.13791622 L9.16358826,6.14604257" id="Fill-1845" fill="#3E3E3E" sketch:type="MSShapeGroup"></path>
                <path d="M10.4995502,5.76546382 L10.4609318,5.79800326 L10.4164011,5.81710786 L10.3663355,5.82277761 L10.3103577,5.81488926 L10.3313651,5.86480772 L10.332623,5.91558897 L10.3141315,5.96723301 L10.2756389,6.01973984 L10.1967667,6.08395593 L10.1034284,6.11896048 L10.0534887,6.125 L10.0041778,6.1227814 L9.90756892,6.09369311 L9.85649701,6.0630025 L9.8214008,6.02750493 L9.80215449,5.98732365 L9.79863229,5.94221215 L9.81284688,5.88428208 L9.86681203,5.80108465 L9.91360698,5.72762439 L9.92920529,5.67980127 L9.91423594,5.64664556 L9.86920209,5.61681773 L9.81158895,5.59931546 L9.75372423,5.60128755 L9.69862695,5.62199446 L9.64994511,5.6611897 L9.61975482,5.70679422 L9.6094398,5.75782198 L9.6254155,5.78604748 L9.64755504,5.78419865 L9.67585844,5.78308935 L9.70780983,5.79331955 L9.73020096,5.80909625 L9.74114494,5.82931015 L9.7401386,5.85161939 L9.72655297,5.87318909 L9.69875274,5.89315648 L9.66202122,5.90301691 L9.62214488,5.90227738 L9.58440702,5.8903216 L9.54968819,5.86899841 L9.52402644,5.84212872 L9.5,5.7729824 L9.51358563,5.69446867 L9.5652865,5.61842005 L9.65170621,5.55025978 L9.69862695,5.52979938 L9.74806355,5.51821336 L9.79989022,5.515625 L9.85448433,5.52191103 L9.97134591,5.56135278 L10.2551346,5.69446867 L10.3374032,5.73033601 L10.3845755,5.7367453 L10.4166527,5.72109185 L10.4243261,5.70383609 L10.4169043,5.68547103 L10.3567753,5.645413 L10.287715,5.61312007 L10.2607953,5.5900713 L10.2698524,5.56283184 L10.2867086,5.55112257 L10.308345,5.54730165 L10.366084,5.56320161 L10.3731284,5.56640625 L10.4526295,5.60486195 L10.505714,5.63925023 L10.53125,5.67745942 L10.5292373,5.71948953 L10.4995502,5.76546382 M10.1207878,5.73933366 L10.0216631,5.69126403 L10.019902,5.75424757 L9.96178565,5.8474287 L9.93058902,5.9016611 L9.92278986,5.94763539 L9.93901714,5.98510505 L9.97876769,6.01407008 L10.033236,6.03033981 L10.0887107,6.0278747 L10.1409147,6.00753755 L10.1862001,5.97043765 L10.2263281,5.90634481 L10.2278376,5.8441008 L10.1922382,5.78715678 L10.1207878,5.73933366" id="Fill-1846" fill="#3E3E3E" sketch:type="MSShapeGroup"></path>
                <path id="Fill-1847" fill="#FFEE2F" sketch:type="MSShapeGroup" d="M9.96453608,5.67032443 L9.96615979,5.609375 L10.0575515,5.65589218 L10.1234278,5.7021708 L10.15625,5.75727576 L10.1548582,5.81750954 L10.1178608,5.87953244 L10.0761082,5.91543416 L10.0279768,5.9351145 L9.9768299,5.9375 L9.92661082,5.92175573 L9.88996134,5.89372615 L9.875,5.8574666 L9.88219072,5.8129771 L9.91095361,5.76049618 L9.96453608,5.67032443"></path>
                <path d="M10.3794415,5.02904145 L10.3574903,5.01467553 L10.3467641,4.99733735 L10.3587375,4.95349653 L10.3066034,4.943589 L10.2547187,4.94928583 L10.2063262,4.96959627 L10.1645441,5.00402493 L10.1410962,5.03659594 L10.1299958,5.07040538 L10.1312431,5.10570096 L10.1447131,5.14223497 L10.2058273,5.21307381 L10.3102203,5.27635816 L10.4351926,5.32180895 L10.5491893,5.33555565 L10.6002009,5.33047804 L10.6453506,5.31747441 L10.6841394,5.2964209 L10.7169415,5.26756522 L10.7430086,5.22508669 L10.7467503,5.17988359 L10.7285407,5.13505201 L10.6886294,5.09381192 L10.643355,5.05690637 L10.6340008,5.03486212 L10.6426067,5.01455168 L10.6813955,4.99572738 L10.7294138,5.0036534 L10.7990091,5.05690637 L10.8476511,5.12960287 L10.859375,5.17678748 L10.8563817,5.22322903 L10.8389205,5.26880367 L10.8064925,5.31351139 L10.7590978,5.35623762 L10.7030973,5.38843709 L10.6387403,5.4103575 L10.5657774,5.42150347 L10.4881998,5.421875 L10.4092503,5.41110056 L10.3295524,5.38918015 L10.248732,5.35636146 L10.1705308,5.31400677 L10.1081693,5.26830829 L10.0613983,5.21901833 L10.0302176,5.16663227 L10.015625,5.11300776 L10.0183689,5.06074554 L10.038574,5.00984561 L10.0758661,4.95993643 L10.1534437,4.89974818 L10.2489814,4.86581489 L10.3003672,4.859375 L10.3502564,4.86086113 L10.3985241,4.87027328 L10.4452952,4.88761146 L10.4872021,4.91374257 L10.5116477,4.94519898 L10.5167614,4.97826536 L10.5002979,5.00885485 L10.4757275,5.02767916 L10.4444221,5.03758669 L10.4108717,5.03820591 L10.3794415,5.02904145" id="Fill-1848" fill="#3E3E3E" sketch:type="MSShapeGroup"></path>
                <path id="Fill-1849" fill="#3E3E3E" sketch:type="MSShapeGroup" d="M11.1007109,4.71399957 L11.0160679,4.67229452 L10.9825532,4.64453228 L10.9900145,4.61442567 L11.0062826,4.60258045 L11.0267095,4.59813849 L11.0800394,4.61171114 L11.1990533,4.67562599 L11.2626579,4.73164402 L11.2792929,4.76754985 L11.28125,4.80444278 L11.2684068,4.8424462 L11.2407633,4.88143673 L11.2063923,4.91327076 L11.1681073,4.93585072 L11.1255412,4.94917659 L11.0790609,4.953125 L10.996008,4.93856525 L10.8878803,4.89599648 L10.5647202,4.74472312 L10.5397677,4.73917067 L10.5210533,4.74867153 L10.4946329,4.77766764 L10.4586719,4.79494193 L10.4158611,4.78840238 L10.3911532,4.76323128 L10.3959235,4.73522226 L10.4280928,4.69993337 L10.4322515,4.68562039 L10.4167173,4.67291146 L10.2797229,4.60874984 L10.25,4.58222147 L10.2614977,4.55038744 L10.2964803,4.53212605 L10.341615,4.5417503 L10.4838691,4.6081329 L10.5024612,4.6110942 L10.5186069,4.60134657 L10.6077756,4.50424043 L10.6425135,4.484375 L10.6852019,4.49214843 L10.713824,4.51843001 L10.7012254,4.55137454 L10.6113228,4.64983795 L10.6097327,4.66254689 L10.6279578,4.6755026 L10.9588238,4.82973727 L11.0243855,4.85478498 L11.0794279,4.86379228 L11.1234618,4.85663579 L11.1567319,4.8334389 L11.1744677,4.80209841 L11.1709206,4.77174503 L11.146335,4.74250214 L11.1007109,4.71399957"></path>
                <path d="M11.5558276,4.56261426 L11.5089737,4.60593293 L11.4537845,4.63845407 L11.3898813,4.6605633 L11.3176428,4.67174646 L11.2402265,4.671875 L11.1607895,4.66082038 L11.0792055,4.63832553 L10.9957272,4.60464751 L10.9189422,4.5636426 L10.8575648,4.51955267 L10.8114686,4.47212066 L10.7805273,4.42160363 L10.765625,4.36980119 L10.7676457,4.31902708 L10.7867156,4.26928131 L10.8223296,4.22056387 L10.8708254,4.17660249 L10.926646,4.14369573 L10.9896652,4.12132941 L11.0600093,4.10988917 L11.1352787,4.109375 L11.212695,4.11978691 L11.2926372,4.14138197 L11.374979,4.17390311 L11.4515113,4.21400823 L11.5132676,4.25784106 L11.5603741,4.30527308 L11.5928309,4.35643282 L11.609375,4.4092636 L11.6087435,4.46119458 L11.5909365,4.51235432 L11.5558276,4.56261426 M10.9140169,4.26028336 L10.8792869,4.32468293 L10.8791606,4.35771824 L10.8905268,4.39139625 L10.9463474,4.45759541 L11.0456121,4.52045247 L11.0634191,4.5288077 L11.1876894,4.57354033 L11.300341,4.58716579 L11.3506048,4.58202411 L11.3948066,4.56904136 L11.4329465,4.54808901 L11.4648981,4.51942413 L11.488262,4.48536049 L11.499123,4.45091122 L11.4976075,4.41581924 L11.4834629,4.38021309 L11.4575732,4.34499257 L11.4204437,4.31131456 L11.3123386,4.2484575 L11.1845322,4.20205382 L11.1278275,4.19112774 L11.0757956,4.1885569 L11.0284365,4.19408421 L10.9857502,4.20783821 L10.9476103,4.22994744 L10.9140169,4.26028336" id="Fill-1850" fill="#3E3E3E" sketch:type="MSShapeGroup"></path>
                <path id="Fill-1851" fill="#FFEE2F" sketch:type="MSShapeGroup" d="M11.1037953,4.11179357 L11.1595316,4.12207252 L11.2851555,4.16572779 L11.3914144,4.22486194 L11.4279098,4.25654527 L11.4533574,4.28967974 L11.4672604,4.323177 L11.46875,4.35619054 L11.4580745,4.38859944 L11.4351096,4.42064556 L11.4037037,4.44761267 L11.3662151,4.46732405 L11.3227681,4.47953785 L11.2733627,4.484375 L11.162635,4.47155655 L11.0404869,4.42947336 L11.0229839,4.42161299 L10.9254144,4.36247884 L10.8705471,4.30020054 L10.859375,4.26851721 L10.8594991,4.23743853 L10.8936361,4.17685323 L10.9266558,4.14831405 L10.9641443,4.12751431 L11.0061017,4.11457494 L11.052652,4.109375 L11.1037953,4.11179357"></path>
                <path d="M11.3007288,3.86437548 L11.3376366,3.88064825 L11.3167646,3.83678807 L11.3118011,3.79470772 L11.3228735,3.75440721 L11.3498544,3.71588653 L11.4139977,3.66719537 L11.4941769,3.64176918 L11.5816104,3.640625 L11.6670075,3.66503414 L11.7170241,3.69363861 L11.7471867,3.72694692 L11.7553319,3.76139941 L11.7389142,3.79369067 L11.7172786,3.81009057 L11.6888977,3.81911686 L11.6579715,3.82026104 L11.6294633,3.81250605 L11.6000643,3.78491864 L11.605155,3.75300877 L11.6196637,3.74360108 L11.5943372,3.72529422 L11.5527204,3.71461522 L11.5072856,3.71779349 L11.463887,3.73355773 L11.42927,3.76076375 L11.4064889,3.79432633 L11.4008891,3.82776177 L11.4125978,3.86081582 L11.4414877,3.8936156 L11.5058856,3.93696726 L11.6070641,3.9868026 L11.6981883,4.02723024 L11.8026758,4.07236173 L11.8701281,4.08965154 L11.8921455,4.08812597 L11.9063996,4.07998959 L11.9223082,4.05367348 L11.9332533,4.03511236 L11.9634159,4.0188396 L12.0029964,4.02646745 L12.03125,4.05163938 L12.0191595,4.08418491 L12.0159778,4.08774458 L11.9338896,4.16415028 L11.8864184,4.22148634 L11.8484924,4.27475421 L11.8117118,4.296875 L11.766786,4.28975567 L11.7419687,4.26661783 L11.7541865,4.23636066 L11.7675497,4.22364757 L11.78384,4.21207865 L11.7978396,4.20089113 L11.7972032,4.17648198 L11.7555864,4.14825891 L11.6864796,4.11507773 L11.3711083,3.97841195 L11.3031469,3.95934231 L11.2807476,3.96035936 L11.2659845,3.96875 L11.2384945,4.01108461 L11.207441,4.02799303 L11.1678605,4.0204923 L11.140625,3.99493898 L11.1548791,3.96124927 L11.2104954,3.91179533 L11.2288221,3.88776758 L11.2415489,3.87009638 L11.2667481,3.85725615 L11.3007288,3.86437548" id="Fill-1852" fill="#3E3E3E" sketch:type="MSShapeGroup"></path>
                <path d="M13.4375,1.65795561 L11.425541,1.390625 L9.4250647,1.44911413 L7.50346914,1.83364824 L5.73205908,2.54426488 L4.19268581,3.57804834 L2.9814915,4.92332333 L2.21009495,6.5507702 L2,8.40131168 L2.46567115,10.3731236 L3.68522782,12.3125" id="Stroke-1853" stroke="#000000" stroke-width="0.5" stroke-linecap="round" stroke-linejoin="round" sketch:type="MSShapeGroup"></path>
                <path d="M2.140625,13.390625 L3.640625,12.359375" id="Stroke-1854" stroke="#000000" stroke-width="0.5" stroke-linecap="round" stroke-linejoin="round" sketch:type="MSShapeGroup"></path>
                <path d="M0.875,10.953125 L2.515625,10.34375" id="Stroke-1855" stroke="#000000" stroke-width="0.5" stroke-linecap="round" stroke-linejoin="round" sketch:type="MSShapeGroup"></path>
                <path id="Stroke-1856" stroke="#000000" stroke-width="0.5" stroke-linecap="round" stroke-linejoin="round" sketch:type="MSShapeGroup" d="M0.359375,8.609375 L1.953125,8.375"></path>
                <path id="Stroke-1857" stroke="#000000" stroke-width="0.5" stroke-linecap="round" stroke-linejoin="round" sketch:type="MSShapeGroup" d="M0.734375,6.5 L2.1875,6.60348594"></path>
                <path id="Stroke-1858" stroke="#000000" stroke-width="0.5" stroke-linecap="round" stroke-linejoin="round" sketch:type="MSShapeGroup" d="M1.765625,4.625 L3.03125,4.953125"></path>
                <path d="M3.125,3.125 L4.15625,3.640625" id="Stroke-1859" stroke="#000000" stroke-width="0.5" stroke-linecap="round" stroke-linejoin="round" sketch:type="MSShapeGroup"></path>
                <path d="M5,2 L5.796875,2.609375" id="Stroke-1860" stroke="#000000" stroke-width="0.5" stroke-linecap="round" stroke-linejoin="round" sketch:type="MSShapeGroup"></path>
                <path d="M7.015625,1.109375 L7.53125,1.8125" id="Stroke-1861" stroke="#000000" stroke-width="0.5" stroke-linecap="round" stroke-linejoin="round" sketch:type="MSShapeGroup"></path>
                <path id="Stroke-1862" stroke="#000000" stroke-width="0.5" stroke-linecap="round" stroke-linejoin="round" sketch:type="MSShapeGroup" d="M9.125,0.734375 L9.359375,1.484375"></path>
                <path id="Stroke-1863" stroke="#000000" stroke-width="0.5" stroke-linecap="round" stroke-linejoin="round" sketch:type="MSShapeGroup" d="M11.3844219,0.640625 L11.375,1.390625"></path>
                <path id="Stroke-1864" stroke="#000000" stroke-width="0.5" stroke-linecap="round" stroke-linejoin="round" sketch:type="MSShapeGroup" d="M13.765625,1.015625 L13.484375,1.765625"></path>
                <path d="M6.171875,13.4375 L4.859375,12.59375" id="Stroke-1865" stroke="#000000" stroke-width="0.5" stroke-linecap="round" stroke-linejoin="round" sketch:type="MSShapeGroup"></path>
                <path d="M7.625,11.609375 L6.359375,10.859375" id="Stroke-1866" stroke="#000000" stroke-width="0.5" stroke-linecap="round" stroke-linejoin="round" sketch:type="MSShapeGroup"></path>
                <path d="M9.03125,10.0625 L7.765625,9.359375" id="Stroke-1867" stroke="#000000" stroke-width="0.5" stroke-linecap="round" stroke-linejoin="round" sketch:type="MSShapeGroup"></path>
                <path d="M10.203125,8.515625 L8.984375,7.859375" id="Stroke-1868" stroke="#000000" stroke-width="0.5" stroke-linecap="round" stroke-linejoin="round" sketch:type="MSShapeGroup"></path>
                <path d="M11.28125,7.25 L10.109375,6.640625" id="Stroke-1869" stroke="#000000" stroke-width="0.5" stroke-linecap="round" stroke-linejoin="round" sketch:type="MSShapeGroup"></path>
                <path d="M12.40625,5.9375 L11.234375,5.375" id="Stroke-1870" stroke="#000000" stroke-width="0.5" stroke-linecap="round" stroke-linejoin="round" sketch:type="MSShapeGroup"></path>
                <path d="M13.390625,4.765625 L12.265625,4.25" id="Stroke-1871" stroke="#000000" stroke-width="0.5" stroke-linecap="round" stroke-linejoin="round" sketch:type="MSShapeGroup"></path>
                <path id="Stroke-1872" stroke="#000000" stroke-width="0.5" stroke-linecap="round" stroke-linejoin="round" sketch:type="MSShapeGroup" d="M14.375,3.59375 L13.25,3.125"></path>
                <path id="Stroke-1873" stroke="#000000" stroke-width="0.5" stroke-linecap="round" stroke-linejoin="round" sketch:type="MSShapeGroup" d="M15.21875,2.5625 L14.140625,2.140625"></path>
                <path d="M3.265625,14.328125 L4.765625,12.59375" id="Stroke-1874" stroke="#000000" stroke-width="0.5" stroke-linecap="round" stroke-linejoin="round" sketch:type="MSShapeGroup"></path>
                <path d="M13.25,3.125 L14.140625,2.140625" id="Stroke-1875" stroke="#000000" stroke-width="0.5" stroke-linecap="round" stroke-linejoin="round" sketch:type="MSShapeGroup"></path>
                <path d="M7.765625,9.3125 L9.03125,7.859375" id="Stroke-1876" stroke="#000000" stroke-width="0.5" stroke-linecap="round" stroke-linejoin="round" sketch:type="MSShapeGroup"></path>
                <path d="M4.859375,12.59375 L6.359375,10.859375" id="Stroke-1877" stroke="#000000" stroke-width="0.5" stroke-linecap="round" stroke-linejoin="round" sketch:type="MSShapeGroup"></path>
                <path d="M14.140625,2.09375 L14.890625,1.25" id="Stroke-1878" stroke="#000000" stroke-width="0.5" stroke-linecap="round" stroke-linejoin="round" sketch:type="MSShapeGroup"></path>
                <path d="M8.984375,7.953125 L10.15625,6.640625" id="Stroke-1879" stroke="#000000" stroke-width="0.5" stroke-linecap="round" stroke-linejoin="round" sketch:type="MSShapeGroup"></path>
                <path d="M6.359375,10.953125 L7.765625,9.359375" id="Stroke-1880" stroke="#000000" stroke-width="0.5" stroke-linecap="round" stroke-linejoin="round" sketch:type="MSShapeGroup"></path>
                <path d="M10.109375,6.546875 L11.201893,5.31991134 L12.214667,4.18246302 L13.15625,3.125" id="Stroke-1881" stroke="#000000" stroke-width="0.5" stroke-linecap="round" stroke-linejoin="round" sketch:type="MSShapeGroup"></path>
                <path id="Stroke-1882" stroke="#000000" stroke-width="0.5" stroke-linecap="round" stroke-linejoin="round" sketch:type="MSShapeGroup" d="M16.015625,1.578125 L14.890625,1.25"></path>
                <path d="M13.71875,0.934581944 L11.4314786,0.640625 L9.15973026,0.704968257 L6.96916496,1.12816091 L4.93160186,1.91442178 L3.13298106,3.06796969 L1.6799234,4.58647055 L0.70432472,6.45042793 L0.359375,8.60674459 L0.803021276,10.9481651 L2.16052455,13.296875" id="Stroke-1883" stroke="#000000" stroke-width="0.5" stroke-linecap="round" stroke-linejoin="round" sketch:type="MSShapeGroup"></path>
                <path d="M4.484375,15.453125 L6.125,13.484375" id="Stroke-1884" stroke="#000000" stroke-width="0.5" stroke-linecap="round" stroke-linejoin="round" sketch:type="MSShapeGroup"></path>
                <path d="M6.125,13.390625 L7.625,11.609375" id="Stroke-1885" stroke="#000000" stroke-width="0.5" stroke-linecap="round" stroke-linejoin="round" sketch:type="MSShapeGroup"></path>
                <path d="M7.625,11.609375 L8.984375,9.96875" id="Stroke-1886" stroke="#000000" stroke-width="0.5" stroke-linecap="round" stroke-linejoin="round" sketch:type="MSShapeGroup"></path>
                <path d="M8.984375,10.015625 L10.25,8.515625" id="Stroke-1887" stroke="#000000" stroke-width="0.5" stroke-linecap="round" stroke-linejoin="round" sketch:type="MSShapeGroup"></path>
                <path d="M10.25,8.515625 L11.375,7.109375" id="Stroke-1888" stroke="#000000" stroke-width="0.5" stroke-linecap="round" stroke-linejoin="round" sketch:type="MSShapeGroup"></path>
                <path d="M11.375,7.15625 L12.453125,5.890625" id="Stroke-1889" stroke="#000000" stroke-width="0.5" stroke-linecap="round" stroke-linejoin="round" sketch:type="MSShapeGroup"></path>
                <path d="M12.359375,5.9375 L13.34375,4.765625" id="Stroke-1890" stroke="#000000" stroke-width="0.5" stroke-linecap="round" stroke-linejoin="round" sketch:type="MSShapeGroup"></path>
                <path d="M13.390625,4.71875 L14.28125,3.640625" id="Stroke-1891" stroke="#000000" stroke-width="0.5" stroke-linecap="round" stroke-linejoin="round" sketch:type="MSShapeGroup"></path>
                <path d="M14.375,3.640625 L15.21875,2.609375" id="Stroke-1892" stroke="#000000" stroke-width="0.5" stroke-linecap="round" stroke-linejoin="round" sketch:type="MSShapeGroup"></path>
                <path d="M15.125,2.5625 L15.921875,1.625" id="Stroke-1893" stroke="#000000" stroke-width="0.5" stroke-linecap="round" stroke-linejoin="round" sketch:type="MSShapeGroup"></path>
                <path d="M4.34145796,5.234375 L3.74618499,6.6093231 L3.640625,8.14584907 L4.10360387,9.75241128 L4.578125,10.4375" id="Stroke-1894" stroke="#000000" stroke-width="0.5" stroke-linecap="round" stroke-linejoin="round" sketch:type="MSShapeGroup"></path>
                <path d="M12.171875,2.33999261 L11.3927673,2.234375 L9.6708516,2.28579884 L8.02322006,2.62260016 L6.51877926,3.2414749 L5.2330764,4.1338276 L4.25,5.28125" id="Stroke-1895" stroke="#000000" stroke-width="0.5" stroke-linecap="round" stroke-linejoin="round" sketch:type="MSShapeGroup"></path>
                <path d="M4.484375,10.53125 L12.171875,2.375" id="Stroke-1896" stroke="#000000" stroke-width="0.5" stroke-linecap="round" stroke-linejoin="round" sketch:type="MSShapeGroup"></path>
                <path d="M3.265625,14.375 L4.4375,15.453125" id="Stroke-1897" stroke="#000000" stroke-width="0.5" stroke-linecap="round" stroke-linejoin="round" sketch:type="MSShapeGroup"></path>
                <path d="M2.140625,13.34375 L3.265625,14.375" id="Stroke-1898" stroke="#000000" stroke-width="0.5" stroke-linecap="round" stroke-linejoin="round" sketch:type="MSShapeGroup"></path>
                <path id="Stroke-1899" stroke="#000000" stroke-width="0.5" stroke-linecap="round" stroke-linejoin="round" sketch:type="MSShapeGroup" d="M13.765625,1.015625 L14.890625,1.34375"></path>
                <path id="Stroke-1900" stroke="#000000" stroke-width="0.5" stroke-linecap="round" stroke-linejoin="round" sketch:type="MSShapeGroup" d="M12.265625,2.39302812 L12.2826406,2.375"></path>
                <path d="M4.45716448,15.40625 L2.15686391,13.3006331 L0.802119613,10.9512258 L0.359375,8.60901015 L0.703623647,6.45215308 L1.67723953,4.58764222 L3.12734401,3.06860306 L4.9223093,1.91480002 L6.95573128,1.12830568 L9.14184449,0.704987363 L11.4089758,0.640625 L13.6915985,0.934669231 L15.921875,1.59019147 L4.45716448,15.40625 L4.45716448,15.40625 Z" id="Stroke-23231" stroke="#000000" stroke-width="0.5" sketch:type="MSShapeGroup"></path>
            </g>
        </g>
    </g>
</svg>