<?xml version="1.0" encoding="UTF-8" standalone="no"?>
<svg width="24px" height="24px" viewBox="0 0 24 24" version="1.1" xmlns="http://www.w3.org/2000/svg" xmlns:xlink="http://www.w3.org/1999/xlink" xmlns:sketch="http://www.bohemiancoding.com/sketch/ns">
    <!-- Generator: Sketch 3.3.1 (12002) - http://www.bohemiancoding.com/sketch -->
    <title>tb_previewmodel</title>
    <desc>Created with Sketch.</desc>
    <defs></defs>
    <g id="Page-1" stroke="none" stroke-width="1" fill="none" fill-rule="evenodd" sketch:type="MSPage">
        <g id="tb_previewmodel" sketch:type="MSArtboardGroup">
            <g id="Group" sketch:type="MSLayerGroup" transform="translate(4.000000, 4.000000)">
                <path d="M0.5,5.93602653 C1.40997393,2.71761899 4.25353322,0.441040979 7.57043428,0.275291989 C10.8874352,0.109417906 13.9404641,2.09140054 15.1620327,5.20322836 C15.2777429,5.49832411 15.3746613,5.79717266 15.453125,6.09864818 C13.9671847,8.88623345 11.0678617,10.6118993 7.92761635,10.5776237 C4.78757072,10.5434732 1.92584392,8.75526048 0.5,5.93602653 L0.5,5.93602653 Z" id="Fill-1431" fill="#1293F5" sketch:type="MSShapeGroup"></path>
                <path d="M15.3874624,6.05304195 C16.2153992,9.23466498 14.9700636,12.5965708 12.273961,14.4582438 C9.57783335,16.319667 6.01014327,16.2809368 3.35467955,14.3612934 C0.699153349,12.4415251 -0.47375196,9.05338268 0.422303808,5.890625 C1.84932735,8.70618523 4.71332174,10.492147 7.85589019,10.5263794 C10.9986336,10.5603621 13.9002552,8.83699334 15.3874624,6.05304195" id="Fill-1432" fill="#144689" sketch:type="MSShapeGroup"></path>
                <path d="M15.265625,5.60729935 C14.4077369,7.77441793 12.4835288,4.38584386 11.2374546,2.96678713 C9.99139291,1.54785531 8.11077556,0.490900987 4.625,1.09419682 C5.62836115,0.624050751 6.74756914,0.359375 7.92796393,0.359375 C11.3380266,0.359375 14.2294678,2.5436057 15.265625,5.60729935 L15.265625,5.60729935 Z" id="Fill-1433" fill="#FFFFFF" sketch:type="MSShapeGroup"></path>
                <path d="M14.703125,11.9884052 C11.3305884,13.0179533 8.43436986,12.6900471 6.13018662,11.9025991 C3.58014361,11.0310886 1.42126674,9.35581574 1.015625,11.6197754 C1.87960613,13.3229446 3.35809285,14.6659525 5.16027222,15.359375 C4.54177553,13.8625638 4.48987861,13.3839678 5.41184967,13.5026516 C5.85661428,13.5599387 6.83192107,13.8432605 7.64454327,13.97253 C9.33066771,14.2404093 11.2185871,14.1041657 13.6604198,13.3955497 C14.0594055,12.9688857 14.409472,12.4967656 14.703125,11.9884052 L14.703125,11.9884052 Z" id="Fill-1434" fill="#FFFFFF" sketch:type="MSShapeGroup"></path>
                <path d="M15.3340896,10.34375 C15.4519193,9.95048713 15.5393978,9.54421971 15.59375,9.12757365 C15.043728,9.0199109 12.4214982,8.19074522 9.19285673,4.91909828 C6.02744274,1.71134875 4.5275453,1.58705517 2.04930877,3.00330167 C1.15946072,4.02128354 0.529685552,5.2717219 0.265625,6.65120551 C1.11678401,5.45403582 2.50631454,3.95113395 4.18843175,4.4855713 C7.37839672,5.49892655 8.0060843,8.36605668 15.3340896,10.34375 L15.3340896,10.34375 Z" id="Fill-1435" fill="#FFFFFF" sketch:type="MSShapeGroup"></path>
                <path d="M4.625,1.04774075 C8.12361612,0.445960456 10.0111611,1.5002596 11.2618129,2.91562691 C12.5124773,4.33111882 14.4514141,7.77983073 15.3125,5.61840536" id="Stroke-1979" stroke="#000000" stroke-width="0.5" sketch:type="MSShapeGroup"></path>
                <path d="M1.859375,3.0896043 C4.42413429,1.58353548 5.91784211,1.6474187 9.14171863,4.91833965 C12.3655577,8.18938562 14.9507876,8.97048615 15.5,9.078125" id="Stroke-1980" stroke="#000000" stroke-width="0.5" sketch:type="MSShapeGroup"></path>
                <path d="M0.265625,6.65038276 C1.11756815,5.45490451 2.54815449,3.96870513 4.23177132,4.50244315 C7.42461251,5.51447237 7.97781877,8.46251948 15.3125,10.4375" id="Stroke-1981" stroke="#000000" stroke-width="0.5" sketch:type="MSShapeGroup"></path>
                <path d="M1.015625,11.5173273 C1.42060432,9.26835199 3.58413719,10.9363719 6.13001591,11.8021142 C8.43043634,12.5843503 11.2422209,12.9384164 14.609375,11.9156825" id="Stroke-1982" stroke="#000000" stroke-width="0.5" sketch:type="MSShapeGroup"></path>
                <path d="M5.07778698,15.3125 C4.45869884,13.8243811 4.41116625,13.3893868 5.33390698,13.5073912 C5.77904289,13.5643503 6.75516387,13.8460503 7.56846446,13.9745798 C9.26422329,14.2422877 11.1637987,14.1040999 13.625,13.390625" id="Stroke-1983" stroke="#000000" stroke-width="0.5" sketch:type="MSShapeGroup"></path>
                <path d="M0.125,8.11724997 C0.125,3.83655624 3.60221767,0.359375 7.8829124,0.359375 C12.1634823,0.359375 15.640625,3.83655624 15.640625,8.11724997 C15.640625,12.3978188 12.1634823,15.875 7.8829124,15.875 C3.60221767,15.875 0.125,12.3978188 0.125,8.11724997 L0.125,8.11724997 Z" id="Stroke-1984" stroke="#000000" stroke-width="0.5" sketch:type="MSShapeGroup"></path>
                <path d="M11.8906312,2.140625 L9.87500312,2.140625 L9.87500312,7.45881818 L7.859375,7.45881818 L11.8906312,11.890625 L15.921875,7.45881818 L13.9063467,7.45881818 L13.9063467,2.140625 L11.8906312,2.140625 L11.8906312,2.140625 Z" id="Fill-24746" fill="#1293F5" sketch:type="MSShapeGroup"></path>
                <path d="M11.8906312,2.140625 L9.87500312,2.140625 L9.87500312,7.45881818 L7.859375,7.45881818 L11.8906312,11.890625 L15.921875,7.45881818 L13.9063467,7.45881818 L13.9063467,2.140625 L11.8906312,2.140625 L11.8906312,2.140625 Z" id="Stroke-24747" stroke="#FFFFFF" stroke-width="1.375" stroke-linecap="round" stroke-linejoin="round" sketch:type="MSShapeGroup"></path>
                <path d="M11.8906312,2.140625 L9.87500312,2.140625 L9.87500312,7.45881818 L7.859375,7.45881818 L11.8906312,11.890625 L15.921875,7.45881818 L13.9063467,7.45881818 L13.9063467,2.140625 L11.8906312,2.140625 L11.8906312,2.140625 Z" id="Fill-24748" fill="#1293F5" sketch:type="MSShapeGroup"></path>
                <path d="M11.8906312,2.140625 L9.87500312,2.140625 L9.87500312,7.45881818 L7.859375,7.45881818 L11.8906312,11.890625 L15.921875,7.45881818 L13.9063467,7.45881818 L13.9063467,2.140625 L11.8906312,2.140625 L11.8906312,2.140625 Z" id="Stroke-24749" stroke="#000000" stroke-width="0.5" stroke-linecap="round" stroke-linejoin="round" sketch:type="MSShapeGroup"></path>
            </g>
        </g>
    </g>
</svg>