<?xml version="1.0" encoding="UTF-8" standalone="no"?>
<svg width="24px" height="24px" viewBox="0 0 24 24" version="1.1" xmlns="http://www.w3.org/2000/svg" xmlns:xlink="http://www.w3.org/1999/xlink" xmlns:sketch="http://www.bohemiancoding.com/sketch/ns">
    <!-- Generator: Sketch 3.3.1 (12002) - http://www.bohemiancoding.com/sketch -->
    <title>tb_pushpull</title>
    <desc>Created with Sketch.</desc>
    <defs></defs>
    <g id="Page-1" stroke="none" stroke-width="1" fill="none" fill-rule="evenodd" sketch:type="MSPage">
        <g id="tb_pushpull" sketch:type="MSArtboardGroup">
            <g id="Group" sketch:type="MSLayerGroup" transform="translate(3.000000, 4.000000)">
                <path d="M17.53125,8.515625 L17.2334662,10.5748954 L7.60550135,16.15625 L7.5,13.6432272 L17.53125,8.515625 L17.53125,8.515625 Z" id="Fill-1546" fill="#A09F88" sketch:type="MSShapeGroup"></path>
                <path d="M17.53125,8.515625 L17.2334662,10.5749729 L7.60550135,16.15625 L7.5,13.6432395 L17.53125,8.515625 L17.53125,8.515625 Z" id="Stroke-1547" stroke="#000000" stroke-width="0.5" stroke-linecap="round" stroke-linejoin="round" sketch:type="MSShapeGroup"></path>
                <path d="M7.59375,16.25 L7.48849464,13.7364327 L0.375,8 L0.705510074,9.9959173 L7.59375,16.25 L7.59375,16.25 Z" id="Fill-1548" fill="#A09F88" sketch:type="MSShapeGroup"></path>
                <path d="M7.59375,16.25 L7.48849464,13.736406 L0.375,8 L0.705510074,9.99586343 L7.59375,16.25 L7.59375,16.25 Z" id="Stroke-1549" stroke="#000000" stroke-width="0.5" stroke-linecap="round" stroke-linejoin="round" sketch:type="MSShapeGroup"></path>
                <path d="M0.375,7.94574795 L7.50299236,13.671875 L17.53125,8.55237577 L9.50813349,5.140625 L0.375,7.94574795 L0.375,7.94574795 Z" id="Fill-1550" fill="#A09F88" sketch:type="MSShapeGroup"></path>
                <path d="M0.375,7.94585212 L7.50299236,13.671875 L17.53125,8.55235329 L9.50813349,5.140625 L0.375,7.94585212 L0.375,7.94585212 Z" id="Stroke-1551" stroke="#000000" stroke-width="0.5" stroke-linecap="round" stroke-linejoin="round" sketch:type="MSShapeGroup"></path>
                <path d="M0.375,7.95149438 L0.706183673,9.94775229 L7.60846224,16.203125 L17.233555,10.6194486 L17.53125,8.55921542 L9.50813349,5.140625 L0.375,7.95149438 L0.375,7.95149438 Z" id="Stroke-1576" stroke="#000000" stroke-width="0.5" stroke-linecap="round" stroke-linejoin="round" sketch:type="MSShapeGroup"></path>
                <path d="M8.76571875,0.125 L5.765625,5.375 L7.26567813,5.375 L7.26567813,9.125 L10.2655844,9.124875 L10.2656719,5.375 L11.765625,5.375 L8.76571875,0.125 L8.76571875,0.125 Z" id="Fill-23198" fill="#FB0011" sketch:type="MSShapeGroup"></path>
                <path d="M8.76571875,0.125 L5.765625,5.374975 L7.26567813,5.374975 L7.26567813,9.125 L10.2655844,9.1249 L10.2656719,5.374975 L11.765625,5.374975 L8.76571875,0.125 L8.76571875,0.125 Z" id="Stroke-23199" stroke="#000000" stroke-width="0.5" stroke-linecap="round" stroke-linejoin="round" sketch:type="MSShapeGroup"></path>
                <path d="M8.76571875,0.125 L5.765625,5.375 L7.26567813,5.375 L7.26567813,9.125 L10.2655844,9.124875 L10.2656719,5.375 L11.765625,5.375 L8.76571875,0.125 L8.76571875,0.125 Z" id="Fill-23200" fill="#1293F5" sketch:type="MSShapeGroup"></path>
                <path d="M8.76571875,0.125 L5.765625,5.374975 L7.26567813,5.374975 L7.26567813,9.125 L10.2655844,9.1249 L10.2656719,5.374975 L11.765625,5.374975 L8.76571875,0.125 L8.76571875,0.125 Z" id="Stroke-23201" stroke="#FFFFFF" stroke-width="1.5" stroke-linecap="round" stroke-linejoin="round" sketch:type="MSShapeGroup"></path>
                <path d="M8.76571875,0.125 L5.765625,5.375 L7.26567813,5.375 L7.26567813,9.125 L10.2655844,9.124875 L10.2656719,5.375 L11.765625,5.375 L8.76571875,0.125 L8.76571875,0.125 Z" id="Fill-23202" fill="#FB0011" sketch:type="MSShapeGroup"></path>
                <path d="M8.76571875,0.125 L5.765625,5.374975 L7.26567813,5.374975 L7.26567813,9.125 L10.2655844,9.1249 L10.2656719,5.374975 L11.765625,5.374975 L8.76571875,0.125 L8.76571875,0.125 Z" id="Stroke-23203" stroke="#000000" stroke-width="0.5" stroke-linecap="round" stroke-linejoin="round" sketch:type="MSShapeGroup"></path>
            </g>
        </g>
    </g>
</svg>