<?xml version="1.0" standalone="no"?>
<!DOCTYPE svg PUBLIC "-//W3C//DTD SVG 1.1//EN" "http://www.w3.org/Graphics/SVG/1.1/DTD/svg11.dtd">
<!--Generator: Xara Designer (www.xara.com), SVG filter version: 6.5.0.22-->
<svg fill="none" fill-rule="evenodd" stroke="black" stroke-width="0.501" stroke-linejoin="bevel" stroke-miterlimit="10" font-family="Times New Roman" font-size="16" style="font-variant-ligatures:none" xmlns:xlink="http://www.w3.org/1999/xlink" xmlns="http://www.w3.org/2000/svg" version="1.1" overflow="visible" width="72pt" height="72pt" viewBox="0 -72 72 72">
 <defs>
	</defs>
 <g id="Faceted Face" transform="scale(1 -1)">
  <g id="Group" stroke="#000000">
   <path d="M 47.158,46.912 L 38.961,50.307 L 43.763,55.109 L 47.158,46.912 Z" stroke-width="1.5" fill="#d2d2d2" stroke-linecap="square" marker-start="none" marker-end="none"/>
   <path d="M 50.556,55.108 L 43.765,55.109 L 41.822,59.797 L 52.5,59.797 L 50.556,55.108 Z" stroke-width="1.5" fill="#b7b5b5" stroke-linecap="square" marker-start="none" marker-end="none"/>
   <path d="M 55.358,50.306 L 50.556,55.108 L 52.5,59.797 L 60.047,52.25 L 55.358,50.306 Z" stroke-width="1.5" fill="#929292" stroke-linecap="square" marker-start="none" marker-end="none"/>
   <path d="M 38.961,50.307 L 34.274,52.249 L 41.822,59.797 L 43.763,55.109 L 38.961,50.307 Z" stroke-width="1.5" fill="#c4c4c4" stroke-linecap="square" marker-start="none" marker-end="none"/>
   <g id="Group_1" stroke-width="1.5" stroke-linecap="square" fill="#ffffff">
    <path d="M 34.274,41.574 L 34.274,52.249 L 38.961,50.307 L 38.961,43.515 L 34.274,41.574 Z" marker-start="none" marker-end="none"/>
   </g>
   <g id="Group_2" stroke-width="1.5" stroke-linecap="square" fill="#7f7f7f">
    <path d="M 60.047,41.572 L 55.358,43.516 L 55.358,50.306 L 60.047,52.25 L 60.047,41.572 Z" marker-start="none" marker-end="none"/>
   </g>
   <path d="M 52.499,34.025 L 50.556,38.712 L 55.358,43.515 L 55.358,43.516 L 60.047,41.572 L 52.499,34.025 Z" stroke-width="1.5" fill="#929292" stroke-linecap="square" marker-start="none" marker-end="none"/>
   <path d="M 41.824,34.025 L 34.275,41.574 L 38.961,43.515 L 43.763,38.712 L 43.765,38.712 L 41.824,34.025 Z" stroke-width="1.5" fill="#c4c4c4" stroke-linecap="square" marker-start="none" marker-end="none"/>
   <path d="M 41.824,34.025 L 43.765,38.712 L 50.556,38.712 L 52.499,34.025 L 41.824,34.025 Z" stroke-width="1.5" fill="#b7b5b5" stroke-linecap="square" marker-start="none" marker-end="none"/>
   <path d="M 47.161,46.912 L 43.765,55.109 L 50.556,55.108 L 47.161,46.912 Z" stroke-width="1.5" fill="#cccccc" stroke-linecap="square" marker-start="none" marker-end="none"/>
   <path d="M 47.162,46.912 L 50.556,55.108 L 55.358,50.306 L 47.162,46.912 Z" stroke-width="1.5" fill="#b2b2b2" stroke-linecap="square" marker-start="none" marker-end="none"/>
   <g id="Group_3" stroke-width="1.5" stroke-linecap="square" fill="#eaeaea">
    <path d="M 38.961,43.515 L 38.961,50.307 L 47.158,46.912 L 38.961,43.515 Z" marker-start="none" marker-end="none"/>
   </g>
   <g id="Group_4" stroke-width="1.5" stroke-linecap="square" fill="#999999">
    <path d="M 55.358,43.516 L 47.162,46.912 L 55.358,50.306 L 55.358,43.516 Z" marker-start="none" marker-end="none"/>
   </g>
   <path d="M 50.556,38.712 L 47.162,46.912 L 55.358,43.516 L 55.358,43.515 L 50.556,38.712 Z" stroke-width="1.5" fill="#b2b2b2" stroke-linecap="square" marker-start="none" marker-end="none"/>
   <path d="M 43.763,38.712 L 38.961,43.515 L 47.158,46.912 L 43.765,38.712 L 43.763,38.712 Z" stroke-width="1.5" fill="#d2d2d2" stroke-linecap="square" marker-start="none" marker-end="none"/>
   <path d="M 43.765,38.712 L 47.162,46.912 L 50.556,38.712 L 43.765,38.712 Z" stroke-width="1.5" fill="#cccccc" stroke-linecap="square" marker-start="none" marker-end="none"/>
   <path d="M 41.921,59.896 L 34.373,52.347 L 34.373,41.671 L 41.921,34.123 L 52.597,34.123 L 60.146,41.671 L 60.146,52.347 L 52.597,59.896 L 41.921,59.896 Z" stroke-width="2.25" stroke-linejoin="miter" marker-start="none" marker-end="none"/>
  </g>
  <g id="Group_5">
   <path d="M 24.895,24.826 L 16.697,28.221 L 21.499,33.023 L 24.895,24.826 Z" stroke="none" fill="#d2d2d2" stroke-width="0.45" stroke-linecap="square" marker-start="none" marker-end="none"/>
   <path d="M 28.291,33.022 L 21.5,33.023 L 19.558,37.711 L 30.235,37.711 L 28.291,33.022 Z" stroke="none" fill="#b7b5b5" stroke-width="0.45" stroke-linecap="square" marker-start="none" marker-end="none"/>
   <path d="M 33.093,28.22 L 28.291,33.022 L 30.235,37.711 L 37.782,30.164 L 33.093,28.22 Z" stroke="none" fill="#929292" stroke-width="0.45" stroke-linecap="square" marker-start="none" marker-end="none"/>
   <path d="M 16.697,28.221 L 12.01,30.163 L 19.558,37.711 L 21.499,33.023 L 16.697,28.221 Z" stroke="none" fill="#c4c4c4" stroke-width="0.45" stroke-linecap="square" marker-start="none" marker-end="none"/>
   <g id="Group_6" stroke-linecap="square" stroke="none" stroke-width="0.45" fill="#ffffff">
    <path d="M 12.01,19.488 L 12.01,30.163 L 16.697,28.221 L 16.697,21.429 L 12.01,19.488 Z" marker-start="none" marker-end="none"/>
   </g>
   <g id="Group_7" stroke-linecap="square" stroke="none" stroke-width="0.45" fill="#7f7f7f">
    <path d="M 37.782,19.487 L 33.093,21.43 L 33.093,28.22 L 37.782,30.164 L 37.782,19.487 Z" marker-start="none" marker-end="none"/>
   </g>
   <path d="M 30.234,11.94 L 28.291,16.627 L 33.093,21.429 L 33.093,21.43 L 37.782,19.487 L 30.234,11.94 Z" stroke="none" fill="#929292" stroke-width="0.45" stroke-linecap="square" marker-start="none" marker-end="none"/>
   <path d="M 19.56,11.94 L 12.011,19.488 L 16.697,21.429 L 21.499,16.627 L 21.5,16.627 L 19.56,11.94 Z" stroke="none" fill="#c4c4c4" stroke-width="0.45" stroke-linecap="square" marker-start="none" marker-end="none"/>
   <path d="M 19.56,11.94 L 21.5,16.627 L 28.291,16.627 L 30.234,11.94 L 19.56,11.94 Z" stroke="none" fill="#b7b5b5" stroke-width="0.45" stroke-linecap="square" marker-start="none" marker-end="none"/>
   <path d="M 24.896,24.826 L 21.5,33.023 L 28.291,33.022 L 24.896,24.826 Z" stroke="none" fill="#cccccc" stroke-width="0.45" stroke-linecap="square" marker-start="none" marker-end="none"/>
   <path d="M 24.897,24.826 L 28.291,33.022 L 33.093,28.22 L 24.897,24.826 Z" stroke="none" fill="#b2b2b2" stroke-width="0.45" stroke-linecap="square" marker-start="none" marker-end="none"/>
   <g id="Group_8" stroke-linecap="square" stroke="none" stroke-width="0.45" fill="#eaeaea">
    <path d="M 16.697,21.429 L 16.697,28.221 L 24.895,24.826 L 16.697,21.429 Z" marker-start="none" marker-end="none"/>
   </g>
   <g id="Group_9" stroke-linecap="square" stroke="none" stroke-width="0.45" fill="#999999">
    <path d="M 33.093,21.43 L 24.897,24.826 L 33.093,28.22 L 33.093,21.43 Z" marker-start="none" marker-end="none"/>
   </g>
   <path d="M 28.291,16.627 L 24.897,24.826 L 33.093,21.43 L 33.093,21.429 L 28.291,16.627 Z" stroke="none" fill="#b2b2b2" stroke-width="0.45" stroke-linecap="square" marker-start="none" marker-end="none"/>
   <path d="M 21.499,16.627 L 16.697,21.429 L 24.895,24.826 L 21.5,16.627 L 21.499,16.627 Z" stroke="none" fill="#d2d2d2" stroke-width="0.45" stroke-linecap="square" marker-start="none" marker-end="none"/>
   <path d="M 21.5,16.627 L 24.897,24.826 L 28.291,16.627 L 21.5,16.627 Z" stroke="none" fill="#cccccc" stroke-width="0.45" stroke-linecap="square" marker-start="none" marker-end="none"/>
   <path d="M 19.557,37.713 L 12.009,30.164 L 12.009,19.488 L 19.557,11.94 L 30.233,11.94 L 37.782,19.488 L 37.782,30.164 L 30.233,37.713 L 19.557,37.713 Z" stroke-width="2.25" stroke="#000000" stroke-linejoin="miter" marker-start="none" marker-end="none"/>
  </g>
  <g id="Group_10" fill="#ff0000" stroke="none">
   <path d="M 18.301,35.114 L 18.414,35.224 C 18.417,35.194 18.423,35.168 18.43,35.141 L 18.301,35.114 Z M 20.004,45.372 L 14.23,46.979 C 17.575,54.092 24.316,60.115 32.282,61.114 L 32.32,58.13 L 32.355,55.359 C 31.233,55.018 30.113,54.588 28.993,54.09 L 28.991,54.09 C 24.938,52.04 21.82,48.929 19.992,45.376 L 20.004,45.372 Z" fill-rule="evenodd" stroke-width="0.561" marker-start="none" marker-end="none"/>
   <path d="M 12.351,39.473 L 26.388,44.697 L 11.297,54.375 L 12.351,39.473 Z" stroke-width="0.075" stroke-linejoin="miter" marker-start="none" marker-end="none"/>
  </g>
 </g>
 <g id="Subscript Circle-I" transform="scale(1 -1)">
  <g id="Group_11" stroke-linejoin="miter">
   <path d="M 28.148,27.387 C 28.148,36.496 35.547,43.89 44.65,43.89 C 53.754,43.89 61.151,36.496 61.151,27.387 C 61.151,18.284 53.754,10.886 44.65,10.886 C 35.547,10.886 28.148,18.284 28.148,27.387 L 28.148,27.387 Z" stroke="none" fill="#ffffff" stroke-width="0.818" marker-start="none" marker-end="none"/>
   <path d="M 29.52,27.387 C 29.52,35.739 36.304,42.518 44.65,42.518 C 52.997,42.518 59.779,35.739 59.779,27.387 C 59.779,19.041 52.997,12.258 44.65,12.258 C 36.304,12.258 29.52,19.041 29.52,27.387 L 29.52,27.387 Z" stroke="#000000" fill="#144689" stroke-width="0.75" marker-start="none" marker-end="none"/>
   <path d="M 42.151,30.306 L 47.564,30.306 L 47.564,16.562 L 42.151,16.562 L 42.151,30.306 L 42.151,30.306 Z" stroke="#000000" fill="#ffffff" stroke-width="0.563" marker-start="none" marker-end="none"/>
   <path d="M 42.151,38.495 L 47.564,38.495 L 47.564,33.081 L 42.151,33.081 L 42.151,38.495 L 42.151,38.495 Z" stroke="#000000" fill="#ffffff" stroke-width="0.563" marker-start="none" marker-end="none"/>
  </g>
 </g>
</svg>
