<?xml version="1.0" encoding="UTF-8" standalone="no"?>
<svg width="512px" height="512px" viewBox="0 0 512 512" version="1.1" xmlns="http://www.w3.org/2000/svg" xmlns:xlink="http://www.w3.org/1999/xlink" xmlns:sketch="http://www.bohemiancoding.com/sketch/ns">
    <!-- Generator: Sketch 3.3 (11970) - http://www.bohemiancoding.com/sketch -->
    <title>tb_paint</title>
    <desc>Created with Sketch.</desc>
    <defs></defs>
    <g id="Page-1" stroke="none" stroke-width="1" fill="none" fill-rule="evenodd" sketch:type="MSPage">
        <g id="tb_paint" sketch:type="MSArtboardGroup">
            <path d="M288.143018,159.067756 C272.440984,216.309851 213.309264,275.442857 156.069034,291.143561 C98.8261409,306.846932 65.1522835,273.173229 80.856982,215.931135 C96.5590164,158.691707 155.690736,99.5587011 212.930966,83.8553301 C270.173859,68.1546261 303.847717,101.828329 288.143018,159.067756" id="Fill-28315" fill="#BBBBBB" sketch:type="MSShapeGroup"></path>
            <path d="M288.143018,159.06796 C272.440984,216.309033 213.309264,275.441286 156.069034,291.14387 C98.8261409,306.846453 65.1522835,273.17299 80.856982,215.931917 C96.5590164,158.691111 155.690736,99.5586441 212.930966,83.8561141 C270.173859,68.1535574 303.847717,101.8271 288.143018,159.06796" id="Stroke-28316" stroke="#000000" stroke-width="13.3333333" stroke-linecap="round" sketch:type="MSShapeGroup"></path>
            <path d="M268.714824,158.638187 C253.603873,205.97644 202.979257,256.602109 155.641019,271.71409 C108.300119,286.826071 82.174206,260.702714 97.2851572,213.36446 C112.396108,166.026207 163.020724,115.397872 210.361625,100.285891 C257.699862,85.17391 283.825775,111.297267 268.714824,158.638187" id="Fill-28317" fill="#92AAA4" sketch:type="MSShapeGroup"></path>
            <path d="M268.714824,158.636405 C253.603873,205.974939 202.979257,256.601423 155.641019,271.713942 C108.300119,286.82646 82.174206,260.702029 97.2851572,213.363495 C112.396108,166.024961 163.020724,115.398504 210.361625,100.286039 C257.699862,85.1735736 283.825775,111.297952 268.714824,158.636405" id="Stroke-28318" stroke="#000000" stroke-width="5.33333333" stroke-linecap="round" stroke-linejoin="round" sketch:type="MSShapeGroup"></path>
            <path d="M91,279.607309 C194.272987,350.598632 267.492212,401.901362 267.492212,401.901362 C341.353828,420.205124 421.820608,313.993773 400.520422,269.141168 L294.61923,120 C296.231871,137.880322 314.221479,158.85255 251.248521,233.476397 C199.185544,295.170699 149.292302,305.658144 91,279.607309 L91,279.607309 Z" id="Fill-28319" fill="#616265" sketch:type="MSShapeGroup"></path>
            <path d="M278.116983,93 L400.520422,269.765729 C421.820608,314.744346 341.353828,421.25033 267.492212,402.895472 L267.492212,402.895472 C267.492212,402.895472 267.492212,402.895472 91,280.261354" id="Stroke-28320" stroke="#000000" stroke-width="13.3333333" stroke-linecap="round" sketch:type="MSShapeGroup"></path>
            <path d="M306.116634,131 C307.743542,132.933269 381.512666,240.426252 381.512666,240.426252 C381.512666,240.426252 404.520658,258.272226 369.871766,312 L288,227.238307 C332.851628,163.173024 306.116634,131 306.116634,131 L306.116634,131 Z" id="Fill-28321" fill="#B3A47B" sketch:type="MSShapeGroup"></path>
            <path d="M306.116634,131 C307.743542,132.933155 381.512666,240.425544 381.512666,240.425544 C381.512666,240.425544 404.520658,258.272497 369.871766,312 L288,227.238538 C332.851628,163.172888 306.116634,131 306.116634,131 L306.116634,131 Z" id="Stroke-28322" stroke="#000000" stroke-width="5.33333333" stroke-linecap="round" stroke-linejoin="round" sketch:type="MSShapeGroup"></path>
            <path d="M353,345.341025 L266.698926,259 C182.514068,343.232021 141,312.053466 141,312.053466 L170.824244,331.501687 C171.466571,332.046291 246.802771,386.976503 246.802771,386.976503 C246.802771,386.976503 281.016696,416.478533 352.557567,344.900537" id="Fill-28323" fill="#DBD09B" sketch:type="MSShapeGroup"></path>
            <path d="M353,345.342445 L266.698926,259 C182.514068,343.231551 141,312.054544 141,312.054544 L170.824244,331.502431 C171.466571,332.044904 246.802771,386.976482 246.802771,386.976482 C246.802771,386.976482 281.016696,416.478548 352.557567,344.900618" id="Stroke-28324" stroke-opacity="0.498" stroke="#3094FF" stroke-width="2.66666667" stroke-linecap="round" stroke-linejoin="round" sketch:type="MSShapeGroup"></path>
            <path d="M268.550797,157.784308 C253.159165,204.769852 202.378541,255.267849 155.131737,270.575054 C107.882259,285.881993 82.0575705,260.201356 97.4492027,213.215812 C112.840835,166.230002 163.621459,115.731952 210.868263,100.42496 C258.117741,85.1179942 283.942429,110.798605 268.550797,157.784308" id="Stroke-28325" stroke="#000000" stroke-width="10.6666667" stroke-linecap="round" stroke-linejoin="round" sketch:type="MSShapeGroup"></path>
            <path d="M314.873178,258 C428.403551,193.42817 397.113949,76.2540939 307,131.294159" id="Stroke-28327" stroke="#000000" stroke-width="16" stroke-linecap="round" sketch:type="MSShapeGroup"></path>
            <path d="M312.314098,252.68619 C318.561967,258.934711 318.561967,269.065356 312.314098,275.31361 C306.066228,281.56213 295.935772,281.56213 289.687902,275.31361 C283.437366,269.065356 283.437366,258.934711 289.687902,252.68619 C295.935772,246.437937 306.066228,246.437937 312.314098,252.68619" id="Stroke-28330" stroke="#000000" stroke-width="16" sketch:type="MSShapeGroup"></path>
            <path d="M353,347.342548 L266.702087,261 C182.512447,345.231391 141,314.054444 141,314.054444 L170.824994,333.502827 C171.464672,334.044766 246.800101,388.97704 246.800101,388.97704 C246.800101,388.97704 281.017551,418.477715 352.560221,346.900188" id="Stroke-28332" stroke="#000000" stroke-width="5.33333333" stroke-linecap="round" stroke-linejoin="round" sketch:type="MSShapeGroup"></path>
            <path d="M351,345.342841 L264.700507,259 C180.511925,343.230882 139,312.05446 139,312.05446 L168.824619,331.502048 C169.466954,332.044254 244.801436,386.977078 244.801436,386.977078 C244.801436,386.977078 279.015791,416.477496 350.557562,344.900747" id="Stroke-28334" stroke="#000000" stroke-width="5.33333333" stroke-linecap="round" stroke-linejoin="round" sketch:type="MSShapeGroup"></path>
            <path d="M244,191.6498 C181.476412,176.970982 86.5934229,226.072868 53.4916004,270.106654 C20.3924484,314.137773 73.7158926,440.802927 101.535311,430.39465 C130.957076,419.386203 143.789206,296.532794 162.181481,278.183605 C180.568416,259.837083 244,217.334397 244,191.6498 L244,191.6498 Z" id="Fill-28336" fill="#FFBF00" sketch:type="MSShapeGroup"></path>
            <path d="M244,191.64937 C181.476412,176.97193 86.5934229,226.0734 53.4916004,270.106252 C20.3924484,314.139104 73.7158926,440.803605 101.535311,430.39456 C130.957076,419.386681 143.789206,296.531778 162.181481,278.184245 C180.568416,259.837779 244,217.335489 244,191.64937 L244,191.64937 Z" id="Stroke-28338" stroke="#000000" stroke-width="10.6666667" stroke-linecap="round" stroke-linejoin="round" sketch:type="MSShapeGroup"></path>
        </g>
    </g>
</svg>