<?xml version="1.0" standalone="no"?>
<!DOCTYPE svg PUBLIC "-//W3C//DTD SVG 1.1//EN" "http://www.w3.org/Graphics/SVG/1.1/DTD/svg11.dtd">
<!--Generator: Xara Designer (www.xara.com), SVG filter version: 6.5.0.21-->
<svg fill="none" fill-rule="evenodd" stroke="black" stroke-width="0.501" stroke-linejoin="bevel" stroke-miterlimit="10" font-family="Times New Roman" font-size="16" style="font-variant-ligatures:none" xmlns:xlink="http://www.w3.org/1999/xlink" xmlns="http://www.w3.org/2000/svg" version="1.1" overflow="visible" width="71.999pt" height="71.999pt" viewBox="0 -71.999 71.999 71.999">
 <defs>
	</defs>
 <g id="Layer 1" transform="scale(1 -1)">
  <g id="Group" stroke-linejoin="miter" stroke="none">
   <g id="Group_1" stroke-width="0.75">
    <path d="M 48.441,53.831 L 48.441,50.506 C 48.441,49.902 47.948,49.436 47.371,49.436 L 27.659,49.436 C 27.057,49.436 26.589,49.926 26.589,50.506 L 26.589,53.831 L 22.479,53.831 L 22.479,45.796 L 27.3,46.419 L 35.674,39.857 L 33.953,24.924 L 22.479,21.666 L 22.479,13.003 L 52.55,13.003 L 52.55,53.831 L 48.441,53.831 Z" fill="#e2e2e7" fill-rule="nonzero" marker-start="none" marker-end="none"/>
    <path d="M 46.3,53.831 L 46.3,54.902 L 46.3,55.975 L 40.63,55.975 C 40.048,55.975 39.577,56.421 39.558,56.981 C 39.489,58.072 38.595,58.92 37.504,58.92 C 36.408,58.92 35.515,58.072 35.45,56.981 C 35.427,56.421 34.959,55.975 34.399,55.975 L 28.731,55.975 L 28.731,54.902 L 28.731,53.831 L 28.731,51.579 L 46.3,51.579 L 46.3,53.831 Z" fill="#e2e2e7" fill-rule="nonzero" marker-start="none" marker-end="none"/>
    <path d="M 48.441,53.831 L 48.441,50.506 C 48.441,49.902 47.948,49.436 47.371,49.436 L 27.659,49.436 C 27.057,49.436 26.589,49.926 26.589,50.506 L 26.589,53.831 L 22.479,53.831 L 22.479,13.003 L 52.55,13.003 L 52.55,53.831 L 48.441,53.831 Z" fill="#eaeaef" fill-rule="nonzero" marker-start="none" marker-end="none"/>
    <path d="M 46.3,53.831 L 46.3,54.902 L 46.3,55.975 L 40.63,55.975 C 40.048,55.975 39.577,56.421 39.558,56.981 C 39.489,58.072 38.595,58.92 37.504,58.92 C 36.408,58.92 35.515,58.072 35.45,56.981 C 35.427,56.421 34.959,55.975 34.399,55.975 L 28.731,55.975 L 28.731,54.902 L 28.731,53.831 L 28.731,51.579 L 46.3,51.579 L 46.3,53.831 Z" fill="#eaeaef" fill-rule="nonzero" marker-start="none" marker-end="none"/>
    <path d="M 20.336,11.931 L 20.336,54.902 C 20.336,55.482 20.807,55.975 21.408,55.975 L 26.589,55.975 L 26.589,57.045 C 26.589,57.626 27.057,58.117 27.659,58.117 L 33.506,58.117 C 34.042,59.858 35.65,61.087 37.524,61.087 C 39.399,61.087 40.986,59.858 41.522,58.117 L 47.371,58.117 C 47.948,58.117 48.441,57.649 48.441,57.045 L 48.441,55.975 L 53.62,55.975 C 54.222,55.975 54.713,55.506 54.713,54.902 L 54.713,11.931 C 54.713,11.349 54.245,10.862 53.64,10.862 L 21.408,10.862 C 20.827,10.862 20.336,11.329 20.336,11.931 Z M 52.55,13.003 L 52.55,53.831 L 48.441,53.831 L 48.441,50.482 C 48.441,49.902 47.972,49.412 47.371,49.412 L 27.659,49.412 C 27.079,49.412 26.589,49.882 26.589,50.482 L 26.589,53.81 L 22.479,53.81 L 22.479,13.003 L 52.55,13.003 Z M 46.3,51.579 L 46.3,53.831 L 46.32,53.831 L 46.32,55.975 L 40.65,55.975 C 40.069,55.975 39.601,56.4 39.577,56.981 C 39.511,58.072 38.619,58.92 37.524,58.92 C 36.433,58.92 35.539,58.072 35.472,56.981 C 35.45,56.421 34.959,55.975 34.399,55.975 L 28.731,55.975 L 28.731,51.579 L 46.3,51.579 Z" fill="#000000" marker-start="none" marker-end="none"/>
   </g>
   <g id="Group_2" stroke-linecap="round">
    <g id="Group_3">
     <path d="M 26.951,47.114 L 37.524,40.63 L 34.262,25.1 L 17.876,18.756 L 13.415,30.444 L 10.581,44.668 L 26.951,47.114 Z" stroke-width="0.188" fill="#fb0011" marker-start="none" marker-end="none"/>
     <g id="Group_4" stroke-width="0.038" fill="#ffffff">
      <path d="M 26.932,46.169 L 36.269,40.283 L 31.384,39.176 L 24.542,44.486 L 12.31,42.47 L 11.524,43.86 L 26.932,46.169 Z" marker-start="none" marker-end="none"/>
      <path d="M 13.576,36.349 L 24.189,38.609 L 29.392,33.163 L 24.11,31.599 L 21.328,35.356 L 14.824,33.745 L 13.576,36.349 Z" marker-start="none" marker-end="none"/>
      <path d="M 16.026,27.813 L 17.639,24.068 L 23.048,25.872 L 21.034,29.253 L 16.026,27.813 Z" marker-start="none" marker-end="none"/>
     </g>
    </g>
   </g>
  </g>
  <text xml:space="preserve" transform="translate(109.871 67.182) scale(1 -1)" kerning="auto" stroke="none" fill="#000000" stroke-width="0.375" stroke-linejoin="round" stroke-linecap="round" font-family="Arial" font-size="4.435"><tspan x="-34.768" y="0">&lt;= SU2020 Place</tspan></text>
 </g>
</svg>
