<?xml version="1.0" standalone="no"?>
<!DOCTYPE svg PUBLIC "-//W3C//DTD SVG 1.1//EN" "http://www.w3.org/Graphics/SVG/1.1/DTD/svg11.dtd">
<!--Generator: Xara Designer (www.xara.com), SVG filter version: 6.5.0.22-->
<svg fill="none" fill-rule="evenodd" stroke="black" stroke-width="0.501" stroke-linejoin="bevel" stroke-miterlimit="10" font-family="Times New Roman" font-size="16" style="font-variant-ligatures:none" xmlns:xlink="http://www.w3.org/1999/xlink" xmlns="http://www.w3.org/2000/svg" version="1.1" overflow="visible" width="72pt" height="72pt" viewBox="0 -72 72 72">
 <defs>
	</defs>
 <g id="Fog" transform="scale(1 -1)">
  <g id="Group" stroke="none">
   <rect x="-22.464" y="-22.453" width="44.929" height="44.906" transform="translate(30.118 41.545) rotate(87.4003) skewX(-1.06065)" stroke-linecap="round" stroke-width="0.488" stroke-linejoin="miter"/>
   <path d="M 10.633,34.05 C 10.793,37.553 12.593,40.646 15.296,42.674 C 12.539,44.351 10.777,47.336 10.928,50.69 C 11.159,55.752 15.667,59.743 20.99,59.599 C 23.099,59.543 25.297,58.672 26.835,57.537 C 28.252,59.617 30.153,60.712 32.925,60.639 C 37.11,60.525 40.675,57.637 40.495,53.66 C 40.481,53.365 40.451,53.073 40.401,52.787 C 40.419,52.787 40.437,52.788 40.456,52.788 C 45.781,52.645 49.915,48.421 49.685,43.36 C 49.536,40.063 47.572,37.22 44.75,35.678 C 45.004,34.868 45.123,34.007 45.082,33.111 C 44.886,28.774 41.021,25.352 36.458,25.476 C 34.854,25.518 33.379,25.991 32.149,26.774 C 29.828,23.95 26.179,22.171 22.157,22.277 C 15.509,22.456 10.345,27.731 10.633,34.05 Z" fill="#929292" stroke-linejoin="round" stroke-width="0.488" stroke-linecap="round" marker-start="none" marker-end="none"/>
   <path d="M 12.809,34.084 C 12.939,36.952 14.414,39.51 16.676,41.208 C 17.691,41.971 17.636,43.508 16.568,44.156 C 14.348,45.505 12.983,47.871 13.101,50.473 C 13.279,54.389 16.802,57.629 21.146,57.513 C 22.856,57.467 24.403,56.902 25.636,55.992 C 26.448,55.392 27.61,55.602 28.185,56.449 C 29.231,57.982 31.097,59.016 33.215,58.959 C 36.437,58.872 38.784,56.342 38.654,53.494 C 38.645,53.279 38.62,53.068 38.584,52.86 C 38.398,51.785 39.212,50.809 40.302,50.801 L 40.338,50.803 C 44.664,50.686 47.884,47.264 47.707,43.349 C 47.591,40.79 46.065,38.539 43.793,37.296 C 43.035,36.881 42.669,35.989 42.926,35.173 C 43.113,34.57 43.203,33.925 43.173,33.257 C 43.027,30.052 40.139,27.374 36.543,27.47 C 35.29,27.504 34.147,27.873 33.197,28.477 C 32.438,28.959 31.426,28.788 30.845,28.083 C 28.916,25.734 25.859,24.227 22.458,24.319 C 16.808,24.472 12.575,28.928 12.809,34.084 Z" fill="#b3b3b3" stroke-linejoin="round" stroke-width="0.488" stroke-linecap="round" marker-start="none" marker-end="none"/>
   <path d="M 20.402,33.053 C 20.43,33.665 20.736,34.319 21.427,34.839 C 26.012,38.28 25.76,45.209 20.945,48.135 C 20.63,48.326 20.679,48.487 20.676,48.431 C 20.669,48.29 20.7,48.863 21.563,48.84 C 21.856,48.832 22.069,48.739 22.217,48.631 C 24.959,46.606 28.589,46.629 31.331,48.381 L 32.002,48.909 L 32.095,48.325 C 33,45.04 35.984,42.563 39.671,42.539 L 39.638,42.54 C 40.422,42.519 40.399,41.946 40.405,42.088 C 40.408,42.141 40.438,41.984 40.124,41.814 C 37.552,40.408 35.982,37.792 35.844,35.021 L 35.892,33.743 L 35.326,34.032 C 32.124,35.301 28.343,34.367 26.052,31.577 C 25.513,30.923 24.56,30.399 23.373,30.432 C 21.285,30.486 20.355,32.027 20.402,33.053 Z" stroke-linejoin="round" stroke-width="0.488" fill="#ffffff" marker-start="none" marker-end="none"/>
   <path d="M 17.871,34.109 C 17.93,35.381 18.576,36.597 19.738,37.471 C 23.541,40.325 23.333,46.078 19.336,48.506 C 18.478,49.029 18.13,49.811 18.16,50.496 C 18.206,51.484 19.215,52.828 21.092,52.779 C 21.793,52.76 22.39,52.531 22.847,52.192 C 25.883,49.954 30.227,50.733 32.387,53.903 C 32.47,54.023 32.725,54.234 33.161,54.222 C 33.914,54.202 33.925,53.699 33.929,53.781 L 33.926,53.765 C 33.227,49.737 36.269,46.089 40.335,46.064 C 42.142,46.015 43.025,44.62 42.981,43.634 C 42.95,42.962 42.547,42.214 41.673,41.735 C 38.827,40.179 37.459,36.836 38.415,33.786 C 38.437,33.713 38.451,33.635 38.446,33.542 C 38.433,33.271 38.059,32.487 36.931,32.517 C 36.567,32.527 36.273,32.631 36.049,32.774 C 33.207,34.581 29.419,33.946 27.247,31.299 C 26.295,30.14 24.708,29.317 22.848,29.368 C 19.665,29.454 17.77,31.883 17.871,34.109 Z" fill="#f0f0f0" stroke-linejoin="round" stroke-width="0.488" marker-start="none" marker-end="none"/>
   <path d="M 14.517,34.095 C 14.624,36.424 15.816,38.53 17.708,39.951 C 19.664,41.42 19.556,44.376 17.502,45.625 C 15.741,46.695 14.719,48.527 14.806,50.483 C 14.939,53.412 17.616,56.015 21.129,55.92 C 22.499,55.883 23.728,55.432 24.698,54.715 C 26.259,53.563 28.493,53.964 29.603,55.596 C 30.322,56.65 31.647,57.408 33.198,57.366 C 35.588,57.302 37.149,55.453 37.063,53.593 C 37.056,53.447 37.043,53.306 37.017,53.168 C 36.659,51.096 38.221,49.222 40.318,49.207 L 40.338,49.207 C 43.816,49.114 46.25,46.377 46.116,43.448 C 46.03,41.523 44.882,39.78 43.082,38.793 C 41.619,37.993 40.915,36.276 41.407,34.709 C 41.54,34.282 41.602,33.829 41.582,33.355 C 41.48,31.138 39.439,29.099 36.675,29.173 C 35.721,29.198 34.865,29.478 34.16,29.927 C 32.699,30.856 30.752,30.529 29.634,29.169 C 28.034,27.221 25.473,25.945 22.59,26.023 C 17.773,26.152 14.329,29.927 14.517,34.095 Z M 28.515,30.212 C 30.138,32.191 32.967,32.664 35.088,31.315 C 35.562,31.012 36.15,30.817 36.823,30.8 C 38.801,30.745 40.043,32.184 40.101,33.47 C 40.114,33.759 40.078,34.032 39.997,34.288 C 39.28,36.568 40.304,39.065 42.428,40.227 C 43.785,40.97 44.577,42.236 44.636,43.561 C 44.727,45.558 43.037,47.653 40.357,47.724 C 37.309,47.744 35.038,50.467 35.558,53.477 C 35.573,53.553 35.581,53.628 35.584,53.706 C 35.625,54.637 34.808,55.84 33.202,55.883 C 32.186,55.909 31.374,55.415 30.961,54.808 C 29.347,52.436 26.102,51.856 23.834,53.529 C 23.109,54.063 22.184,54.408 21.135,54.437 C 18.405,54.511 16.53,52.511 16.439,50.513 C 16.378,49.167 17.076,47.837 18.404,47.029 C 21.39,45.215 21.547,40.919 18.704,38.785 C 17.161,37.626 16.23,35.948 16.148,34.123 C 16.001,30.887 18.703,27.757 22.737,27.649 C 25.131,27.585 27.225,28.644 28.515,30.212 Z" fill="#d0d0d0" stroke-width="0.488" stroke-linejoin="round" stroke-linecap="round" marker-start="none" marker-end="none"/>
   <g id="Group_1">
    <path d="M 16.203,34.257 C 16.284,36.073 17.215,37.744 18.751,38.899 C 21.581,41.023 21.425,45.303 18.452,47.109 C 17.127,47.916 16.433,49.238 16.494,50.58 C 16.585,52.571 18.453,54.562 21.172,54.488 C 22.216,54.461 23.138,54.117 23.86,53.585 C 26.116,51.919 29.351,52.498 30.958,54.858 C 31.369,55.464 32.178,55.955 33.192,55.929 C 34.792,55.886 35.606,54.687 35.564,53.763 C 35.561,53.684 35.551,53.607 35.538,53.531 C 35,50.595 37.247,47.946 40.318,47.803 C 42.986,47.731 44.67,45.646 44.581,43.657 C 44.52,42.337 43.732,41.075 42.383,40.336 C 40.264,39.178 39.247,36.691 39.958,34.42 C 40.038,34.164 40.076,33.893 40.062,33.604 C 40.005,32.323 38.767,30.891 36.795,30.944 C 36.125,30.962 35.541,31.157 35.071,31.459 C 32.955,32.802 30.139,32.33 28.521,30.361 C 27.237,28.798 25.149,27.743 22.768,27.807 C 18.75,27.915 16.057,31.032 16.203,34.257 Z M 27.226,31.415 C 29.103,34.236 33.393,35.318 35.66,33.749 C 36.363,32.235 38.973,33.194 38.015,34.759 C 35.707,37.725 36.608,40.697 40.928,42.377 C 41.801,42.855 42.606,45.412 40.044,45.48 C 36.24,45.583 33.397,48.993 33.617,52.52 C 33.726,53.349 32.746,54.401 32.193,53.486 C 30.752,49.68 26.725,49.194 22.843,52.224 C 21.826,53.353 18.833,52.686 19.23,50.659 C 19.199,49.978 19.771,48.061 20.629,47.543 C 23.458,43.947 23.184,40.858 19.747,37.562 C 18.589,36.691 17.943,35.479 17.887,34.212 C 17.786,31.994 19.675,29.576 22.844,29.49 C 24.699,29.44 26.277,30.258 27.226,31.415 Z" stroke-linejoin="round" stroke-width="0.488" fill="#e2e2e2" marker-start="none" marker-end="none"/>
    <path d="M 16.72,23.808 C 13.171,25.762 10.427,29.816 10.799,34.509 C 10.84,37.786 12.701,40.669 15.307,42.667 C 4.406,49.544 15.674,65.96 26.674,57.866 C 30.976,64.213 41.841,60.46 40.644,52.926 C 49.878,53.059 53.386,39.875 44.93,35.729 C 47.145,28.684 38.278,22.848 32.258,26.789 C 28.341,21.937 21.609,21.253 16.745,23.852 M 29.282,25.004 C 30.325,25.639 31.39,26.697 32.309,27.639 C 38.376,23.843 46.764,29.056 44.379,35.898 C 50.138,39.05 50.853,46.35 46.015,50.374 C 45.255,51.008 43.884,51.744 42.855,52.024 C 41.296,52.447 40.424,52.149 40.1,52.574 C 39.368,53.539 41.042,59.838 33.038,60.271 C 28.566,60.516 27.798,57.531 26.846,57.33 C 26.501,57.258 22.27,60.441 18.498,59.163 C 10.95,56.603 9.328,46.982 15.958,42.711 C 7.449,35.851 12.368,23.653 21.437,23.077 C 23.711,22.932 26.669,23.42 29.282,25.004 Z" fill="#333333" stroke-width="0.326" marker-start="none" marker-end="none"/>
   </g>
  </g>
 </g>
 <g id="Subscript Circle-I" transform="scale(1 -1)">
  <g id="Group_2" stroke-linejoin="miter" stroke="#000000">
   <path d="M 30.319,26.4 C 30.319,34.752 37.103,41.531 45.449,41.531 C 53.796,41.531 60.578,34.752 60.578,26.4 C 60.578,18.054 53.796,11.271 45.449,11.271 C 37.103,11.271 30.319,18.054 30.319,26.4 L 30.319,26.4 Z" fill="#144689" stroke-width="0.75" marker-start="none" marker-end="none"/>
   <path d="M 42.95,29.319 L 48.363,29.319 L 48.363,15.575 L 42.95,15.575 L 42.95,29.319 L 42.95,29.319 Z" stroke-width="0.563" fill="#ffffff" marker-start="none" marker-end="none"/>
   <path d="M 42.95,37.508 L 48.363,37.508 L 48.363,32.094 L 42.95,32.094 L 42.95,37.508 L 42.95,37.508 Z" stroke-width="0.563" fill="#ffffff" marker-start="none" marker-end="none"/>
  </g>
 </g>
</svg>
