<?xml version="1.0" standalone="no"?>
<!DOCTYPE svg PUBLIC "-//W3C//DTD SVG 1.1//EN" "http://www.w3.org/Graphics/SVG/1.1/DTD/svg11.dtd">
<!--Generator: Xara Designer (www.xara.com), SVG filter version: 6.5.0.22-->
<svg fill="none" fill-rule="evenodd" stroke="black" stroke-width="0.501" stroke-linejoin="bevel" stroke-miterlimit="10" font-family="Times New Roman" font-size="16" style="font-variant-ligatures:none" xmlns:xlink="http://www.w3.org/1999/xlink" xmlns="http://www.w3.org/2000/svg" version="1.1" overflow="visible" width="72pt" height="72pt" viewBox="0 -72 72 72">
 <defs>
  <linearGradient id="LinearGradient" gradientUnits="userSpaceOnUse" x1="0" y1="0" x2="36.392" y2="0" gradientTransform="translate(11.04 45.396)">
   <stop offset="0" stop-color="#333333"/>
   <stop offset="0.265243887901306" stop-color="#737373"/>
   <stop offset="0.503048777580261" stop-color="#7f7f7f"/>
   <stop offset="0.722561001777649" stop-color="#6c6c6c"/>
   <stop offset="1" stop-color="#333333"/>
  </linearGradient>
 </defs>
 <g id="Outliner " transform="scale(1 -1)"/>
 <g id="Camera" transform="scale(1 -1)">
  <g id="Group" stroke-linejoin="miter" stroke="none" stroke-width="2.817">
   <path d="M 13.148,34.855 L 13.148,53.495 L 39.554,53.495 L 39.554,34.855 L 25.576,34.855 L 25.576,35.982 L 16.045,35.982 L 16.045,34.855 L 13.148,34.855 Z" fill="#ffffff" marker-start="none" marker-end="none"/>
   <path d="M 10.838,37.217 L 10.838,51.302 C 10.838,53.643 12.723,55.528 15.064,55.528 L 20.698,55.528 L 22.106,58.345 C 22.804,59.741 23.362,61.162 24.924,61.162 L 33.374,61.162 C 34.935,61.162 35.486,59.753 36.191,58.345 L 37.599,55.528 L 43.233,55.528 C 45.574,55.528 47.459,53.643 47.459,51.302 L 47.459,37.217 C 47.459,34.877 45.574,32.992 43.233,32.992 L 25.576,32.992 L 25.576,35.982 L 16.045,35.982 L 16.045,32.992 L 15.064,32.992 C 12.723,32.992 10.838,34.877 10.838,37.217 Z M 37.651,45.455 C 37.651,50.124 33.868,53.907 29.201,53.907 C 24.533,53.907 20.75,50.124 20.75,45.455 C 20.75,40.789 24.533,37.005 29.201,37.005 C 33.868,37.005 37.651,40.789 37.651,45.455 Z M 24.976,45.455 C 24.976,47.789 26.867,49.681 29.201,49.681 C 31.534,49.681 33.426,47.789 33.426,45.455 C 33.426,43.123 31.534,41.23 29.201,41.23 C 26.867,41.23 24.976,43.123 24.976,45.455 Z M 16.472,51.302 C 16.472,52.081 15.841,52.711 15.064,52.711 C 14.285,52.711 13.655,52.081 13.655,51.302 C 13.655,50.525 14.285,49.894 15.064,49.894 C 15.841,49.894 16.472,50.525 16.472,51.302 Z" fill-rule="nonzero" marker-start="none" marker-end="none" fill="url(#LinearGradient)"/>
  </g>
 </g>
 <g id="Subscript Circle-I" transform="scale(1 -1)">
  <g id="Group_1" stroke-linejoin="miter" stroke="#000000">
   <path d="M 30.319,26.4 C 30.319,34.752 37.103,41.531 45.449,41.531 C 53.796,41.531 60.578,34.752 60.578,26.4 C 60.578,18.054 53.796,11.271 45.449,11.271 C 37.103,11.271 30.319,18.054 30.319,26.4 L 30.319,26.4 Z" fill="#144689" stroke-width="0.75" marker-start="none" marker-end="none"/>
   <path d="M 42.95,29.319 L 48.363,29.319 L 48.363,15.575 L 42.95,15.575 L 42.95,29.319 L 42.95,29.319 Z" fill="#ffffff" stroke-width="0.563" marker-start="none" marker-end="none"/>
   <path d="M 42.95,37.508 L 48.363,37.508 L 48.363,32.094 L 42.95,32.094 L 42.95,37.508 L 42.95,37.508 Z" fill="#ffffff" stroke-width="0.563" marker-start="none" marker-end="none"/>
  </g>
  <path d="M 20.487,13.279 L 11.513,25.32 L 17.802,25.32 L 17.802,34.585 L 23.895,34.585 L 23.895,25.32 L 29.462,25.32 L 20.487,13.279 Z" fill="#ff0000" stroke-linejoin="miter" stroke-width="4.361" stroke="none" marker-start="none" marker-end="none"/>
 </g>
</svg>
