<?xml version="1.0" standalone="no"?>
<!DOCTYPE svg PUBLIC "-//W3C//DTD SVG 1.1//EN" "http://www.w3.org/Graphics/SVG/1.1/DTD/svg11.dtd">
<!--Generator: Xara Designer (www.xara.com), SVG filter version: 6.5.0.22-->
<svg fill="none" fill-rule="evenodd" stroke="black" stroke-width="0.501" stroke-linejoin="bevel" stroke-miterlimit="10" font-family="Times New Roman" font-size="16" style="font-variant-ligatures:none" xmlns:xlink="http://www.w3.org/1999/xlink" xmlns="http://www.w3.org/2000/svg" version="1.1" overflow="visible" width="73.5pt" height="72pt" viewBox="0 -72 73.5 72">
 <defs>
  <linearGradient id="LinearGradient" gradientUnits="userSpaceOnUse" x1="0" y1="0" x2="8.065" y2="0" gradientTransform="translate(48.823 32.957)">
   <stop offset="0" stop-color="#d5d5ab"/>
   <stop offset="1" stop-color="#d5d5ab"/>
  </linearGradient>
  <linearGradient id="LinearGradient_1" gradientUnits="userSpaceOnUse" x1="0" y1="0" x2="8.065" y2="0" gradientTransform="translate(48.823 32.957)">
   <stop offset="0" stop-color="#adad88"/>
   <stop offset="1" stop-color="#adad88"/>
  </linearGradient>
  <linearGradient id="LinearGradient_2" gradientUnits="userSpaceOnUse" x1="0" y1="0" x2="8.065" y2="0" gradientTransform="translate(48.823 32.957)">
   <stop offset="0" stop-color="#cfcfa4"/>
   <stop offset="1" stop-color="#cfcfa4"/>
  </linearGradient>
  <linearGradient id="LinearGradient_3" gradientUnits="userSpaceOnUse" x1="0" y1="0" x2="-8.287" y2="0" gradientTransform="translate(36.273 42.193)">
   <stop offset="0" stop-color="#b0dbfc"/>
   <stop offset="1" stop-color="#7dc3fa"/>
  </linearGradient>
  <linearGradient id="LinearGradient_4" gradientUnits="userSpaceOnUse" x1="0" y1="0" x2="8.289" y2="0" gradientTransform="translate(37.931 42.221)">
   <stop offset="0" stop-color="#b0dbfc"/>
   <stop offset="1" stop-color="#7dc3fa"/>
  </linearGradient>
 </defs>
 <g id="Cube" transform="scale(1 -1)">
  <g id="Group" stroke="#000000" stroke-linejoin="round" stroke-width="1.5">
   <path d="M 36.393,60.45 L 36.393,33.565 L 23.616,27.928 L 23.616,49.163 L 36.393,60.45 Z" marker-start="none" marker-end="none" fill="url(#LinearGradient)"/>
   <path d="M 24.318,59.514 L 36.393,60.45 L 23.616,49.163 L 11.475,49.963 L 24.318,59.514 Z" marker-start="none" marker-end="none" fill="url(#LinearGradient_1)"/>
   <path d="M 11.475,32.189 L 23.616,27.928 L 23.616,49.163 L 11.475,49.963 L 11.475,32.189 Z" marker-start="none" marker-end="none" fill="url(#LinearGradient_2)"/>
  </g>
 </g>
 <g id="Cylinder" transform="scale(1 -1)">
  <g id="Group_1">
   <g id="Group_2">
    <rect x="35.069" y="26.912" width="5.159" height="18.719" fill="#b0dbfc" stroke="none" stroke-width="1.5" stroke-linejoin="miter"/>
    <g id="Group_3" stroke-width="1.5" stroke-linejoin="miter" stroke="none">
     <path d="M 27.96,26.833 L 27.993,46.961 C 27.976,47.754 32.058,48.493 37.108,48.607 C 37.114,48.607 37.119,48.607 37.125,48.607 L 37.125,25.331 C 37.111,25.329 37.098,25.328 37.086,25.328 C 32.115,25.059 28.028,25.734 27.96,26.833 Z" marker-start="none" marker-end="none" fill="url(#LinearGradient_3)"/>
     <path d="M 37.081,25.331 L 37.081,48.607 C 42.121,48.719 46.227,48.17 46.245,47.376 L 45.921,27.812 C 45.989,26.714 42.03,25.602 37.081,25.331 Z" marker-start="none" marker-end="none" fill="url(#LinearGradient_4)"/>
    </g>
    <path d="M 45.921,27.812 L 46.245,47.376 C 46.227,48.171 42.112,48.722 37.063,48.607 C 32.014,48.493 27.931,47.754 27.949,46.961 L 27.916,26.833 C 27.982,25.734 32.071,25.059 37.041,25.328 C 42.01,25.597 45.989,26.711 45.921,27.812 Z" stroke-width="1.5" stroke="#000000" stroke-linejoin="miter" marker-start="none" marker-end="none"/>
    <ellipse rx="1.327" ry="9.143" transform="translate(37.103 47.242) rotate(91.4677) skewX(0.264547)" stroke-width="0.75" stroke="#000000" fill="#476f8e" stroke-linejoin="round"/>
   </g>
  </g>
 </g>
 <g id="Subscript Circle-I" transform="scale(1 -1)">
  <g id="Group_4" stroke-linejoin="miter" stroke="#000000">
   <path d="M 30.749,26.121 C 30.749,34.473 37.533,41.252 45.879,41.252 C 54.226,41.252 61.008,34.473 61.008,26.121 C 61.008,17.775 54.226,10.992 45.879,10.992 C 37.533,10.992 30.749,17.775 30.749,26.121 L 30.749,26.121 Z" fill="#144689" stroke-width="0.75" marker-start="none" marker-end="none"/>
   <path d="M 43.38,29.04 L 48.793,29.04 L 48.793,15.296 L 43.38,15.296 L 43.38,29.04 L 43.38,29.04 Z" fill="#ffffff" stroke-width="0.563" marker-start="none" marker-end="none"/>
   <path d="M 43.38,37.229 L 48.793,37.229 L 48.793,31.815 L 43.38,31.815 L 43.38,37.229 L 43.38,37.229 Z" fill="#ffffff" stroke-width="0.563" marker-start="none" marker-end="none"/>
  </g>
 </g>
</svg>
