<?xml version="1.0" encoding="UTF-8" standalone="no"?>
<svg width="24px" height="24px" viewBox="0 0 24 24" version="1.1" xmlns="http://www.w3.org/2000/svg" xmlns:xlink="http://www.w3.org/1999/xlink" xmlns:sketch="http://www.bohemiancoding.com/sketch/ns">
    <!-- Generator: Sketch 3.3.1 (12002) - http://www.bohemiancoding.com/sketch -->
    <title>tb_print</title>
    <desc>Created with Sketch.</desc>
    <defs></defs>
    <g id="Page-1" stroke="none" stroke-width="1" fill="none" fill-rule="evenodd" sketch:type="MSPage">
        <g id="tb_print" sketch:type="MSArtboardGroup">
            <g id="Group" sketch:type="MSLayerGroup" transform="translate(3.000000, 3.000000)">
                <path d="M14.3672905,7.23528194 L14.5215161,7.06573961 L14.6969712,6.87283368 L16.0736383,5.35907181 L16.1729171,5.25 L17.8663788,5.8374939 L11.5468963,13.453125 L9.890625,12.6136593 L13.2593633,8.91091919 L13.3873901,8.71714783 L13.2060699,8.57855988 L13.5470123,8.24276733 L14.3672905,7.23528194 Z" id="Fill-24551" fill="#544F4E" sketch:type="MSShapeGroup"></path>
                <path d="M13.373983,8.48326799 L13.3560669,8.625 L5.765625,5.52454968 L6.0140709,5.20615347 L7.04005347,3.890625 L7.51539575,4.0650355 L14.7440872,6.86336517 L13.5951162,8.24049558 L13.373983,8.48326799 Z" id="Fill-24552" fill="#615C5A" sketch:type="MSShapeGroup"></path>
                <path d="M5.97395325,5.17304993 L5.75028992,5.44578552 L5.45027161,5.34150839 L1.36399841,8.29151917 L0.140625,7.63961854 L7.94582586,2.484375 L8.0625,2.52335346 L7.40570935,4.02358823 L6.93278019,3.85011541 L5.97395325,5.17304993 Z" id="Fill-24553" fill="#544F4E" sketch:type="MSShapeGroup"></path>
                <path d="M13.453125,8.72981691 L9.92276452,12.6749401 L9.90727664,13.171875 L1.640625,8.90770411 L5.5135922,5.484375 L5.7071906,5.56344985 L13.2742651,8.65686318 L13.453125,8.72981691 M5.83409123,6.27387434 L4.99012711,7.0472589 L5.09929163,7.09572817 L6.92736012,7.90783817 L7.75283872,7.08298625 L5.83409123,6.27387434 M8.03449316,7.15491091 L7.21213712,7.98750792 L7.86325225,8.27669953 L8.67848887,7.42661361 L8.03449316,7.15491091" id="Fill-24555" fill="#595453" sketch:type="MSShapeGroup"></path>
                <path d="M9.890625,13.1134877 L9.81309233,15.609375 L8.76527938,15.0206412 L9.03203166,14.7110699 L9.03315352,14.1490061 L9.03365212,13.8724607 L9.03427537,13.5955415 L3.22206717,10.4990809 L3.09292915,10.4302873 L2.91741943,10.3101196 L2.72795219,10.7252773 L2.150072,11.192376 L1.640625,8.859375 L9.890625,13.1134877 Z" id="Fill-24556" fill="#524E4C" sketch:type="MSShapeGroup"></path>
                <path d="M8.99886557,14.6687741 L8.729124,14.9768778 L7.02622276,16.921875 L6.984375,16.3681815 L9,14.109375 L8.99886557,14.6687741" id="Fill-24558" fill="#44403F" sketch:type="MSShapeGroup"></path>
                <path d="M7.0365037,16.4585843 L7.078125,17.015625 L0.674337534,13.0784058 L0.515625,12.515625 L7.0365037,16.4585843" id="Fill-24559" fill="#524E4C" sketch:type="MSShapeGroup"></path>
                <path d="M1.88707641,11.4375 L0.957234627,10.9174485 L0.140625,7.734375 L1.26827592,8.29788861 L1.96875,11.3724936 L1.88707641,11.4375" id="Fill-24560" fill="#524E4C" sketch:type="MSShapeGroup"></path>
                <path d="M11.3781636,16.6875 L9.890625,15.8591716 L9.89910353,15.5931718 L9.97781463,13.1038363 L9.99350623,12.609375 L11.671875,13.4445398 L11.3781636,16.6875" id="Fill-24561" fill="#524E4C" sketch:type="MSShapeGroup"></path>
                <path d="M1.95752793,11.4375 L1.265625,8.34651888 L5.47190603,5.390625 L5.484375,5.52483585 L1.61799798,8.95572599 L2.12760463,11.299408 L1.95752793,11.4375" id="Fill-24568" fill="#44403F" sketch:type="MSShapeGroup"></path>
                <path d="M17.765625,5.859375 L17.0190391,8.97020787 L11.25,16.78125 L11.5401584,13.5238399 L17.765625,5.859375 M16.7530084,9.01328209 L17.0006619,7.94766327 L16.7952633,8.21372463 L15.6876358,9.64840839 L15.5319929,10.4093863 L15.4656103,10.7336291 L16.7530084,9.01328209" id="Fill-24574" fill="#44403F" sketch:type="MSShapeGroup"></path>
                <path d="M8.71875,7.39748051 L7.91086696,8.25 L7.265625,7.95998051 L8.08056325,7.125 L8.71875,7.39748051" id="Fill-24580" fill="#F50010" sketch:type="MSShapeGroup"></path>
                <path d="M8.08056325,7.125 L7.265625,7.95998051 L7.91086696,8.25 L8.71875,7.39748051 L8.08056325,7.125" id="Stroke-24615" stroke="#000000" stroke-width="0.5" stroke-linecap="round" stroke-linejoin="round" sketch:type="MSShapeGroup"></path>
                <path d="M7.78125,7.04678541 L6.95006987,7.875 L5.109375,7.05957927 L5.84924982,6.234375 L7.78125,7.04678541" id="Fill-24579" fill="#1297FC" sketch:type="MSShapeGroup"></path>
                <path d="M16.9697812,2.52276562 L16.875,2.495625 L16.88625,2.484375 L16.9697812,2.52276562 Z M0.890625,12.4479255 L3.29565281,10.5 L9.140625,13.5994657 L9.13999823,13.8766537 L7.09573713,16.171875 L0.890625,12.4479255 Z" id="Fill-24564" fill="#FFFFFF" sketch:type="MSShapeGroup"></path>
                <g id="Outlines" transform="translate(0.093750, 0.281250)" stroke="#000000" stroke-width="0.5" sketch:type="MSShapeGroup">
                    <path d="M16.2247009,4.98321533 L17.8014221,5.51577759 L17.0838318,8.52008057 L11.244873,16.3337402 L9.80795288,15.5858459 L9.85400391,12.3063354 L14.3102417,7.22827148 L16.2247009,4.98321533 Z" id="Path-3397"></path>
                    <path d="M14.6888123,6.71704102 C14.6888123,6.71704102 15.480011,4.49899292 15.9050903,3.61651611 C16.3301697,2.73403931 16.8041382,2.19543457 16.8041382,2.19543457 L9.42489624,0.0461425781 C9.42489624,0.0461425781 8.81158447,0.636108398 8.64221191,0.94519043 C8.47283936,1.25427246 7.39480591,3.80328369 7.39480591,3.80328369" id="Path-3390"></path>
                    <path d="M6.86828613,3.63034058 L14.765625,6.609375" id="Path-3391"></path>
                    <path d="M8.09399414,2.16311646 L0.0805664062,7.37402344 L0.751373291,10.605011 L1.81283569,11.1436157" id="Path-3392"></path>
                    <path d="M2.86834717,10.2106018 L0.480194092,12.1695557 L0.591339111,12.7983398 L6.96203613,16.7441711 L9.01235962,14.4732971 L8.96017456,13.4525757 L2.86834717,10.2106018 Z" id="Path-3393"></path>
                    <path d="M7.6541748,6.71740723 L6.83065796,7.55136108 L4.8717041,6.64178467" id="Path-3393"></path>
                    <path d="M15.4351501,10.493042 L15.6601868,9.21258545 L16.8810425,7.69747925" id="Path-3394"></path>
                    <path d="M9.79623413,12.3473511 L11.4953613,13.2395325 L11.1817932,16.4818726" id="Path-3373"></path>
                    <path d="M11.474762,13.2015381 L17.7940979,5.55999756" id="Path-3374"></path>
                    <path d="M7.72769165,6.76940918 L5.78082275,5.97454834 L4.99813843,6.76940918" id="Path-3375"></path>
                    <path d="M5.88345337,4.98257446 L6.99554443,3.60827637" id="Path-3376"></path>
                    <path d="M0.0417480469,7.45275879 L1.16674805,8.03137207 L1.85037231,11.0284424" id="Path-3371"></path>
                    <path d="M8.85470581,13.7082825 L6.86700439,15.9044495 L0.786437988,12.2147827" id="Path-3377"></path>
                    <path d="M2.05728149,10.7330017 L1.5821228,8.6116333 L9.78405762,12.8293762" id="Path-3372"></path>
                    <path d="M8.86679077,13.8759155 L6.91470337,16.1400146 L0.438903809,12.2576294" id="Path-3378"></path>
                    <path id="Path-3379" d="M6.95553589,16.0785828 L6.99023438,16.6091309"></path>
                </g>
                <path d="M1.66085815,8.90927124 L5.54763794,5.43786621 L13.4401245,8.67654419" id="Path-3338" stroke="#000000" stroke-width="0.5" sketch:type="MSShapeGroup"></path>
                <path d="M1.33145142,8.24661255 L5.46322632,5.30172729 L5.8793335,5.4090271 L7.09725952,3.74707031" id="highlight2" stroke="#FFFFFF" stroke-width="0.5" sketch:type="MSShapeGroup"></path>
                <path d="M11.5022736,13.3198242 L17.6539764,5.85205078" id="highlight1" stroke="#FFFFFF" stroke-width="0.5" sketch:type="MSShapeGroup"></path>
                <path d="M7.80368042,3.9826355 L14.7084961,6.5489502 C14.7084961,6.5489502 15.5042725,4.38633728 15.6573486,4.08691406 C15.8104248,3.78749084 15.8595428,3.6729126 15.9777832,3.44439697 C16.0960236,3.21588135 16.5188599,2.60110474 16.5188599,2.60110474 L9.56707764,0.578704834 C9.56707764,0.578704834 9.13078308,1.0178833 9,1.21856689 C8.86921692,1.41925049 8.79785156,1.55296326 8.67242432,1.81109619 C8.54699707,2.06922913 7.80368042,3.9826355 7.80368042,3.9826355 Z" id="TopPaper" fill="#FFFFFF" sketch:type="MSShapeGroup"></path>
                <path d="M9,15.1299133 L9.91122437,15.642334" id="Path-3298" stroke="#000000" stroke-width="0.5" sketch:type="MSShapeGroup"></path>
            </g>
        </g>
    </g>
</svg>