<?xml version="1.0" standalone="no"?>
<!DOCTYPE svg PUBLIC "-//W3C//DTD SVG 1.1//EN" "http://www.w3.org/Graphics/SVG/1.1/DTD/svg11.dtd">
<!--Generator: Xara Designer (www.xara.com), SVG filter version: 6.5.0.22-->
<svg fill="none" fill-rule="evenodd" stroke="black" stroke-width="0.501" stroke-linejoin="bevel" stroke-miterlimit="10" font-family="Times New Roman" font-size="16" style="font-variant-ligatures:none" xmlns:xlink="http://www.w3.org/1999/xlink" xmlns="http://www.w3.org/2000/svg" version="1.1" overflow="visible" width="73.5pt" height="72pt" viewBox="0 -72 73.5 72">
 <defs>
	</defs>
 <g id="Paint Bucket" transform="scale(1 -1)">
  <g id="Group" fill-rule="evenodd" stroke="none" stroke-width="0.55">
   <g id="Group_1">
    <path d="M 31.48,28.305 L 15.731,40.653 C 12.221,44.239 14.174,51.198 19.055,56.088 C 24.003,61.046 32.486,62.811 35.963,59.253 L 46.508,42.836 L 46.918,42.372 C 49.145,39.424 48.104,34.235 44.377,30.632 C 40.688,27.067 35.029,25.715 31.983,27.881 L 31.48,28.305 Z" fill="#000000" marker-start="none" marker-end="none"/>
    <path d="M 43.286,31.76 C 46.989,35.337 47.24,39.925 45.326,41.815 L 45.265,41.877 L 34.771,58.222 L 34.286,58.629 C 31.376,60.628 24.619,59.444 20.166,54.983 C 15.678,50.484 14.49,45.039 16.415,42.273 L 16.817,41.787 L 32.511,29.481 C 34.415,27.601 39.542,28.137 43.286,31.76 Z" fill="#616265" marker-start="none" marker-end="none"/>
   </g>
   <g id="Group_2">
    <path d="M 17.517,40.815 C 14.676,43.875 16.186,50.015 20.423,54.477 C 24.652,58.932 31.249,60.701 34.124,57.61 C 36.984,54.535 34.657,48.187 30.459,43.766 C 26.229,39.312 20.395,37.724 17.517,40.815 Z" fill="#000000" marker-start="none" marker-end="none"/>
    <path d="M 29.892,44.304 C 34.102,48.741 35.906,54.542 33.55,57.077 C 31.202,59.603 25.186,58.357 20.99,53.939 C 16.805,49.531 15.712,43.91 18.092,41.349 C 20.442,38.822 25.695,39.886 29.892,44.304 Z" fill="#92aaa4" marker-start="none" marker-end="none"/>
   </g>
   <g id="Group_3">
    <path d="M 31.757,28.538 L 22.25,36.121 L 23.085,36.282 C 28.532,37.335 30.42,39.705 32.656,42.417 L 32.931,42.752 L 40.844,34.735 L 40.778,34.515 C 39.647,30.622 35.499,28.848 31.911,28.552 L 31.757,28.538 Z" fill="#000000" marker-start="none" marker-end="none"/>
    <path d="M 39.952,34.521 L 32.981,41.584 L 32.41,40.899 C 30.566,38.719 28.551,36.775 24.263,35.734 L 24.048,35.687 L 31.993,29.35 L 33.153,29.505 C 35.984,30.029 38.733,31.506 39.809,34.111 L 39.952,34.521 Z" fill="#dbd09b" marker-start="none" marker-end="none"/>
   </g>
   <path d="M 43.143,36.419 L 34.943,44.828 L 35.239,45.1 C 37.461,47.154 38.311,49.922 38.542,53.07 L 38.627,54.246 L 45.596,43.359 L 45.594,43.244 C 45.567,40.477 45.099,38.374 43.424,36.699 L 43.143,36.419 Z" fill="#000000" marker-start="none" marker-end="none"/>
   <g id="Group_4" fill="#b3a47b">
    <path d="M 44.806,43.135 L 39.208,51.882 L 39.202,51.808 C 38.866,49.224 38.027,46.85 36.207,44.954 L 36.056,44.806 L 43.131,37.55 L 43.369,37.819 C 44.282,38.99 44.672,40.414 44.777,42.28 L 44.806,43.135 Z" marker-start="none" marker-end="none"/>
   </g>
   <g id="Group_5">
    <path d="M 34.229,42.184 C 34.229,43.413 35.231,44.415 36.463,44.415 C 37.692,44.415 38.694,43.413 38.694,42.184 C 38.694,40.952 37.692,39.95 36.463,39.95 C 35.231,39.95 34.229,40.952 34.229,42.184 Z" fill="#000000" marker-start="none" marker-end="none"/>
    <path d="M 37.518,42.184 C 37.518,42.765 37.044,43.239 36.463,43.239 C 35.879,43.239 35.405,42.765 35.405,42.184 C 35.405,41.601 35.879,41.126 36.463,41.126 C 37.044,41.126 37.518,41.601 37.518,42.184 Z" fill="#ffffff" marker-start="none" marker-end="none"/>
   </g>
   <path d="M 36.076,41.668 C 35.931,41.958 36.051,42.31 36.342,42.456 C 42.926,45.724 45.17,49.707 44.989,52.274 C 44.815,54.718 42.381,56.298 38.383,54.797 C 38.078,54.683 37.739,54.837 37.625,55.14 C 37.512,55.445 37.665,55.784 37.968,55.899 C 42.507,57.603 45.921,55.745 46.16,52.356 C 46.396,49.067 43.598,44.742 36.863,41.403 C 36.573,41.257 36.222,41.377 36.076,41.668 Z" fill="#000000" marker-start="none" marker-end="none"/>
   <g id="Group_6">
    <path d="M 12.902,28.514 C 11.656,30.491 11.042,32.631 10.916,34.965 C 10.594,39.434 12.084,43.022 16.799,46.178 C 19.691,48.112 21.725,48.898 23.774,49.47 C 26.472,50.22 28.262,50.286 29.93,50.308 C 31.15,50.304 32.247,49.846 32.452,48.703 C 32.621,47.743 32.057,46.673 31.283,45.726 C 29.428,43.454 28.925,43.213 27.043,41.584 C 25.081,40.041 23.128,38.502 22.616,37.575 C 22.181,36.783 21.857,35.937 21.678,35.063 C 21.335,33.153 21.178,30.848 20.585,28.707 C 20.101,27.366 19.337,25.523 17.93,25.066 C 16.348,24.555 14.726,25.833 12.902,28.514 Z" fill="#000000" marker-start="none" marker-end="none"/>
    <path d="M 17.448,26.558 C 17.913,26.709 18.378,27.382 18.887,28.65 L 19.094,29.195 L 19.434,30.684 C 19.716,32.191 19.842,33.709 20.137,35.359 C 20.358,36.417 20.739,37.411 21.244,38.329 C 21.964,39.633 24.402,41.5 26.069,42.809 L 26.687,43.341 C 28.06,44.501 28.539,44.84 30.07,46.719 C 30.809,47.622 30.95,48.201 30.909,48.429 C 30.905,48.451 30.899,48.738 29.935,48.739 C 28.351,48.721 26.712,48.66 24.193,47.962 C 22.295,47.433 20.413,46.71 17.668,44.875 C 13.412,42.024 12.201,38.967 12.481,35.065 C 12.595,32.948 13.14,31.074 14.214,29.37 C 16.1,26.601 17.086,26.442 17.448,26.558 Z" fill="#ffbf00" marker-start="none" marker-end="none"/>
   </g>
  </g>
 </g>
 <g id="Subscript Circle-I" transform="scale(1 -1)">
  <g id="Group_7" stroke-linejoin="miter" stroke="#000000">
   <path d="M 30.749,26.121 C 30.749,34.473 37.533,41.252 45.879,41.252 C 54.226,41.252 61.008,34.473 61.008,26.121 C 61.008,17.775 54.226,10.992 45.879,10.992 C 37.533,10.992 30.749,17.775 30.749,26.121 L 30.749,26.121 Z" fill="#144689" stroke-width="0.75" marker-start="none" marker-end="none"/>
   <path d="M 43.38,29.04 L 48.793,29.04 L 48.793,15.296 L 43.38,15.296 L 43.38,29.04 L 43.38,29.04 Z" fill="#ffffff" stroke-width="0.563" marker-start="none" marker-end="none"/>
   <path d="M 43.38,37.229 L 48.793,37.229 L 48.793,31.815 L 43.38,31.815 L 43.38,37.229 L 43.38,37.229 Z" fill="#ffffff" stroke-width="0.563" marker-start="none" marker-end="none"/>
  </g>
 </g>
</svg>
