<?xml version="1.0" encoding="UTF-8" standalone="no"?>
<svg width="24px" height="24px" viewBox="0 0 24 24" version="1.1" xmlns="http://www.w3.org/2000/svg" xmlns:xlink="http://www.w3.org/1999/xlink" xmlns:sketch="http://www.bohemiancoding.com/sketch/ns">
    <!-- Generator: Sketch 3.3.1 (12002) - http://www.bohemiancoding.com/sketch -->
    <title>tb_previousview</title>
    <desc>Created with Sketch.</desc>
    <defs></defs>
    <g id="Page-1" stroke="none" stroke-width="1" fill="none" fill-rule="evenodd" sketch:type="MSPage">
        <g id="tb_previousview" sketch:type="MSArtboardGroup">
            <g id="Group" sketch:type="MSLayerGroup" transform="translate(3.000000, 3.000000)">
                <path d="M13.3039751,9.515625 L12.6018213,10.0024512 L10.8899854,10.6993813 L8.859375,11.1605851 L10.8899854,12.9941513 L8.859375,15.75 L10.8899854,15.2887962 L12.6018213,14.5919911 L13.8782942,13.7069548 L14.6323068,12.6940564 L14.8125,11.6222888 L14.4067528,10.5647698 L13.4425565,9.59361718 L13.3039751,9.515625 L13.3039751,9.515625 Z" id="Fill-1436" fill="#1293F5" sketch:type="MSShapeGroup"></path>
                <path d="M13.3039751,9.515625 L12.6018213,10.0024512 L10.8899854,10.6993813 L8.859375,11.1605851 L10.8899854,12.9941513 L8.859375,15.75 L10.8899854,15.2887962 L12.6018213,14.5919911 L13.8782942,13.7069548 L14.6323068,12.6940564 L14.8125,11.6222888 L14.4067528,10.5647698 L13.4425565,9.59361718 L13.3039751,9.515625 L13.3039751,9.515625 Z" id="Stroke-1437" stroke="#000000" stroke-width="0.5" stroke-linecap="round" stroke-linejoin="round" sketch:type="MSShapeGroup"></path>
                <path d="M8.109375,8.6641959 L11.6963843,12.234375 L12.28125,11.6795541 L8.69424075,8.109375 L8.109375,8.6641959 L8.109375,8.6641959 Z" id="Fill-1481" fill="#212222" sketch:type="MSShapeGroup"></path>
                <path d="M8.109375,8.6641959 L11.6963843,12.234375 L12.28125,11.6795541 L8.69424075,8.109375 L8.109375,8.6641959 L8.109375,8.6641959 Z" id="Stroke-1483" stroke="#212222" stroke-width="0.5" stroke-linecap="round" stroke-linejoin="round" sketch:type="MSShapeGroup"></path>
                <path d="M2.42931098,2.53780985 C0.411756598,4.4537463 0.3732794,7.60395075 2.34348684,9.56594756 C4.31369427,11.528194 7.55302462,11.5656415 9.57057899,9.64970503 C11.5882583,7.73376858 11.6267355,4.58343931 9.65652806,2.6214425 C7.68632062,0.659320859 4.44699028,0.621873407 2.42931098,2.53780985 L2.42931098,2.53780985 Z" id="Fill-1484" fill="#212222" sketch:type="MSShapeGroup"></path>
                <path d="M2.42931098,2.53780985 C0.411756598,4.4537463 0.3732794,7.60395075 2.34348684,9.56594756 C4.31369427,11.528194 7.55302462,11.5656415 9.57057899,9.64970503 C11.5882583,7.73376858 11.6267355,4.58343931 9.65652806,2.6214425 C7.68632062,0.659320859 4.44699028,0.621873407 2.42931098,2.53780985 L2.42931098,2.53780985 Z" id="Stroke-1485" stroke="#212222" stroke-width="0.5" stroke-linecap="round" stroke-linejoin="round" sketch:type="MSShapeGroup"></path>
                <path d="M10.3327127,12.1435595 L15.0582616,16.8447524 C15.5303777,17.3144962 16.3048235,17.3236332 16.7879743,16.8651543 L16.7879743,16.8651543 C17.2711252,16.4066753 17.2800283,15.6543092 16.8079123,15.1845655 L12.0824888,10.4833726 C11.6102473,10.0136288 10.8358015,10.0044918 10.3526507,10.4629707 L10.3526507,10.4629707 C9.86949983,10.9214497 9.86059671,11.6738158 10.3327127,12.1435595 L10.3327127,12.1435595 Z" id="Fill-1486" fill="#212222" sketch:type="MSShapeGroup"></path>
                <path d="M10.3327127,12.1435595 L15.0582616,16.8447524 C15.5303777,17.3144962 16.3048235,17.3236332 16.7879743,16.8651543 L16.7879743,16.8651543 C17.2711252,16.4066753 17.2800283,15.6543092 16.8079123,15.1845655 L12.0824888,10.4833726 C11.6102473,10.0136288 10.8358015,10.0044918 10.3526507,10.4629707 L10.3526507,10.4629707 C9.86949983,10.9214497 9.86059671,11.6738158 10.3327127,12.1435595 L10.3327127,12.1435595 Z" id="Stroke-1487" stroke="#212222" stroke-width="0.5" stroke-linecap="round" stroke-linejoin="round" sketch:type="MSShapeGroup"></path>
                <path d="M3.01900904,3.05463697 C1.33466716,4.65427165 1.30237706,7.28427067 2.94729497,8.92242365 C4.59221289,10.5607017 7.29657158,10.5919665 8.98103861,8.99220679 C10.6653805,7.3925721 10.6975454,4.76257309 9.05275268,3.12429505 C7.40783477,1.48626713 4.70347607,1.45487723 3.01900904,3.05463697 L3.01900904,3.05463697 Z" id="Fill-1488" fill="#A8D4FA" sketch:type="MSShapeGroup"></path>
                <path d="M3.64855201,3.71200413 C2.30644897,4.99522349 2.28089816,7.10528661 3.59134312,8.41948283 C4.90191273,9.73380446 7.0564069,9.75888693 8.39838531,8.47554215 C9.74036371,7.19219738 9.76603916,5.08225968 8.45546956,3.76806346 C7.14514923,2.45361642 4.99053042,2.42865935 3.64855201,3.71200413 L3.64855201,3.71200413 Z" id="Fill-1489" fill="#8AAECD" sketch:type="MSShapeGroup"></path>
                <path d="M11.1984629,11.5619643 L15.5390624,15.8895688 C15.7869753,16.1366855 16.1935824,16.1415604 16.4472433,15.9003185 L16.4472433,15.9003185 C16.7009041,15.6592016 16.7056524,15.2633399 16.4577396,15.0160982 L12.11714,10.6886186 C11.8692271,10.441377 11.462745,10.4366271 11.2090841,10.677744 L11.2089592,10.677744 C10.9552983,10.9189859 10.950675,11.3148476 11.1984629,11.5619643 L11.1984629,11.5619643 Z" id="Fill-1490" fill="#3A3C3D" sketch:type="MSShapeGroup"></path>
                <path d="M7.968625,3.21358293 L7.968625,0.75 L3.515625,5.61702357 L7.968625,10.2682351 L7.968625,7.80477723 L10.087,8.16550589 L11.93775,8.77618137 L13.256625,9.5175194 L13.39525,9.59554182 L13.831125,10.0344179 L14.35975,10.567071 L14.585375,11.1549899 L14.765625,11.625 L14.765625,7.03380569 L14.35975,5.97587669 L13.39525,5.00422248 L11.93775,4.1851121 L10.087,3.57431158 L7.968625,3.21358293 L7.968625,3.21358293 Z" id="Fill-22440" fill="#1293F5" sketch:type="MSShapeGroup"></path>
                <path d="M7.968625,3.21358293 L7.968625,0.75 L3.515625,5.61702357 L7.968625,10.2682351 L7.968625,7.80477723 L10.087,8.16550589 L11.93775,8.77618137 L13.256625,9.5175194 L13.39525,9.59554182 L13.831125,10.0344179 L14.35975,10.567071 L14.585375,11.1549899 L14.765625,11.625 L14.765625,7.03380569 L14.35975,5.97587669 L13.39525,5.00422248 L11.93775,4.1851121 L10.087,3.57431158 L7.968625,3.21358293 L7.968625,3.21358293 Z" id="Stroke-22441" stroke="#FFFFFF" stroke-width="1.5" stroke-linecap="round" stroke-linejoin="round" sketch:type="MSShapeGroup"></path>
                <path d="M7.968625,3.21358293 L7.968625,0.75 L3.515625,5.61702357 L7.968625,10.2682351 L7.968625,7.80477723 L10.087,8.16550589 L11.93775,8.77618137 L13.256625,9.5175194 L13.39525,9.59554182 L13.831125,10.0344179 L14.35975,10.567071 L14.585375,11.1549899 L14.765625,11.625 L14.765625,7.03380569 L14.35975,5.97587669 L13.39525,5.00422248 L11.93775,4.1851121 L10.087,3.57431158 L7.968625,3.21358293 L7.968625,3.21358293 Z" id="Fill-23190" fill="#1293F5" sketch:type="MSShapeGroup"></path>
                <path d="M7.968625,3.21358293 L7.968625,0.75 L3.515625,5.61702357 L7.968625,10.2682351 L7.968625,7.80477723 L10.087,8.16550589 L11.93775,8.77618137 L13.256625,9.5175194 L13.39525,9.59554182 L13.831125,10.0344179 L14.35975,10.567071 L14.585375,11.1549899 L14.765625,11.625 L14.765625,7.03380569 L14.35975,5.97587669 L13.39525,5.00422248 L11.93775,4.1851121 L10.087,3.57431158 L7.968625,3.21358293 L7.968625,3.21358293 Z" id="Stroke-23191" stroke="#000000" stroke-width="0.5" stroke-linecap="round" stroke-linejoin="round" sketch:type="MSShapeGroup"></path>
            </g>
        </g>
    </g>
</svg>