<?xml version="1.0" standalone="no"?>
<!DOCTYPE svg PUBLIC "-//W3C//DTD SVG 1.1//EN" "http://www.w3.org/Graphics/SVG/1.1/DTD/svg11.dtd">
<!--Generator: Xara Designer (www.xara.com), SVG filter version: 6.5.0.22-->
<svg fill="none" fill-rule="evenodd" stroke="black" stroke-width="0.501" stroke-linejoin="bevel" stroke-miterlimit="10" font-family="Times New Roman" font-size="16" style="font-variant-ligatures:none" xmlns:xlink="http://www.w3.org/1999/xlink" xmlns="http://www.w3.org/2000/svg" version="1.1" overflow="visible" width="72pt" height="72pt" viewBox="0 -72 72 72">
 <defs>
	</defs>
 <g id="Outliner " transform="scale(1 -1)">
  <g id="Group" stroke-linejoin="miter" stroke="none" stroke-width="0.074" fill="#000000">
   <rect x="-3.75" y="-3.749" width="7.5" height="7.499" transform="translate(24.813 57.375) rotate(90)"/>
   <rect x="-3.75" y="-3.749" width="7.5" height="7.499" transform="translate(14.626 57.375) rotate(90)"/>
   <rect x="-3.75" y="-3.749" width="7.5" height="7.499" transform="translate(24.813 47.188) rotate(90)"/>
   <rect x="-3.75" y="-3.749" width="7.5" height="7.499" transform="translate(14.626 47.188) rotate(90)"/>
  </g>
  <rect x="-8.843" y="-8.843" width="17.686" height="17.686" transform="translate(19.719 29.962) rotate(90)" fill="#000000" stroke-width="0.074" stroke="none" stroke-linejoin="miter"/>
  <g id="Group_1" fill-rule="nonzero" stroke-linejoin="round" stroke-linecap="round" stroke="none" stroke-width="0.25" fill="#000000">
   <g id="Group_2">
    <path d="M 35.119,51.022 L 35.119,53.955 L 45.052,61.115 L 45.052,57.519 L 37.928,52.472 L 45.052,47.371 L 45.052,43.775 L 35.119,51.022 Z" marker-start="none" marker-end="none"/>
   </g>
  </g>
  <g id="Group_3" fill-rule="nonzero" stroke-linejoin="round" stroke-linecap="round" stroke="none" stroke-width="0.25" fill="#000000">
   <g id="Group_4">
    <path d="M 61.125,51.022 L 61.125,53.955 L 51.192,61.115 L 51.192,57.519 L 58.316,52.472 L 51.192,47.371 L 51.192,43.775 L 61.125,51.022 Z" marker-start="none" marker-end="none"/>
   </g>
  </g>
 </g>
 <g id="Subscript Circle-I" transform="scale(1 -1)">
  <g id="Group_5" stroke-linejoin="miter" stroke="#000000">
   <path d="M 30.319,26.4 C 30.319,34.752 37.103,41.531 45.449,41.531 C 53.796,41.531 60.578,34.752 60.578,26.4 C 60.578,18.054 53.796,11.271 45.449,11.271 C 37.103,11.271 30.319,18.054 30.319,26.4 L 30.319,26.4 Z" fill="#144689" stroke-width="0.75" marker-start="none" marker-end="none"/>
   <path d="M 42.95,29.319 L 48.363,29.319 L 48.363,15.575 L 42.95,15.575 L 42.95,29.319 L 42.95,29.319 Z" stroke-width="0.563" fill="#ffffff" marker-start="none" marker-end="none"/>
   <path d="M 42.95,37.508 L 48.363,37.508 L 48.363,32.094 L 42.95,32.094 L 42.95,37.508 L 42.95,37.508 Z" stroke-width="0.563" fill="#ffffff" marker-start="none" marker-end="none"/>
  </g>
 </g>
</svg>
