<?xml version="1.0" encoding="UTF-8" standalone="no"?>
<svg width="512px" height="512px" viewBox="0 0 512 512" version="1.1" xmlns="http://www.w3.org/2000/svg" xmlns:xlink="http://www.w3.org/1999/xlink" xmlns:sketch="http://www.bohemiancoding.com/sketch/ns">
    <!-- Generator: Sketch 3.3 (11970) - http://www.bohemiancoding.com/sketch -->
    <title>tb_rectangle</title>
    <desc>Created with Sketch.</desc>
    <defs></defs>
    <g id="Page-1" stroke="none" stroke-width="1" fill="none" fill-rule="evenodd" sketch:type="MSPage">
        <g id="tb_rectangle" sketch:type="MSArtboardGroup">
            <path d="M118.888453,95.5010781 L382.068875,95.5010781 L382.068875,412.536953 L118.888453,412.536953 L118.888453,95.5010781 L118.888453,95.5010781 Z" id="Fill-4148" fill="#A09E8A" sketch:type="MSShapeGroup"></path>
            <path d="M118.888453,95.5010781 L382.068875,95.5010781 L382.068875,412.536953 L118.888453,412.536953 L118.888453,95.5010781 L118.888453,95.5010781 Z" id="Stroke-4149" stroke="#000000" stroke-width="10.4099252" stroke-linecap="round" sketch:type="MSShapeGroup"></path>
            <path d="M383.737958,96.9016047 L117.219371,411.136427" id="Stroke-22483" stroke="#FEFEFE" stroke-width="34.0250015" stroke-linecap="round" stroke-linejoin="round" sketch:type="MSShapeGroup"></path>
            <path d="M78.6060268,412.536953 C78.6060268,391.23077 95.9129829,373.923609 117.218712,373.923609 C138.524442,373.923609 155.832714,391.23077 155.832714,412.536953 C155.832714,433.843136 138.524442,451.150297 117.218712,451.150297 C95.9129829,451.150297 78.6060268,433.843136 78.6060268,412.536953 L78.6060268,412.536953 Z" id="Fill-22485" fill="#FCFCFC" sketch:type="MSShapeGroup"></path>
            <path d="M129.731903,402.056987 C136.081047,408.406512 136.081047,418.699676 129.731903,425.0492 C123.38276,431.398725 113.088461,431.398725 106.739317,425.0492 C100.389909,418.699676 100.389909,408.406512 106.739317,402.056987 C113.088461,395.707463 123.38276,395.707463 129.731903,402.056987" id="Fill-23632" fill="#FB0011" sketch:type="MSShapeGroup"></path>
            <path d="M129.731903,402.056701 C136.081047,408.405845 136.081047,418.700144 129.731903,425.049288 C123.38276,431.398696 113.088461,431.398696 106.739317,425.049288 C100.389909,418.700144 100.389909,408.405845 106.739317,402.056701 C113.088461,395.707558 123.38276,395.707558 129.731903,402.056701" id="Stroke-23633" stroke="#FB0011" stroke-width="10.4099252" sketch:type="MSShapeGroup"></path>
            <path d="M343.455531,95.5023945 C343.455531,74.1954848 360.762955,56.8877344 382.068612,56.8877344 C403.374005,56.8877344 420.682219,74.1954848 420.682219,95.5023945 C420.682219,116.806671 403.374005,134.114422 382.068612,134.114422 C360.762955,134.114422 343.455531,116.806671 343.455531,95.5023945 L343.455531,95.5023945 Z" id="Fill-22484" fill="#FCFCFC" sketch:type="MSShapeGroup"></path>
            <path d="M394.28355,86.3346455 C401.029838,93.0806937 401.029838,104.018306 394.28355,110.764354 C387.537527,117.510403 376.600223,117.510403 369.8542,110.764354 C363.107912,104.018306 363.107912,93.0806937 369.8542,86.3346455 C376.600223,79.5885973 387.537527,79.5885973 394.28355,86.3346455" id="Stroke-23631" stroke="#FB0011" stroke-width="10.4099252" sketch:type="MSShapeGroup"></path>
            <path d="M394.28355,83.2872249 C401.029838,90.0319506 401.029838,100.970206 394.28355,107.714931 C387.537527,114.462315 376.600223,114.462315 369.8542,107.714931 C363.107912,100.970206 363.107912,90.0319506 369.8542,83.2872249 C376.600223,76.5398417 387.537527,76.5398417 394.28355,83.2872249" id="Fill-23630" fill="#FB0011" sketch:type="MSShapeGroup"></path>
            <path d="M372.573833,110.122695 L127.367355,398.931477" id="Stroke-23629" stroke="#FB0011" stroke-width="10.4099252" stroke-linecap="round" stroke-linejoin="round" sketch:type="MSShapeGroup"></path>
        </g>
    </g>
</svg>