<?xml version="1.0" encoding="UTF-8" standalone="no"?>
<svg width="24px" height="24px" viewBox="0 0 24 24" version="1.1" xmlns="http://www.w3.org/2000/svg" xmlns:xlink="http://www.w3.org/1999/xlink" xmlns:sketch="http://www.bohemiancoding.com/sketch/ns">
    <!-- Generator: Sketch 3.3.1 (12002) - http://www.bohemiancoding.com/sketch -->
    <title>tb_rotate</title>
    <desc>Created with Sketch.</desc>
    <defs></defs>
    <g id="Page-1" stroke="none" stroke-width="1" fill="none" fill-rule="evenodd" sketch:type="MSPage">
        <g id="tb_rotate" sketch:type="MSArtboardGroup">
            <g id="Group" sketch:type="MSLayerGroup" transform="translate(4.000000, 6.000000)">
                <path d="M10.625,3.328125 L13.8125,0.140625 L15.40625,4.921875 L10.625,3.328125 L10.625,3.328125 Z" id="Fill-22061" fill="#000000" sketch:type="MSShapeGroup"></path>
                <path d="M10.625,3.32809161 L13.8125,0.140625 L15.40625,4.921875 L10.625,3.32809161 L10.625,3.32809161 Z" id="Stroke-22062" stroke="#000000" stroke-width="1.5" stroke-linecap="round" sketch:type="MSShapeGroup"></path>
                <path d="M5.28125,8.57804152 L2.09375,11.765625 L0.5,6.984375 L5.28125,8.57804152 L5.28125,8.57804152 Z" id="Fill-22063" fill="#000000" sketch:type="MSShapeGroup"></path>
                <path d="M5.28125,8.57809161 L2.09375,11.765625 L0.5,6.984375 L5.28125,8.57809161 L5.28125,8.57809161 Z" id="Stroke-22064" stroke="#000000" stroke-width="1.5" stroke-linecap="round" sketch:type="MSShapeGroup"></path>
                <path d="M3.734375,10.1960272 C5.12890926,11.5935261 7.12094072,12.2130481 9.06009411,11.8522226 C10.9991228,11.4914846 12.6364721,10.196652 13.4375,8.390625" id="Stroke-22065" stroke="#000000" stroke-width="2.75" stroke-linecap="round" stroke-linejoin="round" sketch:type="MSShapeGroup"></path>
                <path d="M12.21875,1.7570518 C10.8242157,0.359597472 8.83218428,-0.259910369 6.8931556,0.100894337 C4.9540022,0.46162406 3.31665286,1.75642694 2.515625,3.5625" id="Stroke-22066" stroke="#000000" stroke-width="2.75" stroke-linecap="round" stroke-linejoin="round" sketch:type="MSShapeGroup"></path>
                <path d="M10.625,3.328125 L13.8125,0.140625 L15.40625,4.921875 L10.625,3.328125 L10.625,3.328125 Z" id="Fill-23172" fill="#FB0011" sketch:type="MSShapeGroup"></path>
                <path d="M10.625,3.32809161 L13.8125,0.140625 L15.40625,4.921875 L10.625,3.32809161 L10.625,3.32809161 Z" id="Stroke-23173" stroke="#FB0011" stroke-width="0.625" stroke-linecap="round" sketch:type="MSShapeGroup"></path>
                <path d="M5.28125,8.57804152 L2.09375,11.765625 L0.5,6.984375 L5.28125,8.57804152 L5.28125,8.57804152 Z" id="Fill-23174" fill="#FB0011" sketch:type="MSShapeGroup"></path>
                <path d="M5.28125,8.57809161 L2.09375,11.765625 L0.5,6.984375 L5.28125,8.57809161 L5.28125,8.57809161 Z" id="Stroke-23175" stroke="#FB0011" stroke-width="0.625" stroke-linecap="round" sketch:type="MSShapeGroup"></path>
                <path d="M3.734375,10.1960272 C5.12890926,11.5935261 7.12094072,12.2130481 9.06009411,11.8522226 C10.9991228,11.4914846 12.6364721,10.196652 13.4375,8.390625" id="Stroke-23176" stroke="#FB0011" stroke-width="1.875" stroke-linecap="round" stroke-linejoin="round" sketch:type="MSShapeGroup"></path>
                <path d="M12.21875,1.7570518 C10.8242157,0.359597472 8.83218428,-0.259910369 6.8931556,0.100894337 C4.9540022,0.46162406 3.31665286,1.75642694 2.515625,3.5625" id="Stroke-23177" stroke="#FB0011" stroke-width="1.875" stroke-linecap="round" stroke-linejoin="round" sketch:type="MSShapeGroup"></path>
            </g>
        </g>
    </g>
</svg>