<?xml version="1.0" encoding="UTF-8" standalone="no"?>
<svg width="512px" height="512px" viewBox="0 0 512 512" version="1.1" xmlns="http://www.w3.org/2000/svg" xmlns:xlink="http://www.w3.org/1999/xlink" xmlns:sketch="http://www.bohemiancoding.com/sketch/ns">
    <!-- Generator: Sketch 3.3 (11970) - http://www.bohemiancoding.com/sketch -->
    <title>tb_rectangle3point</title>
    <desc>Created with Sketch.</desc>
    <defs></defs>
    <g id="Page-1" stroke="none" stroke-width="1" fill="none" fill-rule="evenodd" sketch:type="MSPage">
        <g id="tb_rectangle3point" sketch:type="MSArtboardGroup">
            <path d="M118.888453,95.5010781 L382.068875,95.5010781 L382.068875,412.536953 L118.888453,412.536953 L118.888453,95.5010781 L118.888453,95.5010781 Z" id="Fill-4148" fill="#A09E8A" sketch:type="MSShapeGroup"></path>
            <path d="M118.888453,95.5010781 L382.068875,95.5010781 L382.068875,412.536953 L118.888453,412.536953 L118.888453,95.5010781 L118.888453,95.5010781 Z" id="Stroke-4149" stroke="#000000" stroke-width="10.4099252" stroke-linecap="round" sketch:type="MSShapeGroup"></path>
            <path d="M117.219371,98.3007813 L117.219371,411.136427" id="Stroke-22483" stroke="#FEFEFE" stroke-width="34.0250015" stroke-linecap="round" stroke-linejoin="round" sketch:type="MSShapeGroup"></path>
            <path d="M382.730479,411.136414 L117.219371,411.136427" id="Stroke-22483-Copy" stroke="#FEFEFE" stroke-width="34.0250015" stroke-linecap="round" stroke-linejoin="round" sketch:type="MSShapeGroup"></path>
            <path d="M120.597656,176.461933 C120.597656,176.461933 199.703125,172.503182 256,197.89619 C312.296875,223.289198 349.660156,258.201701 365.605469,298.871333 C381.550781,339.540964 383.140625,412 383.140625,412" id="Path-1998" stroke="#FFFFFF" stroke-width="32" sketch:type="MSShapeGroup"></path>
            <path d="M78.6060268,412.536953 C78.6060268,391.23077 95.9129829,373.923609 117.218712,373.923609 C138.524442,373.923609 155.832714,391.23077 155.832714,412.536953 C155.832714,433.843136 138.524442,451.150297 117.218712,451.150297 C95.9129829,451.150297 78.6060268,433.843136 78.6060268,412.536953 L78.6060268,412.536953 Z" id="Fill-22485" fill="#FCFCFC" sketch:type="MSShapeGroup"></path>
            <path d="M129.731903,402.056987 C136.081047,408.406512 136.081047,418.699676 129.731903,425.0492 C123.38276,431.398725 113.088461,431.398725 106.739317,425.0492 C100.389909,418.699676 100.389909,408.406512 106.739317,402.056987 C113.088461,395.707463 123.38276,395.707463 129.731903,402.056987" id="Fill-23632" fill="#FB0011" sketch:type="MSShapeGroup"></path>
            <path d="M129.731903,402.056701 C136.081047,408.405845 136.081047,418.700144 129.731903,425.049288 C123.38276,431.398696 113.088461,431.398696 106.739317,425.049288 C100.389909,418.700144 100.389909,408.405845 106.739317,402.056701 C113.088461,395.707558 123.38276,395.707558 129.731903,402.056701" id="Stroke-23633" stroke="#FB0011" stroke-width="10.4099252" sketch:type="MSShapeGroup"></path>
            <path d="M80.2751094,95.5023945 C80.2751094,74.1954848 97.5825331,56.8877344 118.88819,56.8877344 C140.193583,56.8877344 157.501797,74.1954848 157.501797,95.5023945 C157.501797,116.806671 140.193583,134.114422 118.88819,134.114422 C97.5825331,134.114422 80.2751094,116.806671 80.2751094,95.5023945 L80.2751094,95.5023945 Z" id="Fill-22484" fill="#FCFCFC" sketch:type="MSShapeGroup"></path>
            <path d="M131.466326,86.2109611 C138.212614,92.9570093 138.212614,103.894622 131.466326,110.64067 C124.720304,117.386718 113.782999,117.386718 107.036977,110.64067 C100.290689,103.894622 100.290689,92.9570093 107.036977,86.2109611 C113.782999,79.464913 124.720304,79.464913 131.466326,86.2109611" id="Stroke-23631" stroke="#FB0011" stroke-width="10.4099252" sketch:type="MSShapeGroup"></path>
            <path d="M131.466326,83.1635406 C138.212614,89.9082663 138.212614,100.846521 131.466326,107.591247 C124.720304,114.33863 113.782999,114.33863 107.036977,107.591247 C100.290689,100.846521 100.290689,89.9082663 107.036977,83.1635406 C113.782999,76.4161573 124.720304,76.4161573 131.466326,83.1635406" id="Fill-23630" fill="#FB0011" sketch:type="MSShapeGroup"></path>
            <path d="M343.455531,410.13773 C343.455531,388.83082 360.762955,371.52307 382.068612,371.52307 C403.374005,371.52307 420.682219,388.83082 420.682219,410.13773 C420.682219,431.442007 403.374005,448.749757 382.068612,448.749757 C360.762955,448.749757 343.455531,431.442007 343.455531,410.13773 L343.455531,410.13773 Z" id="Fill-22484-Copy" fill="#FCFCFC" sketch:type="MSShapeGroup"></path>
            <path d="M394.646748,400.846297 C401.393036,407.592345 401.393036,418.529957 394.646748,425.276006 C387.900726,432.022054 376.963421,432.022054 370.217399,425.276006 C363.471111,418.529957 363.471111,407.592345 370.217399,400.846297 C376.963421,394.100248 387.900726,394.100248 394.646748,400.846297" id="Stroke-23631-Copy" stroke="#FB0011" stroke-width="10.4099252" sketch:type="MSShapeGroup"></path>
            <path d="M394.646748,397.798876 C401.393036,404.543602 401.393036,415.481857 394.646748,422.226582 C387.900726,428.973966 376.963421,428.973966 370.217399,422.226582 C363.471111,415.481857 363.471111,404.543602 370.217399,397.798876 C376.963421,391.051493 387.900726,391.051493 394.646748,397.798876" id="Fill-23630-Copy" fill="#FB0011" sketch:type="MSShapeGroup"></path>
            <path d="M80.3475935,172.729082 C80.3475935,151.422172 97.6550172,134.114422 118.960674,134.114422 C140.266068,134.114422 157.574281,151.422172 157.574281,172.729082 C157.574281,194.033359 140.266068,211.341109 118.960674,211.341109 C97.6550172,211.341109 80.3475935,194.033359 80.3475935,172.729082 L80.3475935,172.729082 Z" id="Fill-22484-Copy-2" fill="#FCFCFC" sketch:type="MSShapeGroup"></path>
            <path d="M131.538811,163.437649 C138.285099,170.183697 138.285099,181.121309 131.538811,187.867358 C124.792788,194.613406 113.855484,194.613406 107.109461,187.867358 C100.363173,181.121309 100.363173,170.183697 107.109461,163.437649 C113.855484,156.6916 124.792788,156.6916 131.538811,163.437649" id="Stroke-23631-Copy-2" stroke="#FB0011" stroke-width="10.4099252" sketch:type="MSShapeGroup"></path>
            <path d="M131.538811,160.390228 C138.285099,167.134954 138.285099,178.073209 131.538811,184.817934 C124.792788,191.565318 113.855484,191.565318 107.109461,184.817934 C100.363173,178.073209 100.363173,167.134954 107.109461,160.390228 C113.855484,153.642845 124.792788,153.642845 131.538811,160.390228" id="Fill-23630-Copy-2" fill="#FB0011" sketch:type="MSShapeGroup"></path>
            <path d="M119.960937,98.4218754 L119.960937,411.785157" id="Stroke-23629" stroke="#FB0011" stroke-width="10.4099252" stroke-linecap="round" stroke-linejoin="round" sketch:type="MSShapeGroup"></path>
            <path d="M120.597656,176.461933 C120.597656,176.461933 199.703125,172.503182 256,197.89619 C312.296875,223.289198 349.660156,258.201701 365.605469,298.871333 C381.550781,339.540964 383.140625,412 383.140625,412" id="Path-1998-Copy" stroke="#FB0011" stroke-width="12" sketch:type="MSShapeGroup"></path>
            <path d="M382.882812,411.785157 L119.960937,411.785157" id="Stroke-23629-Copy" stroke="#FB0011" stroke-width="10.4099252" stroke-linecap="round" stroke-linejoin="round" sketch:type="MSShapeGroup"></path>
        </g>
    </g>
</svg>