<?xml version="1.0" encoding="UTF-8" standalone="no"?>
<svg width="24px" height="24px" viewBox="0 0 24 24" version="1.1" xmlns="http://www.w3.org/2000/svg" xmlns:xlink="http://www.w3.org/1999/xlink" xmlns:sketch="http://www.bohemiancoding.com/sketch/ns">
    <!-- Generator: Sketch 3.3.1 (12002) - http://www.bohemiancoding.com/sketch -->
    <title>tb_redo</title>
    <desc>Created with Sketch.</desc>
    <defs></defs>
    <g id="Page-1" stroke="none" stroke-width="1" fill="none" fill-rule="evenodd" sketch:type="MSPage">
        <g id="tb_redo" sketch:type="MSArtboardGroup">
            <g id="Group" sketch:type="MSLayerGroup" transform="translate(3.000000, 3.000000)">
                <path d="M2.95947871,9.984375 L3.98779035,10.5481119 L6.49486926,11.3549464 L9.46875,11.889013 L6.49486926,14.0120648 L9.46875,17.203125 L6.49486926,16.6690584 L3.98779035,15.862224 L2.1184618,14.8374744 L1.01390961,13.6646223 L0.75,12.4237029 L1.34420216,11.1991147 L2.75633694,10.0746327 L2.95947871,9.984375 L2.95947871,9.984375 Z" id="Fill-1534" fill="#7B846B" sketch:type="MSShapeGroup"></path>
                <path d="M2.95947871,9.984375 L3.98779035,10.5481119 L6.49486926,11.3549464 L9.46875,11.889013 L6.49486926,14.0120648 L9.46875,17.203125 L6.49486926,16.6690584 L3.98779035,15.862224 L2.1184618,14.8374744 L1.01390961,13.6646223 L0.75,12.4237029 L1.34420216,11.1991147 L2.75633694,10.0746327 L2.95947871,9.984375 L2.95947871,9.984375 Z" id="Stroke-1535" stroke="#000000" stroke-width="0.5" stroke-linecap="round" stroke-linejoin="round" sketch:type="MSShapeGroup"></path>
                <path d="M10.719125,2.85633833 L10.719125,0 L17.25,5.64311648 L10.719125,11.0360911 L10.719125,8.17975273 L7.61225,8.59811288 L4.897625,9.30620305 L2.963375,10.1656522 L2.759875,10.2560679 L2.120875,10.7650936 L1.34525,11.3826431 L1.014375,12.0643828 L0.75,12.609375 L0.75,7.28583572 L1.34525,6.05922873 L2.759875,4.93265352 L4.897625,3.98278865 L7.61225,3.27469848 L10.719125,2.85633833 L10.719125,2.85633833 Z" id="Fill-1538" fill="#1293F5" sketch:type="MSShapeGroup"></path>
                <path d="M10.719125,2.85633833 L10.719125,0 L17.25,5.64311648 L10.719125,11.0360911 L10.719125,8.17975273 L7.61225,8.59811288 L4.897625,9.30620305 L2.963375,10.1656522 L2.759875,10.2560679 L2.120875,10.7650936 L1.34525,11.3826431 L1.014375,12.0643828 L0.75,12.609375 L0.75,7.28583572 L1.34525,6.05922873 L2.759875,4.93265352 L4.897625,3.98278865 L7.61225,3.27469848 L10.719125,2.85633833 L10.719125,2.85633833 Z" id="Stroke-1539" stroke="#000000" stroke-width="0.5" stroke-linecap="round" stroke-linejoin="round" sketch:type="MSShapeGroup"></path>
            </g>
        </g>
    </g>
</svg>