<?xml version="1.0" standalone="no"?>
<!DOCTYPE svg PUBLIC "-//W3C//DTD SVG 1.1//EN" "http://www.w3.org/Graphics/SVG/1.1/DTD/svg11.dtd">
<!--Generator: Xara Designer (www.xara.com), SVG filter version: 6.5.0.21-->
<svg fill="none" fill-rule="evenodd" stroke="black" stroke-width="0.501" stroke-linejoin="bevel" stroke-miterlimit="10" font-family="Times New Roman" font-size="16" style="font-variant-ligatures:none" xmlns:xlink="http://www.w3.org/1999/xlink" xmlns="http://www.w3.org/2000/svg" version="1.1" overflow="visible" width="72pt" height="72pt" viewBox="0 -72 72 72">
 <defs>
  <linearGradient id="LinearGradient" gradientUnits="userSpaceOnUse" x1="0" y1="0" x2="2.617" y2="0" gradientTransform="translate(56.646 53.082) rotate(3.74564) skewX(3.56499)">
   <stop offset="0" stop-color="#ffffff"/>
   <stop offset="1" stop-color="#ffffff"/>
  </linearGradient>
  <linearGradient id="LinearGradient_1" gradientUnits="userSpaceOnUse" x1="0" y1="0" x2="-30.751" y2="0.001" gradientTransform="translate(53.137 16.552)">
   <stop offset="0" stop-color="#ffffff"/>
   <stop offset="1" stop-color="#b2b2b2"/>
  </linearGradient>
 </defs>
 <g id="Layer 1" transform="scale(1 -1)">
  <g id="Group" stroke-linejoin="miter" stroke="none">
   <g id="Group_1">
    <path d="M 17.441,10.875 L 10.875,17.442 L 10.878,61.125 L 61.125,61.123 L 61.124,39.495 L 61.124,39.497 C 60.646,40.195 60.32,40.646 60.192,40.781 L 57.649,43.442 C 56.448,44.698 54.461,44.754 53.183,43.566 L 30.499,22.183 L 25.5,10.875 L 17.441,10.875 Z" fill="#000000" stroke-width="0.201" marker-start="none" marker-end="none"/>
    <path d="M 17.9,12.331 L 12.257,17.974 L 12.26,59.426 L 59.354,59.423 L 59.353,41.658 L 57.649,43.442 C 56.448,44.698 54.461,44.754 53.183,43.566 L 30.83,22.149 L 25.994,12.33 L 17.9,12.331 Z" fill="#5284f7" stroke-width="0.188" marker-start="none" marker-end="none"/>
    <path d="M 39.92,30.908 L 14.643,30.908 L 14.644,56.928 L 53.278,56.927 L 53.276,43.636 L 53.276,43.649 C 53.245,43.622 53.214,43.594 53.183,43.566 L 39.933,30.908 L 39.92,30.908 Z" fill="#000000" stroke-width="0.188" marker-start="none" marker-end="none"/>
    <path d="M 16.219,32.487 L 16.22,55.351 L 51.702,55.349 L 51.7,42.093 L 41.584,32.429 L 16.219,32.487 Z" fill="#ffffff" stroke-width="0.188" marker-start="none" marker-end="none"/>
    <path d="M 59.352,50.768 L 56.645,50.769 L 56.645,56.604 L 59.352,56.604 L 59.352,50.768 Z" stroke-width="0.188" marker-start="none" marker-end="none" fill="url(#LinearGradient)"/>
    <g id="Group_2" stroke-width="0.188">
     <path d="M 20.638,12.329 L 20.639,23.674 C 20.639,26.361 22.82,28.543 25.509,28.543 L 37.449,28.542 L 37.453,28.542 L 30.834,22.183 L 26.106,12.329 L 20.638,12.329 Z" fill="#191919" marker-start="none" marker-end="none"/>
     <path d="M 26.097,12.328 L 22.387,12.329 L 22.387,23.013 C 22.387,24.975 23.982,26.569 25.945,26.571 L 35.453,26.569 L 30.83,22.149 L 26.097,12.328 Z" marker-start="none" marker-end="none" fill="url(#LinearGradient_1)"/>
    </g>
   </g>
   <g id="Group_3">
    <g id="Group_4">
     <rect x="-3.669" y="-12.375" width="7.339" height="24.75" transform="translate(42.905 26.373) rotate(133.704)" fill="#1fc902"/>
     <path d="M 31.421,20.477 L 26.683,10.874 L 36.494,15.169 L 31.421,20.477 Z" fill="#f3f3c9" marker-start="none" marker-end="none"/>
     <path d="M 32.241,13.307 L 26.685,10.875 L 29.368,16.314 L 32.241,13.307 Z" stroke-width="0.129" fill="#000000" marker-start="none" marker-end="none"/>
     <rect x="-1.115" y="-15.819" width="2.231" height="31.638" transform="translate(47.162 26.903) rotate(133.69)" fill="#179f00"/>
     <rect x="-1.114" y="-15.818" width="2.229" height="31.637" transform="translate(43.63 30.6) rotate(133.689)" fill="#1f860d"/>
     <path d="M 57.246,34.997 L 52.175,40.306 L 54.298,42.333 L 54.3,42.332 L 54.299,42.333 C 54.965,42.952 56.009,42.923 56.64,42.264 L 59.408,39.366 C 60.038,38.707 60.019,37.661 59.37,37.025 L 57.246,34.997 Z" fill="#ff3d3d" marker-start="none" marker-end="none"/>
     <rect x="-1.115" y="-1.976" width="2.231" height="3.952" transform="translate(51.518 38.133) rotate(-46.3095)" fill="#cccccc"/>
     <rect x="-1.115" y="-1.975" width="2.231" height="3.951" transform="translate(55.049 34.437) rotate(-46.3095)" fill="#999999"/>
     <rect x="-3.669" y="-0.448" width="7.339" height="0.896" transform="translate(51.529 34.61) rotate(133.688)" fill="#000000"/>
     <rect x="-3.669" y="-0.448" width="7.339" height="0.896" transform="translate(55.036 37.96) rotate(133.688)" fill="#000000"/>
     <rect x="-1.505" y="-1.975" width="3.011" height="3.951" transform="translate(53.283 36.286) rotate(133.687)" fill="#b2b2b2"/>
    </g>
   </g>
  </g>
 </g>
</svg>
