<?xml version="1.0" encoding="UTF-8" standalone="no"?>
<svg width="24px" height="24px" viewBox="0 0 24 24" version="1.1" xmlns="http://www.w3.org/2000/svg" xmlns:xlink="http://www.w3.org/1999/xlink" xmlns:sketch="http://www.bohemiancoding.com/sketch/ns">
    <!-- Generator: Sketch 3.3.1 (12002) - http://www.bohemiancoding.com/sketch -->
    <title>tb_sharemodel</title>
    <desc>Created with Sketch.</desc>
    <defs></defs>
    <g id="Page-1" stroke="none" stroke-width="1" fill="none" fill-rule="evenodd" sketch:type="MSPage">
        <g id="tb_sharemodel" sketch:type="MSArtboardGroup">
            <g id="Group" sketch:type="MSLayerGroup" transform="translate(3.000000, 4.000000)">
                <path d="M5.8125,9.05236089 L5.41346984,9.171875 L4.265625,6.20832376 L5.07575025,5.984375 L5.32078304,7.81659242 L5.8125,9.05236089" id="Fill-9689" fill="#9C9C9C" sketch:type="MSShapeGroup"></path>
                <path d="M5.390625,9.24527592 L5.79860458,9.125 L7.03125,12.1742893 L6.59759136,12.3125 L5.390625,9.24527592" id="Fill-9690" fill="#FFFFFF" sketch:type="MSShapeGroup"></path>
                <path d="M4.99926751,6.087875 L4.17624651,6.3125 L3.140625,2.61775 L10.2380465,0.875 L10.546875,2.10725 L4.66328333,3.607625 L4.99926751,6.087875" id="Fill-9691" fill="#FFFFFF" sketch:type="MSShapeGroup"></path>
                <path d="M5.06833502,6.11553748 L4.734375,3.640625 L5.39284969,5.16209373 L5.58030087,6.72459895 L6.26508319,8.35308688 L6.4057929,9.73398377 L7.1154144,11.4640027 L7.171875,12.1730985 L7.02972172,12.21875 L5.81230328,9.18616522 L5.31576859,7.94933263 L5.06833502,6.11553748" id="Fill-9692" fill="#98000A" sketch:type="MSShapeGroup"></path>
                <path d="M7.08769092,11.328125 L6.375,9.60576554 L8.44975633,8.984375 L9.234375,10.6558212 L7.08769092,11.328125" id="Fill-9693" fill="#B6B49D" sketch:type="MSShapeGroup"></path>
                <path d="M5.57967621,6.59375 L5.390625,5.03930996 L9.796875,3.875 L9.75958687,5.44246919 L5.57967621,6.59375" id="Fill-9694" fill="#9A000A" sketch:type="MSShapeGroup"></path>
                <path d="M6.609375,12.2393624 L7.04004523,12.1014824 L7.18298465,12.0556892 L13.2610071,10.1084778 L14.428986,9.734375 L16.40625,10.6599979 L14.0719815,11.4353542 L7.62095014,13.578125 L6.609375,12.2393624" id="Fill-9695" fill="#D3D3D3" sketch:type="MSShapeGroup"></path>
                <path d="M13.7895568,12.8190846 L6.90880023,15.171875 L6.609375,12.3204709 L7.61966489,13.6606283 L14.0625,11.515625 L13.7895568,12.8190846" id="Fill-9696" fill="#615744" sketch:type="MSShapeGroup"></path>
                <path d="M11.0051371,2 L12.012094,3.59334754 L13.875,6.54103423 L11.627749,7.203125 L9.78910386,3.95411255 L5.39642488,5.1282569 L4.734375,3.60185674 L10.6142733,2.09985795 L11.0051371,2" id="Fill-9697" fill="#B6B49D" sketch:type="MSShapeGroup"></path>
                <path d="M8.4375,9.01682715 L6.37486755,9.640625 L6.234375,8.26051588 L8.40832546,7.625 L8.4375,9.01682715" id="Fill-9698" fill="#9A000A" sketch:type="MSShapeGroup"></path>
                <path d="M12,3.60028184 L13.7473241,1.859375 L17.53125,7.15357812 L14.4148383,9.828125 L13.5521399,8.38387717 L13.8602465,6.5389276 L12,3.60028184" id="Fill-9699" fill="#FFFFFF" sketch:type="MSShapeGroup"></path>
                <path d="M13.5705995,8.375 L14.4375,9.82788688 L13.265625,10.203125 L13.5705995,8.375" id="Fill-9700" fill="#9A9A9A" sketch:type="MSShapeGroup"></path>
                <path d="M13.5663001,8.35195853 L13.2622194,10.176117 L7.18179527,12.125 L7.125,11.4130936 L9.27510858,10.7351232 L9.28780208,9.37091765 L11.4865315,8.69908335 L11.6266357,7.16256762 L13.875,6.5 L13.5663001,8.35195853" id="Fill-9701" fill="#9A000A" sketch:type="MSShapeGroup"></path>
                <path d="M5.484375,6.68129228 L9.65383288,5.515625 L11.390625,8.73220333 L9.19170738,9.40625 L8.36367986,7.6811177 L6.17327537,8.32161908 L5.484375,6.68129228" id="Fill-9702" fill="#B6B49D" sketch:type="MSShapeGroup"></path>
                <path d="M11.4850263,8.65625 L9.75,5.45466077 L9.78715707,3.875 L11.625,7.12185816 L11.4850263,8.65625" id="Fill-9703" fill="#98000A" sketch:type="MSShapeGroup"></path>
                <path d="M0.890625,5.375 L4.20889717,6.28191341 L5.36919866,9.25494909 L6.5625,12.3125 L5.75766004,12.2044805 L2.91047967,11.8222867 L0.890625,5.375" id="Fill-9704" fill="#D6D6D6" sketch:type="MSShapeGroup"></path>
                <path d="M5.765625,12.265625 L6.5862884,12.3736021 L6.890625,15.21875 L5.765625,12.265625" id="Fill-9705" fill="#605643" sketch:type="MSShapeGroup"></path>
                <path d="M9.234375,9.35008756 L9.22143937,10.71875 L8.42057851,9.02770939 L8.390625,7.625 L9.234375,9.35008756" id="Fill-9706" fill="#98000A" sketch:type="MSShapeGroup"></path>
                <path id="Stroke-9707" stroke="#000000" stroke-width="0.5" stroke-linecap="round" stroke-linejoin="round" sketch:type="MSShapeGroup" d="M5.8125,9.125 L5.390625,9.25985938"></path>
                <path id="Stroke-9708" stroke="#000000" stroke-width="0.5" stroke-linecap="round" stroke-linejoin="round" sketch:type="MSShapeGroup" d="M5.109375,5.984375 L4.265625,6.21875"></path>
                <path id="Stroke-9709" stroke="#000000" stroke-width="0.5" stroke-linecap="round" stroke-linejoin="round" sketch:type="MSShapeGroup" d="M6.890625,15.125 L6.609375,12.265625"></path>
                <path d="M14.34375,9.828125 L13.5,8.375" id="Stroke-9710" stroke="#000000" stroke-width="0.5" stroke-linecap="round" stroke-linejoin="round" sketch:type="MSShapeGroup"></path>
                <path d="M5.390625,5.04385459 L9.78630885,3.875 L11.6262117,7.109375 L13.875,6.45026708" id="Stroke-9711" stroke="#000000" stroke-width="0.5" stroke-linecap="round" stroke-linejoin="round" sketch:type="MSShapeGroup"></path>
                <path d="M6.375,9.59375 L8.4375,8.984375" id="Stroke-9712" stroke="#000000" stroke-width="0.5" stroke-linecap="round" stroke-linejoin="round" sketch:type="MSShapeGroup"></path>
                <path id="Stroke-9713" stroke="#000000" stroke-width="0.5" stroke-linecap="round" stroke-linejoin="round" sketch:type="MSShapeGroup" d="M8.390625,7.625 L8.42364375,9.03125"></path>
                <path id="Stroke-9714" stroke="#000000" stroke-width="0.5" stroke-linecap="round" stroke-linejoin="round" sketch:type="MSShapeGroup" d="M9.24863438,9.359375 L9.234375,10.71875"></path>
                <path d="M8.390625,7.625 L9.234375,9.359375" id="Stroke-9715" stroke="#000000" stroke-width="0.5" stroke-linecap="round" stroke-linejoin="round" sketch:type="MSShapeGroup"></path>
                <path d="M8.484375,8.984375 L9.28125,10.671875" id="Stroke-9716" stroke="#000000" stroke-width="0.5" stroke-linecap="round" stroke-linejoin="round" sketch:type="MSShapeGroup"></path>
                <path d="M6.234375,8.28125 L8.4375,7.625" id="Stroke-9717" stroke="#000000" stroke-width="0.5" stroke-linecap="round" stroke-linejoin="round" sketch:type="MSShapeGroup"></path>
                <path id="Stroke-9718" stroke="#000000" stroke-width="0.5" stroke-linecap="round" stroke-linejoin="round" sketch:type="MSShapeGroup" d="M6.234375,8.234375 L6.375,9.640625"></path>
                <path d="M5.484375,6.640625 L6.1875,8.28125" id="Stroke-9719" stroke="#000000" stroke-width="0.5" stroke-linecap="round" stroke-linejoin="round" sketch:type="MSShapeGroup"></path>
                <path d="M9.234375,9.40625 L11.4375,8.75" id="Stroke-9720" stroke="#000000" stroke-width="0.5" stroke-linecap="round" stroke-linejoin="round" sketch:type="MSShapeGroup"></path>
                <path d="M9.75,5.515625 L11.484375,8.703125" id="Stroke-9721" stroke="#000000" stroke-width="0.5" stroke-linecap="round" stroke-linejoin="round" sketch:type="MSShapeGroup"></path>
                <path d="M5.484375,6.6875 L9.65625,5.515625" id="Stroke-9722" stroke="#000000" stroke-width="0.5" stroke-linecap="round" stroke-linejoin="round" sketch:type="MSShapeGroup"></path>
                <path id="Stroke-9723" stroke="#000000" stroke-width="0.5" stroke-linecap="round" stroke-linejoin="round" sketch:type="MSShapeGroup" d="M7.18880156,12.078125 L7.125,11.375"></path>
                <path d="M6.375,9.640625 L7.078125,11.375" id="Stroke-9724" stroke="#000000" stroke-width="0.5" stroke-linecap="round" stroke-linejoin="round" sketch:type="MSShapeGroup"></path>
                <path id="Stroke-9725" stroke="#000000" stroke-width="0.5" stroke-linecap="round" stroke-linejoin="round" sketch:type="MSShapeGroup" d="M5.390625,5.140625 L5.578125,6.6875"></path>
                <path d="M4.734375,3.640625 L5.390625,5.1875" id="Stroke-9726" stroke="#000000" stroke-width="0.5" stroke-linecap="round" stroke-linejoin="round" sketch:type="MSShapeGroup"></path>
                <path d="M7.125,11.421875 L9.28125,10.765625" id="Stroke-9727" stroke="#000000" stroke-width="0.5" stroke-linecap="round" stroke-linejoin="round" sketch:type="MSShapeGroup"></path>
                <path id="Stroke-9728" stroke="#000000" stroke-width="0.5" stroke-linecap="round" stroke-linejoin="round" sketch:type="MSShapeGroup" d="M9.79177969,3.875 L9.75,5.46875"></path>
                <path d="M11.625,7.109375 L11.484375,8.65625" id="Stroke-9729" stroke="#000000" stroke-width="0.5" stroke-linecap="round" stroke-linejoin="round" sketch:type="MSShapeGroup"></path>
                <path d="M5.765625,12.265625 L6.86985758,15.21875 L13.734375,12.8711219" id="Stroke-9730" stroke="#000000" stroke-width="0.5" stroke-linecap="round" stroke-linejoin="round" sketch:type="MSShapeGroup"></path>
                <path id="Stroke-9731" stroke="#000000" stroke-width="0.5" stroke-linecap="round" stroke-linejoin="round" sketch:type="MSShapeGroup" d="M13.734375,12.828125 L14.015625,11.515625"></path>
                <path d="M4.171875,6.3125 L3.140625,2.609375" id="Stroke-9732" stroke="#000000" stroke-width="0.5" stroke-linecap="round" stroke-linejoin="round" sketch:type="MSShapeGroup"></path>
                <path d="M12,3.59375 L13.734375,1.859375" id="Stroke-9733" stroke="#000000" stroke-width="0.5" stroke-linecap="round" stroke-linejoin="round" sketch:type="MSShapeGroup"></path>
                <path d="M14.390625,9.734375 L16.359375,10.671875" id="Stroke-9734" stroke="#000000" stroke-width="0.5" stroke-linecap="round" stroke-linejoin="round" sketch:type="MSShapeGroup"></path>
                <path d="M7.640625,13.625 L6.609375,12.265625" id="Stroke-9735" stroke="#000000" stroke-width="0.5" stroke-linecap="round" stroke-linejoin="round" sketch:type="MSShapeGroup"></path>
                <path d="M17.53125,7.109375 L14.390625,9.78125" id="Stroke-9736" stroke="#000000" stroke-width="0.5" stroke-linecap="round" stroke-linejoin="round" sketch:type="MSShapeGroup"></path>
                <path d="M17.53125,7.15625 L13.734375,1.859375" id="Stroke-9737" stroke="#000000" stroke-width="0.5" stroke-linecap="round" stroke-linejoin="round" sketch:type="MSShapeGroup"></path>
                <path d="M10.265625,0.875 L10.59375,2.09375" id="Stroke-9738" stroke="#000000" stroke-width="0.5" stroke-linecap="round" stroke-linejoin="round" sketch:type="MSShapeGroup"></path>
                <path d="M10.21875,0.875 L3.140625,2.609375" id="Stroke-9739" stroke="#000000" stroke-width="0.5" stroke-linecap="round" stroke-linejoin="round" sketch:type="MSShapeGroup"></path>
                <path d="M0.890625,5.375 L4.21875,6.265625" id="Stroke-9740" stroke="#000000" stroke-width="0.5" stroke-linecap="round" stroke-linejoin="round" sketch:type="MSShapeGroup"></path>
                <path d="M0.890625,5.375 L2.90625,11.84375" id="Stroke-9741" stroke="#000000" stroke-width="0.5" stroke-linecap="round" stroke-linejoin="round" sketch:type="MSShapeGroup"></path>
                <path d="M4.15929629,6.265625 L5.32094161,9.24669075 L6.515625,12.3125 L5.7098529,12.2041888 L2.859375,11.8209626" id="Stroke-9742" stroke="#000000" stroke-width="0.5" stroke-linecap="round" stroke-linejoin="round" sketch:type="MSShapeGroup"></path>
                <path id="Stroke-9743" stroke="#000000" stroke-width="0.5" stroke-linecap="round" stroke-linejoin="round" sketch:type="MSShapeGroup" d="M6.609375,12.265625 L7.03125,12.125"></path>
                <path d="M16.40625,10.765625 L14.0772092,11.5378255 L7.640625,13.671875" id="Stroke-9744" stroke="#000000" stroke-width="0.5" stroke-linecap="round" stroke-linejoin="round" sketch:type="MSShapeGroup"></path>
                <path d="M5.25,7.859375 L5.75245094,9.09510895 L6.984375,12.125" id="Stroke-9745" stroke="#000000" stroke-width="0.5" stroke-linecap="round" stroke-linejoin="round" sketch:type="MSShapeGroup"></path>
                <path id="Stroke-9746" stroke="#000000" stroke-width="0.5" stroke-linecap="round" stroke-linejoin="round" sketch:type="MSShapeGroup" d="M11.015625,2 L10.640625,2.11221875"></path>
                <path d="M13.2647611,10.203125 L13.5675805,8.38280476 L13.875,6.53474298 L12.018902,3.59114008 L11.015625,2" id="Stroke-9747" stroke="#000000" stroke-width="0.5" stroke-linecap="round" stroke-linejoin="round" sketch:type="MSShapeGroup"></path>
                <path d="M6.984375,12.078125 L7.12674247,12.0327837 L13.1804446,10.1047864 L14.34375,9.734375" id="Stroke-9748" stroke="#000000" stroke-width="0.5" stroke-linecap="round" stroke-linejoin="round" sketch:type="MSShapeGroup"></path>
                <path id="Stroke-9749" stroke="#000000" stroke-width="0.5" stroke-linecap="round" stroke-linejoin="round" sketch:type="MSShapeGroup" d="M5.25,7.8125 L5.015625,5.984375"></path>
                <path id="Stroke-9750" stroke="#000000" stroke-width="0.5" stroke-linecap="round" stroke-linejoin="round" sketch:type="MSShapeGroup" d="M4.734375,3.640625 L5.0625,6.125"></path>
                <path d="M10.59375,2.140625 L4.734375,3.640625" id="Stroke-9751" stroke="#000000" stroke-width="0.5" stroke-linecap="round" stroke-linejoin="round" sketch:type="MSShapeGroup"></path>
                <g transform="translate(11.390625, 8.750000)" sketch:type="MSShapeGroup">
                    <path d="M3.42186874,8.25 L5.13280937,8.25 L5.13282189,3.749875 L6.84375,3.75 L3.42186874,0 L0,3.75 L1.71087806,3.75 L1.71087806,8.25 L3.42186874,8.25 L3.42186874,8.25 Z" id="Fill-24836" fill="#0A8400"></path>
                    <path d="M3.42186874,8.25 L5.13280937,8.25 L5.13282189,3.749875 L6.84375,3.75 L3.42186874,0 L0,3.75 L1.71087806,3.75 L1.71087806,8.25 L3.42186874,8.25 L3.42186874,8.25 Z" id="Stroke-24837" stroke="#FFFFFF" stroke-width="1.37499979" stroke-linecap="round" stroke-linejoin="round"></path>
                    <path d="M3.42186874,8.25 L5.13280937,8.25 L5.13282189,3.749875 L6.84375,3.75 L3.42186874,0 L0,3.75 L1.71087806,3.75 L1.71087806,8.25 L3.42186874,8.25 L3.42186874,8.25 Z" id="Fill-24838" fill="#0A8400"></path>
                    <path d="M3.42186874,8.25 L5.13280937,8.25 L5.13282189,3.749875 L6.84375,3.75 L3.42186874,0 L0,3.75 L1.71087806,3.75 L1.71087806,8.25 L3.42186874,8.25 L3.42186874,8.25 Z" id="Stroke-24839" stroke="#000000" stroke-width="0.5" stroke-linecap="round" stroke-linejoin="round"></path>
                </g>
            </g>
        </g>
    </g>
</svg>