<?xml version="1.0" encoding="UTF-8" standalone="no"?>
<svg width="24px" height="24px" viewBox="0 0 24 24" version="1.1" xmlns="http://www.w3.org/2000/svg" xmlns:xlink="http://www.w3.org/1999/xlink">
    <!-- Generator: Sketch 3.6.1 (26313) - http://www.bohemiancoding.com/sketch -->
    <title>tb_section</title>
    <desc>Created with Sketch.</desc>
    <defs></defs>
    <g id="Page-1-Icons-24x24" stroke="none" stroke-width="1" fill="none" fill-rule="evenodd">
        <g id="tb_section">
            <path d="M12,19 L12,4 L19.5,11.5 L12,19 Z" id="Stroke-1626" stroke="#000000" stroke-width="0.5" stroke-linecap="round" stroke-linejoin="round" fill="#000000"></path>
            <path d="M12,6.25 C14.896819,6.25 17.25,8.603125 17.25,11.5 C17.25,14.396875 14.896819,16.75 12,16.75 C9.10305603,16.75 6.75,14.396875 6.75,11.5 C6.75,8.603125 9.10305603,6.25 12,6.25 Z" id="Stroke-1628" stroke="#000000" stroke-width="0.5" stroke-linecap="round" stroke-linejoin="round" fill="#FFFFFF"></path>
            <path d="M13.095,7.48 L13.09,7.425 L13.09,7.37 C13.0866667,7.3499999 13.085,7.33833335 13.085,7.335 C13.0783333,7.2616663 13.075,7.2283333 13.075,7.235 C13.075,7.1216661 13.1283328,7.065 13.235,7.065 C13.3483339,7.065 13.405,7.1349993 13.405,7.275 C13.405,7.3016668 13.3983334,7.381666 13.385,7.515 C13.3683333,7.6816675 13.36,7.79666635 13.36,7.86 C13.36,7.95000045 13.365,8.0416662 13.375,8.135 L13.395,8.325 L13.395,8.375 C13.395,8.52500075 13.3350006,8.6 13.215,8.6 C13.0849994,8.6 13.0216667,8.52833405 13.025,8.385 L13.03,8.205 C13.0366667,7.9649988 12.9616675,7.77000075 12.805,7.62 C12.6483326,7.46999925 12.4433346,7.395 12.19,7.395 C11.8599984,7.395 11.6016676,7.5216654 11.415,7.775 C11.2283324,8.0283346 11.135,8.3783311 11.135,8.825 C11.135,9.28166895 11.2308324,9.63749872 11.4225,9.8925 C11.6141676,10.1475013 11.881665,10.275 12.225,10.275 C12.4116676,10.275 12.5791659,10.2300004 12.7275,10.14 C12.8758341,10.0499995 12.9799997,9.9316674 13.04,9.785 C13.0800002,9.68833285 13.1,9.55833415 13.1,9.395 C13.1,9.2416659 13.1633327,9.165 13.29,9.165 C13.4266674,9.165 13.495,9.2416659 13.495,9.395 C13.495,9.75166845 13.3716679,10.0433322 13.125,10.27 C12.8783321,10.4966678 12.560002,10.61 12.17,10.61 C11.7199978,10.61 11.3608347,10.4516682 11.0925,10.135 C10.8241653,9.81833175 10.69,9.3966693 10.69,8.87 C10.69,8.32666395 10.8274986,7.888335 11.1025,7.555 C11.3775014,7.221665 11.7399978,7.055 12.19,7.055 C12.5600019,7.055 12.8616655,7.19666525 13.095,7.48 Z" id="C" fill="#000000"></path>
            <path d="M9.60472441,14.5692641 L10.1527559,12.7380952 C10.1811025,12.6515147 10.2047243,12.5966812 10.223622,12.5735931 C10.2582679,12.5245308 10.3118107,12.5 10.384252,12.5 C10.4724414,12.5 10.5322833,12.5194803 10.5637795,12.5584416 C10.5952757,12.5974028 10.6346454,12.7049053 10.6818898,12.8809524 L11.2251969,14.8593074 C11.2629923,14.9834061 11.2944881,15.0649349 11.319685,15.1038961 C11.344882,15.1428573 11.3795273,15.1623377 11.423622,15.1623377 C11.4362205,15.1623377 11.4645667,15.1594517 11.5086614,15.1536797 C11.5181103,15.1536797 11.5291338,15.1522367 11.5417323,15.1493506 L11.5653543,15.1493506 C11.6661422,15.1493506 11.7165354,15.1984122 11.7165354,15.2965368 C11.7165354,15.4090915 11.6629927,15.465368 11.5559055,15.465368 C11.543307,15.465368 11.4708668,15.4538241 11.3385827,15.4307359 C11.2724406,15.4191919 11.20315,15.4134199 11.1307087,15.4134199 C11.0740155,15.4134199 10.9960635,15.4220778 10.8968504,15.4393939 C10.7976373,15.45671 10.7307088,15.465368 10.696063,15.465368 C10.6519683,15.465368 10.6125986,15.4494951 10.5779528,15.4177489 C10.5433069,15.3860027 10.5259843,15.3470421 10.5259843,15.3008658 C10.5259843,15.1998552 10.5779522,15.1493506 10.6818898,15.1493506 C10.7007875,15.1493506 10.7149606,15.1507936 10.7244094,15.1536797 L10.7574803,15.1536797 C10.7700788,15.1565657 10.7779527,15.1580087 10.7811024,15.1580087 C10.8535437,15.1580087 10.8897638,15.1118331 10.8897638,15.0194805 C10.8897638,14.9704182 10.8803151,14.9098128 10.8614173,14.8376623 L10.776378,14.517316 C10.7637795,14.4711397 10.7511812,14.4430015 10.7385827,14.4329004 C10.7259842,14.4227994 10.6992128,14.4177489 10.6582677,14.4177489 L10.0866142,14.4177489 C10.0204721,14.4177489 9.97322849,14.4682535 9.94488189,14.5692641 L9.85984252,14.8766234 C9.83779517,14.9574319 9.82677165,15.0223663 9.82677165,15.0714286 C9.82677165,15.1262629 9.85511783,15.1536797 9.91181102,15.1536797 C9.93385838,15.1536797 9.94960625,15.1529582 9.95905512,15.1515152 C9.96850398,15.1500721 9.9795275,15.1479077 9.99212598,15.1450216 L10.0204724,15.1450216 C10.1212603,15.1450216 10.1716535,15.1969692 10.1716535,15.3008658 C10.1716535,15.4105345 10.1196856,15.465368 10.015748,15.465368 C9.97480294,15.465368 9.91023666,15.45671 9.82204724,15.4393939 C9.73385783,15.4220778 9.66456718,15.4134199 9.61417323,15.4134199 C9.54488154,15.4134199 9.4629926,15.4220778 9.36850394,15.4393939 C9.27401528,15.45671 9.2078742,15.465368 9.17007874,15.465368 C9.05669235,15.465368 9,15.4119774 9,15.3051948 C9,15.2012982 9.04881841,15.1493506 9.14645669,15.1493506 C9.16535443,15.1493506 9.19055102,15.1522366 9.22204724,15.1580087 C9.25354346,15.1637807 9.27716528,15.1666667 9.29291339,15.1666667 C9.34330734,15.1666667 9.39133835,15.1233771 9.43700787,15.0367965 C9.48267739,14.950216 9.53858235,14.7943734 9.60472441,14.5692641 L9.60472441,14.5692641 Z M10.6582677,14.0281385 L10.3984252,12.9588745 L10.096063,14.0281385 C10.0897637,14.0512267 10.0866142,14.0670995 10.0866142,14.0757576 C10.0866142,14.1132758 10.1165351,14.1320346 10.176378,14.1320346 L10.5874016,14.1320346 C10.6409451,14.1320346 10.6677165,14.1147188 10.6677165,14.0800866 C10.6677165,14.0714285 10.664567,14.0541127 10.6582677,14.0281385 L10.6582677,14.0281385 Z M11.688189,14.1926407 C11.688189,14.0887441 11.7433065,14.0382395 11.8535433,14.0411255 L11.9858268,14.0454545 C12.0740162,14.0483406 12.1401573,14.0497835 12.184252,14.0497835 C12.2157482,14.0497835 12.2629918,14.0483406 12.3259843,14.0454545 C12.3889767,14.0425685 12.4362203,14.0411255 12.4677165,14.0411255 C12.5811029,14.0411255 12.6377953,14.0916301 12.6377953,14.1926407 C12.6377953,14.2936513 12.5811029,14.3441558 12.4677165,14.3441558 C12.4582677,14.3441558 12.4393702,14.3427129 12.4110236,14.3398268 C12.382677,14.3369408 12.3590552,14.3354978 12.3401575,14.3354978 C12.2960628,14.3326118 12.2377956,14.3311688 12.1653543,14.3311688 C12.0897634,14.3311688 12.0299215,14.3326118 11.9858268,14.3354978 C11.966929,14.3354978 11.9433072,14.3369408 11.9149606,14.3398268 C11.886614,14.3427129 11.8677166,14.3441558 11.8582677,14.3441558 C11.7448813,14.3441558 11.688189,14.2936513 11.688189,14.1926407 L11.688189,14.1926407 Z M13.3700787,13.0324675 L13.303937,13.7121212 C13.4897647,13.5591623 13.6913375,13.482684 13.9086614,13.482684 C14.1669304,13.482684 14.3755898,13.5714277 14.5346457,13.7489177 C14.6937016,13.9264078 14.7732283,14.1565642 14.7732283,14.4393939 C14.7732283,14.7481978 14.6811033,15.0021635 14.4968504,15.2012987 C14.3125975,15.4004339 14.0771668,15.5 13.7905512,15.5 C13.5385814,15.5 13.3244103,15.4292936 13.1480315,15.2878788 C12.9716527,15.1464639 12.8834646,14.9733055 12.8834646,14.7683983 C12.8834646,14.6529576 12.910236,14.5584419 12.9637795,14.4848485 C13.0173231,14.411255 13.0866137,14.3744589 13.1716535,14.3744589 C13.2409452,14.3744589 13.298425,14.3975467 13.3440945,14.4437229 C13.389764,14.4898992 13.4125984,14.5476187 13.4125984,14.6168831 C13.4125984,14.7496399 13.3448826,14.8174603 13.2094488,14.8203463 C13.2944886,15.0743158 13.4834631,15.2012987 13.776378,15.2012987 C13.9685049,15.2012987 14.1251962,15.1305923 14.2464567,14.9891775 C14.3677171,14.8477626 14.4283465,14.6659463 14.4283465,14.4437229 C14.4283465,14.2474738 14.3748037,14.0887452 14.2677165,13.9675325 C14.1606294,13.8463197 14.0188985,13.7857143 13.8425197,13.7857143 C13.6283454,13.7857143 13.4598431,13.8751795 13.3370079,14.0541126 C13.2992124,14.1089469 13.2708662,14.1421356 13.2519685,14.1536797 C13.2330708,14.1652237 13.1984254,14.1709957 13.1480315,14.1709957 C13.0377947,14.1709957 12.9826772,14.1161622 12.9826772,14.0064935 C12.9826772,13.9516592 12.9889763,13.8795098 13.0015748,13.7900433 C13.0141733,13.6803746 13.0220472,13.6067823 13.0251969,13.5692641 C13.0314961,13.5028857 13.03937,13.4033196 13.0488189,13.2705628 C13.064567,13.0685416 13.0724409,12.8997121 13.0724409,12.7640693 L13.0724409,12.6601732 C13.0724409,12.6111109 13.0771653,12.5772007 13.0866142,12.5584416 C13.096063,12.5396824 13.1228344,12.530303 13.1669291,12.530303 C13.1921261,12.530303 13.2110236,12.531746 13.223622,12.534632 C13.4692926,12.5519481 13.6393696,12.5606061 13.7338583,12.5606061 L13.7716535,12.5562771 L14.1448819,12.5519481 C14.1795277,12.5519481 14.2322831,12.5490621 14.3031496,12.54329 C14.3740161,12.537518 14.4283463,12.534632 14.4661417,12.534632 C14.5070868,12.534632 14.5338582,12.5411255 14.5464567,12.5541126 C14.5590552,12.5670996 14.5653543,12.5952379 14.5653543,12.6385281 C14.5653543,12.6760464 14.5637795,12.7049061 14.5606299,12.7251082 L14.5606299,12.8160173 C14.5606299,12.8621936 14.5685039,12.928571 14.584252,13.0151515 C14.6000001,13.101732 14.607874,13.1666665 14.607874,13.2099567 C14.607874,13.2936512 14.5622052,13.3354978 14.4708661,13.3354978 C14.3795271,13.3354978 14.3307087,13.2907652 14.3244094,13.2012987 L14.3149606,13.0627706 C14.3086614,12.9848481 14.28189,12.9314576 14.2346457,12.9025974 C14.1874013,12.8737372 14.1039376,12.8593074 13.984252,12.8593074 L13.5307087,12.8593074 C13.4677162,12.8593074 13.4267717,12.8686868 13.407874,12.8874459 C13.3889763,12.906205 13.376378,12.9545451 13.3700787,13.0324675 L13.3700787,13.0324675 Z" id="A-5" fill="#000000"></path>
            <path d="M19,11.5 L4,11.5" id="Path-8100" stroke="#000000"></path>
        </g>
    </g>
</svg>