<svg xmlns="http://www.w3.org/2000/svg" width="24" height="24" viewBox="0 0 24 24">
  <g fill="none" fill-rule="evenodd">
    <g transform="translate(6 4)">
      <polygon fill="#A5AAB1" points="1.734 6.761 5.802 5.748 5.802 9.504 1.974 11"/>
      <polygon fill="#A5AAB1" points="5.789 9.511 5.789 5.087 6.142 4.798 9.047 8.506 8.022 8.911 7.981 10.391"/>
      <polygon fill="#767A7E" points="7.97 10.386 7.877 14.028 2.016 10.977 5.808 9.5"/>
      <polygon fill="#767A7E" points="1.756 6.779 .919 6.379 5.836 5.106 5.836 5.755"/>
      <polygon fill="#5C6063" points=".918 5.995 4.373 2.439 6.149 4.795"/>
      <polyline fill="#EEEEEE" points="7.975 10.354 8.016 8.877 9.238 9.295 11.906 8.141 11.612 11.782 7.875 14 7.975 10.354"/>
      <polyline fill="#2F201C" points="11.903 8.2 9.234 9.359 9.258 8.825 13.641 7.016 13.595 7.465 11.903 8.2"/>
      <polygon fill="#767A7E" points="9.257 9.359 8.014 8.889 9.036 8.503 9.281 8.814"/>
      <polygon fill="#969481" points="6.038 4.664 4.359 2.444 7.935 2 7.881 4.116 8.877 5.37 10.767 4.866 10.835 3.795 13.629 7.042 9.282 8.82 6.117 4.768"/>
      <polygon fill="#EEEEEE" points="10.807 4.681 8.95 5.263 8.985 .963 10.807 .997"/>
      <polygon fill="#EDEDED" points="8.914 5.246 7.888 4.076 7.888 .972 8.991 .972"/>
      <polygon fill="#D8D8D8" points=".917 6 6.137 4.795 5.811 5.146 .917 6.382"/>
      <polyline stroke="#000000" stroke-width=".25" points=".859 5.972 6 4.793 5.928 5.195 .859 6.392 1.637 6.817 5.928 5.709"/>
      <path fill="#000000" fill-rule="nonzero" d="M7.87640381,14.00177 L11.6268921,11.7577515 L11.7867432,8.23364258 L13.6021729,7.46130371 L13.6021729,7.04214478 L10.781779,3.7432251 L10.781779,1 L7.95141602,1 L7.95141602,2.03070068 L4.35949707,2.45281982 L0.916687012,5.99578857 L0.916687012,6.36654663 L1.75250244,6.77703857 L1.98883057,10.9664917 L7.87640381,14.00177 Z M1.26975642,7.0969959 L0.416687012,6.67803006 L0.416687012,5.79286851 L4.1247103,1.97697091 L7.45141602,1.5860194 L7.45141602,0.5 L11.281779,0.5 L11.281779,3.55862351 L14.1021729,6.85754319 L14.1021729,7.79195558 L12.2719741,8.57057765 L12.1142024,12.0488458 L7.89447647,14.5736219 L1.50571867,11.279963 L1.26975642,7.0969959 Z"/>
      <polygon fill="#000000" fill-rule="nonzero" points="9.199 9.596 12.188 8.33 12.088 8.1 9.192 9.365 8.13 8.938 7.962 9.052 7.858 14.145 8.108 14.15 8.208 9.233"/>
      <path fill="#000000" fill-rule="nonzero" d="M6.22642555,5.11424043 L6.07208252,5.25587547 L6.07208252,9.38720169 L7.92865422,10.0879232 L7.96005289,8.84609668 L8.8369394,8.5021073 L6.22642555,5.11424043 Z M5.82208252,9.56005859 L5.82208252,5.14598083 L6.25814819,4.74581909 L9.2381897,8.61325073 L8.20578003,9.01824951 L8.16967773,10.446106 L5.82208252,9.56005859 Z"/>
      <polygon fill="#000000" fill-rule="nonzero" points="1.854 11.177 6.022 9.557 5.931 9.324 1.764 10.944"/>
      <path fill="#000000" fill-rule="nonzero" d="M11.0262146,4.02907065 L11.0262146,4.75067139 L10.9359597,4.87074543 L8.91136256,5.45659138 L8.78056444,5.41650998 L7.70114136,4.07513428 L7.70114136,2.05472131 L4.52035963,2.48069485 L9.28695719,8.60982288 L13.4869677,6.90781679 L11.0262146,4.02907065 Z M10.7762146,4.65671387 L10.7762146,3.35184976 L13.7897496,6.87727556 L13.7416792,7.07434523 L9.29325391,8.87701857 L9.14763443,8.83790697 L4.18944351,2.46241869 L4.27152445,2.26178722 L7.80954936,1.78797131 L7.95114136,1.91186523 L7.92219435,3.99514163 L8.92037342,5.19372788 L10.7762146,4.65671387 Z"/>
      <polygon fill="#000000" fill-rule="nonzero" points="8.875 1 8.875 5.366 9.125 5.366 9.125 1"/>
      <polygon fill="#000000" fill-rule="nonzero" points="9.084 8.717 9.084 9.471 9.334 9.471 9.334 8.717"/>
    </g>
    <polygon fill="#009AD9" points="10.278 6.509 15.102 12.775 15.058 13.268 13.978 12.891 13.85 17.979 7.942 14.974 7.745 10.812 6.899 10.43 6.899 9.986"/>
    <polygon stroke="#000000" stroke-width=".5" points="7.525 10.932 6.701 10.51 6.701 9.894 10.113 6.358 15.212 12.896 15.212 13.308 15.154 13.333 14.186 13.15 14.018 18.193 13.881 18.264 7.846 15.086"/>
  </g>
</svg>
