<?xml version="1.0" encoding="UTF-8" standalone="no"?>
<svg width="24px" height="24px" viewBox="0 0 24 24" version="1.1" xmlns="http://www.w3.org/2000/svg" xmlns:xlink="http://www.w3.org/1999/xlink" xmlns:sketch="http://www.bohemiancoding.com/sketch/ns">
    <!-- Generator: Sketch 3.3.1 (12002) - http://www.bohemiancoding.com/sketch -->
    <title>tb_split</title>
    <desc>Created with Sketch.</desc>
    <defs></defs>
    <g id="Page-1" stroke="none" stroke-width="1" fill="none" fill-rule="evenodd" sketch:type="MSPage">
        <g id="tb_split" sketch:type="MSArtboardGroup">
            <g id="Group" sketch:type="MSLayerGroup" transform="translate(3.000000, 5.000000)">
                <path d="M9.62802826,2.97863996 L5.8347696,3.74098727 L6.20052317,6.41700267 L5.8880359,6.484375 L5.109375,3.41171192 L9.703125,2.5 L9.68566064,3.13067987 L9.62802826,2.97863996" id="Fill-3797" fill="#094F84" sketch:type="MSShapeGroup"></path>
                <path d="M10.0537513,2.63551503 L13.7940448,1.890625 L17.390625,8.95599174 L7.50699051,11.359375 L6.609375,7.96456234 L6.80165875,7.92148557 L10.8168931,7.02239573 L11.7145086,6.82151272 L10.0537513,2.63551503" id="Fill-3798" fill="#7C7A6B" sketch:type="MSShapeGroup"></path>
                <path d="M6.609375,10.5381418 L2.73565287,11.453125 L1.640625,8.75732584 L6.20013228,7.75 L6.609375,10.5381418" id="Fill-3799" fill="#094F84" sketch:type="MSShapeGroup"></path>
                <path d="M7.640625,11.415135 L17.53125,9.015625 L16.2681518,11.6929575 L7.86340709,13.84375 L7.640625,11.415135" id="Fill-3800" fill="#56554A" sketch:type="MSShapeGroup"></path>
                <path d="M9.6410039,3.02611873 L10.0306759,4.0437888 L10.921875,6.37119194 L6.7644107,7.28125 L5.765625,3.63272839 L9.58300503,2.875 L9.6410039,3.02611873" id="Fill-3801" fill="#C6C6C6" sketch:type="MSShapeGroup"></path>
                <path d="M8.79373146,0.25 L9.65625,2.46992097 L5.04968798,3.37634552 L5.83052057,6.43118904 L6.16176772,7.7273157 L1.6057434,8.734375 L0.609375,1.75522567 L8.79373146,0.25" id="Fill-3802" fill="#0D72BE" sketch:type="MSShapeGroup"></path>
                <path d="M6.76737751,8.96875 L6.19916617,6.84737616 L6.13883191,6.41834769 L5.765625,3.765625 L6.77832423,7.40443585 L6.84375,7.97307475 L6.64772727,8.01590539 L6.76737751,8.96875" id="Fill-3803" fill="#ECECEC" sketch:type="MSShapeGroup"></path>
                <path d="M10.0522816,2.640625 L11.71875,6.80037653 L10.8180477,7 L10.8738013,6.41800337 L9.984375,4.09809289 L10.0522816,2.640625" id="Fill-3804" fill="#94927F" sketch:type="MSShapeGroup"></path>
                <path d="M7.734375,13.796875 L6.95056147,10.7512008 L6.7272417,8.94025363 L6.609375,7.984375 L7.51080445,11.3705378 L7.734375,13.796875" id="Fill-3805" fill="#94927F" sketch:type="MSShapeGroup"></path>
                <path d="M6.81402301,7.890625 L6.75,7.3128475 L10.875,6.390625 L10.8195715,6.98230579 L6.81402301,7.890625" id="Fill-3806" fill="#898989" sketch:type="MSShapeGroup"></path>
                <path d="M5.765625,3.765625 L6.7644107,7.421875 L10.921875,6.50997059" id="Stroke-3807" stroke="#000000" stroke-width="0.5" stroke-linecap="round" stroke-linejoin="round" sketch:type="MSShapeGroup"></path>
                <path id="Stroke-3808" stroke="#000000" stroke-width="0.5" stroke-linecap="round" stroke-linejoin="round" sketch:type="MSShapeGroup" d="M6.75,7.375 L6.82228125,7.9375"></path>
                <path d="M6.609375,7.984375 L7.5,11.359375" id="Stroke-3809" stroke="#000000" stroke-width="0.5" stroke-linecap="round" stroke-linejoin="round" sketch:type="MSShapeGroup"></path>
                <path id="Stroke-3810" stroke="#000000" stroke-width="0.5" stroke-linecap="round" stroke-linejoin="round" sketch:type="MSShapeGroup" d="M7.875,13.796875 L7.640625,11.359375"></path>
                <path d="M10.125,2.640625 L11.765625,6.8125" id="Stroke-3811" stroke="#000000" stroke-width="0.5" stroke-linecap="round" stroke-linejoin="round" sketch:type="MSShapeGroup"></path>
                <path d="M7.640625,11.40625 L17.53125,9.015625" id="Stroke-3812" stroke="#000000" stroke-width="0.5" stroke-linecap="round" stroke-linejoin="round" sketch:type="MSShapeGroup"></path>
                <path d="M1.640625,8.78125 L6.1875,7.75" id="Stroke-3813" stroke="#000000" stroke-width="0.5" stroke-linecap="round" stroke-linejoin="round" sketch:type="MSShapeGroup"></path>
                <path d="M5.109375,3.390625 L9.703125,2.5" id="Stroke-3814" stroke="#000000" stroke-width="0.5" stroke-linecap="round" stroke-linejoin="round" sketch:type="MSShapeGroup"></path>
                <path d="M9.5625,2.875 L5.765625,3.625" id="Stroke-3815" stroke="#000000" stroke-width="0.5" stroke-linecap="round" stroke-linejoin="round" sketch:type="MSShapeGroup"></path>
                <path d="M6.234375,6.765625 L6.796875,8.875" id="Stroke-3816" stroke="#000000" stroke-width="0.5" stroke-linecap="round" stroke-linejoin="round" sketch:type="MSShapeGroup"></path>
                <path id="Stroke-3817" stroke="#000000" stroke-width="0.5" stroke-linecap="round" stroke-linejoin="round" sketch:type="MSShapeGroup" d="M10.9375781,6.390625 L10.875,6.953125"></path>
                <path d="M7.734375,13.796875 L16.125,11.640625" id="Stroke-3818" stroke="#000000" stroke-width="0.5" stroke-linecap="round" stroke-linejoin="round" sketch:type="MSShapeGroup"></path>
                <path d="M6.984375,10.75 L7.78125,13.796875" id="Stroke-3819" stroke="#000000" stroke-width="0.5" stroke-linecap="round" stroke-linejoin="round" sketch:type="MSShapeGroup"></path>
                <path d="M17.484375,8.921875 L13.8767646,1.890625 L10.125,2.63185847" id="Stroke-3820" stroke="#000000" stroke-width="0.5" stroke-linecap="round" stroke-linejoin="round" sketch:type="MSShapeGroup"></path>
                <path d="M16.265625,11.6875 L17.53125,9.015625" id="Stroke-3821" stroke="#000000" stroke-width="0.5" stroke-linecap="round" stroke-linejoin="round" sketch:type="MSShapeGroup"></path>
                <path id="Stroke-3822" stroke="#000000" stroke-width="0.5" stroke-linecap="round" stroke-linejoin="round" sketch:type="MSShapeGroup" d="M9.984375,4.09375 L10.0605937,2.640625"></path>
                <path d="M9.65625,2.46986834 L8.79373146,0.25 L0.609375,1.75521983 L1.6057434,8.734375" id="Stroke-3823" stroke="#000000" stroke-width="0.5" stroke-linecap="round" stroke-linejoin="round" sketch:type="MSShapeGroup"></path>
                <path d="M2.71875,11.453125 L1.640625,8.734375" id="Stroke-3824" stroke="#000000" stroke-width="0.5" stroke-linecap="round" stroke-linejoin="round" sketch:type="MSShapeGroup"></path>
                <path id="Stroke-3825" stroke="#000000" stroke-width="0.5" stroke-linecap="round" stroke-linejoin="round" sketch:type="MSShapeGroup" d="M6.65625,10.5625 L6.234375,7.75"></path>
                <path d="M2.765625,11.453125 L6.65625,10.515625" id="Stroke-3826" stroke="#000000" stroke-width="0.5" stroke-linecap="round" stroke-linejoin="round" sketch:type="MSShapeGroup"></path>
                <path id="Stroke-3827" stroke="#000000" stroke-width="0.5" stroke-linecap="round" stroke-linejoin="round" sketch:type="MSShapeGroup" d="M9.6290625,2.5 L9.609375,3.109375"></path>
                <path id="Stroke-3828" stroke="#000000" stroke-width="0.5" stroke-linecap="round" stroke-linejoin="round" sketch:type="MSShapeGroup" d="M6.1875,6.390625 L5.859375,6.46614062"></path>
                <path d="M10.875,6.484375 L9.984375,4.140625" id="Stroke-3829" stroke="#000000" stroke-width="0.5" stroke-linecap="round" stroke-linejoin="round" sketch:type="MSShapeGroup"></path>
                <path id="Stroke-3830" stroke="#000000" stroke-width="0.5" stroke-linecap="round" stroke-linejoin="round" sketch:type="MSShapeGroup" d="M5.765625,3.765625 L6.12878927,6.4286424 L6.1875,6.859375"></path>
                <path id="Stroke-3831" stroke="#000000" stroke-width="0.5" stroke-linecap="round" stroke-linejoin="round" sketch:type="MSShapeGroup" d="M6.609375,7.984375 L6.72272947,8.93983402 L6.9375,10.75"></path>
                <path id="Stroke-3832" stroke="#000000" stroke-width="0.5" stroke-linecap="round" stroke-linejoin="round" sketch:type="MSShapeGroup" d="M6.796875,7.890625 L6.609375,7.939"></path>
                <path d="M6.234375,7.75 L5.89927939,6.45143348 L5.109375,3.390625" id="Stroke-3833" stroke="#000000" stroke-width="0.5" stroke-linecap="round" stroke-linejoin="round" sketch:type="MSShapeGroup"></path>
                <path id="Stroke-3834" stroke="#000000" stroke-width="0.5" stroke-linecap="round" stroke-linejoin="round" sketch:type="MSShapeGroup" d="M10.078125,4.046875 L9.67010481,3.0265852 L9.609375,2.875"></path>
                <path d="M11.8125,6.859375 L10.9132355,7.05636847 L6.890625,7.9375" id="Stroke-3835" stroke="#000000" stroke-width="0.5" stroke-linecap="round" stroke-linejoin="round" sketch:type="MSShapeGroup"></path>
                <path d="M0.75,1.75888372 L1.75131908,8.640625 L6.21132,7.73511727 L5.10013206,3.37960744 L9.703125,2.47223716 L8.84129813,0.25 L0.75,1.75888372 L0.75,1.75888372 Z" id="Fill-6294" fill="#1293F5" sketch:type="MSShapeGroup"></path>
                <path d="M0.75,1.75891996 L1.75131908,8.640625 L6.21132,7.73509802 L5.10013206,3.37959325 L9.703125,2.47219121 L8.84129813,0.25 L0.75,1.75891996 L0.75,1.75891996 Z" id="Stroke-6295" stroke="#000000" stroke-width="0.5" stroke-linecap="round" stroke-linejoin="round" sketch:type="MSShapeGroup"></path>
                <path d="M5.04962658,3.38292568 L6.16181604,7.74306826 L6.57074049,10.5363726 L2.70003098,11.453125 L1.69817232,8.64955946 L0.609375,1.75839935 L8.79374339,0.25 L9.65625,2.47455743" id="Stroke-6297" stroke="#000000" stroke-width="0.5" stroke-linecap="round" stroke-linejoin="round" sketch:type="MSShapeGroup"></path>
            </g>
        </g>
    </g>
</svg>