<?xml version="1.0" standalone="no"?>
<!DOCTYPE svg PUBLIC "-//W3C//DTD SVG 1.1//EN" "http://www.w3.org/Graphics/SVG/1.1/DTD/svg11.dtd">
<!--Generator: Xara Designer (www.xara.com), SVG filter version: 6.5.0.21-->
<svg fill="none" fill-rule="evenodd" stroke="black" stroke-width="0.501" stroke-linejoin="bevel" stroke-miterlimit="10" font-family="Times New Roman" font-size="16" style="font-variant-ligatures:none" xmlns:xlink="http://www.w3.org/1999/xlink" xmlns="http://www.w3.org/2000/svg" version="1.1" overflow="visible" width="72pt" height="72pt" viewBox="0 -72 72 72">
 <defs>
  <linearGradient id="LinearGradient" gradientUnits="userSpaceOnUse" x1="0" y1="0" x2="-24.003" y2="0" gradientTransform="translate(44.038 26.334)">
   <stop offset="0" stop-color="#ffffff"/>
   <stop offset="1" stop-color="#b2b2b2"/>
  </linearGradient>
  <linearGradient id="LinearGradient_1" gradientUnits="userSpaceOnUse" x1="0" y1="0" x2="26.134" y2="0.367" gradientTransform="translate(18.497 28.058)">
   <stop offset="0" stop-color="#ffffff"/>
   <stop offset="1" stop-color="#b2b2b2"/>
  </linearGradient>
  <linearGradient id="LinearGradient_2" gradientUnits="userSpaceOnUse" x1="0" y1="0" x2="2.044" y2="0" gradientTransform="matrix(0.0655518 -0.997849 1.00195 0.00299072 -0.472 1.057)">
   <stop offset="0" stop-color="#ffffff"/>
   <stop offset="1" stop-color="#ffffff"/>
  </linearGradient>
  <linearGradient id="LinearGradient_3" gradientUnits="userSpaceOnUse" x1="0" y1="0" x2="-24.002" y2="0" gradientTransform="translate(54.629 15.743)">
   <stop offset="0" stop-color="#ffffff"/>
   <stop offset="1" stop-color="#b2b2b2"/>
  </linearGradient>
  <linearGradient id="LinearGradient_4" gradientUnits="userSpaceOnUse" x1="0" y1="0" x2="26.134" y2="0.367" gradientTransform="translate(29.089 17.467)">
   <stop offset="0" stop-color="#ffffff"/>
   <stop offset="1" stop-color="#b2b2b2"/>
  </linearGradient>
  <linearGradient id="LinearGradient_5" gradientUnits="userSpaceOnUse" x1="0" y1="0" x2="2.044" y2="0" gradientTransform="matrix(0.0655518 -0.997849 1.00195 0.00299072 -0.472 1.057)">
   <stop offset="0" stop-color="#ffffff"/>
   <stop offset="1" stop-color="#ffffff"/>
  </linearGradient>
 </defs>
 <g id="Layer 1" transform="scale(1 -1)">
  <g id="Group" stroke-linejoin="miter" stroke="none">
   <g id="Group_1">
    <path d="M 16.001,21.903 L 10.875,27.029 L 10.878,61.125 L 50.098,61.124 L 50.097,21.902 L 16.001,21.903 Z" fill="#000000" stroke-width="0.201" marker-start="none" marker-end="none"/>
    <path d="M 16.358,23.039 L 11.954,27.444 L 11.956,59.799 L 48.716,59.797 L 48.714,23.037 L 16.358,23.039 Z" fill="#5284f7" stroke-width="0.188" marker-start="none" marker-end="none"/>
    <rect x="-10.154" y="-15.077" width="20.309" height="30.155" transform="translate(28.894 47.694) rotate(89.996)" fill="#000000" stroke-width="0.188"/>
    <rect x="-8.923" y="-13.847" width="17.847" height="27.694" transform="translate(28.894 47.694) rotate(89.9955)" fill="#ffffff" stroke-width="0.188"/>
    <g id="Group_2" stroke-width="0.188">
     <path d="M 18.496,23.038 L 18.497,31.893 C 18.497,33.991 20.199,35.693 22.298,35.693 L 41.777,35.693 C 43.875,35.692 45.576,33.989 45.576,31.891 L 45.576,23.036 L 18.496,23.038 Z" fill="#191919" marker-start="none" marker-end="none"/>
     <path d="M 20.036,23.037 L 20.036,31.377 C 20.036,32.908 21.28,34.153 22.813,34.154 L 41.261,34.152 C 42.793,34.152 44.038,32.908 44.038,31.376 L 44.038,23.036 L 20.036,23.037 Z" marker-start="none" marker-end="none" fill="url(#LinearGradient)"/>
     <path d="M 40.722,34.511 L 40.723,34.565 C 40.723,34.571 40.728,34.575 40.733,34.575 L 41.865,34.575 C 41.871,34.577 41.876,34.571 41.876,34.565 L 41.876,34.51 C 41.876,34.504 41.87,34.499 41.864,34.499 L 40.733,34.499 C 40.727,34.499 40.723,34.505 40.722,34.511 Z" marker-start="none" marker-end="none" fill="url(#LinearGradient_1)"/>
    </g>
    <rect x="-2.277" y="-1.056" width="4.555" height="2.112" transform="translate(47.658 55.319) rotate(90)" stroke-width="0.188" fill="url(#LinearGradient_2)"/>
   </g>
   <g id="Group_3">
    <path d="M 26.157,10.877 L 21.119,15.915 L 21.034,50.814 L 61.125,50.813 L 61.125,10.875 L 26.157,10.877 Z" fill="#000000" stroke-width="0.201" marker-start="none" marker-end="none"/>
    <path d="M 26.95,12.448 L 22.546,16.853 L 22.547,49.208 L 59.307,49.206 L 59.306,12.446 L 26.95,12.448 Z" stroke-width="0.188" fill="#5284f7" marker-start="none" marker-end="none"/>
    <rect x="-10.154" y="-15.077" width="20.309" height="30.155" transform="translate(39.486 37.103) rotate(89.996)" stroke-width="0.188" fill="#000000"/>
    <rect x="-8.923" y="-13.847" width="17.847" height="27.694" transform="translate(39.486 37.103) rotate(89.9955)" stroke-width="0.188" fill="#ffffff"/>
    <g id="Group_4" stroke-width="0.188">
     <path d="M 29.088,12.447 L 29.089,21.302 C 29.089,23.4 30.79,25.102 32.89,25.102 L 52.369,25.102 C 54.466,25.101 56.168,23.398 56.168,21.3 L 56.167,12.445 L 29.088,12.447 Z" fill="#191919" marker-start="none" marker-end="none"/>
     <path d="M 30.627,12.446 L 30.627,20.786 C 30.627,22.317 31.871,23.562 33.405,23.563 L 51.853,23.561 C 53.385,23.561 54.63,22.317 54.63,20.785 L 54.63,12.445 L 30.627,12.446 Z" marker-start="none" marker-end="none" fill="url(#LinearGradient_3)"/>
     <path d="M 51.314,23.92 L 51.314,23.974 C 51.314,23.98 51.32,23.984 51.325,23.984 L 52.457,23.984 C 52.463,23.986 52.468,23.98 52.468,23.974 L 52.468,23.919 C 52.468,23.913 52.462,23.908 52.456,23.908 L 51.325,23.908 C 51.319,23.908 51.314,23.914 51.314,23.92 Z" marker-start="none" marker-end="none" fill="url(#LinearGradient_4)"/>
    </g>
    <rect x="-2.277" y="-1.056" width="4.555" height="2.112" transform="translate(58.25 44.728) rotate(90)" stroke-width="0.188" fill="url(#LinearGradient_5)"/>
   </g>
  </g>
 </g>
</svg>
