<?xml version="1.0" encoding="UTF-8" standalone="no"?>
<svg width="24px" height="24px" viewBox="0 0 24 24" version="1.1" xmlns="http://www.w3.org/2000/svg" xmlns:xlink="http://www.w3.org/1999/xlink" xmlns:sketch="http://www.bohemiancoding.com/sketch/ns">
    <!-- Generator: Sketch 3.3.1 (12002) - http://www.bohemiancoding.com/sketch -->
    <title>tb_shadowtoggle</title>
    <desc>Created with Sketch.</desc>
    <defs></defs>
    <g id="Page-1" stroke="none" stroke-width="1" fill="none" fill-rule="evenodd" sketch:type="MSPage">
        <g id="tb_shadowtoggle" sketch:type="MSArtboardGroup">
            <g id="Group" sketch:type="MSLayerGroup" transform="translate(4.000000, 3.000000)">
                <path d="M17.75,13.4596661 L9.90660691,17.8125 L5.890625,17.3228328 L13.8356082,12.9137009 L14.8631766,9.890625 L16.5396446,11.963266 L17.75,13.4596661 L17.75,13.4596661 Z" id="Fill-2336" fill="#252525" sketch:type="MSShapeGroup"></path>
                <path d="M0.125,4.5 L1.81983687,9.99374871 L5.84375,17.25 L5.15468548,13.1443395 L0.125,4.5 L0.125,4.5 Z" id="Fill-2337" fill="#646464" sketch:type="MSShapeGroup"></path>
                <path d="M5.82979927,17.296875 L5.140625,13.1986087 L15.453125,7.875 L13.75149,12.8916169 L5.82979927,17.296875 L5.82979927,17.296875 Z" id="Fill-2338" fill="#242424" sketch:type="MSShapeGroup"></path>
                <path d="M0.125,4.52799549 L5.16598279,13.171875 L15.5,7.83894493 L9.44341834,0.609375 L0.125,4.52799549 L0.125,4.52799549 Z" id="Fill-2339" fill="#FBFBFB" sketch:type="MSShapeGroup"></path>
                <path d="M5.140625,13.21875 L15.453125,7.875" id="Stroke-2340" stroke="#000000" stroke-width="0.5" stroke-linecap="round" stroke-linejoin="round" sketch:type="MSShapeGroup"></path>
                <path d="M5.84375,17.203125 L5.140625,13.125" id="Stroke-2341" stroke="#000000" stroke-width="0.5" stroke-linecap="round" stroke-linejoin="round" sketch:type="MSShapeGroup"></path>
                <path d="M0.125,4.5 L5.140625,13.125" id="Stroke-2342" stroke="#000000" stroke-width="0.5" stroke-linecap="round" stroke-linejoin="round" sketch:type="MSShapeGroup"></path>
                <path d="M5.890625,17.296875 L13.8394138,12.8915584 L15.546875,7.875" id="Stroke-2343" stroke="#000000" stroke-width="0.5" stroke-linecap="round" stroke-linejoin="round" sketch:type="MSShapeGroup"></path>
                <path d="M15.5,7.828125 L9.44342099,0.609375 L0.125,4.52213079" id="Stroke-2344" stroke="#000000" stroke-width="0.5" stroke-linecap="round" stroke-linejoin="round" sketch:type="MSShapeGroup"></path>
                <path d="M1.8125,9.984375 L0.125,4.5" id="Stroke-2345" stroke="#000000" stroke-width="0.5" stroke-linecap="round" stroke-linejoin="round" sketch:type="MSShapeGroup"></path>
                <path d="M1.859375,9.984375 L5.890625,17.25" id="Stroke-2346" stroke="#000000" stroke-width="0.5" stroke-linecap="round" stroke-linejoin="round" sketch:type="MSShapeGroup"></path>
            </g>
        </g>
    </g>
</svg>