<?xml version="1.0" encoding="UTF-8" standalone="no"?>
<svg width="513px" height="512px" viewBox="0 0 513 512" version="1.1" xmlns="http://www.w3.org/2000/svg" xmlns:xlink="http://www.w3.org/1999/xlink" xmlns:sketch="http://www.bohemiancoding.com/sketch/ns">
    <!-- Generator: Sketch 3.3 (11970) - http://www.bohemiancoding.com/sketch -->
    <title>tb_shaded</title>
    <desc>Created with Sketch.</desc>
    <defs></defs>
    <g id="Page-1" stroke="none" stroke-width="1" fill="none" fill-rule="evenodd" sketch:type="MSPage">
        <g id="tb_shaded" sketch:type="MSArtboardGroup" transform="translate(1.000000, 0.000000)">
            <path d="M286.795544,77 L416,231.230825 L195.540695,345 L88,160.597237 L286.795544,77" id="Fill-2019" fill="#ACAA94" sketch:type="MSShapeGroup"></path>
            <path d="M88,160 L195.29919,344.414386 L210,432 L124.157506,277.201124 L88,160" id="Fill-2020" fill="#616054" sketch:type="MSShapeGroup"></path>
            <path d="M195,345.571827 L415,232 L378.700008,339.019914 L209.703201,433 L195,345.571827" id="Fill-2021" fill="#7A7969" sketch:type="MSShapeGroup"></path>
            <path d="M195,346 L415,232" id="Stroke-2022" stroke="#000000" stroke-width="2.66666667" stroke-linecap="round" stroke-linejoin="round" sketch:type="MSShapeGroup"></path>
            <path d="M210,431 L195,344" id="Stroke-2023" stroke="#000000" stroke-width="2.66666667" stroke-linecap="round" stroke-linejoin="round" sketch:type="MSShapeGroup"></path>
            <path d="M88,160 L195,344" id="Stroke-2024" stroke="#000000" stroke-width="2.66666667" stroke-linecap="round" stroke-linejoin="round" sketch:type="MSShapeGroup"></path>
            <path d="M211,433 L380.57567,339.019914 L417,232" id="Stroke-2025" stroke="#000000" stroke-width="10.6666667" stroke-linecap="round" stroke-linejoin="round" sketch:type="MSShapeGroup"></path>
            <path d="M416,231 L286.795544,77 L88,160.472124" id="Stroke-2026" stroke="#000000" stroke-width="10.6666667" stroke-linecap="round" stroke-linejoin="round" sketch:type="MSShapeGroup"></path>
            <path d="M124,277 L88,160" id="Stroke-2027" stroke="#000000" stroke-width="10.6666667" stroke-linecap="round" stroke-linejoin="round" sketch:type="MSShapeGroup"></path>
            <path d="M125,277 L211,432" id="Stroke-2028" stroke="#000000" stroke-width="10.6666667" stroke-linecap="round" stroke-linejoin="round" sketch:type="MSShapeGroup"></path>
        </g>
    </g>
</svg>