<?xml version="1.0" encoding="UTF-8" standalone="no"?>
<svg width="24px" height="24px" viewBox="0 0 24 24" version="1.1" xmlns="http://www.w3.org/2000/svg" xmlns:xlink="http://www.w3.org/1999/xlink" xmlns:sketch="http://www.bohemiancoding.com/sketch/ns">
    <!-- Generator: Sketch 3.3.1 (12002) - http://www.bohemiancoding.com/sketch -->
    <title>tb_sendtolayout</title>
    <desc>Created with Sketch.</desc>
    <defs></defs>
    <g id="Page-1" stroke="none" stroke-width="1" fill="none" fill-rule="evenodd" sketch:type="MSPage">
        <g id="tb_sendtolayout" sketch:type="MSArtboardGroup">
            <g id="Group" sketch:type="MSLayerGroup" transform="translate(3.000000, 3.000000)">
                <path d="M0.375,3.80847093 L12.5101872,0.75 L17.578125,12.0251279 L3.22646473,16.453125 L0.375,3.80847093 L0.375,3.80847093 Z" id="Fill-28273" fill="#FB0011" sketch:type="MSShapeGroup"></path>
                <path d="M0.375,3.80847093 L12.5101872,0.75 L17.578125,12.0251279 L3.22646473,16.453125 L0.375,3.80847093 L0.375,3.80847093 Z" id="Stroke-28274" stroke="#FFFFFF" sketch:type="MSShapeGroup"></path>
                <path d="M2.859375,9.52608643 L8.26676114,8.015625 L9.984375,13.1878718 L4.17668691,14.953125 L2.859375,9.52608643 M4.63868906,11.7955366 L4.7575931,12.115091 L4.93420058,12.395437 L5.16176693,12.6308125 L5.4334227,12.8152045 L5.74179883,12.9431014 L6.07902668,13.0088663 L6.4371127,13.0069873 L6.80806334,12.9328296 L7.1594048,12.7914039 L7.45941269,12.5972411 L7.70483963,12.3593603 L7.89243823,12.0862797 L8.01958562,11.7868932 L8.08378381,11.469343 L8.08253482,11.1421474 L8.01396516,10.8129475 L7.88257119,10.5052933 L7.69946896,10.2399793 L7.47165281,10.0205126 L7.2061171,9.85040097 L6.9091068,9.73352748 L6.58699175,9.6739007 L6.24551732,9.67565443 L5.89055379,9.74329825 L5.55320104,9.87244784 L5.2603124,10.0513282 L5.01501036,10.2735506 L4.820917,10.5323509 L4.68202909,10.8210898 L4.60246829,11.1326271 L4.5864812,11.4599481 L4.63868906,11.7955366" id="Fill-28275" fill="#FFFFFF" sketch:type="MSShapeGroup"></path>
                <path d="M17.578125,12.0251279 L3.22646473,16.453125 L0.375,3.80847093 L12.5101872,0.75 L17.578125,12.0251279 M2.83462417,9.47265311 L4.15246294,14.886774 L9.96247383,13.1257226 L8.24417301,7.96578695 L2.83462417,9.47265311 M1.59800236,4.39257214 L1.98397031,5.97804328 L4.59028479,4.73660951 L4.7001151,5.11401337 L10.5762241,3.57315587 L10.0449403,2.23212246 L1.59800236,4.39257214 M1.98397031,5.97804328 L2.39042992,7.64824284 L9.58125395,5.70423802 L12.0679921,12.4875101 L14.0634301,11.8826642 L12.3432551,9.32918965 L12.8036927,9.19584862 L10.6814313,3.83871322 L4.78133205,5.39344219 L4.88553965,5.75135102 L1.98397031,5.97804328 M14.0634301,11.8826642 L16.0311295,11.2863161 L12.599026,3.33334195 L10.9929295,3.75660914 L13.139806,9.09862339 L13.5643832,8.97552974 L14.0634301,11.8826642 M11.9171785,1.75311948 L10.3489416,2.1542673 L10.8864729,3.49180159 L12.4864468,3.07228345 L11.9171785,1.75311948 M12.9576301,9.62398956 L13.4528036,10.352304 L13.3238561,9.51714178 L12.9576301,9.62398956 M4.26041901,5.2167372 L3.50635084,5.57789521 L4.34650898,5.52078476 L4.26041901,5.2167372" id="Fill-28276" fill="#FF3032" sketch:type="MSShapeGroup"></path>
                <path d="M2.02752918,6 L1.640625,4.41280234 L10.1080525,2.25 L10.640625,3.59249374 L4.75026246,5.13502919 L4.64016574,4.75721435 L2.02752918,6" id="Fill-28277" fill="#FFFFFF" sketch:type="MSShapeGroup"></path>
                <path d="M9.62189633,5.76112769 L2.42256546,7.7103198 L2.015625,6.03566355 L4.92062694,5.8083664 L4.81629606,5.44950254 L10.7233752,3.890625 L12.8481473,9.26205515 L12.387165,9.39575198 L14.109375,11.9560401 L12.1115763,12.5625 L9.62189633,5.76112769" id="Fill-28278" fill="#FFFFFF" sketch:type="MSShapeGroup"></path>
                <path d="M12.6294679,3.375 L16.078125,11.3111625 L14.1009351,11.90625 L13.5994812,9.00526086 L13.1728562,9.1280943 L11.015625,3.79737245 L12.6294679,3.375" id="Fill-28279" fill="#FFFFFF" sketch:type="MSShapeGroup"></path>
                <path d="M10.359375,2.13452908 L11.9413645,1.734375 L12.515625,3.0502711 L10.9016201,3.46875 L10.359375,2.13452908" id="Fill-28280" fill="#FFFFFF" sketch:type="MSShapeGroup"></path>
                <path d="M13.5,10.359375 L12.984375,9.62357147 L13.3657267,9.515625 L13.5,10.359375" id="Fill-28281" fill="#FFFFFF" sketch:type="MSShapeGroup"></path>
                <path id="Fill-28282" fill="#FFFFFF" sketch:type="MSShapeGroup" d="M3.515625,5.625 L4.27291698,5.25 L4.359375,5.56570069 L3.515625,5.625"></path>
                <path d="M5.07139924,10.207795 L5.31798641,9.98602829 L5.61240949,9.80751488 L5.95152963,9.6786302 L6.30835283,9.61112513 L6.65161624,9.609375 L6.97541885,9.66887947 L7.27398519,9.78551323 L7.54091204,9.95527598 L7.76992172,10.1742924 L7.95398323,10.4390623 L8.08606556,10.7460854 L8.15499446,11.0746101 L8.15625,11.4011346 L8.09171547,11.7180334 L7.96390196,12.0168058 L7.77532052,12.2893263 L7.5286078,12.5267191 L7.22702816,12.7204837 L6.87384602,12.8616193 L6.50095197,12.9356249 L6.14098994,12.9375 L5.80199535,12.8718701 L5.49200363,12.7442355 L5.21892466,12.5602217 L4.99016609,12.325329 L4.81263337,12.045558 L4.69310638,11.726659 L4.640625,11.3917589 L4.65669585,11.0651094 L4.73667347,10.754211 L4.87628902,10.4660644 L5.07139924,10.207795 M6.32065707,9.82514121 L6.01104202,9.88402063 L5.7169956,9.99590404 L5.46337742,10.1504156 L5.25282412,10.342055 L5.08759564,10.5648218 L4.97083084,10.8134654 L4.90566855,11.0819856 L4.89512205,11.3642568 L4.9428324,11.6545286 L5.04641408,11.9310494 L5.19845943,12.1733176 L5.39331854,12.3764579 L5.62571817,12.5355948 L5.88963173,12.6458531 L6.17903267,12.7026074 L6.48751774,12.7011072 L6.80880928,12.6374775 L7.11365331,12.5162184 L7.37267028,12.3504559 L7.5834747,12.1473156 L7.74380658,11.9137981 L7.85165708,11.6571538 L7.9051429,11.3841333 L7.90275738,11.1017371 L7.84299389,10.8163407 L7.72999569,10.5486956 L7.57317931,10.3175532 L7.37832019,10.1262888 L7.1504405,9.97777767 L6.89506457,9.87589502 L6.6168379,9.8237661 L6.32065707,9.82514121" id="Fill-28283" fill="#FF3032" sketch:type="MSShapeGroup"></path>
                <path d="M5.98720489,9.95047209 L6.29578919,9.89199081 L6.59098398,9.890625 L6.86828439,9.94240143 L7.12281013,10.0435952 L7.34993118,10.1911021 L7.54414157,10.3810732 L7.70043589,10.6106526 L7.8130579,10.8764879 L7.87262242,11.1599546 L7.875,11.4404413 L7.82169225,11.7116157 L7.7142008,11.9665245 L7.55440269,12.1984631 L7.34430008,12.4002297 L7.08614541,12.5648713 L6.78231626,12.6853105 L6.46209435,12.74851 L6.15463627,12.75 L5.8661988,12.6936295 L5.60316384,12.5841168 L5.37153792,12.4260559 L5.17732752,12.2242892 L5.02578835,11.9836592 L4.92255151,11.7090082 L4.875,11.4206992 L4.88551139,11.1403366 L4.95045674,10.8736322 L5.06683282,10.6266698 L5.23151122,10.4054093 L5.44136356,10.2150658 L5.6941374,10.061599 L5.98720489,9.95047209 M6.16327063,11.6875278 L6.76216943,11.5141947 L7.02520439,11.8592468 L7.28848961,11.7283778 L6.34284016,10.5273385 L6.01285768,10.6212065 L5.8566885,12.1777277 L6.13423918,12.0968968 L6.16327063,11.6875278" id="Fill-28284" fill="#FFFFFF" sketch:type="MSShapeGroup"></path>
                <path d="M6.77834131,11.4810177 L6.17052307,11.6533253 L6.14105926,12.0602724 L5.859375,12.140625 L6.01787002,10.5933127 L6.35276694,10.5 L7.3125,11.6939336 L7.04529365,11.8240283 L6.77834131,11.4810177 M6.182588,11.4293008 L6.64956411,11.2973546 L6.23389568,10.7548819 L6.182588,11.4293008" id="Fill-28285" fill="#FF3032" sketch:type="MSShapeGroup"></path>
                <path id="Fill-28286" fill="#FFFFFF" sketch:type="MSShapeGroup" d="M6.609375,11.2999377 L6.140625,11.4375 L6.19212758,10.734375 L6.609375,11.2999377"></path>
                <path d="M10.265625,2.25 L13.3125,9.84375" id="Fill-28288" fill="#FB0011" sketch:type="MSShapeGroup"></path>
                <path d="M10.265625,2.25 L13.3125,9.84375" id="Stroke-28290" stroke="#FB0011" stroke-width="0.5" stroke-linecap="round" sketch:type="MSShapeGroup"></path>
                <path d="M13.78125,11.25 L12.984375,9.93715295 L13.4538312,9.75 L13.78125,11.25 L13.78125,11.25 Z" id="Stroke-28292" stroke="#FB0011" stroke-width="0.5" sketch:type="MSShapeGroup"></path>
                <path d="M12.65625,3.234375 L4.265625,5.4375" id="Fill-28294" fill="#FB0011" sketch:type="MSShapeGroup"></path>
                <path d="M12.65625,3.234375 L4.265625,5.4375" id="Stroke-28296" stroke="#FB0011" stroke-width="0.5" stroke-linecap="round" sketch:type="MSShapeGroup"></path>
                <path d="M2.765625,5.71875 L4.13970672,5.109375 L4.265625,5.58232823 L2.765625,5.71875 L2.765625,5.71875 Z" id="Stroke-28298" stroke="#FB0011" stroke-width="0.5" sketch:type="MSShapeGroup"></path>
                <path d="M7.73450029,13.1015001 L7.734375,15.152375 L13.154989,15.1522501 L13.1548637,17.203125 L17.671875,13.1015001 L13.1548637,9 L13.154989,11.05075 L7.73450029,11.05075 L7.73450029,13.1015001 L7.73450029,13.1015001 Z" id="Fill-29899" fill="#1293F5" sketch:type="MSShapeGroup"></path>
                <path d="M7.73450029,13.1015001 L7.734375,15.152375 L13.154989,15.1522501 L13.1548637,17.203125 L17.671875,13.1015001 L13.1548637,9 L13.154989,11.05075 L7.73450029,11.05075 L7.73450029,13.1015001 L7.73450029,13.1015001 Z" id="Stroke-29901" stroke="#000000" stroke-width="0.75" stroke-linecap="round" stroke-linejoin="round" sketch:type="MSShapeGroup"></path>
            </g>
        </g>
    </g>
</svg>