<?xml version="1.0" encoding="UTF-8" standalone="no"?>
<svg width="25px" height="24px" viewBox="0 0 25 24" version="1.1" xmlns="http://www.w3.org/2000/svg" xmlns:xlink="http://www.w3.org/1999/xlink" xmlns:sketch="http://www.bohemiancoding.com/sketch/ns">
    <!-- Generator: Sketch 3.3.2 (12043) - http://www.bohemiancoding.com/sketch -->
    <title>tb_scale</title>
    <desc>Created with Sketch.</desc>
    <defs></defs>
    <g id="Page-1" stroke="none" stroke-width="1" fill="none" fill-rule="evenodd" sketch:type="MSPage">
        <g id="tb_scale" sketch:type="MSArtboardGroup" transform="translate(1.000000, 0.000000)">
            <g id="Group" sketch:type="MSLayerGroup" transform="translate(3.000000, 2.000000)">
                <path d="M0,1 L18,1 L18,19 L0,19 L0,1 L0,1 Z" id="Stroke-1552" stroke="#FB0011" stroke-width="0.5" stroke-linecap="round" sketch:type="MSShapeGroup"></path>
                <path d="M0,5.39215226 L13.6078477,5.39215226 L13.6078477,19 L0,19 L0,5.39215226 L0,5.39215226 Z" id="Fill-1975" fill="#A09F88" sketch:type="MSShapeGroup"></path>
                <path d="M0,5.39215226 L13.6078477,5.39215226 L13.6078477,19 L0,19 L0,5.39215226 L0,5.39215226 Z" id="Stroke-1976" stroke="#000000" stroke-width="0.625" stroke-linecap="round" sketch:type="MSShapeGroup"></path>
                <g id="Stroke-23205-+-Fill-23206-+-Stroke-23207" transform="translate(12.968750, 6.125000) rotate(90.000000) translate(-12.968750, -6.125000) translate(7.468750, 0.625000)" sketch:type="MSShapeGroup">
                    <path d="M0,0 L2.21987853,8.13948277 L3.69973941,6.65958949 L7.39947882,10.359375 L10.359375,7.39960589 L6.65963559,3.69980295 L8.13949647,2.21978759 L0,0 L0,0 Z" id="Stroke-23205" stroke="#FFFFFF" stroke-width="2.09999996" stroke-linecap="round" stroke-linejoin="round"></path>
                    <path d="M0,0 L2.21987853,8.13949647 L3.69973941,6.65963559 L7.39947882,10.359375 L10.359375,7.39965323 L6.65963559,3.69973941 L8.13949647,2.21970412 L0,0 L0,0 Z" id="Fill-23206" fill="#FB0011"></path>
                    <path d="M0,0 L2.21987853,8.13948277 L3.69973941,6.65958949 L7.39947882,10.359375 L10.359375,7.39960589 L6.65963559,3.69980295 L8.13949647,2.21978759 L0,0 L0,0 Z" id="Stroke-23207" stroke="#000000" stroke-width="0.699999988" stroke-linecap="round" stroke-linejoin="round"></path>
                </g>
            </g>
        </g>
    </g>
</svg>