<?xml version="1.0" encoding="UTF-8" standalone="no"?>
<svg width="25px" height="24px" viewBox="0 0 25 24" version="1.1" xmlns="http://www.w3.org/2000/svg" xmlns:xlink="http://www.w3.org/1999/xlink" xmlns:sketch="http://www.bohemiancoding.com/sketch/ns">
    <!-- Generator: Sketch 3.3.3 (12072) - http://www.bohemiancoding.com/sketch -->
    <title>tb_terraintoggle</title>
    <desc>Created with Sketch.</desc>
    <defs>
        <linearGradient x1="75.8515538%" y1="14.7320762%" x2="14.5979141%" y2="53.2392511%" id="linearGradient-1">
            <stop stop-color="#979581" offset="0%"></stop>
            <stop stop-color="#C2BFA6" offset="100%"></stop>
        </linearGradient>
    </defs>
    <g id="Page-1" stroke="none" stroke-width="1" fill="none" fill-rule="evenodd" sketch:type="MSPage">
        <g id="tb_terraintoggle" sketch:type="MSArtboardGroup" transform="translate(0.000000, 0.000000)">
            <g id="Group" sketch:type="MSLayerGroup" transform="translate(3.000000, 5.000000)">
                <path d="M1.6875,5.68136597 L11.1557922,3.0390625 L16.8290405,9.46313477 L6.62896729,14.7339172 L1.6875,5.68136597 Z" id="Path-4422" stroke="#979797" stroke-width="0.5" fill="#1294F7" sketch:type="MSShapeGroup"></path>
                <path d="M6.50134277,14.2529907 C6.50134277,14.2529907 5.50048828,12.3894348 5.14691162,11.6180115 C4.79333496,10.8465881 0.587677002,1.70028687 0.587677002,1.70028687 C0.587677002,1.70028687 1.70571899,1.35266113 2.72039795,1.24243164 C3.7350769,1.13220215 5.01763916,1.11471558 6.01730347,1.25982666 C7.01696777,1.40493774 7.83728027,1.55682373 8.71453857,1.30065918 C9.59179688,1.04449463 10.6525269,0.765625 10.6525269,0.765625 C10.6525269,0.765625 11.1495667,1.58959961 11.3988647,1.95526123 C11.6481628,2.32092285 12.1060181,2.93432617 12.4716797,3.1210022 C12.8373413,3.30767822 14.182251,3.68991089 14.6929321,3.84106445 C15.2036133,3.99221802 16.0731812,4.39788818 16.4849854,4.88604736 C16.8967896,5.37420654 17.881073,6.72341919 17.881073,6.72341919 C17.881073,6.72341919 16.0794067,7.54006958 15.5564575,7.77197266 C15.0335083,8.00387573 13.2454834,9.29412842 12.6809692,9.74749756 C12.1164551,10.2008667 9.26696777,12.4362183 8.68670654,12.8540649 C8.10644531,13.2719116 6.50134277,14.2529907 6.50134277,14.2529907 Z" id="Path-4420-Copy" stroke="#000000" stroke-width="0.4" fill="url(#linearGradient-1)" sketch:type="MSShapeGroup"></path>
                <path d="M15.3135681,7.86993408 L16.9249878,9.54928589 L6.62750244,14.8253784 L1.61123657,5.68429565 L2.27838135,5.46896362" id="Path-4421" stroke="#000000" stroke-width="0.4" sketch:type="MSShapeGroup"></path>
            </g>
        </g>
    </g>
</svg>