<?xml version="1.0" encoding="UTF-8" standalone="no"?>
<svg width="24px" height="24px" viewBox="0 0 24 24" version="1.1" xmlns="http://www.w3.org/2000/svg" xmlns:xlink="http://www.w3.org/1999/xlink" xmlns:sketch="http://www.bohemiancoding.com/sketch/ns">
    <!-- Generator: Sketch 3.3.1 (12002) - http://www.bohemiancoding.com/sketch -->
    <title>tb_trim</title>
    <desc>Created with Sketch.</desc>
    <defs></defs>
    <g id="Page-1" stroke="none" stroke-width="1" fill="none" fill-rule="evenodd" sketch:type="MSPage">
        <g id="tb_trim" sketch:type="MSArtboardGroup">
            <g id="Group" sketch:type="MSLayerGroup" transform="translate(3.000000, 5.000000)">
                <path d="M1.60408337,8.78125 L0.609375,1.76309987 L8.79557123,0.25 L9.5625,2.23360115 L4.62881646,3.20230603 L5.38262573,6.28993157 L5.76521549,7.85658342 L1.60408337,8.78125" id="Fill-3772" fill="#0D72BE" sketch:type="MSShapeGroup"></path>
                <path d="M1.640625,8.81274897 L5.81192687,7.890625 L6.28125,10.6631263 L2.73946989,11.5 L1.640625,8.81274897" id="Fill-3773" fill="#094F84" sketch:type="MSShapeGroup"></path>
                <path d="M17.53125,9.015625 L16.2661541,11.686139 L7.86353235,13.84375 L7.640625,11.423873 L17.53125,9.015625" id="Fill-3774" fill="#56554A" sketch:type="MSShapeGroup"></path>
                <path d="M5.87526948,6.19425254 L5.39263006,6.296875 L4.640625,3.22834035 L9.5625,2.265625 L9.54953654,2.80284716 L5.48624117,3.60939573 L5.87526948,6.19425254" id="Fill-3775" fill="#094F84" sketch:type="MSShapeGroup"></path>
                <path d="M7.55743651,11.4288452 L7.78125,13.84375 L5.95078879,6.71839373 L5.87526583,6.21776297 L5.484375,3.625 L7.55743651,11.4288452" id="Fill-3776" fill="#94927F" sketch:type="MSShapeGroup"></path>
                <path d="M17.484375,9.04913046 L7.55676422,11.453125 L5.484375,3.64702358 L9.56579983,2.83777415 L13.8702143,1.984375 L17.484375,9.04913046" id="Fill-3777" fill="#7C7A6B" sketch:type="MSShapeGroup"></path>
                <path id="Stroke-3778" stroke="#000000" stroke-width="0.5" stroke-linecap="round" stroke-linejoin="round" sketch:type="MSShapeGroup" d="M7.875,13.796875 L7.640625,11.359375"></path>
                <path d="M7.640625,11.40625 L17.53125,9.015625" id="Stroke-3779" stroke="#000000" stroke-width="0.5" stroke-linecap="round" stroke-linejoin="round" sketch:type="MSShapeGroup"></path>
                <path d="M5.484375,3.625 L7.546875,11.453125" id="Stroke-3780" stroke="#000000" stroke-width="0.5" stroke-linecap="round" stroke-linejoin="round" sketch:type="MSShapeGroup"></path>
                <path d="M1.640625,8.828125 L5.8125,7.890625" id="Stroke-3781" stroke="#000000" stroke-width="0.5" stroke-linecap="round" stroke-linejoin="round" sketch:type="MSShapeGroup"></path>
                <path d="M4.640625,3.25 L9.5625,2.265625" id="Stroke-3782" stroke="#000000" stroke-width="0.5" stroke-linecap="round" stroke-linejoin="round" sketch:type="MSShapeGroup"></path>
                <path d="M16.265625,11.6875 L17.53125,9.015625" id="Stroke-3783" stroke="#000000" stroke-width="0.5" stroke-linecap="round" stroke-linejoin="round" sketch:type="MSShapeGroup"></path>
                <path d="M7.734375,13.890625 L16.171875,11.734375" id="Stroke-3784" stroke="#000000" stroke-width="0.5" stroke-linecap="round" stroke-linejoin="round" sketch:type="MSShapeGroup"></path>
                <path d="M17.484375,9.0625 L13.875,1.984375" id="Stroke-3785" stroke="#000000" stroke-width="0.5" stroke-linecap="round" stroke-linejoin="round" sketch:type="MSShapeGroup"></path>
                <path d="M6,6.765625 L7.828125,13.890625" id="Stroke-3786" stroke="#000000" stroke-width="0.5" stroke-linecap="round" stroke-linejoin="round" sketch:type="MSShapeGroup"></path>
                <path d="M2.71875,11.40625 L1.640625,8.734375" id="Stroke-3787" stroke="#000000" stroke-width="0.5" stroke-linecap="round" stroke-linejoin="round" sketch:type="MSShapeGroup"></path>
                <path d="M0.609375,1.75 L1.59375,8.78125" id="Stroke-3788" stroke="#000000" stroke-width="0.5" stroke-linecap="round" stroke-linejoin="round" sketch:type="MSShapeGroup"></path>
                <path d="M9.5625,2.21875 L8.79557123,0.25 L0.609375,1.75184589" id="Stroke-3789" stroke="#000000" stroke-width="0.5" stroke-linecap="round" stroke-linejoin="round" sketch:type="MSShapeGroup"></path>
                <path d="M2.765625,11.453125 L6.28125,10.609375" id="Stroke-3790" stroke="#000000" stroke-width="0.5" stroke-linecap="round" stroke-linejoin="round" sketch:type="MSShapeGroup"></path>
                <path id="Stroke-3791" stroke="#000000" stroke-width="0.5" stroke-linecap="round" stroke-linejoin="round" sketch:type="MSShapeGroup" d="M9.624,2.265625 L9.609375,2.828125"></path>
                <path id="Stroke-3792" stroke="#000000" stroke-width="0.5" stroke-linecap="round" stroke-linejoin="round" sketch:type="MSShapeGroup" d="M6.234375,10.65625 L5.765625,7.890625"></path>
                <path id="Stroke-3793" stroke="#000000" stroke-width="0.5" stroke-linecap="round" stroke-linejoin="round" sketch:type="MSShapeGroup" d="M5.859375,6.25 L5.390625,6.36601563"></path>
                <path id="Stroke-3794" stroke="#000000" stroke-width="0.5" stroke-linecap="round" stroke-linejoin="round" sketch:type="MSShapeGroup" d="M5.953125,6.71875 L5.87722375,6.218039 L5.484375,3.625"></path>
                <path d="M13.875,1.984375 L9.56812903,2.85054899 L5.484375,3.671875" id="Stroke-3795" stroke="#000000" stroke-width="0.5" stroke-linecap="round" stroke-linejoin="round" sketch:type="MSShapeGroup"></path>
                <path d="M5.765625,7.890625 L5.38687294,6.32856416 L4.640625,3.25" id="Stroke-3796" stroke="#000000" stroke-width="0.5" stroke-linecap="round" stroke-linejoin="round" sketch:type="MSShapeGroup"></path>
                <path d="M8.79544628,0.25 L9.5625,2.23360115 L4.62881646,3.20230603 L5.76521549,7.85658342 L1.60408337,8.78125 L0.609375,1.76309987 L8.79544628,0.25 L8.79544628,0.25 Z" id="Fill-6292" fill="#1293F5" sketch:type="MSShapeGroup"></path>
                <path d="M8.79544628,0.25 L9.5625,2.23359824 L4.62881646,3.20236429 L5.76521549,7.85654722 L1.60408337,8.78125 L0.609375,1.76317276 L8.79544628,0.25 L8.79544628,0.25 Z" id="Stroke-6293" stroke="#000000" stroke-width="0.5" stroke-linecap="round" stroke-linejoin="round" sketch:type="MSShapeGroup"></path>
                <path d="M4.62881646,3.19638265 L5.76521549,7.84113596 L6.23339439,10.6157452 L2.70024924,11.453125 L1.60408337,8.76396524 L0.609375,1.76010699 L8.79544628,0.25 L9.5625,2.22957937" id="Stroke-6296" stroke="#000000" stroke-width="0.5" stroke-linecap="round" stroke-linejoin="round" sketch:type="MSShapeGroup"></path>
                <path d="M9.71267921,2.734375 L11.203125,6.543008 L6.55710752,7.5625 L5.484375,3.56726077 L9.71267921,2.734375 L9.71267921,2.734375 Z" id="Stroke-23289" stroke="#000000" stroke-width="0.5" sketch:type="MSShapeGroup"></path>
            </g>
        </g>
    </g>
</svg>