<?xml version="1.0" encoding="UTF-8" standalone="no"?>
<svg width="24px" height="24px" viewBox="0 0 24 24" version="1.1" xmlns="http://www.w3.org/2000/svg" xmlns:xlink="http://www.w3.org/1999/xlink" xmlns:sketch="http://www.bohemiancoding.com/sketch/ns">
    <!-- Generator: Sketch 3.3.1 (12002) - http://www.bohemiancoding.com/sketch -->
    <title>tb_undo</title>
    <desc>Created with Sketch.</desc>
    <defs></defs>
    <g id="Page-1" stroke="none" stroke-width="1" fill="none" fill-rule="evenodd" sketch:type="MSPage">
        <g id="tb_undo" sketch:type="MSArtboardGroup">
            <g id="Group" sketch:type="MSLayerGroup" transform="translate(3.000000, 3.000000)">
                <path d="M14.9938027,9.984375 L13.965381,10.5481119 L11.4582132,11.3549464 L8.484375,11.889013 L11.4582132,14.0120648 L8.484375,17.203125 L11.4582132,16.6690584 L13.965381,15.862224 L15.8348076,14.8374744 L16.9394687,13.6646223 L17.203125,12.4237029 L16.6091809,11.1991147 L15.1968168,10.0746327 L14.9938027,9.984375 L14.9938027,9.984375 Z" id="Fill-1536" fill="#7B846B" sketch:type="MSShapeGroup"></path>
                <path d="M14.9938027,9.984375 L13.965381,10.5481119 L11.4582132,11.3549464 L8.484375,11.889013 L11.4582132,14.0120648 L8.484375,17.203125 L11.4582132,16.6690584 L13.965381,15.862224 L15.8348076,14.8374744 L16.9394687,13.6646223 L17.203125,12.4237029 L16.6091809,11.1991147 L15.1968168,10.0746327 L14.9938027,9.984375 L14.9938027,9.984375 Z" id="Stroke-1537" stroke="#000000" stroke-width="0.5" stroke-linecap="round" stroke-linejoin="round" sketch:type="MSShapeGroup"></path>
                <path d="M7.28090105,2.85633833 L7.28090105,0 L0.75,5.64311648 L7.28090105,11.0360911 L7.28090105,8.17975273 L10.387979,8.59811288 L13.1023128,9.30620305 L15.0367835,10.1656522 L15.2401555,10.2560679 L15.8792708,10.7650936 L16.655009,11.3826431 L16.985879,12.0643828 L17.25,12.609375 L17.25,7.28583572 L16.655009,6.05922873 L15.2401555,4.93265352 L13.1023128,3.98278865 L10.387979,3.27469848 L7.28090105,2.85633833 L7.28090105,2.85633833 Z" id="Fill-1540" fill="#1293F5" sketch:type="MSShapeGroup"></path>
                <path d="M7.28090105,2.85633833 L7.28090105,0 L0.75,5.64311648 L7.28090105,11.0360911 L7.28090105,8.17975273 L10.387979,8.59811288 L13.1023128,9.30620305 L15.0367835,10.1656522 L15.2401555,10.2560679 L15.8792708,10.7650936 L16.655009,11.3826431 L16.985879,12.0643828 L17.25,12.609375 L17.25,7.28583572 L16.655009,6.05922873 L15.2401555,4.93265352 L13.1023128,3.98278865 L10.387979,3.27469848 L7.28090105,2.85633833 L7.28090105,2.85633833 Z" id="Stroke-1541" stroke="#000000" stroke-width="0.5" stroke-linecap="round" stroke-linejoin="round" sketch:type="MSShapeGroup"></path>
            </g>
        </g>
    </g>
</svg>