<?xml version="1.0" encoding="UTF-8" standalone="no"?>
<svg width="24px" height="24px" viewBox="0 0 24 24" version="1.1" xmlns="http://www.w3.org/2000/svg" xmlns:xlink="http://www.w3.org/1999/xlink" xmlns:sketch="http://www.bohemiancoding.com/sketch/ns">
    <!-- Generator: Sketch 3.3.1 (12002) - http://www.bohemiancoding.com/sketch -->
    <title>tb_union</title>
    <desc>Created with Sketch.</desc>
    <defs></defs>
    <g id="Page-1" stroke="none" stroke-width="1" fill="none" fill-rule="evenodd" sketch:type="MSPage">
        <g id="tb_union" sketch:type="MSArtboardGroup">
            <g id="Group" sketch:type="MSLayerGroup" transform="translate(3.000000, 5.000000)">
                <path d="M0.515625,1.60465548 L8.66331559,0.109375 L9.60167796,2.56272637 L13.6722447,1.75786321 L17.203125,8.74928506 L7.35024527,11.125 L6.39359777,7.44507307 L1.46732652,8.53041866 L0.515625,1.60465548 M9.233727,8.33424367 L10.9242281,7.94803902 L12.2314157,7.64925827 L13.910551,7.26555681 L12.3424504,3.72829919 L10.2158038,4.16868539 L11.0746059,6.41382142 L8.7788467,6.91962848 L9.233727,8.33424367" id="Fill-3714" fill="#7C7A6B" sketch:type="MSShapeGroup"></path>
                <path d="M6.65625,10.1879959 L2.47950519,11.171875 L1.359375,8.45597314 L6.27147379,7.375 L6.65625,10.1879959" id="Fill-3715" fill="#56554A" sketch:type="MSShapeGroup"></path>
                <path d="M17.109375,8.734375 L15.9004796,11.4343266 L7.53138732,13.5625 L7.265625,11.1044853 L17.109375,8.734375" id="Fill-3716" fill="#56554A" sketch:type="MSShapeGroup"></path>
                <path d="M7.59375,13.515625 L6.7596535,10.1979357 L6.375,7.375 L7.32859107,11.0530527 L7.59375,13.515625" id="Fill-3717" fill="#94927F" sketch:type="MSShapeGroup"></path>
                <path d="M10.9768272,6.2954011 L10.125,4.06290655 L12.234375,3.625 L11.7997895,6.70839181 L10.9169912,6.90625 L10.9768272,6.2954011" id="Fill-3718" fill="#56554A" sketch:type="MSShapeGroup"></path>
                <path d="M11.0625,6.390625 L11.0021447,7.00539754 L10.9120491,7.92600319 L9.2207264,8.3125 L8.765625,6.89681469 L11.0625,6.390625" id="Fill-3719" fill="#56554A" sketch:type="MSShapeGroup"></path>
                <path d="M13.875,7.17717986 L12.1880136,7.5625 L11.859375,6.73893272 L12.2995675,3.625 L13.875,7.17717986" id="Fill-3720" fill="#94927F" sketch:type="MSShapeGroup"></path>
                <path d="M1.359375,8.453125 L6.28125,7.375" id="Stroke-3721" stroke="#000000" stroke-width="0.5" stroke-linecap="round" stroke-linejoin="round" sketch:type="MSShapeGroup"></path>
                <path d="M8.765625,6.90625 L11.0625,6.390625" id="Stroke-3722" stroke="#000000" stroke-width="0.5" stroke-linecap="round" stroke-linejoin="round" sketch:type="MSShapeGroup"></path>
                <path id="Stroke-3723" stroke="#000000" stroke-width="0.5" stroke-linecap="round" stroke-linejoin="round" sketch:type="MSShapeGroup" d="M12.234375,3.625 L10.125,4.046875"></path>
                <path id="Stroke-3724" stroke="#000000" stroke-width="0.5" stroke-linecap="round" stroke-linejoin="round" sketch:type="MSShapeGroup" d="M12.28125,3.625 L11.859375,6.71875"></path>
                <path id="Stroke-3725" stroke="#000000" stroke-width="0.5" stroke-linecap="round" stroke-linejoin="round" sketch:type="MSShapeGroup" d="M6.375,7.375 L6.75,10.1875"></path>
                <path d="M6.375,7.375 L7.3125,11.03125" id="Stroke-3726" stroke="#000000" stroke-width="0.5" stroke-linecap="round" stroke-linejoin="round" sketch:type="MSShapeGroup"></path>
                <path d="M13.78125,7.140625 L12.234375,3.625" id="Stroke-3727" stroke="#000000" stroke-width="0.5" stroke-linecap="round" stroke-linejoin="round" sketch:type="MSShapeGroup"></path>
                <path d="M7.265625,11.125 L17.109375,8.734375" id="Stroke-3728" stroke="#000000" stroke-width="0.5" stroke-linecap="round" stroke-linejoin="round" sketch:type="MSShapeGroup"></path>
                <path id="Stroke-3729" stroke="#000000" stroke-width="0.5" stroke-linecap="round" stroke-linejoin="round" sketch:type="MSShapeGroup" d="M7.546875,13.5625 L7.265625,11.125"></path>
                <path d="M8.671875,0.109375 L0.515625,1.609375" id="Stroke-3730" stroke="#000000" stroke-width="0.5" stroke-linecap="round" stroke-linejoin="round" sketch:type="MSShapeGroup"></path>
                <path d="M9.5625,2.546875 L8.625,0.109375" id="Stroke-3731" stroke="#000000" stroke-width="0.5" stroke-linecap="round" stroke-linejoin="round" sketch:type="MSShapeGroup"></path>
                <path d="M2.484375,11.21875 L6.65625,10.234375" id="Stroke-3732" stroke="#000000" stroke-width="0.5" stroke-linecap="round" stroke-linejoin="round" sketch:type="MSShapeGroup"></path>
                <path d="M2.484375,11.21875 L1.359375,8.5" id="Stroke-3733" stroke="#000000" stroke-width="0.5" stroke-linecap="round" stroke-linejoin="round" sketch:type="MSShapeGroup"></path>
                <path d="M0.515625,1.515625 L1.453125,8.453125" id="Stroke-3734" stroke="#000000" stroke-width="0.5" stroke-linecap="round" stroke-linejoin="round" sketch:type="MSShapeGroup"></path>
                <path d="M10.96875,6.390625 L10.125,4.140625" id="Stroke-3735" stroke="#000000" stroke-width="0.5" stroke-linecap="round" stroke-linejoin="round" sketch:type="MSShapeGroup"></path>
                <path id="Stroke-3736" stroke="#000000" stroke-width="0.5" stroke-linecap="round" stroke-linejoin="round" sketch:type="MSShapeGroup" d="M11.90625,6.765625 L11.015625,6.953125"></path>
                <path d="M17.15625,8.734375 L13.640625,1.75" id="Stroke-3737" stroke="#000000" stroke-width="0.5" stroke-linecap="round" stroke-linejoin="round" sketch:type="MSShapeGroup"></path>
                <path d="M15.984375,11.453125 L17.203125,8.734375" id="Stroke-3738" stroke="#000000" stroke-width="0.5" stroke-linecap="round" stroke-linejoin="round" sketch:type="MSShapeGroup"></path>
                <path d="M6.75,10.234375 L7.59375,13.5625" id="Stroke-3739" stroke="#000000" stroke-width="0.5" stroke-linecap="round" stroke-linejoin="round" sketch:type="MSShapeGroup"></path>
                <path id="Stroke-3740" stroke="#000000" stroke-width="0.5" stroke-linecap="round" stroke-linejoin="round" sketch:type="MSShapeGroup" d="M12.1875,7.5625 L11.859375,6.765625"></path>
                <path d="M7.5,13.46875 L15.890625,11.359375" id="Stroke-3741" stroke="#000000" stroke-width="0.5" stroke-linecap="round" stroke-linejoin="round" sketch:type="MSShapeGroup"></path>
                <path d="M13.59375,1.75 L9.515625,2.546875" id="Stroke-3742" stroke="#000000" stroke-width="0.5" stroke-linecap="round" stroke-linejoin="round" sketch:type="MSShapeGroup"></path>
                <path id="Stroke-3743" stroke="#000000" stroke-width="0.5" stroke-linecap="round" stroke-linejoin="round" sketch:type="MSShapeGroup" d="M8.765625,6.859375 L9.234375,8.265625"></path>
                <path id="Stroke-3744" stroke="#000000" stroke-width="0.5" stroke-linecap="round" stroke-linejoin="round" sketch:type="MSShapeGroup" d="M10.875,7.9375 L10.9592115,7.00998073 L11.015625,6.390625"></path>
                <path d="M9.140625,8.3125 L10.8349851,7.92294558 L12.1451566,7.62153022 L13.828125,7.234375" id="Stroke-3745" stroke="#000000" stroke-width="0.5" stroke-linecap="round" stroke-linejoin="round" sketch:type="MSShapeGroup"></path>
                <path d="M9.47842871,2.5 L10.96875,6.308633 L6.32267027,7.328125 L5.25,3.33288577 L9.47842871,2.5 L9.47842871,2.5 Z" id="Stroke-23287" stroke="#000000" stroke-width="0.5" sketch:type="MSShapeGroup"></path>
                <path d="M10.171875,4.140625 L8.015625,4.59189745 L8.69401692,6.90625" id="Stroke-23288" stroke="#000000" stroke-width="0.5" sketch:type="MSShapeGroup"></path>
            </g>
        </g>
    </g>
</svg>