<?xml version="1.0" standalone="no"?>
<!DOCTYPE svg PUBLIC "-//W3C//DTD SVG 1.1//EN" "http://www.w3.org/Graphics/SVG/1.1/DTD/svg11.dtd">
<!--Generator: Xara Designer (www.xara.com), SVG filter version: 6.5.0.21-->
<svg fill="none" fill-rule="evenodd" stroke="black" stroke-width="0.501" stroke-linejoin="bevel" stroke-miterlimit="10" font-family="Times New Roman" font-size="16" style="font-variant-ligatures:none" xmlns:xlink="http://www.w3.org/1999/xlink" xmlns="http://www.w3.org/2000/svg" version="1.1" overflow="visible" width="75pt" height="72pt" viewBox="0 -72 75 72">
 <defs>
	</defs>
 <g id="LOCK OPEN" transform="scale(1 -1)">
  <rect x="12.367" y="44.464" width="37.663" height="15.016" fill="#ffffff" stroke-width="3" stroke="#ff0000" stroke-linejoin="miter"/>
  <g id="Group" stroke-linejoin="miter" stroke="none" stroke-width="12.872" fill="#ff0000">
   <path d="M 45.566,27.924 L 45.593,32.96 L 45.593,33.334 C 45.685,36.971 48.315,40.18 52.024,40.84 C 56.233,41.583 60.254,38.775 61.003,34.564 C 61.087,34.064 61.127,33.565 61.117,33.073 L 61.125,33.038 L 56.726,33.038 C 56.729,33.103 56.731,33.167 56.731,33.234 C 56.731,35.09 55.228,36.593 53.375,36.593 C 51.524,36.593 50.018,35.09 50.035,33.234 L 50.035,32.914 L 50.032,27.937 L 45.566,27.924 Z" marker-start="none" marker-end="none"/>
   <path d="M 52.681,10.875 L 52.681,28.648 L 33.931,28.648 L 33.931,10.875 L 52.681,10.875 Z" marker-start="none" marker-end="none"/>
  </g>
  <g id="Group_1" stroke-linejoin="miter" stroke="none">
   <path d="M 10.838,46.453 L 43.917,54.676 L 26.491,25.967 L 24.246,35.219 L 16.34,29.255 L 11.774,36.316 L 19.597,41.661 L 10.838,46.453 Z" stroke-width="1.748" fill="#000000" marker-start="none" marker-end="none"/>
   <path d="M 15.036,35.926 L 17.159,32.644 L 25.575,38.99 L 27.313,31.823 L 39.006,51.089 L 16.947,45.606 L 23.753,41.882 L 15.036,35.926 Z" fill="#32cd33" stroke-width="1.696" fill-rule="evenodd" marker-start="none" marker-end="none"/>
  </g>
 </g>
 <g id="Layer 1" transform="scale(1 -1)">
  <text xml:space="preserve" transform="translate(80.787 63.815) scale(1 -1)" kerning="auto" font-size="7.342" font-family="Arial" fill="#000000" stroke="none" stroke-linecap="round" stroke-linejoin="round" stroke-width="0.375"><tspan x="0" y="0">UnLOCK Selected</tspan></text>
 </g>
</svg>
