<?xml version="1.0" standalone="no"?>
<!DOCTYPE svg PUBLIC "-//W3C//DTD SVG 1.1//EN" "http://www.w3.org/Graphics/SVG/1.1/DTD/svg11.dtd">
<!--Generator: Xara Designer (www.xara.com), SVG filter version: 6.5.0.21-->
<svg fill="none" fill-rule="evenodd" stroke="black" stroke-width="0.501" stroke-linejoin="bevel" stroke-miterlimit="10" font-family="Times New Roman" font-size="16" style="font-variant-ligatures:none" xmlns:xlink="http://www.w3.org/1999/xlink" xmlns="http://www.w3.org/2000/svg" version="1.1" overflow="visible" width="75pt" height="72pt" viewBox="0 -72 75 72">
 <defs>
	</defs>
 <g id="Rectangle  Behind Eye" transform="scale(1 -1)">
  <rect x="12.712" y="37.627" width="32.406" height="21.66" stroke-width="3.75" fill="#ffaf00" stroke="#ff0000" stroke-linejoin="miter"/>
 </g>
 <g id="EYE CLOSED" transform="scale(1 -1)">
  <g id="Group" fill-rule="nonzero" stroke-linejoin="miter" stroke="none">
   <g id="Group_1">
    <path d="M 18.801,24.557 L 61.125,24.528 L 61.077,25.965 C 56.762,34.078 50.66,39.829 40.16,39.816 C 33.538,39.91 23.084,36.68 18.801,24.557 Z" stroke-width="9.334" fill="#ffffff" marker-start="none" marker-end="none"/>
    <g id="Group_2">
     <path d="M 20.463,27.366 C 24.871,33.796 32.12,38.617 40.123,38.456 C 49.18,38.66 57.236,32.4 61.125,24.542 C 56.858,16.961 48.967,10.76 39.942,10.877 C 30.924,10.756 23.035,16.965 18.801,24.557 L 19.163,25.264 C 19.389,25.703 19.822,26.437 20.463,27.366 Z" stroke-width="9.334" fill="#000000" marker-start="none" marker-end="none"/>
     <path d="M 24.743,23.663 C 28.245,18.798 33.748,14.906 39.945,15.007 C 46.554,14.906 52.355,19.305 55.847,24.627 C 52.602,30.146 46.713,34.474 40.107,34.328 C 33.432,34.458 27.487,30.112 24.095,24.61 L 24.743,23.663 Z" fill="#e1e1e1" stroke-width="9.054" marker-start="none" marker-end="none"/>
    </g>
   </g>
  </g>
 </g>
 <g id="EYE OPEN" transform="scale(1 -1)"/>
 <g id="Layer 1" transform="scale(1 -1)">
  <text xml:space="preserve" transform="translate(96.537 65.69) scale(1 -1)" kerning="auto" font-size="7.342" font-family="Arial" fill="#000000" stroke="none" stroke-linecap="round" stroke-linejoin="round" stroke-width="0.375"><tspan x="0" y="0">Unhide Selected</tspan></text>
  <g id="Group_3" stroke-linejoin="miter" stroke="none">
   <path d="M 35.588,38.875 L 43.528,26.552 L 45.782,38.172 L 35.588,38.875 Z" fill="#ffffff" stroke-width="1.5" marker-start="none" marker-end="none"/>
   <path d="M 42.974,28.665 L 24.957,57.6 L 57.639,49.87 L 49.529,44.883 L 57.639,39.199 L 52.329,32.68 L 44.833,38.475 L 42.974,28.665 Z" stroke-width="1.748" fill="#000000" marker-start="none" marker-end="none"/>
   <path d="M 51.695,35.903 L 54.163,38.934 L 45.532,44.985 L 51.815,48.847 L 29.883,54.034 L 41.897,34.738 L 43.342,42.36 L 51.695,35.903 Z" fill="#32cd33" stroke-width="1.696" fill-rule="evenodd" marker-start="none" marker-end="none"/>
  </g>
 </g>
</svg>
