<?xml version="1.0" encoding="UTF-8" standalone="no"?>
<svg width="25px" height="24px" viewBox="0 0 25 24" version="1.1" xmlns="http://www.w3.org/2000/svg" xmlns:xlink="http://www.w3.org/1999/xlink" xmlns:sketch="http://www.bohemiancoding.com/sketch/ns">
    <!-- Generator: Sketch 3.3.3 (12072) - http://www.bohemiancoding.com/sketch -->
    <title>tb_walk</title>
    <desc>Created with Sketch.</desc>
    <defs></defs>
    <g id="Page-1" stroke="none" stroke-width="1" fill="none" fill-rule="evenodd" sketch:type="MSPage">
        <g id="tb_walk" sketch:type="MSArtboardGroup" transform="translate(0.000000, 0.000000)">
            <g id="Group-Copy" sketch:type="MSLayerGroup" transform="translate(4.000000, 4.000000)">
                <path d="M5.72762262,8.93322228 C6.06853714,7.78859744 6.59375,6.76538735 6.59375,6.01051514 C6.59375,4.66720022 5.72699915,1.765625 3.61841666,1.765625 C2.30176838,1.94318315 -0.346117435,5.91598418 1.51931095,9.78125 L5.72762262,8.93322228 L5.72762262,8.93322228 Z" id="Fill-1604" fill="#1C1C1C" sketch:type="MSShapeGroup"></path>
                <path d="M5.72762262,8.93322228 C6.06853714,7.78859744 6.59375,6.76538735 6.59375,6.01051514 C6.59375,4.66720022 5.72699915,1.765625 3.61841666,1.765625 C2.30176838,1.94318315 -0.346117435,5.91598418 1.51931095,9.78125 L5.72762262,8.93322228 L5.72762262,8.93322228 Z" id="Stroke-1605" stroke="#000000" stroke-width="0.5" stroke-linecap="round" stroke-linejoin="round" sketch:type="MSShapeGroup"></path>
                <path d="M5.57787129,11.7085232 C5.28248754,10.7417072 5.43674211,9.77949805 5.703125,8.890625 L1.484375,9.73504817 C2.04389158,10.8866362 2.10014324,11.5541314 2.0683923,12.0428311 C3.31605427,12.6620166 4.36371031,12.6036217 5.57787129,11.7085232 L5.57787129,11.7085232 Z" id="Fill-1606" fill="#7C7C7C" sketch:type="MSShapeGroup"></path>
                <path d="M5.57787129,11.7085232 C5.28248754,10.7417072 5.43674211,9.77949805 5.703125,8.890625 L1.484375,9.73504817 C2.04389158,10.8866362 2.10014324,11.5541314 2.0683923,12.0428311 C3.31605427,12.6620166 4.36371031,12.6036217 5.57787129,11.7085232 L5.57787129,11.7085232 Z" id="Stroke-1607" stroke="#000000" stroke-width="0.5" stroke-linecap="round" stroke-linejoin="round" sketch:type="MSShapeGroup"></path>
                <path d="M2.06209724,12.0878983 C3.31128826,12.7105143 4.35938817,12.6516893 5.57406355,11.75 C5.94047958,12.8477306 5.88633004,15.5183064 3.90468213,15.8064105 C1.92303422,16.0943892 2.00994861,13.4335966 2.00019419,12.822269 C1.99656754,12.5977561 2.04471436,12.3727414 2.06309769,12.0867695 L2.06209724,12.0878983 Z" id="Fill-1608" fill="#1C1C1C" sketch:type="MSShapeGroup"></path>
                <path d="M2.06209724,12.0878983 C3.31128826,12.7105143 4.35938817,12.6516893 5.57406355,11.75 C5.94047958,12.8477306 5.88633004,15.5183064 3.90468213,15.8064105 C1.92303422,16.0943892 2.00994861,13.4335966 2.00019419,12.822269 C1.99656754,12.5977561 2.04471436,12.3727414 2.06309769,12.0867695 L2.06209724,12.0878983 Z" id="Stroke-1609" stroke="#000000" stroke-width="0.5" stroke-linecap="round" stroke-linejoin="round" sketch:type="MSShapeGroup"></path>
                <path d="M3.27557151,10.0497889 L3.27557151,11.5497889 L4.30682151,11.5497889" id="Stroke-1610" stroke="#000000" stroke-width="0.4" stroke-linecap="round" stroke-linejoin="round" sketch:type="MSShapeGroup" transform="translate(3.791197, 10.799789) rotate(-6.000000) translate(-3.791197, -10.799789) "></path>
                <path d="M9.125,9.40040777 C9.77813189,8.59693728 9.99555029,7.65591105 10.0812151,6.734375 L13.671875,9.10643078 C12.7162861,9.96637283 12.411199,10.5656961 12.2556496,11.0319614 C10.8630948,11.1377831 9.91289122,10.6893838 9.125,9.40040777 L9.125,9.40040777 Z" id="Fill-1611" fill="#7C7C7C" sketch:type="MSShapeGroup"></path>
                <path d="M9.125,9.40040777 C9.77813189,8.59693728 9.99555029,7.65591105 10.0812151,6.734375 L13.671875,9.10643078 C12.7162861,9.96637283 12.411199,10.5656961 12.2556496,11.0319614 C10.8630948,11.1377831 9.91289122,10.6893838 9.125,9.40040777 L9.125,9.40040777 Z" id="Stroke-1612" stroke="#000000" stroke-width="0.5" stroke-linecap="round" stroke-linejoin="round" sketch:type="MSShapeGroup"></path>
                <path d="M12.2649976,10.9847916 C12.1743938,11.254512 12.1343626,11.4794241 12.0463942,11.6846705 C11.8070849,12.2429057 10.7485776,14.2799352 9.15171871,13.714232 C7.55485978,13.1482798 8.37393233,10.2310185 9.12812661,9.359375 C9.91758355,10.6435027 10.8696754,11.0902153 12.265625,10.9860363 L12.2649976,10.9847916 Z" id="Fill-1613" fill="#1C1C1C" sketch:type="MSShapeGroup"></path>
                <path d="M12.2649976,10.9847916 C12.1743938,11.254512 12.1343626,11.4794241 12.0463942,11.6846705 C11.8070849,12.2429057 10.7485776,14.2799352 9.15171871,13.714232 C7.55485978,13.1482798 8.37393233,10.2310185 9.12812661,9.359375 C9.91758355,10.6435027 10.8696754,11.0902153 12.265625,10.9860363 L12.2649976,10.9847916 Z" id="Stroke-1614" stroke="#000000" stroke-width="0.5" stroke-linecap="round" stroke-linejoin="round" sketch:type="MSShapeGroup"></path>
                <path d="M10.1146375,6.7501214 C10.2208897,5.60871366 10.1256637,4.49720143 10.405954,3.71378919 C10.912782,2.29744291 12.8145463,0.107441091 14.7773303,0.903987333 C15.9360809,1.56569111 16.9018734,6.24765182 13.7069145,9.125 L10.109375,6.74974614 L10.1146375,6.7501214 Z" id="Fill-1615" fill="#1C1C1C" sketch:type="MSShapeGroup"></path>
                <path d="M10.1146375,6.7501214 C10.2208897,5.60871366 10.1256637,4.49720143 10.405954,3.71378919 C10.912782,2.29744291 12.8145463,0.107441091 14.7773303,0.903987333 C15.9360809,1.56569111 16.9018734,6.24765182 13.7069145,9.125 L10.109375,6.74974614 L10.1146375,6.7501214 Z" id="Stroke-1616" stroke="#000000" stroke-width="0.5" stroke-linecap="round" stroke-linejoin="round" sketch:type="MSShapeGroup"></path>
                <path id="Stroke-1618" stroke="#000000" stroke-width="0.5" stroke-linecap="round" stroke-linejoin="round" sketch:type="MSShapeGroup" d="M11.414375,9.359375 L11.375,10.25"></path>
                <path d="M1.25,9.96875 L6.125,8.984375" id="Stroke-22447" stroke="#FFFFFF" stroke-width="0.5" stroke-linecap="round" stroke-linejoin="round" sketch:type="MSShapeGroup"></path>
                <path d="M1.859375,11.7387169 C2.93547089,12.0249408 4.08762168,12.7681007 5.75,11.234375" id="Stroke-22448" stroke="#FFFFFF" stroke-width="0.5" stroke-linecap="round" stroke-linejoin="round" sketch:type="MSShapeGroup"></path>
                <path d="M9.5,6.734375 L13.8125,9.546875" id="Stroke-22449" stroke="#FFFFFF" stroke-width="0.5" stroke-linecap="round" stroke-linejoin="round" sketch:type="MSShapeGroup"></path>
                <path d="M9.265625,8.984375 C9.82128842,9.74260938 10.3095911,11.0269656 12.6875,10.781895" id="Stroke-22450" stroke="#FFFFFF" stroke-width="0.5" stroke-linecap="round" stroke-linejoin="round" sketch:type="MSShapeGroup"></path>
                <path d="M10.9025474,9.45705755 L10.9025474,10.0256692 C10.9025474,10.1005187 10.8860486,10.1556489 10.8530504,10.1910616 C10.8200523,10.2264742 10.7769943,10.2441803 10.7238754,10.2441803 C10.6667322,10.2441803 10.6224671,10.2256694 10.5910786,10.1886471 C10.5596901,10.1516248 10.5439961,10.0972993 10.5439961,10.0256692 L10.5439961,8.66389862 C10.5439961,8.58663466 10.5612997,8.5306996 10.5959076,8.49609179 C10.6305154,8.46148397 10.6864504,8.44418032 10.7637144,8.44418032 L11.346813,8.44418032 C11.4272963,8.44418032 11.4961085,8.44760081 11.5532516,8.45444189 C11.6103947,8.46128297 11.6619033,8.47516613 11.7077788,8.49609179 C11.7633122,8.51943194 11.8124063,8.55283201 11.8550625,8.59629299 C11.8977186,8.63975397 11.9301126,8.69025648 11.9522455,8.74780204 C11.9743785,8.8053476 11.9854447,8.86631278 11.9854447,8.93069942 C11.9854447,9.06269203 11.9482218,9.16812357 11.8737747,9.2469972 C11.7993277,9.32587083 11.6864515,9.38180588 11.5351429,9.41480403 C11.5987247,9.44860702 11.6594887,9.49850592 11.7174367,9.56450222 C11.7753847,9.63049852 11.8270944,9.70071915 11.8725675,9.7751662 C11.9180405,9.84961325 11.9534527,9.91681579 11.9788049,9.97677585 C12.0041571,10.0367359 12.0168331,10.077983 12.0168331,10.1005183 C12.0168331,10.1238585 12.0093885,10.1469971 11.9944991,10.1699348 C11.9796097,10.1928725 11.9592879,10.210981 11.9335333,10.2242608 C11.9077786,10.2375405 11.8780002,10.2441803 11.8441973,10.2441803 C11.8039556,10.2441803 11.7701531,10.2347236 11.7427888,10.21581 C11.7154245,10.1968965 11.6918835,10.1729531 11.6721651,10.1439791 C11.6524467,10.1150051 11.6256864,10.0723496 11.5918834,10.0160113 L11.4482214,9.77697706 C11.3967121,9.68925027 11.3506361,9.62245013 11.309992,9.57657465 C11.269348,9.53069917 11.2281009,9.49931116 11.1862496,9.48240967 C11.1443983,9.46550817 11.0916825,9.45705755 11.0281007,9.45705755 L10.9025474,9.45705755 Z M10.9025474,8.7133956 L10.9025474,9.1999147 L11.2236741,9.1999147 C11.3097913,9.1999147 11.3822252,9.19247011 11.440978,9.1775807 C11.4997308,9.16269129 11.5445995,9.13733943 11.5755856,9.10152436 C11.6065717,9.0657093 11.6220645,9.01641402 11.6220645,8.95363704 C11.6220645,8.90454223 11.6095897,8.86128311 11.5846399,8.82385838 C11.5596901,8.78643364 11.5250828,8.75846612 11.480817,8.73995496 C11.4389657,8.72224863 11.3564715,8.7133956 11.2333321,8.7133956 L10.9025474,8.7133956 Z" id="R" fill="#000000" sketch:type="MSShapeGroup" transform="translate(11.280415, 9.344180) rotate(32.000000) translate(-11.280415, -9.344180) "></path>
            </g>
        </g>
    </g>
</svg>