<?xml version="1.0" encoding="UTF-8" standalone="no"?>
<svg width="24px" height="24px" viewBox="0 0 24 24" version="1.1" xmlns="http://www.w3.org/2000/svg" xmlns:xlink="http://www.w3.org/1999/xlink" xmlns:sketch="http://www.bohemiancoding.com/sketch/ns">
    <!-- Generator: Sketch 3.3.1 (12002) - http://www.bohemiancoding.com/sketch -->
    <title>tb_zoomextents</title>
    <desc>Created with Sketch.</desc>
    <defs></defs>
    <g id="Page-1" stroke="none" stroke-width="1" fill="none" fill-rule="evenodd" sketch:type="MSPage">
        <g id="tb_zoomextents" sketch:type="MSArtboardGroup">
            <g id="Group" sketch:type="MSLayerGroup" transform="translate(4.000000, 3.000000)">
                <path d="M13.765625,14.71875 L14.890625,13.359375" id="Fill-1419" fill="#000000" sketch:type="MSShapeGroup" transform="translate(14.328125, 14.039062) scale(-1, 1) translate(-14.328125, -14.039062) "></path>
                <path d="M13.765625,14.71875 L14.890625,13.359375" id="Stroke-1420" stroke="#FFFFFF" stroke-width="1.5" stroke-linecap="round" sketch:type="MSShapeGroup" transform="translate(14.328125, 14.039062) scale(-1, 1) translate(-14.328125, -14.039062) "></path>
                <path d="M13.765625,14.71875 L14.890625,13.359375" id="Fill-1429" fill="#000000" sketch:type="MSShapeGroup" transform="translate(14.328125, 14.039062) scale(-1, 1) translate(-14.328125, -14.039062) "></path>
                <path d="M6.921875,7.125 C7.83791125,7.16078529 8.55086458,7.91625249 8.51427751,8.8125" id="Stroke-15591" stroke="#FFFFFF" stroke-width="1.5" stroke-linecap="round" stroke-linejoin="round" sketch:type="MSShapeGroup" transform="translate(7.718750, 7.968750) scale(-1, 1) translate(-7.718750, -7.968750) "></path>
                <g transform="translate(0.218750, 4.968750)" sketch:type="MSShapeGroup">
                    <path d="M3.609375,5.76002984 L6.30983759,8.4375 L6.75,8.0213445 L4.04953741,5.34375 L3.609375,5.76002984 L3.609375,5.76002984 Z" id="Fill-15579" fill="#212222" transform="translate(5.179688, 6.890625) scale(-1, 1) translate(-5.179688, -6.890625) "></path>
                    <path d="M3.609375,5.76002984 L6.30983759,8.4375 L6.75,8.0213445 L4.04953741,5.34375 L3.609375,5.76002984 L3.609375,5.76002984 Z" id="Stroke-15580" stroke="#FFFFFF" stroke-width="1.5" stroke-linecap="round" stroke-linejoin="round" transform="translate(5.179688, 6.890625) scale(-1, 1) translate(-5.179688, -6.890625) "></path>
                    <path d="M5.71150576,1.06633197 C4.18444353,2.51228068 4.15530064,4.88975284 5.64646584,6.37059474 C7.13775611,7.85143663 9.58951086,7.87972504 11.1165731,6.43377633 C12.6437604,4.987703 12.6727782,2.61023084 11.181613,1.12938894 C9.69032273,-0.351452951 7.23856798,-0.379741355 5.71150576,1.06633197 L5.71150576,1.06633197 Z" id="Fill-15581" fill="#212222" transform="translate(8.414062, 3.750000) scale(-1, 1) translate(-8.414062, -3.750000) "></path>
                    <path d="M5.71150576,1.06633197 C4.18444353,2.51228068 4.15530064,4.88975284 5.64646584,6.37059474 C7.13775611,7.85143663 9.58951086,7.87972504 11.1165731,6.43377633 C12.6437604,4.987703 12.6727782,2.61023084 11.181613,1.12938894 C9.69032273,-0.351452951 7.23856798,-0.379741355 5.71150576,1.06633197 L5.71150576,1.06633197 Z" id="Stroke-15582" stroke="#FFFFFF" stroke-width="1.5" stroke-linecap="round" stroke-linejoin="round" transform="translate(8.414062, 3.750000) scale(-1, 1) translate(-8.414062, -3.750000) "></path>
                    <path d="M0.261880757,8.27377446 L3.81364688,11.8231421 C4.1684744,12.1777788 4.75058603,12.184779 5.11376683,11.8386426 L5.11376683,11.8386426 C5.47694764,11.4926311 5.48368014,10.9246123 5.12885261,10.5699755 L1.57696181,7.02060794 C1.22213429,6.66597119 0.640022665,6.65897096 0.276841862,7.00510743 L0.276841862,7.00510743 C-0.0863389418,7.35111889 -0.0930714387,7.91913771 0.261880757,8.27377446 L0.261880757,8.27377446 Z" id="Fill-15583" fill="#212222" transform="translate(2.695312, 9.421875) scale(-1, 1) translate(-2.695312, -9.421875) "></path>
                    <path d="M0.261880757,8.27377446 L3.81364688,11.8231421 C4.1684744,12.1777788 4.75058603,12.184779 5.11376683,11.8386426 L5.11376683,11.8386426 C5.47694764,11.4926311 5.48368014,10.9246123 5.12885261,10.5699755 L1.57696181,7.02060794 C1.22213429,6.66597119 0.640022665,6.65897096 0.276841862,7.00510743 L0.276841862,7.00510743 C-0.0863389418,7.35111889 -0.0930714387,7.91913771 0.261880757,8.27377446 L0.261880757,8.27377446 Z" id="Stroke-15584" stroke="#FFFFFF" stroke-width="1.5" stroke-linecap="round" stroke-linejoin="round" transform="translate(2.695312, 9.421875) scale(-1, 1) translate(-2.695312, -9.421875) "></path>
                    <path d="M6.17021253,1.50238634 C4.90217085,2.71334995 4.87799394,4.7045704 6.11612604,5.94471538 C7.35425813,7.18498559 9.39010372,7.2086563 10.6578961,5.99756744 C11.9259378,4.78647858 11.9501147,2.79538338 10.7121073,1.5552384 C9.47372593,0.315093432 7.43812959,0.291297477 6.17021253,1.50238634 L6.17021253,1.50238634 Z" id="Fill-15585" fill="#A8D4FA" transform="translate(8.414062, 3.750000) scale(-1, 1) translate(-8.414062, -3.750000) "></path>
                    <path d="M6.17021253,1.50238634 C4.90217085,2.71334995 4.87799394,4.7045704 6.11612604,5.94471538 C7.35425813,7.18498559 9.39010372,7.2086563 10.6578961,5.99756744 C11.9259378,4.78647858 11.9501147,2.79538338 10.7121073,1.5552384 C9.47372593,0.315093432 7.43812959,0.291297477 6.17021253,1.50238634 L6.17021253,1.50238634 Z" id="Stroke-15586" stroke="#FFFFFF" stroke-width="1.5" stroke-linecap="round" stroke-linejoin="round" transform="translate(8.414062, 3.750000) scale(-1, 1) translate(-8.414062, -3.750000) "></path>
                    <path d="M6.49511484,1.93181671 C5.47711192,2.89887739 5.45772496,4.48885214 6.45183815,5.47916428 C7.44607641,6.4693514 9.08045953,6.48835259 10.0985875,5.52129192 C11.1165905,4.55423124 11.1361025,2.9643815 10.1418642,1.97406936 C9.14787612,0.983632224 7.51324284,0.964881047 6.49511484,1.93181671 L6.49511484,1.93181671 Z" id="Fill-15587" fill="#8AAECD" transform="translate(8.296875, 3.726562) scale(-1, 1) translate(-8.296875, -3.726562) "></path>
                    <path d="M6.49511484,1.93181671 C5.47711192,2.89887739 5.45772496,4.48885214 6.45183815,5.47916428 C7.44607641,6.4693514 9.08045953,6.48835259 10.0985875,5.52129192 C11.1165905,4.55423124 11.1361025,2.9643815 10.1418642,1.97406936 C9.14787612,0.983632224 7.51324284,0.964881047 6.49511484,1.93181671 L6.49511484,1.93181671 Z" id="Stroke-15588" stroke="#FFFFFF" stroke-width="1.5" stroke-linecap="round" stroke-linejoin="round" transform="translate(8.296875, 3.726562) scale(-1, 1) translate(-8.296875, -3.726562) "></path>
                    <path d="M0.37301283,7.92828185 L3.6645615,11.2011694 C3.85258553,11.3879986 4.16094494,11.3917502 4.3533562,11.2092978 L4.3533562,11.2092978 C4.54576746,11.0268455 4.54927724,10.7274685 4.36125321,10.5405143 L1.06970454,7.26762677 C0.881805856,7.08067251 0.573446446,7.07704597 0.381035188,7.25949832 L0.381035188,7.25949832 C0.188623931,7.44195067 0.185114149,7.74132759 0.37301283,7.92828185 L0.37301283,7.92828185 Z" id="Fill-15589" fill="#3A3C3D" transform="translate(2.367188, 9.234375) scale(-1, 1) translate(-2.367188, -9.234375) "></path>
                    <path d="M0.37301283,7.92828185 L3.6645615,11.2011694 C3.85258553,11.3879986 4.16094494,11.3917502 4.3533562,11.2092978 L4.3533562,11.2092978 C4.54576746,11.0268455 4.54927724,10.7274685 4.36125321,10.5405143 L1.06970454,7.26762677 C0.881805856,7.08067251 0.573446446,7.07704597 0.381035188,7.25949832 L0.381035188,7.25949832 C0.188623931,7.44195067 0.185114149,7.74132759 0.37301283,7.92828185 L0.37301283,7.92828185 Z" id="Stroke-15590" stroke="#FFFFFF" stroke-width="1.5" stroke-linecap="round" stroke-linejoin="round" transform="translate(2.367188, 9.234375) scale(-1, 1) translate(-2.367188, -9.234375) "></path>
                    <path d="M3.609375,5.75988878 L6.30967758,8.4375 L6.75,8.02136122 L4.04957244,5.34375 L3.609375,5.75988878 L3.609375,5.75988878 Z" id="Fill-15592" fill="#212222" transform="translate(5.179688, 6.890625) scale(-1, 1) translate(-5.179688, -6.890625) "></path>
                    <path d="M3.609375,5.75988878 L6.30967758,8.4375 L6.75,8.02136122 L4.04957244,5.34375 L3.609375,5.75988878 L3.609375,5.75988878 Z" id="Stroke-15593" stroke="#212222" stroke-width="0.5" stroke-linecap="round" stroke-linejoin="round" transform="translate(5.179688, 6.890625) scale(-1, 1) translate(-5.179688, -6.890625) "></path>
                    <path d="M5.71150576,1.06633197 C4.18444353,2.51228068 4.15530064,4.88975284 5.64646584,6.37059474 C7.13775611,7.85143663 9.58951086,7.87972504 11.1165731,6.43377633 C12.6437604,4.987703 12.6727782,2.61023084 11.181613,1.12938894 C9.69032273,-0.351452951 7.23856798,-0.379741355 5.71150576,1.06633197 L5.71150576,1.06633197 Z" id="Fill-15594" fill="#212222" transform="translate(8.414062, 3.750000) scale(-1, 1) translate(-8.414062, -3.750000) "></path>
                    <path d="M5.71150576,1.06633197 C4.18444353,2.51228068 4.15530064,4.88975284 5.64646584,6.37059474 C7.13775611,7.85143663 9.58951086,7.87972504 11.1165731,6.43377633 C12.6437604,4.987703 12.6727782,2.61023084 11.181613,1.12938894 C9.69032273,-0.351452951 7.23856798,-0.379741355 5.71150576,1.06633197 L5.71150576,1.06633197 Z" id="Stroke-15595" stroke="#212222" stroke-width="0.5" stroke-linecap="round" stroke-linejoin="round" transform="translate(8.414062, 3.750000) scale(-1, 1) translate(-8.414062, -3.750000) "></path>
                    <path d="M0.261880757,8.27377446 L3.81364688,11.8231421 C4.1684744,12.1777788 4.75058603,12.184779 5.11376683,11.8386426 L5.11376683,11.8386426 C5.47694764,11.4926311 5.48368014,10.9246123 5.12885261,10.5699755 L1.57696181,7.02060794 C1.22213429,6.66597119 0.640022665,6.65897096 0.276841862,7.00510743 L0.276841862,7.00510743 C-0.0863389418,7.35111889 -0.0930714387,7.91913771 0.261880757,8.27377446 L0.261880757,8.27377446 Z" id="Fill-15596" fill="#212222" transform="translate(2.695312, 9.421875) scale(-1, 1) translate(-2.695312, -9.421875) "></path>
                    <path d="M0.261880757,8.27377446 L3.81364688,11.8231421 C4.1684744,12.1777788 4.75058603,12.184779 5.11376683,11.8386426 L5.11376683,11.8386426 C5.47694764,11.4926311 5.48368014,10.9246123 5.12885261,10.5699755 L1.57696181,7.02060794 C1.22213429,6.66597119 0.640022665,6.65897096 0.276841862,7.00510743 L0.276841862,7.00510743 C-0.0863389418,7.35111889 -0.0930714387,7.91913771 0.261880757,8.27377446 L0.261880757,8.27377446 Z" id="Stroke-15597" stroke="#212222" stroke-width="0.5" stroke-linecap="round" stroke-linejoin="round" transform="translate(2.695312, 9.421875) scale(-1, 1) translate(-2.695312, -9.421875) "></path>
                    <path d="M6.17021253,1.50238634 C4.90217085,2.71334995 4.87799394,4.7045704 6.11612604,5.94471538 C7.35425813,7.18498559 9.39010372,7.2086563 10.6578961,5.99756744 C11.9259378,4.78647858 11.9501147,2.79538338 10.7121073,1.5552384 C9.47372593,0.315093432 7.43812959,0.291297477 6.17021253,1.50238634 L6.17021253,1.50238634 Z" id="Fill-15598" fill="#A8D4FA" transform="translate(8.414062, 3.750000) scale(-1, 1) translate(-8.414062, -3.750000) "></path>
                    <path d="M6.49511484,1.93181671 C5.47711192,2.89887739 5.45772496,4.48885214 6.45183815,5.47916428 C7.44607641,6.4693514 9.08045953,6.48835259 10.0985875,5.52129192 C11.1165905,4.55423124 11.1361025,2.9643815 10.1418642,1.97406936 C9.14787612,0.983632224 7.51324284,0.964881047 6.49511484,1.93181671 L6.49511484,1.93181671 Z" id="Fill-15599" fill="#8AAECD" transform="translate(8.296875, 3.726562) scale(-1, 1) translate(-8.296875, -3.726562) "></path>
                    <path d="M0.37301283,7.92828185 L3.6645615,11.2011694 C3.85258553,11.3879986 4.16094494,11.3917502 4.3533562,11.2092978 L4.3533562,11.2092978 C4.54576746,11.0268455 4.54927724,10.7274685 4.36125321,10.5405143 L1.06970454,7.26762677 C0.881805856,7.08067251 0.573446446,7.07704597 0.381035188,7.25949832 L0.381035188,7.25949832 C0.188623931,7.44195067 0.185114149,7.74132759 0.37301283,7.92828185 L0.37301283,7.92828185 Z" id="Fill-15600" fill="#3A3C3D" transform="translate(2.367188, 9.234375) scale(-1, 1) translate(-2.367188, -9.234375) "></path>
                </g>
                <path d="M17.0195007,0.619628906 L12.2816467,1.9286499 L13.2660217,2.95788574 L11.6367493,4.45788574 L13.0450134,5.91101074 L14.6763,4.45788574 L15.70755,5.39538574 L17.0195007,0.619628906 Z" id="Path-3337" stroke="#000000" stroke-width="0.5" fill="#FB0011" sketch:type="MSShapeGroup"></path>
                <path d="M5.64956665,0.665313721 L0.911712646,1.97433472 L1.89608765,3.00357056 L0.266815186,4.50357056 L1.67507935,5.95669556 L3.30636597,4.50357056 L4.33761597,5.44107056 L5.64956665,0.665313721 Z" id="Path-3337-Copy" stroke="#000000" stroke-width="0.5" fill="#FB0011" sketch:type="MSShapeGroup" transform="translate(2.958191, 3.311005) rotate(-90.000000) translate(-2.958191, -3.311005) "></path>
                <path d="M17.0651855,11.7175598 L12.3273315,13.0265808 L13.3117065,14.0558167 L11.6824341,15.5558167 L13.0906982,17.0089417 L14.7219849,15.5558167 L15.7532349,16.4933167 L17.0651855,11.7175598 Z" id="Path-3337-Copy-2" stroke="#000000" stroke-width="0.5" fill="#FB0011" sketch:type="MSShapeGroup" transform="translate(14.373810, 14.363251) rotate(90.000000) translate(-14.373810, -14.363251) "></path>
            </g>
        </g>
    </g>
</svg>