<?xml version="1.0" encoding="UTF-8" standalone="no"?>
<svg width="24px" height="24px" viewBox="0 0 24 24" version="1.1" xmlns="http://www.w3.org/2000/svg" xmlns:xlink="http://www.w3.org/1999/xlink" xmlns:sketch="http://www.bohemiancoding.com/sketch/ns">
    <!-- Generator: Sketch 3.3.1 (12002) - http://www.bohemiancoding.com/sketch -->
    <title>tb_zoomwindow</title>
    <desc>Created with Sketch.</desc>
    <defs></defs>
    <g id="Page-1" stroke="none" stroke-width="1" fill="none" fill-rule="evenodd" sketch:type="MSPage">
        <g id="tb_zoomwindow" sketch:type="MSArtboardGroup">
            <g id="Group" sketch:type="MSLayerGroup" transform="translate(3.000000, 3.000000)">
                <g id="Group-Copy" transform="translate(2.000000, 2.000000)" stroke="#FB0011" sketch:type="MSShapeGroup">
                    <path d="M0,0 L15.1111111,0 L15.1111111,15.1111111 L0,15.1111111 L0,0 L0,0 Z" id="Stroke-1259" stroke-dasharray="1"></path>
                    <path d="M0,0.755555556 L0,0 L0.755555556,0" id="Stroke-1996"></path>
                    <path d="M13.6,0 L15.1111111,0 L15.1111111,1.51111111" id="Stroke-1997"></path>
                    <path d="M15.1111111,12.8444444 L15.1111111,15.1111111 L12.8444444,15.1111111" id="Stroke-1998"></path>
                </g>
                <path d="M9.890625,8.66430717 L6.42443953,12.234375 L5.859375,11.6794428 L9.32556047,8.109375 L9.890625,8.66430717 L9.890625,8.66430717 Z" id="Fill-15611" fill="#212222" sketch:type="MSShapeGroup"></path>
                <path d="M9.890625,8.66430717 L6.42443953,12.234375 L5.859375,11.6794428 L9.32556047,8.109375 L9.890625,8.66430717 L9.890625,8.66430717 Z" id="Stroke-15612" stroke="#212222" stroke-width="0.5" stroke-linecap="round" stroke-linejoin="round" sketch:type="MSShapeGroup"></path>
                <path d="M15.3714277,2.40391307 C17.3428518,4.32887322 17.380559,7.4939206 15.455486,9.46523212 C13.5304129,11.4366689 10.3655111,11.4742511 8.39408699,9.5491657 C6.42278812,7.62420555 6.38508089,4.45915817 8.31015395,2.48784664 C10.2351017,0.516535119 13.4001288,0.478827647 15.3714277,2.40391307 L15.3714277,2.40391307 Z" id="Fill-15613" fill="#212222" sketch:type="MSShapeGroup"></path>
                <path d="M15.3714277,2.40391307 C17.3428518,4.32887322 17.380559,7.4939206 15.455486,9.46523212 C13.5304129,11.4366689 10.3655111,11.4742511 8.39408699,9.5491657 C6.42278812,7.62420555 6.38508089,4.45915817 8.31015395,2.48784664 C10.2351017,0.516535119 13.4001288,0.478827647 15.3714277,2.40391307 L15.3714277,2.40391307 Z" id="Stroke-15614" stroke="#212222" stroke-width="0.5" stroke-linecap="round" stroke-linejoin="round" sketch:type="MSShapeGroup"></path>
                <path d="M7.62992161,12.0022071 L3.0272781,16.7044874 C2.56770305,17.1739528 1.8138596,17.1828295 1.34325575,16.7244913 L1.34325575,16.7244913 C0.872651903,16.266153 0.863753667,15.5140082 1.32320339,15.0446679 L5.92597223,10.3423876 C6.38542195,9.87292218 7.1392654,9.86404547 7.60986925,10.3223837 L7.60986925,10.3223837 C8.0804731,10.780722 8.08937133,11.5327417 7.62992161,12.0022071 L7.62992161,12.0022071 Z" id="Fill-15615" fill="#212222" sketch:type="MSShapeGroup"></path>
                <path d="M7.62992161,12.0022071 L3.0272781,16.7044874 C2.56770305,17.1739528 1.8138596,17.1828295 1.34325575,16.7244913 L1.34325575,16.7244913 C0.872651903,16.266153 0.863753667,15.5140082 1.32320339,15.0446679 L5.92597223,10.3423876 C6.38542195,9.87292218 7.1392654,9.86404547 7.60986925,10.3223837 L7.60986925,10.3223837 C8.0804731,10.780722 8.08937133,11.5327417 7.62992161,12.0022071 L7.62992161,12.0022071 Z" id="Stroke-15616" stroke="#212222" stroke-width="0.5" stroke-linecap="round" stroke-linejoin="round" sketch:type="MSShapeGroup"></path>
                <path d="M14.7819023,3.0544783 C16.419988,4.6542253 16.4513431,7.28445122 14.851733,8.92242425 C13.252123,10.5606471 10.6219169,10.5920025 8.98370632,8.99225547 C7.34562069,7.39263339 7.31426559,4.76253239 8.91400054,3.12430951 C10.5137355,1.48621156 13.1438167,1.45498114 14.7819023,3.0544783 L14.7819023,3.0544783 Z" id="Fill-15617" fill="#A8D4FA" sketch:type="MSShapeGroup"></path>
                <path d="M14.2789212,3.57133084 C15.593183,4.85464967 15.618238,6.96478463 14.3349192,8.27892116 C13.0516003,9.59318297 10.9415906,9.618238 9.62732884,8.33491916 C8.31306703,7.05160033 8.288012,4.94159064 9.57133084,3.62732884 C10.8546497,2.31306703 12.9647846,2.288012 14.2789212,3.57133084 L14.2789212,3.57133084 Z" id="Fill-15618" fill="#8AAECD" sketch:type="MSShapeGroup"></path>
                <path d="M6.80635237,11.4210955 L2.57378505,15.74908 C2.33220987,15.9961687 1.93596154,16.0007883 1.68863457,15.7596927 L1.68863457,15.7596927 C1.44130759,15.5184722 1.43655611,15.1226809 1.6781313,14.8757171 L5.91069861,10.5477326 C6.15214876,10.3007688 6.54852212,10.2960243 6.79572406,10.5372447 L6.79572406,10.5372447 C7.04305103,10.7783403 7.04780251,11.1741317 6.80635237,11.4210955 L6.80635237,11.4210955 Z" id="Fill-15619" fill="#3A3C3D" sketch:type="MSShapeGroup"></path>
                <path d="M11.671875,3.890625 C10.4865496,3.93841482 9.56383012,4.94575427 9.61111406,6.140625" id="Stroke-15620" stroke="#9FD4FC" stroke-width="1.375" stroke-linecap="round" stroke-linejoin="round" sketch:type="MSShapeGroup"></path>
            </g>
        </g>
    </g>
</svg>